%TF.GenerationSoftware,KiCad,Pcbnew,8.0.1*%
%TF.CreationDate,2024-07-26T02:51:33+08:00*%
%TF.ProjectId,555Sandbox,35353553-616e-4646-926f-782e6b696361,1.0.0*%
%TF.SameCoordinates,Original*%
%TF.FileFunction,Drillmap*%
%TF.FilePolarity,Positive*%
%FSLAX45Y45*%
G04 Gerber Fmt 4.5, Leading zero omitted, Abs format (unit mm)*
G04 Created by KiCad (PCBNEW 8.0.1) date 2024-07-26 02:51:33*
%MOMM*%
%LPD*%
G01*
G04 APERTURE LIST*
%ADD10C,0.050000*%
%ADD11C,0.200000*%
%ADD12C,0.100000*%
%ADD13C,0.150000*%
%ADD14C,0.300000*%
G04 APERTURE END LIST*
D10*
X7690000Y-9405000D02*
G75*
G02*
X7495000Y-9210000I0J195000D01*
G01*
X9569185Y-9054895D02*
G75*
G02*
X9219185Y-9405005I-350005J-105D01*
G01*
X9569185Y-9054895D02*
X9568581Y-7040000D01*
X9218581Y-6690000D02*
G75*
G02*
X9568580Y-7040000I-1J-350000D01*
G01*
X7495000Y-9210000D02*
X7495000Y-6885000D01*
X9219185Y-9405000D02*
X7690000Y-9405000D01*
X7495000Y-6885000D02*
G75*
G02*
X7690000Y-6690000I195000J0D01*
G01*
X7690000Y-6690000D02*
X9218581Y-6690000D01*
D11*
D12*
X7630000Y-6825000D02*
X7660000Y-6855000D01*
X7660000Y-6825000D02*
X7630000Y-6855000D01*
X7650000Y-9220000D02*
X7680000Y-9250000D01*
X7680000Y-9220000D02*
X7650000Y-9250000D01*
X7750000Y-9220000D02*
X7780000Y-9250000D01*
X7780000Y-9220000D02*
X7750000Y-9250000D01*
X8315000Y-7225000D02*
X8345000Y-7255000D01*
X8345000Y-7225000D02*
X8315000Y-7255000D01*
X8325000Y-8880000D02*
X8355000Y-8910000D01*
X8355000Y-8880000D02*
X8325000Y-8910000D01*
X8450000Y-7350000D02*
X8480000Y-7380000D01*
X8480000Y-7350000D02*
X8450000Y-7380000D01*
X8540000Y-7440000D02*
X8570000Y-7470000D01*
X8570000Y-7440000D02*
X8540000Y-7470000D01*
X8675000Y-7585000D02*
X8705000Y-7615000D01*
X8705000Y-7585000D02*
X8675000Y-7615000D01*
X8695000Y-7340000D02*
X8725000Y-7370000D01*
X8725000Y-7340000D02*
X8695000Y-7370000D01*
X8915000Y-7320000D02*
X8945000Y-7350000D01*
X8945000Y-7320000D02*
X8915000Y-7350000D01*
X8950000Y-7820000D02*
X8980000Y-7850000D01*
X8980000Y-7820000D02*
X8950000Y-7850000D01*
X9180000Y-7750000D02*
X9210000Y-7780000D01*
X9210000Y-7750000D02*
X9180000Y-7780000D01*
X9210000Y-9290000D02*
X9240000Y-9320000D01*
X9240000Y-9290000D02*
X9210000Y-9320000D01*
X9280000Y-7750000D02*
X9310000Y-7780000D01*
X9310000Y-7750000D02*
X9280000Y-7780000D01*
X9365000Y-9210000D02*
X9395000Y-9240000D01*
X9395000Y-9210000D02*
X9365000Y-9240000D01*
X9380000Y-7750000D02*
X9410000Y-7780000D01*
X9410000Y-7750000D02*
X9380000Y-7780000D01*
X9445000Y-9070000D02*
X9475000Y-9100000D01*
X9475000Y-9070000D02*
X9445000Y-9100000D01*
X8470000Y-9230000D02*
G75*
G02*
X8405000Y-9230000I-32500J0D01*
G01*
X8405000Y-9230000D02*
G75*
G02*
X8470000Y-9230000I32500J0D01*
G01*
X8597000Y-9230000D02*
G75*
G02*
X8532000Y-9230000I-32500J0D01*
G01*
X8532000Y-9230000D02*
G75*
G02*
X8597000Y-9230000I32500J0D01*
G01*
X8724000Y-9230000D02*
G75*
G02*
X8659000Y-9230000I-32500J0D01*
G01*
X8659000Y-9230000D02*
G75*
G02*
X8724000Y-9230000I32500J0D01*
G01*
X7845000Y-7800000D02*
X7845000Y-7890000D01*
X7800000Y-7845000D02*
X7890000Y-7845000D01*
X7845000Y-8000000D02*
X7845000Y-8090000D01*
X7800000Y-8045000D02*
X7890000Y-8045000D01*
X7845000Y-8200000D02*
X7845000Y-8290000D01*
X7800000Y-8245000D02*
X7890000Y-8245000D01*
X7670356Y-7115356D02*
X7670356Y-7044644D01*
X7599644Y-7044644D01*
X7599644Y-7115356D01*
X7670356Y-7115356D01*
X7674356Y-9045356D02*
X7674356Y-8974644D01*
X7603644Y-8974644D01*
X7603644Y-9045356D01*
X7674356Y-9045356D01*
X8170356Y-6865356D02*
X8170356Y-6794644D01*
X8099644Y-6794644D01*
X8099644Y-6865356D01*
X8170356Y-6865356D01*
X8170356Y-7365356D02*
X8170356Y-7294644D01*
X8099644Y-7294644D01*
X8099644Y-7365356D01*
X8170356Y-7365356D01*
X8174356Y-8795356D02*
X8174356Y-8724644D01*
X8103644Y-8724644D01*
X8103644Y-8795356D01*
X8174356Y-8795356D01*
X8174356Y-9295356D02*
X8174356Y-9224644D01*
X8103644Y-9224644D01*
X8103644Y-9295356D01*
X8174356Y-9295356D01*
D13*
X7845000Y-7710000D02*
X7920000Y-7635000D01*
X7845000Y-7560000D01*
X7770000Y-7635000D01*
X7845000Y-7710000D01*
X7845000Y-8530000D02*
X7920000Y-8455000D01*
X7845000Y-8380000D01*
X7770000Y-8455000D01*
X7845000Y-8530000D01*
D14*
X9045000Y-6920000D02*
X9345000Y-7220000D01*
X9345000Y-6920000D02*
X9045000Y-7220000D01*
X9345000Y-7070000D02*
G75*
G02*
X9045000Y-7070000I-150000J0D01*
G01*
X9045000Y-7070000D02*
G75*
G02*
X9345000Y-7070000I150000J0D01*
G01*
D11*
X7753277Y-9718984D02*
X7753277Y-9518984D01*
X7753277Y-9518984D02*
X7800896Y-9518984D01*
X7800896Y-9518984D02*
X7829467Y-9528508D01*
X7829467Y-9528508D02*
X7848515Y-9547555D01*
X7848515Y-9547555D02*
X7858039Y-9566603D01*
X7858039Y-9566603D02*
X7867562Y-9604698D01*
X7867562Y-9604698D02*
X7867562Y-9633270D01*
X7867562Y-9633270D02*
X7858039Y-9671365D01*
X7858039Y-9671365D02*
X7848515Y-9690412D01*
X7848515Y-9690412D02*
X7829467Y-9709460D01*
X7829467Y-9709460D02*
X7800896Y-9718984D01*
X7800896Y-9718984D02*
X7753277Y-9718984D01*
X7953277Y-9718984D02*
X7953277Y-9585650D01*
X7953277Y-9623746D02*
X7962801Y-9604698D01*
X7962801Y-9604698D02*
X7972324Y-9595174D01*
X7972324Y-9595174D02*
X7991372Y-9585650D01*
X7991372Y-9585650D02*
X8010420Y-9585650D01*
X8077086Y-9718984D02*
X8077086Y-9585650D01*
X8077086Y-9518984D02*
X8067562Y-9528508D01*
X8067562Y-9528508D02*
X8077086Y-9538031D01*
X8077086Y-9538031D02*
X8086610Y-9528508D01*
X8086610Y-9528508D02*
X8077086Y-9518984D01*
X8077086Y-9518984D02*
X8077086Y-9538031D01*
X8200896Y-9718984D02*
X8181848Y-9709460D01*
X8181848Y-9709460D02*
X8172324Y-9690412D01*
X8172324Y-9690412D02*
X8172324Y-9518984D01*
X8305658Y-9718984D02*
X8286610Y-9709460D01*
X8286610Y-9709460D02*
X8277086Y-9690412D01*
X8277086Y-9690412D02*
X8277086Y-9518984D01*
X8534229Y-9718984D02*
X8534229Y-9518984D01*
X8534229Y-9518984D02*
X8600896Y-9661841D01*
X8600896Y-9661841D02*
X8667563Y-9518984D01*
X8667563Y-9518984D02*
X8667563Y-9718984D01*
X8848515Y-9718984D02*
X8848515Y-9614222D01*
X8848515Y-9614222D02*
X8838991Y-9595174D01*
X8838991Y-9595174D02*
X8819944Y-9585650D01*
X8819944Y-9585650D02*
X8781848Y-9585650D01*
X8781848Y-9585650D02*
X8762801Y-9595174D01*
X8848515Y-9709460D02*
X8829467Y-9718984D01*
X8829467Y-9718984D02*
X8781848Y-9718984D01*
X8781848Y-9718984D02*
X8762801Y-9709460D01*
X8762801Y-9709460D02*
X8753277Y-9690412D01*
X8753277Y-9690412D02*
X8753277Y-9671365D01*
X8753277Y-9671365D02*
X8762801Y-9652317D01*
X8762801Y-9652317D02*
X8781848Y-9642793D01*
X8781848Y-9642793D02*
X8829467Y-9642793D01*
X8829467Y-9642793D02*
X8848515Y-9633270D01*
X8943753Y-9585650D02*
X8943753Y-9785650D01*
X8943753Y-9595174D02*
X8962801Y-9585650D01*
X8962801Y-9585650D02*
X9000896Y-9585650D01*
X9000896Y-9585650D02*
X9019944Y-9595174D01*
X9019944Y-9595174D02*
X9029467Y-9604698D01*
X9029467Y-9604698D02*
X9038991Y-9623746D01*
X9038991Y-9623746D02*
X9038991Y-9680889D01*
X9038991Y-9680889D02*
X9029467Y-9699936D01*
X9029467Y-9699936D02*
X9019944Y-9709460D01*
X9019944Y-9709460D02*
X9000896Y-9718984D01*
X9000896Y-9718984D02*
X8962801Y-9718984D01*
X8962801Y-9718984D02*
X8943753Y-9709460D01*
X9124705Y-9699936D02*
X9134229Y-9709460D01*
X9134229Y-9709460D02*
X9124705Y-9718984D01*
X9124705Y-9718984D02*
X9115182Y-9709460D01*
X9115182Y-9709460D02*
X9124705Y-9699936D01*
X9124705Y-9699936D02*
X9124705Y-9718984D01*
X9124705Y-9595174D02*
X9134229Y-9604698D01*
X9134229Y-9604698D02*
X9124705Y-9614222D01*
X9124705Y-9614222D02*
X9115182Y-9604698D01*
X9115182Y-9604698D02*
X9124705Y-9595174D01*
X9124705Y-9595174D02*
X9124705Y-9614222D01*
D12*
X7462500Y-10032500D02*
X7492500Y-10062500D01*
X7492500Y-10032500D02*
X7462500Y-10062500D01*
D11*
X7791372Y-9938984D02*
X7810420Y-9938984D01*
X7810420Y-9938984D02*
X7829467Y-9948508D01*
X7829467Y-9948508D02*
X7838991Y-9958031D01*
X7838991Y-9958031D02*
X7848515Y-9977079D01*
X7848515Y-9977079D02*
X7858039Y-10015174D01*
X7858039Y-10015174D02*
X7858039Y-10062793D01*
X7858039Y-10062793D02*
X7848515Y-10100889D01*
X7848515Y-10100889D02*
X7838991Y-10119936D01*
X7838991Y-10119936D02*
X7829467Y-10129460D01*
X7829467Y-10129460D02*
X7810420Y-10138984D01*
X7810420Y-10138984D02*
X7791372Y-10138984D01*
X7791372Y-10138984D02*
X7772324Y-10129460D01*
X7772324Y-10129460D02*
X7762801Y-10119936D01*
X7762801Y-10119936D02*
X7753277Y-10100889D01*
X7753277Y-10100889D02*
X7743753Y-10062793D01*
X7743753Y-10062793D02*
X7743753Y-10015174D01*
X7743753Y-10015174D02*
X7753277Y-9977079D01*
X7753277Y-9977079D02*
X7762801Y-9958031D01*
X7762801Y-9958031D02*
X7772324Y-9948508D01*
X7772324Y-9948508D02*
X7791372Y-9938984D01*
X7943753Y-10119936D02*
X7953277Y-10129460D01*
X7953277Y-10129460D02*
X7943753Y-10138984D01*
X7943753Y-10138984D02*
X7934229Y-10129460D01*
X7934229Y-10129460D02*
X7943753Y-10119936D01*
X7943753Y-10119936D02*
X7943753Y-10138984D01*
X8019943Y-9938984D02*
X8143753Y-9938984D01*
X8143753Y-9938984D02*
X8077086Y-10015174D01*
X8077086Y-10015174D02*
X8105658Y-10015174D01*
X8105658Y-10015174D02*
X8124705Y-10024698D01*
X8124705Y-10024698D02*
X8134229Y-10034222D01*
X8134229Y-10034222D02*
X8143753Y-10053270D01*
X8143753Y-10053270D02*
X8143753Y-10100889D01*
X8143753Y-10100889D02*
X8134229Y-10119936D01*
X8134229Y-10119936D02*
X8124705Y-10129460D01*
X8124705Y-10129460D02*
X8105658Y-10138984D01*
X8105658Y-10138984D02*
X8048515Y-10138984D01*
X8048515Y-10138984D02*
X8029467Y-10129460D01*
X8029467Y-10129460D02*
X8019943Y-10119936D01*
X8267562Y-9938984D02*
X8286610Y-9938984D01*
X8286610Y-9938984D02*
X8305658Y-9948508D01*
X8305658Y-9948508D02*
X8315182Y-9958031D01*
X8315182Y-9958031D02*
X8324705Y-9977079D01*
X8324705Y-9977079D02*
X8334229Y-10015174D01*
X8334229Y-10015174D02*
X8334229Y-10062793D01*
X8334229Y-10062793D02*
X8324705Y-10100889D01*
X8324705Y-10100889D02*
X8315182Y-10119936D01*
X8315182Y-10119936D02*
X8305658Y-10129460D01*
X8305658Y-10129460D02*
X8286610Y-10138984D01*
X8286610Y-10138984D02*
X8267562Y-10138984D01*
X8267562Y-10138984D02*
X8248515Y-10129460D01*
X8248515Y-10129460D02*
X8238991Y-10119936D01*
X8238991Y-10119936D02*
X8229467Y-10100889D01*
X8229467Y-10100889D02*
X8219943Y-10062793D01*
X8219943Y-10062793D02*
X8219943Y-10015174D01*
X8219943Y-10015174D02*
X8229467Y-9977079D01*
X8229467Y-9977079D02*
X8238991Y-9958031D01*
X8238991Y-9958031D02*
X8248515Y-9948508D01*
X8248515Y-9948508D02*
X8267562Y-9938984D01*
X8458039Y-9938984D02*
X8477086Y-9938984D01*
X8477086Y-9938984D02*
X8496134Y-9948508D01*
X8496134Y-9948508D02*
X8505658Y-9958031D01*
X8505658Y-9958031D02*
X8515182Y-9977079D01*
X8515182Y-9977079D02*
X8524705Y-10015174D01*
X8524705Y-10015174D02*
X8524705Y-10062793D01*
X8524705Y-10062793D02*
X8515182Y-10100889D01*
X8515182Y-10100889D02*
X8505658Y-10119936D01*
X8505658Y-10119936D02*
X8496134Y-10129460D01*
X8496134Y-10129460D02*
X8477086Y-10138984D01*
X8477086Y-10138984D02*
X8458039Y-10138984D01*
X8458039Y-10138984D02*
X8438991Y-10129460D01*
X8438991Y-10129460D02*
X8429467Y-10119936D01*
X8429467Y-10119936D02*
X8419944Y-10100889D01*
X8419944Y-10100889D02*
X8410420Y-10062793D01*
X8410420Y-10062793D02*
X8410420Y-10015174D01*
X8410420Y-10015174D02*
X8419944Y-9977079D01*
X8419944Y-9977079D02*
X8429467Y-9958031D01*
X8429467Y-9958031D02*
X8438991Y-9948508D01*
X8438991Y-9948508D02*
X8458039Y-9938984D01*
X8610420Y-10138984D02*
X8610420Y-10005650D01*
X8610420Y-10024698D02*
X8619944Y-10015174D01*
X8619944Y-10015174D02*
X8638991Y-10005650D01*
X8638991Y-10005650D02*
X8667563Y-10005650D01*
X8667563Y-10005650D02*
X8686610Y-10015174D01*
X8686610Y-10015174D02*
X8696134Y-10034222D01*
X8696134Y-10034222D02*
X8696134Y-10138984D01*
X8696134Y-10034222D02*
X8705658Y-10015174D01*
X8705658Y-10015174D02*
X8724705Y-10005650D01*
X8724705Y-10005650D02*
X8753277Y-10005650D01*
X8753277Y-10005650D02*
X8772325Y-10015174D01*
X8772325Y-10015174D02*
X8781848Y-10034222D01*
X8781848Y-10034222D02*
X8781848Y-10138984D01*
X8877086Y-10138984D02*
X8877086Y-10005650D01*
X8877086Y-10024698D02*
X8886610Y-10015174D01*
X8886610Y-10015174D02*
X8905658Y-10005650D01*
X8905658Y-10005650D02*
X8934229Y-10005650D01*
X8934229Y-10005650D02*
X8953277Y-10015174D01*
X8953277Y-10015174D02*
X8962801Y-10034222D01*
X8962801Y-10034222D02*
X8962801Y-10138984D01*
X8962801Y-10034222D02*
X8972325Y-10015174D01*
X8972325Y-10015174D02*
X8991372Y-10005650D01*
X8991372Y-10005650D02*
X9019944Y-10005650D01*
X9019944Y-10005650D02*
X9038991Y-10015174D01*
X9038991Y-10015174D02*
X9048515Y-10034222D01*
X9048515Y-10034222D02*
X9048515Y-10138984D01*
X9438991Y-9929460D02*
X9267563Y-10186603D01*
X9696134Y-9938984D02*
X9715182Y-9938984D01*
X9715182Y-9938984D02*
X9734229Y-9948508D01*
X9734229Y-9948508D02*
X9743753Y-9958031D01*
X9743753Y-9958031D02*
X9753277Y-9977079D01*
X9753277Y-9977079D02*
X9762801Y-10015174D01*
X9762801Y-10015174D02*
X9762801Y-10062793D01*
X9762801Y-10062793D02*
X9753277Y-10100889D01*
X9753277Y-10100889D02*
X9743753Y-10119936D01*
X9743753Y-10119936D02*
X9734229Y-10129460D01*
X9734229Y-10129460D02*
X9715182Y-10138984D01*
X9715182Y-10138984D02*
X9696134Y-10138984D01*
X9696134Y-10138984D02*
X9677087Y-10129460D01*
X9677087Y-10129460D02*
X9667563Y-10119936D01*
X9667563Y-10119936D02*
X9658039Y-10100889D01*
X9658039Y-10100889D02*
X9648515Y-10062793D01*
X9648515Y-10062793D02*
X9648515Y-10015174D01*
X9648515Y-10015174D02*
X9658039Y-9977079D01*
X9658039Y-9977079D02*
X9667563Y-9958031D01*
X9667563Y-9958031D02*
X9677087Y-9948508D01*
X9677087Y-9948508D02*
X9696134Y-9938984D01*
X9848515Y-10119936D02*
X9858039Y-10129460D01*
X9858039Y-10129460D02*
X9848515Y-10138984D01*
X9848515Y-10138984D02*
X9838991Y-10129460D01*
X9838991Y-10129460D02*
X9848515Y-10119936D01*
X9848515Y-10119936D02*
X9848515Y-10138984D01*
X9981848Y-9938984D02*
X10000896Y-9938984D01*
X10000896Y-9938984D02*
X10019944Y-9948508D01*
X10019944Y-9948508D02*
X10029468Y-9958031D01*
X10029468Y-9958031D02*
X10038991Y-9977079D01*
X10038991Y-9977079D02*
X10048515Y-10015174D01*
X10048515Y-10015174D02*
X10048515Y-10062793D01*
X10048515Y-10062793D02*
X10038991Y-10100889D01*
X10038991Y-10100889D02*
X10029468Y-10119936D01*
X10029468Y-10119936D02*
X10019944Y-10129460D01*
X10019944Y-10129460D02*
X10000896Y-10138984D01*
X10000896Y-10138984D02*
X9981848Y-10138984D01*
X9981848Y-10138984D02*
X9962801Y-10129460D01*
X9962801Y-10129460D02*
X9953277Y-10119936D01*
X9953277Y-10119936D02*
X9943753Y-10100889D01*
X9943753Y-10100889D02*
X9934229Y-10062793D01*
X9934229Y-10062793D02*
X9934229Y-10015174D01*
X9934229Y-10015174D02*
X9943753Y-9977079D01*
X9943753Y-9977079D02*
X9953277Y-9958031D01*
X9953277Y-9958031D02*
X9962801Y-9948508D01*
X9962801Y-9948508D02*
X9981848Y-9938984D01*
X10238991Y-10138984D02*
X10124706Y-10138984D01*
X10181848Y-10138984D02*
X10181848Y-9938984D01*
X10181848Y-9938984D02*
X10162801Y-9967555D01*
X10162801Y-9967555D02*
X10143753Y-9986603D01*
X10143753Y-9986603D02*
X10124706Y-9996127D01*
X10429468Y-10138984D02*
X10315182Y-10138984D01*
X10372325Y-10138984D02*
X10372325Y-9938984D01*
X10372325Y-9938984D02*
X10353277Y-9967555D01*
X10353277Y-9967555D02*
X10334229Y-9986603D01*
X10334229Y-9986603D02*
X10315182Y-9996127D01*
X10543753Y-10024698D02*
X10524706Y-10015174D01*
X10524706Y-10015174D02*
X10515182Y-10005650D01*
X10515182Y-10005650D02*
X10505658Y-9986603D01*
X10505658Y-9986603D02*
X10505658Y-9977079D01*
X10505658Y-9977079D02*
X10515182Y-9958031D01*
X10515182Y-9958031D02*
X10524706Y-9948508D01*
X10524706Y-9948508D02*
X10543753Y-9938984D01*
X10543753Y-9938984D02*
X10581849Y-9938984D01*
X10581849Y-9938984D02*
X10600896Y-9948508D01*
X10600896Y-9948508D02*
X10610420Y-9958031D01*
X10610420Y-9958031D02*
X10619944Y-9977079D01*
X10619944Y-9977079D02*
X10619944Y-9986603D01*
X10619944Y-9986603D02*
X10610420Y-10005650D01*
X10610420Y-10005650D02*
X10600896Y-10015174D01*
X10600896Y-10015174D02*
X10581849Y-10024698D01*
X10581849Y-10024698D02*
X10543753Y-10024698D01*
X10543753Y-10024698D02*
X10524706Y-10034222D01*
X10524706Y-10034222D02*
X10515182Y-10043746D01*
X10515182Y-10043746D02*
X10505658Y-10062793D01*
X10505658Y-10062793D02*
X10505658Y-10100889D01*
X10505658Y-10100889D02*
X10515182Y-10119936D01*
X10515182Y-10119936D02*
X10524706Y-10129460D01*
X10524706Y-10129460D02*
X10543753Y-10138984D01*
X10543753Y-10138984D02*
X10581849Y-10138984D01*
X10581849Y-10138984D02*
X10600896Y-10129460D01*
X10600896Y-10129460D02*
X10610420Y-10119936D01*
X10610420Y-10119936D02*
X10619944Y-10100889D01*
X10619944Y-10100889D02*
X10619944Y-10062793D01*
X10619944Y-10062793D02*
X10610420Y-10043746D01*
X10610420Y-10043746D02*
X10600896Y-10034222D01*
X10600896Y-10034222D02*
X10581849Y-10024698D01*
X10696134Y-9938984D02*
X10696134Y-9977079D01*
X10772325Y-9938984D02*
X10772325Y-9977079D01*
X11067563Y-10215174D02*
X11058039Y-10205650D01*
X11058039Y-10205650D02*
X11038991Y-10177079D01*
X11038991Y-10177079D02*
X11029468Y-10158031D01*
X11029468Y-10158031D02*
X11019944Y-10129460D01*
X11019944Y-10129460D02*
X11010420Y-10081841D01*
X11010420Y-10081841D02*
X11010420Y-10043746D01*
X11010420Y-10043746D02*
X11019944Y-9996127D01*
X11019944Y-9996127D02*
X11029468Y-9967555D01*
X11029468Y-9967555D02*
X11038991Y-9948508D01*
X11038991Y-9948508D02*
X11058039Y-9919936D01*
X11058039Y-9919936D02*
X11067563Y-9910412D01*
X11248515Y-10138984D02*
X11134230Y-10138984D01*
X11191372Y-10138984D02*
X11191372Y-9938984D01*
X11191372Y-9938984D02*
X11172325Y-9967555D01*
X11172325Y-9967555D02*
X11153277Y-9986603D01*
X11153277Y-9986603D02*
X11134230Y-9996127D01*
X11315182Y-9938984D02*
X11448515Y-9938984D01*
X11448515Y-9938984D02*
X11362801Y-10138984D01*
X11677087Y-10138984D02*
X11677087Y-9938984D01*
X11762801Y-10138984D02*
X11762801Y-10034222D01*
X11762801Y-10034222D02*
X11753277Y-10015174D01*
X11753277Y-10015174D02*
X11734230Y-10005650D01*
X11734230Y-10005650D02*
X11705658Y-10005650D01*
X11705658Y-10005650D02*
X11686610Y-10015174D01*
X11686610Y-10015174D02*
X11677087Y-10024698D01*
X11886610Y-10138984D02*
X11867563Y-10129460D01*
X11867563Y-10129460D02*
X11858039Y-10119936D01*
X11858039Y-10119936D02*
X11848515Y-10100889D01*
X11848515Y-10100889D02*
X11848515Y-10043746D01*
X11848515Y-10043746D02*
X11858039Y-10024698D01*
X11858039Y-10024698D02*
X11867563Y-10015174D01*
X11867563Y-10015174D02*
X11886610Y-10005650D01*
X11886610Y-10005650D02*
X11915182Y-10005650D01*
X11915182Y-10005650D02*
X11934230Y-10015174D01*
X11934230Y-10015174D02*
X11943753Y-10024698D01*
X11943753Y-10024698D02*
X11953277Y-10043746D01*
X11953277Y-10043746D02*
X11953277Y-10100889D01*
X11953277Y-10100889D02*
X11943753Y-10119936D01*
X11943753Y-10119936D02*
X11934230Y-10129460D01*
X11934230Y-10129460D02*
X11915182Y-10138984D01*
X11915182Y-10138984D02*
X11886610Y-10138984D01*
X12067563Y-10138984D02*
X12048515Y-10129460D01*
X12048515Y-10129460D02*
X12038991Y-10110412D01*
X12038991Y-10110412D02*
X12038991Y-9938984D01*
X12219944Y-10129460D02*
X12200896Y-10138984D01*
X12200896Y-10138984D02*
X12162801Y-10138984D01*
X12162801Y-10138984D02*
X12143753Y-10129460D01*
X12143753Y-10129460D02*
X12134230Y-10110412D01*
X12134230Y-10110412D02*
X12134230Y-10034222D01*
X12134230Y-10034222D02*
X12143753Y-10015174D01*
X12143753Y-10015174D02*
X12162801Y-10005650D01*
X12162801Y-10005650D02*
X12200896Y-10005650D01*
X12200896Y-10005650D02*
X12219944Y-10015174D01*
X12219944Y-10015174D02*
X12229468Y-10034222D01*
X12229468Y-10034222D02*
X12229468Y-10053270D01*
X12229468Y-10053270D02*
X12134230Y-10072317D01*
X12305658Y-10129460D02*
X12324706Y-10138984D01*
X12324706Y-10138984D02*
X12362801Y-10138984D01*
X12362801Y-10138984D02*
X12381849Y-10129460D01*
X12381849Y-10129460D02*
X12391372Y-10110412D01*
X12391372Y-10110412D02*
X12391372Y-10100889D01*
X12391372Y-10100889D02*
X12381849Y-10081841D01*
X12381849Y-10081841D02*
X12362801Y-10072317D01*
X12362801Y-10072317D02*
X12334230Y-10072317D01*
X12334230Y-10072317D02*
X12315182Y-10062793D01*
X12315182Y-10062793D02*
X12305658Y-10043746D01*
X12305658Y-10043746D02*
X12305658Y-10034222D01*
X12305658Y-10034222D02*
X12315182Y-10015174D01*
X12315182Y-10015174D02*
X12334230Y-10005650D01*
X12334230Y-10005650D02*
X12362801Y-10005650D01*
X12362801Y-10005650D02*
X12381849Y-10015174D01*
X12458039Y-10215174D02*
X12467563Y-10205650D01*
X12467563Y-10205650D02*
X12486611Y-10177079D01*
X12486611Y-10177079D02*
X12496134Y-10158031D01*
X12496134Y-10158031D02*
X12505658Y-10129460D01*
X12505658Y-10129460D02*
X12515182Y-10081841D01*
X12515182Y-10081841D02*
X12515182Y-10043746D01*
X12515182Y-10043746D02*
X12505658Y-9996127D01*
X12505658Y-9996127D02*
X12496134Y-9967555D01*
X12496134Y-9967555D02*
X12486611Y-9948508D01*
X12486611Y-9948508D02*
X12467563Y-9919936D01*
X12467563Y-9919936D02*
X12458039Y-9910412D01*
D12*
X7492500Y-10311500D02*
G75*
G02*
X7427500Y-10311500I-32500J0D01*
G01*
X7427500Y-10311500D02*
G75*
G02*
X7492500Y-10311500I32500J0D01*
G01*
D11*
X7791372Y-10202984D02*
X7810420Y-10202984D01*
X7810420Y-10202984D02*
X7829467Y-10212508D01*
X7829467Y-10212508D02*
X7838991Y-10222031D01*
X7838991Y-10222031D02*
X7848515Y-10241079D01*
X7848515Y-10241079D02*
X7858039Y-10279174D01*
X7858039Y-10279174D02*
X7858039Y-10326793D01*
X7858039Y-10326793D02*
X7848515Y-10364889D01*
X7848515Y-10364889D02*
X7838991Y-10383936D01*
X7838991Y-10383936D02*
X7829467Y-10393460D01*
X7829467Y-10393460D02*
X7810420Y-10402984D01*
X7810420Y-10402984D02*
X7791372Y-10402984D01*
X7791372Y-10402984D02*
X7772324Y-10393460D01*
X7772324Y-10393460D02*
X7762801Y-10383936D01*
X7762801Y-10383936D02*
X7753277Y-10364889D01*
X7753277Y-10364889D02*
X7743753Y-10326793D01*
X7743753Y-10326793D02*
X7743753Y-10279174D01*
X7743753Y-10279174D02*
X7753277Y-10241079D01*
X7753277Y-10241079D02*
X7762801Y-10222031D01*
X7762801Y-10222031D02*
X7772324Y-10212508D01*
X7772324Y-10212508D02*
X7791372Y-10202984D01*
X7943753Y-10383936D02*
X7953277Y-10393460D01*
X7953277Y-10393460D02*
X7943753Y-10402984D01*
X7943753Y-10402984D02*
X7934229Y-10393460D01*
X7934229Y-10393460D02*
X7943753Y-10383936D01*
X7943753Y-10383936D02*
X7943753Y-10402984D01*
X8124705Y-10202984D02*
X8086610Y-10202984D01*
X8086610Y-10202984D02*
X8067562Y-10212508D01*
X8067562Y-10212508D02*
X8058039Y-10222031D01*
X8058039Y-10222031D02*
X8038991Y-10250603D01*
X8038991Y-10250603D02*
X8029467Y-10288698D01*
X8029467Y-10288698D02*
X8029467Y-10364889D01*
X8029467Y-10364889D02*
X8038991Y-10383936D01*
X8038991Y-10383936D02*
X8048515Y-10393460D01*
X8048515Y-10393460D02*
X8067562Y-10402984D01*
X8067562Y-10402984D02*
X8105658Y-10402984D01*
X8105658Y-10402984D02*
X8124705Y-10393460D01*
X8124705Y-10393460D02*
X8134229Y-10383936D01*
X8134229Y-10383936D02*
X8143753Y-10364889D01*
X8143753Y-10364889D02*
X8143753Y-10317270D01*
X8143753Y-10317270D02*
X8134229Y-10298222D01*
X8134229Y-10298222D02*
X8124705Y-10288698D01*
X8124705Y-10288698D02*
X8105658Y-10279174D01*
X8105658Y-10279174D02*
X8067562Y-10279174D01*
X8067562Y-10279174D02*
X8048515Y-10288698D01*
X8048515Y-10288698D02*
X8038991Y-10298222D01*
X8038991Y-10298222D02*
X8029467Y-10317270D01*
X8324705Y-10202984D02*
X8229467Y-10202984D01*
X8229467Y-10202984D02*
X8219943Y-10298222D01*
X8219943Y-10298222D02*
X8229467Y-10288698D01*
X8229467Y-10288698D02*
X8248515Y-10279174D01*
X8248515Y-10279174D02*
X8296134Y-10279174D01*
X8296134Y-10279174D02*
X8315182Y-10288698D01*
X8315182Y-10288698D02*
X8324705Y-10298222D01*
X8324705Y-10298222D02*
X8334229Y-10317270D01*
X8334229Y-10317270D02*
X8334229Y-10364889D01*
X8334229Y-10364889D02*
X8324705Y-10383936D01*
X8324705Y-10383936D02*
X8315182Y-10393460D01*
X8315182Y-10393460D02*
X8296134Y-10402984D01*
X8296134Y-10402984D02*
X8248515Y-10402984D01*
X8248515Y-10402984D02*
X8229467Y-10393460D01*
X8229467Y-10393460D02*
X8219943Y-10383936D01*
X8458039Y-10202984D02*
X8477086Y-10202984D01*
X8477086Y-10202984D02*
X8496134Y-10212508D01*
X8496134Y-10212508D02*
X8505658Y-10222031D01*
X8505658Y-10222031D02*
X8515182Y-10241079D01*
X8515182Y-10241079D02*
X8524705Y-10279174D01*
X8524705Y-10279174D02*
X8524705Y-10326793D01*
X8524705Y-10326793D02*
X8515182Y-10364889D01*
X8515182Y-10364889D02*
X8505658Y-10383936D01*
X8505658Y-10383936D02*
X8496134Y-10393460D01*
X8496134Y-10393460D02*
X8477086Y-10402984D01*
X8477086Y-10402984D02*
X8458039Y-10402984D01*
X8458039Y-10402984D02*
X8438991Y-10393460D01*
X8438991Y-10393460D02*
X8429467Y-10383936D01*
X8429467Y-10383936D02*
X8419944Y-10364889D01*
X8419944Y-10364889D02*
X8410420Y-10326793D01*
X8410420Y-10326793D02*
X8410420Y-10279174D01*
X8410420Y-10279174D02*
X8419944Y-10241079D01*
X8419944Y-10241079D02*
X8429467Y-10222031D01*
X8429467Y-10222031D02*
X8438991Y-10212508D01*
X8438991Y-10212508D02*
X8458039Y-10202984D01*
X8610420Y-10402984D02*
X8610420Y-10269650D01*
X8610420Y-10288698D02*
X8619944Y-10279174D01*
X8619944Y-10279174D02*
X8638991Y-10269650D01*
X8638991Y-10269650D02*
X8667563Y-10269650D01*
X8667563Y-10269650D02*
X8686610Y-10279174D01*
X8686610Y-10279174D02*
X8696134Y-10298222D01*
X8696134Y-10298222D02*
X8696134Y-10402984D01*
X8696134Y-10298222D02*
X8705658Y-10279174D01*
X8705658Y-10279174D02*
X8724705Y-10269650D01*
X8724705Y-10269650D02*
X8753277Y-10269650D01*
X8753277Y-10269650D02*
X8772325Y-10279174D01*
X8772325Y-10279174D02*
X8781848Y-10298222D01*
X8781848Y-10298222D02*
X8781848Y-10402984D01*
X8877086Y-10402984D02*
X8877086Y-10269650D01*
X8877086Y-10288698D02*
X8886610Y-10279174D01*
X8886610Y-10279174D02*
X8905658Y-10269650D01*
X8905658Y-10269650D02*
X8934229Y-10269650D01*
X8934229Y-10269650D02*
X8953277Y-10279174D01*
X8953277Y-10279174D02*
X8962801Y-10298222D01*
X8962801Y-10298222D02*
X8962801Y-10402984D01*
X8962801Y-10298222D02*
X8972325Y-10279174D01*
X8972325Y-10279174D02*
X8991372Y-10269650D01*
X8991372Y-10269650D02*
X9019944Y-10269650D01*
X9019944Y-10269650D02*
X9038991Y-10279174D01*
X9038991Y-10279174D02*
X9048515Y-10298222D01*
X9048515Y-10298222D02*
X9048515Y-10402984D01*
X9438991Y-10193460D02*
X9267563Y-10450603D01*
X9696134Y-10202984D02*
X9715182Y-10202984D01*
X9715182Y-10202984D02*
X9734229Y-10212508D01*
X9734229Y-10212508D02*
X9743753Y-10222031D01*
X9743753Y-10222031D02*
X9753277Y-10241079D01*
X9753277Y-10241079D02*
X9762801Y-10279174D01*
X9762801Y-10279174D02*
X9762801Y-10326793D01*
X9762801Y-10326793D02*
X9753277Y-10364889D01*
X9753277Y-10364889D02*
X9743753Y-10383936D01*
X9743753Y-10383936D02*
X9734229Y-10393460D01*
X9734229Y-10393460D02*
X9715182Y-10402984D01*
X9715182Y-10402984D02*
X9696134Y-10402984D01*
X9696134Y-10402984D02*
X9677087Y-10393460D01*
X9677087Y-10393460D02*
X9667563Y-10383936D01*
X9667563Y-10383936D02*
X9658039Y-10364889D01*
X9658039Y-10364889D02*
X9648515Y-10326793D01*
X9648515Y-10326793D02*
X9648515Y-10279174D01*
X9648515Y-10279174D02*
X9658039Y-10241079D01*
X9658039Y-10241079D02*
X9667563Y-10222031D01*
X9667563Y-10222031D02*
X9677087Y-10212508D01*
X9677087Y-10212508D02*
X9696134Y-10202984D01*
X9848515Y-10383936D02*
X9858039Y-10393460D01*
X9858039Y-10393460D02*
X9848515Y-10402984D01*
X9848515Y-10402984D02*
X9838991Y-10393460D01*
X9838991Y-10393460D02*
X9848515Y-10383936D01*
X9848515Y-10383936D02*
X9848515Y-10402984D01*
X9981848Y-10202984D02*
X10000896Y-10202984D01*
X10000896Y-10202984D02*
X10019944Y-10212508D01*
X10019944Y-10212508D02*
X10029468Y-10222031D01*
X10029468Y-10222031D02*
X10038991Y-10241079D01*
X10038991Y-10241079D02*
X10048515Y-10279174D01*
X10048515Y-10279174D02*
X10048515Y-10326793D01*
X10048515Y-10326793D02*
X10038991Y-10364889D01*
X10038991Y-10364889D02*
X10029468Y-10383936D01*
X10029468Y-10383936D02*
X10019944Y-10393460D01*
X10019944Y-10393460D02*
X10000896Y-10402984D01*
X10000896Y-10402984D02*
X9981848Y-10402984D01*
X9981848Y-10402984D02*
X9962801Y-10393460D01*
X9962801Y-10393460D02*
X9953277Y-10383936D01*
X9953277Y-10383936D02*
X9943753Y-10364889D01*
X9943753Y-10364889D02*
X9934229Y-10326793D01*
X9934229Y-10326793D02*
X9934229Y-10279174D01*
X9934229Y-10279174D02*
X9943753Y-10241079D01*
X9943753Y-10241079D02*
X9953277Y-10222031D01*
X9953277Y-10222031D02*
X9962801Y-10212508D01*
X9962801Y-10212508D02*
X9981848Y-10202984D01*
X10124706Y-10222031D02*
X10134229Y-10212508D01*
X10134229Y-10212508D02*
X10153277Y-10202984D01*
X10153277Y-10202984D02*
X10200896Y-10202984D01*
X10200896Y-10202984D02*
X10219944Y-10212508D01*
X10219944Y-10212508D02*
X10229468Y-10222031D01*
X10229468Y-10222031D02*
X10238991Y-10241079D01*
X10238991Y-10241079D02*
X10238991Y-10260127D01*
X10238991Y-10260127D02*
X10229468Y-10288698D01*
X10229468Y-10288698D02*
X10115182Y-10402984D01*
X10115182Y-10402984D02*
X10238991Y-10402984D01*
X10419944Y-10202984D02*
X10324706Y-10202984D01*
X10324706Y-10202984D02*
X10315182Y-10298222D01*
X10315182Y-10298222D02*
X10324706Y-10288698D01*
X10324706Y-10288698D02*
X10343753Y-10279174D01*
X10343753Y-10279174D02*
X10391372Y-10279174D01*
X10391372Y-10279174D02*
X10410420Y-10288698D01*
X10410420Y-10288698D02*
X10419944Y-10298222D01*
X10419944Y-10298222D02*
X10429468Y-10317270D01*
X10429468Y-10317270D02*
X10429468Y-10364889D01*
X10429468Y-10364889D02*
X10419944Y-10383936D01*
X10419944Y-10383936D02*
X10410420Y-10393460D01*
X10410420Y-10393460D02*
X10391372Y-10402984D01*
X10391372Y-10402984D02*
X10343753Y-10402984D01*
X10343753Y-10402984D02*
X10324706Y-10393460D01*
X10324706Y-10393460D02*
X10315182Y-10383936D01*
X10600896Y-10202984D02*
X10562801Y-10202984D01*
X10562801Y-10202984D02*
X10543753Y-10212508D01*
X10543753Y-10212508D02*
X10534229Y-10222031D01*
X10534229Y-10222031D02*
X10515182Y-10250603D01*
X10515182Y-10250603D02*
X10505658Y-10288698D01*
X10505658Y-10288698D02*
X10505658Y-10364889D01*
X10505658Y-10364889D02*
X10515182Y-10383936D01*
X10515182Y-10383936D02*
X10524706Y-10393460D01*
X10524706Y-10393460D02*
X10543753Y-10402984D01*
X10543753Y-10402984D02*
X10581849Y-10402984D01*
X10581849Y-10402984D02*
X10600896Y-10393460D01*
X10600896Y-10393460D02*
X10610420Y-10383936D01*
X10610420Y-10383936D02*
X10619944Y-10364889D01*
X10619944Y-10364889D02*
X10619944Y-10317270D01*
X10619944Y-10317270D02*
X10610420Y-10298222D01*
X10610420Y-10298222D02*
X10600896Y-10288698D01*
X10600896Y-10288698D02*
X10581849Y-10279174D01*
X10581849Y-10279174D02*
X10543753Y-10279174D01*
X10543753Y-10279174D02*
X10524706Y-10288698D01*
X10524706Y-10288698D02*
X10515182Y-10298222D01*
X10515182Y-10298222D02*
X10505658Y-10317270D01*
X10696134Y-10202984D02*
X10696134Y-10241079D01*
X10772325Y-10202984D02*
X10772325Y-10241079D01*
X11067563Y-10479174D02*
X11058039Y-10469650D01*
X11058039Y-10469650D02*
X11038991Y-10441079D01*
X11038991Y-10441079D02*
X11029468Y-10422031D01*
X11029468Y-10422031D02*
X11019944Y-10393460D01*
X11019944Y-10393460D02*
X11010420Y-10345841D01*
X11010420Y-10345841D02*
X11010420Y-10307746D01*
X11010420Y-10307746D02*
X11019944Y-10260127D01*
X11019944Y-10260127D02*
X11029468Y-10231555D01*
X11029468Y-10231555D02*
X11038991Y-10212508D01*
X11038991Y-10212508D02*
X11058039Y-10183936D01*
X11058039Y-10183936D02*
X11067563Y-10174412D01*
X11124706Y-10202984D02*
X11248515Y-10202984D01*
X11248515Y-10202984D02*
X11181849Y-10279174D01*
X11181849Y-10279174D02*
X11210420Y-10279174D01*
X11210420Y-10279174D02*
X11229468Y-10288698D01*
X11229468Y-10288698D02*
X11238991Y-10298222D01*
X11238991Y-10298222D02*
X11248515Y-10317270D01*
X11248515Y-10317270D02*
X11248515Y-10364889D01*
X11248515Y-10364889D02*
X11238991Y-10383936D01*
X11238991Y-10383936D02*
X11229468Y-10393460D01*
X11229468Y-10393460D02*
X11210420Y-10402984D01*
X11210420Y-10402984D02*
X11153277Y-10402984D01*
X11153277Y-10402984D02*
X11134230Y-10393460D01*
X11134230Y-10393460D02*
X11124706Y-10383936D01*
X11486610Y-10402984D02*
X11486610Y-10202984D01*
X11572325Y-10402984D02*
X11572325Y-10298222D01*
X11572325Y-10298222D02*
X11562801Y-10279174D01*
X11562801Y-10279174D02*
X11543753Y-10269650D01*
X11543753Y-10269650D02*
X11515182Y-10269650D01*
X11515182Y-10269650D02*
X11496134Y-10279174D01*
X11496134Y-10279174D02*
X11486610Y-10288698D01*
X11696134Y-10402984D02*
X11677087Y-10393460D01*
X11677087Y-10393460D02*
X11667563Y-10383936D01*
X11667563Y-10383936D02*
X11658039Y-10364889D01*
X11658039Y-10364889D02*
X11658039Y-10307746D01*
X11658039Y-10307746D02*
X11667563Y-10288698D01*
X11667563Y-10288698D02*
X11677087Y-10279174D01*
X11677087Y-10279174D02*
X11696134Y-10269650D01*
X11696134Y-10269650D02*
X11724706Y-10269650D01*
X11724706Y-10269650D02*
X11743753Y-10279174D01*
X11743753Y-10279174D02*
X11753277Y-10288698D01*
X11753277Y-10288698D02*
X11762801Y-10307746D01*
X11762801Y-10307746D02*
X11762801Y-10364889D01*
X11762801Y-10364889D02*
X11753277Y-10383936D01*
X11753277Y-10383936D02*
X11743753Y-10393460D01*
X11743753Y-10393460D02*
X11724706Y-10402984D01*
X11724706Y-10402984D02*
X11696134Y-10402984D01*
X11877087Y-10402984D02*
X11858039Y-10393460D01*
X11858039Y-10393460D02*
X11848515Y-10374412D01*
X11848515Y-10374412D02*
X11848515Y-10202984D01*
X12029468Y-10393460D02*
X12010420Y-10402984D01*
X12010420Y-10402984D02*
X11972325Y-10402984D01*
X11972325Y-10402984D02*
X11953277Y-10393460D01*
X11953277Y-10393460D02*
X11943753Y-10374412D01*
X11943753Y-10374412D02*
X11943753Y-10298222D01*
X11943753Y-10298222D02*
X11953277Y-10279174D01*
X11953277Y-10279174D02*
X11972325Y-10269650D01*
X11972325Y-10269650D02*
X12010420Y-10269650D01*
X12010420Y-10269650D02*
X12029468Y-10279174D01*
X12029468Y-10279174D02*
X12038991Y-10298222D01*
X12038991Y-10298222D02*
X12038991Y-10317270D01*
X12038991Y-10317270D02*
X11943753Y-10336317D01*
X12115182Y-10393460D02*
X12134230Y-10402984D01*
X12134230Y-10402984D02*
X12172325Y-10402984D01*
X12172325Y-10402984D02*
X12191372Y-10393460D01*
X12191372Y-10393460D02*
X12200896Y-10374412D01*
X12200896Y-10374412D02*
X12200896Y-10364889D01*
X12200896Y-10364889D02*
X12191372Y-10345841D01*
X12191372Y-10345841D02*
X12172325Y-10336317D01*
X12172325Y-10336317D02*
X12143753Y-10336317D01*
X12143753Y-10336317D02*
X12124706Y-10326793D01*
X12124706Y-10326793D02*
X12115182Y-10307746D01*
X12115182Y-10307746D02*
X12115182Y-10298222D01*
X12115182Y-10298222D02*
X12124706Y-10279174D01*
X12124706Y-10279174D02*
X12143753Y-10269650D01*
X12143753Y-10269650D02*
X12172325Y-10269650D01*
X12172325Y-10269650D02*
X12191372Y-10279174D01*
X12267563Y-10479174D02*
X12277087Y-10469650D01*
X12277087Y-10469650D02*
X12296134Y-10441079D01*
X12296134Y-10441079D02*
X12305658Y-10422031D01*
X12305658Y-10422031D02*
X12315182Y-10393460D01*
X12315182Y-10393460D02*
X12324706Y-10345841D01*
X12324706Y-10345841D02*
X12324706Y-10307746D01*
X12324706Y-10307746D02*
X12315182Y-10260127D01*
X12315182Y-10260127D02*
X12305658Y-10231555D01*
X12305658Y-10231555D02*
X12296134Y-10212508D01*
X12296134Y-10212508D02*
X12277087Y-10183936D01*
X12277087Y-10183936D02*
X12267563Y-10174412D01*
D12*
X7447500Y-10530500D02*
X7447500Y-10620500D01*
X7402500Y-10575500D02*
X7492500Y-10575500D01*
D11*
X7791372Y-10466984D02*
X7810420Y-10466984D01*
X7810420Y-10466984D02*
X7829467Y-10476508D01*
X7829467Y-10476508D02*
X7838991Y-10486031D01*
X7838991Y-10486031D02*
X7848515Y-10505079D01*
X7848515Y-10505079D02*
X7858039Y-10543174D01*
X7858039Y-10543174D02*
X7858039Y-10590793D01*
X7858039Y-10590793D02*
X7848515Y-10628889D01*
X7848515Y-10628889D02*
X7838991Y-10647936D01*
X7838991Y-10647936D02*
X7829467Y-10657460D01*
X7829467Y-10657460D02*
X7810420Y-10666984D01*
X7810420Y-10666984D02*
X7791372Y-10666984D01*
X7791372Y-10666984D02*
X7772324Y-10657460D01*
X7772324Y-10657460D02*
X7762801Y-10647936D01*
X7762801Y-10647936D02*
X7753277Y-10628889D01*
X7753277Y-10628889D02*
X7743753Y-10590793D01*
X7743753Y-10590793D02*
X7743753Y-10543174D01*
X7743753Y-10543174D02*
X7753277Y-10505079D01*
X7753277Y-10505079D02*
X7762801Y-10486031D01*
X7762801Y-10486031D02*
X7772324Y-10476508D01*
X7772324Y-10476508D02*
X7791372Y-10466984D01*
X7943753Y-10647936D02*
X7953277Y-10657460D01*
X7953277Y-10657460D02*
X7943753Y-10666984D01*
X7943753Y-10666984D02*
X7934229Y-10657460D01*
X7934229Y-10657460D02*
X7943753Y-10647936D01*
X7943753Y-10647936D02*
X7943753Y-10666984D01*
X8048515Y-10666984D02*
X8086610Y-10666984D01*
X8086610Y-10666984D02*
X8105658Y-10657460D01*
X8105658Y-10657460D02*
X8115182Y-10647936D01*
X8115182Y-10647936D02*
X8134229Y-10619365D01*
X8134229Y-10619365D02*
X8143753Y-10581270D01*
X8143753Y-10581270D02*
X8143753Y-10505079D01*
X8143753Y-10505079D02*
X8134229Y-10486031D01*
X8134229Y-10486031D02*
X8124705Y-10476508D01*
X8124705Y-10476508D02*
X8105658Y-10466984D01*
X8105658Y-10466984D02*
X8067562Y-10466984D01*
X8067562Y-10466984D02*
X8048515Y-10476508D01*
X8048515Y-10476508D02*
X8038991Y-10486031D01*
X8038991Y-10486031D02*
X8029467Y-10505079D01*
X8029467Y-10505079D02*
X8029467Y-10552698D01*
X8029467Y-10552698D02*
X8038991Y-10571746D01*
X8038991Y-10571746D02*
X8048515Y-10581270D01*
X8048515Y-10581270D02*
X8067562Y-10590793D01*
X8067562Y-10590793D02*
X8105658Y-10590793D01*
X8105658Y-10590793D02*
X8124705Y-10581270D01*
X8124705Y-10581270D02*
X8134229Y-10571746D01*
X8134229Y-10571746D02*
X8143753Y-10552698D01*
X8267562Y-10466984D02*
X8286610Y-10466984D01*
X8286610Y-10466984D02*
X8305658Y-10476508D01*
X8305658Y-10476508D02*
X8315182Y-10486031D01*
X8315182Y-10486031D02*
X8324705Y-10505079D01*
X8324705Y-10505079D02*
X8334229Y-10543174D01*
X8334229Y-10543174D02*
X8334229Y-10590793D01*
X8334229Y-10590793D02*
X8324705Y-10628889D01*
X8324705Y-10628889D02*
X8315182Y-10647936D01*
X8315182Y-10647936D02*
X8305658Y-10657460D01*
X8305658Y-10657460D02*
X8286610Y-10666984D01*
X8286610Y-10666984D02*
X8267562Y-10666984D01*
X8267562Y-10666984D02*
X8248515Y-10657460D01*
X8248515Y-10657460D02*
X8238991Y-10647936D01*
X8238991Y-10647936D02*
X8229467Y-10628889D01*
X8229467Y-10628889D02*
X8219943Y-10590793D01*
X8219943Y-10590793D02*
X8219943Y-10543174D01*
X8219943Y-10543174D02*
X8229467Y-10505079D01*
X8229467Y-10505079D02*
X8238991Y-10486031D01*
X8238991Y-10486031D02*
X8248515Y-10476508D01*
X8248515Y-10476508D02*
X8267562Y-10466984D01*
X8458039Y-10466984D02*
X8477086Y-10466984D01*
X8477086Y-10466984D02*
X8496134Y-10476508D01*
X8496134Y-10476508D02*
X8505658Y-10486031D01*
X8505658Y-10486031D02*
X8515182Y-10505079D01*
X8515182Y-10505079D02*
X8524705Y-10543174D01*
X8524705Y-10543174D02*
X8524705Y-10590793D01*
X8524705Y-10590793D02*
X8515182Y-10628889D01*
X8515182Y-10628889D02*
X8505658Y-10647936D01*
X8505658Y-10647936D02*
X8496134Y-10657460D01*
X8496134Y-10657460D02*
X8477086Y-10666984D01*
X8477086Y-10666984D02*
X8458039Y-10666984D01*
X8458039Y-10666984D02*
X8438991Y-10657460D01*
X8438991Y-10657460D02*
X8429467Y-10647936D01*
X8429467Y-10647936D02*
X8419944Y-10628889D01*
X8419944Y-10628889D02*
X8410420Y-10590793D01*
X8410420Y-10590793D02*
X8410420Y-10543174D01*
X8410420Y-10543174D02*
X8419944Y-10505079D01*
X8419944Y-10505079D02*
X8429467Y-10486031D01*
X8429467Y-10486031D02*
X8438991Y-10476508D01*
X8438991Y-10476508D02*
X8458039Y-10466984D01*
X8610420Y-10666984D02*
X8610420Y-10533650D01*
X8610420Y-10552698D02*
X8619944Y-10543174D01*
X8619944Y-10543174D02*
X8638991Y-10533650D01*
X8638991Y-10533650D02*
X8667563Y-10533650D01*
X8667563Y-10533650D02*
X8686610Y-10543174D01*
X8686610Y-10543174D02*
X8696134Y-10562222D01*
X8696134Y-10562222D02*
X8696134Y-10666984D01*
X8696134Y-10562222D02*
X8705658Y-10543174D01*
X8705658Y-10543174D02*
X8724705Y-10533650D01*
X8724705Y-10533650D02*
X8753277Y-10533650D01*
X8753277Y-10533650D02*
X8772325Y-10543174D01*
X8772325Y-10543174D02*
X8781848Y-10562222D01*
X8781848Y-10562222D02*
X8781848Y-10666984D01*
X8877086Y-10666984D02*
X8877086Y-10533650D01*
X8877086Y-10552698D02*
X8886610Y-10543174D01*
X8886610Y-10543174D02*
X8905658Y-10533650D01*
X8905658Y-10533650D02*
X8934229Y-10533650D01*
X8934229Y-10533650D02*
X8953277Y-10543174D01*
X8953277Y-10543174D02*
X8962801Y-10562222D01*
X8962801Y-10562222D02*
X8962801Y-10666984D01*
X8962801Y-10562222D02*
X8972325Y-10543174D01*
X8972325Y-10543174D02*
X8991372Y-10533650D01*
X8991372Y-10533650D02*
X9019944Y-10533650D01*
X9019944Y-10533650D02*
X9038991Y-10543174D01*
X9038991Y-10543174D02*
X9048515Y-10562222D01*
X9048515Y-10562222D02*
X9048515Y-10666984D01*
X9438991Y-10457460D02*
X9267563Y-10714603D01*
X9696134Y-10466984D02*
X9715182Y-10466984D01*
X9715182Y-10466984D02*
X9734229Y-10476508D01*
X9734229Y-10476508D02*
X9743753Y-10486031D01*
X9743753Y-10486031D02*
X9753277Y-10505079D01*
X9753277Y-10505079D02*
X9762801Y-10543174D01*
X9762801Y-10543174D02*
X9762801Y-10590793D01*
X9762801Y-10590793D02*
X9753277Y-10628889D01*
X9753277Y-10628889D02*
X9743753Y-10647936D01*
X9743753Y-10647936D02*
X9734229Y-10657460D01*
X9734229Y-10657460D02*
X9715182Y-10666984D01*
X9715182Y-10666984D02*
X9696134Y-10666984D01*
X9696134Y-10666984D02*
X9677087Y-10657460D01*
X9677087Y-10657460D02*
X9667563Y-10647936D01*
X9667563Y-10647936D02*
X9658039Y-10628889D01*
X9658039Y-10628889D02*
X9648515Y-10590793D01*
X9648515Y-10590793D02*
X9648515Y-10543174D01*
X9648515Y-10543174D02*
X9658039Y-10505079D01*
X9658039Y-10505079D02*
X9667563Y-10486031D01*
X9667563Y-10486031D02*
X9677087Y-10476508D01*
X9677087Y-10476508D02*
X9696134Y-10466984D01*
X9848515Y-10647936D02*
X9858039Y-10657460D01*
X9858039Y-10657460D02*
X9848515Y-10666984D01*
X9848515Y-10666984D02*
X9838991Y-10657460D01*
X9838991Y-10657460D02*
X9848515Y-10647936D01*
X9848515Y-10647936D02*
X9848515Y-10666984D01*
X9981848Y-10466984D02*
X10000896Y-10466984D01*
X10000896Y-10466984D02*
X10019944Y-10476508D01*
X10019944Y-10476508D02*
X10029468Y-10486031D01*
X10029468Y-10486031D02*
X10038991Y-10505079D01*
X10038991Y-10505079D02*
X10048515Y-10543174D01*
X10048515Y-10543174D02*
X10048515Y-10590793D01*
X10048515Y-10590793D02*
X10038991Y-10628889D01*
X10038991Y-10628889D02*
X10029468Y-10647936D01*
X10029468Y-10647936D02*
X10019944Y-10657460D01*
X10019944Y-10657460D02*
X10000896Y-10666984D01*
X10000896Y-10666984D02*
X9981848Y-10666984D01*
X9981848Y-10666984D02*
X9962801Y-10657460D01*
X9962801Y-10657460D02*
X9953277Y-10647936D01*
X9953277Y-10647936D02*
X9943753Y-10628889D01*
X9943753Y-10628889D02*
X9934229Y-10590793D01*
X9934229Y-10590793D02*
X9934229Y-10543174D01*
X9934229Y-10543174D02*
X9943753Y-10505079D01*
X9943753Y-10505079D02*
X9953277Y-10486031D01*
X9953277Y-10486031D02*
X9962801Y-10476508D01*
X9962801Y-10476508D02*
X9981848Y-10466984D01*
X10115182Y-10466984D02*
X10238991Y-10466984D01*
X10238991Y-10466984D02*
X10172325Y-10543174D01*
X10172325Y-10543174D02*
X10200896Y-10543174D01*
X10200896Y-10543174D02*
X10219944Y-10552698D01*
X10219944Y-10552698D02*
X10229468Y-10562222D01*
X10229468Y-10562222D02*
X10238991Y-10581270D01*
X10238991Y-10581270D02*
X10238991Y-10628889D01*
X10238991Y-10628889D02*
X10229468Y-10647936D01*
X10229468Y-10647936D02*
X10219944Y-10657460D01*
X10219944Y-10657460D02*
X10200896Y-10666984D01*
X10200896Y-10666984D02*
X10143753Y-10666984D01*
X10143753Y-10666984D02*
X10124706Y-10657460D01*
X10124706Y-10657460D02*
X10115182Y-10647936D01*
X10419944Y-10466984D02*
X10324706Y-10466984D01*
X10324706Y-10466984D02*
X10315182Y-10562222D01*
X10315182Y-10562222D02*
X10324706Y-10552698D01*
X10324706Y-10552698D02*
X10343753Y-10543174D01*
X10343753Y-10543174D02*
X10391372Y-10543174D01*
X10391372Y-10543174D02*
X10410420Y-10552698D01*
X10410420Y-10552698D02*
X10419944Y-10562222D01*
X10419944Y-10562222D02*
X10429468Y-10581270D01*
X10429468Y-10581270D02*
X10429468Y-10628889D01*
X10429468Y-10628889D02*
X10419944Y-10647936D01*
X10419944Y-10647936D02*
X10410420Y-10657460D01*
X10410420Y-10657460D02*
X10391372Y-10666984D01*
X10391372Y-10666984D02*
X10343753Y-10666984D01*
X10343753Y-10666984D02*
X10324706Y-10657460D01*
X10324706Y-10657460D02*
X10315182Y-10647936D01*
X10600896Y-10533650D02*
X10600896Y-10666984D01*
X10553277Y-10457460D02*
X10505658Y-10600317D01*
X10505658Y-10600317D02*
X10629468Y-10600317D01*
X10696134Y-10466984D02*
X10696134Y-10505079D01*
X10772325Y-10466984D02*
X10772325Y-10505079D01*
X11067563Y-10743174D02*
X11058039Y-10733650D01*
X11058039Y-10733650D02*
X11038991Y-10705079D01*
X11038991Y-10705079D02*
X11029468Y-10686031D01*
X11029468Y-10686031D02*
X11019944Y-10657460D01*
X11019944Y-10657460D02*
X11010420Y-10609841D01*
X11010420Y-10609841D02*
X11010420Y-10571746D01*
X11010420Y-10571746D02*
X11019944Y-10524127D01*
X11019944Y-10524127D02*
X11029468Y-10495555D01*
X11029468Y-10495555D02*
X11038991Y-10476508D01*
X11038991Y-10476508D02*
X11058039Y-10447936D01*
X11058039Y-10447936D02*
X11067563Y-10438412D01*
X11124706Y-10466984D02*
X11248515Y-10466984D01*
X11248515Y-10466984D02*
X11181849Y-10543174D01*
X11181849Y-10543174D02*
X11210420Y-10543174D01*
X11210420Y-10543174D02*
X11229468Y-10552698D01*
X11229468Y-10552698D02*
X11238991Y-10562222D01*
X11238991Y-10562222D02*
X11248515Y-10581270D01*
X11248515Y-10581270D02*
X11248515Y-10628889D01*
X11248515Y-10628889D02*
X11238991Y-10647936D01*
X11238991Y-10647936D02*
X11229468Y-10657460D01*
X11229468Y-10657460D02*
X11210420Y-10666984D01*
X11210420Y-10666984D02*
X11153277Y-10666984D01*
X11153277Y-10666984D02*
X11134230Y-10657460D01*
X11134230Y-10657460D02*
X11124706Y-10647936D01*
X11486610Y-10666984D02*
X11486610Y-10466984D01*
X11572325Y-10666984D02*
X11572325Y-10562222D01*
X11572325Y-10562222D02*
X11562801Y-10543174D01*
X11562801Y-10543174D02*
X11543753Y-10533650D01*
X11543753Y-10533650D02*
X11515182Y-10533650D01*
X11515182Y-10533650D02*
X11496134Y-10543174D01*
X11496134Y-10543174D02*
X11486610Y-10552698D01*
X11696134Y-10666984D02*
X11677087Y-10657460D01*
X11677087Y-10657460D02*
X11667563Y-10647936D01*
X11667563Y-10647936D02*
X11658039Y-10628889D01*
X11658039Y-10628889D02*
X11658039Y-10571746D01*
X11658039Y-10571746D02*
X11667563Y-10552698D01*
X11667563Y-10552698D02*
X11677087Y-10543174D01*
X11677087Y-10543174D02*
X11696134Y-10533650D01*
X11696134Y-10533650D02*
X11724706Y-10533650D01*
X11724706Y-10533650D02*
X11743753Y-10543174D01*
X11743753Y-10543174D02*
X11753277Y-10552698D01*
X11753277Y-10552698D02*
X11762801Y-10571746D01*
X11762801Y-10571746D02*
X11762801Y-10628889D01*
X11762801Y-10628889D02*
X11753277Y-10647936D01*
X11753277Y-10647936D02*
X11743753Y-10657460D01*
X11743753Y-10657460D02*
X11724706Y-10666984D01*
X11724706Y-10666984D02*
X11696134Y-10666984D01*
X11877087Y-10666984D02*
X11858039Y-10657460D01*
X11858039Y-10657460D02*
X11848515Y-10638412D01*
X11848515Y-10638412D02*
X11848515Y-10466984D01*
X12029468Y-10657460D02*
X12010420Y-10666984D01*
X12010420Y-10666984D02*
X11972325Y-10666984D01*
X11972325Y-10666984D02*
X11953277Y-10657460D01*
X11953277Y-10657460D02*
X11943753Y-10638412D01*
X11943753Y-10638412D02*
X11943753Y-10562222D01*
X11943753Y-10562222D02*
X11953277Y-10543174D01*
X11953277Y-10543174D02*
X11972325Y-10533650D01*
X11972325Y-10533650D02*
X12010420Y-10533650D01*
X12010420Y-10533650D02*
X12029468Y-10543174D01*
X12029468Y-10543174D02*
X12038991Y-10562222D01*
X12038991Y-10562222D02*
X12038991Y-10581270D01*
X12038991Y-10581270D02*
X11943753Y-10600317D01*
X12115182Y-10657460D02*
X12134230Y-10666984D01*
X12134230Y-10666984D02*
X12172325Y-10666984D01*
X12172325Y-10666984D02*
X12191372Y-10657460D01*
X12191372Y-10657460D02*
X12200896Y-10638412D01*
X12200896Y-10638412D02*
X12200896Y-10628889D01*
X12200896Y-10628889D02*
X12191372Y-10609841D01*
X12191372Y-10609841D02*
X12172325Y-10600317D01*
X12172325Y-10600317D02*
X12143753Y-10600317D01*
X12143753Y-10600317D02*
X12124706Y-10590793D01*
X12124706Y-10590793D02*
X12115182Y-10571746D01*
X12115182Y-10571746D02*
X12115182Y-10562222D01*
X12115182Y-10562222D02*
X12124706Y-10543174D01*
X12124706Y-10543174D02*
X12143753Y-10533650D01*
X12143753Y-10533650D02*
X12172325Y-10533650D01*
X12172325Y-10533650D02*
X12191372Y-10543174D01*
X12267563Y-10743174D02*
X12277087Y-10733650D01*
X12277087Y-10733650D02*
X12296134Y-10705079D01*
X12296134Y-10705079D02*
X12305658Y-10686031D01*
X12305658Y-10686031D02*
X12315182Y-10657460D01*
X12315182Y-10657460D02*
X12324706Y-10609841D01*
X12324706Y-10609841D02*
X12324706Y-10571746D01*
X12324706Y-10571746D02*
X12315182Y-10524127D01*
X12315182Y-10524127D02*
X12305658Y-10495555D01*
X12305658Y-10495555D02*
X12296134Y-10476508D01*
X12296134Y-10476508D02*
X12277087Y-10447936D01*
X12277087Y-10447936D02*
X12267563Y-10438412D01*
D12*
X7477856Y-10874856D02*
X7477856Y-10804144D01*
X7407144Y-10804144D01*
X7407144Y-10874856D01*
X7477856Y-10874856D01*
D11*
X7858039Y-10930984D02*
X7743753Y-10930984D01*
X7800896Y-10930984D02*
X7800896Y-10730984D01*
X7800896Y-10730984D02*
X7781848Y-10759555D01*
X7781848Y-10759555D02*
X7762801Y-10778603D01*
X7762801Y-10778603D02*
X7743753Y-10788127D01*
X7943753Y-10911936D02*
X7953277Y-10921460D01*
X7953277Y-10921460D02*
X7943753Y-10930984D01*
X7943753Y-10930984D02*
X7934229Y-10921460D01*
X7934229Y-10921460D02*
X7943753Y-10911936D01*
X7943753Y-10911936D02*
X7943753Y-10930984D01*
X8077086Y-10730984D02*
X8096134Y-10730984D01*
X8096134Y-10730984D02*
X8115182Y-10740508D01*
X8115182Y-10740508D02*
X8124705Y-10750031D01*
X8124705Y-10750031D02*
X8134229Y-10769079D01*
X8134229Y-10769079D02*
X8143753Y-10807174D01*
X8143753Y-10807174D02*
X8143753Y-10854793D01*
X8143753Y-10854793D02*
X8134229Y-10892889D01*
X8134229Y-10892889D02*
X8124705Y-10911936D01*
X8124705Y-10911936D02*
X8115182Y-10921460D01*
X8115182Y-10921460D02*
X8096134Y-10930984D01*
X8096134Y-10930984D02*
X8077086Y-10930984D01*
X8077086Y-10930984D02*
X8058039Y-10921460D01*
X8058039Y-10921460D02*
X8048515Y-10911936D01*
X8048515Y-10911936D02*
X8038991Y-10892889D01*
X8038991Y-10892889D02*
X8029467Y-10854793D01*
X8029467Y-10854793D02*
X8029467Y-10807174D01*
X8029467Y-10807174D02*
X8038991Y-10769079D01*
X8038991Y-10769079D02*
X8048515Y-10750031D01*
X8048515Y-10750031D02*
X8058039Y-10740508D01*
X8058039Y-10740508D02*
X8077086Y-10730984D01*
X8267562Y-10730984D02*
X8286610Y-10730984D01*
X8286610Y-10730984D02*
X8305658Y-10740508D01*
X8305658Y-10740508D02*
X8315182Y-10750031D01*
X8315182Y-10750031D02*
X8324705Y-10769079D01*
X8324705Y-10769079D02*
X8334229Y-10807174D01*
X8334229Y-10807174D02*
X8334229Y-10854793D01*
X8334229Y-10854793D02*
X8324705Y-10892889D01*
X8324705Y-10892889D02*
X8315182Y-10911936D01*
X8315182Y-10911936D02*
X8305658Y-10921460D01*
X8305658Y-10921460D02*
X8286610Y-10930984D01*
X8286610Y-10930984D02*
X8267562Y-10930984D01*
X8267562Y-10930984D02*
X8248515Y-10921460D01*
X8248515Y-10921460D02*
X8238991Y-10911936D01*
X8238991Y-10911936D02*
X8229467Y-10892889D01*
X8229467Y-10892889D02*
X8219943Y-10854793D01*
X8219943Y-10854793D02*
X8219943Y-10807174D01*
X8219943Y-10807174D02*
X8229467Y-10769079D01*
X8229467Y-10769079D02*
X8238991Y-10750031D01*
X8238991Y-10750031D02*
X8248515Y-10740508D01*
X8248515Y-10740508D02*
X8267562Y-10730984D01*
X8458039Y-10730984D02*
X8477086Y-10730984D01*
X8477086Y-10730984D02*
X8496134Y-10740508D01*
X8496134Y-10740508D02*
X8505658Y-10750031D01*
X8505658Y-10750031D02*
X8515182Y-10769079D01*
X8515182Y-10769079D02*
X8524705Y-10807174D01*
X8524705Y-10807174D02*
X8524705Y-10854793D01*
X8524705Y-10854793D02*
X8515182Y-10892889D01*
X8515182Y-10892889D02*
X8505658Y-10911936D01*
X8505658Y-10911936D02*
X8496134Y-10921460D01*
X8496134Y-10921460D02*
X8477086Y-10930984D01*
X8477086Y-10930984D02*
X8458039Y-10930984D01*
X8458039Y-10930984D02*
X8438991Y-10921460D01*
X8438991Y-10921460D02*
X8429467Y-10911936D01*
X8429467Y-10911936D02*
X8419944Y-10892889D01*
X8419944Y-10892889D02*
X8410420Y-10854793D01*
X8410420Y-10854793D02*
X8410420Y-10807174D01*
X8410420Y-10807174D02*
X8419944Y-10769079D01*
X8419944Y-10769079D02*
X8429467Y-10750031D01*
X8429467Y-10750031D02*
X8438991Y-10740508D01*
X8438991Y-10740508D02*
X8458039Y-10730984D01*
X8610420Y-10930984D02*
X8610420Y-10797650D01*
X8610420Y-10816698D02*
X8619944Y-10807174D01*
X8619944Y-10807174D02*
X8638991Y-10797650D01*
X8638991Y-10797650D02*
X8667563Y-10797650D01*
X8667563Y-10797650D02*
X8686610Y-10807174D01*
X8686610Y-10807174D02*
X8696134Y-10826222D01*
X8696134Y-10826222D02*
X8696134Y-10930984D01*
X8696134Y-10826222D02*
X8705658Y-10807174D01*
X8705658Y-10807174D02*
X8724705Y-10797650D01*
X8724705Y-10797650D02*
X8753277Y-10797650D01*
X8753277Y-10797650D02*
X8772325Y-10807174D01*
X8772325Y-10807174D02*
X8781848Y-10826222D01*
X8781848Y-10826222D02*
X8781848Y-10930984D01*
X8877086Y-10930984D02*
X8877086Y-10797650D01*
X8877086Y-10816698D02*
X8886610Y-10807174D01*
X8886610Y-10807174D02*
X8905658Y-10797650D01*
X8905658Y-10797650D02*
X8934229Y-10797650D01*
X8934229Y-10797650D02*
X8953277Y-10807174D01*
X8953277Y-10807174D02*
X8962801Y-10826222D01*
X8962801Y-10826222D02*
X8962801Y-10930984D01*
X8962801Y-10826222D02*
X8972325Y-10807174D01*
X8972325Y-10807174D02*
X8991372Y-10797650D01*
X8991372Y-10797650D02*
X9019944Y-10797650D01*
X9019944Y-10797650D02*
X9038991Y-10807174D01*
X9038991Y-10807174D02*
X9048515Y-10826222D01*
X9048515Y-10826222D02*
X9048515Y-10930984D01*
X9438991Y-10721460D02*
X9267563Y-10978603D01*
X9696134Y-10730984D02*
X9715182Y-10730984D01*
X9715182Y-10730984D02*
X9734229Y-10740508D01*
X9734229Y-10740508D02*
X9743753Y-10750031D01*
X9743753Y-10750031D02*
X9753277Y-10769079D01*
X9753277Y-10769079D02*
X9762801Y-10807174D01*
X9762801Y-10807174D02*
X9762801Y-10854793D01*
X9762801Y-10854793D02*
X9753277Y-10892889D01*
X9753277Y-10892889D02*
X9743753Y-10911936D01*
X9743753Y-10911936D02*
X9734229Y-10921460D01*
X9734229Y-10921460D02*
X9715182Y-10930984D01*
X9715182Y-10930984D02*
X9696134Y-10930984D01*
X9696134Y-10930984D02*
X9677087Y-10921460D01*
X9677087Y-10921460D02*
X9667563Y-10911936D01*
X9667563Y-10911936D02*
X9658039Y-10892889D01*
X9658039Y-10892889D02*
X9648515Y-10854793D01*
X9648515Y-10854793D02*
X9648515Y-10807174D01*
X9648515Y-10807174D02*
X9658039Y-10769079D01*
X9658039Y-10769079D02*
X9667563Y-10750031D01*
X9667563Y-10750031D02*
X9677087Y-10740508D01*
X9677087Y-10740508D02*
X9696134Y-10730984D01*
X9848515Y-10911936D02*
X9858039Y-10921460D01*
X9858039Y-10921460D02*
X9848515Y-10930984D01*
X9848515Y-10930984D02*
X9838991Y-10921460D01*
X9838991Y-10921460D02*
X9848515Y-10911936D01*
X9848515Y-10911936D02*
X9848515Y-10930984D01*
X9981848Y-10730984D02*
X10000896Y-10730984D01*
X10000896Y-10730984D02*
X10019944Y-10740508D01*
X10019944Y-10740508D02*
X10029468Y-10750031D01*
X10029468Y-10750031D02*
X10038991Y-10769079D01*
X10038991Y-10769079D02*
X10048515Y-10807174D01*
X10048515Y-10807174D02*
X10048515Y-10854793D01*
X10048515Y-10854793D02*
X10038991Y-10892889D01*
X10038991Y-10892889D02*
X10029468Y-10911936D01*
X10029468Y-10911936D02*
X10019944Y-10921460D01*
X10019944Y-10921460D02*
X10000896Y-10930984D01*
X10000896Y-10930984D02*
X9981848Y-10930984D01*
X9981848Y-10930984D02*
X9962801Y-10921460D01*
X9962801Y-10921460D02*
X9953277Y-10911936D01*
X9953277Y-10911936D02*
X9943753Y-10892889D01*
X9943753Y-10892889D02*
X9934229Y-10854793D01*
X9934229Y-10854793D02*
X9934229Y-10807174D01*
X9934229Y-10807174D02*
X9943753Y-10769079D01*
X9943753Y-10769079D02*
X9953277Y-10750031D01*
X9953277Y-10750031D02*
X9962801Y-10740508D01*
X9962801Y-10740508D02*
X9981848Y-10730984D01*
X10115182Y-10730984D02*
X10238991Y-10730984D01*
X10238991Y-10730984D02*
X10172325Y-10807174D01*
X10172325Y-10807174D02*
X10200896Y-10807174D01*
X10200896Y-10807174D02*
X10219944Y-10816698D01*
X10219944Y-10816698D02*
X10229468Y-10826222D01*
X10229468Y-10826222D02*
X10238991Y-10845270D01*
X10238991Y-10845270D02*
X10238991Y-10892889D01*
X10238991Y-10892889D02*
X10229468Y-10911936D01*
X10229468Y-10911936D02*
X10219944Y-10921460D01*
X10219944Y-10921460D02*
X10200896Y-10930984D01*
X10200896Y-10930984D02*
X10143753Y-10930984D01*
X10143753Y-10930984D02*
X10124706Y-10921460D01*
X10124706Y-10921460D02*
X10115182Y-10911936D01*
X10334229Y-10930984D02*
X10372325Y-10930984D01*
X10372325Y-10930984D02*
X10391372Y-10921460D01*
X10391372Y-10921460D02*
X10400896Y-10911936D01*
X10400896Y-10911936D02*
X10419944Y-10883365D01*
X10419944Y-10883365D02*
X10429468Y-10845270D01*
X10429468Y-10845270D02*
X10429468Y-10769079D01*
X10429468Y-10769079D02*
X10419944Y-10750031D01*
X10419944Y-10750031D02*
X10410420Y-10740508D01*
X10410420Y-10740508D02*
X10391372Y-10730984D01*
X10391372Y-10730984D02*
X10353277Y-10730984D01*
X10353277Y-10730984D02*
X10334229Y-10740508D01*
X10334229Y-10740508D02*
X10324706Y-10750031D01*
X10324706Y-10750031D02*
X10315182Y-10769079D01*
X10315182Y-10769079D02*
X10315182Y-10816698D01*
X10315182Y-10816698D02*
X10324706Y-10835746D01*
X10324706Y-10835746D02*
X10334229Y-10845270D01*
X10334229Y-10845270D02*
X10353277Y-10854793D01*
X10353277Y-10854793D02*
X10391372Y-10854793D01*
X10391372Y-10854793D02*
X10410420Y-10845270D01*
X10410420Y-10845270D02*
X10419944Y-10835746D01*
X10419944Y-10835746D02*
X10429468Y-10816698D01*
X10600896Y-10797650D02*
X10600896Y-10930984D01*
X10553277Y-10721460D02*
X10505658Y-10864317D01*
X10505658Y-10864317D02*
X10629468Y-10864317D01*
X10696134Y-10730984D02*
X10696134Y-10769079D01*
X10772325Y-10730984D02*
X10772325Y-10769079D01*
X11067563Y-11007174D02*
X11058039Y-10997650D01*
X11058039Y-10997650D02*
X11038991Y-10969079D01*
X11038991Y-10969079D02*
X11029468Y-10950031D01*
X11029468Y-10950031D02*
X11019944Y-10921460D01*
X11019944Y-10921460D02*
X11010420Y-10873841D01*
X11010420Y-10873841D02*
X11010420Y-10835746D01*
X11010420Y-10835746D02*
X11019944Y-10788127D01*
X11019944Y-10788127D02*
X11029468Y-10759555D01*
X11029468Y-10759555D02*
X11038991Y-10740508D01*
X11038991Y-10740508D02*
X11058039Y-10711936D01*
X11058039Y-10711936D02*
X11067563Y-10702412D01*
X11229468Y-10730984D02*
X11191372Y-10730984D01*
X11191372Y-10730984D02*
X11172325Y-10740508D01*
X11172325Y-10740508D02*
X11162801Y-10750031D01*
X11162801Y-10750031D02*
X11143753Y-10778603D01*
X11143753Y-10778603D02*
X11134230Y-10816698D01*
X11134230Y-10816698D02*
X11134230Y-10892889D01*
X11134230Y-10892889D02*
X11143753Y-10911936D01*
X11143753Y-10911936D02*
X11153277Y-10921460D01*
X11153277Y-10921460D02*
X11172325Y-10930984D01*
X11172325Y-10930984D02*
X11210420Y-10930984D01*
X11210420Y-10930984D02*
X11229468Y-10921460D01*
X11229468Y-10921460D02*
X11238991Y-10911936D01*
X11238991Y-10911936D02*
X11248515Y-10892889D01*
X11248515Y-10892889D02*
X11248515Y-10845270D01*
X11248515Y-10845270D02*
X11238991Y-10826222D01*
X11238991Y-10826222D02*
X11229468Y-10816698D01*
X11229468Y-10816698D02*
X11210420Y-10807174D01*
X11210420Y-10807174D02*
X11172325Y-10807174D01*
X11172325Y-10807174D02*
X11153277Y-10816698D01*
X11153277Y-10816698D02*
X11143753Y-10826222D01*
X11143753Y-10826222D02*
X11134230Y-10845270D01*
X11486610Y-10930984D02*
X11486610Y-10730984D01*
X11572325Y-10930984D02*
X11572325Y-10826222D01*
X11572325Y-10826222D02*
X11562801Y-10807174D01*
X11562801Y-10807174D02*
X11543753Y-10797650D01*
X11543753Y-10797650D02*
X11515182Y-10797650D01*
X11515182Y-10797650D02*
X11496134Y-10807174D01*
X11496134Y-10807174D02*
X11486610Y-10816698D01*
X11696134Y-10930984D02*
X11677087Y-10921460D01*
X11677087Y-10921460D02*
X11667563Y-10911936D01*
X11667563Y-10911936D02*
X11658039Y-10892889D01*
X11658039Y-10892889D02*
X11658039Y-10835746D01*
X11658039Y-10835746D02*
X11667563Y-10816698D01*
X11667563Y-10816698D02*
X11677087Y-10807174D01*
X11677087Y-10807174D02*
X11696134Y-10797650D01*
X11696134Y-10797650D02*
X11724706Y-10797650D01*
X11724706Y-10797650D02*
X11743753Y-10807174D01*
X11743753Y-10807174D02*
X11753277Y-10816698D01*
X11753277Y-10816698D02*
X11762801Y-10835746D01*
X11762801Y-10835746D02*
X11762801Y-10892889D01*
X11762801Y-10892889D02*
X11753277Y-10911936D01*
X11753277Y-10911936D02*
X11743753Y-10921460D01*
X11743753Y-10921460D02*
X11724706Y-10930984D01*
X11724706Y-10930984D02*
X11696134Y-10930984D01*
X11877087Y-10930984D02*
X11858039Y-10921460D01*
X11858039Y-10921460D02*
X11848515Y-10902412D01*
X11848515Y-10902412D02*
X11848515Y-10730984D01*
X12029468Y-10921460D02*
X12010420Y-10930984D01*
X12010420Y-10930984D02*
X11972325Y-10930984D01*
X11972325Y-10930984D02*
X11953277Y-10921460D01*
X11953277Y-10921460D02*
X11943753Y-10902412D01*
X11943753Y-10902412D02*
X11943753Y-10826222D01*
X11943753Y-10826222D02*
X11953277Y-10807174D01*
X11953277Y-10807174D02*
X11972325Y-10797650D01*
X11972325Y-10797650D02*
X12010420Y-10797650D01*
X12010420Y-10797650D02*
X12029468Y-10807174D01*
X12029468Y-10807174D02*
X12038991Y-10826222D01*
X12038991Y-10826222D02*
X12038991Y-10845270D01*
X12038991Y-10845270D02*
X11943753Y-10864317D01*
X12115182Y-10921460D02*
X12134230Y-10930984D01*
X12134230Y-10930984D02*
X12172325Y-10930984D01*
X12172325Y-10930984D02*
X12191372Y-10921460D01*
X12191372Y-10921460D02*
X12200896Y-10902412D01*
X12200896Y-10902412D02*
X12200896Y-10892889D01*
X12200896Y-10892889D02*
X12191372Y-10873841D01*
X12191372Y-10873841D02*
X12172325Y-10864317D01*
X12172325Y-10864317D02*
X12143753Y-10864317D01*
X12143753Y-10864317D02*
X12124706Y-10854793D01*
X12124706Y-10854793D02*
X12115182Y-10835746D01*
X12115182Y-10835746D02*
X12115182Y-10826222D01*
X12115182Y-10826222D02*
X12124706Y-10807174D01*
X12124706Y-10807174D02*
X12143753Y-10797650D01*
X12143753Y-10797650D02*
X12172325Y-10797650D01*
X12172325Y-10797650D02*
X12191372Y-10807174D01*
X12267563Y-11007174D02*
X12277087Y-10997650D01*
X12277087Y-10997650D02*
X12296134Y-10969079D01*
X12296134Y-10969079D02*
X12305658Y-10950031D01*
X12305658Y-10950031D02*
X12315182Y-10921460D01*
X12315182Y-10921460D02*
X12324706Y-10873841D01*
X12324706Y-10873841D02*
X12324706Y-10835746D01*
X12324706Y-10835746D02*
X12315182Y-10788127D01*
X12315182Y-10788127D02*
X12305658Y-10759555D01*
X12305658Y-10759555D02*
X12296134Y-10740508D01*
X12296134Y-10740508D02*
X12277087Y-10711936D01*
X12277087Y-10711936D02*
X12267563Y-10702412D01*
D13*
X7417500Y-11178500D02*
X7492500Y-11103500D01*
X7417500Y-11028500D01*
X7342500Y-11103500D01*
X7417500Y-11178500D01*
D11*
X7858039Y-11194984D02*
X7743753Y-11194984D01*
X7800896Y-11194984D02*
X7800896Y-10994984D01*
X7800896Y-10994984D02*
X7781848Y-11023555D01*
X7781848Y-11023555D02*
X7762801Y-11042603D01*
X7762801Y-11042603D02*
X7743753Y-11052127D01*
X7943753Y-11175936D02*
X7953277Y-11185460D01*
X7953277Y-11185460D02*
X7943753Y-11194984D01*
X7943753Y-11194984D02*
X7934229Y-11185460D01*
X7934229Y-11185460D02*
X7943753Y-11175936D01*
X7943753Y-11175936D02*
X7943753Y-11194984D01*
X8134229Y-10994984D02*
X8038991Y-10994984D01*
X8038991Y-10994984D02*
X8029467Y-11090222D01*
X8029467Y-11090222D02*
X8038991Y-11080698D01*
X8038991Y-11080698D02*
X8058039Y-11071174D01*
X8058039Y-11071174D02*
X8105658Y-11071174D01*
X8105658Y-11071174D02*
X8124705Y-11080698D01*
X8124705Y-11080698D02*
X8134229Y-11090222D01*
X8134229Y-11090222D02*
X8143753Y-11109270D01*
X8143753Y-11109270D02*
X8143753Y-11156889D01*
X8143753Y-11156889D02*
X8134229Y-11175936D01*
X8134229Y-11175936D02*
X8124705Y-11185460D01*
X8124705Y-11185460D02*
X8105658Y-11194984D01*
X8105658Y-11194984D02*
X8058039Y-11194984D01*
X8058039Y-11194984D02*
X8038991Y-11185460D01*
X8038991Y-11185460D02*
X8029467Y-11175936D01*
X8267562Y-10994984D02*
X8286610Y-10994984D01*
X8286610Y-10994984D02*
X8305658Y-11004508D01*
X8305658Y-11004508D02*
X8315182Y-11014031D01*
X8315182Y-11014031D02*
X8324705Y-11033079D01*
X8324705Y-11033079D02*
X8334229Y-11071174D01*
X8334229Y-11071174D02*
X8334229Y-11118793D01*
X8334229Y-11118793D02*
X8324705Y-11156889D01*
X8324705Y-11156889D02*
X8315182Y-11175936D01*
X8315182Y-11175936D02*
X8305658Y-11185460D01*
X8305658Y-11185460D02*
X8286610Y-11194984D01*
X8286610Y-11194984D02*
X8267562Y-11194984D01*
X8267562Y-11194984D02*
X8248515Y-11185460D01*
X8248515Y-11185460D02*
X8238991Y-11175936D01*
X8238991Y-11175936D02*
X8229467Y-11156889D01*
X8229467Y-11156889D02*
X8219943Y-11118793D01*
X8219943Y-11118793D02*
X8219943Y-11071174D01*
X8219943Y-11071174D02*
X8229467Y-11033079D01*
X8229467Y-11033079D02*
X8238991Y-11014031D01*
X8238991Y-11014031D02*
X8248515Y-11004508D01*
X8248515Y-11004508D02*
X8267562Y-10994984D01*
X8458039Y-10994984D02*
X8477086Y-10994984D01*
X8477086Y-10994984D02*
X8496134Y-11004508D01*
X8496134Y-11004508D02*
X8505658Y-11014031D01*
X8505658Y-11014031D02*
X8515182Y-11033079D01*
X8515182Y-11033079D02*
X8524705Y-11071174D01*
X8524705Y-11071174D02*
X8524705Y-11118793D01*
X8524705Y-11118793D02*
X8515182Y-11156889D01*
X8515182Y-11156889D02*
X8505658Y-11175936D01*
X8505658Y-11175936D02*
X8496134Y-11185460D01*
X8496134Y-11185460D02*
X8477086Y-11194984D01*
X8477086Y-11194984D02*
X8458039Y-11194984D01*
X8458039Y-11194984D02*
X8438991Y-11185460D01*
X8438991Y-11185460D02*
X8429467Y-11175936D01*
X8429467Y-11175936D02*
X8419944Y-11156889D01*
X8419944Y-11156889D02*
X8410420Y-11118793D01*
X8410420Y-11118793D02*
X8410420Y-11071174D01*
X8410420Y-11071174D02*
X8419944Y-11033079D01*
X8419944Y-11033079D02*
X8429467Y-11014031D01*
X8429467Y-11014031D02*
X8438991Y-11004508D01*
X8438991Y-11004508D02*
X8458039Y-10994984D01*
X8610420Y-11194984D02*
X8610420Y-11061650D01*
X8610420Y-11080698D02*
X8619944Y-11071174D01*
X8619944Y-11071174D02*
X8638991Y-11061650D01*
X8638991Y-11061650D02*
X8667563Y-11061650D01*
X8667563Y-11061650D02*
X8686610Y-11071174D01*
X8686610Y-11071174D02*
X8696134Y-11090222D01*
X8696134Y-11090222D02*
X8696134Y-11194984D01*
X8696134Y-11090222D02*
X8705658Y-11071174D01*
X8705658Y-11071174D02*
X8724705Y-11061650D01*
X8724705Y-11061650D02*
X8753277Y-11061650D01*
X8753277Y-11061650D02*
X8772325Y-11071174D01*
X8772325Y-11071174D02*
X8781848Y-11090222D01*
X8781848Y-11090222D02*
X8781848Y-11194984D01*
X8877086Y-11194984D02*
X8877086Y-11061650D01*
X8877086Y-11080698D02*
X8886610Y-11071174D01*
X8886610Y-11071174D02*
X8905658Y-11061650D01*
X8905658Y-11061650D02*
X8934229Y-11061650D01*
X8934229Y-11061650D02*
X8953277Y-11071174D01*
X8953277Y-11071174D02*
X8962801Y-11090222D01*
X8962801Y-11090222D02*
X8962801Y-11194984D01*
X8962801Y-11090222D02*
X8972325Y-11071174D01*
X8972325Y-11071174D02*
X8991372Y-11061650D01*
X8991372Y-11061650D02*
X9019944Y-11061650D01*
X9019944Y-11061650D02*
X9038991Y-11071174D01*
X9038991Y-11071174D02*
X9048515Y-11090222D01*
X9048515Y-11090222D02*
X9048515Y-11194984D01*
X9438991Y-10985460D02*
X9267563Y-11242603D01*
X9696134Y-10994984D02*
X9715182Y-10994984D01*
X9715182Y-10994984D02*
X9734229Y-11004508D01*
X9734229Y-11004508D02*
X9743753Y-11014031D01*
X9743753Y-11014031D02*
X9753277Y-11033079D01*
X9753277Y-11033079D02*
X9762801Y-11071174D01*
X9762801Y-11071174D02*
X9762801Y-11118793D01*
X9762801Y-11118793D02*
X9753277Y-11156889D01*
X9753277Y-11156889D02*
X9743753Y-11175936D01*
X9743753Y-11175936D02*
X9734229Y-11185460D01*
X9734229Y-11185460D02*
X9715182Y-11194984D01*
X9715182Y-11194984D02*
X9696134Y-11194984D01*
X9696134Y-11194984D02*
X9677087Y-11185460D01*
X9677087Y-11185460D02*
X9667563Y-11175936D01*
X9667563Y-11175936D02*
X9658039Y-11156889D01*
X9658039Y-11156889D02*
X9648515Y-11118793D01*
X9648515Y-11118793D02*
X9648515Y-11071174D01*
X9648515Y-11071174D02*
X9658039Y-11033079D01*
X9658039Y-11033079D02*
X9667563Y-11014031D01*
X9667563Y-11014031D02*
X9677087Y-11004508D01*
X9677087Y-11004508D02*
X9696134Y-10994984D01*
X9848515Y-11175936D02*
X9858039Y-11185460D01*
X9858039Y-11185460D02*
X9848515Y-11194984D01*
X9848515Y-11194984D02*
X9838991Y-11185460D01*
X9838991Y-11185460D02*
X9848515Y-11175936D01*
X9848515Y-11175936D02*
X9848515Y-11194984D01*
X9981848Y-10994984D02*
X10000896Y-10994984D01*
X10000896Y-10994984D02*
X10019944Y-11004508D01*
X10019944Y-11004508D02*
X10029468Y-11014031D01*
X10029468Y-11014031D02*
X10038991Y-11033079D01*
X10038991Y-11033079D02*
X10048515Y-11071174D01*
X10048515Y-11071174D02*
X10048515Y-11118793D01*
X10048515Y-11118793D02*
X10038991Y-11156889D01*
X10038991Y-11156889D02*
X10029468Y-11175936D01*
X10029468Y-11175936D02*
X10019944Y-11185460D01*
X10019944Y-11185460D02*
X10000896Y-11194984D01*
X10000896Y-11194984D02*
X9981848Y-11194984D01*
X9981848Y-11194984D02*
X9962801Y-11185460D01*
X9962801Y-11185460D02*
X9953277Y-11175936D01*
X9953277Y-11175936D02*
X9943753Y-11156889D01*
X9943753Y-11156889D02*
X9934229Y-11118793D01*
X9934229Y-11118793D02*
X9934229Y-11071174D01*
X9934229Y-11071174D02*
X9943753Y-11033079D01*
X9943753Y-11033079D02*
X9953277Y-11014031D01*
X9953277Y-11014031D02*
X9962801Y-11004508D01*
X9962801Y-11004508D02*
X9981848Y-10994984D01*
X10229468Y-10994984D02*
X10134229Y-10994984D01*
X10134229Y-10994984D02*
X10124706Y-11090222D01*
X10124706Y-11090222D02*
X10134229Y-11080698D01*
X10134229Y-11080698D02*
X10153277Y-11071174D01*
X10153277Y-11071174D02*
X10200896Y-11071174D01*
X10200896Y-11071174D02*
X10219944Y-11080698D01*
X10219944Y-11080698D02*
X10229468Y-11090222D01*
X10229468Y-11090222D02*
X10238991Y-11109270D01*
X10238991Y-11109270D02*
X10238991Y-11156889D01*
X10238991Y-11156889D02*
X10229468Y-11175936D01*
X10229468Y-11175936D02*
X10219944Y-11185460D01*
X10219944Y-11185460D02*
X10200896Y-11194984D01*
X10200896Y-11194984D02*
X10153277Y-11194984D01*
X10153277Y-11194984D02*
X10134229Y-11185460D01*
X10134229Y-11185460D02*
X10124706Y-11175936D01*
X10334229Y-11194984D02*
X10372325Y-11194984D01*
X10372325Y-11194984D02*
X10391372Y-11185460D01*
X10391372Y-11185460D02*
X10400896Y-11175936D01*
X10400896Y-11175936D02*
X10419944Y-11147365D01*
X10419944Y-11147365D02*
X10429468Y-11109270D01*
X10429468Y-11109270D02*
X10429468Y-11033079D01*
X10429468Y-11033079D02*
X10419944Y-11014031D01*
X10419944Y-11014031D02*
X10410420Y-11004508D01*
X10410420Y-11004508D02*
X10391372Y-10994984D01*
X10391372Y-10994984D02*
X10353277Y-10994984D01*
X10353277Y-10994984D02*
X10334229Y-11004508D01*
X10334229Y-11004508D02*
X10324706Y-11014031D01*
X10324706Y-11014031D02*
X10315182Y-11033079D01*
X10315182Y-11033079D02*
X10315182Y-11080698D01*
X10315182Y-11080698D02*
X10324706Y-11099746D01*
X10324706Y-11099746D02*
X10334229Y-11109270D01*
X10334229Y-11109270D02*
X10353277Y-11118793D01*
X10353277Y-11118793D02*
X10391372Y-11118793D01*
X10391372Y-11118793D02*
X10410420Y-11109270D01*
X10410420Y-11109270D02*
X10419944Y-11099746D01*
X10419944Y-11099746D02*
X10429468Y-11080698D01*
X10619944Y-11194984D02*
X10505658Y-11194984D01*
X10562801Y-11194984D02*
X10562801Y-10994984D01*
X10562801Y-10994984D02*
X10543753Y-11023555D01*
X10543753Y-11023555D02*
X10524706Y-11042603D01*
X10524706Y-11042603D02*
X10505658Y-11052127D01*
X10696134Y-10994984D02*
X10696134Y-11033079D01*
X10772325Y-10994984D02*
X10772325Y-11033079D01*
X11067563Y-11271174D02*
X11058039Y-11261650D01*
X11058039Y-11261650D02*
X11038991Y-11233079D01*
X11038991Y-11233079D02*
X11029468Y-11214031D01*
X11029468Y-11214031D02*
X11019944Y-11185460D01*
X11019944Y-11185460D02*
X11010420Y-11137841D01*
X11010420Y-11137841D02*
X11010420Y-11099746D01*
X11010420Y-11099746D02*
X11019944Y-11052127D01*
X11019944Y-11052127D02*
X11029468Y-11023555D01*
X11029468Y-11023555D02*
X11038991Y-11004508D01*
X11038991Y-11004508D02*
X11058039Y-10975936D01*
X11058039Y-10975936D02*
X11067563Y-10966412D01*
X11134230Y-11014031D02*
X11143753Y-11004508D01*
X11143753Y-11004508D02*
X11162801Y-10994984D01*
X11162801Y-10994984D02*
X11210420Y-10994984D01*
X11210420Y-10994984D02*
X11229468Y-11004508D01*
X11229468Y-11004508D02*
X11238991Y-11014031D01*
X11238991Y-11014031D02*
X11248515Y-11033079D01*
X11248515Y-11033079D02*
X11248515Y-11052127D01*
X11248515Y-11052127D02*
X11238991Y-11080698D01*
X11238991Y-11080698D02*
X11124706Y-11194984D01*
X11124706Y-11194984D02*
X11248515Y-11194984D01*
X11486610Y-11194984D02*
X11486610Y-10994984D01*
X11572325Y-11194984D02*
X11572325Y-11090222D01*
X11572325Y-11090222D02*
X11562801Y-11071174D01*
X11562801Y-11071174D02*
X11543753Y-11061650D01*
X11543753Y-11061650D02*
X11515182Y-11061650D01*
X11515182Y-11061650D02*
X11496134Y-11071174D01*
X11496134Y-11071174D02*
X11486610Y-11080698D01*
X11696134Y-11194984D02*
X11677087Y-11185460D01*
X11677087Y-11185460D02*
X11667563Y-11175936D01*
X11667563Y-11175936D02*
X11658039Y-11156889D01*
X11658039Y-11156889D02*
X11658039Y-11099746D01*
X11658039Y-11099746D02*
X11667563Y-11080698D01*
X11667563Y-11080698D02*
X11677087Y-11071174D01*
X11677087Y-11071174D02*
X11696134Y-11061650D01*
X11696134Y-11061650D02*
X11724706Y-11061650D01*
X11724706Y-11061650D02*
X11743753Y-11071174D01*
X11743753Y-11071174D02*
X11753277Y-11080698D01*
X11753277Y-11080698D02*
X11762801Y-11099746D01*
X11762801Y-11099746D02*
X11762801Y-11156889D01*
X11762801Y-11156889D02*
X11753277Y-11175936D01*
X11753277Y-11175936D02*
X11743753Y-11185460D01*
X11743753Y-11185460D02*
X11724706Y-11194984D01*
X11724706Y-11194984D02*
X11696134Y-11194984D01*
X11877087Y-11194984D02*
X11858039Y-11185460D01*
X11858039Y-11185460D02*
X11848515Y-11166412D01*
X11848515Y-11166412D02*
X11848515Y-10994984D01*
X12029468Y-11185460D02*
X12010420Y-11194984D01*
X12010420Y-11194984D02*
X11972325Y-11194984D01*
X11972325Y-11194984D02*
X11953277Y-11185460D01*
X11953277Y-11185460D02*
X11943753Y-11166412D01*
X11943753Y-11166412D02*
X11943753Y-11090222D01*
X11943753Y-11090222D02*
X11953277Y-11071174D01*
X11953277Y-11071174D02*
X11972325Y-11061650D01*
X11972325Y-11061650D02*
X12010420Y-11061650D01*
X12010420Y-11061650D02*
X12029468Y-11071174D01*
X12029468Y-11071174D02*
X12038991Y-11090222D01*
X12038991Y-11090222D02*
X12038991Y-11109270D01*
X12038991Y-11109270D02*
X11943753Y-11128317D01*
X12115182Y-11185460D02*
X12134230Y-11194984D01*
X12134230Y-11194984D02*
X12172325Y-11194984D01*
X12172325Y-11194984D02*
X12191372Y-11185460D01*
X12191372Y-11185460D02*
X12200896Y-11166412D01*
X12200896Y-11166412D02*
X12200896Y-11156889D01*
X12200896Y-11156889D02*
X12191372Y-11137841D01*
X12191372Y-11137841D02*
X12172325Y-11128317D01*
X12172325Y-11128317D02*
X12143753Y-11128317D01*
X12143753Y-11128317D02*
X12124706Y-11118793D01*
X12124706Y-11118793D02*
X12115182Y-11099746D01*
X12115182Y-11099746D02*
X12115182Y-11090222D01*
X12115182Y-11090222D02*
X12124706Y-11071174D01*
X12124706Y-11071174D02*
X12143753Y-11061650D01*
X12143753Y-11061650D02*
X12172325Y-11061650D01*
X12172325Y-11061650D02*
X12191372Y-11071174D01*
X12267563Y-11271174D02*
X12277087Y-11261650D01*
X12277087Y-11261650D02*
X12296134Y-11233079D01*
X12296134Y-11233079D02*
X12305658Y-11214031D01*
X12305658Y-11214031D02*
X12315182Y-11185460D01*
X12315182Y-11185460D02*
X12324706Y-11137841D01*
X12324706Y-11137841D02*
X12324706Y-11099746D01*
X12324706Y-11099746D02*
X12315182Y-11052127D01*
X12315182Y-11052127D02*
X12305658Y-11023555D01*
X12305658Y-11023555D02*
X12296134Y-11004508D01*
X12296134Y-11004508D02*
X12277087Y-10975936D01*
X12277087Y-10975936D02*
X12267563Y-10966412D01*
X7292500Y-11273500D02*
X7492500Y-11473500D01*
X7492500Y-11273500D02*
X7292500Y-11473500D01*
X7492500Y-11373500D02*
G75*
G02*
X7292500Y-11373500I-100000J0D01*
G01*
X7292500Y-11373500D02*
G75*
G02*
X7492500Y-11373500I100000J0D01*
G01*
X7734229Y-11264984D02*
X7858039Y-11264984D01*
X7858039Y-11264984D02*
X7791372Y-11341174D01*
X7791372Y-11341174D02*
X7819943Y-11341174D01*
X7819943Y-11341174D02*
X7838991Y-11350698D01*
X7838991Y-11350698D02*
X7848515Y-11360222D01*
X7848515Y-11360222D02*
X7858039Y-11379269D01*
X7858039Y-11379269D02*
X7858039Y-11426888D01*
X7858039Y-11426888D02*
X7848515Y-11445936D01*
X7848515Y-11445936D02*
X7838991Y-11455460D01*
X7838991Y-11455460D02*
X7819943Y-11464984D01*
X7819943Y-11464984D02*
X7762801Y-11464984D01*
X7762801Y-11464984D02*
X7743753Y-11455460D01*
X7743753Y-11455460D02*
X7734229Y-11445936D01*
X7943753Y-11445936D02*
X7953277Y-11455460D01*
X7953277Y-11455460D02*
X7943753Y-11464984D01*
X7943753Y-11464984D02*
X7934229Y-11455460D01*
X7934229Y-11455460D02*
X7943753Y-11445936D01*
X7943753Y-11445936D02*
X7943753Y-11464984D01*
X8077086Y-11264984D02*
X8096134Y-11264984D01*
X8096134Y-11264984D02*
X8115182Y-11274508D01*
X8115182Y-11274508D02*
X8124705Y-11284031D01*
X8124705Y-11284031D02*
X8134229Y-11303079D01*
X8134229Y-11303079D02*
X8143753Y-11341174D01*
X8143753Y-11341174D02*
X8143753Y-11388793D01*
X8143753Y-11388793D02*
X8134229Y-11426888D01*
X8134229Y-11426888D02*
X8124705Y-11445936D01*
X8124705Y-11445936D02*
X8115182Y-11455460D01*
X8115182Y-11455460D02*
X8096134Y-11464984D01*
X8096134Y-11464984D02*
X8077086Y-11464984D01*
X8077086Y-11464984D02*
X8058039Y-11455460D01*
X8058039Y-11455460D02*
X8048515Y-11445936D01*
X8048515Y-11445936D02*
X8038991Y-11426888D01*
X8038991Y-11426888D02*
X8029467Y-11388793D01*
X8029467Y-11388793D02*
X8029467Y-11341174D01*
X8029467Y-11341174D02*
X8038991Y-11303079D01*
X8038991Y-11303079D02*
X8048515Y-11284031D01*
X8048515Y-11284031D02*
X8058039Y-11274508D01*
X8058039Y-11274508D02*
X8077086Y-11264984D01*
X8267562Y-11264984D02*
X8286610Y-11264984D01*
X8286610Y-11264984D02*
X8305658Y-11274508D01*
X8305658Y-11274508D02*
X8315182Y-11284031D01*
X8315182Y-11284031D02*
X8324705Y-11303079D01*
X8324705Y-11303079D02*
X8334229Y-11341174D01*
X8334229Y-11341174D02*
X8334229Y-11388793D01*
X8334229Y-11388793D02*
X8324705Y-11426888D01*
X8324705Y-11426888D02*
X8315182Y-11445936D01*
X8315182Y-11445936D02*
X8305658Y-11455460D01*
X8305658Y-11455460D02*
X8286610Y-11464984D01*
X8286610Y-11464984D02*
X8267562Y-11464984D01*
X8267562Y-11464984D02*
X8248515Y-11455460D01*
X8248515Y-11455460D02*
X8238991Y-11445936D01*
X8238991Y-11445936D02*
X8229467Y-11426888D01*
X8229467Y-11426888D02*
X8219943Y-11388793D01*
X8219943Y-11388793D02*
X8219943Y-11341174D01*
X8219943Y-11341174D02*
X8229467Y-11303079D01*
X8229467Y-11303079D02*
X8238991Y-11284031D01*
X8238991Y-11284031D02*
X8248515Y-11274508D01*
X8248515Y-11274508D02*
X8267562Y-11264984D01*
X8458039Y-11264984D02*
X8477086Y-11264984D01*
X8477086Y-11264984D02*
X8496134Y-11274508D01*
X8496134Y-11274508D02*
X8505658Y-11284031D01*
X8505658Y-11284031D02*
X8515182Y-11303079D01*
X8515182Y-11303079D02*
X8524705Y-11341174D01*
X8524705Y-11341174D02*
X8524705Y-11388793D01*
X8524705Y-11388793D02*
X8515182Y-11426888D01*
X8515182Y-11426888D02*
X8505658Y-11445936D01*
X8505658Y-11445936D02*
X8496134Y-11455460D01*
X8496134Y-11455460D02*
X8477086Y-11464984D01*
X8477086Y-11464984D02*
X8458039Y-11464984D01*
X8458039Y-11464984D02*
X8438991Y-11455460D01*
X8438991Y-11455460D02*
X8429467Y-11445936D01*
X8429467Y-11445936D02*
X8419944Y-11426888D01*
X8419944Y-11426888D02*
X8410420Y-11388793D01*
X8410420Y-11388793D02*
X8410420Y-11341174D01*
X8410420Y-11341174D02*
X8419944Y-11303079D01*
X8419944Y-11303079D02*
X8429467Y-11284031D01*
X8429467Y-11284031D02*
X8438991Y-11274508D01*
X8438991Y-11274508D02*
X8458039Y-11264984D01*
X8610420Y-11464984D02*
X8610420Y-11331650D01*
X8610420Y-11350698D02*
X8619944Y-11341174D01*
X8619944Y-11341174D02*
X8638991Y-11331650D01*
X8638991Y-11331650D02*
X8667563Y-11331650D01*
X8667563Y-11331650D02*
X8686610Y-11341174D01*
X8686610Y-11341174D02*
X8696134Y-11360222D01*
X8696134Y-11360222D02*
X8696134Y-11464984D01*
X8696134Y-11360222D02*
X8705658Y-11341174D01*
X8705658Y-11341174D02*
X8724705Y-11331650D01*
X8724705Y-11331650D02*
X8753277Y-11331650D01*
X8753277Y-11331650D02*
X8772325Y-11341174D01*
X8772325Y-11341174D02*
X8781848Y-11360222D01*
X8781848Y-11360222D02*
X8781848Y-11464984D01*
X8877086Y-11464984D02*
X8877086Y-11331650D01*
X8877086Y-11350698D02*
X8886610Y-11341174D01*
X8886610Y-11341174D02*
X8905658Y-11331650D01*
X8905658Y-11331650D02*
X8934229Y-11331650D01*
X8934229Y-11331650D02*
X8953277Y-11341174D01*
X8953277Y-11341174D02*
X8962801Y-11360222D01*
X8962801Y-11360222D02*
X8962801Y-11464984D01*
X8962801Y-11360222D02*
X8972325Y-11341174D01*
X8972325Y-11341174D02*
X8991372Y-11331650D01*
X8991372Y-11331650D02*
X9019944Y-11331650D01*
X9019944Y-11331650D02*
X9038991Y-11341174D01*
X9038991Y-11341174D02*
X9048515Y-11360222D01*
X9048515Y-11360222D02*
X9048515Y-11464984D01*
X9438991Y-11255460D02*
X9267563Y-11512603D01*
X9696134Y-11264984D02*
X9715182Y-11264984D01*
X9715182Y-11264984D02*
X9734229Y-11274508D01*
X9734229Y-11274508D02*
X9743753Y-11284031D01*
X9743753Y-11284031D02*
X9753277Y-11303079D01*
X9753277Y-11303079D02*
X9762801Y-11341174D01*
X9762801Y-11341174D02*
X9762801Y-11388793D01*
X9762801Y-11388793D02*
X9753277Y-11426888D01*
X9753277Y-11426888D02*
X9743753Y-11445936D01*
X9743753Y-11445936D02*
X9734229Y-11455460D01*
X9734229Y-11455460D02*
X9715182Y-11464984D01*
X9715182Y-11464984D02*
X9696134Y-11464984D01*
X9696134Y-11464984D02*
X9677087Y-11455460D01*
X9677087Y-11455460D02*
X9667563Y-11445936D01*
X9667563Y-11445936D02*
X9658039Y-11426888D01*
X9658039Y-11426888D02*
X9648515Y-11388793D01*
X9648515Y-11388793D02*
X9648515Y-11341174D01*
X9648515Y-11341174D02*
X9658039Y-11303079D01*
X9658039Y-11303079D02*
X9667563Y-11284031D01*
X9667563Y-11284031D02*
X9677087Y-11274508D01*
X9677087Y-11274508D02*
X9696134Y-11264984D01*
X9848515Y-11445936D02*
X9858039Y-11455460D01*
X9858039Y-11455460D02*
X9848515Y-11464984D01*
X9848515Y-11464984D02*
X9838991Y-11455460D01*
X9838991Y-11455460D02*
X9848515Y-11445936D01*
X9848515Y-11445936D02*
X9848515Y-11464984D01*
X10048515Y-11464984D02*
X9934229Y-11464984D01*
X9991372Y-11464984D02*
X9991372Y-11264984D01*
X9991372Y-11264984D02*
X9972325Y-11293555D01*
X9972325Y-11293555D02*
X9953277Y-11312603D01*
X9953277Y-11312603D02*
X9934229Y-11322127D01*
X10238991Y-11464984D02*
X10124706Y-11464984D01*
X10181848Y-11464984D02*
X10181848Y-11264984D01*
X10181848Y-11264984D02*
X10162801Y-11293555D01*
X10162801Y-11293555D02*
X10143753Y-11312603D01*
X10143753Y-11312603D02*
X10124706Y-11322127D01*
X10353277Y-11350698D02*
X10334229Y-11341174D01*
X10334229Y-11341174D02*
X10324706Y-11331650D01*
X10324706Y-11331650D02*
X10315182Y-11312603D01*
X10315182Y-11312603D02*
X10315182Y-11303079D01*
X10315182Y-11303079D02*
X10324706Y-11284031D01*
X10324706Y-11284031D02*
X10334229Y-11274508D01*
X10334229Y-11274508D02*
X10353277Y-11264984D01*
X10353277Y-11264984D02*
X10391372Y-11264984D01*
X10391372Y-11264984D02*
X10410420Y-11274508D01*
X10410420Y-11274508D02*
X10419944Y-11284031D01*
X10419944Y-11284031D02*
X10429468Y-11303079D01*
X10429468Y-11303079D02*
X10429468Y-11312603D01*
X10429468Y-11312603D02*
X10419944Y-11331650D01*
X10419944Y-11331650D02*
X10410420Y-11341174D01*
X10410420Y-11341174D02*
X10391372Y-11350698D01*
X10391372Y-11350698D02*
X10353277Y-11350698D01*
X10353277Y-11350698D02*
X10334229Y-11360222D01*
X10334229Y-11360222D02*
X10324706Y-11369746D01*
X10324706Y-11369746D02*
X10315182Y-11388793D01*
X10315182Y-11388793D02*
X10315182Y-11426888D01*
X10315182Y-11426888D02*
X10324706Y-11445936D01*
X10324706Y-11445936D02*
X10334229Y-11455460D01*
X10334229Y-11455460D02*
X10353277Y-11464984D01*
X10353277Y-11464984D02*
X10391372Y-11464984D01*
X10391372Y-11464984D02*
X10410420Y-11455460D01*
X10410420Y-11455460D02*
X10419944Y-11445936D01*
X10419944Y-11445936D02*
X10429468Y-11426888D01*
X10429468Y-11426888D02*
X10429468Y-11388793D01*
X10429468Y-11388793D02*
X10419944Y-11369746D01*
X10419944Y-11369746D02*
X10410420Y-11360222D01*
X10410420Y-11360222D02*
X10391372Y-11350698D01*
X10619944Y-11464984D02*
X10505658Y-11464984D01*
X10562801Y-11464984D02*
X10562801Y-11264984D01*
X10562801Y-11264984D02*
X10543753Y-11293555D01*
X10543753Y-11293555D02*
X10524706Y-11312603D01*
X10524706Y-11312603D02*
X10505658Y-11322127D01*
X10696134Y-11264984D02*
X10696134Y-11303079D01*
X10772325Y-11264984D02*
X10772325Y-11303079D01*
X11067563Y-11541174D02*
X11058039Y-11531650D01*
X11058039Y-11531650D02*
X11038991Y-11503079D01*
X11038991Y-11503079D02*
X11029468Y-11484031D01*
X11029468Y-11484031D02*
X11019944Y-11455460D01*
X11019944Y-11455460D02*
X11010420Y-11407841D01*
X11010420Y-11407841D02*
X11010420Y-11369746D01*
X11010420Y-11369746D02*
X11019944Y-11322127D01*
X11019944Y-11322127D02*
X11029468Y-11293555D01*
X11029468Y-11293555D02*
X11038991Y-11274508D01*
X11038991Y-11274508D02*
X11058039Y-11245936D01*
X11058039Y-11245936D02*
X11067563Y-11236412D01*
X11248515Y-11464984D02*
X11134230Y-11464984D01*
X11191372Y-11464984D02*
X11191372Y-11264984D01*
X11191372Y-11264984D02*
X11172325Y-11293555D01*
X11172325Y-11293555D02*
X11153277Y-11312603D01*
X11153277Y-11312603D02*
X11134230Y-11322127D01*
X11486610Y-11464984D02*
X11486610Y-11264984D01*
X11572325Y-11464984D02*
X11572325Y-11360222D01*
X11572325Y-11360222D02*
X11562801Y-11341174D01*
X11562801Y-11341174D02*
X11543753Y-11331650D01*
X11543753Y-11331650D02*
X11515182Y-11331650D01*
X11515182Y-11331650D02*
X11496134Y-11341174D01*
X11496134Y-11341174D02*
X11486610Y-11350698D01*
X11696134Y-11464984D02*
X11677087Y-11455460D01*
X11677087Y-11455460D02*
X11667563Y-11445936D01*
X11667563Y-11445936D02*
X11658039Y-11426888D01*
X11658039Y-11426888D02*
X11658039Y-11369746D01*
X11658039Y-11369746D02*
X11667563Y-11350698D01*
X11667563Y-11350698D02*
X11677087Y-11341174D01*
X11677087Y-11341174D02*
X11696134Y-11331650D01*
X11696134Y-11331650D02*
X11724706Y-11331650D01*
X11724706Y-11331650D02*
X11743753Y-11341174D01*
X11743753Y-11341174D02*
X11753277Y-11350698D01*
X11753277Y-11350698D02*
X11762801Y-11369746D01*
X11762801Y-11369746D02*
X11762801Y-11426888D01*
X11762801Y-11426888D02*
X11753277Y-11445936D01*
X11753277Y-11445936D02*
X11743753Y-11455460D01*
X11743753Y-11455460D02*
X11724706Y-11464984D01*
X11724706Y-11464984D02*
X11696134Y-11464984D01*
X11877087Y-11464984D02*
X11858039Y-11455460D01*
X11858039Y-11455460D02*
X11848515Y-11436412D01*
X11848515Y-11436412D02*
X11848515Y-11264984D01*
X12029468Y-11455460D02*
X12010420Y-11464984D01*
X12010420Y-11464984D02*
X11972325Y-11464984D01*
X11972325Y-11464984D02*
X11953277Y-11455460D01*
X11953277Y-11455460D02*
X11943753Y-11436412D01*
X11943753Y-11436412D02*
X11943753Y-11360222D01*
X11943753Y-11360222D02*
X11953277Y-11341174D01*
X11953277Y-11341174D02*
X11972325Y-11331650D01*
X11972325Y-11331650D02*
X12010420Y-11331650D01*
X12010420Y-11331650D02*
X12029468Y-11341174D01*
X12029468Y-11341174D02*
X12038991Y-11360222D01*
X12038991Y-11360222D02*
X12038991Y-11379269D01*
X12038991Y-11379269D02*
X11943753Y-11398317D01*
X12105658Y-11541174D02*
X12115182Y-11531650D01*
X12115182Y-11531650D02*
X12134230Y-11503079D01*
X12134230Y-11503079D02*
X12143753Y-11484031D01*
X12143753Y-11484031D02*
X12153277Y-11455460D01*
X12153277Y-11455460D02*
X12162801Y-11407841D01*
X12162801Y-11407841D02*
X12162801Y-11369746D01*
X12162801Y-11369746D02*
X12153277Y-11322127D01*
X12153277Y-11322127D02*
X12143753Y-11293555D01*
X12143753Y-11293555D02*
X12134230Y-11274508D01*
X12134230Y-11274508D02*
X12115182Y-11245936D01*
X12115182Y-11245936D02*
X12105658Y-11236412D01*
M02*
