M48
; DRILL file {KiCad 8.0.1} date 2024-07-26T02:51:32+0800
; FORMAT={-:-/ absolute / metric / decimal}
; #@! TF.CreationDate,2024-07-26T02:51:32+08:00
; #@! TF.GenerationSoftware,Kicad,Pcbnew,8.0.1
; #@! TF.FileFunction,Plated,1,2,PTH
FMAT,2
METRIC
; #@! TA.AperFunction,Plated,PTH,ViaDrill
T1C0.300
; #@! TA.AperFunction,Plated,PTH,ComponentDrill
T2C0.650
; #@! TA.AperFunction,Plated,PTH,ComponentDrill
T3C0.900
; #@! TA.AperFunction,Plated,PTH,ComponentDrill
T4C1.000
; #@! TA.AperFunction,Plated,PTH,ComponentDrill
T5C1.500
; #@! TA.AperFunction,Plated,PTH,ComponentDrill
T6C3.000
%
G90
G05
T1
X76.45Y-68.4
X76.65Y-92.35
X77.65Y-92.35
X83.3Y-72.4
X83.4Y-88.95
X84.65Y-73.65
X85.55Y-74.55
X86.9Y-76.0
X87.1Y-73.55
X89.3Y-73.35
X89.65Y-78.35
X91.95Y-77.65
X92.25Y-93.05
X92.95Y-77.65
X93.8Y-92.25
X93.95Y-77.65
X94.6Y-90.85
T2
X84.375Y-92.3
X85.645Y-92.3
X86.915Y-92.3
T3
X78.45Y-78.45
X78.45Y-80.45
X78.45Y-82.45
T4
X76.35Y-70.8
X76.39Y-90.1
X81.35Y-68.3
X81.35Y-73.3
X81.39Y-87.6
X81.39Y-92.6
T5
X78.45Y-76.35
X78.45Y-84.55
T6
X91.95Y-70.7
M30
