G04 #@! TF.GenerationSoftware,KiCad,Pcbnew,8.0.1*
G04 #@! TF.CreationDate,2024-07-26T02:50:49+08:00*
G04 #@! TF.ProjectId,555Sandbox,35353553-616e-4646-926f-782e6b696361,1.0.0*
G04 #@! TF.SameCoordinates,Original*
G04 #@! TF.FileFunction,Copper,L2,Bot*
G04 #@! TF.FilePolarity,Positive*
%FSLAX46Y46*%
G04 Gerber Fmt 4.6, Leading zero omitted, Abs format (unit mm)*
G04 Created by KiCad (PCBNEW 8.0.1) date 2024-07-26 02:50:49*
%MOMM*%
%LPD*%
G01*
G04 APERTURE LIST*
G04 #@! TA.AperFunction,ComponentPad*
%ADD10O,1.000000X1.000000*%
G04 #@! TD*
G04 #@! TA.AperFunction,ComponentPad*
%ADD11R,1.000000X1.000000*%
G04 #@! TD*
G04 #@! TA.AperFunction,ComponentPad*
%ADD12O,3.500000X2.200000*%
G04 #@! TD*
G04 #@! TA.AperFunction,ComponentPad*
%ADD13R,2.500000X1.500000*%
G04 #@! TD*
G04 #@! TA.AperFunction,ComponentPad*
%ADD14O,2.500000X1.500000*%
G04 #@! TD*
G04 #@! TA.AperFunction,ComponentPad*
%ADD15R,1.560000X1.560000*%
G04 #@! TD*
G04 #@! TA.AperFunction,ComponentPad*
%ADD16C,1.560000*%
G04 #@! TD*
G04 #@! TA.AperFunction,ComponentPad*
%ADD17C,6.000000*%
G04 #@! TD*
G04 #@! TA.AperFunction,SMDPad,CuDef*
%ADD18R,3.300000X3.500000*%
G04 #@! TD*
G04 #@! TA.AperFunction,SMDPad,CuDef*
%ADD19C,10.200000*%
G04 #@! TD*
G04 #@! TA.AperFunction,ViaPad*
%ADD20C,0.600000*%
G04 #@! TD*
G04 #@! TA.AperFunction,Conductor*
%ADD21C,0.500000*%
G04 #@! TD*
G04 #@! TA.AperFunction,Conductor*
%ADD22C,1.000000*%
G04 #@! TD*
G04 APERTURE END LIST*
D10*
X86915000Y-92300000D03*
X85645000Y-92300000D03*
D11*
X84375000Y-92300000D03*
D12*
X78450000Y-76350000D03*
X78450000Y-84550000D03*
D13*
X78450000Y-78450000D03*
D14*
X78450000Y-80450000D03*
X78450000Y-82450000D03*
D15*
X81350000Y-68300000D03*
D16*
X76350000Y-70800000D03*
X81350000Y-73300000D03*
D17*
X91950000Y-70700000D03*
D15*
X81390000Y-87600000D03*
D16*
X76390000Y-90100000D03*
X81390000Y-92600000D03*
D18*
X89595000Y-76000000D03*
X89595000Y-91800000D03*
D19*
X89595000Y-83900000D03*
D20*
X84650000Y-73650000D03*
X94600000Y-90850000D03*
X87100000Y-73550000D03*
X92950000Y-77650000D03*
X86900000Y-76000000D03*
X76450000Y-68400000D03*
X91950000Y-77650000D03*
X83400000Y-88950000D03*
X77650000Y-92350000D03*
X93950000Y-77650000D03*
X92250000Y-93050000D03*
X76650000Y-92350000D03*
X89300000Y-73350000D03*
X89650000Y-78350000D03*
X85550000Y-74550000D03*
X93800000Y-92250000D03*
X83300000Y-72400000D03*
D21*
X81390000Y-87600000D02*
X81390000Y-88440000D01*
X81390000Y-88440000D02*
X84375000Y-91425000D01*
X84375000Y-91425000D02*
X84375000Y-92300000D01*
D22*
X89500000Y-76000000D02*
X86950000Y-78550000D01*
X86950000Y-78550000D02*
X78550000Y-78550000D01*
X78550000Y-78550000D02*
X78450000Y-78450000D01*
X87223235Y-89823235D02*
X83795000Y-86395000D01*
X83795000Y-86395000D02*
X83795000Y-78550000D01*
X87223235Y-89823235D02*
X87950000Y-90550000D01*
X87950000Y-90550000D02*
X89150000Y-90550000D01*
G04 #@! TA.AperFunction,Conductor*
G36*
X80013039Y-67420185D02*
G01*
X80058794Y-67472989D01*
X80070000Y-67524500D01*
X80070000Y-67900000D01*
X81042894Y-67900000D01*
X80949901Y-67992993D01*
X80884075Y-68107007D01*
X80850000Y-68234174D01*
X80850000Y-68365826D01*
X80884075Y-68492993D01*
X80949901Y-68607007D01*
X81042993Y-68700099D01*
X81157007Y-68765925D01*
X81284174Y-68800000D01*
X81415826Y-68800000D01*
X81542993Y-68765925D01*
X81657007Y-68700099D01*
X81657106Y-68700000D01*
X81750000Y-68700000D01*
X81750000Y-69580000D01*
X82177828Y-69580000D01*
X82177844Y-69579999D01*
X82237372Y-69573598D01*
X82237379Y-69573596D01*
X82372086Y-69523354D01*
X82372093Y-69523350D01*
X82487187Y-69437190D01*
X82487190Y-69437187D01*
X82573350Y-69322093D01*
X82573354Y-69322086D01*
X82623596Y-69187379D01*
X82623598Y-69187372D01*
X82629999Y-69127844D01*
X82630000Y-69127827D01*
X82630000Y-68700000D01*
X81750000Y-68700000D01*
X81657106Y-68700000D01*
X81750099Y-68607007D01*
X81815925Y-68492993D01*
X81850000Y-68365826D01*
X81850000Y-68234174D01*
X81815925Y-68107007D01*
X81750099Y-67992993D01*
X81657106Y-67900000D01*
X82630000Y-67900000D01*
X82630000Y-67524500D01*
X82649685Y-67457461D01*
X82702489Y-67411706D01*
X82754000Y-67400500D01*
X90806168Y-67400500D01*
X90873207Y-67420185D01*
X90918962Y-67472989D01*
X90928906Y-67542147D01*
X90899881Y-67605703D01*
X90845762Y-67642008D01*
X90745099Y-67675926D01*
X90745096Y-67675927D01*
X90745088Y-67675930D01*
X90425210Y-67823921D01*
X90425197Y-67823928D01*
X90123184Y-68005644D01*
X89842589Y-68218946D01*
X89842580Y-68218954D01*
X89586685Y-68461350D01*
X89358505Y-68729983D01*
X89358498Y-68729993D01*
X89160695Y-69021730D01*
X88995597Y-69333137D01*
X88995588Y-69333155D01*
X88865127Y-69660589D01*
X88865126Y-69660591D01*
X88770834Y-70000203D01*
X88770833Y-70000206D01*
X88713808Y-70348045D01*
X88694726Y-70699997D01*
X88694726Y-70700002D01*
X88713808Y-71051954D01*
X88770833Y-71399793D01*
X88770834Y-71399796D01*
X88865126Y-71739408D01*
X88865127Y-71739410D01*
X88995588Y-72066844D01*
X88995597Y-72066862D01*
X89160695Y-72378269D01*
X89358498Y-72670006D01*
X89358505Y-72670016D01*
X89586685Y-72938649D01*
X89586686Y-72938650D01*
X89842580Y-73181046D01*
X90123182Y-73394354D01*
X90425202Y-73576074D01*
X90425206Y-73576075D01*
X90425210Y-73576078D01*
X90684986Y-73696263D01*
X90745099Y-73724074D01*
X90845762Y-73757991D01*
X90903006Y-73798051D01*
X90929506Y-73862701D01*
X90916846Y-73931414D01*
X90869047Y-73982375D01*
X90806168Y-73999500D01*
X87920323Y-73999500D01*
X87847264Y-74014032D01*
X87847260Y-74014033D01*
X87764399Y-74069399D01*
X87709033Y-74152260D01*
X87709032Y-74152264D01*
X87694500Y-74225321D01*
X87694500Y-76692770D01*
X87674815Y-76759809D01*
X87658181Y-76780451D01*
X86675451Y-77763181D01*
X86614128Y-77796666D01*
X86587770Y-77799500D01*
X80074500Y-77799500D01*
X80007461Y-77779815D01*
X79961706Y-77727011D01*
X79951766Y-77681320D01*
X79951097Y-77681386D01*
X79950531Y-77675645D01*
X79950500Y-77675500D01*
X79950500Y-77675323D01*
X79950499Y-77675321D01*
X79935967Y-77602264D01*
X79935966Y-77602261D01*
X79935966Y-77602260D01*
X79935964Y-77602258D01*
X79935964Y-77602256D01*
X79916597Y-77573271D01*
X79895719Y-77506594D01*
X79914204Y-77439214D01*
X79946812Y-77404064D01*
X79979792Y-77380104D01*
X80130104Y-77229792D01*
X80130106Y-77229788D01*
X80130109Y-77229786D01*
X80255048Y-77057820D01*
X80255047Y-77057820D01*
X80255051Y-77057816D01*
X80351557Y-76868412D01*
X80417246Y-76666243D01*
X80450500Y-76456287D01*
X80450500Y-76243713D01*
X80417246Y-76033757D01*
X80351557Y-75831588D01*
X80255051Y-75642184D01*
X80255049Y-75642181D01*
X80255048Y-75642179D01*
X80130109Y-75470213D01*
X79979786Y-75319890D01*
X79807820Y-75194951D01*
X79618414Y-75098444D01*
X79618413Y-75098443D01*
X79618412Y-75098443D01*
X79416243Y-75032754D01*
X79416241Y-75032753D01*
X79416240Y-75032753D01*
X79254957Y-75007208D01*
X79206287Y-74999500D01*
X77693713Y-74999500D01*
X77645042Y-75007208D01*
X77483760Y-75032753D01*
X77281585Y-75098444D01*
X77092179Y-75194951D01*
X76920213Y-75319890D01*
X76769890Y-75470213D01*
X76644951Y-75642179D01*
X76548444Y-75831585D01*
X76482753Y-76033760D01*
X76449500Y-76243713D01*
X76449500Y-76456286D01*
X76482753Y-76666239D01*
X76548444Y-76868414D01*
X76644951Y-77057820D01*
X76769890Y-77229786D01*
X76769896Y-77229792D01*
X76920208Y-77380104D01*
X76920209Y-77380105D01*
X76920208Y-77380105D01*
X76941987Y-77395927D01*
X76953183Y-77404062D01*
X76995850Y-77459390D01*
X77001831Y-77529004D01*
X76983404Y-77573270D01*
X76964033Y-77602261D01*
X76964032Y-77602264D01*
X76949500Y-77675321D01*
X76949500Y-79224678D01*
X76964032Y-79297735D01*
X76964033Y-79297739D01*
X76979031Y-79320185D01*
X77019399Y-79380601D01*
X77085100Y-79424500D01*
X77102260Y-79435966D01*
X77102264Y-79435967D01*
X77175321Y-79450499D01*
X77175324Y-79450500D01*
X77175326Y-79450500D01*
X77236608Y-79450500D01*
X77303647Y-79470185D01*
X77349402Y-79522989D01*
X77359346Y-79592147D01*
X77330321Y-79655703D01*
X77315275Y-79670352D01*
X77312212Y-79672865D01*
X77172863Y-79812214D01*
X77172860Y-79812218D01*
X77063371Y-79976079D01*
X77063364Y-79976092D01*
X76987950Y-80158160D01*
X76987947Y-80158170D01*
X76949500Y-80351456D01*
X76949500Y-80351459D01*
X76949500Y-80548541D01*
X76949500Y-80548543D01*
X76949499Y-80548543D01*
X76987947Y-80741829D01*
X76987950Y-80741839D01*
X77063364Y-80923907D01*
X77063371Y-80923920D01*
X77172860Y-81087781D01*
X77172863Y-81087785D01*
X77312214Y-81227136D01*
X77312218Y-81227139D01*
X77476079Y-81336628D01*
X77481456Y-81339502D01*
X77480490Y-81341308D01*
X77527612Y-81379285D01*
X77549673Y-81445580D01*
X77532391Y-81513279D01*
X77481251Y-81560887D01*
X77477660Y-81562526D01*
X77476079Y-81563371D01*
X77312218Y-81672860D01*
X77312214Y-81672863D01*
X77172863Y-81812214D01*
X77172860Y-81812218D01*
X77063371Y-81976079D01*
X77063364Y-81976092D01*
X76987950Y-82158160D01*
X76987947Y-82158170D01*
X76949500Y-82351456D01*
X76949500Y-82351459D01*
X76949500Y-82548541D01*
X76949500Y-82548543D01*
X76949499Y-82548543D01*
X76987947Y-82741829D01*
X76987950Y-82741839D01*
X77063364Y-82923907D01*
X77063371Y-82923920D01*
X77172860Y-83087781D01*
X77172863Y-83087785D01*
X77228431Y-83143353D01*
X77261916Y-83204676D01*
X77256932Y-83274368D01*
X77215060Y-83330301D01*
X77197045Y-83341518D01*
X77092185Y-83394947D01*
X77092184Y-83394948D01*
X76920213Y-83519890D01*
X76769890Y-83670213D01*
X76644951Y-83842179D01*
X76548444Y-84031585D01*
X76482753Y-84233760D01*
X76449500Y-84443713D01*
X76449500Y-84656286D01*
X76482753Y-84866239D01*
X76548444Y-85068414D01*
X76644951Y-85257820D01*
X76769890Y-85429786D01*
X76920213Y-85580109D01*
X77092179Y-85705048D01*
X77092181Y-85705049D01*
X77092184Y-85705051D01*
X77281588Y-85801557D01*
X77483757Y-85867246D01*
X77693713Y-85900500D01*
X77693714Y-85900500D01*
X79206286Y-85900500D01*
X79206287Y-85900500D01*
X79416243Y-85867246D01*
X79618412Y-85801557D01*
X79807816Y-85705051D01*
X79829789Y-85689086D01*
X79979786Y-85580109D01*
X79979788Y-85580106D01*
X79979792Y-85580104D01*
X80130104Y-85429792D01*
X80130106Y-85429788D01*
X80130109Y-85429786D01*
X80255048Y-85257820D01*
X80255047Y-85257820D01*
X80255051Y-85257816D01*
X80351557Y-85068412D01*
X80417246Y-84866243D01*
X80450500Y-84656287D01*
X80450500Y-84443713D01*
X80417246Y-84233757D01*
X80351557Y-84031588D01*
X80255051Y-83842184D01*
X80255049Y-83842181D01*
X80255048Y-83842179D01*
X80130109Y-83670213D01*
X79979786Y-83519890D01*
X79807819Y-83394951D01*
X79807818Y-83394950D01*
X79807816Y-83394949D01*
X79702954Y-83341519D01*
X79652158Y-83293544D01*
X79635363Y-83225723D01*
X79657901Y-83159588D01*
X79671562Y-83143358D01*
X79727139Y-83087782D01*
X79836632Y-82923914D01*
X79912051Y-82741835D01*
X79950500Y-82548541D01*
X79950500Y-82351459D01*
X79950500Y-82351456D01*
X79912052Y-82158170D01*
X79912051Y-82158169D01*
X79912051Y-82158165D01*
X79912049Y-82158160D01*
X79836635Y-81976092D01*
X79836628Y-81976079D01*
X79727139Y-81812218D01*
X79727136Y-81812214D01*
X79587785Y-81672863D01*
X79587781Y-81672860D01*
X79423920Y-81563371D01*
X79418544Y-81560498D01*
X79419510Y-81558689D01*
X79372397Y-81520728D01*
X79350326Y-81454436D01*
X79367600Y-81386735D01*
X79418734Y-81339121D01*
X79422331Y-81337477D01*
X79423907Y-81336634D01*
X79423914Y-81336632D01*
X79587782Y-81227139D01*
X79727139Y-81087782D01*
X79836632Y-80923914D01*
X79912051Y-80741835D01*
X79950500Y-80548541D01*
X79950500Y-80351459D01*
X79950500Y-80351456D01*
X79912052Y-80158170D01*
X79912051Y-80158169D01*
X79912051Y-80158165D01*
X79912049Y-80158160D01*
X79836635Y-79976092D01*
X79836628Y-79976079D01*
X79727139Y-79812218D01*
X79727136Y-79812214D01*
X79587787Y-79672865D01*
X79584725Y-79670352D01*
X79583552Y-79668630D01*
X79583475Y-79668553D01*
X79583489Y-79668538D01*
X79545392Y-79612605D01*
X79543523Y-79542761D01*
X79579711Y-79482993D01*
X79642468Y-79452278D01*
X79663392Y-79450500D01*
X79724676Y-79450500D01*
X79724677Y-79450499D01*
X79797740Y-79435966D01*
X79880601Y-79380601D01*
X79897300Y-79355609D01*
X79950912Y-79310804D01*
X80000402Y-79300500D01*
X82920500Y-79300500D01*
X82987539Y-79320185D01*
X83033294Y-79372989D01*
X83044500Y-79424500D01*
X83044500Y-86468918D01*
X83044500Y-86468920D01*
X83044499Y-86468920D01*
X83073340Y-86613907D01*
X83073343Y-86613917D01*
X83129914Y-86750492D01*
X83159870Y-86795324D01*
X83159871Y-86795327D01*
X83212046Y-86873414D01*
X83212052Y-86873421D01*
X86635942Y-90297309D01*
X86635963Y-90297332D01*
X87471584Y-91132952D01*
X87471589Y-91132956D01*
X87531332Y-91172874D01*
X87531333Y-91172874D01*
X87594505Y-91215084D01*
X87594506Y-91215084D01*
X87594507Y-91215085D01*
X87617950Y-91224795D01*
X87672355Y-91268635D01*
X87694421Y-91334929D01*
X87694500Y-91339357D01*
X87694500Y-93425500D01*
X87674815Y-93492539D01*
X87622011Y-93538294D01*
X87570500Y-93549500D01*
X82525946Y-93549500D01*
X82458907Y-93529815D01*
X82413152Y-93477011D01*
X82403208Y-93407853D01*
X82424371Y-93354376D01*
X82502746Y-93242444D01*
X82597399Y-93039459D01*
X82597403Y-93039450D01*
X82655367Y-92823124D01*
X82655369Y-92823113D01*
X82674889Y-92600002D01*
X82674889Y-92599997D01*
X82655369Y-92376886D01*
X82655367Y-92376875D01*
X82597403Y-92160549D01*
X82597400Y-92160540D01*
X82533079Y-92022604D01*
X81890000Y-92665683D01*
X81890000Y-92534174D01*
X81855925Y-92407007D01*
X81790099Y-92292993D01*
X81697007Y-92199901D01*
X81582993Y-92134075D01*
X81455826Y-92100000D01*
X81324174Y-92100000D01*
X81197007Y-92134075D01*
X81082993Y-92199901D01*
X80989901Y-92292993D01*
X80924075Y-92407007D01*
X80890000Y-92534174D01*
X80890000Y-92665685D01*
X80246920Y-92022605D01*
X80182600Y-92160540D01*
X80182596Y-92160549D01*
X80124632Y-92376875D01*
X80124630Y-92376886D01*
X80105111Y-92599997D01*
X80105111Y-92600002D01*
X80124630Y-92823113D01*
X80124632Y-92823124D01*
X80182596Y-93039450D01*
X80182600Y-93039459D01*
X80277253Y-93242444D01*
X80355629Y-93354376D01*
X80377956Y-93420582D01*
X80360946Y-93488350D01*
X80309998Y-93536163D01*
X80254054Y-93549500D01*
X76904875Y-93549500D01*
X76895146Y-93549118D01*
X76682975Y-93532419D01*
X76663757Y-93529375D01*
X76461569Y-93480834D01*
X76443063Y-93474821D01*
X76250955Y-93395247D01*
X76233618Y-93386413D01*
X76056327Y-93277769D01*
X76040585Y-93266332D01*
X75882469Y-93131288D01*
X75868711Y-93117530D01*
X75733667Y-92959414D01*
X75722230Y-92943672D01*
X75613586Y-92766381D01*
X75604752Y-92749044D01*
X75570282Y-92665826D01*
X75525176Y-92556930D01*
X75519167Y-92538437D01*
X75470623Y-92336237D01*
X75467580Y-92317024D01*
X75466240Y-92300002D01*
X75450882Y-92104853D01*
X75450500Y-92095124D01*
X75450500Y-91456920D01*
X80812605Y-91456920D01*
X81390000Y-92034315D01*
X81390001Y-92034315D01*
X81967395Y-91456918D01*
X81829452Y-91392597D01*
X81613124Y-91334632D01*
X81613113Y-91334630D01*
X81390002Y-91315111D01*
X81389998Y-91315111D01*
X81166886Y-91334630D01*
X81166875Y-91334632D01*
X80950549Y-91392596D01*
X80950540Y-91392600D01*
X80812605Y-91456920D01*
X75450500Y-91456920D01*
X75450500Y-90924247D01*
X75470185Y-90857208D01*
X75522989Y-90811453D01*
X75592147Y-90801509D01*
X75653165Y-90828394D01*
X75814713Y-90960974D01*
X75814720Y-90960978D01*
X75993732Y-91056662D01*
X75993734Y-91056662D01*
X75993737Y-91056664D01*
X76187987Y-91115589D01*
X76187986Y-91115589D01*
X76206099Y-91117372D01*
X76390000Y-91135486D01*
X76592013Y-91115589D01*
X76786263Y-91056664D01*
X76965285Y-90960975D01*
X77122199Y-90832199D01*
X77250975Y-90675285D01*
X77346664Y-90496263D01*
X77405589Y-90302013D01*
X77425486Y-90100000D01*
X77405589Y-89897987D01*
X77346664Y-89703737D01*
X77346662Y-89703734D01*
X77346662Y-89703732D01*
X77250978Y-89524720D01*
X77250974Y-89524713D01*
X77122199Y-89367800D01*
X76965286Y-89239025D01*
X76965279Y-89239021D01*
X76786267Y-89143337D01*
X76689138Y-89113873D01*
X76592013Y-89084411D01*
X76592011Y-89084410D01*
X76592013Y-89084410D01*
X76390000Y-89064514D01*
X76187988Y-89084410D01*
X75993732Y-89143337D01*
X75814720Y-89239021D01*
X75814713Y-89239026D01*
X75653165Y-89371605D01*
X75588855Y-89398918D01*
X75519987Y-89387127D01*
X75468427Y-89339975D01*
X75450500Y-89275752D01*
X75450500Y-88404678D01*
X80359500Y-88404678D01*
X80374032Y-88477735D01*
X80374033Y-88477739D01*
X80374034Y-88477740D01*
X80429399Y-88560601D01*
X80508638Y-88613546D01*
X80512260Y-88615966D01*
X80512264Y-88615967D01*
X80585321Y-88630499D01*
X80585324Y-88630500D01*
X80585326Y-88630500D01*
X80850466Y-88630500D01*
X80917505Y-88650185D01*
X80957853Y-88692500D01*
X80989500Y-88747314D01*
X80989502Y-88747316D01*
X83690311Y-91448125D01*
X83723796Y-91509448D01*
X83718812Y-91579140D01*
X83699981Y-91608439D01*
X83701185Y-91609244D01*
X83694400Y-91619398D01*
X83694399Y-91619399D01*
X83683931Y-91635066D01*
X83639033Y-91702260D01*
X83639032Y-91702264D01*
X83624500Y-91775321D01*
X83624500Y-92824678D01*
X83639032Y-92897735D01*
X83639033Y-92897739D01*
X83653992Y-92920127D01*
X83694399Y-92980601D01*
X83777260Y-93035966D01*
X83777264Y-93035967D01*
X83850321Y-93050499D01*
X83850324Y-93050500D01*
X83850326Y-93050500D01*
X84899676Y-93050500D01*
X84899677Y-93050499D01*
X84972740Y-93035966D01*
X85055601Y-92980601D01*
X85066070Y-92964932D01*
X85119677Y-92920127D01*
X85189001Y-92911417D01*
X85235145Y-92928828D01*
X85317307Y-92980454D01*
X85317305Y-92980454D01*
X85317309Y-92980455D01*
X85317310Y-92980456D01*
X85373447Y-93000099D01*
X85476943Y-93036314D01*
X85644997Y-93055249D01*
X85645000Y-93055249D01*
X85645003Y-93055249D01*
X85813056Y-93036314D01*
X85814051Y-93035966D01*
X85972690Y-92980456D01*
X85972692Y-92980454D01*
X85972694Y-92980454D01*
X85972697Y-92980452D01*
X86115884Y-92890481D01*
X86115885Y-92890480D01*
X86115890Y-92890477D01*
X86235477Y-92770890D01*
X86238310Y-92766381D01*
X86325452Y-92627697D01*
X86325454Y-92627694D01*
X86325454Y-92627692D01*
X86325456Y-92627690D01*
X86381313Y-92468059D01*
X86381313Y-92468058D01*
X86381314Y-92468056D01*
X86400249Y-92300002D01*
X86400249Y-92299997D01*
X86381314Y-92131943D01*
X86343055Y-92022605D01*
X86325456Y-91972310D01*
X86325455Y-91972309D01*
X86325454Y-91972305D01*
X86325452Y-91972302D01*
X86235481Y-91829115D01*
X86235476Y-91829109D01*
X86115890Y-91709523D01*
X86115884Y-91709518D01*
X85972697Y-91619547D01*
X85972694Y-91619545D01*
X85813056Y-91563685D01*
X85645003Y-91544751D01*
X85644997Y-91544751D01*
X85476943Y-91563685D01*
X85317307Y-91619545D01*
X85235144Y-91671172D01*
X85167907Y-91690172D01*
X85101072Y-91669804D01*
X85066071Y-91635069D01*
X85055601Y-91619399D01*
X84972740Y-91564034D01*
X84972739Y-91564033D01*
X84961456Y-91559360D01*
X84962157Y-91557665D01*
X84913396Y-91532157D01*
X84878823Y-91471441D01*
X84875500Y-91442927D01*
X84875500Y-91359110D01*
X84875500Y-91359108D01*
X84841392Y-91231814D01*
X84775500Y-91117686D01*
X84682314Y-91024500D01*
X82369612Y-88711798D01*
X82336127Y-88650475D01*
X82341111Y-88580783D01*
X82354186Y-88555234D01*
X82405966Y-88477740D01*
X82420500Y-88404674D01*
X82420500Y-86795326D01*
X82420500Y-86795324D01*
X82420500Y-86795323D01*
X82420499Y-86795321D01*
X82405967Y-86722264D01*
X82405966Y-86722260D01*
X82350601Y-86639399D01*
X82267740Y-86584034D01*
X82267739Y-86584033D01*
X82267735Y-86584032D01*
X82194677Y-86569500D01*
X82194674Y-86569500D01*
X80585326Y-86569500D01*
X80585323Y-86569500D01*
X80512264Y-86584032D01*
X80512260Y-86584033D01*
X80429399Y-86639399D01*
X80374033Y-86722260D01*
X80374032Y-86722264D01*
X80359500Y-86795321D01*
X80359500Y-88404678D01*
X75450500Y-88404678D01*
X75450500Y-73300000D01*
X80314514Y-73300000D01*
X80334410Y-73502011D01*
X80393337Y-73696267D01*
X80489021Y-73875279D01*
X80489025Y-73875286D01*
X80617800Y-74032199D01*
X80774713Y-74160974D01*
X80774720Y-74160978D01*
X80953732Y-74256662D01*
X80953734Y-74256662D01*
X80953737Y-74256664D01*
X81147987Y-74315589D01*
X81147986Y-74315589D01*
X81166099Y-74317372D01*
X81350000Y-74335486D01*
X81552013Y-74315589D01*
X81746263Y-74256664D01*
X81925285Y-74160975D01*
X82082199Y-74032199D01*
X82210975Y-73875285D01*
X82291801Y-73724070D01*
X82306662Y-73696267D01*
X82306662Y-73696266D01*
X82306664Y-73696263D01*
X82365589Y-73502013D01*
X82385486Y-73300000D01*
X82365589Y-73097987D01*
X82306664Y-72903737D01*
X82306662Y-72903734D01*
X82306662Y-72903732D01*
X82210978Y-72724720D01*
X82210974Y-72724713D01*
X82082199Y-72567800D01*
X81925286Y-72439025D01*
X81925279Y-72439021D01*
X81746267Y-72343337D01*
X81649138Y-72313873D01*
X81552013Y-72284411D01*
X81552011Y-72284410D01*
X81552013Y-72284410D01*
X81350000Y-72264514D01*
X81147988Y-72284410D01*
X80953732Y-72343337D01*
X80774720Y-72439021D01*
X80774713Y-72439025D01*
X80617800Y-72567800D01*
X80489025Y-72724713D01*
X80489021Y-72724720D01*
X80393337Y-72903732D01*
X80334410Y-73097988D01*
X80314514Y-73300000D01*
X75450500Y-73300000D01*
X75450500Y-71657075D01*
X75470185Y-71590036D01*
X75522989Y-71544281D01*
X75592147Y-71534337D01*
X75653165Y-71561222D01*
X75774713Y-71660974D01*
X75774720Y-71660978D01*
X75953732Y-71756662D01*
X75953734Y-71756662D01*
X75953737Y-71756664D01*
X76147987Y-71815589D01*
X76147986Y-71815589D01*
X76166099Y-71817372D01*
X76350000Y-71835486D01*
X76552013Y-71815589D01*
X76746263Y-71756664D01*
X76925285Y-71660975D01*
X77082199Y-71532199D01*
X77210975Y-71375285D01*
X77306664Y-71196263D01*
X77365589Y-71002013D01*
X77385486Y-70800000D01*
X77365589Y-70597987D01*
X77306664Y-70403737D01*
X77306662Y-70403734D01*
X77306662Y-70403732D01*
X77210978Y-70224720D01*
X77210974Y-70224713D01*
X77082199Y-70067800D01*
X76925286Y-69939025D01*
X76925279Y-69939021D01*
X76746267Y-69843337D01*
X76649138Y-69813873D01*
X76552013Y-69784411D01*
X76552011Y-69784410D01*
X76552013Y-69784410D01*
X76350000Y-69764514D01*
X76147988Y-69784410D01*
X75953732Y-69843337D01*
X75774720Y-69939021D01*
X75774714Y-69939025D01*
X75653164Y-70038778D01*
X75588854Y-70066090D01*
X75519987Y-70054299D01*
X75468427Y-70007146D01*
X75450500Y-69942924D01*
X75450500Y-68854875D01*
X75450882Y-68845146D01*
X75459945Y-68729992D01*
X75462305Y-68700000D01*
X80070000Y-68700000D01*
X80070000Y-69127844D01*
X80076401Y-69187372D01*
X80076403Y-69187379D01*
X80126645Y-69322086D01*
X80126649Y-69322093D01*
X80212809Y-69437187D01*
X80212812Y-69437190D01*
X80327906Y-69523350D01*
X80327913Y-69523354D01*
X80462620Y-69573596D01*
X80462627Y-69573598D01*
X80522155Y-69579999D01*
X80522172Y-69580000D01*
X80950000Y-69580000D01*
X80950000Y-68700000D01*
X80070000Y-68700000D01*
X75462305Y-68700000D01*
X75467580Y-68632969D01*
X75470622Y-68613764D01*
X75519168Y-68411558D01*
X75525174Y-68393073D01*
X75604753Y-68200951D01*
X75613586Y-68183618D01*
X75652795Y-68119636D01*
X75722231Y-68006324D01*
X75733667Y-67990585D01*
X75748381Y-67973357D01*
X75868715Y-67832464D01*
X75882464Y-67818715D01*
X76040587Y-67683665D01*
X76056327Y-67672230D01*
X76233621Y-67563584D01*
X76250951Y-67554753D01*
X76443073Y-67475174D01*
X76461558Y-67469168D01*
X76663764Y-67420622D01*
X76682969Y-67417580D01*
X76895146Y-67400881D01*
X76904875Y-67400500D01*
X76965892Y-67400500D01*
X79946000Y-67400500D01*
X80013039Y-67420185D01*
G37*
G04 #@! TD.AperFunction*
G04 #@! TA.AperFunction,Conductor*
G36*
X95123614Y-71899369D02*
G01*
X95171913Y-71949856D01*
X95185791Y-72006821D01*
X95191325Y-90483207D01*
X95191344Y-90545852D01*
X95191176Y-90552344D01*
X95175339Y-90856207D01*
X95173986Y-90869118D01*
X95126975Y-91166455D01*
X95124279Y-91179154D01*
X95046440Y-91469945D01*
X95042431Y-91482292D01*
X94934621Y-91763343D01*
X94929344Y-91775203D01*
X94792736Y-92043453D01*
X94786247Y-92054697D01*
X94622350Y-92307184D01*
X94614722Y-92317688D01*
X94425319Y-92551665D01*
X94416634Y-92561314D01*
X94203804Y-92774209D01*
X94194158Y-92782896D01*
X93960251Y-92972364D01*
X93949750Y-92979996D01*
X93697303Y-93143980D01*
X93686061Y-93150472D01*
X93417858Y-93287161D01*
X93405999Y-93292442D01*
X93124983Y-93400340D01*
X93112637Y-93404353D01*
X92821870Y-93482282D01*
X92809172Y-93484982D01*
X92511849Y-93532086D01*
X92498939Y-93533443D01*
X92195939Y-93549330D01*
X92189446Y-93549500D01*
X91619500Y-93549500D01*
X91552461Y-93529815D01*
X91506706Y-93477011D01*
X91495500Y-93425500D01*
X91495500Y-90025323D01*
X91495499Y-90025321D01*
X91480967Y-89952264D01*
X91480966Y-89952260D01*
X91444703Y-89897988D01*
X91425601Y-89869399D01*
X91342740Y-89814034D01*
X91342739Y-89814033D01*
X91342735Y-89814032D01*
X91269677Y-89799500D01*
X91269674Y-89799500D01*
X89223918Y-89799500D01*
X88312230Y-89799500D01*
X88245191Y-89779815D01*
X88224549Y-89763181D01*
X87697332Y-89235963D01*
X87697309Y-89235942D01*
X84581819Y-86120451D01*
X84548334Y-86059128D01*
X84545500Y-86032770D01*
X84545500Y-79424500D01*
X84565185Y-79357461D01*
X84617989Y-79311706D01*
X84669500Y-79300500D01*
X87023920Y-79300500D01*
X87121462Y-79281096D01*
X87168913Y-79271658D01*
X87305495Y-79215084D01*
X87354729Y-79182186D01*
X87428416Y-79132952D01*
X88524549Y-78036819D01*
X88585872Y-78003334D01*
X88612230Y-78000500D01*
X91269676Y-78000500D01*
X91269677Y-78000499D01*
X91342740Y-77985966D01*
X91425601Y-77930601D01*
X91480966Y-77847740D01*
X91495500Y-77774674D01*
X91495500Y-74225326D01*
X91495500Y-74225323D01*
X91495499Y-74225321D01*
X91480967Y-74152264D01*
X91480966Y-74152262D01*
X91480966Y-74152260D01*
X91460236Y-74121235D01*
X91439359Y-74054559D01*
X91457844Y-73987179D01*
X91509822Y-73940489D01*
X91576745Y-73929073D01*
X91773763Y-73950500D01*
X91773769Y-73950500D01*
X92126231Y-73950500D01*
X92126237Y-73950500D01*
X92476645Y-73912391D01*
X92820878Y-73836619D01*
X93154901Y-73724074D01*
X93154908Y-73724070D01*
X93154911Y-73724070D01*
X93474789Y-73576078D01*
X93474798Y-73576074D01*
X93776818Y-73394354D01*
X94057420Y-73181046D01*
X94313314Y-72938650D01*
X94541501Y-72670008D01*
X94739305Y-72378269D01*
X94904407Y-72066854D01*
X94946599Y-71960958D01*
X94989697Y-71905969D01*
X95055686Y-71883008D01*
X95123614Y-71899369D01*
G37*
G04 #@! TD.AperFunction*
G04 #@! TA.AperFunction,Conductor*
G36*
X81416357Y-93111488D02*
G01*
X81346665Y-93106504D01*
X81336545Y-93100000D01*
X81437396Y-93100000D01*
X81416357Y-93111488D01*
G37*
G04 #@! TD.AperFunction*
M02*
