G04 #@! TF.GenerationSoftware,KiCad,Pcbnew,8.0.1*
G04 #@! TF.CreationDate,2024-07-04T15:13:31+08:00*
G04 #@! TF.ProjectId,555Sandbox,35353553-616e-4646-926f-782e6b696361,1.0.0*
G04 #@! TF.SameCoordinates,Original*
G04 #@! TF.FileFunction,Copper,L1,Top*
G04 #@! TF.FilePolarity,Positive*
%FSLAX46Y46*%
G04 Gerber Fmt 4.6, Leading zero omitted, Abs format (unit mm)*
G04 Created by KiCad (PCBNEW 8.0.1) date 2024-07-04 15:13:31*
%MOMM*%
%LPD*%
G01*
G04 APERTURE LIST*
G04 Aperture macros list*
%AMRoundRect*
0 Rectangle with rounded corners*
0 $1 Rounding radius*
0 $2 $3 $4 $5 $6 $7 $8 $9 X,Y pos of 4 corners*
0 Add a 4 corners polygon primitive as box body*
4,1,4,$2,$3,$4,$5,$6,$7,$8,$9,$2,$3,0*
0 Add four circle primitives for the rounded corners*
1,1,$1+$1,$2,$3*
1,1,$1+$1,$4,$5*
1,1,$1+$1,$6,$7*
1,1,$1+$1,$8,$9*
0 Add four rect primitives between the rounded corners*
20,1,$1+$1,$2,$3,$4,$5,0*
20,1,$1+$1,$4,$5,$6,$7,0*
20,1,$1+$1,$6,$7,$8,$9,0*
20,1,$1+$1,$8,$9,$2,$3,0*%
G04 Aperture macros list end*
G04 #@! TA.AperFunction,SMDPad,CuDef*
%ADD10RoundRect,0.150000X0.825000X0.150000X-0.825000X0.150000X-0.825000X-0.150000X0.825000X-0.150000X0*%
G04 #@! TD*
G04 #@! TA.AperFunction,SMDPad,CuDef*
%ADD11RoundRect,0.243750X-0.243750X-0.456250X0.243750X-0.456250X0.243750X0.456250X-0.243750X0.456250X0*%
G04 #@! TD*
G04 #@! TA.AperFunction,SMDPad,CuDef*
%ADD12RoundRect,0.250000X-1.250000X-0.550000X1.250000X-0.550000X1.250000X0.550000X-1.250000X0.550000X0*%
G04 #@! TD*
G04 #@! TA.AperFunction,SMDPad,CuDef*
%ADD13RoundRect,0.200000X-0.275000X0.200000X-0.275000X-0.200000X0.275000X-0.200000X0.275000X0.200000X0*%
G04 #@! TD*
G04 #@! TA.AperFunction,SMDPad,CuDef*
%ADD14RoundRect,0.225000X-0.225000X-0.250000X0.225000X-0.250000X0.225000X0.250000X-0.225000X0.250000X0*%
G04 #@! TD*
G04 #@! TA.AperFunction,SMDPad,CuDef*
%ADD15RoundRect,0.200000X0.275000X-0.200000X0.275000X0.200000X-0.275000X0.200000X-0.275000X-0.200000X0*%
G04 #@! TD*
G04 #@! TA.AperFunction,SMDPad,CuDef*
%ADD16RoundRect,0.225000X0.250000X-0.225000X0.250000X0.225000X-0.250000X0.225000X-0.250000X-0.225000X0*%
G04 #@! TD*
G04 #@! TA.AperFunction,SMDPad,CuDef*
%ADD17RoundRect,0.225000X-0.250000X0.225000X-0.250000X-0.225000X0.250000X-0.225000X0.250000X0.225000X0*%
G04 #@! TD*
G04 #@! TA.AperFunction,SMDPad,CuDef*
%ADD18RoundRect,0.112500X-0.112500X0.187500X-0.112500X-0.187500X0.112500X-0.187500X0.112500X0.187500X0*%
G04 #@! TD*
G04 #@! TA.AperFunction,ComponentPad*
%ADD19R,1.560000X1.560000*%
G04 #@! TD*
G04 #@! TA.AperFunction,ComponentPad*
%ADD20C,1.560000*%
G04 #@! TD*
G04 #@! TA.AperFunction,ComponentPad*
%ADD21C,5.000000*%
G04 #@! TD*
G04 #@! TA.AperFunction,ComponentPad*
%ADD22C,3.000000*%
G04 #@! TD*
G04 #@! TA.AperFunction,ViaPad*
%ADD23C,0.600000*%
G04 #@! TD*
G04 #@! TA.AperFunction,Conductor*
%ADD24C,0.500000*%
G04 #@! TD*
G04 #@! TA.AperFunction,Conductor*
%ADD25C,1.000000*%
G04 #@! TD*
G04 APERTURE END LIST*
D10*
X94300000Y-85470000D03*
X94300000Y-84200000D03*
X94300000Y-82930000D03*
X94300000Y-81660000D03*
X89350000Y-81660000D03*
X89350000Y-82930000D03*
X89350000Y-84200000D03*
X89350000Y-85470000D03*
D11*
X93437500Y-79850000D03*
X95312500Y-79850000D03*
D12*
X85850000Y-73650000D03*
X90250000Y-73650000D03*
D13*
X87125000Y-89075000D03*
X87125000Y-90725000D03*
D14*
X93400000Y-78150000D03*
X94950000Y-78150000D03*
D15*
X88825000Y-88600000D03*
X88825000Y-86950000D03*
D16*
X87100000Y-81175000D03*
X87100000Y-79625000D03*
D17*
X90300000Y-86975000D03*
X90300000Y-88525000D03*
D18*
X87125000Y-82450000D03*
X87125000Y-84550000D03*
X87125000Y-85750000D03*
X87125000Y-87850000D03*
D19*
X81350000Y-73400000D03*
D20*
X76350000Y-75900000D03*
X81350000Y-78400000D03*
D21*
X93600000Y-69950000D03*
D19*
X81350000Y-85100000D03*
D20*
X76350000Y-87600000D03*
X81350000Y-90100000D03*
D22*
X90350000Y-78000000D03*
X90350000Y-91200000D03*
D23*
X95750000Y-86750000D03*
X94000000Y-76450000D03*
X95500000Y-76450000D03*
X94250000Y-88250000D03*
X95500000Y-74950000D03*
X95750000Y-88250000D03*
D24*
X88825000Y-88525000D02*
X90350000Y-87000000D01*
D25*
X92910000Y-81660000D02*
X94300000Y-81660000D01*
D24*
X88825000Y-88600000D02*
X88825000Y-89675000D01*
X88825000Y-88625000D02*
X88825000Y-88525000D01*
X90275000Y-86395000D02*
X89350000Y-85470000D01*
D25*
X90350000Y-78000000D02*
X90350000Y-79100000D01*
D24*
X90275000Y-86975000D02*
X90275000Y-86395000D01*
X88825000Y-89675000D02*
X90350000Y-91200000D01*
X90225000Y-77500000D02*
X90125000Y-77400000D01*
X90225000Y-77500000D02*
X90192743Y-77467743D01*
D25*
X90350000Y-79100000D02*
X92910000Y-81660000D01*
D24*
X87193502Y-81175000D02*
X86925000Y-81175000D01*
X89350000Y-81660000D02*
X87678502Y-81660000D01*
X87678502Y-81660000D02*
X87193502Y-81175000D01*
X90095000Y-82930000D02*
X91271342Y-81753658D01*
X83450000Y-73932316D02*
X93717684Y-84200000D01*
X81890000Y-73900000D02*
X81490000Y-73500000D01*
X89350000Y-82930000D02*
X90095000Y-82930000D01*
X86050000Y-74200000D02*
X85750000Y-73900000D01*
X93717684Y-84200000D02*
X94300000Y-84200000D01*
X85750000Y-73900000D02*
X81890000Y-73900000D01*
X87125000Y-84550000D02*
X87125000Y-85750000D01*
X88825000Y-86975000D02*
X88825000Y-86950000D01*
X89350000Y-84200000D02*
X87475000Y-84200000D01*
X88825000Y-86950000D02*
X88475000Y-86950000D01*
X88475000Y-86950000D02*
X87275000Y-85750000D01*
X87275000Y-85750000D02*
X87125000Y-85750000D01*
X87475000Y-84200000D02*
X87125000Y-84550000D01*
D25*
X83900000Y-85100000D02*
X81350000Y-85100000D01*
X87125000Y-82450000D02*
X86550000Y-82450000D01*
X86550000Y-82450000D02*
X83900000Y-85100000D01*
D24*
X87125000Y-87850000D02*
X87125000Y-89075000D01*
X95725000Y-80000000D02*
X95725000Y-82125000D01*
X95575000Y-79850000D02*
X95725000Y-80000000D01*
X95725000Y-82125000D02*
X94920000Y-82930000D01*
X94920000Y-82930000D02*
X94300000Y-82930000D01*
X93400000Y-78150000D02*
X93400000Y-79550000D01*
D25*
X81975000Y-90725000D02*
X87125000Y-90725000D01*
X81350000Y-90100000D02*
X81975000Y-90725000D01*
G04 #@! TA.AperFunction,Conductor*
G36*
X92122977Y-67420185D02*
G01*
X92168732Y-67472989D01*
X92178676Y-67542147D01*
X92149651Y-67605703D01*
X92120091Y-67630614D01*
X92067126Y-67662632D01*
X92034673Y-67682251D01*
X91772744Y-67887460D01*
X91537460Y-68122744D01*
X91332251Y-68384673D01*
X91160101Y-68669445D01*
X91160100Y-68669447D01*
X91023536Y-68972880D01*
X91023530Y-68972895D01*
X90924546Y-69290550D01*
X90864563Y-69617863D01*
X90844473Y-69950000D01*
X90864563Y-70282136D01*
X90864563Y-70282141D01*
X90864564Y-70282142D01*
X90924544Y-70609441D01*
X90924545Y-70609445D01*
X90924546Y-70609449D01*
X91023530Y-70927104D01*
X91023534Y-70927116D01*
X91023537Y-70927123D01*
X91160102Y-71230557D01*
X91230616Y-71347201D01*
X91332251Y-71515326D01*
X91537460Y-71777255D01*
X91772744Y-72012539D01*
X92034673Y-72217748D01*
X92034678Y-72217751D01*
X92034682Y-72217754D01*
X92319443Y-72389898D01*
X92622877Y-72526463D01*
X92622890Y-72526467D01*
X92622895Y-72526469D01*
X92834665Y-72592458D01*
X92940559Y-72625456D01*
X93267858Y-72685436D01*
X93600000Y-72705527D01*
X93932142Y-72685436D01*
X94259441Y-72625456D01*
X94577123Y-72526463D01*
X94880557Y-72389898D01*
X95165318Y-72217754D01*
X95427252Y-72012542D01*
X95662542Y-71777252D01*
X95867754Y-71515318D01*
X95969385Y-71347198D01*
X96020911Y-71300014D01*
X96089770Y-71288175D01*
X96154099Y-71315444D01*
X96193473Y-71373162D01*
X96199500Y-71411351D01*
X96199500Y-79055729D01*
X96179815Y-79122768D01*
X96127011Y-79168523D01*
X96057853Y-79178467D01*
X95994297Y-79149442D01*
X95976233Y-79130040D01*
X95970789Y-79122768D01*
X95909331Y-79040669D01*
X95840117Y-78988856D01*
X95795556Y-78955498D01*
X95795554Y-78955497D01*
X95662391Y-78905829D01*
X95662389Y-78905828D01*
X95662387Y-78905828D01*
X95603529Y-78899500D01*
X95021482Y-78899500D01*
X95021473Y-78899501D01*
X94962608Y-78905828D01*
X94829445Y-78955497D01*
X94715669Y-79040669D01*
X94630498Y-79154443D01*
X94630497Y-79154446D01*
X94590764Y-79260974D01*
X94580828Y-79287612D01*
X94574500Y-79346462D01*
X94574500Y-80353517D01*
X94574501Y-80353526D01*
X94580828Y-80412391D01*
X94624088Y-80528372D01*
X94630497Y-80545554D01*
X94715669Y-80659331D01*
X94829446Y-80744503D01*
X94962609Y-80794171D01*
X95021479Y-80800500D01*
X95100500Y-80800499D01*
X95167538Y-80820183D01*
X95213294Y-80872986D01*
X95224500Y-80924499D01*
X95224500Y-80985500D01*
X95204815Y-81052539D01*
X95152011Y-81098294D01*
X95100500Y-81109500D01*
X94862230Y-81109500D01*
X94795191Y-81089815D01*
X94783531Y-81080419D01*
X94783126Y-81080914D01*
X94778415Y-81077048D01*
X94655501Y-80994919D01*
X94655488Y-80994912D01*
X94518917Y-80938343D01*
X94518907Y-80938340D01*
X94373920Y-80909500D01*
X94373918Y-80909500D01*
X94072704Y-80909500D01*
X94005665Y-80889815D01*
X93959910Y-80837011D01*
X93949966Y-80767853D01*
X93978991Y-80704297D01*
X93998394Y-80686233D01*
X94000025Y-80685011D01*
X94034331Y-80659331D01*
X94119503Y-80545554D01*
X94169171Y-80412391D01*
X94171536Y-80390383D01*
X94175499Y-80353537D01*
X94175499Y-80353526D01*
X94175500Y-80353521D01*
X94175499Y-79346480D01*
X94169171Y-79287609D01*
X94119503Y-79154446D01*
X94034331Y-79040669D01*
X93965117Y-78988856D01*
X93950189Y-78977681D01*
X93908318Y-78921747D01*
X93900500Y-78878414D01*
X93900500Y-78849807D01*
X93920185Y-78782768D01*
X93950190Y-78750539D01*
X93964687Y-78739687D01*
X94046628Y-78630226D01*
X94094412Y-78502114D01*
X94096687Y-78480944D01*
X94100499Y-78445501D01*
X94100499Y-78445490D01*
X94100500Y-78445485D01*
X94100499Y-77854516D01*
X94094412Y-77797886D01*
X94046628Y-77669774D01*
X93964687Y-77560313D01*
X93898911Y-77511074D01*
X93855228Y-77478373D01*
X93855226Y-77478372D01*
X93727114Y-77430588D01*
X93727112Y-77430587D01*
X93727110Y-77430587D01*
X93670493Y-77424500D01*
X93129518Y-77424500D01*
X93129509Y-77424501D01*
X93072885Y-77430587D01*
X92944773Y-77478372D01*
X92835313Y-77560313D01*
X92753373Y-77669771D01*
X92705587Y-77797889D01*
X92699500Y-77854498D01*
X92699500Y-78445481D01*
X92699501Y-78445490D01*
X92705587Y-78502114D01*
X92742848Y-78602011D01*
X92753372Y-78630226D01*
X92835313Y-78739687D01*
X92835314Y-78739687D01*
X92835314Y-78739688D01*
X92849810Y-78750539D01*
X92891681Y-78806472D01*
X92899500Y-78849807D01*
X92899500Y-78934558D01*
X92879815Y-79001597D01*
X92849812Y-79033824D01*
X92840667Y-79040669D01*
X92755499Y-79154441D01*
X92755497Y-79154445D01*
X92755497Y-79154446D01*
X92715763Y-79260975D01*
X92705828Y-79287612D01*
X92699500Y-79346462D01*
X92699500Y-80088770D01*
X92679815Y-80155809D01*
X92627011Y-80201564D01*
X92557853Y-80211508D01*
X92494297Y-80182483D01*
X92487819Y-80176451D01*
X91656839Y-79345471D01*
X91623354Y-79284148D01*
X91628338Y-79214456D01*
X91647570Y-79180481D01*
X91800386Y-78988857D01*
X91931568Y-78761643D01*
X92027420Y-78517416D01*
X92085802Y-78261630D01*
X92090571Y-78197988D01*
X92105408Y-78000004D01*
X92105408Y-77999995D01*
X92085803Y-77738379D01*
X92085802Y-77738374D01*
X92085802Y-77738370D01*
X92027420Y-77482584D01*
X91931568Y-77238357D01*
X91800386Y-77011143D01*
X91636805Y-76806019D01*
X91636804Y-76806018D01*
X91636801Y-76806014D01*
X91444479Y-76627567D01*
X91227704Y-76479772D01*
X91227700Y-76479770D01*
X91227697Y-76479768D01*
X91227696Y-76479767D01*
X90991325Y-76365938D01*
X90991327Y-76365938D01*
X90740623Y-76288606D01*
X90740619Y-76288605D01*
X90740615Y-76288604D01*
X90615823Y-76269794D01*
X90481187Y-76249500D01*
X90481182Y-76249500D01*
X90218818Y-76249500D01*
X90218812Y-76249500D01*
X90057247Y-76273853D01*
X89959385Y-76288604D01*
X89959382Y-76288605D01*
X89959376Y-76288606D01*
X89708673Y-76365938D01*
X89472303Y-76479767D01*
X89472302Y-76479768D01*
X89255520Y-76627567D01*
X89063198Y-76806014D01*
X88899614Y-77011143D01*
X88768432Y-77238356D01*
X88672582Y-77482578D01*
X88672576Y-77482597D01*
X88614197Y-77738374D01*
X88614196Y-77738379D01*
X88594592Y-77999995D01*
X88594592Y-78000006D01*
X88599517Y-78065739D01*
X88584897Y-78134062D01*
X88535659Y-78183634D01*
X88467437Y-78198717D01*
X88401890Y-78174522D01*
X88388183Y-78162685D01*
X85137678Y-74912180D01*
X85104193Y-74850857D01*
X85109177Y-74781165D01*
X85151049Y-74725232D01*
X85216513Y-74700815D01*
X85225359Y-74700499D01*
X85974105Y-74700499D01*
X85974117Y-74700500D01*
X85984107Y-74700500D01*
X86130326Y-74700500D01*
X86130334Y-74700499D01*
X87147871Y-74700499D01*
X87147872Y-74700499D01*
X87207483Y-74694091D01*
X87342331Y-74643796D01*
X87457546Y-74557546D01*
X87543796Y-74442331D01*
X87594091Y-74307483D01*
X87600500Y-74247873D01*
X87600499Y-73052128D01*
X87594091Y-72992517D01*
X87543796Y-72857669D01*
X87543795Y-72857668D01*
X87543793Y-72857664D01*
X87457547Y-72742455D01*
X87457544Y-72742452D01*
X87342335Y-72656206D01*
X87342328Y-72656202D01*
X87207482Y-72605908D01*
X87207483Y-72605908D01*
X87147883Y-72599501D01*
X87147881Y-72599500D01*
X87147873Y-72599500D01*
X87147864Y-72599500D01*
X84552129Y-72599500D01*
X84552123Y-72599501D01*
X84492516Y-72605908D01*
X84357671Y-72656202D01*
X84357664Y-72656206D01*
X84242455Y-72742452D01*
X84242452Y-72742455D01*
X84156206Y-72857664D01*
X84156202Y-72857671D01*
X84105908Y-72992517D01*
X84099501Y-73052116D01*
X84099501Y-73052123D01*
X84099500Y-73052135D01*
X84099500Y-73275500D01*
X84079815Y-73342539D01*
X84027011Y-73388294D01*
X83975500Y-73399500D01*
X82504500Y-73399500D01*
X82437461Y-73379815D01*
X82391706Y-73327011D01*
X82380500Y-73275500D01*
X82380500Y-72595323D01*
X82380499Y-72595321D01*
X82365967Y-72522264D01*
X82365966Y-72522260D01*
X82310601Y-72439399D01*
X82236518Y-72389899D01*
X82227739Y-72384033D01*
X82227735Y-72384032D01*
X82154677Y-72369500D01*
X82154674Y-72369500D01*
X80545326Y-72369500D01*
X80545323Y-72369500D01*
X80472264Y-72384032D01*
X80472260Y-72384033D01*
X80389399Y-72439399D01*
X80334033Y-72522260D01*
X80334032Y-72522264D01*
X80319500Y-72595321D01*
X80319500Y-74204678D01*
X80334032Y-74277735D01*
X80334033Y-74277739D01*
X80334034Y-74277740D01*
X80389399Y-74360601D01*
X80449143Y-74400520D01*
X80472260Y-74415966D01*
X80472264Y-74415967D01*
X80545321Y-74430499D01*
X80545324Y-74430500D01*
X80545326Y-74430500D01*
X82154676Y-74430500D01*
X82227740Y-74415966D01*
X82239023Y-74411293D01*
X82240499Y-74414858D01*
X82286276Y-74400520D01*
X82288501Y-74400500D01*
X83159008Y-74400500D01*
X83226047Y-74420185D01*
X83246689Y-74436819D01*
X89707689Y-80897819D01*
X89741174Y-80959142D01*
X89736190Y-81028834D01*
X89694318Y-81084767D01*
X89628854Y-81109184D01*
X89620008Y-81109500D01*
X88493482Y-81109500D01*
X88399694Y-81124354D01*
X88357243Y-81145985D01*
X88300948Y-81159500D01*
X87949499Y-81159500D01*
X87882460Y-81139815D01*
X87836705Y-81087011D01*
X87825499Y-81035500D01*
X87825499Y-80904518D01*
X87825498Y-80904509D01*
X87819412Y-80847885D01*
X87789561Y-80767853D01*
X87771628Y-80719774D01*
X87689687Y-80610313D01*
X87623911Y-80561074D01*
X87580228Y-80528373D01*
X87580226Y-80528372D01*
X87452114Y-80480588D01*
X87452112Y-80480587D01*
X87452110Y-80480587D01*
X87395493Y-80474500D01*
X86804518Y-80474500D01*
X86804509Y-80474501D01*
X86747885Y-80480587D01*
X86619773Y-80528372D01*
X86510313Y-80610313D01*
X86428373Y-80719771D01*
X86380587Y-80847889D01*
X86374500Y-80904498D01*
X86374500Y-81445481D01*
X86374501Y-81445490D01*
X86380588Y-81502116D01*
X86405237Y-81568201D01*
X86410222Y-81637892D01*
X86376738Y-81699216D01*
X86336509Y-81726096D01*
X86194506Y-81784915D01*
X86145461Y-81817686D01*
X86145460Y-81817685D01*
X86071585Y-81867046D01*
X86071578Y-81867052D01*
X83625451Y-84313181D01*
X83564128Y-84346666D01*
X83537770Y-84349500D01*
X82493040Y-84349500D01*
X82426001Y-84329815D01*
X82380246Y-84277011D01*
X82371423Y-84249691D01*
X82365967Y-84222263D01*
X82365966Y-84222260D01*
X82310601Y-84139399D01*
X82227740Y-84084034D01*
X82227739Y-84084033D01*
X82227735Y-84084032D01*
X82154677Y-84069500D01*
X82154674Y-84069500D01*
X80545326Y-84069500D01*
X80545323Y-84069500D01*
X80472264Y-84084032D01*
X80472260Y-84084033D01*
X80389399Y-84139399D01*
X80334033Y-84222260D01*
X80334032Y-84222264D01*
X80319500Y-84295321D01*
X80319500Y-85904678D01*
X80334032Y-85977735D01*
X80334033Y-85977739D01*
X80334034Y-85977740D01*
X80389399Y-86060601D01*
X80472260Y-86115966D01*
X80472264Y-86115967D01*
X80545321Y-86130499D01*
X80545324Y-86130500D01*
X80545326Y-86130500D01*
X82154676Y-86130500D01*
X82154677Y-86130499D01*
X82227740Y-86115966D01*
X82310601Y-86060601D01*
X82365966Y-85977740D01*
X82367118Y-85971948D01*
X82371423Y-85950309D01*
X82403807Y-85888398D01*
X82464523Y-85853824D01*
X82493040Y-85850500D01*
X83973920Y-85850500D01*
X84083406Y-85828721D01*
X84118913Y-85821658D01*
X84255495Y-85765084D01*
X84304729Y-85732186D01*
X84378416Y-85682952D01*
X86824549Y-83236819D01*
X86885872Y-83203334D01*
X86912230Y-83200500D01*
X87198920Y-83200500D01*
X87296462Y-83181096D01*
X87343913Y-83171658D01*
X87480495Y-83115084D01*
X87603416Y-83032951D01*
X87707951Y-82928416D01*
X87790084Y-82805495D01*
X87846658Y-82668913D01*
X87870481Y-82549152D01*
X87875500Y-82523920D01*
X87875500Y-82376079D01*
X87862095Y-82308692D01*
X87868322Y-82239101D01*
X87911184Y-82183923D01*
X87977074Y-82160678D01*
X87983712Y-82160500D01*
X88300948Y-82160500D01*
X88357242Y-82174015D01*
X88377850Y-82184515D01*
X88428646Y-82232488D01*
X88445442Y-82300309D01*
X88422905Y-82366444D01*
X88377852Y-82405484D01*
X88286658Y-82451950D01*
X88286657Y-82451951D01*
X88286652Y-82451954D01*
X88196954Y-82541652D01*
X88196951Y-82541657D01*
X88139352Y-82654698D01*
X88124500Y-82748475D01*
X88124500Y-83111517D01*
X88134025Y-83171656D01*
X88139354Y-83205304D01*
X88196950Y-83318342D01*
X88196952Y-83318344D01*
X88196954Y-83318347D01*
X88286652Y-83408045D01*
X88286654Y-83408046D01*
X88286658Y-83408050D01*
X88377851Y-83454515D01*
X88428646Y-83502489D01*
X88445441Y-83570310D01*
X88422904Y-83636444D01*
X88377855Y-83675481D01*
X88357248Y-83685982D01*
X88300948Y-83699500D01*
X87409108Y-83699500D01*
X87281812Y-83733608D01*
X87167686Y-83799500D01*
X86995009Y-83972176D01*
X86933685Y-84005660D01*
X86925209Y-84007198D01*
X86907492Y-84009779D01*
X86907488Y-84009781D01*
X86798651Y-84062988D01*
X86712988Y-84148651D01*
X86659780Y-84257488D01*
X86659780Y-84257491D01*
X86649500Y-84328051D01*
X86649500Y-84328056D01*
X86649500Y-84374480D01*
X86645275Y-84406572D01*
X86624500Y-84484106D01*
X86624500Y-85815893D01*
X86645275Y-85893429D01*
X86649500Y-85925519D01*
X86649500Y-85971949D01*
X86659779Y-86042506D01*
X86659779Y-86042507D01*
X86659780Y-86042509D01*
X86712530Y-86150410D01*
X86712989Y-86151349D01*
X86798651Y-86237011D01*
X86907488Y-86290219D01*
X86907489Y-86290219D01*
X86907491Y-86290220D01*
X86978051Y-86300500D01*
X87066323Y-86300499D01*
X87133361Y-86320183D01*
X87154004Y-86336818D01*
X88070159Y-87252972D01*
X88070180Y-87252995D01*
X88109505Y-87292319D01*
X88138866Y-87339045D01*
X88147207Y-87362882D01*
X88227850Y-87472150D01*
X88337118Y-87552793D01*
X88379845Y-87567744D01*
X88465299Y-87597646D01*
X88495730Y-87600500D01*
X88495734Y-87600500D01*
X88742324Y-87600500D01*
X88809363Y-87620185D01*
X88855118Y-87672989D01*
X88865062Y-87742147D01*
X88836037Y-87805703D01*
X88830005Y-87812181D01*
X88729005Y-87913181D01*
X88667682Y-87946666D01*
X88641324Y-87949500D01*
X88495730Y-87949500D01*
X88465300Y-87952353D01*
X88465298Y-87952353D01*
X88337119Y-87997206D01*
X88337117Y-87997207D01*
X88227850Y-88077850D01*
X88147207Y-88187117D01*
X88147206Y-88187119D01*
X88102353Y-88315298D01*
X88102353Y-88315300D01*
X88099500Y-88345730D01*
X88099500Y-88854269D01*
X88102353Y-88884699D01*
X88102353Y-88884701D01*
X88147206Y-89012880D01*
X88147207Y-89012882D01*
X88227850Y-89122150D01*
X88274134Y-89156309D01*
X88316384Y-89211954D01*
X88324500Y-89256078D01*
X88324500Y-89740891D01*
X88358608Y-89868187D01*
X88375814Y-89897988D01*
X88424500Y-89982314D01*
X88424502Y-89982316D01*
X88742659Y-90300473D01*
X88776144Y-90361796D01*
X88771160Y-90431488D01*
X88770083Y-90434020D01*
X88770127Y-90434038D01*
X88672582Y-90682578D01*
X88672576Y-90682597D01*
X88614197Y-90938374D01*
X88614196Y-90938379D01*
X88594592Y-91199995D01*
X88594592Y-91200004D01*
X88614196Y-91461620D01*
X88614197Y-91461625D01*
X88672576Y-91717402D01*
X88672578Y-91717411D01*
X88672580Y-91717416D01*
X88768432Y-91961643D01*
X88899614Y-92188857D01*
X89031736Y-92354533D01*
X89063198Y-92393985D01*
X89244753Y-92562441D01*
X89255521Y-92572433D01*
X89472296Y-92720228D01*
X89472301Y-92720230D01*
X89472302Y-92720231D01*
X89472303Y-92720232D01*
X89597843Y-92780688D01*
X89708673Y-92834061D01*
X89708674Y-92834061D01*
X89708677Y-92834063D01*
X89959385Y-92911396D01*
X90218818Y-92950500D01*
X90481182Y-92950500D01*
X90740615Y-92911396D01*
X90991323Y-92834063D01*
X91227704Y-92720228D01*
X91444479Y-92572433D01*
X91636805Y-92393981D01*
X91800386Y-92188857D01*
X91931568Y-91961643D01*
X92027420Y-91717416D01*
X92085802Y-91461630D01*
X92086924Y-91446656D01*
X92105408Y-91200004D01*
X92105408Y-91199995D01*
X92085803Y-90938379D01*
X92085802Y-90938374D01*
X92085802Y-90938370D01*
X92027420Y-90682584D01*
X91931568Y-90438357D01*
X91800386Y-90211143D01*
X91636805Y-90006019D01*
X91636804Y-90006018D01*
X91636801Y-90006014D01*
X91444479Y-89827567D01*
X91317350Y-89740892D01*
X91227704Y-89679772D01*
X91227700Y-89679770D01*
X91227697Y-89679768D01*
X91227696Y-89679767D01*
X90991325Y-89565938D01*
X90991327Y-89565938D01*
X90740623Y-89488606D01*
X90740619Y-89488605D01*
X90740615Y-89488604D01*
X90601836Y-89467686D01*
X90481187Y-89449500D01*
X90481182Y-89449500D01*
X90218818Y-89449500D01*
X90218812Y-89449500D01*
X90057247Y-89473853D01*
X89959385Y-89488604D01*
X89959382Y-89488605D01*
X89959376Y-89488606D01*
X89708686Y-89565933D01*
X89708677Y-89565937D01*
X89595631Y-89620376D01*
X89526690Y-89631727D01*
X89462556Y-89604004D01*
X89454150Y-89596336D01*
X89361819Y-89504005D01*
X89328334Y-89442682D01*
X89325500Y-89416324D01*
X89325500Y-89256078D01*
X89345185Y-89189039D01*
X89375864Y-89156310D01*
X89422150Y-89122150D01*
X89502793Y-89012882D01*
X89525219Y-88948790D01*
X89547646Y-88884701D01*
X89547646Y-88884699D01*
X89550500Y-88854269D01*
X89550500Y-88558675D01*
X89570185Y-88491636D01*
X89586815Y-88470998D01*
X90345995Y-87711817D01*
X90407318Y-87678333D01*
X90433676Y-87675499D01*
X90595481Y-87675499D01*
X90595484Y-87675499D01*
X90652114Y-87669412D01*
X90780226Y-87621628D01*
X90889687Y-87539687D01*
X90971628Y-87430226D01*
X91019412Y-87302114D01*
X91021687Y-87280944D01*
X91025499Y-87245501D01*
X91025499Y-87245494D01*
X91025500Y-87245485D01*
X91025499Y-86704516D01*
X91019412Y-86647886D01*
X91017715Y-86643337D01*
X90978097Y-86537118D01*
X90971628Y-86519774D01*
X90889687Y-86410313D01*
X90808422Y-86349479D01*
X90766552Y-86293546D01*
X90762962Y-86282317D01*
X90741392Y-86201814D01*
X90675500Y-86087686D01*
X90582314Y-85994500D01*
X90547550Y-85959736D01*
X90514065Y-85898413D01*
X90519049Y-85828721D01*
X90524747Y-85815760D01*
X90560645Y-85745306D01*
X90560647Y-85745301D01*
X90575499Y-85651524D01*
X90575500Y-85651519D01*
X90575499Y-85288482D01*
X90560646Y-85194696D01*
X90503050Y-85081658D01*
X90503046Y-85081654D01*
X90503045Y-85081652D01*
X90413347Y-84991954D01*
X90413343Y-84991951D01*
X90413342Y-84991950D01*
X90410599Y-84990552D01*
X90322147Y-84945483D01*
X90271352Y-84897509D01*
X90254557Y-84829687D01*
X90277095Y-84763553D01*
X90322145Y-84724517D01*
X90413342Y-84678050D01*
X90503050Y-84588342D01*
X90560646Y-84475304D01*
X90560646Y-84475302D01*
X90560647Y-84475301D01*
X90575499Y-84381524D01*
X90575500Y-84381519D01*
X90575499Y-84018482D01*
X90560646Y-83924696D01*
X90503050Y-83811658D01*
X90503046Y-83811654D01*
X90503045Y-83811652D01*
X90413347Y-83721954D01*
X90413343Y-83721951D01*
X90413342Y-83721950D01*
X90369282Y-83699500D01*
X90322147Y-83675483D01*
X90271352Y-83627509D01*
X90254557Y-83559687D01*
X90277095Y-83493553D01*
X90322145Y-83454517D01*
X90413342Y-83408050D01*
X90503050Y-83318342D01*
X90560646Y-83205304D01*
X90560646Y-83205299D01*
X90563660Y-83196026D01*
X90564975Y-83196453D01*
X90590501Y-83142598D01*
X90595353Y-83137459D01*
X91183664Y-82549149D01*
X91244983Y-82515667D01*
X91314675Y-82520651D01*
X91359022Y-82549152D01*
X93038181Y-84228311D01*
X93071666Y-84289634D01*
X93074500Y-84315990D01*
X93074500Y-84381516D01*
X93084649Y-84445596D01*
X93089354Y-84475304D01*
X93146950Y-84588342D01*
X93146952Y-84588344D01*
X93146954Y-84588347D01*
X93236652Y-84678045D01*
X93236654Y-84678046D01*
X93236658Y-84678050D01*
X93349694Y-84735645D01*
X93349698Y-84735647D01*
X93443475Y-84750499D01*
X93443481Y-84750500D01*
X95156518Y-84750499D01*
X95250304Y-84735646D01*
X95363342Y-84678050D01*
X95453050Y-84588342D01*
X95510646Y-84475304D01*
X95510646Y-84475302D01*
X95510647Y-84475301D01*
X95525499Y-84381524D01*
X95525500Y-84381519D01*
X95525499Y-84018482D01*
X95510646Y-83924696D01*
X95453050Y-83811658D01*
X95453046Y-83811654D01*
X95453045Y-83811652D01*
X95363347Y-83721954D01*
X95363343Y-83721951D01*
X95363342Y-83721950D01*
X95319282Y-83699500D01*
X95272147Y-83675483D01*
X95221352Y-83627509D01*
X95204557Y-83559687D01*
X95227095Y-83493553D01*
X95272145Y-83454517D01*
X95363342Y-83408050D01*
X95453050Y-83318342D01*
X95510646Y-83205304D01*
X95510646Y-83205302D01*
X95510647Y-83205301D01*
X95525499Y-83111524D01*
X95525500Y-83111519D01*
X95525499Y-83083676D01*
X95545182Y-83016639D01*
X95561813Y-82995999D01*
X95987820Y-82569993D01*
X96049142Y-82536509D01*
X96118834Y-82541493D01*
X96174767Y-82583365D01*
X96199184Y-82648829D01*
X96199500Y-82657675D01*
X96199500Y-93893038D01*
X96198720Y-93906923D01*
X96188540Y-93997264D01*
X96182362Y-94024333D01*
X96154648Y-94103537D01*
X96142600Y-94128555D01*
X96097957Y-94199604D01*
X96080644Y-94221313D01*
X96021313Y-94280644D01*
X95999604Y-94297957D01*
X95928555Y-94342600D01*
X95903537Y-94354648D01*
X95824333Y-94382362D01*
X95797264Y-94388540D01*
X95717075Y-94397576D01*
X95706921Y-94398720D01*
X95693038Y-94399500D01*
X75956929Y-94399500D01*
X75943108Y-94398727D01*
X75851596Y-94388463D01*
X75824640Y-94382340D01*
X75744255Y-94354349D01*
X75719326Y-94342406D01*
X75647138Y-94297302D01*
X75625479Y-94280137D01*
X75565073Y-94220158D01*
X75547756Y-94198622D01*
X75502143Y-94126760D01*
X75490023Y-94101916D01*
X75461461Y-94021728D01*
X75455149Y-93994831D01*
X75451372Y-93963184D01*
X75450500Y-93948500D01*
X75450500Y-90100000D01*
X80314514Y-90100000D01*
X80334410Y-90302011D01*
X80393337Y-90496267D01*
X80489021Y-90675279D01*
X80489025Y-90675286D01*
X80617800Y-90832199D01*
X80774713Y-90960974D01*
X80774720Y-90960978D01*
X80953732Y-91056662D01*
X80953734Y-91056662D01*
X80953737Y-91056664D01*
X81147987Y-91115589D01*
X81147986Y-91115589D01*
X81190759Y-91119801D01*
X81277137Y-91128309D01*
X81341924Y-91154470D01*
X81352664Y-91164031D01*
X81392048Y-91203415D01*
X81392049Y-91203416D01*
X81496584Y-91307951D01*
X81496585Y-91307952D01*
X81619498Y-91390080D01*
X81619511Y-91390087D01*
X81756082Y-91446656D01*
X81756087Y-91446658D01*
X81756091Y-91446658D01*
X81756092Y-91446659D01*
X81901079Y-91475500D01*
X81901082Y-91475500D01*
X87198920Y-91475500D01*
X87296462Y-91456096D01*
X87343913Y-91446658D01*
X87480495Y-91390084D01*
X87517582Y-91365302D01*
X87545511Y-91351366D01*
X87612882Y-91327793D01*
X87722150Y-91247150D01*
X87802793Y-91137882D01*
X87831213Y-91056662D01*
X87847646Y-91009701D01*
X87847646Y-91009699D01*
X87850500Y-90979269D01*
X87850500Y-90936810D01*
X87852883Y-90912618D01*
X87875500Y-90798920D01*
X87875500Y-90651079D01*
X87852883Y-90537380D01*
X87850500Y-90513188D01*
X87850500Y-90470730D01*
X87847646Y-90440300D01*
X87847646Y-90440298D01*
X87802793Y-90312119D01*
X87802792Y-90312117D01*
X87795335Y-90302013D01*
X87722150Y-90202850D01*
X87612882Y-90122207D01*
X87612880Y-90122206D01*
X87545516Y-90098634D01*
X87517584Y-90084697D01*
X87480495Y-90059916D01*
X87480493Y-90059915D01*
X87480491Y-90059914D01*
X87343913Y-90003342D01*
X87343907Y-90003340D01*
X87198920Y-89974500D01*
X87198918Y-89974500D01*
X82480764Y-89974500D01*
X82413725Y-89954815D01*
X82367970Y-89902011D01*
X82362103Y-89886496D01*
X82344227Y-89827567D01*
X82306664Y-89703737D01*
X82306661Y-89703733D01*
X82306661Y-89703730D01*
X82210978Y-89524720D01*
X82210974Y-89524713D01*
X82082199Y-89367800D01*
X82035249Y-89329269D01*
X86399500Y-89329269D01*
X86402353Y-89359699D01*
X86402353Y-89359701D01*
X86440140Y-89467686D01*
X86447207Y-89487882D01*
X86527850Y-89597150D01*
X86637118Y-89677793D01*
X86679845Y-89692744D01*
X86765299Y-89722646D01*
X86795730Y-89725500D01*
X86795734Y-89725500D01*
X87454270Y-89725500D01*
X87484699Y-89722646D01*
X87484701Y-89722646D01*
X87548790Y-89700219D01*
X87612882Y-89677793D01*
X87722150Y-89597150D01*
X87802793Y-89487882D01*
X87827832Y-89416324D01*
X87847646Y-89359701D01*
X87847646Y-89359699D01*
X87850500Y-89329269D01*
X87850500Y-88820730D01*
X87847646Y-88790300D01*
X87847646Y-88790298D01*
X87802793Y-88662119D01*
X87802792Y-88662117D01*
X87722150Y-88552850D01*
X87722146Y-88552847D01*
X87675866Y-88518690D01*
X87633615Y-88463042D01*
X87625500Y-88418920D01*
X87625500Y-87784110D01*
X87625500Y-87784108D01*
X87604724Y-87706570D01*
X87600499Y-87674477D01*
X87600499Y-87628049D01*
X87590220Y-87557493D01*
X87590220Y-87557491D01*
X87537012Y-87448653D01*
X87537010Y-87448651D01*
X87537010Y-87448650D01*
X87451348Y-87362988D01*
X87342511Y-87309780D01*
X87324869Y-87307210D01*
X87271949Y-87299500D01*
X87271943Y-87299500D01*
X86978049Y-87299500D01*
X86907493Y-87309779D01*
X86798650Y-87362989D01*
X86712988Y-87448651D01*
X86659780Y-87557488D01*
X86655925Y-87583951D01*
X86649500Y-87628051D01*
X86649500Y-87628056D01*
X86649500Y-87674480D01*
X86645275Y-87706572D01*
X86624500Y-87784106D01*
X86624500Y-88418920D01*
X86604815Y-88485959D01*
X86574134Y-88518690D01*
X86527853Y-88552847D01*
X86527850Y-88552850D01*
X86447207Y-88662117D01*
X86447206Y-88662119D01*
X86402353Y-88790298D01*
X86402353Y-88790300D01*
X86399500Y-88820730D01*
X86399500Y-89329269D01*
X82035249Y-89329269D01*
X81925286Y-89239025D01*
X81925279Y-89239021D01*
X81746267Y-89143337D01*
X81649138Y-89113873D01*
X81552013Y-89084411D01*
X81552011Y-89084410D01*
X81552013Y-89084410D01*
X81350000Y-89064514D01*
X81147988Y-89084410D01*
X80953732Y-89143337D01*
X80774720Y-89239021D01*
X80774713Y-89239025D01*
X80617800Y-89367800D01*
X80489025Y-89524713D01*
X80489021Y-89524720D01*
X80393337Y-89703732D01*
X80334410Y-89897988D01*
X80314514Y-90100000D01*
X75450500Y-90100000D01*
X75450500Y-88457075D01*
X75470185Y-88390036D01*
X75522989Y-88344281D01*
X75592147Y-88334337D01*
X75653165Y-88361222D01*
X75774713Y-88460974D01*
X75774720Y-88460978D01*
X75953732Y-88556662D01*
X75953734Y-88556662D01*
X75953737Y-88556664D01*
X76147987Y-88615589D01*
X76147986Y-88615589D01*
X76166099Y-88617372D01*
X76350000Y-88635486D01*
X76552013Y-88615589D01*
X76746263Y-88556664D01*
X76925285Y-88460975D01*
X77082199Y-88332199D01*
X77210975Y-88175285D01*
X77268388Y-88067871D01*
X77306662Y-87996267D01*
X77306662Y-87996266D01*
X77306664Y-87996263D01*
X77365589Y-87802013D01*
X77385486Y-87600000D01*
X77365589Y-87397987D01*
X77306664Y-87203737D01*
X77306662Y-87203734D01*
X77306662Y-87203732D01*
X77210978Y-87024720D01*
X77210974Y-87024713D01*
X77082199Y-86867800D01*
X76925286Y-86739025D01*
X76925279Y-86739021D01*
X76746267Y-86643337D01*
X76649138Y-86613873D01*
X76552013Y-86584411D01*
X76552011Y-86584410D01*
X76552013Y-86584410D01*
X76350000Y-86564514D01*
X76147988Y-86584410D01*
X75953732Y-86643337D01*
X75774720Y-86739021D01*
X75774714Y-86739025D01*
X75653164Y-86838778D01*
X75588854Y-86866090D01*
X75519987Y-86854299D01*
X75468427Y-86807146D01*
X75450500Y-86742924D01*
X75450500Y-78400000D01*
X80314514Y-78400000D01*
X80334410Y-78602011D01*
X80393337Y-78796267D01*
X80489021Y-78975279D01*
X80489025Y-78975286D01*
X80617800Y-79132199D01*
X80774713Y-79260974D01*
X80774720Y-79260978D01*
X80953732Y-79356662D01*
X80953734Y-79356662D01*
X80953737Y-79356664D01*
X81147987Y-79415589D01*
X81147986Y-79415589D01*
X81166099Y-79417372D01*
X81350000Y-79435486D01*
X81552013Y-79415589D01*
X81746263Y-79356664D01*
X81925285Y-79260975D01*
X82082199Y-79132199D01*
X82210975Y-78975285D01*
X82306664Y-78796263D01*
X82365589Y-78602013D01*
X82385486Y-78400000D01*
X82365589Y-78197987D01*
X82306664Y-78003737D01*
X82306662Y-78003734D01*
X82306662Y-78003732D01*
X82210978Y-77824720D01*
X82210974Y-77824713D01*
X82082199Y-77667800D01*
X81925286Y-77539025D01*
X81925279Y-77539021D01*
X81746267Y-77443337D01*
X81649138Y-77413873D01*
X81552013Y-77384411D01*
X81552011Y-77384410D01*
X81552013Y-77384410D01*
X81350000Y-77364514D01*
X81147988Y-77384410D01*
X80953732Y-77443337D01*
X80774720Y-77539021D01*
X80774713Y-77539025D01*
X80617800Y-77667800D01*
X80489025Y-77824713D01*
X80489021Y-77824720D01*
X80393337Y-78003732D01*
X80334410Y-78197988D01*
X80314514Y-78400000D01*
X75450500Y-78400000D01*
X75450500Y-76757075D01*
X75470185Y-76690036D01*
X75522989Y-76644281D01*
X75592147Y-76634337D01*
X75653165Y-76661222D01*
X75774713Y-76760974D01*
X75774720Y-76760978D01*
X75953732Y-76856662D01*
X75953734Y-76856662D01*
X75953737Y-76856664D01*
X76147987Y-76915589D01*
X76147986Y-76915589D01*
X76166099Y-76917372D01*
X76350000Y-76935486D01*
X76552013Y-76915589D01*
X76746263Y-76856664D01*
X76925285Y-76760975D01*
X77082199Y-76632199D01*
X77210975Y-76475285D01*
X77306664Y-76296263D01*
X77365589Y-76102013D01*
X77385486Y-75900000D01*
X77365589Y-75697987D01*
X77306664Y-75503737D01*
X77306662Y-75503734D01*
X77306662Y-75503732D01*
X77210978Y-75324720D01*
X77210974Y-75324713D01*
X77082199Y-75167800D01*
X76925286Y-75039025D01*
X76925279Y-75039021D01*
X76746267Y-74943337D01*
X76643555Y-74912180D01*
X76552013Y-74884411D01*
X76552011Y-74884410D01*
X76552013Y-74884410D01*
X76350000Y-74864514D01*
X76147988Y-74884410D01*
X75953732Y-74943337D01*
X75774720Y-75039021D01*
X75774714Y-75039025D01*
X75653164Y-75138778D01*
X75588854Y-75166090D01*
X75519987Y-75154299D01*
X75468427Y-75107146D01*
X75450500Y-75042924D01*
X75450500Y-67906961D01*
X75451280Y-67893077D01*
X75451913Y-67887458D01*
X75461459Y-67802731D01*
X75467635Y-67775670D01*
X75495353Y-67696456D01*
X75507396Y-67671450D01*
X75552046Y-67600389D01*
X75569351Y-67578690D01*
X75628690Y-67519351D01*
X75650389Y-67502046D01*
X75721450Y-67457396D01*
X75746456Y-67445353D01*
X75825670Y-67417635D01*
X75852733Y-67411459D01*
X75915419Y-67404396D01*
X75943079Y-67401280D01*
X75956962Y-67400500D01*
X76015892Y-67400500D01*
X92055938Y-67400500D01*
X92122977Y-67420185D01*
G37*
G04 #@! TD.AperFunction*
M02*
