G04 #@! TF.GenerationSoftware,KiCad,Pcbnew,8.0.1*
G04 #@! TF.CreationDate,2024-05-04T01:11:32+08:00*
G04 #@! TF.ProjectId,555Sandbox,35353553-616e-4646-926f-782e6b696361,rev?*
G04 #@! TF.SameCoordinates,Original*
G04 #@! TF.FileFunction,Soldermask,Top*
G04 #@! TF.FilePolarity,Negative*
%FSLAX46Y46*%
G04 Gerber Fmt 4.6, Leading zero omitted, Abs format (unit mm)*
G04 Created by KiCad (PCBNEW 8.0.1) date 2024-05-04 01:11:32*
%MOMM*%
%LPD*%
G01*
G04 APERTURE LIST*
G04 Aperture macros list*
%AMRoundRect*
0 Rectangle with rounded corners*
0 $1 Rounding radius*
0 $2 $3 $4 $5 $6 $7 $8 $9 X,Y pos of 4 corners*
0 Add a 4 corners polygon primitive as box body*
4,1,4,$2,$3,$4,$5,$6,$7,$8,$9,$2,$3,0*
0 Add four circle primitives for the rounded corners*
1,1,$1+$1,$2,$3*
1,1,$1+$1,$4,$5*
1,1,$1+$1,$6,$7*
1,1,$1+$1,$8,$9*
0 Add four rect primitives between the rounded corners*
20,1,$1+$1,$2,$3,$4,$5,0*
20,1,$1+$1,$4,$5,$6,$7,0*
20,1,$1+$1,$6,$7,$8,$9,0*
20,1,$1+$1,$8,$9,$2,$3,0*%
G04 Aperture macros list end*
%ADD10C,0.300000*%
%ADD11C,1.600000*%
%ADD12O,1.600000X1.600000*%
%ADD13R,1.600000X1.600000*%
%ADD14R,1.800000X1.800000*%
%ADD15C,1.800000*%
%ADD16O,2.200000X3.500000*%
%ADD17R,1.500000X2.500000*%
%ADD18O,1.500000X2.500000*%
%ADD19R,2.200000X2.200000*%
%ADD20O,2.200000X2.200000*%
%ADD21C,2.000000*%
%ADD22RoundRect,0.249999X1.300001X1.300001X-1.300001X1.300001X-1.300001X-1.300001X1.300001X-1.300001X0*%
%ADD23C,3.100000*%
%ADD24R,3.000000X3.000000*%
%ADD25C,3.000000*%
G04 APERTURE END LIST*
D10*
X88843796Y-96400828D02*
X88129510Y-96400828D01*
X88129510Y-96400828D02*
X88058082Y-97115114D01*
X88058082Y-97115114D02*
X88129510Y-97043685D01*
X88129510Y-97043685D02*
X88272368Y-96972257D01*
X88272368Y-96972257D02*
X88629510Y-96972257D01*
X88629510Y-96972257D02*
X88772368Y-97043685D01*
X88772368Y-97043685D02*
X88843796Y-97115114D01*
X88843796Y-97115114D02*
X88915225Y-97257971D01*
X88915225Y-97257971D02*
X88915225Y-97615114D01*
X88915225Y-97615114D02*
X88843796Y-97757971D01*
X88843796Y-97757971D02*
X88772368Y-97829400D01*
X88772368Y-97829400D02*
X88629510Y-97900828D01*
X88629510Y-97900828D02*
X88272368Y-97900828D01*
X88272368Y-97900828D02*
X88129510Y-97829400D01*
X88129510Y-97829400D02*
X88058082Y-97757971D01*
X90272367Y-96400828D02*
X89558081Y-96400828D01*
X89558081Y-96400828D02*
X89486653Y-97115114D01*
X89486653Y-97115114D02*
X89558081Y-97043685D01*
X89558081Y-97043685D02*
X89700939Y-96972257D01*
X89700939Y-96972257D02*
X90058081Y-96972257D01*
X90058081Y-96972257D02*
X90200939Y-97043685D01*
X90200939Y-97043685D02*
X90272367Y-97115114D01*
X90272367Y-97115114D02*
X90343796Y-97257971D01*
X90343796Y-97257971D02*
X90343796Y-97615114D01*
X90343796Y-97615114D02*
X90272367Y-97757971D01*
X90272367Y-97757971D02*
X90200939Y-97829400D01*
X90200939Y-97829400D02*
X90058081Y-97900828D01*
X90058081Y-97900828D02*
X89700939Y-97900828D01*
X89700939Y-97900828D02*
X89558081Y-97829400D01*
X89558081Y-97829400D02*
X89486653Y-97757971D01*
X91700938Y-96400828D02*
X90986652Y-96400828D01*
X90986652Y-96400828D02*
X90915224Y-97115114D01*
X90915224Y-97115114D02*
X90986652Y-97043685D01*
X90986652Y-97043685D02*
X91129510Y-96972257D01*
X91129510Y-96972257D02*
X91486652Y-96972257D01*
X91486652Y-96972257D02*
X91629510Y-97043685D01*
X91629510Y-97043685D02*
X91700938Y-97115114D01*
X91700938Y-97115114D02*
X91772367Y-97257971D01*
X91772367Y-97257971D02*
X91772367Y-97615114D01*
X91772367Y-97615114D02*
X91700938Y-97757971D01*
X91700938Y-97757971D02*
X91629510Y-97829400D01*
X91629510Y-97829400D02*
X91486652Y-97900828D01*
X91486652Y-97900828D02*
X91129510Y-97900828D01*
X91129510Y-97900828D02*
X90986652Y-97829400D01*
X90986652Y-97829400D02*
X90915224Y-97757971D01*
X92343795Y-97829400D02*
X92558081Y-97900828D01*
X92558081Y-97900828D02*
X92915223Y-97900828D01*
X92915223Y-97900828D02*
X93058081Y-97829400D01*
X93058081Y-97829400D02*
X93129509Y-97757971D01*
X93129509Y-97757971D02*
X93200938Y-97615114D01*
X93200938Y-97615114D02*
X93200938Y-97472257D01*
X93200938Y-97472257D02*
X93129509Y-97329400D01*
X93129509Y-97329400D02*
X93058081Y-97257971D01*
X93058081Y-97257971D02*
X92915223Y-97186542D01*
X92915223Y-97186542D02*
X92629509Y-97115114D01*
X92629509Y-97115114D02*
X92486652Y-97043685D01*
X92486652Y-97043685D02*
X92415223Y-96972257D01*
X92415223Y-96972257D02*
X92343795Y-96829400D01*
X92343795Y-96829400D02*
X92343795Y-96686542D01*
X92343795Y-96686542D02*
X92415223Y-96543685D01*
X92415223Y-96543685D02*
X92486652Y-96472257D01*
X92486652Y-96472257D02*
X92629509Y-96400828D01*
X92629509Y-96400828D02*
X92986652Y-96400828D01*
X92986652Y-96400828D02*
X93200938Y-96472257D01*
X94486652Y-97900828D02*
X94486652Y-97115114D01*
X94486652Y-97115114D02*
X94415223Y-96972257D01*
X94415223Y-96972257D02*
X94272366Y-96900828D01*
X94272366Y-96900828D02*
X93986652Y-96900828D01*
X93986652Y-96900828D02*
X93843794Y-96972257D01*
X94486652Y-97829400D02*
X94343794Y-97900828D01*
X94343794Y-97900828D02*
X93986652Y-97900828D01*
X93986652Y-97900828D02*
X93843794Y-97829400D01*
X93843794Y-97829400D02*
X93772366Y-97686542D01*
X93772366Y-97686542D02*
X93772366Y-97543685D01*
X93772366Y-97543685D02*
X93843794Y-97400828D01*
X93843794Y-97400828D02*
X93986652Y-97329400D01*
X93986652Y-97329400D02*
X94343794Y-97329400D01*
X94343794Y-97329400D02*
X94486652Y-97257971D01*
X95200937Y-96900828D02*
X95200937Y-97900828D01*
X95200937Y-97043685D02*
X95272366Y-96972257D01*
X95272366Y-96972257D02*
X95415223Y-96900828D01*
X95415223Y-96900828D02*
X95629509Y-96900828D01*
X95629509Y-96900828D02*
X95772366Y-96972257D01*
X95772366Y-96972257D02*
X95843795Y-97115114D01*
X95843795Y-97115114D02*
X95843795Y-97900828D01*
X97200938Y-97900828D02*
X97200938Y-96400828D01*
X97200938Y-97829400D02*
X97058080Y-97900828D01*
X97058080Y-97900828D02*
X96772366Y-97900828D01*
X96772366Y-97900828D02*
X96629509Y-97829400D01*
X96629509Y-97829400D02*
X96558080Y-97757971D01*
X96558080Y-97757971D02*
X96486652Y-97615114D01*
X96486652Y-97615114D02*
X96486652Y-97186542D01*
X96486652Y-97186542D02*
X96558080Y-97043685D01*
X96558080Y-97043685D02*
X96629509Y-96972257D01*
X96629509Y-96972257D02*
X96772366Y-96900828D01*
X96772366Y-96900828D02*
X97058080Y-96900828D01*
X97058080Y-96900828D02*
X97200938Y-96972257D01*
X97915223Y-97900828D02*
X97915223Y-96400828D01*
X97915223Y-96972257D02*
X98058081Y-96900828D01*
X98058081Y-96900828D02*
X98343795Y-96900828D01*
X98343795Y-96900828D02*
X98486652Y-96972257D01*
X98486652Y-96972257D02*
X98558081Y-97043685D01*
X98558081Y-97043685D02*
X98629509Y-97186542D01*
X98629509Y-97186542D02*
X98629509Y-97615114D01*
X98629509Y-97615114D02*
X98558081Y-97757971D01*
X98558081Y-97757971D02*
X98486652Y-97829400D01*
X98486652Y-97829400D02*
X98343795Y-97900828D01*
X98343795Y-97900828D02*
X98058081Y-97900828D01*
X98058081Y-97900828D02*
X97915223Y-97829400D01*
X99486652Y-97900828D02*
X99343795Y-97829400D01*
X99343795Y-97829400D02*
X99272366Y-97757971D01*
X99272366Y-97757971D02*
X99200938Y-97615114D01*
X99200938Y-97615114D02*
X99200938Y-97186542D01*
X99200938Y-97186542D02*
X99272366Y-97043685D01*
X99272366Y-97043685D02*
X99343795Y-96972257D01*
X99343795Y-96972257D02*
X99486652Y-96900828D01*
X99486652Y-96900828D02*
X99700938Y-96900828D01*
X99700938Y-96900828D02*
X99843795Y-96972257D01*
X99843795Y-96972257D02*
X99915224Y-97043685D01*
X99915224Y-97043685D02*
X99986652Y-97186542D01*
X99986652Y-97186542D02*
X99986652Y-97615114D01*
X99986652Y-97615114D02*
X99915224Y-97757971D01*
X99915224Y-97757971D02*
X99843795Y-97829400D01*
X99843795Y-97829400D02*
X99700938Y-97900828D01*
X99700938Y-97900828D02*
X99486652Y-97900828D01*
X100486652Y-97900828D02*
X101272367Y-96900828D01*
X100486652Y-96900828D02*
X101272367Y-97900828D01*
D11*
X110900000Y-84540000D03*
D12*
X110900000Y-82000000D03*
D11*
X110900000Y-89630000D03*
D12*
X110900000Y-87090000D03*
D13*
X106720000Y-89440000D03*
D12*
X106720000Y-86900000D03*
X106720000Y-84360000D03*
X106720000Y-81820000D03*
X99100000Y-81820000D03*
X99100000Y-84360000D03*
X99100000Y-86900000D03*
X99100000Y-89440000D03*
D14*
X130020000Y-76830000D03*
D15*
X132560000Y-76830000D03*
D16*
X117270000Y-98300000D03*
X125470000Y-98300000D03*
D17*
X119370000Y-98300000D03*
D18*
X121370000Y-98300000D03*
X123370000Y-98300000D03*
D14*
X110050000Y-97050000D03*
D15*
X107510000Y-97050000D03*
D11*
X113930000Y-82010000D03*
D12*
X113930000Y-89630000D03*
D19*
X88110000Y-86940000D03*
D20*
X95730000Y-86940000D03*
D21*
X97200000Y-66800000D03*
X103700000Y-66800000D03*
X97200000Y-71300000D03*
X103700000Y-71300000D03*
D13*
X91500000Y-76124264D03*
D11*
X91500000Y-74124264D03*
D14*
X136330000Y-73630000D03*
D15*
X138870000Y-73630000D03*
D11*
X95220000Y-93240000D03*
D12*
X87600000Y-93240000D03*
D11*
X113705000Y-94050000D03*
D12*
X116245000Y-94050000D03*
D14*
X136350000Y-86030000D03*
D15*
X138890000Y-86030000D03*
D13*
X119530000Y-72130000D03*
D12*
X119530000Y-74670000D03*
X119530000Y-77210000D03*
X119530000Y-79750000D03*
X119530000Y-82290000D03*
X119530000Y-84830000D03*
X119530000Y-87370000D03*
X119530000Y-89910000D03*
X119530000Y-92450000D03*
X127150000Y-92450000D03*
X127150000Y-89910000D03*
X127150000Y-87370000D03*
X127150000Y-84830000D03*
X127150000Y-82290000D03*
X127150000Y-79750000D03*
X127150000Y-77210000D03*
X127150000Y-74670000D03*
X127150000Y-72130000D03*
D14*
X136335000Y-92230000D03*
D15*
X138875000Y-92230000D03*
D11*
X108890000Y-77500000D03*
D12*
X116510000Y-77500000D03*
D22*
X114350000Y-68000000D03*
D23*
X108350000Y-68000000D03*
D11*
X88110000Y-83750000D03*
D12*
X95730000Y-83750000D03*
D14*
X130000000Y-83030000D03*
D15*
X132540000Y-83030000D03*
D11*
X96400000Y-80700000D03*
X91400000Y-80700000D03*
D19*
X95730000Y-90140000D03*
D20*
X88110000Y-90140000D03*
D11*
X99020000Y-92540000D03*
X104020000Y-92540000D03*
D14*
X130020000Y-70580000D03*
D15*
X132560000Y-70580000D03*
D11*
X116930000Y-89630000D03*
D12*
X116930000Y-82010000D03*
D14*
X136355000Y-79830000D03*
D15*
X138895000Y-79830000D03*
D14*
X136330000Y-67380000D03*
D15*
X138870000Y-67380000D03*
D14*
X129985000Y-95430000D03*
D15*
X132525000Y-95430000D03*
D11*
X99110000Y-78740000D03*
D12*
X106730000Y-78740000D03*
D14*
X129985000Y-89230000D03*
D15*
X132525000Y-89230000D03*
D24*
X79550000Y-68050000D03*
D25*
X79550000Y-73050000D03*
X79550000Y-78050000D03*
D24*
X79550000Y-86550000D03*
D25*
X79550000Y-91550000D03*
X79550000Y-96550000D03*
M02*
