G04 #@! TF.GenerationSoftware,KiCad,Pcbnew,8.0.1*
G04 #@! TF.CreationDate,2024-05-04T08:57:23+08:00*
G04 #@! TF.ProjectId,555Sandbox,35353553-616e-4646-926f-782e6b696361,rev?*
G04 #@! TF.SameCoordinates,Original*
G04 #@! TF.FileFunction,Legend,Bot*
G04 #@! TF.FilePolarity,Positive*
%FSLAX46Y46*%
G04 Gerber Fmt 4.6, Leading zero omitted, Abs format (unit mm)*
G04 Created by KiCad (PCBNEW 8.0.1) date 2024-05-04 08:57:23*
%MOMM*%
%LPD*%
G01*
G04 APERTURE LIST*
G04 Aperture macros list*
%AMRoundRect*
0 Rectangle with rounded corners*
0 $1 Rounding radius*
0 $2 $3 $4 $5 $6 $7 $8 $9 X,Y pos of 4 corners*
0 Add a 4 corners polygon primitive as box body*
4,1,4,$2,$3,$4,$5,$6,$7,$8,$9,$2,$3,0*
0 Add four circle primitives for the rounded corners*
1,1,$1+$1,$2,$3*
1,1,$1+$1,$4,$5*
1,1,$1+$1,$6,$7*
1,1,$1+$1,$8,$9*
0 Add four rect primitives between the rounded corners*
20,1,$1+$1,$2,$3,$4,$5,0*
20,1,$1+$1,$4,$5,$6,$7,0*
20,1,$1+$1,$6,$7,$8,$9,0*
20,1,$1+$1,$8,$9,$2,$3,0*%
G04 Aperture macros list end*
%ADD10C,0.200000*%
%ADD11C,0.300000*%
%ADD12C,0.400000*%
%ADD13C,0.000000*%
%ADD14R,1.600000X1.600000*%
%ADD15O,1.600000X1.600000*%
%ADD16R,1.800000X1.800000*%
%ADD17C,1.800000*%
%ADD18O,1.500000X2.500000*%
%ADD19R,1.500000X2.500000*%
%ADD20O,2.200000X3.500000*%
%ADD21C,1.600000*%
%ADD22R,2.200000X2.200000*%
%ADD23O,2.200000X2.200000*%
%ADD24C,2.000000*%
%ADD25RoundRect,0.249999X1.300001X1.300001X-1.300001X1.300001X-1.300001X-1.300001X1.300001X-1.300001X0*%
%ADD26C,3.100000*%
%ADD27R,3.000000X3.000000*%
%ADD28C,3.000000*%
G04 APERTURE END LIST*
D10*
X100320000Y-81840000D02*
X105470000Y-81840000D01*
X105470000Y-89440000D02*
X100270000Y-89440000D01*
D11*
X106928571Y-95043100D02*
X108071429Y-95043100D01*
X107500000Y-94471671D02*
X107500000Y-95614528D01*
D12*
X101774438Y-84211428D02*
X101774438Y-83259047D01*
X101774438Y-83259047D02*
X102726819Y-83163809D01*
X102726819Y-83163809D02*
X102631580Y-83259047D01*
X102631580Y-83259047D02*
X102536342Y-83449523D01*
X102536342Y-83449523D02*
X102536342Y-83925714D01*
X102536342Y-83925714D02*
X102631580Y-84116190D01*
X102631580Y-84116190D02*
X102726819Y-84211428D01*
X102726819Y-84211428D02*
X102917295Y-84306666D01*
X102917295Y-84306666D02*
X103393485Y-84306666D01*
X103393485Y-84306666D02*
X103583961Y-84211428D01*
X103583961Y-84211428D02*
X103679200Y-84116190D01*
X103679200Y-84116190D02*
X103774438Y-83925714D01*
X103774438Y-83925714D02*
X103774438Y-83449523D01*
X103774438Y-83449523D02*
X103679200Y-83259047D01*
X103679200Y-83259047D02*
X103583961Y-83163809D01*
X101774438Y-86116190D02*
X101774438Y-85163809D01*
X101774438Y-85163809D02*
X102726819Y-85068571D01*
X102726819Y-85068571D02*
X102631580Y-85163809D01*
X102631580Y-85163809D02*
X102536342Y-85354285D01*
X102536342Y-85354285D02*
X102536342Y-85830476D01*
X102536342Y-85830476D02*
X102631580Y-86020952D01*
X102631580Y-86020952D02*
X102726819Y-86116190D01*
X102726819Y-86116190D02*
X102917295Y-86211428D01*
X102917295Y-86211428D02*
X103393485Y-86211428D01*
X103393485Y-86211428D02*
X103583961Y-86116190D01*
X103583961Y-86116190D02*
X103679200Y-86020952D01*
X103679200Y-86020952D02*
X103774438Y-85830476D01*
X103774438Y-85830476D02*
X103774438Y-85354285D01*
X103774438Y-85354285D02*
X103679200Y-85163809D01*
X103679200Y-85163809D02*
X103583961Y-85068571D01*
X101774438Y-88020952D02*
X101774438Y-87068571D01*
X101774438Y-87068571D02*
X102726819Y-86973333D01*
X102726819Y-86973333D02*
X102631580Y-87068571D01*
X102631580Y-87068571D02*
X102536342Y-87259047D01*
X102536342Y-87259047D02*
X102536342Y-87735238D01*
X102536342Y-87735238D02*
X102631580Y-87925714D01*
X102631580Y-87925714D02*
X102726819Y-88020952D01*
X102726819Y-88020952D02*
X102917295Y-88116190D01*
X102917295Y-88116190D02*
X103393485Y-88116190D01*
X103393485Y-88116190D02*
X103583961Y-88020952D01*
X103583961Y-88020952D02*
X103679200Y-87925714D01*
X103679200Y-87925714D02*
X103774438Y-87735238D01*
X103774438Y-87735238D02*
X103774438Y-87259047D01*
X103774438Y-87259047D02*
X103679200Y-87068571D01*
X103679200Y-87068571D02*
X103583961Y-86973333D01*
D13*
G36*
X82440372Y-73361053D02*
G01*
X82567226Y-73613511D01*
X82617896Y-73950912D01*
X82583291Y-74305046D01*
X82454319Y-74607707D01*
X82430099Y-74639775D01*
X82220180Y-74899014D01*
X82029649Y-74626993D01*
X81887577Y-74302689D01*
X81849829Y-73938219D01*
X81905953Y-73599400D01*
X82045500Y-73352052D01*
X82246425Y-73261743D01*
X82440372Y-73361053D01*
G37*
G36*
X87398171Y-73071909D02*
G01*
X87507600Y-73204536D01*
X87729191Y-73638998D01*
X87722233Y-74072970D01*
X87655935Y-74245985D01*
X87467848Y-74531649D01*
X87281363Y-74596713D01*
X87126493Y-74498849D01*
X87024305Y-74268474D01*
X86992139Y-73918051D01*
X87027544Y-73544580D01*
X87128066Y-73245060D01*
X87159387Y-73197800D01*
X87295850Y-73045166D01*
X87398171Y-73071909D01*
G37*
G36*
X84730790Y-85216563D02*
G01*
X85205632Y-85385454D01*
X85822077Y-85806424D01*
X86327605Y-86400967D01*
X86702727Y-87132886D01*
X86927955Y-87965982D01*
X86987128Y-88694343D01*
X86953724Y-89440985D01*
X86840173Y-90046498D01*
X86624611Y-90591030D01*
X86337023Y-91077624D01*
X85835578Y-91671155D01*
X85260398Y-92066424D01*
X84632978Y-92254022D01*
X83974814Y-92224538D01*
X83811518Y-92183189D01*
X83110547Y-91862862D01*
X82529684Y-91362966D01*
X82081726Y-90706039D01*
X81779472Y-89914620D01*
X81635718Y-89011247D01*
X81634735Y-88349574D01*
X81764857Y-87503200D01*
X82036930Y-86758307D01*
X82428216Y-86133764D01*
X82915981Y-85648447D01*
X83477489Y-85321225D01*
X84090004Y-85170973D01*
X84730790Y-85216563D01*
G37*
G36*
X85178561Y-75145590D02*
G01*
X85637769Y-75273635D01*
X85792802Y-75325773D01*
X86492101Y-75642564D01*
X86982802Y-76039866D01*
X87261727Y-76514327D01*
X87330255Y-76947582D01*
X87222601Y-77441230D01*
X86927999Y-77882638D01*
X86485899Y-78252832D01*
X85935751Y-78532837D01*
X85317003Y-78703679D01*
X84669107Y-78746384D01*
X84031512Y-78641978D01*
X83898577Y-78598122D01*
X83184326Y-78266895D01*
X82683723Y-77866496D01*
X82390110Y-77389633D01*
X82296775Y-76843568D01*
X82355253Y-76576987D01*
X83667511Y-76576987D01*
X83802180Y-76971755D01*
X83940830Y-77137784D01*
X84424657Y-77454174D01*
X84978312Y-77556100D01*
X85608897Y-77444568D01*
X85752331Y-77393902D01*
X86064516Y-77170639D01*
X86285658Y-76821576D01*
X86366482Y-76437607D01*
X86348426Y-76294375D01*
X86213221Y-76029419D01*
X85976114Y-75755909D01*
X85936769Y-75721315D01*
X85676999Y-75545350D01*
X85381343Y-75459089D01*
X84956037Y-75435631D01*
X84940934Y-75435617D01*
X84539611Y-75451383D01*
X84278296Y-75518169D01*
X84069208Y-75665202D01*
X83977190Y-75756517D01*
X83726366Y-76152208D01*
X83667511Y-76576987D01*
X82355253Y-76576987D01*
X82406122Y-76345090D01*
X82719157Y-75903714D01*
X83213373Y-75541932D01*
X83856522Y-75284952D01*
X84383373Y-75153260D01*
X84792241Y-75106135D01*
X85178561Y-75145590D01*
G37*
G36*
X85759302Y-65699065D02*
G01*
X85843622Y-65716993D01*
X86185608Y-65813094D01*
X86656176Y-65970459D01*
X87173231Y-66161039D01*
X87371549Y-66239031D01*
X88384612Y-66645646D01*
X88687315Y-66363620D01*
X89071835Y-66051346D01*
X89433338Y-65889212D01*
X89860980Y-65849260D01*
X90236559Y-65877787D01*
X90911491Y-66018554D01*
X91462889Y-66295891D01*
X91935537Y-66709083D01*
X92198977Y-67131255D01*
X92337258Y-67665416D01*
X92342130Y-68226844D01*
X92205342Y-68730817D01*
X92143558Y-68845229D01*
X91890198Y-69183967D01*
X91598709Y-69480966D01*
X91558404Y-69513929D01*
X91345324Y-69697609D01*
X91290713Y-69843560D01*
X91369204Y-70050309D01*
X91403262Y-70116521D01*
X91570264Y-70534667D01*
X91735631Y-71118708D01*
X91885883Y-71806018D01*
X92007543Y-72533970D01*
X92087130Y-73239937D01*
X92093431Y-73323263D01*
X92095952Y-74286288D01*
X91944873Y-75151508D01*
X91623615Y-76004386D01*
X91540069Y-76175867D01*
X91309718Y-76567375D01*
X90971966Y-77061482D01*
X90575595Y-77593547D01*
X90169389Y-78098929D01*
X89802133Y-78512988D01*
X89693214Y-78623025D01*
X89299140Y-79004976D01*
X89674855Y-80395296D01*
X89953838Y-81420888D01*
X90223440Y-82399176D01*
X90475415Y-83301111D01*
X90701518Y-84097643D01*
X90893505Y-84759722D01*
X91043130Y-85258299D01*
X91141075Y-85561292D01*
X91231254Y-85875659D01*
X91339136Y-86339569D01*
X91447588Y-86876404D01*
X91499235Y-87163094D01*
X91595810Y-87698259D01*
X91693191Y-88192302D01*
X91776734Y-88572802D01*
X91811551Y-88707689D01*
X91860002Y-88972877D01*
X91908950Y-89408888D01*
X91953031Y-89957789D01*
X91986876Y-90561649D01*
X91989936Y-90633603D01*
X92011706Y-91316504D01*
X92009954Y-91829617D01*
X91980929Y-92231128D01*
X91920882Y-92579223D01*
X91846135Y-92864685D01*
X91615247Y-93485539D01*
X91350483Y-93882167D01*
X91049935Y-94056931D01*
X90878016Y-94060784D01*
X90591429Y-94018722D01*
X90591625Y-94995863D01*
X90579103Y-95533376D01*
X90527001Y-95953162D01*
X90413893Y-96360639D01*
X90218353Y-96861226D01*
X90206983Y-96888319D01*
X90012147Y-97344797D01*
X89833426Y-97751454D01*
X89701881Y-98037958D01*
X89676410Y-98089671D01*
X89519504Y-98422683D01*
X89402844Y-98696873D01*
X89177291Y-98984370D01*
X88755257Y-99252992D01*
X88168991Y-99490487D01*
X87450745Y-99684604D01*
X86632770Y-99823092D01*
X86358487Y-99853344D01*
X85752042Y-99860518D01*
X85263524Y-99763339D01*
X84929746Y-99572605D01*
X84811701Y-99399674D01*
X84710065Y-99191037D01*
X84580108Y-98921022D01*
X84490108Y-98611022D01*
X84432901Y-98278243D01*
X84419448Y-97948116D01*
X84440108Y-97621022D01*
X84470108Y-97461022D01*
X84500108Y-97291022D01*
X84530108Y-97171022D01*
X84670108Y-96861022D01*
X84789317Y-96544377D01*
X84861486Y-96276835D01*
X84866820Y-95996311D01*
X84855857Y-95937844D01*
X84718468Y-95568779D01*
X84504893Y-95384985D01*
X84241820Y-95343725D01*
X83945880Y-95384080D01*
X83781255Y-95526802D01*
X83735786Y-95804379D01*
X83797311Y-96249297D01*
X83836356Y-96426921D01*
X83979500Y-97356900D01*
X83959330Y-98182963D01*
X83780317Y-98886543D01*
X83446933Y-99449072D01*
X83019502Y-99818845D01*
X82663836Y-99966312D01*
X82207344Y-100062278D01*
X81741811Y-100096335D01*
X81359020Y-100058074D01*
X81248532Y-100019662D01*
X80570794Y-99691796D01*
X80064707Y-99439892D01*
X79695983Y-99240157D01*
X79430334Y-99068794D01*
X79233472Y-98902010D01*
X79071107Y-98716011D01*
X78908953Y-98487001D01*
X78797132Y-98318500D01*
X78419328Y-97645838D01*
X78142851Y-96907203D01*
X77958267Y-96062124D01*
X77856141Y-95070131D01*
X77827588Y-94159958D01*
X77815965Y-92645905D01*
X77437637Y-92690072D01*
X77000922Y-92642062D01*
X76612266Y-92427928D01*
X76352820Y-92094415D01*
X76337042Y-92056131D01*
X76289095Y-91832299D01*
X76240454Y-91440094D01*
X76197579Y-90939861D01*
X76172666Y-90521191D01*
X76157871Y-90024100D01*
X76164767Y-89717688D01*
X76465707Y-89717688D01*
X76516906Y-89977568D01*
X76537923Y-90004392D01*
X76573907Y-90150663D01*
X76591464Y-90455416D01*
X76588178Y-90798628D01*
X76607139Y-91444482D01*
X76722858Y-91900851D01*
X76942280Y-92188716D01*
X77074464Y-92267856D01*
X77343485Y-92330421D01*
X77609031Y-92222087D01*
X77621337Y-92214100D01*
X77859792Y-92109675D01*
X78021114Y-92116375D01*
X78076876Y-92264552D01*
X78127497Y-92623505D01*
X78171191Y-93175206D01*
X78206168Y-93901628D01*
X78210669Y-94027959D01*
X78282250Y-95245024D01*
X78412512Y-96261848D01*
X78610381Y-97101542D01*
X78884782Y-97787219D01*
X79244640Y-98341990D01*
X79698881Y-98788969D01*
X80171041Y-99104339D01*
X80799886Y-99420801D01*
X81353633Y-99594902D01*
X81922254Y-99642761D01*
X82490108Y-99601022D01*
X82720796Y-99561136D01*
X82890108Y-99471022D01*
X83026964Y-99348229D01*
X83120108Y-99271022D01*
X83154883Y-99233815D01*
X83200108Y-99171022D01*
X83240108Y-99111022D01*
X83290108Y-99041022D01*
X83420108Y-98831022D01*
X83530108Y-98491022D01*
X83597722Y-98197487D01*
X83622875Y-97982590D01*
X83614112Y-97665639D01*
X83574972Y-97308170D01*
X83508996Y-96971720D01*
X83451029Y-96787396D01*
X83377451Y-96470107D01*
X83275095Y-96164392D01*
X83239079Y-95993004D01*
X83233212Y-95834886D01*
X83258262Y-95514054D01*
X83381007Y-95314351D01*
X83577307Y-95177323D01*
X83959596Y-95024308D01*
X84379256Y-94964288D01*
X84752606Y-95000875D01*
X84977421Y-95116888D01*
X85108560Y-95333891D01*
X85226381Y-95662771D01*
X85250039Y-95757869D01*
X85297461Y-96115266D01*
X85241528Y-96433487D01*
X85117842Y-96730392D01*
X84954689Y-97207782D01*
X84882544Y-97791131D01*
X84875921Y-98051536D01*
X84883235Y-98501593D01*
X84923591Y-98795079D01*
X85014865Y-99003748D01*
X85157135Y-99180297D01*
X85302044Y-99325472D01*
X85445111Y-99412769D01*
X85642422Y-99452681D01*
X85950065Y-99455700D01*
X86424128Y-99432321D01*
X86485340Y-99428791D01*
X87245595Y-99355902D01*
X87857117Y-99216876D01*
X88355049Y-98984282D01*
X88774531Y-98630693D01*
X89150706Y-98128679D01*
X89518714Y-97450809D01*
X89795453Y-96845113D01*
X89977981Y-96414164D01*
X90097554Y-96076151D01*
X90167237Y-95759746D01*
X90200098Y-95393618D01*
X90209201Y-94906439D01*
X90208905Y-94588047D01*
X90215372Y-94066236D01*
X90236078Y-93633358D01*
X90267696Y-93337730D01*
X90302500Y-93229087D01*
X90428934Y-93268557D01*
X90602495Y-93446559D01*
X90613557Y-93461491D01*
X90824140Y-93669251D01*
X91015656Y-93674511D01*
X91197567Y-93469751D01*
X91379338Y-93047449D01*
X91463059Y-92786283D01*
X91573733Y-92377774D01*
X91640075Y-92006019D01*
X91668334Y-91598762D01*
X91664759Y-91083745D01*
X91647945Y-90648553D01*
X91613307Y-90070785D01*
X91565943Y-89531187D01*
X91512671Y-89097979D01*
X91470712Y-88875130D01*
X91399821Y-88563074D01*
X91306883Y-88101346D01*
X91206896Y-87566085D01*
X91155983Y-87277509D01*
X91045696Y-86704766D01*
X90916993Y-86137320D01*
X90790963Y-85664997D01*
X90739584Y-85504085D01*
X90617831Y-85124642D01*
X90463873Y-84602138D01*
X90300529Y-84015628D01*
X90194618Y-83616247D01*
X90032890Y-83007158D01*
X89831108Y-82270236D01*
X89614610Y-81496937D01*
X89408737Y-80778714D01*
X89402091Y-80755887D01*
X89235041Y-80166978D01*
X89094266Y-79641079D01*
X88991549Y-79224528D01*
X88938677Y-78963661D01*
X88934109Y-78915986D01*
X89031632Y-78679202D01*
X89218965Y-78524743D01*
X89450370Y-78340890D01*
X89764421Y-78011570D01*
X90122716Y-77585508D01*
X90486852Y-77111429D01*
X90818428Y-76638056D01*
X91079041Y-76214113D01*
X91155764Y-76067340D01*
X91484300Y-75218843D01*
X91689923Y-74314018D01*
X91754584Y-73443204D01*
X91739133Y-73147328D01*
X91657264Y-72469391D01*
X91543693Y-71801503D01*
X91409992Y-71194218D01*
X91267734Y-70698085D01*
X91128494Y-70363658D01*
X91087306Y-70300142D01*
X90902680Y-69944899D01*
X90934577Y-69620438D01*
X91187711Y-69300116D01*
X91277602Y-69224322D01*
X91721891Y-68774495D01*
X91950422Y-68293939D01*
X91976256Y-67753894D01*
X91969127Y-67701667D01*
X91786869Y-67205335D01*
X91427696Y-66768858D01*
X90943063Y-66437634D01*
X90384427Y-66257063D01*
X90322095Y-66248516D01*
X89864845Y-66221340D01*
X89510039Y-66251896D01*
X89306239Y-66333399D01*
X89276054Y-66394662D01*
X89190092Y-66504723D01*
X88972067Y-66686515D01*
X88833479Y-66786876D01*
X88555997Y-66968673D01*
X88359399Y-67032459D01*
X88136731Y-66990908D01*
X87889560Y-66898741D01*
X87565705Y-66766408D01*
X87328600Y-66657913D01*
X87273802Y-66627298D01*
X86876027Y-66433095D01*
X86313889Y-66254898D01*
X85651852Y-66108601D01*
X84954383Y-66010101D01*
X84679480Y-65987618D01*
X84129182Y-65995039D01*
X83489752Y-66069797D01*
X82812013Y-66198540D01*
X82146786Y-66367917D01*
X81544892Y-66564576D01*
X81057153Y-66775166D01*
X80734392Y-66986334D01*
X80686226Y-67036696D01*
X80438698Y-67183979D01*
X80160164Y-67142458D01*
X79986371Y-66992872D01*
X79661657Y-66674246D01*
X79222631Y-66396556D01*
X78786883Y-66232226D01*
X78343476Y-66244518D01*
X77907566Y-66441787D01*
X77514616Y-66781897D01*
X77200086Y-67222709D01*
X76999437Y-67722087D01*
X76948132Y-68237895D01*
X76967919Y-68393601D01*
X77083272Y-68688575D01*
X77305872Y-69050072D01*
X77502096Y-69299476D01*
X77736317Y-69589945D01*
X77880923Y-69817648D01*
X77905962Y-69920842D01*
X77790166Y-70200983D01*
X77665459Y-70654616D01*
X77541047Y-71227122D01*
X77426133Y-71863881D01*
X77329923Y-72510276D01*
X77261621Y-73111688D01*
X77230433Y-73613496D01*
X77236879Y-73891022D01*
X77420931Y-74896110D01*
X77794533Y-75887502D01*
X78369059Y-76889984D01*
X79007360Y-77749088D01*
X79296555Y-78108694D01*
X79520976Y-78396469D01*
X79648204Y-78570411D01*
X79665243Y-78601424D01*
X79624873Y-78722230D01*
X79519784Y-78991999D01*
X79394045Y-79300551D01*
X79052897Y-80203890D01*
X78727059Y-81238081D01*
X78402231Y-82449010D01*
X78361188Y-82614266D01*
X78231081Y-83121976D01*
X78109444Y-83560881D01*
X78012603Y-83873900D01*
X77968471Y-83987239D01*
X77901486Y-84166523D01*
X77786768Y-84525262D01*
X77636232Y-85021993D01*
X77461794Y-85615254D01*
X77275369Y-86263582D01*
X77088873Y-86925514D01*
X76914220Y-87559588D01*
X76763327Y-88124340D01*
X76648107Y-88578308D01*
X76642717Y-88600584D01*
X76507800Y-89256605D01*
X76465707Y-89717688D01*
X76164767Y-89717688D01*
X76168362Y-89557964D01*
X76210877Y-89087595D01*
X76292152Y-88577805D01*
X76418922Y-87993403D01*
X76597923Y-87299203D01*
X76835892Y-86460015D01*
X77139565Y-85440650D01*
X77154976Y-85389671D01*
X77460027Y-84378836D01*
X77705004Y-83561434D01*
X77897199Y-82912206D01*
X78043902Y-82405897D01*
X78152406Y-82017251D01*
X78230003Y-81721010D01*
X78283985Y-81491919D01*
X78294604Y-81442373D01*
X78379375Y-81121937D01*
X78520816Y-80670256D01*
X78692793Y-80169409D01*
X78749993Y-80012193D01*
X78966928Y-79414513D01*
X79106678Y-78993048D01*
X79176384Y-78711287D01*
X79183183Y-78532719D01*
X79134216Y-78420833D01*
X79072294Y-78363902D01*
X78797689Y-78096008D01*
X78472757Y-77680542D01*
X78125543Y-77165913D01*
X77784095Y-76600524D01*
X77476462Y-76032783D01*
X77230691Y-75511096D01*
X77074830Y-75083868D01*
X77033712Y-74845617D01*
X76996907Y-74499232D01*
X76938148Y-74270317D01*
X76897230Y-73995114D01*
X76895241Y-73549053D01*
X76927316Y-72985874D01*
X76988588Y-72359320D01*
X77074191Y-71723130D01*
X77179261Y-71131045D01*
X77251158Y-70813200D01*
X77478442Y-69909253D01*
X77055852Y-69393537D01*
X76814621Y-69075563D01*
X76687929Y-68810518D01*
X76639685Y-68494826D01*
X76633261Y-68180818D01*
X76709669Y-67460308D01*
X76951564Y-66878403D01*
X77377958Y-66397908D01*
X77647318Y-66196653D01*
X78021167Y-65985514D01*
X78371458Y-65851598D01*
X78537704Y-65824806D01*
X79031964Y-65910357D01*
X79558266Y-66137323D01*
X80015284Y-66461177D01*
X80041252Y-66485548D01*
X80271853Y-66677086D01*
X80434152Y-66713315D01*
X80556117Y-66652555D01*
X81235546Y-66276066D01*
X82073142Y-65971911D01*
X83006610Y-65751110D01*
X83973657Y-65624688D01*
X84911986Y-65603665D01*
X85759302Y-65699065D01*
G37*
%LPC*%
D14*
X106720000Y-89440000D03*
D15*
X106720000Y-86900000D03*
X106720000Y-84360000D03*
X106720000Y-81820000D03*
X99100000Y-81820000D03*
X99100000Y-84360000D03*
X99100000Y-86900000D03*
X99100000Y-89440000D03*
D16*
X130020000Y-76830000D03*
D17*
X132560000Y-76830000D03*
D18*
X123370000Y-98300000D03*
X121370000Y-98300000D03*
D19*
X119370000Y-98300000D03*
D20*
X125470000Y-98300000D03*
X117270000Y-98300000D03*
D16*
X110050000Y-97050000D03*
D17*
X107510000Y-97050000D03*
D21*
X113930000Y-82010000D03*
D15*
X113930000Y-89630000D03*
D22*
X88110000Y-86940000D03*
D23*
X95730000Y-86940000D03*
D24*
X97200000Y-66800000D03*
X103700000Y-66800000D03*
X97200000Y-71300000D03*
X103700000Y-71300000D03*
D14*
X91500000Y-76124264D03*
D21*
X91500000Y-74124264D03*
D16*
X136330000Y-73630000D03*
D17*
X138870000Y-73630000D03*
D21*
X95220000Y-93240000D03*
D15*
X87600000Y-93240000D03*
D21*
X110900000Y-84540000D03*
D15*
X110900000Y-82000000D03*
D21*
X113705000Y-94050000D03*
D15*
X116245000Y-94050000D03*
D16*
X136350000Y-86030000D03*
D17*
X138890000Y-86030000D03*
D14*
X119530000Y-72130000D03*
D15*
X119530000Y-74670000D03*
X119530000Y-77210000D03*
X119530000Y-79750000D03*
X119530000Y-82290000D03*
X119530000Y-84830000D03*
X119530000Y-87370000D03*
X119530000Y-89910000D03*
X119530000Y-92450000D03*
X127150000Y-92450000D03*
X127150000Y-89910000D03*
X127150000Y-87370000D03*
X127150000Y-84830000D03*
X127150000Y-82290000D03*
X127150000Y-79750000D03*
X127150000Y-77210000D03*
X127150000Y-74670000D03*
X127150000Y-72130000D03*
D16*
X136335000Y-92230000D03*
D17*
X138875000Y-92230000D03*
D21*
X108890000Y-77500000D03*
D15*
X116510000Y-77500000D03*
D25*
X114350000Y-68000000D03*
D26*
X108350000Y-68000000D03*
D21*
X88110000Y-83750000D03*
D15*
X95730000Y-83750000D03*
D16*
X130000000Y-83030000D03*
D17*
X132540000Y-83030000D03*
D21*
X96400000Y-80700000D03*
X91400000Y-80700000D03*
D22*
X95730000Y-90140000D03*
D23*
X88110000Y-90140000D03*
D21*
X99020000Y-92540000D03*
X104020000Y-92540000D03*
D16*
X130020000Y-70580000D03*
D17*
X132560000Y-70580000D03*
D21*
X116930000Y-89630000D03*
D15*
X116930000Y-82010000D03*
D16*
X136355000Y-79830000D03*
D17*
X138895000Y-79830000D03*
D16*
X136330000Y-67380000D03*
D17*
X138870000Y-67380000D03*
D16*
X129985000Y-95430000D03*
D17*
X132525000Y-95430000D03*
D21*
X99110000Y-78740000D03*
D15*
X106730000Y-78740000D03*
D16*
X129985000Y-89230000D03*
D17*
X132525000Y-89230000D03*
D27*
X79550000Y-68050000D03*
D28*
X79550000Y-73050000D03*
X79550000Y-78050000D03*
D27*
X79550000Y-86550000D03*
D28*
X79550000Y-91550000D03*
X79550000Y-96550000D03*
D21*
X110900000Y-89630000D03*
D15*
X110900000Y-87090000D03*
%LPD*%
M02*
