G04 #@! TF.GenerationSoftware,KiCad,Pcbnew,8.0.1*
G04 #@! TF.CreationDate,2024-05-04T01:11:32+08:00*
G04 #@! TF.ProjectId,555Sandbox,35353553-616e-4646-926f-782e6b696361,rev?*
G04 #@! TF.SameCoordinates,Original*
G04 #@! TF.FileFunction,Copper,L1,Top*
G04 #@! TF.FilePolarity,Positive*
%FSLAX46Y46*%
G04 Gerber Fmt 4.6, Leading zero omitted, Abs format (unit mm)*
G04 Created by KiCad (PCBNEW 8.0.1) date 2024-05-04 01:11:32*
%MOMM*%
%LPD*%
G01*
G04 APERTURE LIST*
G04 Aperture macros list*
%AMRoundRect*
0 Rectangle with rounded corners*
0 $1 Rounding radius*
0 $2 $3 $4 $5 $6 $7 $8 $9 X,Y pos of 4 corners*
0 Add a 4 corners polygon primitive as box body*
4,1,4,$2,$3,$4,$5,$6,$7,$8,$9,$2,$3,0*
0 Add four circle primitives for the rounded corners*
1,1,$1+$1,$2,$3*
1,1,$1+$1,$4,$5*
1,1,$1+$1,$6,$7*
1,1,$1+$1,$8,$9*
0 Add four rect primitives between the rounded corners*
20,1,$1+$1,$2,$3,$4,$5,0*
20,1,$1+$1,$4,$5,$6,$7,0*
20,1,$1+$1,$6,$7,$8,$9,0*
20,1,$1+$1,$8,$9,$2,$3,0*%
G04 Aperture macros list end*
G04 #@! TA.AperFunction,ComponentPad*
%ADD10C,1.600000*%
G04 #@! TD*
G04 #@! TA.AperFunction,ComponentPad*
%ADD11O,1.600000X1.600000*%
G04 #@! TD*
G04 #@! TA.AperFunction,ComponentPad*
%ADD12R,1.600000X1.600000*%
G04 #@! TD*
G04 #@! TA.AperFunction,ComponentPad*
%ADD13R,1.800000X1.800000*%
G04 #@! TD*
G04 #@! TA.AperFunction,ComponentPad*
%ADD14C,1.800000*%
G04 #@! TD*
G04 #@! TA.AperFunction,ComponentPad*
%ADD15O,2.200000X3.500000*%
G04 #@! TD*
G04 #@! TA.AperFunction,ComponentPad*
%ADD16R,1.500000X2.500000*%
G04 #@! TD*
G04 #@! TA.AperFunction,ComponentPad*
%ADD17O,1.500000X2.500000*%
G04 #@! TD*
G04 #@! TA.AperFunction,ComponentPad*
%ADD18R,2.200000X2.200000*%
G04 #@! TD*
G04 #@! TA.AperFunction,ComponentPad*
%ADD19O,2.200000X2.200000*%
G04 #@! TD*
G04 #@! TA.AperFunction,ComponentPad*
%ADD20C,2.000000*%
G04 #@! TD*
G04 #@! TA.AperFunction,ComponentPad*
%ADD21RoundRect,0.249999X1.300001X1.300001X-1.300001X1.300001X-1.300001X-1.300001X1.300001X-1.300001X0*%
G04 #@! TD*
G04 #@! TA.AperFunction,ComponentPad*
%ADD22C,3.100000*%
G04 #@! TD*
G04 #@! TA.AperFunction,ComponentPad*
%ADD23R,3.000000X3.000000*%
G04 #@! TD*
G04 #@! TA.AperFunction,ComponentPad*
%ADD24C,3.000000*%
G04 #@! TD*
G04 #@! TA.AperFunction,Conductor*
%ADD25C,1.000000*%
G04 #@! TD*
G04 #@! TA.AperFunction,Conductor*
%ADD26C,0.500000*%
G04 #@! TD*
G04 APERTURE END LIST*
D10*
X110900000Y-84540000D03*
D11*
X110900000Y-82000000D03*
D10*
X110900000Y-89630000D03*
D11*
X110900000Y-87090000D03*
D12*
X106720000Y-89440000D03*
D11*
X106720000Y-86900000D03*
X106720000Y-84360000D03*
X106720000Y-81820000D03*
X99100000Y-81820000D03*
X99100000Y-84360000D03*
X99100000Y-86900000D03*
X99100000Y-89440000D03*
D13*
X130020000Y-76830000D03*
D14*
X132560000Y-76830000D03*
D15*
X117270000Y-98300000D03*
X125470000Y-98300000D03*
D16*
X119370000Y-98300000D03*
D17*
X121370000Y-98300000D03*
X123370000Y-98300000D03*
D13*
X110050000Y-97050000D03*
D14*
X107510000Y-97050000D03*
D10*
X113930000Y-82010000D03*
D11*
X113930000Y-89630000D03*
D18*
X88110000Y-86940000D03*
D19*
X95730000Y-86940000D03*
D20*
X97200000Y-66800000D03*
X103700000Y-66800000D03*
X97200000Y-71300000D03*
X103700000Y-71300000D03*
D12*
X91500000Y-76124264D03*
D10*
X91500000Y-74124264D03*
D13*
X136330000Y-73630000D03*
D14*
X138870000Y-73630000D03*
D10*
X95220000Y-93240000D03*
D11*
X87600000Y-93240000D03*
D10*
X113705000Y-94050000D03*
D11*
X116245000Y-94050000D03*
D13*
X136350000Y-86030000D03*
D14*
X138890000Y-86030000D03*
D12*
X119530000Y-72130000D03*
D11*
X119530000Y-74670000D03*
X119530000Y-77210000D03*
X119530000Y-79750000D03*
X119530000Y-82290000D03*
X119530000Y-84830000D03*
X119530000Y-87370000D03*
X119530000Y-89910000D03*
X119530000Y-92450000D03*
X127150000Y-92450000D03*
X127150000Y-89910000D03*
X127150000Y-87370000D03*
X127150000Y-84830000D03*
X127150000Y-82290000D03*
X127150000Y-79750000D03*
X127150000Y-77210000D03*
X127150000Y-74670000D03*
X127150000Y-72130000D03*
D13*
X136335000Y-92230000D03*
D14*
X138875000Y-92230000D03*
D10*
X108890000Y-77500000D03*
D11*
X116510000Y-77500000D03*
D21*
X114350000Y-68000000D03*
D22*
X108350000Y-68000000D03*
D10*
X88110000Y-83750000D03*
D11*
X95730000Y-83750000D03*
D13*
X130000000Y-83030000D03*
D14*
X132540000Y-83030000D03*
D10*
X96400000Y-80700000D03*
X91400000Y-80700000D03*
D18*
X95730000Y-90140000D03*
D19*
X88110000Y-90140000D03*
D10*
X99020000Y-92540000D03*
X104020000Y-92540000D03*
D13*
X130020000Y-70580000D03*
D14*
X132560000Y-70580000D03*
D10*
X116930000Y-89630000D03*
D11*
X116930000Y-82010000D03*
D13*
X136355000Y-79830000D03*
D14*
X138895000Y-79830000D03*
D13*
X136330000Y-67380000D03*
D14*
X138870000Y-67380000D03*
D13*
X129985000Y-95430000D03*
D14*
X132525000Y-95430000D03*
D10*
X99110000Y-78740000D03*
D11*
X106730000Y-78740000D03*
D13*
X129985000Y-89230000D03*
D14*
X132525000Y-89230000D03*
D23*
X79550000Y-68050000D03*
D24*
X79550000Y-73050000D03*
X79550000Y-78050000D03*
D23*
X79550000Y-86550000D03*
D24*
X79550000Y-91550000D03*
X79550000Y-96550000D03*
D25*
X110900000Y-84540000D02*
X110900000Y-87090000D01*
X97920000Y-80640000D02*
X99100000Y-81820000D01*
X96520000Y-80640000D02*
X97920000Y-80640000D01*
X79550000Y-73000000D02*
X82900000Y-76350000D01*
D26*
X106720000Y-86900000D02*
X104100000Y-86900000D01*
D25*
X91000000Y-76350000D02*
X107920000Y-76350000D01*
X82900000Y-76350000D02*
X91000000Y-76350000D01*
X100820000Y-76370000D02*
X100820000Y-82640000D01*
X100820000Y-82640000D02*
X99100000Y-84360000D01*
X107920000Y-76350000D02*
X108910000Y-77340000D01*
D26*
X101580000Y-84380000D02*
X99100000Y-84380000D01*
X104100000Y-86900000D02*
X101580000Y-84380000D01*
D25*
X136330000Y-73630000D02*
X128190000Y-73630000D01*
X128190000Y-73630000D02*
X127150000Y-74670000D01*
X127780000Y-80380000D02*
X127150000Y-79750000D01*
X136310000Y-80380000D02*
X127780000Y-80380000D01*
X127150000Y-84830000D02*
X128350000Y-86030000D01*
X128350000Y-86030000D02*
X136350000Y-86030000D01*
X127150000Y-90230000D02*
X127150000Y-89910000D01*
X136335000Y-92230000D02*
X135985000Y-91880000D01*
X135985000Y-91880000D02*
X128800000Y-91880000D01*
X128800000Y-91880000D02*
X127150000Y-90230000D01*
X95730000Y-83750000D02*
X95730000Y-86940000D01*
X95730000Y-90140000D02*
X95730000Y-86940000D01*
X88110000Y-86940000D02*
X87670000Y-86500000D01*
X87670000Y-86500000D02*
X79550000Y-86500000D01*
X106730000Y-78740000D02*
X106730000Y-81810000D01*
X106730000Y-81810000D02*
X106720000Y-81820000D01*
X97200000Y-71300000D02*
X103700000Y-71300000D01*
X119530000Y-84830000D02*
X119530000Y-87370000D01*
X119550000Y-98120000D02*
X119370000Y-98300000D01*
X119530000Y-92450000D02*
X119550000Y-92470000D01*
X119550000Y-92470000D02*
X119550000Y-98120000D01*
X110930000Y-82010000D02*
X113930000Y-82010000D01*
X113930000Y-82010000D02*
X116190000Y-79750000D01*
X116190000Y-79750000D02*
X119220000Y-79750000D01*
G04 #@! TA.AperFunction,Conductor*
G36*
X91345606Y-74497005D02*
G01*
X91447339Y-74524264D01*
X91552661Y-74524264D01*
X91654394Y-74497005D01*
X91745598Y-74444348D01*
X91587680Y-74602267D01*
X91526357Y-74635752D01*
X91456665Y-74630768D01*
X91412318Y-74602267D01*
X91254396Y-74444345D01*
X91345606Y-74497005D01*
G37*
G04 #@! TD.AperFunction*
G04 #@! TA.AperFunction,Conductor*
G36*
X137851565Y-63799018D02*
G01*
X138181537Y-63816315D01*
X138194409Y-63817668D01*
X138517531Y-63868850D01*
X138530219Y-63871546D01*
X138846214Y-63956220D01*
X138858558Y-63960231D01*
X139163965Y-64077469D01*
X139175821Y-64082748D01*
X139179030Y-64084383D01*
X139467301Y-64231265D01*
X139478533Y-64237750D01*
X139752900Y-64415928D01*
X139763396Y-64423554D01*
X140017629Y-64629429D01*
X140027274Y-64638114D01*
X140258585Y-64869425D01*
X140267270Y-64879070D01*
X140473145Y-65133303D01*
X140480774Y-65143803D01*
X140658946Y-65418161D01*
X140665436Y-65429402D01*
X140813951Y-65720878D01*
X140819230Y-65732734D01*
X140936468Y-66038141D01*
X140940479Y-66050485D01*
X141025152Y-66366478D01*
X141027850Y-66379173D01*
X141063081Y-66601593D01*
X141071086Y-66652134D01*
X141079028Y-66702270D01*
X141080385Y-66715179D01*
X141095959Y-67012292D01*
X141097680Y-67045113D01*
X141097850Y-67051604D01*
X141097850Y-97495095D01*
X141097680Y-97501586D01*
X141080385Y-97831520D01*
X141079028Y-97844427D01*
X141074942Y-97870222D01*
X141027850Y-98167526D01*
X141025152Y-98180221D01*
X140940479Y-98496214D01*
X140936468Y-98508558D01*
X140819230Y-98813965D01*
X140813951Y-98825821D01*
X140665436Y-99117297D01*
X140658946Y-99128538D01*
X140480774Y-99402896D01*
X140473145Y-99413396D01*
X140267270Y-99667629D01*
X140258585Y-99677274D01*
X140027274Y-99908585D01*
X140017629Y-99917270D01*
X139763396Y-100123145D01*
X139752896Y-100130774D01*
X139478538Y-100308946D01*
X139467297Y-100315436D01*
X139175821Y-100463951D01*
X139163965Y-100469230D01*
X138858558Y-100586468D01*
X138846214Y-100590479D01*
X138530221Y-100675152D01*
X138517526Y-100677850D01*
X138194429Y-100729028D01*
X138181520Y-100730385D01*
X137851584Y-100747679D01*
X137845106Y-100747849D01*
X137835645Y-100747849D01*
X137835634Y-100747850D01*
X137835626Y-100747850D01*
X137782451Y-100747851D01*
X137782448Y-100747851D01*
X78705775Y-100749500D01*
X78703246Y-100749500D01*
X78696756Y-100749330D01*
X78366821Y-100732038D01*
X78353913Y-100730681D01*
X78030815Y-100679508D01*
X78018119Y-100676810D01*
X77702124Y-100592139D01*
X77689781Y-100588128D01*
X77384377Y-100470895D01*
X77372519Y-100465616D01*
X77081029Y-100317094D01*
X77069810Y-100310617D01*
X76795438Y-100132438D01*
X76784944Y-100124813D01*
X76530706Y-99918935D01*
X76521061Y-99910250D01*
X76289749Y-99678938D01*
X76281064Y-99669293D01*
X76075186Y-99415055D01*
X76067564Y-99404565D01*
X75889378Y-99130183D01*
X75882908Y-99118977D01*
X75850965Y-99056286D01*
X115919500Y-99056286D01*
X115945049Y-99217600D01*
X115952754Y-99266243D01*
X116011275Y-99446352D01*
X116018444Y-99468414D01*
X116114951Y-99657820D01*
X116239890Y-99829786D01*
X116390213Y-99980109D01*
X116562179Y-100105048D01*
X116562181Y-100105049D01*
X116562184Y-100105051D01*
X116751588Y-100201557D01*
X116953757Y-100267246D01*
X117163713Y-100300500D01*
X117163714Y-100300500D01*
X117376286Y-100300500D01*
X117376287Y-100300500D01*
X117586243Y-100267246D01*
X117788412Y-100201557D01*
X117977816Y-100105051D01*
X117999789Y-100089086D01*
X118149786Y-99980109D01*
X118149788Y-99980106D01*
X118149792Y-99980104D01*
X118300104Y-99829792D01*
X118324063Y-99796814D01*
X118379390Y-99754149D01*
X118449004Y-99748168D01*
X118493271Y-99766597D01*
X118522256Y-99785964D01*
X118522258Y-99785964D01*
X118522260Y-99785966D01*
X118522262Y-99785966D01*
X118522264Y-99785967D01*
X118595321Y-99800499D01*
X118595324Y-99800500D01*
X118595326Y-99800500D01*
X120144676Y-99800500D01*
X120144677Y-99800499D01*
X120217740Y-99785966D01*
X120300601Y-99730601D01*
X120355966Y-99647740D01*
X120370500Y-99574674D01*
X120370500Y-99513391D01*
X120390185Y-99446352D01*
X120442989Y-99400597D01*
X120512147Y-99390653D01*
X120575703Y-99419678D01*
X120590357Y-99434730D01*
X120592859Y-99437779D01*
X120592860Y-99437781D01*
X120592868Y-99437790D01*
X120732214Y-99577136D01*
X120732218Y-99577139D01*
X120896079Y-99686628D01*
X120896092Y-99686635D01*
X121078160Y-99762049D01*
X121078165Y-99762051D01*
X121078169Y-99762051D01*
X121078170Y-99762052D01*
X121271456Y-99800500D01*
X121271459Y-99800500D01*
X121468543Y-99800500D01*
X121598582Y-99774632D01*
X121661835Y-99762051D01*
X121843914Y-99686632D01*
X122007782Y-99577139D01*
X122147139Y-99437782D01*
X122256632Y-99273914D01*
X122256634Y-99273907D01*
X122259502Y-99268544D01*
X122261310Y-99269510D01*
X122299272Y-99222397D01*
X122365564Y-99200326D01*
X122433265Y-99217600D01*
X122480879Y-99268734D01*
X122482522Y-99272331D01*
X122483371Y-99273920D01*
X122592860Y-99437781D01*
X122592863Y-99437785D01*
X122732214Y-99577136D01*
X122732218Y-99577139D01*
X122896079Y-99686628D01*
X122896092Y-99686635D01*
X123078160Y-99762049D01*
X123078165Y-99762051D01*
X123078169Y-99762051D01*
X123078170Y-99762052D01*
X123271456Y-99800500D01*
X123271459Y-99800500D01*
X123468543Y-99800500D01*
X123598582Y-99774632D01*
X123661835Y-99762051D01*
X123843914Y-99686632D01*
X124007782Y-99577139D01*
X124063354Y-99521566D01*
X124124675Y-99488083D01*
X124194367Y-99493067D01*
X124250300Y-99534938D01*
X124261519Y-99552954D01*
X124273842Y-99577139D01*
X124309812Y-99647735D01*
X124314951Y-99657819D01*
X124439890Y-99829786D01*
X124590213Y-99980109D01*
X124762179Y-100105048D01*
X124762181Y-100105049D01*
X124762184Y-100105051D01*
X124951588Y-100201557D01*
X125153757Y-100267246D01*
X125363713Y-100300500D01*
X125363714Y-100300500D01*
X125576286Y-100300500D01*
X125576287Y-100300500D01*
X125786243Y-100267246D01*
X125988412Y-100201557D01*
X126177816Y-100105051D01*
X126199789Y-100089086D01*
X126349786Y-99980109D01*
X126349788Y-99980106D01*
X126349792Y-99980104D01*
X126500104Y-99829792D01*
X126500106Y-99829788D01*
X126500109Y-99829786D01*
X126614255Y-99672676D01*
X126625051Y-99657816D01*
X126721557Y-99468412D01*
X126787246Y-99266243D01*
X126820500Y-99056287D01*
X126820500Y-97543713D01*
X126787246Y-97333757D01*
X126721557Y-97131588D01*
X126625051Y-96942184D01*
X126625049Y-96942181D01*
X126625048Y-96942179D01*
X126500109Y-96770213D01*
X126349786Y-96619890D01*
X126177820Y-96494951D01*
X125988414Y-96398444D01*
X125988413Y-96398443D01*
X125988412Y-96398443D01*
X125853718Y-96354678D01*
X128834500Y-96354678D01*
X128849032Y-96427735D01*
X128849033Y-96427739D01*
X128849034Y-96427740D01*
X128904399Y-96510601D01*
X128963365Y-96550000D01*
X128987260Y-96565966D01*
X128987264Y-96565967D01*
X129060321Y-96580499D01*
X129060324Y-96580500D01*
X129060326Y-96580500D01*
X130909676Y-96580500D01*
X130909677Y-96580499D01*
X130982740Y-96565966D01*
X131065601Y-96510601D01*
X131120966Y-96427740D01*
X131135500Y-96354674D01*
X131135500Y-95586053D01*
X131155185Y-95519014D01*
X131207989Y-95473259D01*
X131277147Y-95463315D01*
X131340703Y-95492340D01*
X131378477Y-95551118D01*
X131382971Y-95574612D01*
X131389244Y-95642310D01*
X131447596Y-95847392D01*
X131447596Y-95847394D01*
X131542632Y-96038253D01*
X131671127Y-96208406D01*
X131671128Y-96208407D01*
X131828698Y-96352052D01*
X132009981Y-96464298D01*
X132208802Y-96541321D01*
X132418390Y-96580500D01*
X132418392Y-96580500D01*
X132631608Y-96580500D01*
X132631610Y-96580500D01*
X132841198Y-96541321D01*
X133040019Y-96464298D01*
X133221302Y-96352052D01*
X133378872Y-96208407D01*
X133507366Y-96038255D01*
X133518596Y-96015702D01*
X133602403Y-95847394D01*
X133602403Y-95847393D01*
X133602405Y-95847389D01*
X133660756Y-95642310D01*
X133680429Y-95430000D01*
X133660756Y-95217690D01*
X133602405Y-95012611D01*
X133602403Y-95012606D01*
X133602403Y-95012605D01*
X133507367Y-94821746D01*
X133378872Y-94651593D01*
X133362261Y-94636450D01*
X133221302Y-94507948D01*
X133040019Y-94395702D01*
X133040017Y-94395701D01*
X132920496Y-94349399D01*
X132841198Y-94318679D01*
X132631610Y-94279500D01*
X132418390Y-94279500D01*
X132208802Y-94318679D01*
X132208799Y-94318679D01*
X132208799Y-94318680D01*
X132009982Y-94395701D01*
X132009980Y-94395702D01*
X131828699Y-94507947D01*
X131671127Y-94651593D01*
X131542632Y-94821746D01*
X131447596Y-95012605D01*
X131447596Y-95012607D01*
X131389244Y-95217689D01*
X131382971Y-95285387D01*
X131357185Y-95350324D01*
X131300384Y-95391012D01*
X131230604Y-95394532D01*
X131169997Y-95359767D01*
X131137807Y-95297754D01*
X131135500Y-95273946D01*
X131135500Y-94505323D01*
X131135499Y-94505321D01*
X131120967Y-94432264D01*
X131120966Y-94432260D01*
X131079419Y-94370080D01*
X131065601Y-94349399D01*
X131010235Y-94312405D01*
X130982739Y-94294033D01*
X130982735Y-94294032D01*
X130909677Y-94279500D01*
X130909674Y-94279500D01*
X129060326Y-94279500D01*
X129060323Y-94279500D01*
X128987264Y-94294032D01*
X128987260Y-94294033D01*
X128904399Y-94349399D01*
X128849033Y-94432260D01*
X128849032Y-94432264D01*
X128834500Y-94505321D01*
X128834500Y-96354678D01*
X125853718Y-96354678D01*
X125786243Y-96332754D01*
X125786241Y-96332753D01*
X125786240Y-96332753D01*
X125624957Y-96307208D01*
X125576287Y-96299500D01*
X125363713Y-96299500D01*
X125315042Y-96307208D01*
X125153760Y-96332753D01*
X124951585Y-96398444D01*
X124762179Y-96494951D01*
X124590213Y-96619890D01*
X124439890Y-96770213D01*
X124314948Y-96942184D01*
X124314947Y-96942185D01*
X124261518Y-97047045D01*
X124213544Y-97097841D01*
X124145723Y-97114636D01*
X124079588Y-97092098D01*
X124063353Y-97078431D01*
X124007785Y-97022863D01*
X124007781Y-97022860D01*
X123843920Y-96913371D01*
X123843907Y-96913364D01*
X123661839Y-96837950D01*
X123661829Y-96837947D01*
X123468543Y-96799500D01*
X123468541Y-96799500D01*
X123271459Y-96799500D01*
X123271457Y-96799500D01*
X123078170Y-96837947D01*
X123078160Y-96837950D01*
X122896092Y-96913364D01*
X122896079Y-96913371D01*
X122732218Y-97022860D01*
X122732214Y-97022863D01*
X122592863Y-97162214D01*
X122592860Y-97162218D01*
X122483371Y-97326079D01*
X122480498Y-97331456D01*
X122478691Y-97330490D01*
X122440715Y-97377612D01*
X122374420Y-97399673D01*
X122306721Y-97382391D01*
X122259113Y-97331251D01*
X122257473Y-97327660D01*
X122256628Y-97326079D01*
X122147139Y-97162218D01*
X122147136Y-97162214D01*
X122007785Y-97022863D01*
X122007781Y-97022860D01*
X121843920Y-96913371D01*
X121843907Y-96913364D01*
X121661839Y-96837950D01*
X121661829Y-96837947D01*
X121468543Y-96799500D01*
X121468541Y-96799500D01*
X121271459Y-96799500D01*
X121271457Y-96799500D01*
X121078170Y-96837947D01*
X121078160Y-96837950D01*
X120896092Y-96913364D01*
X120896079Y-96913371D01*
X120732218Y-97022860D01*
X120732214Y-97022863D01*
X120592865Y-97162212D01*
X120590352Y-97165275D01*
X120588630Y-97166447D01*
X120588553Y-97166525D01*
X120588538Y-97166510D01*
X120532605Y-97204608D01*
X120462761Y-97206477D01*
X120402993Y-97170289D01*
X120372278Y-97107532D01*
X120370500Y-97086608D01*
X120370500Y-97025323D01*
X120370499Y-97025321D01*
X120355967Y-96952264D01*
X120355966Y-96952260D01*
X120321397Y-96900523D01*
X120300520Y-96833845D01*
X120300500Y-96831633D01*
X120300500Y-93211424D01*
X120320185Y-93144385D01*
X120328647Y-93132759D01*
X120358711Y-93096124D01*
X120407685Y-93036450D01*
X120505232Y-92853954D01*
X120565300Y-92655934D01*
X120585583Y-92450000D01*
X126094417Y-92450000D01*
X126114699Y-92655932D01*
X126128974Y-92702989D01*
X126174768Y-92853954D01*
X126272315Y-93036450D01*
X126283716Y-93050342D01*
X126403589Y-93196410D01*
X126463782Y-93245808D01*
X126563550Y-93327685D01*
X126746046Y-93425232D01*
X126944066Y-93485300D01*
X126944065Y-93485300D01*
X126962529Y-93487118D01*
X127150000Y-93505583D01*
X127355934Y-93485300D01*
X127553954Y-93425232D01*
X127736450Y-93327685D01*
X127896410Y-93196410D01*
X128027685Y-93036450D01*
X128125232Y-92853954D01*
X128185300Y-92655934D01*
X128191270Y-92595311D01*
X128217430Y-92530527D01*
X128274464Y-92490167D01*
X128344264Y-92487050D01*
X128383564Y-92504365D01*
X128444498Y-92545080D01*
X128444511Y-92545087D01*
X128559366Y-92592661D01*
X128581087Y-92601658D01*
X128581091Y-92601658D01*
X128581092Y-92601659D01*
X128726079Y-92630500D01*
X128726082Y-92630500D01*
X128873917Y-92630500D01*
X135060500Y-92630500D01*
X135127539Y-92650185D01*
X135173294Y-92702989D01*
X135184500Y-92754500D01*
X135184500Y-93154678D01*
X135199032Y-93227735D01*
X135199033Y-93227739D01*
X135199034Y-93227740D01*
X135254399Y-93310601D01*
X135300373Y-93341319D01*
X135337260Y-93365966D01*
X135337264Y-93365967D01*
X135410321Y-93380499D01*
X135410324Y-93380500D01*
X135410326Y-93380500D01*
X137259676Y-93380500D01*
X137259677Y-93380499D01*
X137332740Y-93365966D01*
X137415601Y-93310601D01*
X137470966Y-93227740D01*
X137485500Y-93154674D01*
X137485500Y-92386053D01*
X137505185Y-92319014D01*
X137557989Y-92273259D01*
X137627147Y-92263315D01*
X137690703Y-92292340D01*
X137728477Y-92351118D01*
X137732970Y-92374611D01*
X137739244Y-92442310D01*
X137784583Y-92601659D01*
X137797596Y-92647392D01*
X137797596Y-92647394D01*
X137892632Y-92838253D01*
X137969469Y-92940000D01*
X138021128Y-93008407D01*
X138178698Y-93152052D01*
X138359981Y-93264298D01*
X138558802Y-93341321D01*
X138768390Y-93380500D01*
X138768392Y-93380500D01*
X138981608Y-93380500D01*
X138981610Y-93380500D01*
X139191198Y-93341321D01*
X139390019Y-93264298D01*
X139571302Y-93152052D01*
X139728872Y-93008407D01*
X139857366Y-92838255D01*
X139903337Y-92745932D01*
X139952403Y-92647394D01*
X139952403Y-92647393D01*
X139952405Y-92647389D01*
X140010756Y-92442310D01*
X140030429Y-92230000D01*
X140010756Y-92017690D01*
X139952405Y-91812611D01*
X139952403Y-91812606D01*
X139952403Y-91812605D01*
X139857367Y-91621746D01*
X139728872Y-91451593D01*
X139571302Y-91307948D01*
X139390019Y-91195702D01*
X139390017Y-91195701D01*
X139219130Y-91129500D01*
X139191198Y-91118679D01*
X138981610Y-91079500D01*
X138768390Y-91079500D01*
X138558802Y-91118679D01*
X138558799Y-91118679D01*
X138558799Y-91118680D01*
X138359982Y-91195701D01*
X138359980Y-91195702D01*
X138178699Y-91307947D01*
X138021127Y-91451593D01*
X137892632Y-91621746D01*
X137797596Y-91812605D01*
X137797596Y-91812607D01*
X137739244Y-92017689D01*
X137732971Y-92085387D01*
X137707185Y-92150324D01*
X137650384Y-92191012D01*
X137580604Y-92194532D01*
X137519997Y-92159767D01*
X137487807Y-92097754D01*
X137485500Y-92073946D01*
X137485500Y-91305323D01*
X137485499Y-91305321D01*
X137470967Y-91232264D01*
X137470966Y-91232260D01*
X137446538Y-91195701D01*
X137415601Y-91149399D01*
X137356358Y-91109815D01*
X137332739Y-91094033D01*
X137332735Y-91094032D01*
X137259677Y-91079500D01*
X137259674Y-91079500D01*
X135410326Y-91079500D01*
X135410324Y-91079500D01*
X135337261Y-91094033D01*
X135337260Y-91094034D01*
X135315454Y-91108603D01*
X135248778Y-91129480D01*
X135246566Y-91129500D01*
X129162229Y-91129500D01*
X129095190Y-91109815D01*
X129074548Y-91093181D01*
X128217373Y-90236005D01*
X128183888Y-90174682D01*
X128184693Y-90154678D01*
X128834500Y-90154678D01*
X128849032Y-90227735D01*
X128849033Y-90227739D01*
X128849034Y-90227740D01*
X128904399Y-90310601D01*
X128972366Y-90356014D01*
X128987260Y-90365966D01*
X128987264Y-90365967D01*
X129060321Y-90380499D01*
X129060324Y-90380500D01*
X129060326Y-90380500D01*
X130909676Y-90380500D01*
X130909677Y-90380499D01*
X130982740Y-90365966D01*
X131065601Y-90310601D01*
X131120966Y-90227740D01*
X131135500Y-90154674D01*
X131135500Y-89386053D01*
X131155185Y-89319014D01*
X131207989Y-89273259D01*
X131277147Y-89263315D01*
X131340703Y-89292340D01*
X131378477Y-89351118D01*
X131382970Y-89374611D01*
X131389244Y-89442310D01*
X131447180Y-89645932D01*
X131447596Y-89647392D01*
X131447596Y-89647394D01*
X131542632Y-89838253D01*
X131601297Y-89915937D01*
X131671128Y-90008407D01*
X131828698Y-90152052D01*
X132009981Y-90264298D01*
X132208802Y-90341321D01*
X132418390Y-90380500D01*
X132418392Y-90380500D01*
X132631608Y-90380500D01*
X132631610Y-90380500D01*
X132841198Y-90341321D01*
X133040019Y-90264298D01*
X133221302Y-90152052D01*
X133378872Y-90008407D01*
X133507366Y-89838255D01*
X133520070Y-89812741D01*
X133602403Y-89647394D01*
X133602403Y-89647393D01*
X133602405Y-89647389D01*
X133660756Y-89442310D01*
X133680429Y-89230000D01*
X133660756Y-89017690D01*
X133602405Y-88812611D01*
X133602403Y-88812606D01*
X133602403Y-88812605D01*
X133507367Y-88621746D01*
X133378872Y-88451593D01*
X133221302Y-88307948D01*
X133040019Y-88195702D01*
X133040017Y-88195701D01*
X132940608Y-88157190D01*
X132841198Y-88118679D01*
X132631610Y-88079500D01*
X132418390Y-88079500D01*
X132208802Y-88118679D01*
X132208799Y-88118679D01*
X132208799Y-88118680D01*
X132009982Y-88195701D01*
X132009980Y-88195702D01*
X131828699Y-88307947D01*
X131671127Y-88451593D01*
X131542632Y-88621746D01*
X131447596Y-88812605D01*
X131447596Y-88812607D01*
X131389244Y-89017689D01*
X131382971Y-89085387D01*
X131357185Y-89150324D01*
X131300384Y-89191012D01*
X131230604Y-89194532D01*
X131169997Y-89159767D01*
X131137807Y-89097754D01*
X131135500Y-89073946D01*
X131135500Y-88305323D01*
X131135499Y-88305321D01*
X131120967Y-88232264D01*
X131120966Y-88232260D01*
X131065601Y-88149399D01*
X130982740Y-88094034D01*
X130982739Y-88094033D01*
X130982735Y-88094032D01*
X130909677Y-88079500D01*
X130909674Y-88079500D01*
X129060326Y-88079500D01*
X129060323Y-88079500D01*
X128987264Y-88094032D01*
X128987260Y-88094033D01*
X128904399Y-88149399D01*
X128849033Y-88232260D01*
X128849032Y-88232264D01*
X128834500Y-88305321D01*
X128834500Y-90154678D01*
X128184693Y-90154678D01*
X128185997Y-90122282D01*
X128184112Y-90121907D01*
X128185300Y-90115934D01*
X128193374Y-90033954D01*
X128205583Y-89910000D01*
X128185300Y-89704066D01*
X128125232Y-89506046D01*
X128027685Y-89323550D01*
X127947664Y-89226043D01*
X127896410Y-89163589D01*
X127745814Y-89040000D01*
X127736450Y-89032315D01*
X127553954Y-88934768D01*
X127355934Y-88874700D01*
X127355932Y-88874699D01*
X127355934Y-88874699D01*
X127150000Y-88854417D01*
X126944067Y-88874699D01*
X126746043Y-88934769D01*
X126687677Y-88965967D01*
X126563550Y-89032315D01*
X126563548Y-89032316D01*
X126563547Y-89032317D01*
X126403589Y-89163589D01*
X126272317Y-89323547D01*
X126272315Y-89323550D01*
X126245022Y-89374612D01*
X126174769Y-89506043D01*
X126114699Y-89704067D01*
X126094417Y-89910000D01*
X126114699Y-90115932D01*
X126132521Y-90174682D01*
X126174768Y-90313954D01*
X126272315Y-90496450D01*
X126306969Y-90538677D01*
X126403589Y-90656410D01*
X126497642Y-90733596D01*
X126563550Y-90787685D01*
X126563552Y-90787686D01*
X126563555Y-90787688D01*
X126725137Y-90874056D01*
X126754365Y-90895733D01*
X127058423Y-91199791D01*
X127091908Y-91261114D01*
X127086924Y-91330806D01*
X127045052Y-91386739D01*
X126982897Y-91410875D01*
X126944067Y-91414699D01*
X126746043Y-91474769D01*
X126635898Y-91533643D01*
X126563550Y-91572315D01*
X126563548Y-91572316D01*
X126563547Y-91572317D01*
X126403589Y-91703589D01*
X126272317Y-91863547D01*
X126174769Y-92046043D01*
X126114699Y-92244067D01*
X126094417Y-92450000D01*
X120585583Y-92450000D01*
X120565300Y-92244066D01*
X120505232Y-92046046D01*
X120407685Y-91863550D01*
X120350270Y-91793589D01*
X120276410Y-91703589D01*
X120116452Y-91572317D01*
X120116453Y-91572317D01*
X120116450Y-91572315D01*
X119933954Y-91474768D01*
X119735934Y-91414700D01*
X119735932Y-91414699D01*
X119735934Y-91414699D01*
X119530000Y-91394417D01*
X119324067Y-91414699D01*
X119126043Y-91474769D01*
X119015898Y-91533643D01*
X118943550Y-91572315D01*
X118943548Y-91572316D01*
X118943547Y-91572317D01*
X118783589Y-91703589D01*
X118652317Y-91863547D01*
X118554769Y-92046043D01*
X118494699Y-92244067D01*
X118474417Y-92450000D01*
X118494699Y-92655932D01*
X118508974Y-92702989D01*
X118554768Y-92853954D01*
X118651041Y-93034067D01*
X118652317Y-93036453D01*
X118683762Y-93074769D01*
X118771353Y-93181500D01*
X118798666Y-93245808D01*
X118799500Y-93260163D01*
X118799500Y-96675500D01*
X118779815Y-96742539D01*
X118727011Y-96788294D01*
X118675500Y-96799500D01*
X118595323Y-96799500D01*
X118522264Y-96814032D01*
X118522261Y-96814033D01*
X118493270Y-96833404D01*
X118426592Y-96854280D01*
X118359212Y-96835794D01*
X118324062Y-96803184D01*
X118300104Y-96770208D01*
X118149792Y-96619896D01*
X118149786Y-96619890D01*
X117977820Y-96494951D01*
X117788414Y-96398444D01*
X117788413Y-96398443D01*
X117788412Y-96398443D01*
X117586243Y-96332754D01*
X117586241Y-96332753D01*
X117586240Y-96332753D01*
X117424957Y-96307208D01*
X117376287Y-96299500D01*
X117163713Y-96299500D01*
X117115042Y-96307208D01*
X116953760Y-96332753D01*
X116751585Y-96398444D01*
X116562179Y-96494951D01*
X116390213Y-96619890D01*
X116239890Y-96770213D01*
X116114951Y-96942179D01*
X116018444Y-97131585D01*
X115952753Y-97333760D01*
X115919500Y-97543713D01*
X115919500Y-99056286D01*
X75850965Y-99056286D01*
X75734378Y-98827470D01*
X75729104Y-98815622D01*
X75611871Y-98510218D01*
X75607860Y-98497875D01*
X75554973Y-98300500D01*
X75523187Y-98181874D01*
X75520491Y-98169184D01*
X75520228Y-98167526D01*
X75469318Y-97846086D01*
X75467961Y-97833178D01*
X75450670Y-97503243D01*
X75450500Y-97496753D01*
X75450500Y-96550004D01*
X77794592Y-96550004D01*
X77814196Y-96811620D01*
X77814197Y-96811625D01*
X77814197Y-96811629D01*
X77814198Y-96811630D01*
X77819713Y-96835794D01*
X77872576Y-97067402D01*
X77872578Y-97067411D01*
X77872580Y-97067416D01*
X77968432Y-97311643D01*
X78099614Y-97538857D01*
X78194829Y-97658253D01*
X78263198Y-97743985D01*
X78364532Y-97838008D01*
X78455521Y-97922433D01*
X78672296Y-98070228D01*
X78672301Y-98070230D01*
X78672302Y-98070231D01*
X78672303Y-98070232D01*
X78797660Y-98130600D01*
X78908673Y-98184061D01*
X78908674Y-98184061D01*
X78908677Y-98184063D01*
X79159385Y-98261396D01*
X79418818Y-98300500D01*
X79681182Y-98300500D01*
X79940615Y-98261396D01*
X80191323Y-98184063D01*
X80398487Y-98084298D01*
X80427696Y-98070232D01*
X80427696Y-98070231D01*
X80427704Y-98070228D01*
X80644479Y-97922433D01*
X80836805Y-97743981D01*
X81000386Y-97538857D01*
X81131568Y-97311643D01*
X81227420Y-97067416D01*
X81231395Y-97050000D01*
X106354571Y-97050000D01*
X106374244Y-97262310D01*
X106432596Y-97467392D01*
X106432596Y-97467394D01*
X106527632Y-97658253D01*
X106592375Y-97743985D01*
X106656128Y-97828407D01*
X106813698Y-97972052D01*
X106994981Y-98084298D01*
X107193802Y-98161321D01*
X107403390Y-98200500D01*
X107403392Y-98200500D01*
X107616608Y-98200500D01*
X107616610Y-98200500D01*
X107826198Y-98161321D01*
X108025019Y-98084298D01*
X108206302Y-97972052D01*
X108363872Y-97828407D01*
X108492366Y-97658255D01*
X108539177Y-97564245D01*
X108587403Y-97467394D01*
X108587403Y-97467393D01*
X108587405Y-97467389D01*
X108645756Y-97262310D01*
X108652029Y-97194611D01*
X108677815Y-97129675D01*
X108734615Y-97088987D01*
X108804396Y-97085467D01*
X108865003Y-97120232D01*
X108897193Y-97182245D01*
X108899500Y-97206053D01*
X108899500Y-97974678D01*
X108914032Y-98047735D01*
X108914033Y-98047739D01*
X108914034Y-98047740D01*
X108969399Y-98130601D01*
X109043662Y-98180221D01*
X109052260Y-98185966D01*
X109052264Y-98185967D01*
X109125321Y-98200499D01*
X109125324Y-98200500D01*
X109125326Y-98200500D01*
X110974676Y-98200500D01*
X110974677Y-98200499D01*
X111047740Y-98185966D01*
X111130601Y-98130601D01*
X111185966Y-98047740D01*
X111200500Y-97974674D01*
X111200500Y-96125326D01*
X111200500Y-96125323D01*
X111200499Y-96125321D01*
X111185967Y-96052264D01*
X111185966Y-96052260D01*
X111161538Y-96015701D01*
X111130601Y-95969399D01*
X111047740Y-95914034D01*
X111047739Y-95914033D01*
X111047735Y-95914032D01*
X110974677Y-95899500D01*
X110974674Y-95899500D01*
X109125326Y-95899500D01*
X109125323Y-95899500D01*
X109052264Y-95914032D01*
X109052260Y-95914033D01*
X108969399Y-95969399D01*
X108914033Y-96052260D01*
X108914032Y-96052264D01*
X108899500Y-96125321D01*
X108899500Y-96893946D01*
X108879815Y-96960985D01*
X108827011Y-97006740D01*
X108757853Y-97016684D01*
X108694297Y-96987659D01*
X108656523Y-96928881D01*
X108652029Y-96905387D01*
X108648694Y-96869399D01*
X108645756Y-96837690D01*
X108587405Y-96632611D01*
X108587403Y-96632606D01*
X108587403Y-96632605D01*
X108492367Y-96441746D01*
X108363872Y-96271593D01*
X108206302Y-96127948D01*
X108025019Y-96015702D01*
X108025017Y-96015701D01*
X107905496Y-95969399D01*
X107826198Y-95938679D01*
X107616610Y-95899500D01*
X107403390Y-95899500D01*
X107193802Y-95938679D01*
X107193799Y-95938679D01*
X107193799Y-95938680D01*
X106994982Y-96015701D01*
X106994980Y-96015702D01*
X106813699Y-96127947D01*
X106656127Y-96271593D01*
X106527632Y-96441746D01*
X106432596Y-96632605D01*
X106432596Y-96632607D01*
X106374244Y-96837689D01*
X106354571Y-97049999D01*
X106354571Y-97050000D01*
X81231395Y-97050000D01*
X81285802Y-96811630D01*
X81290980Y-96742539D01*
X81305408Y-96550004D01*
X81305408Y-96549995D01*
X81285803Y-96288379D01*
X81285802Y-96288374D01*
X81285802Y-96288370D01*
X81227420Y-96032584D01*
X81131568Y-95788357D01*
X81000386Y-95561143D01*
X80836805Y-95356019D01*
X80836804Y-95356018D01*
X80836801Y-95356014D01*
X80644479Y-95177567D01*
X80538898Y-95105583D01*
X80427704Y-95029772D01*
X80427700Y-95029770D01*
X80427697Y-95029768D01*
X80427696Y-95029767D01*
X80191325Y-94915938D01*
X80191327Y-94915938D01*
X79940623Y-94838606D01*
X79940619Y-94838605D01*
X79940615Y-94838604D01*
X79815823Y-94819794D01*
X79681187Y-94799500D01*
X79681182Y-94799500D01*
X79418818Y-94799500D01*
X79418812Y-94799500D01*
X79271228Y-94821746D01*
X79159385Y-94838604D01*
X79159382Y-94838605D01*
X79159376Y-94838606D01*
X78908673Y-94915938D01*
X78672303Y-95029767D01*
X78672302Y-95029768D01*
X78455520Y-95177567D01*
X78263198Y-95356014D01*
X78099614Y-95561143D01*
X77968432Y-95788356D01*
X77872582Y-96032578D01*
X77872576Y-96032597D01*
X77814197Y-96288374D01*
X77814196Y-96288379D01*
X77794592Y-96549995D01*
X77794592Y-96550004D01*
X75450500Y-96550004D01*
X75450500Y-91550004D01*
X77794592Y-91550004D01*
X77814196Y-91811620D01*
X77814197Y-91811625D01*
X77872576Y-92067402D01*
X77872578Y-92067411D01*
X77872580Y-92067416D01*
X77968432Y-92311643D01*
X78099614Y-92538857D01*
X78191079Y-92653550D01*
X78263198Y-92743985D01*
X78364796Y-92838253D01*
X78455521Y-92922433D01*
X78672296Y-93070228D01*
X78672301Y-93070230D01*
X78672302Y-93070231D01*
X78672303Y-93070232D01*
X78745923Y-93105685D01*
X78908673Y-93184061D01*
X78908674Y-93184061D01*
X78908677Y-93184063D01*
X79159385Y-93261396D01*
X79418818Y-93300500D01*
X79681182Y-93300500D01*
X79940615Y-93261396D01*
X80009979Y-93240000D01*
X86544417Y-93240000D01*
X86564699Y-93445932D01*
X86576641Y-93485300D01*
X86624768Y-93643954D01*
X86722315Y-93826450D01*
X86722317Y-93826452D01*
X86853589Y-93986410D01*
X86931075Y-94050000D01*
X87013550Y-94117685D01*
X87196046Y-94215232D01*
X87394066Y-94275300D01*
X87394065Y-94275300D01*
X87412529Y-94277118D01*
X87600000Y-94295583D01*
X87805934Y-94275300D01*
X88003954Y-94215232D01*
X88186450Y-94117685D01*
X88346410Y-93986410D01*
X88477685Y-93826450D01*
X88575232Y-93643954D01*
X88635300Y-93445934D01*
X88655583Y-93240000D01*
X94164417Y-93240000D01*
X94184699Y-93445932D01*
X94196641Y-93485300D01*
X94244768Y-93643954D01*
X94342315Y-93826450D01*
X94342317Y-93826452D01*
X94473589Y-93986410D01*
X94551075Y-94050000D01*
X94633550Y-94117685D01*
X94816046Y-94215232D01*
X95014066Y-94275300D01*
X95014065Y-94275300D01*
X95032529Y-94277118D01*
X95220000Y-94295583D01*
X95425934Y-94275300D01*
X95623954Y-94215232D01*
X95806450Y-94117685D01*
X95888925Y-94050000D01*
X112649417Y-94050000D01*
X112669699Y-94255932D01*
X112698052Y-94349399D01*
X112729768Y-94453954D01*
X112827315Y-94636450D01*
X112861969Y-94678677D01*
X112958589Y-94796410D01*
X113010005Y-94838605D01*
X113118550Y-94927685D01*
X113301046Y-95025232D01*
X113499066Y-95085300D01*
X113499065Y-95085300D01*
X113517529Y-95087118D01*
X113705000Y-95105583D01*
X113910934Y-95085300D01*
X114108954Y-95025232D01*
X114291450Y-94927685D01*
X114451410Y-94796410D01*
X114582685Y-94636450D01*
X114680232Y-94453954D01*
X114727891Y-94296839D01*
X114766187Y-94238403D01*
X114829999Y-94209946D01*
X114899066Y-94220505D01*
X114951460Y-94266729D01*
X114966326Y-94300742D01*
X115018731Y-94496319D01*
X115018734Y-94496326D01*
X115114865Y-94702482D01*
X115245342Y-94888820D01*
X115406179Y-95049657D01*
X115592517Y-95180134D01*
X115798675Y-95276267D01*
X115798678Y-95276268D01*
X115844999Y-95288679D01*
X115845000Y-95288679D01*
X115845000Y-94102661D01*
X115872259Y-94204394D01*
X115924920Y-94295606D01*
X115999394Y-94370080D01*
X116090606Y-94422741D01*
X116192339Y-94450000D01*
X116297661Y-94450000D01*
X116645000Y-94450000D01*
X116645000Y-95288679D01*
X116691321Y-95276268D01*
X116691324Y-95276267D01*
X116897482Y-95180134D01*
X117083820Y-95049657D01*
X117244657Y-94888820D01*
X117375134Y-94702482D01*
X117471267Y-94496324D01*
X117483680Y-94450000D01*
X116645000Y-94450000D01*
X116297661Y-94450000D01*
X116399394Y-94422741D01*
X116490606Y-94370080D01*
X116565080Y-94295606D01*
X116617741Y-94204394D01*
X116645000Y-94102661D01*
X116645000Y-93997339D01*
X116617741Y-93895606D01*
X116565080Y-93804394D01*
X116490606Y-93729920D01*
X116399394Y-93677259D01*
X116297661Y-93650000D01*
X116192339Y-93650000D01*
X116090606Y-93677259D01*
X115999394Y-93729920D01*
X115924920Y-93804394D01*
X115872259Y-93895606D01*
X115845000Y-93997339D01*
X115845000Y-92811320D01*
X115844999Y-92811319D01*
X116645000Y-92811319D01*
X116645000Y-93650000D01*
X117483680Y-93650000D01*
X117483680Y-93649999D01*
X117471267Y-93603675D01*
X117375134Y-93397517D01*
X117244657Y-93211179D01*
X117083820Y-93050342D01*
X116897482Y-92919865D01*
X116691324Y-92823732D01*
X116645000Y-92811319D01*
X115844999Y-92811319D01*
X115798675Y-92823732D01*
X115592517Y-92919865D01*
X115406179Y-93050342D01*
X115245342Y-93211179D01*
X115114865Y-93397517D01*
X115018734Y-93603673D01*
X115018731Y-93603680D01*
X114966326Y-93799257D01*
X114929961Y-93858917D01*
X114867113Y-93889446D01*
X114797738Y-93881151D01*
X114743860Y-93836666D01*
X114727892Y-93803162D01*
X114680232Y-93646046D01*
X114582685Y-93463550D01*
X114502601Y-93365967D01*
X114451410Y-93303589D01*
X114305765Y-93184063D01*
X114291450Y-93172315D01*
X114108954Y-93074768D01*
X113910934Y-93014700D01*
X113910932Y-93014699D01*
X113910934Y-93014699D01*
X113705000Y-92994417D01*
X113499067Y-93014699D01*
X113301043Y-93074769D01*
X113204353Y-93126452D01*
X113118550Y-93172315D01*
X113118548Y-93172316D01*
X113118547Y-93172317D01*
X112958589Y-93303589D01*
X112827317Y-93463547D01*
X112827315Y-93463550D01*
X112804848Y-93505582D01*
X112729769Y-93646043D01*
X112669699Y-93844067D01*
X112649417Y-94050000D01*
X95888925Y-94050000D01*
X95966410Y-93986410D01*
X96097685Y-93826450D01*
X96166274Y-93698130D01*
X103427553Y-93698130D01*
X103573668Y-93766264D01*
X103573682Y-93766269D01*
X103793389Y-93825139D01*
X103793400Y-93825141D01*
X104019998Y-93844966D01*
X104020002Y-93844966D01*
X104246599Y-93825141D01*
X104246610Y-93825139D01*
X104466317Y-93766269D01*
X104466326Y-93766265D01*
X104612445Y-93698129D01*
X104020001Y-93105685D01*
X104020000Y-93105685D01*
X103427553Y-93698130D01*
X96166274Y-93698130D01*
X96195232Y-93643954D01*
X96255300Y-93445934D01*
X96275583Y-93240000D01*
X96255300Y-93034066D01*
X96195232Y-92836046D01*
X96097685Y-92653550D01*
X96045702Y-92590209D01*
X96004498Y-92540000D01*
X97964417Y-92540000D01*
X97984699Y-92745932D01*
X97990972Y-92766610D01*
X98044768Y-92943954D01*
X98142315Y-93126450D01*
X98142317Y-93126452D01*
X98273589Y-93286410D01*
X98370209Y-93365702D01*
X98433550Y-93417685D01*
X98616046Y-93515232D01*
X98814066Y-93575300D01*
X98814065Y-93575300D01*
X98832529Y-93577118D01*
X99020000Y-93595583D01*
X99225934Y-93575300D01*
X99423954Y-93515232D01*
X99606450Y-93417685D01*
X99766410Y-93286410D01*
X99897685Y-93126450D01*
X99995232Y-92943954D01*
X100055300Y-92745934D01*
X100075583Y-92540002D01*
X102715034Y-92540002D01*
X102734858Y-92766599D01*
X102734860Y-92766610D01*
X102793730Y-92986317D01*
X102793732Y-92986322D01*
X102861869Y-93132444D01*
X103401654Y-92592661D01*
X103620000Y-92592661D01*
X103647259Y-92694394D01*
X103699920Y-92785606D01*
X103774394Y-92860080D01*
X103865606Y-92912741D01*
X103967339Y-92940000D01*
X104072661Y-92940000D01*
X104174394Y-92912741D01*
X104265606Y-92860080D01*
X104340080Y-92785606D01*
X104392741Y-92694394D01*
X104420000Y-92592661D01*
X104420000Y-92540000D01*
X104585685Y-92540000D01*
X105178129Y-93132444D01*
X105246265Y-92986326D01*
X105246269Y-92986317D01*
X105305139Y-92766610D01*
X105305141Y-92766599D01*
X105324966Y-92540002D01*
X105324966Y-92539997D01*
X105305141Y-92313400D01*
X105305139Y-92313389D01*
X105246269Y-92093682D01*
X105246264Y-92093668D01*
X105178130Y-91947553D01*
X104585685Y-92539999D01*
X104585685Y-92540000D01*
X104420000Y-92540000D01*
X104420000Y-92487339D01*
X104392741Y-92385606D01*
X104340080Y-92294394D01*
X104265606Y-92219920D01*
X104174394Y-92167259D01*
X104072661Y-92140000D01*
X103967339Y-92140000D01*
X103865606Y-92167259D01*
X103774394Y-92219920D01*
X103699920Y-92294394D01*
X103647259Y-92385606D01*
X103620000Y-92487339D01*
X103620000Y-92592661D01*
X103401654Y-92592661D01*
X103454315Y-92540000D01*
X102861868Y-91947553D01*
X102793731Y-92093680D01*
X102734860Y-92313389D01*
X102734858Y-92313400D01*
X102715034Y-92539997D01*
X102715034Y-92540002D01*
X100075583Y-92540002D01*
X100075583Y-92540000D01*
X100055300Y-92334066D01*
X99995232Y-92136046D01*
X99897685Y-91953550D01*
X99845702Y-91890209D01*
X99766410Y-91793589D01*
X99606452Y-91662317D01*
X99606453Y-91662317D01*
X99606450Y-91662315D01*
X99423954Y-91564768D01*
X99225934Y-91504700D01*
X99225932Y-91504699D01*
X99225934Y-91504699D01*
X99020000Y-91484417D01*
X98814067Y-91504699D01*
X98616043Y-91564769D01*
X98509450Y-91621745D01*
X98433550Y-91662315D01*
X98433548Y-91662316D01*
X98433547Y-91662317D01*
X98273589Y-91793589D01*
X98142317Y-91953547D01*
X98044769Y-92136043D01*
X97984699Y-92334067D01*
X97964417Y-92540000D01*
X96004498Y-92540000D01*
X95966410Y-92493589D01*
X95806452Y-92362317D01*
X95806453Y-92362317D01*
X95806450Y-92362315D01*
X95623954Y-92264768D01*
X95425934Y-92204700D01*
X95425932Y-92204699D01*
X95425934Y-92204699D01*
X95220000Y-92184417D01*
X95014067Y-92204699D01*
X94816043Y-92264769D01*
X94760620Y-92294394D01*
X94633550Y-92362315D01*
X94633548Y-92362316D01*
X94633547Y-92362317D01*
X94473589Y-92493589D01*
X94342317Y-92653547D01*
X94244769Y-92836043D01*
X94184699Y-93034067D01*
X94164417Y-93240000D01*
X88655583Y-93240000D01*
X88635300Y-93034066D01*
X88575232Y-92836046D01*
X88477685Y-92653550D01*
X88425702Y-92590209D01*
X88346410Y-92493589D01*
X88186452Y-92362317D01*
X88186453Y-92362317D01*
X88186450Y-92362315D01*
X88003954Y-92264768D01*
X87805934Y-92204700D01*
X87805932Y-92204699D01*
X87805934Y-92204699D01*
X87600000Y-92184417D01*
X87394067Y-92204699D01*
X87196043Y-92264769D01*
X87140620Y-92294394D01*
X87013550Y-92362315D01*
X87013548Y-92362316D01*
X87013547Y-92362317D01*
X86853589Y-92493589D01*
X86722317Y-92653547D01*
X86624769Y-92836043D01*
X86564699Y-93034067D01*
X86544417Y-93240000D01*
X80009979Y-93240000D01*
X80191323Y-93184063D01*
X80427704Y-93070228D01*
X80644479Y-92922433D01*
X80834700Y-92745934D01*
X80836801Y-92743985D01*
X80836801Y-92743983D01*
X80836805Y-92743981D01*
X81000386Y-92538857D01*
X81131568Y-92311643D01*
X81227420Y-92067416D01*
X81285802Y-91811630D01*
X81287154Y-91793589D01*
X81305408Y-91550004D01*
X81305408Y-91549995D01*
X81285803Y-91288379D01*
X81285802Y-91288374D01*
X81285802Y-91288370D01*
X81227420Y-91032584D01*
X81131568Y-90788357D01*
X81000386Y-90561143D01*
X80836805Y-90356019D01*
X80836804Y-90356018D01*
X80836801Y-90356014D01*
X80644479Y-90177567D01*
X80589378Y-90140000D01*
X86754341Y-90140000D01*
X86774936Y-90375403D01*
X86774938Y-90375413D01*
X86836094Y-90603655D01*
X86836096Y-90603659D01*
X86836097Y-90603663D01*
X86935965Y-90817830D01*
X86935967Y-90817834D01*
X87039422Y-90965582D01*
X87071505Y-91011401D01*
X87238599Y-91178495D01*
X87269013Y-91199791D01*
X87432165Y-91314032D01*
X87432167Y-91314033D01*
X87432170Y-91314035D01*
X87646337Y-91413903D01*
X87646343Y-91413904D01*
X87646344Y-91413905D01*
X87701285Y-91428626D01*
X87874592Y-91475063D01*
X88051034Y-91490500D01*
X88109999Y-91495659D01*
X88110000Y-91495659D01*
X88110001Y-91495659D01*
X88168966Y-91490500D01*
X88345408Y-91475063D01*
X88573663Y-91413903D01*
X88787830Y-91314035D01*
X88981401Y-91178495D01*
X89148495Y-91011401D01*
X89284035Y-90817830D01*
X89383903Y-90603663D01*
X89445063Y-90375408D01*
X89465659Y-90140000D01*
X89445063Y-89904592D01*
X89386387Y-89685606D01*
X89383905Y-89676344D01*
X89383904Y-89676343D01*
X89383903Y-89676337D01*
X89284035Y-89462171D01*
X89270129Y-89442310D01*
X89148494Y-89268597D01*
X88981402Y-89101506D01*
X88981395Y-89101501D01*
X88787834Y-88965967D01*
X88787830Y-88965965D01*
X88737003Y-88942264D01*
X88573663Y-88866097D01*
X88573659Y-88866096D01*
X88573655Y-88866094D01*
X88345413Y-88804938D01*
X88345403Y-88804936D01*
X88110001Y-88784341D01*
X88109999Y-88784341D01*
X87874596Y-88804936D01*
X87874586Y-88804938D01*
X87646344Y-88866094D01*
X87646335Y-88866098D01*
X87432171Y-88965964D01*
X87432169Y-88965965D01*
X87238597Y-89101505D01*
X87071505Y-89268597D01*
X86935965Y-89462169D01*
X86935964Y-89462171D01*
X86836098Y-89676335D01*
X86836094Y-89676344D01*
X86774938Y-89904586D01*
X86774936Y-89904596D01*
X86754341Y-90139999D01*
X86754341Y-90140000D01*
X80589378Y-90140000D01*
X80554077Y-90115932D01*
X80427704Y-90029772D01*
X80427700Y-90029770D01*
X80427697Y-90029768D01*
X80427696Y-90029767D01*
X80191325Y-89915938D01*
X80191327Y-89915938D01*
X79940623Y-89838606D01*
X79940619Y-89838605D01*
X79940615Y-89838604D01*
X79815823Y-89819794D01*
X79681187Y-89799500D01*
X79681182Y-89799500D01*
X79418818Y-89799500D01*
X79418812Y-89799500D01*
X79257247Y-89823853D01*
X79159385Y-89838604D01*
X79159382Y-89838605D01*
X79159376Y-89838606D01*
X78908673Y-89915938D01*
X78672303Y-90029767D01*
X78672302Y-90029768D01*
X78455520Y-90177567D01*
X78263198Y-90356014D01*
X78099614Y-90561143D01*
X77968432Y-90788356D01*
X77872582Y-91032578D01*
X77872576Y-91032597D01*
X77814197Y-91288374D01*
X77814196Y-91288379D01*
X77794592Y-91549995D01*
X77794592Y-91550004D01*
X75450500Y-91550004D01*
X75450500Y-88074678D01*
X77799500Y-88074678D01*
X77814032Y-88147735D01*
X77814033Y-88147739D01*
X77814034Y-88147740D01*
X77869399Y-88230601D01*
X77937294Y-88275966D01*
X77952260Y-88285966D01*
X77952264Y-88285967D01*
X78025321Y-88300499D01*
X78025324Y-88300500D01*
X78025326Y-88300500D01*
X81074676Y-88300500D01*
X81074677Y-88300499D01*
X81147740Y-88285966D01*
X81230601Y-88230601D01*
X81285966Y-88147740D01*
X81300500Y-88074674D01*
X81300500Y-87374500D01*
X81320185Y-87307461D01*
X81372989Y-87261706D01*
X81424500Y-87250500D01*
X86635500Y-87250500D01*
X86702539Y-87270185D01*
X86748294Y-87322989D01*
X86759500Y-87374500D01*
X86759500Y-88064678D01*
X86774032Y-88137735D01*
X86774033Y-88137739D01*
X86781824Y-88149399D01*
X86829399Y-88220601D01*
X86912260Y-88275966D01*
X86912264Y-88275967D01*
X86985321Y-88290499D01*
X86985324Y-88290500D01*
X86985326Y-88290500D01*
X89234676Y-88290500D01*
X89234677Y-88290499D01*
X89307740Y-88275966D01*
X89390601Y-88220601D01*
X89445966Y-88137740D01*
X89460500Y-88064674D01*
X89460500Y-86940000D01*
X94374341Y-86940000D01*
X94394936Y-87175403D01*
X94394938Y-87175413D01*
X94456094Y-87403655D01*
X94456096Y-87403659D01*
X94456097Y-87403663D01*
X94536428Y-87575932D01*
X94555965Y-87617830D01*
X94555967Y-87617834D01*
X94691501Y-87811395D01*
X94691506Y-87811402D01*
X94858595Y-87978492D01*
X94858598Y-87978494D01*
X94858599Y-87978495D01*
X94926623Y-88026125D01*
X94970248Y-88080701D01*
X94979500Y-88127700D01*
X94979500Y-88665500D01*
X94959815Y-88732539D01*
X94907011Y-88778294D01*
X94855500Y-88789500D01*
X94605323Y-88789500D01*
X94532264Y-88804032D01*
X94532260Y-88804033D01*
X94449399Y-88859399D01*
X94394033Y-88942260D01*
X94394032Y-88942264D01*
X94379500Y-89015321D01*
X94379500Y-91264678D01*
X94394032Y-91337735D01*
X94394033Y-91337739D01*
X94394034Y-91337740D01*
X94449399Y-91420601D01*
X94495783Y-91451593D01*
X94532260Y-91475966D01*
X94532264Y-91475967D01*
X94605321Y-91490499D01*
X94605324Y-91490500D01*
X94605326Y-91490500D01*
X96854676Y-91490500D01*
X96854677Y-91490499D01*
X96927740Y-91475966D01*
X97010601Y-91420601D01*
X97036481Y-91381868D01*
X103427553Y-91381868D01*
X104020000Y-91974315D01*
X104020001Y-91974315D01*
X104612444Y-91381869D01*
X104466322Y-91313732D01*
X104466317Y-91313730D01*
X104246610Y-91254860D01*
X104246599Y-91254858D01*
X104020002Y-91235034D01*
X104019998Y-91235034D01*
X103793400Y-91254858D01*
X103793389Y-91254860D01*
X103573680Y-91313731D01*
X103427553Y-91381868D01*
X97036481Y-91381868D01*
X97065966Y-91337740D01*
X97080500Y-91264674D01*
X97080500Y-90788130D01*
X110307553Y-90788130D01*
X110453668Y-90856264D01*
X110453682Y-90856269D01*
X110673389Y-90915139D01*
X110673400Y-90915141D01*
X110899998Y-90934966D01*
X110900002Y-90934966D01*
X111126599Y-90915141D01*
X111126610Y-90915139D01*
X111346317Y-90856269D01*
X111346326Y-90856265D01*
X111492445Y-90788129D01*
X110900001Y-90195685D01*
X110900000Y-90195685D01*
X110307553Y-90788130D01*
X97080500Y-90788130D01*
X97080500Y-89440000D01*
X98044417Y-89440000D01*
X98064699Y-89645932D01*
X98075841Y-89682661D01*
X98124768Y-89843954D01*
X98222315Y-90026450D01*
X98228475Y-90033956D01*
X98353589Y-90186410D01*
X98403951Y-90227740D01*
X98513550Y-90317685D01*
X98696046Y-90415232D01*
X98894066Y-90475300D01*
X98894065Y-90475300D01*
X98912529Y-90477118D01*
X99100000Y-90495583D01*
X99305934Y-90475300D01*
X99503954Y-90415232D01*
X99686450Y-90317685D01*
X99846410Y-90186410D01*
X99977685Y-90026450D01*
X100075232Y-89843954D01*
X100076431Y-89840000D01*
X105420000Y-89840000D01*
X105420000Y-90287844D01*
X105426401Y-90347372D01*
X105426403Y-90347379D01*
X105476645Y-90482086D01*
X105476649Y-90482093D01*
X105562809Y-90597187D01*
X105562812Y-90597190D01*
X105677906Y-90683350D01*
X105677913Y-90683354D01*
X105812620Y-90733596D01*
X105812627Y-90733598D01*
X105872155Y-90739999D01*
X105872172Y-90740000D01*
X106320000Y-90740000D01*
X106320000Y-89840000D01*
X105420000Y-89840000D01*
X100076431Y-89840000D01*
X100135300Y-89645934D01*
X100155583Y-89440000D01*
X100135300Y-89234066D01*
X100075232Y-89036046D01*
X99977685Y-88853550D01*
X99894604Y-88752315D01*
X99846410Y-88693589D01*
X99686452Y-88562317D01*
X99686453Y-88562317D01*
X99686450Y-88562315D01*
X99503954Y-88464768D01*
X99305934Y-88404700D01*
X99305932Y-88404699D01*
X99305934Y-88404699D01*
X99100000Y-88384417D01*
X98894067Y-88404699D01*
X98696043Y-88464769D01*
X98585898Y-88523643D01*
X98513550Y-88562315D01*
X98513548Y-88562316D01*
X98513547Y-88562317D01*
X98353589Y-88693589D01*
X98222317Y-88853547D01*
X98222315Y-88853550D01*
X98215608Y-88866098D01*
X98124769Y-89036043D01*
X98064699Y-89234067D01*
X98044417Y-89440000D01*
X97080500Y-89440000D01*
X97080500Y-89015326D01*
X97080500Y-89015323D01*
X97080499Y-89015321D01*
X97065967Y-88942264D01*
X97065966Y-88942260D01*
X97060960Y-88934768D01*
X97010601Y-88859399D01*
X96929093Y-88804938D01*
X96927739Y-88804033D01*
X96927735Y-88804032D01*
X96854677Y-88789500D01*
X96854674Y-88789500D01*
X96604500Y-88789500D01*
X96537461Y-88769815D01*
X96491706Y-88717011D01*
X96480500Y-88665500D01*
X96480500Y-88127700D01*
X96500185Y-88060661D01*
X96533375Y-88026126D01*
X96601401Y-87978495D01*
X96768495Y-87811401D01*
X96904035Y-87617830D01*
X97003903Y-87403663D01*
X97065063Y-87175408D01*
X97085659Y-86940000D01*
X97082159Y-86900000D01*
X98044417Y-86900000D01*
X98064699Y-87105932D01*
X98085773Y-87175403D01*
X98123720Y-87300500D01*
X98124769Y-87303956D01*
X98131502Y-87316554D01*
X98222315Y-87486450D01*
X98228475Y-87493956D01*
X98353589Y-87646410D01*
X98450209Y-87725702D01*
X98513550Y-87777685D01*
X98696046Y-87875232D01*
X98894066Y-87935300D01*
X98894065Y-87935300D01*
X98912529Y-87937118D01*
X99100000Y-87955583D01*
X99305934Y-87935300D01*
X99503954Y-87875232D01*
X99686450Y-87777685D01*
X99846410Y-87646410D01*
X99977685Y-87486450D01*
X100075232Y-87303954D01*
X100135300Y-87105934D01*
X100155583Y-86900000D01*
X100135300Y-86694066D01*
X100075232Y-86496046D01*
X99977685Y-86313550D01*
X99865545Y-86176906D01*
X99846410Y-86153589D01*
X99686452Y-86022317D01*
X99686453Y-86022317D01*
X99686450Y-86022315D01*
X99503954Y-85924768D01*
X99305934Y-85864700D01*
X99305932Y-85864699D01*
X99305934Y-85864699D01*
X99100000Y-85844417D01*
X98894067Y-85864699D01*
X98696043Y-85924769D01*
X98630568Y-85959767D01*
X98513550Y-86022315D01*
X98513548Y-86022316D01*
X98513547Y-86022317D01*
X98353589Y-86153589D01*
X98222317Y-86313547D01*
X98222316Y-86313548D01*
X98222315Y-86313550D01*
X98191477Y-86371244D01*
X98124769Y-86496043D01*
X98064699Y-86694067D01*
X98044417Y-86900000D01*
X97082159Y-86900000D01*
X97065063Y-86704592D01*
X97003903Y-86476337D01*
X96904035Y-86262171D01*
X96890129Y-86242310D01*
X96768494Y-86068597D01*
X96601404Y-85901507D01*
X96533375Y-85853872D01*
X96489751Y-85799294D01*
X96480500Y-85752298D01*
X96480500Y-84535793D01*
X96500185Y-84468754D01*
X96508642Y-84457133D01*
X96607685Y-84336450D01*
X96705232Y-84153954D01*
X96765300Y-83955934D01*
X96785583Y-83750000D01*
X96765300Y-83544066D01*
X96705232Y-83346046D01*
X96607685Y-83163550D01*
X96527286Y-83065583D01*
X96476410Y-83003589D01*
X96347448Y-82897754D01*
X96316450Y-82872315D01*
X96133954Y-82774768D01*
X95935934Y-82714700D01*
X95935932Y-82714699D01*
X95935934Y-82714699D01*
X95730000Y-82694417D01*
X95524067Y-82714699D01*
X95326043Y-82774769D01*
X95245747Y-82817689D01*
X95143550Y-82872315D01*
X95143548Y-82872316D01*
X95143547Y-82872317D01*
X94983589Y-83003589D01*
X94852317Y-83163547D01*
X94852315Y-83163550D01*
X94840287Y-83186053D01*
X94754769Y-83346043D01*
X94694699Y-83544067D01*
X94674417Y-83750000D01*
X94694699Y-83955932D01*
X94716482Y-84027740D01*
X94754768Y-84153954D01*
X94851041Y-84334067D01*
X94852316Y-84336452D01*
X94951353Y-84457129D01*
X94978666Y-84521438D01*
X94979500Y-84535793D01*
X94979500Y-85752298D01*
X94959815Y-85819337D01*
X94926625Y-85853872D01*
X94858595Y-85901507D01*
X94691505Y-86068597D01*
X94555965Y-86262169D01*
X94555964Y-86262171D01*
X94456098Y-86476335D01*
X94456094Y-86476344D01*
X94394938Y-86704586D01*
X94394936Y-86704596D01*
X94374341Y-86939999D01*
X94374341Y-86940000D01*
X89460500Y-86940000D01*
X89460500Y-85815326D01*
X89460500Y-85815323D01*
X89460499Y-85815321D01*
X89445967Y-85742264D01*
X89445966Y-85742260D01*
X89422862Y-85707682D01*
X89390601Y-85659399D01*
X89307740Y-85604034D01*
X89307739Y-85604033D01*
X89307735Y-85604032D01*
X89234677Y-85589500D01*
X89234674Y-85589500D01*
X86985326Y-85589500D01*
X86985323Y-85589500D01*
X86912264Y-85604032D01*
X86912260Y-85604033D01*
X86829399Y-85659399D01*
X86806018Y-85694391D01*
X86752408Y-85739195D01*
X86702917Y-85749500D01*
X81424500Y-85749500D01*
X81357461Y-85729815D01*
X81311706Y-85677011D01*
X81300500Y-85625500D01*
X81300500Y-85025323D01*
X81300499Y-85025321D01*
X81285967Y-84952264D01*
X81285966Y-84952260D01*
X81281704Y-84945882D01*
X81230601Y-84869399D01*
X81171635Y-84830000D01*
X81147739Y-84814033D01*
X81147735Y-84814032D01*
X81074677Y-84799500D01*
X81074674Y-84799500D01*
X78025326Y-84799500D01*
X78025323Y-84799500D01*
X77952264Y-84814032D01*
X77952260Y-84814033D01*
X77869399Y-84869399D01*
X77814033Y-84952260D01*
X77814032Y-84952264D01*
X77799500Y-85025321D01*
X77799500Y-88074678D01*
X75450500Y-88074678D01*
X75450500Y-83750000D01*
X87054417Y-83750000D01*
X87074699Y-83955932D01*
X87096482Y-84027740D01*
X87134768Y-84153954D01*
X87232315Y-84336450D01*
X87251642Y-84360000D01*
X87363589Y-84496410D01*
X87448303Y-84565932D01*
X87523550Y-84627685D01*
X87706046Y-84725232D01*
X87904066Y-84785300D01*
X87904065Y-84785300D01*
X87922529Y-84787118D01*
X88110000Y-84805583D01*
X88315934Y-84785300D01*
X88513954Y-84725232D01*
X88696450Y-84627685D01*
X88856410Y-84496410D01*
X88987685Y-84336450D01*
X89085232Y-84153954D01*
X89145300Y-83955934D01*
X89165583Y-83750000D01*
X89145300Y-83544066D01*
X89085232Y-83346046D01*
X88987685Y-83163550D01*
X88907286Y-83065583D01*
X88856410Y-83003589D01*
X88727448Y-82897754D01*
X88696450Y-82872315D01*
X88513954Y-82774768D01*
X88315934Y-82714700D01*
X88315932Y-82714699D01*
X88315934Y-82714699D01*
X88110000Y-82694417D01*
X87904067Y-82714699D01*
X87706043Y-82774769D01*
X87625747Y-82817689D01*
X87523550Y-82872315D01*
X87523548Y-82872316D01*
X87523547Y-82872317D01*
X87363589Y-83003589D01*
X87232317Y-83163547D01*
X87232315Y-83163550D01*
X87220287Y-83186053D01*
X87134769Y-83346043D01*
X87074699Y-83544067D01*
X87054417Y-83750000D01*
X75450500Y-83750000D01*
X75450500Y-81858130D01*
X90807553Y-81858130D01*
X90953668Y-81926264D01*
X90953682Y-81926269D01*
X91173389Y-81985139D01*
X91173400Y-81985141D01*
X91399998Y-82004966D01*
X91400002Y-82004966D01*
X91626599Y-81985141D01*
X91626610Y-81985139D01*
X91846317Y-81926269D01*
X91846326Y-81926265D01*
X91992445Y-81858129D01*
X91400001Y-81265685D01*
X91400000Y-81265685D01*
X90807553Y-81858130D01*
X75450500Y-81858130D01*
X75450500Y-80700002D01*
X90095034Y-80700002D01*
X90114858Y-80926599D01*
X90114860Y-80926610D01*
X90173730Y-81146317D01*
X90173732Y-81146322D01*
X90241869Y-81292444D01*
X90781654Y-80752661D01*
X91000000Y-80752661D01*
X91027259Y-80854394D01*
X91079920Y-80945606D01*
X91154394Y-81020080D01*
X91245606Y-81072741D01*
X91347339Y-81100000D01*
X91452661Y-81100000D01*
X91554394Y-81072741D01*
X91645606Y-81020080D01*
X91720080Y-80945606D01*
X91772741Y-80854394D01*
X91800000Y-80752661D01*
X91800000Y-80700000D01*
X91965685Y-80700000D01*
X92558129Y-81292444D01*
X92626265Y-81146326D01*
X92626269Y-81146317D01*
X92685139Y-80926610D01*
X92685141Y-80926599D01*
X92704966Y-80700002D01*
X92704966Y-80699997D01*
X92685141Y-80473400D01*
X92685139Y-80473389D01*
X92626269Y-80253682D01*
X92626264Y-80253668D01*
X92558130Y-80107553D01*
X91965685Y-80699999D01*
X91965685Y-80700000D01*
X91800000Y-80700000D01*
X91800000Y-80647339D01*
X91772741Y-80545606D01*
X91720080Y-80454394D01*
X91645606Y-80379920D01*
X91554394Y-80327259D01*
X91452661Y-80300000D01*
X91347339Y-80300000D01*
X91245606Y-80327259D01*
X91154394Y-80379920D01*
X91079920Y-80454394D01*
X91027259Y-80545606D01*
X91000000Y-80647339D01*
X91000000Y-80752661D01*
X90781654Y-80752661D01*
X90834315Y-80700000D01*
X90241868Y-80107553D01*
X90173731Y-80253680D01*
X90114860Y-80473389D01*
X90114858Y-80473400D01*
X90095034Y-80699997D01*
X90095034Y-80700002D01*
X75450500Y-80700002D01*
X75450500Y-78050004D01*
X77794592Y-78050004D01*
X77814196Y-78311620D01*
X77814197Y-78311625D01*
X77872576Y-78567402D01*
X77872578Y-78567411D01*
X77872580Y-78567416D01*
X77968432Y-78811643D01*
X78099614Y-79038857D01*
X78201843Y-79167048D01*
X78263198Y-79243985D01*
X78373195Y-79346046D01*
X78455521Y-79422433D01*
X78672296Y-79570228D01*
X78672301Y-79570230D01*
X78672302Y-79570231D01*
X78672303Y-79570232D01*
X78770850Y-79617689D01*
X78908673Y-79684061D01*
X78908674Y-79684061D01*
X78908677Y-79684063D01*
X79159385Y-79761396D01*
X79418818Y-79800500D01*
X79681182Y-79800500D01*
X79940615Y-79761396D01*
X80191323Y-79684063D01*
X80427704Y-79570228D01*
X80469300Y-79541868D01*
X90807553Y-79541868D01*
X91400000Y-80134315D01*
X91400001Y-80134315D01*
X91992444Y-79541869D01*
X91846322Y-79473732D01*
X91846317Y-79473730D01*
X91626610Y-79414860D01*
X91626599Y-79414858D01*
X91400002Y-79395034D01*
X91399998Y-79395034D01*
X91173400Y-79414858D01*
X91173389Y-79414860D01*
X90953680Y-79473731D01*
X90807553Y-79541868D01*
X80469300Y-79541868D01*
X80644479Y-79422433D01*
X80836805Y-79243981D01*
X81000386Y-79038857D01*
X81131568Y-78811643D01*
X81227420Y-78567416D01*
X81285802Y-78311630D01*
X81289253Y-78265582D01*
X81305408Y-78050004D01*
X81305408Y-78049995D01*
X81285803Y-77788379D01*
X81285802Y-77788374D01*
X81285802Y-77788370D01*
X81227420Y-77532584D01*
X81131568Y-77288357D01*
X81000386Y-77061143D01*
X80836805Y-76856019D01*
X80836804Y-76856018D01*
X80836801Y-76856014D01*
X80644479Y-76677567D01*
X80639168Y-76673946D01*
X80427704Y-76529772D01*
X80427700Y-76529770D01*
X80427697Y-76529768D01*
X80427696Y-76529767D01*
X80191325Y-76415938D01*
X80191327Y-76415938D01*
X79940623Y-76338606D01*
X79940619Y-76338605D01*
X79940615Y-76338604D01*
X79815823Y-76319794D01*
X79681187Y-76299500D01*
X79681182Y-76299500D01*
X79418818Y-76299500D01*
X79418812Y-76299500D01*
X79257247Y-76323853D01*
X79159385Y-76338604D01*
X79159382Y-76338605D01*
X79159376Y-76338606D01*
X78908673Y-76415938D01*
X78672303Y-76529767D01*
X78672302Y-76529768D01*
X78455520Y-76677567D01*
X78263198Y-76856014D01*
X78099614Y-77061143D01*
X77968432Y-77288356D01*
X77872582Y-77532578D01*
X77872576Y-77532597D01*
X77814197Y-77788374D01*
X77814196Y-77788379D01*
X77794592Y-78049995D01*
X77794592Y-78050004D01*
X75450500Y-78050004D01*
X75450500Y-73050004D01*
X77794592Y-73050004D01*
X77814196Y-73311620D01*
X77814197Y-73311625D01*
X77814197Y-73311629D01*
X77814198Y-73311630D01*
X77817264Y-73325063D01*
X77872576Y-73567402D01*
X77872578Y-73567411D01*
X77872580Y-73567416D01*
X77968432Y-73811643D01*
X78099614Y-74038857D01*
X78204196Y-74169999D01*
X78263198Y-74243985D01*
X78444753Y-74412441D01*
X78455521Y-74422433D01*
X78672296Y-74570228D01*
X78672301Y-74570230D01*
X78672302Y-74570231D01*
X78672303Y-74570232D01*
X78770123Y-74617339D01*
X78908673Y-74684061D01*
X78908674Y-74684061D01*
X78908677Y-74684063D01*
X79159385Y-74761396D01*
X79418818Y-74800500D01*
X79681182Y-74800500D01*
X79940615Y-74761396D01*
X80105689Y-74710476D01*
X80175551Y-74709527D01*
X80229919Y-74741287D01*
X81284334Y-75795701D01*
X82317048Y-76828415D01*
X82317049Y-76828416D01*
X82380973Y-76892340D01*
X82421585Y-76932952D01*
X82544498Y-77015080D01*
X82544511Y-77015087D01*
X82655701Y-77061143D01*
X82681087Y-77071658D01*
X82681091Y-77071658D01*
X82681092Y-77071659D01*
X82826079Y-77100500D01*
X82826082Y-77100500D01*
X90475252Y-77100500D01*
X90542291Y-77120185D01*
X90544107Y-77121374D01*
X90567221Y-77136818D01*
X90602260Y-77160230D01*
X90602264Y-77160231D01*
X90675321Y-77174763D01*
X90675324Y-77174764D01*
X90675326Y-77174764D01*
X92324676Y-77174764D01*
X92324677Y-77174763D01*
X92397740Y-77160230D01*
X92455859Y-77121396D01*
X92522535Y-77100520D01*
X92524748Y-77100500D01*
X99945500Y-77100500D01*
X100012539Y-77120185D01*
X100058294Y-77172989D01*
X100069500Y-77224500D01*
X100069500Y-77907317D01*
X100049815Y-77974356D01*
X99997011Y-78020111D01*
X99927853Y-78030055D01*
X99864297Y-78001030D01*
X99857819Y-77994998D01*
X99856413Y-77993592D01*
X99747190Y-77903956D01*
X99696450Y-77862315D01*
X99513954Y-77764768D01*
X99315934Y-77704700D01*
X99315932Y-77704699D01*
X99315934Y-77704699D01*
X99110000Y-77684417D01*
X98904067Y-77704699D01*
X98706043Y-77764769D01*
X98595898Y-77823643D01*
X98523550Y-77862315D01*
X98523548Y-77862316D01*
X98523547Y-77862317D01*
X98363589Y-77993589D01*
X98232317Y-78153547D01*
X98232315Y-78153550D01*
X98193643Y-78225898D01*
X98134769Y-78336043D01*
X98074699Y-78534067D01*
X98054417Y-78740000D01*
X98074699Y-78945932D01*
X98099697Y-79028339D01*
X98134768Y-79143954D01*
X98232315Y-79326450D01*
X98248397Y-79346046D01*
X98363589Y-79486410D01*
X98449618Y-79557011D01*
X98523550Y-79617685D01*
X98706046Y-79715232D01*
X98904066Y-79775300D01*
X98904065Y-79775300D01*
X98922529Y-79777118D01*
X99110000Y-79795583D01*
X99315934Y-79775300D01*
X99513954Y-79715232D01*
X99696450Y-79617685D01*
X99856410Y-79486410D01*
X99856411Y-79486408D01*
X99856413Y-79486407D01*
X99857819Y-79485002D01*
X99858736Y-79484500D01*
X99861120Y-79482545D01*
X99861490Y-79482996D01*
X99919142Y-79451517D01*
X99988834Y-79456501D01*
X100044767Y-79498373D01*
X100069184Y-79563837D01*
X100069500Y-79572683D01*
X100069500Y-80998868D01*
X100049815Y-81065907D01*
X99997011Y-81111662D01*
X99927853Y-81121606D01*
X99864297Y-81092581D01*
X99849649Y-81077536D01*
X99846410Y-81073589D01*
X99711596Y-80962952D01*
X99686450Y-80942315D01*
X99503954Y-80844768D01*
X99374774Y-80805582D01*
X99305932Y-80784699D01*
X99150569Y-80769397D01*
X99085782Y-80743236D01*
X99075043Y-80733675D01*
X98398421Y-80057052D01*
X98398414Y-80057046D01*
X98324729Y-80007812D01*
X98324729Y-80007813D01*
X98275491Y-79974913D01*
X98138917Y-79918343D01*
X98138907Y-79918340D01*
X97993920Y-79889500D01*
X97993918Y-79889500D01*
X97112684Y-79889500D01*
X97045645Y-79869815D01*
X97034020Y-79861354D01*
X96986450Y-79822315D01*
X96986444Y-79822310D01*
X96803958Y-79724769D01*
X96704944Y-79694734D01*
X96605934Y-79664700D01*
X96605932Y-79664699D01*
X96605934Y-79664699D01*
X96400000Y-79644417D01*
X96194067Y-79664699D01*
X95996043Y-79724769D01*
X95930568Y-79759767D01*
X95813550Y-79822315D01*
X95813548Y-79822316D01*
X95813547Y-79822317D01*
X95653589Y-79953589D01*
X95522317Y-80113547D01*
X95522315Y-80113550D01*
X95483643Y-80185898D01*
X95424769Y-80296043D01*
X95364699Y-80494067D01*
X95344417Y-80700000D01*
X95364699Y-80905932D01*
X95385559Y-80974699D01*
X95424768Y-81103954D01*
X95522315Y-81286450D01*
X95522317Y-81286452D01*
X95653589Y-81446410D01*
X95750209Y-81525702D01*
X95813550Y-81577685D01*
X95996046Y-81675232D01*
X96194066Y-81735300D01*
X96194065Y-81735300D01*
X96212529Y-81737118D01*
X96400000Y-81755583D01*
X96605934Y-81735300D01*
X96803954Y-81675232D01*
X96986450Y-81577685D01*
X97146410Y-81446410D01*
X97155088Y-81435836D01*
X97212833Y-81396501D01*
X97250942Y-81390500D01*
X97557770Y-81390500D01*
X97624809Y-81410185D01*
X97645451Y-81426819D01*
X98013675Y-81795043D01*
X98047160Y-81856366D01*
X98049397Y-81870569D01*
X98064699Y-82025932D01*
X98082334Y-82084066D01*
X98124768Y-82223954D01*
X98222315Y-82406450D01*
X98228475Y-82413956D01*
X98353589Y-82566410D01*
X98409886Y-82612611D01*
X98513550Y-82697685D01*
X98696046Y-82795232D01*
X98894066Y-82855300D01*
X98894065Y-82855300D01*
X98914348Y-82857297D01*
X99100000Y-82875583D01*
X99224380Y-82863332D01*
X99293024Y-82876351D01*
X99343735Y-82924415D01*
X99360410Y-82992266D01*
X99337754Y-83058361D01*
X99324214Y-83074416D01*
X99124956Y-83273674D01*
X99063633Y-83307159D01*
X99049431Y-83309396D01*
X98894067Y-83324699D01*
X98696043Y-83384769D01*
X98585898Y-83443643D01*
X98513550Y-83482315D01*
X98513548Y-83482316D01*
X98513547Y-83482317D01*
X98353589Y-83613589D01*
X98222317Y-83773547D01*
X98222315Y-83773550D01*
X98183643Y-83845898D01*
X98124769Y-83956043D01*
X98064699Y-84154067D01*
X98044417Y-84360000D01*
X98064699Y-84565932D01*
X98064700Y-84565934D01*
X98124768Y-84763954D01*
X98222315Y-84946450D01*
X98256969Y-84988677D01*
X98353589Y-85106410D01*
X98450209Y-85185702D01*
X98513550Y-85237685D01*
X98696046Y-85335232D01*
X98894066Y-85395300D01*
X98894065Y-85395300D01*
X98912529Y-85397118D01*
X99100000Y-85415583D01*
X99305934Y-85395300D01*
X99503954Y-85335232D01*
X99686450Y-85237685D01*
X99846410Y-85106410D01*
X99977685Y-84946450D01*
X99977898Y-84946052D01*
X99978064Y-84945882D01*
X99981071Y-84941383D01*
X99981924Y-84941953D01*
X100026858Y-84896205D01*
X100087259Y-84880500D01*
X101321324Y-84880500D01*
X101388363Y-84900185D01*
X101409005Y-84916819D01*
X103695159Y-87202972D01*
X103695169Y-87202983D01*
X103699499Y-87207313D01*
X103699500Y-87207314D01*
X103792686Y-87300500D01*
X103906814Y-87366392D01*
X104034107Y-87400500D01*
X104034108Y-87400500D01*
X105722051Y-87400500D01*
X105789090Y-87420185D01*
X105831408Y-87466045D01*
X105842315Y-87486451D01*
X105973589Y-87646410D01*
X106070209Y-87725702D01*
X106133550Y-87777685D01*
X106316046Y-87875232D01*
X106388925Y-87897339D01*
X106447364Y-87935637D01*
X106475820Y-87999449D01*
X106465260Y-88068516D01*
X106419036Y-88120910D01*
X106352930Y-88140000D01*
X105872155Y-88140000D01*
X105812627Y-88146401D01*
X105812620Y-88146403D01*
X105677913Y-88196645D01*
X105677906Y-88196649D01*
X105562812Y-88282809D01*
X105562809Y-88282812D01*
X105476649Y-88397906D01*
X105476645Y-88397913D01*
X105426403Y-88532620D01*
X105426401Y-88532627D01*
X105420000Y-88592155D01*
X105420000Y-89040000D01*
X106667339Y-89040000D01*
X106565606Y-89067259D01*
X106474394Y-89119920D01*
X106399920Y-89194394D01*
X106347259Y-89285606D01*
X106320000Y-89387339D01*
X106320000Y-89492661D01*
X106347259Y-89594394D01*
X106399920Y-89685606D01*
X106474394Y-89760080D01*
X106565606Y-89812741D01*
X106667339Y-89840000D01*
X106772661Y-89840000D01*
X107120000Y-89840000D01*
X107120000Y-90740000D01*
X107567828Y-90740000D01*
X107567844Y-90739999D01*
X107627372Y-90733598D01*
X107627379Y-90733596D01*
X107762086Y-90683354D01*
X107762093Y-90683350D01*
X107877187Y-90597190D01*
X107877190Y-90597187D01*
X107963350Y-90482093D01*
X107963354Y-90482086D01*
X108013596Y-90347379D01*
X108013598Y-90347372D01*
X108019999Y-90287844D01*
X108020000Y-90287827D01*
X108020000Y-89840000D01*
X107120000Y-89840000D01*
X106772661Y-89840000D01*
X106874394Y-89812741D01*
X106965606Y-89760080D01*
X107040080Y-89685606D01*
X107072183Y-89630002D01*
X109595034Y-89630002D01*
X109614858Y-89856599D01*
X109614860Y-89856610D01*
X109673730Y-90076317D01*
X109673732Y-90076322D01*
X109741869Y-90222444D01*
X110281654Y-89682661D01*
X110500000Y-89682661D01*
X110527259Y-89784394D01*
X110579920Y-89875606D01*
X110654394Y-89950080D01*
X110745606Y-90002741D01*
X110847339Y-90030000D01*
X110952661Y-90030000D01*
X111054394Y-90002741D01*
X111145606Y-89950080D01*
X111220080Y-89875606D01*
X111272741Y-89784394D01*
X111300000Y-89682661D01*
X111300000Y-89630000D01*
X111465685Y-89630000D01*
X112058129Y-90222444D01*
X112126265Y-90076326D01*
X112126269Y-90076317D01*
X112185139Y-89856610D01*
X112185141Y-89856599D01*
X112204966Y-89630002D01*
X112204966Y-89630000D01*
X112874417Y-89630000D01*
X112894699Y-89835932D01*
X112900972Y-89856610D01*
X112954768Y-90033954D01*
X113052315Y-90216450D01*
X113068363Y-90236005D01*
X113183589Y-90376410D01*
X113230895Y-90415232D01*
X113343550Y-90507685D01*
X113526046Y-90605232D01*
X113724066Y-90665300D01*
X113724065Y-90665300D01*
X113742529Y-90667118D01*
X113930000Y-90685583D01*
X114135934Y-90665300D01*
X114333954Y-90605232D01*
X114516450Y-90507685D01*
X114676410Y-90376410D01*
X114807685Y-90216450D01*
X114905232Y-90033954D01*
X114965300Y-89835934D01*
X114985583Y-89630000D01*
X115874417Y-89630000D01*
X115894699Y-89835932D01*
X115900972Y-89856610D01*
X115954768Y-90033954D01*
X116052315Y-90216450D01*
X116068363Y-90236005D01*
X116183589Y-90376410D01*
X116230895Y-90415232D01*
X116343550Y-90507685D01*
X116526046Y-90605232D01*
X116724066Y-90665300D01*
X116724065Y-90665300D01*
X116742529Y-90667118D01*
X116930000Y-90685583D01*
X117135934Y-90665300D01*
X117333954Y-90605232D01*
X117516450Y-90507685D01*
X117676410Y-90376410D01*
X117807685Y-90216450D01*
X117905232Y-90033954D01*
X117942833Y-89910000D01*
X118474417Y-89910000D01*
X118494699Y-90115932D01*
X118512521Y-90174682D01*
X118554768Y-90313954D01*
X118652315Y-90496450D01*
X118686969Y-90538677D01*
X118783589Y-90656410D01*
X118877642Y-90733596D01*
X118943550Y-90787685D01*
X119126046Y-90885232D01*
X119324066Y-90945300D01*
X119324065Y-90945300D01*
X119342529Y-90947118D01*
X119530000Y-90965583D01*
X119735934Y-90945300D01*
X119933954Y-90885232D01*
X120116450Y-90787685D01*
X120276410Y-90656410D01*
X120407685Y-90496450D01*
X120505232Y-90313954D01*
X120565300Y-90115934D01*
X120585583Y-89910000D01*
X120565300Y-89704066D01*
X120505232Y-89506046D01*
X120407685Y-89323550D01*
X120327664Y-89226043D01*
X120276410Y-89163589D01*
X120125814Y-89040000D01*
X120116450Y-89032315D01*
X119933954Y-88934768D01*
X119735934Y-88874700D01*
X119735932Y-88874699D01*
X119735934Y-88874699D01*
X119530000Y-88854417D01*
X119324067Y-88874699D01*
X119126043Y-88934769D01*
X119067677Y-88965967D01*
X118943550Y-89032315D01*
X118943548Y-89032316D01*
X118943547Y-89032317D01*
X118783589Y-89163589D01*
X118652317Y-89323547D01*
X118652315Y-89323550D01*
X118625022Y-89374612D01*
X118554769Y-89506043D01*
X118494699Y-89704067D01*
X118474417Y-89910000D01*
X117942833Y-89910000D01*
X117965300Y-89835934D01*
X117985583Y-89630000D01*
X117965300Y-89424066D01*
X117905232Y-89226046D01*
X117807685Y-89043550D01*
X117744012Y-88965964D01*
X117676410Y-88883589D01*
X117516452Y-88752317D01*
X117516453Y-88752317D01*
X117516450Y-88752315D01*
X117333954Y-88654768D01*
X117135934Y-88594700D01*
X117135932Y-88594699D01*
X117135934Y-88594699D01*
X116930000Y-88574417D01*
X116724067Y-88594699D01*
X116526043Y-88654769D01*
X116415898Y-88713643D01*
X116343550Y-88752315D01*
X116343548Y-88752316D01*
X116343547Y-88752317D01*
X116183589Y-88883589D01*
X116055228Y-89040000D01*
X116052315Y-89043550D01*
X116023342Y-89097754D01*
X115954769Y-89226043D01*
X115894699Y-89424067D01*
X115874417Y-89630000D01*
X114985583Y-89630000D01*
X114965300Y-89424066D01*
X114905232Y-89226046D01*
X114807685Y-89043550D01*
X114744012Y-88965964D01*
X114676410Y-88883589D01*
X114516452Y-88752317D01*
X114516453Y-88752317D01*
X114516450Y-88752315D01*
X114333954Y-88654768D01*
X114135934Y-88594700D01*
X114135932Y-88594699D01*
X114135934Y-88594699D01*
X113930000Y-88574417D01*
X113724067Y-88594699D01*
X113526043Y-88654769D01*
X113415898Y-88713643D01*
X113343550Y-88752315D01*
X113343548Y-88752316D01*
X113343547Y-88752317D01*
X113183589Y-88883589D01*
X113055228Y-89040000D01*
X113052315Y-89043550D01*
X113023342Y-89097754D01*
X112954769Y-89226043D01*
X112894699Y-89424067D01*
X112874417Y-89630000D01*
X112204966Y-89630000D01*
X112204966Y-89629997D01*
X112185141Y-89403400D01*
X112185139Y-89403389D01*
X112126269Y-89183682D01*
X112126264Y-89183668D01*
X112058130Y-89037553D01*
X111465685Y-89629999D01*
X111465685Y-89630000D01*
X111300000Y-89630000D01*
X111300000Y-89577339D01*
X111272741Y-89475606D01*
X111220080Y-89384394D01*
X111145606Y-89309920D01*
X111054394Y-89257259D01*
X110952661Y-89230000D01*
X110847339Y-89230000D01*
X110745606Y-89257259D01*
X110654394Y-89309920D01*
X110579920Y-89384394D01*
X110527259Y-89475606D01*
X110500000Y-89577339D01*
X110500000Y-89682661D01*
X110281654Y-89682661D01*
X110334315Y-89630000D01*
X109741868Y-89037553D01*
X109673731Y-89183680D01*
X109614860Y-89403389D01*
X109614858Y-89403400D01*
X109595034Y-89629997D01*
X109595034Y-89630002D01*
X107072183Y-89630002D01*
X107092741Y-89594394D01*
X107120000Y-89492661D01*
X107120000Y-89387339D01*
X107092741Y-89285606D01*
X107040080Y-89194394D01*
X106965606Y-89119920D01*
X106874394Y-89067259D01*
X106772661Y-89040000D01*
X108020000Y-89040000D01*
X108020000Y-88592172D01*
X108019999Y-88592155D01*
X108013598Y-88532627D01*
X108013596Y-88532620D01*
X107963354Y-88397913D01*
X107963350Y-88397906D01*
X107877190Y-88282812D01*
X107877187Y-88282809D01*
X107762093Y-88196649D01*
X107762086Y-88196645D01*
X107627379Y-88146403D01*
X107627372Y-88146401D01*
X107567844Y-88140000D01*
X107087070Y-88140000D01*
X107020031Y-88120315D01*
X106974276Y-88067511D01*
X106964332Y-87998353D01*
X106993357Y-87934797D01*
X107051074Y-87897339D01*
X107123954Y-87875232D01*
X107306450Y-87777685D01*
X107466410Y-87646410D01*
X107597685Y-87486450D01*
X107695232Y-87303954D01*
X107755300Y-87105934D01*
X107756869Y-87090000D01*
X109844417Y-87090000D01*
X109864699Y-87295932D01*
X109872907Y-87322989D01*
X109924768Y-87493954D01*
X110022315Y-87676450D01*
X110022317Y-87676452D01*
X110153589Y-87836410D01*
X110250209Y-87915702D01*
X110313550Y-87967685D01*
X110496046Y-88065232D01*
X110653160Y-88112891D01*
X110711597Y-88151187D01*
X110740053Y-88214999D01*
X110729493Y-88284067D01*
X110683269Y-88336460D01*
X110649257Y-88351326D01*
X110453678Y-88403731D01*
X110307553Y-88471868D01*
X110900000Y-89064315D01*
X110900001Y-89064315D01*
X111492444Y-88471869D01*
X111346322Y-88403732D01*
X111346319Y-88403731D01*
X111150742Y-88351326D01*
X111091082Y-88314961D01*
X111060553Y-88252114D01*
X111068848Y-88182738D01*
X111113333Y-88128860D01*
X111146837Y-88112892D01*
X111303954Y-88065232D01*
X111486450Y-87967685D01*
X111646410Y-87836410D01*
X111777685Y-87676450D01*
X111875232Y-87493954D01*
X111912833Y-87370000D01*
X118474417Y-87370000D01*
X118494699Y-87575932D01*
X118494700Y-87575934D01*
X118554768Y-87773954D01*
X118652315Y-87956450D01*
X118670404Y-87978492D01*
X118783589Y-88116410D01*
X118823787Y-88149399D01*
X118943550Y-88247685D01*
X119126046Y-88345232D01*
X119324066Y-88405300D01*
X119324065Y-88405300D01*
X119342529Y-88407118D01*
X119530000Y-88425583D01*
X119735934Y-88405300D01*
X119933954Y-88345232D01*
X120116450Y-88247685D01*
X120276410Y-88116410D01*
X120407685Y-87956450D01*
X120505232Y-87773954D01*
X120565300Y-87575934D01*
X120585583Y-87370000D01*
X126094417Y-87370000D01*
X126114699Y-87575932D01*
X126114700Y-87575934D01*
X126174768Y-87773954D01*
X126272315Y-87956450D01*
X126290404Y-87978492D01*
X126403589Y-88116410D01*
X126443787Y-88149399D01*
X126563550Y-88247685D01*
X126746046Y-88345232D01*
X126944066Y-88405300D01*
X126944065Y-88405300D01*
X126962529Y-88407118D01*
X127150000Y-88425583D01*
X127355934Y-88405300D01*
X127553954Y-88345232D01*
X127736450Y-88247685D01*
X127896410Y-88116410D01*
X128027685Y-87956450D01*
X128125232Y-87773954D01*
X128185300Y-87575934D01*
X128205583Y-87370000D01*
X128185300Y-87164066D01*
X128125232Y-86966046D01*
X128125230Y-86966043D01*
X128125230Y-86966041D01*
X128119900Y-86956070D01*
X128105657Y-86887667D01*
X128130656Y-86822423D01*
X128186961Y-86781052D01*
X128253449Y-86775998D01*
X128261309Y-86777561D01*
X128276081Y-86780500D01*
X128276082Y-86780500D01*
X135075500Y-86780500D01*
X135142539Y-86800185D01*
X135188294Y-86852989D01*
X135199500Y-86904500D01*
X135199500Y-86954678D01*
X135214032Y-87027735D01*
X135214033Y-87027739D01*
X135214034Y-87027740D01*
X135269399Y-87110601D01*
X135315373Y-87141319D01*
X135352260Y-87165966D01*
X135352264Y-87165967D01*
X135425321Y-87180499D01*
X135425324Y-87180500D01*
X135425326Y-87180500D01*
X137274676Y-87180500D01*
X137274677Y-87180499D01*
X137347740Y-87165966D01*
X137430601Y-87110601D01*
X137485966Y-87027740D01*
X137500500Y-86954674D01*
X137500500Y-86186053D01*
X137520185Y-86119014D01*
X137572989Y-86073259D01*
X137642147Y-86063315D01*
X137705703Y-86092340D01*
X137743477Y-86151118D01*
X137747970Y-86174611D01*
X137754244Y-86242310D01*
X137794501Y-86383798D01*
X137812596Y-86447392D01*
X137812596Y-86447394D01*
X137907632Y-86638253D01*
X138017360Y-86783555D01*
X138036128Y-86808407D01*
X138193698Y-86952052D01*
X138374981Y-87064298D01*
X138573802Y-87141321D01*
X138783390Y-87180500D01*
X138783392Y-87180500D01*
X138996608Y-87180500D01*
X138996610Y-87180500D01*
X139206198Y-87141321D01*
X139405019Y-87064298D01*
X139586302Y-86952052D01*
X139743872Y-86808407D01*
X139872366Y-86638255D01*
X139892132Y-86598559D01*
X139967403Y-86447394D01*
X139967403Y-86447393D01*
X139967405Y-86447389D01*
X140025756Y-86242310D01*
X140045429Y-86030000D01*
X140025756Y-85817690D01*
X139967405Y-85612611D01*
X139967403Y-85612606D01*
X139967403Y-85612605D01*
X139872367Y-85421746D01*
X139743872Y-85251593D01*
X139738974Y-85247128D01*
X139586302Y-85107948D01*
X139405019Y-84995702D01*
X139405017Y-84995701D01*
X139276856Y-84946052D01*
X139206198Y-84918679D01*
X138996610Y-84879500D01*
X138783390Y-84879500D01*
X138573802Y-84918679D01*
X138573799Y-84918679D01*
X138573799Y-84918680D01*
X138374982Y-84995701D01*
X138374980Y-84995702D01*
X138193699Y-85107947D01*
X138036127Y-85251593D01*
X137907632Y-85421746D01*
X137812596Y-85612605D01*
X137812596Y-85612607D01*
X137754244Y-85817689D01*
X137747971Y-85885387D01*
X137722185Y-85950324D01*
X137665384Y-85991012D01*
X137595604Y-85994532D01*
X137534997Y-85959767D01*
X137502807Y-85897754D01*
X137500500Y-85873946D01*
X137500500Y-85105323D01*
X137500499Y-85105321D01*
X137485967Y-85032264D01*
X137485966Y-85032260D01*
X137461538Y-84995701D01*
X137430601Y-84949399D01*
X137356946Y-84900185D01*
X137347739Y-84894033D01*
X137347735Y-84894032D01*
X137274677Y-84879500D01*
X137274674Y-84879500D01*
X135425326Y-84879500D01*
X135425323Y-84879500D01*
X135352264Y-84894032D01*
X135352260Y-84894033D01*
X135269399Y-84949399D01*
X135214033Y-85032260D01*
X135214032Y-85032264D01*
X135199500Y-85105321D01*
X135199500Y-85155500D01*
X135179815Y-85222539D01*
X135127011Y-85268294D01*
X135075500Y-85279500D01*
X128712229Y-85279500D01*
X128645190Y-85259815D01*
X128624548Y-85243181D01*
X128236324Y-84854956D01*
X128202839Y-84793633D01*
X128200602Y-84779429D01*
X128185300Y-84624067D01*
X128159799Y-84540000D01*
X128125232Y-84426046D01*
X128027685Y-84243550D01*
X127954156Y-84153954D01*
X127896410Y-84083589D01*
X127740996Y-83956046D01*
X127739329Y-83954678D01*
X128849500Y-83954678D01*
X128864032Y-84027735D01*
X128864033Y-84027739D01*
X128864034Y-84027740D01*
X128919399Y-84110601D01*
X128984450Y-84154066D01*
X129002260Y-84165966D01*
X129002264Y-84165967D01*
X129075321Y-84180499D01*
X129075324Y-84180500D01*
X129075326Y-84180500D01*
X130924676Y-84180500D01*
X130924677Y-84180499D01*
X130997740Y-84165966D01*
X131080601Y-84110601D01*
X131135966Y-84027740D01*
X131150500Y-83954674D01*
X131150500Y-83186053D01*
X131170185Y-83119014D01*
X131222989Y-83073259D01*
X131292147Y-83063315D01*
X131355703Y-83092340D01*
X131393477Y-83151118D01*
X131397970Y-83174611D01*
X131404244Y-83242310D01*
X131444777Y-83384768D01*
X131462596Y-83447392D01*
X131462596Y-83447394D01*
X131557632Y-83638253D01*
X131675776Y-83794699D01*
X131686128Y-83808407D01*
X131843698Y-83952052D01*
X132024981Y-84064298D01*
X132223802Y-84141321D01*
X132433390Y-84180500D01*
X132433392Y-84180500D01*
X132646608Y-84180500D01*
X132646610Y-84180500D01*
X132856198Y-84141321D01*
X133055019Y-84064298D01*
X133236302Y-83952052D01*
X133393872Y-83808407D01*
X133522366Y-83638255D01*
X133588868Y-83504700D01*
X133617403Y-83447394D01*
X133617403Y-83447393D01*
X133617405Y-83447389D01*
X133675756Y-83242310D01*
X133695429Y-83030000D01*
X133675756Y-82817690D01*
X133617405Y-82612611D01*
X133617403Y-82612606D01*
X133617403Y-82612605D01*
X133522367Y-82421746D01*
X133393872Y-82251593D01*
X133363556Y-82223956D01*
X133236302Y-82107948D01*
X133055019Y-81995702D01*
X133055017Y-81995701D01*
X132875790Y-81926269D01*
X132856198Y-81918679D01*
X132646610Y-81879500D01*
X132433390Y-81879500D01*
X132223802Y-81918679D01*
X132223799Y-81918679D01*
X132223799Y-81918680D01*
X132024982Y-81995701D01*
X132024980Y-81995702D01*
X131843699Y-82107947D01*
X131686127Y-82251593D01*
X131557632Y-82421746D01*
X131462596Y-82612605D01*
X131462596Y-82612607D01*
X131404244Y-82817689D01*
X131397971Y-82885387D01*
X131372185Y-82950324D01*
X131315384Y-82991012D01*
X131245604Y-82994532D01*
X131184997Y-82959767D01*
X131152807Y-82897754D01*
X131150500Y-82873946D01*
X131150500Y-82105323D01*
X131150499Y-82105321D01*
X131135967Y-82032264D01*
X131135966Y-82032260D01*
X131131738Y-82025932D01*
X131080601Y-81949399D01*
X130997740Y-81894034D01*
X130997739Y-81894033D01*
X130997735Y-81894032D01*
X130924677Y-81879500D01*
X130924674Y-81879500D01*
X129075326Y-81879500D01*
X129075323Y-81879500D01*
X129002264Y-81894032D01*
X129002260Y-81894033D01*
X128919399Y-81949399D01*
X128864033Y-82032260D01*
X128864032Y-82032264D01*
X128849500Y-82105321D01*
X128849500Y-83954678D01*
X127739329Y-83954678D01*
X127736450Y-83952315D01*
X127553954Y-83854768D01*
X127355934Y-83794700D01*
X127355932Y-83794699D01*
X127355934Y-83794699D01*
X127150000Y-83774417D01*
X126944067Y-83794699D01*
X126746043Y-83854769D01*
X126635965Y-83913608D01*
X126563550Y-83952315D01*
X126563548Y-83952316D01*
X126563547Y-83952317D01*
X126403589Y-84083589D01*
X126272317Y-84243547D01*
X126174769Y-84426043D01*
X126114699Y-84624067D01*
X126094417Y-84830000D01*
X126114699Y-85035932D01*
X126136078Y-85106410D01*
X126174768Y-85233954D01*
X126272315Y-85416450D01*
X126306969Y-85458677D01*
X126403589Y-85576410D01*
X126500209Y-85655702D01*
X126563550Y-85707685D01*
X126746046Y-85805232D01*
X126944066Y-85865300D01*
X126944065Y-85865300D01*
X127006589Y-85871458D01*
X127099429Y-85880602D01*
X127164216Y-85906763D01*
X127174956Y-85916324D01*
X127374215Y-86115583D01*
X127407700Y-86176906D01*
X127402716Y-86246598D01*
X127360844Y-86302531D01*
X127295380Y-86326948D01*
X127274380Y-86326667D01*
X127150000Y-86314417D01*
X126944067Y-86334699D01*
X126746043Y-86394769D01*
X126635898Y-86453643D01*
X126563550Y-86492315D01*
X126563548Y-86492316D01*
X126563547Y-86492317D01*
X126403589Y-86623589D01*
X126274818Y-86780500D01*
X126272315Y-86783550D01*
X126259029Y-86808406D01*
X126174769Y-86966043D01*
X126114699Y-87164067D01*
X126094417Y-87370000D01*
X120585583Y-87370000D01*
X120565300Y-87164066D01*
X120505232Y-86966046D01*
X120505230Y-86966043D01*
X120505230Y-86966041D01*
X120407688Y-86783555D01*
X120407687Y-86783553D01*
X120407685Y-86783550D01*
X120308646Y-86662869D01*
X120281334Y-86598559D01*
X120280500Y-86584205D01*
X120280500Y-85615793D01*
X120300185Y-85548754D01*
X120308642Y-85537133D01*
X120407685Y-85416450D01*
X120505232Y-85233954D01*
X120565300Y-85035934D01*
X120585583Y-84830000D01*
X120565300Y-84624066D01*
X120505232Y-84426046D01*
X120407685Y-84243550D01*
X120334156Y-84153954D01*
X120276410Y-84083589D01*
X120120996Y-83956046D01*
X120116450Y-83952315D01*
X119933954Y-83854768D01*
X119735934Y-83794700D01*
X119735932Y-83794699D01*
X119735934Y-83794699D01*
X119530000Y-83774417D01*
X119324067Y-83794699D01*
X119126043Y-83854769D01*
X119015965Y-83913608D01*
X118943550Y-83952315D01*
X118943548Y-83952316D01*
X118943547Y-83952317D01*
X118783589Y-84083589D01*
X118652317Y-84243547D01*
X118554769Y-84426043D01*
X118494699Y-84624067D01*
X118474417Y-84830000D01*
X118494699Y-85035932D01*
X118516078Y-85106410D01*
X118554768Y-85233954D01*
X118603857Y-85325793D01*
X118652316Y-85416452D01*
X118751353Y-85537129D01*
X118778666Y-85601438D01*
X118779500Y-85615793D01*
X118779500Y-86584205D01*
X118759815Y-86651244D01*
X118751354Y-86662869D01*
X118725752Y-86694066D01*
X118652318Y-86783547D01*
X118652311Y-86783555D01*
X118554769Y-86966041D01*
X118494699Y-87164067D01*
X118474417Y-87370000D01*
X111912833Y-87370000D01*
X111935300Y-87295934D01*
X111955583Y-87090000D01*
X111935300Y-86884066D01*
X111875232Y-86686046D01*
X111875230Y-86686043D01*
X111875230Y-86686041D01*
X111777688Y-86503555D01*
X111777687Y-86503553D01*
X111777685Y-86503550D01*
X111678646Y-86382869D01*
X111651334Y-86318559D01*
X111650500Y-86304205D01*
X111650500Y-85325793D01*
X111670185Y-85258754D01*
X111678642Y-85247133D01*
X111777685Y-85126450D01*
X111875232Y-84943954D01*
X111935300Y-84745934D01*
X111955583Y-84540000D01*
X111935300Y-84334066D01*
X111875232Y-84136046D01*
X111777685Y-83953550D01*
X111696617Y-83854768D01*
X111646410Y-83793589D01*
X111501050Y-83674297D01*
X111486450Y-83662315D01*
X111303954Y-83564768D01*
X111105934Y-83504700D01*
X111105932Y-83504699D01*
X111105934Y-83504699D01*
X110900000Y-83484417D01*
X110694067Y-83504699D01*
X110496043Y-83564769D01*
X110404709Y-83613589D01*
X110313550Y-83662315D01*
X110313548Y-83662316D01*
X110313547Y-83662317D01*
X110153589Y-83793589D01*
X110022317Y-83953547D01*
X110022315Y-83953550D01*
X110008443Y-83979502D01*
X109924769Y-84136043D01*
X109924768Y-84136045D01*
X109924768Y-84136046D01*
X109923168Y-84141321D01*
X109864699Y-84334067D01*
X109844417Y-84540000D01*
X109864699Y-84745932D01*
X109864700Y-84745934D01*
X109917101Y-84918680D01*
X109924769Y-84943956D01*
X109925889Y-84946052D01*
X110012425Y-85107948D01*
X110022317Y-85126453D01*
X110068586Y-85182831D01*
X110121353Y-85247129D01*
X110148666Y-85311438D01*
X110149500Y-85325793D01*
X110149500Y-86304205D01*
X110129815Y-86371244D01*
X110121354Y-86382869D01*
X110022311Y-86503555D01*
X109924769Y-86686041D01*
X109864699Y-86884067D01*
X109844417Y-87090000D01*
X107756869Y-87090000D01*
X107775583Y-86900000D01*
X107755300Y-86694066D01*
X107695232Y-86496046D01*
X107597685Y-86313550D01*
X107485545Y-86176906D01*
X107466410Y-86153589D01*
X107306452Y-86022317D01*
X107306453Y-86022317D01*
X107306450Y-86022315D01*
X107123954Y-85924768D01*
X106925934Y-85864700D01*
X106925932Y-85864699D01*
X106925934Y-85864699D01*
X106720000Y-85844417D01*
X106514067Y-85864699D01*
X106316043Y-85924769D01*
X106250568Y-85959767D01*
X106133550Y-86022315D01*
X106133548Y-86022316D01*
X106133547Y-86022317D01*
X105973589Y-86153589D01*
X105842315Y-86313548D01*
X105831408Y-86333955D01*
X105782445Y-86383798D01*
X105722051Y-86399500D01*
X104358675Y-86399500D01*
X104291636Y-86379815D01*
X104270994Y-86363181D01*
X102267814Y-84360000D01*
X105664417Y-84360000D01*
X105684699Y-84565932D01*
X105684700Y-84565934D01*
X105744768Y-84763954D01*
X105842315Y-84946450D01*
X105876969Y-84988677D01*
X105973589Y-85106410D01*
X106070209Y-85185702D01*
X106133550Y-85237685D01*
X106316046Y-85335232D01*
X106514066Y-85395300D01*
X106514065Y-85395300D01*
X106532529Y-85397118D01*
X106720000Y-85415583D01*
X106925934Y-85395300D01*
X107123954Y-85335232D01*
X107306450Y-85237685D01*
X107466410Y-85106410D01*
X107597685Y-84946450D01*
X107695232Y-84763954D01*
X107755300Y-84565934D01*
X107775583Y-84360000D01*
X107755300Y-84154066D01*
X107695232Y-83956046D01*
X107597685Y-83773550D01*
X107516231Y-83674297D01*
X107466410Y-83613589D01*
X107306452Y-83482317D01*
X107306453Y-83482317D01*
X107306450Y-83482315D01*
X107123954Y-83384768D01*
X106925934Y-83324700D01*
X106925932Y-83324699D01*
X106925934Y-83324699D01*
X106720000Y-83304417D01*
X106514067Y-83324699D01*
X106316043Y-83384769D01*
X106205898Y-83443643D01*
X106133550Y-83482315D01*
X106133548Y-83482316D01*
X106133547Y-83482317D01*
X105973589Y-83613589D01*
X105842317Y-83773547D01*
X105842315Y-83773550D01*
X105803643Y-83845898D01*
X105744769Y-83956043D01*
X105684699Y-84154067D01*
X105664417Y-84360000D01*
X102267814Y-84360000D01*
X101887316Y-83979502D01*
X101887315Y-83979501D01*
X101887314Y-83979500D01*
X101830250Y-83946554D01*
X101773187Y-83913608D01*
X101709539Y-83896554D01*
X101645892Y-83879500D01*
X101645891Y-83879500D01*
X100941229Y-83879500D01*
X100874190Y-83859815D01*
X100828435Y-83807011D01*
X100818491Y-83737853D01*
X100847516Y-83674297D01*
X100853548Y-83667819D01*
X101402948Y-83118419D01*
X101402951Y-83118416D01*
X101485084Y-82995495D01*
X101486422Y-82992266D01*
X101514526Y-82924415D01*
X101541658Y-82858913D01*
X101564037Y-82746410D01*
X101570500Y-82713920D01*
X101570500Y-81820000D01*
X105664417Y-81820000D01*
X105684699Y-82025932D01*
X105702334Y-82084066D01*
X105744768Y-82223954D01*
X105842315Y-82406450D01*
X105848475Y-82413956D01*
X105973589Y-82566410D01*
X106029886Y-82612611D01*
X106133550Y-82697685D01*
X106316046Y-82795232D01*
X106514066Y-82855300D01*
X106514065Y-82855300D01*
X106532529Y-82857118D01*
X106720000Y-82875583D01*
X106925934Y-82855300D01*
X107123954Y-82795232D01*
X107306450Y-82697685D01*
X107466410Y-82566410D01*
X107597685Y-82406450D01*
X107695232Y-82223954D01*
X107755300Y-82025934D01*
X107757854Y-82000000D01*
X109844417Y-82000000D01*
X109864699Y-82205932D01*
X109867733Y-82215934D01*
X109924768Y-82403954D01*
X110022315Y-82586450D01*
X110043785Y-82612611D01*
X110153589Y-82746410D01*
X110213080Y-82795232D01*
X110313550Y-82877685D01*
X110496046Y-82975232D01*
X110694066Y-83035300D01*
X110694065Y-83035300D01*
X110712529Y-83037118D01*
X110900000Y-83055583D01*
X111105934Y-83035300D01*
X111303954Y-82975232D01*
X111486450Y-82877685D01*
X111555244Y-82821227D01*
X111594944Y-82788647D01*
X111659254Y-82761334D01*
X111673609Y-82760500D01*
X113144206Y-82760500D01*
X113211245Y-82780185D01*
X113222871Y-82788647D01*
X113329739Y-82876351D01*
X113343550Y-82887685D01*
X113526046Y-82985232D01*
X113724066Y-83045300D01*
X113724065Y-83045300D01*
X113742529Y-83047118D01*
X113930000Y-83065583D01*
X114135934Y-83045300D01*
X114333954Y-82985232D01*
X114516450Y-82887685D01*
X114676410Y-82756410D01*
X114807685Y-82596450D01*
X114905232Y-82413954D01*
X114965300Y-82215934D01*
X114980601Y-82060568D01*
X115001020Y-82010000D01*
X115874417Y-82010000D01*
X115894699Y-82215932D01*
X115905517Y-82251593D01*
X115954768Y-82413954D01*
X116052315Y-82596450D01*
X116052317Y-82596452D01*
X116183589Y-82756410D01*
X116230895Y-82795232D01*
X116343550Y-82887685D01*
X116526046Y-82985232D01*
X116724066Y-83045300D01*
X116724065Y-83045300D01*
X116742529Y-83047118D01*
X116930000Y-83065583D01*
X117135934Y-83045300D01*
X117333954Y-82985232D01*
X117516450Y-82887685D01*
X117676410Y-82756410D01*
X117807685Y-82596450D01*
X117905232Y-82413954D01*
X117942833Y-82290000D01*
X118474417Y-82290000D01*
X118494699Y-82495932D01*
X118494700Y-82495934D01*
X118554768Y-82693954D01*
X118652315Y-82876450D01*
X118669799Y-82897754D01*
X118783589Y-83036410D01*
X118851741Y-83092340D01*
X118943550Y-83167685D01*
X119126046Y-83265232D01*
X119324066Y-83325300D01*
X119324065Y-83325300D01*
X119342529Y-83327118D01*
X119530000Y-83345583D01*
X119735934Y-83325300D01*
X119933954Y-83265232D01*
X120116450Y-83167685D01*
X120276410Y-83036410D01*
X120407685Y-82876450D01*
X120505232Y-82693954D01*
X120565300Y-82495934D01*
X120585583Y-82290000D01*
X126094417Y-82290000D01*
X126114699Y-82495932D01*
X126114700Y-82495934D01*
X126174768Y-82693954D01*
X126272315Y-82876450D01*
X126289799Y-82897754D01*
X126403589Y-83036410D01*
X126471741Y-83092340D01*
X126563550Y-83167685D01*
X126746046Y-83265232D01*
X126944066Y-83325300D01*
X126944065Y-83325300D01*
X126962529Y-83327118D01*
X127150000Y-83345583D01*
X127355934Y-83325300D01*
X127553954Y-83265232D01*
X127736450Y-83167685D01*
X127896410Y-83036410D01*
X128027685Y-82876450D01*
X128125232Y-82693954D01*
X128185300Y-82495934D01*
X128205583Y-82290000D01*
X128185300Y-82084066D01*
X128125232Y-81886046D01*
X128027685Y-81703550D01*
X127947664Y-81606043D01*
X127896410Y-81543589D01*
X127777995Y-81446410D01*
X127736450Y-81412315D01*
X127645793Y-81363857D01*
X127595950Y-81314895D01*
X127580490Y-81246757D01*
X127604322Y-81181078D01*
X127659880Y-81138709D01*
X127704248Y-81130500D01*
X136383920Y-81130500D01*
X136517360Y-81103956D01*
X136528913Y-81101658D01*
X136665495Y-81045084D01*
X136730876Y-81001398D01*
X136797553Y-80980520D01*
X136799767Y-80980500D01*
X137279676Y-80980500D01*
X137279677Y-80980499D01*
X137352740Y-80965966D01*
X137435601Y-80910601D01*
X137490966Y-80827740D01*
X137505500Y-80754674D01*
X137505500Y-79986053D01*
X137525185Y-79919014D01*
X137577989Y-79873259D01*
X137647147Y-79863315D01*
X137710703Y-79892340D01*
X137748477Y-79951118D01*
X137752971Y-79974612D01*
X137759244Y-80042310D01*
X137817596Y-80247392D01*
X137817596Y-80247394D01*
X137912632Y-80438253D01*
X137993702Y-80545606D01*
X138041128Y-80608407D01*
X138198698Y-80752052D01*
X138379981Y-80864298D01*
X138578802Y-80941321D01*
X138788390Y-80980500D01*
X138788392Y-80980500D01*
X139001608Y-80980500D01*
X139001610Y-80980500D01*
X139211198Y-80941321D01*
X139410019Y-80864298D01*
X139591302Y-80752052D01*
X139748872Y-80608407D01*
X139877366Y-80438255D01*
X139906413Y-80379920D01*
X139972403Y-80247394D01*
X139972403Y-80247393D01*
X139972405Y-80247389D01*
X140030756Y-80042310D01*
X140050429Y-79830000D01*
X140030756Y-79617690D01*
X139972405Y-79412611D01*
X139972403Y-79412606D01*
X139972403Y-79412605D01*
X139877367Y-79221746D01*
X139748872Y-79051593D01*
X139723364Y-79028339D01*
X139591302Y-78907948D01*
X139410019Y-78795702D01*
X139410017Y-78795701D01*
X139266234Y-78740000D01*
X139211198Y-78718679D01*
X139001610Y-78679500D01*
X138788390Y-78679500D01*
X138578802Y-78718679D01*
X138578799Y-78718679D01*
X138578799Y-78718680D01*
X138379982Y-78795701D01*
X138379980Y-78795702D01*
X138198699Y-78907947D01*
X138041127Y-79051593D01*
X137912632Y-79221746D01*
X137817596Y-79412605D01*
X137817596Y-79412607D01*
X137759244Y-79617689D01*
X137752971Y-79685387D01*
X137727185Y-79750324D01*
X137670384Y-79791012D01*
X137600604Y-79794532D01*
X137539997Y-79759767D01*
X137507807Y-79697754D01*
X137505500Y-79673946D01*
X137505500Y-78905323D01*
X137505499Y-78905321D01*
X137490967Y-78832264D01*
X137490966Y-78832260D01*
X137452552Y-78774769D01*
X137435601Y-78749399D01*
X137380235Y-78712405D01*
X137352739Y-78694033D01*
X137352735Y-78694032D01*
X137279677Y-78679500D01*
X137279674Y-78679500D01*
X135430326Y-78679500D01*
X135430323Y-78679500D01*
X135357264Y-78694032D01*
X135357260Y-78694033D01*
X135274399Y-78749399D01*
X135219033Y-78832260D01*
X135219032Y-78832264D01*
X135204500Y-78905321D01*
X135204500Y-79505500D01*
X135184815Y-79572539D01*
X135132011Y-79618294D01*
X135080500Y-79629500D01*
X128303181Y-79629500D01*
X128236142Y-79609815D01*
X128190387Y-79557011D01*
X128184520Y-79541495D01*
X128179757Y-79525793D01*
X128125232Y-79346046D01*
X128027685Y-79163550D01*
X127963152Y-79084916D01*
X127896410Y-79003589D01*
X127736452Y-78872317D01*
X127736453Y-78872317D01*
X127736450Y-78872315D01*
X127553954Y-78774768D01*
X127355934Y-78714700D01*
X127355932Y-78714699D01*
X127355934Y-78714699D01*
X127150000Y-78694417D01*
X126944067Y-78714699D01*
X126746043Y-78774769D01*
X126677058Y-78811643D01*
X126563550Y-78872315D01*
X126563548Y-78872316D01*
X126563547Y-78872317D01*
X126403589Y-79003589D01*
X126288395Y-79143956D01*
X126272315Y-79163550D01*
X126270445Y-79167049D01*
X126174769Y-79346043D01*
X126114699Y-79544067D01*
X126094417Y-79750000D01*
X126114699Y-79955932D01*
X126114700Y-79955934D01*
X126174768Y-80153954D01*
X126272315Y-80336450D01*
X126272317Y-80336452D01*
X126403589Y-80496410D01*
X126500209Y-80575702D01*
X126563550Y-80627685D01*
X126746046Y-80725232D01*
X126944066Y-80785300D01*
X126944065Y-80785300D01*
X127099428Y-80800602D01*
X127164215Y-80826763D01*
X127174955Y-80836323D01*
X127301585Y-80962952D01*
X127327848Y-80980500D01*
X127392701Y-81023833D01*
X127437505Y-81077444D01*
X127446213Y-81146769D01*
X127416059Y-81209797D01*
X127356617Y-81246516D01*
X127311656Y-81250338D01*
X127150000Y-81234417D01*
X126944067Y-81254699D01*
X126746043Y-81314769D01*
X126654206Y-81363858D01*
X126563550Y-81412315D01*
X126563548Y-81412316D01*
X126563547Y-81412317D01*
X126403589Y-81543589D01*
X126272317Y-81703547D01*
X126174769Y-81886043D01*
X126114699Y-82084067D01*
X126094417Y-82290000D01*
X120585583Y-82290000D01*
X120565300Y-82084066D01*
X120505232Y-81886046D01*
X120407685Y-81703550D01*
X120327664Y-81606043D01*
X120276410Y-81543589D01*
X120157995Y-81446410D01*
X120116450Y-81412315D01*
X119933954Y-81314768D01*
X119735934Y-81254700D01*
X119735932Y-81254699D01*
X119735934Y-81254699D01*
X119530000Y-81234417D01*
X119324067Y-81254699D01*
X119126043Y-81314769D01*
X119034206Y-81363858D01*
X118943550Y-81412315D01*
X118943548Y-81412316D01*
X118943547Y-81412317D01*
X118783589Y-81543589D01*
X118652317Y-81703547D01*
X118554769Y-81886043D01*
X118494699Y-82084067D01*
X118474417Y-82290000D01*
X117942833Y-82290000D01*
X117965300Y-82215934D01*
X117985583Y-82010000D01*
X117965300Y-81804066D01*
X117905232Y-81606046D01*
X117807685Y-81423550D01*
X117718515Y-81314895D01*
X117676410Y-81263589D01*
X117534062Y-81146769D01*
X117516450Y-81132315D01*
X117333954Y-81034768D01*
X117135934Y-80974700D01*
X117135932Y-80974699D01*
X117135934Y-80974699D01*
X116930000Y-80954417D01*
X116724067Y-80974699D01*
X116526043Y-81034769D01*
X116421297Y-81090758D01*
X116343550Y-81132315D01*
X116343548Y-81132316D01*
X116343547Y-81132317D01*
X116183589Y-81263589D01*
X116052317Y-81423547D01*
X115954769Y-81606043D01*
X115894699Y-81804067D01*
X115874417Y-82010000D01*
X115001020Y-82010000D01*
X115006761Y-81995782D01*
X115016314Y-81985051D01*
X116464548Y-80536819D01*
X116525871Y-80503334D01*
X116552229Y-80500500D01*
X118744206Y-80500500D01*
X118811245Y-80520185D01*
X118822871Y-80528647D01*
X118943546Y-80627682D01*
X118943550Y-80627685D01*
X119126046Y-80725232D01*
X119324066Y-80785300D01*
X119324065Y-80785300D01*
X119342529Y-80787118D01*
X119530000Y-80805583D01*
X119735934Y-80785300D01*
X119933954Y-80725232D01*
X120116450Y-80627685D01*
X120276410Y-80496410D01*
X120407685Y-80336450D01*
X120505232Y-80153954D01*
X120565300Y-79955934D01*
X120585583Y-79750000D01*
X120565300Y-79544066D01*
X120505232Y-79346046D01*
X120407685Y-79163550D01*
X120343152Y-79084916D01*
X120276410Y-79003589D01*
X120116452Y-78872317D01*
X120116453Y-78872317D01*
X120116450Y-78872315D01*
X119933954Y-78774768D01*
X119735934Y-78714700D01*
X119735932Y-78714699D01*
X119735934Y-78714699D01*
X119530000Y-78694417D01*
X119324067Y-78714699D01*
X119126043Y-78774769D01*
X118943546Y-78872317D01*
X118822871Y-78971353D01*
X118758561Y-78998666D01*
X118744206Y-78999500D01*
X116116082Y-78999500D01*
X116095521Y-79003590D01*
X116095520Y-79003590D01*
X115971095Y-79028339D01*
X115971087Y-79028341D01*
X115914953Y-79051593D01*
X115834508Y-79084914D01*
X115834498Y-79084919D01*
X115775266Y-79124498D01*
X115711582Y-79167049D01*
X113954956Y-80923675D01*
X113893633Y-80957160D01*
X113879430Y-80959397D01*
X113724067Y-80974699D01*
X113526043Y-81034769D01*
X113343546Y-81132317D01*
X113222871Y-81231353D01*
X113158561Y-81258666D01*
X113144206Y-81259500D01*
X111697980Y-81259500D01*
X111630941Y-81239815D01*
X111619316Y-81231354D01*
X111516247Y-81146769D01*
X111486450Y-81122315D01*
X111303954Y-81024768D01*
X111105934Y-80964700D01*
X111105932Y-80964699D01*
X111105934Y-80964699D01*
X110900000Y-80944417D01*
X110694067Y-80964699D01*
X110573087Y-81001398D01*
X110511501Y-81020080D01*
X110496043Y-81024769D01*
X110404709Y-81073589D01*
X110313550Y-81122315D01*
X110313548Y-81122316D01*
X110313547Y-81122317D01*
X110153589Y-81253589D01*
X110022317Y-81413547D01*
X110022315Y-81413550D01*
X110016970Y-81423550D01*
X109924769Y-81596043D01*
X109924768Y-81596045D01*
X109924768Y-81596046D01*
X109921735Y-81606046D01*
X109864699Y-81794067D01*
X109844417Y-82000000D01*
X107757854Y-82000000D01*
X107775583Y-81820000D01*
X107755300Y-81614066D01*
X107695232Y-81416046D01*
X107695230Y-81416043D01*
X107695230Y-81416041D01*
X107597688Y-81233555D01*
X107597687Y-81233553D01*
X107597685Y-81233550D01*
X107508646Y-81125054D01*
X107481334Y-81060744D01*
X107480500Y-81046390D01*
X107480500Y-79525793D01*
X107500185Y-79458754D01*
X107508642Y-79447133D01*
X107607685Y-79326450D01*
X107705232Y-79143954D01*
X107765300Y-78945934D01*
X107785583Y-78740000D01*
X107765300Y-78534066D01*
X107705232Y-78336046D01*
X107607685Y-78153550D01*
X107552618Y-78086450D01*
X107476410Y-77993589D01*
X107316452Y-77862317D01*
X107316453Y-77862317D01*
X107316450Y-77862315D01*
X107133954Y-77764768D01*
X106935934Y-77704700D01*
X106935932Y-77704699D01*
X106935934Y-77704699D01*
X106730000Y-77684417D01*
X106524067Y-77704699D01*
X106326043Y-77764769D01*
X106215898Y-77823643D01*
X106143550Y-77862315D01*
X106143548Y-77862316D01*
X106143547Y-77862317D01*
X105983589Y-77993589D01*
X105852317Y-78153547D01*
X105852315Y-78153550D01*
X105813643Y-78225898D01*
X105754769Y-78336043D01*
X105694699Y-78534067D01*
X105674417Y-78740000D01*
X105694699Y-78945932D01*
X105719697Y-79028339D01*
X105748866Y-79124499D01*
X105754769Y-79143956D01*
X105852316Y-79326452D01*
X105951353Y-79447129D01*
X105978666Y-79511438D01*
X105979500Y-79525793D01*
X105979500Y-81022020D01*
X105959815Y-81089059D01*
X105951354Y-81100684D01*
X105885377Y-81181078D01*
X105842315Y-81233550D01*
X105814039Y-81286450D01*
X105744769Y-81416043D01*
X105684699Y-81614067D01*
X105664417Y-81820000D01*
X101570500Y-81820000D01*
X101570500Y-77224500D01*
X101590185Y-77157461D01*
X101642989Y-77111706D01*
X101694500Y-77100500D01*
X107557770Y-77100500D01*
X107624809Y-77120185D01*
X107645446Y-77136814D01*
X107808567Y-77299934D01*
X107842051Y-77361256D01*
X107844288Y-77399767D01*
X107834417Y-77499999D01*
X107854699Y-77705932D01*
X107869486Y-77754678D01*
X107914768Y-77903954D01*
X108012315Y-78086450D01*
X108012317Y-78086452D01*
X108143589Y-78246410D01*
X108216948Y-78306613D01*
X108303550Y-78377685D01*
X108486046Y-78475232D01*
X108684066Y-78535300D01*
X108684065Y-78535300D01*
X108702529Y-78537118D01*
X108890000Y-78555583D01*
X109095934Y-78535300D01*
X109293954Y-78475232D01*
X109476450Y-78377685D01*
X109636410Y-78246410D01*
X109767685Y-78086450D01*
X109865232Y-77903954D01*
X109925300Y-77705934D01*
X109945583Y-77500000D01*
X115454417Y-77500000D01*
X115474699Y-77705932D01*
X115489486Y-77754678D01*
X115534768Y-77903954D01*
X115632315Y-78086450D01*
X115632317Y-78086452D01*
X115763589Y-78246410D01*
X115836948Y-78306613D01*
X115923550Y-78377685D01*
X116106046Y-78475232D01*
X116304066Y-78535300D01*
X116304065Y-78535300D01*
X116322529Y-78537118D01*
X116510000Y-78555583D01*
X116715934Y-78535300D01*
X116913954Y-78475232D01*
X117096450Y-78377685D01*
X117256410Y-78246410D01*
X117387685Y-78086450D01*
X117485232Y-77903954D01*
X117545300Y-77705934D01*
X117565583Y-77500000D01*
X117545300Y-77294066D01*
X117485232Y-77096046D01*
X117387685Y-76913550D01*
X117317817Y-76828415D01*
X117256410Y-76753589D01*
X117138677Y-76656969D01*
X117096450Y-76622315D01*
X116913954Y-76524768D01*
X116715934Y-76464700D01*
X116715932Y-76464699D01*
X116715934Y-76464699D01*
X116510000Y-76444417D01*
X116304067Y-76464699D01*
X116106043Y-76524769D01*
X115995898Y-76583643D01*
X115923550Y-76622315D01*
X115923548Y-76622316D01*
X115923547Y-76622317D01*
X115763589Y-76753589D01*
X115649721Y-76892340D01*
X115632315Y-76913550D01*
X115599676Y-76974612D01*
X115534769Y-77096043D01*
X115474699Y-77294067D01*
X115454417Y-77500000D01*
X109945583Y-77500000D01*
X109925300Y-77294066D01*
X109865232Y-77096046D01*
X109767685Y-76913550D01*
X109697817Y-76828415D01*
X109636410Y-76753589D01*
X109518677Y-76656969D01*
X109476450Y-76622315D01*
X109293954Y-76524768D01*
X109125846Y-76473773D01*
X109074161Y-76442794D01*
X108398421Y-75767052D01*
X108398420Y-75767051D01*
X108305427Y-75704916D01*
X108275495Y-75684916D01*
X108275488Y-75684912D01*
X108138917Y-75628343D01*
X108138907Y-75628340D01*
X107993920Y-75599500D01*
X107993918Y-75599500D01*
X92674500Y-75599500D01*
X92607461Y-75579815D01*
X92561706Y-75527011D01*
X92550500Y-75475500D01*
X92550500Y-75299587D01*
X92550499Y-75299585D01*
X92535967Y-75226528D01*
X92535966Y-75226524D01*
X92498199Y-75170000D01*
X118328762Y-75170000D01*
X118399865Y-75322482D01*
X118530342Y-75508820D01*
X118691179Y-75669657D01*
X118877517Y-75800134D01*
X119083673Y-75896265D01*
X119083682Y-75896269D01*
X119279256Y-75948673D01*
X119338917Y-75985038D01*
X119369446Y-76047885D01*
X119361151Y-76117261D01*
X119316666Y-76171138D01*
X119283158Y-76187109D01*
X119126043Y-76234769D01*
X119015898Y-76293643D01*
X118943550Y-76332315D01*
X118943548Y-76332316D01*
X118943547Y-76332317D01*
X118783589Y-76463589D01*
X118652317Y-76623547D01*
X118554769Y-76806043D01*
X118494699Y-77004067D01*
X118474417Y-77210000D01*
X118494699Y-77415932D01*
X118520201Y-77500000D01*
X118554768Y-77613954D01*
X118652315Y-77796450D01*
X118652317Y-77796452D01*
X118783589Y-77956410D01*
X118837960Y-78001030D01*
X118943550Y-78087685D01*
X119126046Y-78185232D01*
X119324066Y-78245300D01*
X119324065Y-78245300D01*
X119342529Y-78247118D01*
X119530000Y-78265583D01*
X119735934Y-78245300D01*
X119933954Y-78185232D01*
X120116450Y-78087685D01*
X120276410Y-77956410D01*
X120407685Y-77796450D01*
X120505232Y-77613954D01*
X120565300Y-77415934D01*
X120585583Y-77210000D01*
X126094417Y-77210000D01*
X126114699Y-77415932D01*
X126140201Y-77500000D01*
X126174768Y-77613954D01*
X126272315Y-77796450D01*
X126272317Y-77796452D01*
X126403589Y-77956410D01*
X126457960Y-78001030D01*
X126563550Y-78087685D01*
X126746046Y-78185232D01*
X126944066Y-78245300D01*
X126944065Y-78245300D01*
X126962529Y-78247118D01*
X127150000Y-78265583D01*
X127355934Y-78245300D01*
X127553954Y-78185232D01*
X127736450Y-78087685D01*
X127896410Y-77956410D01*
X128027685Y-77796450D01*
X128050013Y-77754678D01*
X128869500Y-77754678D01*
X128884032Y-77827735D01*
X128884033Y-77827739D01*
X128884034Y-77827740D01*
X128939399Y-77910601D01*
X128985373Y-77941319D01*
X129022260Y-77965966D01*
X129022264Y-77965967D01*
X129095321Y-77980499D01*
X129095324Y-77980500D01*
X129095326Y-77980500D01*
X130944676Y-77980500D01*
X130944677Y-77980499D01*
X131017740Y-77965966D01*
X131100601Y-77910601D01*
X131155966Y-77827740D01*
X131170500Y-77754674D01*
X131170500Y-76986053D01*
X131190185Y-76919014D01*
X131242989Y-76873259D01*
X131312147Y-76863315D01*
X131375703Y-76892340D01*
X131413477Y-76951118D01*
X131417970Y-76974611D01*
X131424244Y-77042310D01*
X131476082Y-77224500D01*
X131482596Y-77247392D01*
X131482596Y-77247394D01*
X131577632Y-77438253D01*
X131648878Y-77532597D01*
X131706128Y-77608407D01*
X131863698Y-77752052D01*
X132044981Y-77864298D01*
X132243802Y-77941321D01*
X132453390Y-77980500D01*
X132453392Y-77980500D01*
X132666608Y-77980500D01*
X132666610Y-77980500D01*
X132876198Y-77941321D01*
X133075019Y-77864298D01*
X133256302Y-77752052D01*
X133413872Y-77608407D01*
X133542366Y-77438255D01*
X133611242Y-77299932D01*
X133637403Y-77247394D01*
X133637403Y-77247393D01*
X133637405Y-77247389D01*
X133695756Y-77042310D01*
X133715429Y-76830000D01*
X133695756Y-76617690D01*
X133637405Y-76412611D01*
X133637403Y-76412606D01*
X133637403Y-76412605D01*
X133542367Y-76221746D01*
X133413872Y-76051593D01*
X133340865Y-75985038D01*
X133256302Y-75907948D01*
X133075019Y-75795702D01*
X133075017Y-75795701D01*
X132894019Y-75725583D01*
X132876198Y-75718679D01*
X132666610Y-75679500D01*
X132453390Y-75679500D01*
X132243802Y-75718679D01*
X132243799Y-75718679D01*
X132243799Y-75718680D01*
X132044982Y-75795701D01*
X132044980Y-75795702D01*
X131863699Y-75907947D01*
X131706127Y-76051593D01*
X131577632Y-76221746D01*
X131482596Y-76412605D01*
X131482596Y-76412607D01*
X131424244Y-76617689D01*
X131417971Y-76685387D01*
X131392185Y-76750324D01*
X131335384Y-76791012D01*
X131265604Y-76794532D01*
X131204997Y-76759767D01*
X131172807Y-76697754D01*
X131170500Y-76673946D01*
X131170500Y-75905323D01*
X131170499Y-75905321D01*
X131155967Y-75832264D01*
X131155966Y-75832260D01*
X131131538Y-75795701D01*
X131100601Y-75749399D01*
X131034601Y-75705300D01*
X131017739Y-75694033D01*
X131017735Y-75694032D01*
X130944677Y-75679500D01*
X130944674Y-75679500D01*
X129095326Y-75679500D01*
X129095323Y-75679500D01*
X129022264Y-75694032D01*
X129022260Y-75694033D01*
X128939399Y-75749399D01*
X128884033Y-75832260D01*
X128884032Y-75832264D01*
X128869500Y-75905321D01*
X128869500Y-77754678D01*
X128050013Y-77754678D01*
X128125232Y-77613954D01*
X128185300Y-77415934D01*
X128205583Y-77210000D01*
X128185300Y-77004066D01*
X128125232Y-76806046D01*
X128027685Y-76623550D01*
X127897369Y-76464758D01*
X127896410Y-76463589D01*
X127778677Y-76366969D01*
X127736450Y-76332315D01*
X127553954Y-76234768D01*
X127355934Y-76174700D01*
X127355932Y-76174699D01*
X127355934Y-76174699D01*
X127150000Y-76154417D01*
X126944067Y-76174699D01*
X126746043Y-76234769D01*
X126635898Y-76293643D01*
X126563550Y-76332315D01*
X126563548Y-76332316D01*
X126563547Y-76332317D01*
X126403589Y-76463589D01*
X126272317Y-76623547D01*
X126174769Y-76806043D01*
X126114699Y-77004067D01*
X126094417Y-77210000D01*
X120585583Y-77210000D01*
X120565300Y-77004066D01*
X120505232Y-76806046D01*
X120407685Y-76623550D01*
X120277369Y-76464758D01*
X120276410Y-76463589D01*
X120158677Y-76366969D01*
X120116450Y-76332315D01*
X119933954Y-76234768D01*
X119776840Y-76187108D01*
X119718402Y-76148811D01*
X119689946Y-76084999D01*
X119700506Y-76015932D01*
X119746730Y-75963538D01*
X119780743Y-75948673D01*
X119976317Y-75896269D01*
X119976326Y-75896265D01*
X120182482Y-75800134D01*
X120368820Y-75669657D01*
X120529657Y-75508820D01*
X120660134Y-75322482D01*
X120731237Y-75170000D01*
X118328762Y-75170000D01*
X92498199Y-75170000D01*
X92480601Y-75143663D01*
X92480599Y-75143662D01*
X92473815Y-75133508D01*
X92477025Y-75131362D01*
X92454036Y-75089260D01*
X92459020Y-75019568D01*
X92487521Y-74975221D01*
X92499657Y-74963084D01*
X92630134Y-74776746D01*
X92655354Y-74722661D01*
X119130000Y-74722661D01*
X119157259Y-74824394D01*
X119209920Y-74915606D01*
X119284394Y-74990080D01*
X119375606Y-75042741D01*
X119477339Y-75070000D01*
X119582661Y-75070000D01*
X119684394Y-75042741D01*
X119775606Y-74990080D01*
X119850080Y-74915606D01*
X119902741Y-74824394D01*
X119930000Y-74722661D01*
X119930000Y-74670000D01*
X126094417Y-74670000D01*
X126114699Y-74875932D01*
X126114700Y-74875934D01*
X126174768Y-75073954D01*
X126272315Y-75256450D01*
X126272317Y-75256452D01*
X126403589Y-75416410D01*
X126475592Y-75475500D01*
X126563550Y-75547685D01*
X126746046Y-75645232D01*
X126944066Y-75705300D01*
X126944065Y-75705300D01*
X126962529Y-75707118D01*
X127150000Y-75725583D01*
X127355934Y-75705300D01*
X127553954Y-75645232D01*
X127736450Y-75547685D01*
X127896410Y-75416410D01*
X128027685Y-75256450D01*
X128125232Y-75073954D01*
X128185300Y-74875934D01*
X128200602Y-74720568D01*
X128226763Y-74655782D01*
X128236315Y-74645051D01*
X128464548Y-74416819D01*
X128525871Y-74383334D01*
X128552229Y-74380500D01*
X135055500Y-74380500D01*
X135122539Y-74400185D01*
X135168294Y-74452989D01*
X135179500Y-74504500D01*
X135179500Y-74554678D01*
X135194032Y-74627735D01*
X135194033Y-74627739D01*
X135194034Y-74627740D01*
X135249399Y-74710601D01*
X135332260Y-74765966D01*
X135332264Y-74765967D01*
X135405321Y-74780499D01*
X135405324Y-74780500D01*
X135405326Y-74780500D01*
X137254676Y-74780500D01*
X137254677Y-74780499D01*
X137327740Y-74765966D01*
X137410601Y-74710601D01*
X137465966Y-74627740D01*
X137480500Y-74554674D01*
X137480500Y-73786053D01*
X137500185Y-73719014D01*
X137552989Y-73673259D01*
X137622147Y-73663315D01*
X137685703Y-73692340D01*
X137723477Y-73751118D01*
X137727970Y-73774611D01*
X137734244Y-73842310D01*
X137790167Y-74038857D01*
X137792596Y-74047392D01*
X137792596Y-74047394D01*
X137887632Y-74238253D01*
X138009919Y-74400185D01*
X138016128Y-74408407D01*
X138173698Y-74552052D01*
X138354981Y-74664298D01*
X138553802Y-74741321D01*
X138763390Y-74780500D01*
X138763392Y-74780500D01*
X138976608Y-74780500D01*
X138976610Y-74780500D01*
X139186198Y-74741321D01*
X139385019Y-74664298D01*
X139566302Y-74552052D01*
X139723872Y-74408407D01*
X139852366Y-74238255D01*
X139852367Y-74238253D01*
X139947403Y-74047394D01*
X139947403Y-74047393D01*
X139947405Y-74047389D01*
X140005756Y-73842310D01*
X140025429Y-73630000D01*
X140005756Y-73417690D01*
X139947405Y-73212611D01*
X139947403Y-73212606D01*
X139947403Y-73212605D01*
X139852367Y-73021746D01*
X139723872Y-72851593D01*
X139654530Y-72788379D01*
X139566302Y-72707948D01*
X139385019Y-72595702D01*
X139385017Y-72595701D01*
X139231443Y-72536207D01*
X139186198Y-72518679D01*
X138976610Y-72479500D01*
X138763390Y-72479500D01*
X138553802Y-72518679D01*
X138553799Y-72518679D01*
X138553799Y-72518680D01*
X138354982Y-72595701D01*
X138354980Y-72595702D01*
X138173699Y-72707947D01*
X138016127Y-72851593D01*
X137887632Y-73021746D01*
X137792596Y-73212605D01*
X137792596Y-73212607D01*
X137734244Y-73417689D01*
X137727971Y-73485387D01*
X137702185Y-73550324D01*
X137645384Y-73591012D01*
X137575604Y-73594532D01*
X137514997Y-73559767D01*
X137482807Y-73497754D01*
X137480500Y-73473946D01*
X137480500Y-72705323D01*
X137480499Y-72705321D01*
X137465967Y-72632264D01*
X137465966Y-72632260D01*
X137414528Y-72555277D01*
X137410601Y-72549399D01*
X137327740Y-72494034D01*
X137327739Y-72494033D01*
X137327735Y-72494032D01*
X137254677Y-72479500D01*
X137254674Y-72479500D01*
X135405326Y-72479500D01*
X135405323Y-72479500D01*
X135332264Y-72494032D01*
X135332260Y-72494033D01*
X135249399Y-72549399D01*
X135194033Y-72632260D01*
X135194032Y-72632264D01*
X135179500Y-72705321D01*
X135179500Y-72755500D01*
X135159815Y-72822539D01*
X135107011Y-72868294D01*
X135055500Y-72879500D01*
X128147414Y-72879500D01*
X128080375Y-72859815D01*
X128034620Y-72807011D01*
X128024676Y-72737853D01*
X128038054Y-72697049D01*
X128125232Y-72533954D01*
X128185300Y-72335934D01*
X128205583Y-72130000D01*
X128185300Y-71924066D01*
X128125232Y-71726046D01*
X128027685Y-71543550D01*
X127995783Y-71504678D01*
X128869500Y-71504678D01*
X128884032Y-71577735D01*
X128884033Y-71577739D01*
X128884034Y-71577740D01*
X128939399Y-71660601D01*
X128985373Y-71691319D01*
X129022260Y-71715966D01*
X129022264Y-71715967D01*
X129095321Y-71730499D01*
X129095324Y-71730500D01*
X129095326Y-71730500D01*
X130944676Y-71730500D01*
X130944677Y-71730499D01*
X131017740Y-71715966D01*
X131100601Y-71660601D01*
X131155966Y-71577740D01*
X131170500Y-71504674D01*
X131170500Y-70736053D01*
X131190185Y-70669014D01*
X131242989Y-70623259D01*
X131312147Y-70613315D01*
X131375703Y-70642340D01*
X131413477Y-70701118D01*
X131417971Y-70724612D01*
X131424244Y-70792310D01*
X131482596Y-70997392D01*
X131482596Y-70997394D01*
X131577632Y-71188253D01*
X131691173Y-71338604D01*
X131706128Y-71358407D01*
X131863698Y-71502052D01*
X132044981Y-71614298D01*
X132243802Y-71691321D01*
X132453390Y-71730500D01*
X132453392Y-71730500D01*
X132666608Y-71730500D01*
X132666610Y-71730500D01*
X132876198Y-71691321D01*
X133075019Y-71614298D01*
X133256302Y-71502052D01*
X133413872Y-71358407D01*
X133542366Y-71188255D01*
X133561714Y-71149399D01*
X133637403Y-70997394D01*
X133637403Y-70997393D01*
X133637405Y-70997389D01*
X133695756Y-70792310D01*
X133715429Y-70580000D01*
X133695756Y-70367690D01*
X133637405Y-70162611D01*
X133637403Y-70162606D01*
X133637403Y-70162605D01*
X133542367Y-69971746D01*
X133413872Y-69801593D01*
X133335998Y-69730601D01*
X133256302Y-69657948D01*
X133075019Y-69545702D01*
X133075017Y-69545701D01*
X132955496Y-69499399D01*
X132876198Y-69468679D01*
X132666610Y-69429500D01*
X132453390Y-69429500D01*
X132243802Y-69468679D01*
X132243799Y-69468679D01*
X132243799Y-69468680D01*
X132044982Y-69545701D01*
X132044980Y-69545702D01*
X131863699Y-69657947D01*
X131706127Y-69801593D01*
X131577632Y-69971746D01*
X131482596Y-70162605D01*
X131482596Y-70162607D01*
X131424244Y-70367689D01*
X131417971Y-70435387D01*
X131392185Y-70500324D01*
X131335384Y-70541012D01*
X131265604Y-70544532D01*
X131204997Y-70509767D01*
X131172807Y-70447754D01*
X131170500Y-70423946D01*
X131170500Y-69655323D01*
X131170499Y-69655321D01*
X131155967Y-69582264D01*
X131155966Y-69582260D01*
X131131538Y-69545701D01*
X131100601Y-69499399D01*
X131017740Y-69444034D01*
X131017739Y-69444033D01*
X131017735Y-69444032D01*
X130944677Y-69429500D01*
X130944674Y-69429500D01*
X129095326Y-69429500D01*
X129095323Y-69429500D01*
X129022264Y-69444032D01*
X129022260Y-69444033D01*
X128939399Y-69499399D01*
X128884033Y-69582260D01*
X128884032Y-69582264D01*
X128869500Y-69655321D01*
X128869500Y-71504678D01*
X127995783Y-71504678D01*
X127975702Y-71480209D01*
X127896410Y-71383589D01*
X127736452Y-71252317D01*
X127736453Y-71252317D01*
X127736450Y-71252315D01*
X127553954Y-71154768D01*
X127355934Y-71094700D01*
X127355932Y-71094699D01*
X127355934Y-71094699D01*
X127150000Y-71074417D01*
X126944067Y-71094699D01*
X126746043Y-71154769D01*
X126635898Y-71213643D01*
X126563550Y-71252315D01*
X126563548Y-71252316D01*
X126563547Y-71252317D01*
X126403589Y-71383589D01*
X126283622Y-71529772D01*
X126272315Y-71543550D01*
X126254040Y-71577740D01*
X126174769Y-71726043D01*
X126114699Y-71924067D01*
X126094417Y-72130000D01*
X126114699Y-72335932D01*
X126114700Y-72335934D01*
X126174768Y-72533954D01*
X126272315Y-72716450D01*
X126272317Y-72716452D01*
X126403589Y-72876410D01*
X126442499Y-72908342D01*
X126563550Y-73007685D01*
X126746046Y-73105232D01*
X126944066Y-73165300D01*
X126944065Y-73165300D01*
X126964348Y-73167297D01*
X127150000Y-73185583D01*
X127274380Y-73173332D01*
X127343024Y-73186351D01*
X127393735Y-73234415D01*
X127410410Y-73302266D01*
X127387754Y-73368361D01*
X127374214Y-73384416D01*
X127174956Y-73583674D01*
X127113633Y-73617159D01*
X127099431Y-73619396D01*
X126944067Y-73634699D01*
X126746043Y-73694769D01*
X126700685Y-73719014D01*
X126563550Y-73792315D01*
X126563548Y-73792316D01*
X126563547Y-73792317D01*
X126403589Y-73923589D01*
X126272317Y-74083547D01*
X126174769Y-74266043D01*
X126114699Y-74464067D01*
X126094417Y-74670000D01*
X119930000Y-74670000D01*
X119930000Y-74617339D01*
X119902741Y-74515606D01*
X119850080Y-74424394D01*
X119775606Y-74349920D01*
X119684394Y-74297259D01*
X119582661Y-74270000D01*
X119477339Y-74270000D01*
X119375606Y-74297259D01*
X119284394Y-74349920D01*
X119209920Y-74424394D01*
X119157259Y-74515606D01*
X119130000Y-74617339D01*
X119130000Y-74722661D01*
X92655354Y-74722661D01*
X92726265Y-74570590D01*
X92726269Y-74570581D01*
X92785139Y-74350874D01*
X92785141Y-74350863D01*
X92800965Y-74170000D01*
X118328762Y-74170000D01*
X120731238Y-74170000D01*
X120731237Y-74169999D01*
X120660134Y-74017517D01*
X120529657Y-73831179D01*
X120368820Y-73670342D01*
X120182482Y-73539865D01*
X119976326Y-73443734D01*
X119976320Y-73443731D01*
X119903707Y-73424275D01*
X119844047Y-73387910D01*
X119813518Y-73325063D01*
X119821813Y-73255687D01*
X119866298Y-73201810D01*
X119932850Y-73180535D01*
X119935801Y-73180500D01*
X120354676Y-73180500D01*
X120354677Y-73180499D01*
X120427740Y-73165966D01*
X120510601Y-73110601D01*
X120565966Y-73027740D01*
X120580500Y-72954674D01*
X120580500Y-71305326D01*
X120580500Y-71305323D01*
X120580499Y-71305321D01*
X120565967Y-71232264D01*
X120565966Y-71232260D01*
X120536563Y-71188255D01*
X120510601Y-71149399D01*
X120428737Y-71094700D01*
X120427739Y-71094033D01*
X120427735Y-71094032D01*
X120354677Y-71079500D01*
X120354674Y-71079500D01*
X118705326Y-71079500D01*
X118705323Y-71079500D01*
X118632264Y-71094032D01*
X118632260Y-71094033D01*
X118549399Y-71149399D01*
X118494033Y-71232260D01*
X118494032Y-71232264D01*
X118479500Y-71305321D01*
X118479500Y-72954678D01*
X118494032Y-73027735D01*
X118494033Y-73027739D01*
X118494034Y-73027740D01*
X118549399Y-73110601D01*
X118631263Y-73165300D01*
X118632260Y-73165966D01*
X118632264Y-73165967D01*
X118705321Y-73180499D01*
X118705324Y-73180500D01*
X119124199Y-73180500D01*
X119191238Y-73200185D01*
X119236993Y-73252989D01*
X119246937Y-73322147D01*
X119217912Y-73385703D01*
X119159134Y-73423477D01*
X119156293Y-73424275D01*
X119083679Y-73443731D01*
X119083673Y-73443734D01*
X118877517Y-73539865D01*
X118691179Y-73670342D01*
X118530342Y-73831179D01*
X118399865Y-74017517D01*
X118328762Y-74169999D01*
X118328762Y-74170000D01*
X92800965Y-74170000D01*
X92804966Y-74124266D01*
X92804966Y-74124261D01*
X92785141Y-73897664D01*
X92785139Y-73897653D01*
X92726269Y-73677946D01*
X92726264Y-73677932D01*
X92658130Y-73531817D01*
X91820084Y-74369862D01*
X91872741Y-74278658D01*
X91900000Y-74176925D01*
X91900000Y-74071603D01*
X91872741Y-73969870D01*
X91820080Y-73878658D01*
X91745606Y-73804184D01*
X91654394Y-73751523D01*
X91552661Y-73724264D01*
X91447339Y-73724264D01*
X91345606Y-73751523D01*
X91254394Y-73804184D01*
X91179920Y-73878658D01*
X91127259Y-73969870D01*
X91100000Y-74071603D01*
X91100000Y-74176925D01*
X91127259Y-74278658D01*
X91179918Y-74369867D01*
X90341868Y-73531817D01*
X90273731Y-73677944D01*
X90214860Y-73897653D01*
X90214858Y-73897664D01*
X90195034Y-74124261D01*
X90195034Y-74124266D01*
X90214858Y-74350863D01*
X90214860Y-74350874D01*
X90273730Y-74570581D01*
X90273734Y-74570590D01*
X90369865Y-74776746D01*
X90500342Y-74963084D01*
X90512479Y-74975221D01*
X90545964Y-75036544D01*
X90540980Y-75106236D01*
X90524273Y-75132230D01*
X90526185Y-75133508D01*
X90519400Y-75143662D01*
X90519399Y-75143663D01*
X90499299Y-75173745D01*
X90464033Y-75226524D01*
X90464032Y-75226528D01*
X90449500Y-75299585D01*
X90449500Y-75475500D01*
X90429815Y-75542539D01*
X90377011Y-75588294D01*
X90325500Y-75599500D01*
X83262229Y-75599500D01*
X83195190Y-75579815D01*
X83174548Y-75563181D01*
X81266841Y-73655474D01*
X81233356Y-73594151D01*
X81233630Y-73540204D01*
X81285802Y-73311630D01*
X81286504Y-73302266D01*
X81305408Y-73050004D01*
X81305408Y-73049995D01*
X81299123Y-72966132D01*
X90907553Y-72966132D01*
X91500000Y-73558579D01*
X91500001Y-73558579D01*
X92092444Y-72966133D01*
X91946322Y-72897996D01*
X91946317Y-72897994D01*
X91726610Y-72839124D01*
X91726599Y-72839122D01*
X91500002Y-72819298D01*
X91499998Y-72819298D01*
X91273400Y-72839122D01*
X91273389Y-72839124D01*
X91053680Y-72897995D01*
X90907553Y-72966132D01*
X81299123Y-72966132D01*
X81285803Y-72788379D01*
X81285802Y-72788374D01*
X81285802Y-72788370D01*
X81227420Y-72532584D01*
X81131568Y-72288357D01*
X81000386Y-72061143D01*
X80836805Y-71856019D01*
X80836804Y-71856018D01*
X80836801Y-71856014D01*
X80644479Y-71677567D01*
X80427704Y-71529772D01*
X80427700Y-71529770D01*
X80427697Y-71529768D01*
X80427696Y-71529767D01*
X80191325Y-71415938D01*
X80191327Y-71415938D01*
X79940623Y-71338606D01*
X79940619Y-71338605D01*
X79940615Y-71338604D01*
X79815823Y-71319794D01*
X79684517Y-71300002D01*
X95944723Y-71300002D01*
X95963793Y-71517975D01*
X95963793Y-71517979D01*
X96020422Y-71729322D01*
X96020424Y-71729326D01*
X96020425Y-71729330D01*
X96020971Y-71730500D01*
X96112897Y-71927638D01*
X96112898Y-71927639D01*
X96238402Y-72106877D01*
X96393123Y-72261598D01*
X96572361Y-72387102D01*
X96770670Y-72479575D01*
X96982023Y-72536207D01*
X97164926Y-72552208D01*
X97199998Y-72555277D01*
X97200000Y-72555277D01*
X97200002Y-72555277D01*
X97228254Y-72552805D01*
X97417977Y-72536207D01*
X97629330Y-72479575D01*
X97827639Y-72387102D01*
X98006877Y-72261598D01*
X98161598Y-72106877D01*
X98164050Y-72103374D01*
X98218628Y-72059751D01*
X98265624Y-72050500D01*
X102634376Y-72050500D01*
X102701415Y-72070185D01*
X102735949Y-72103374D01*
X102738402Y-72106877D01*
X102893123Y-72261598D01*
X103072361Y-72387102D01*
X103270670Y-72479575D01*
X103482023Y-72536207D01*
X103664926Y-72552208D01*
X103699998Y-72555277D01*
X103700000Y-72555277D01*
X103700002Y-72555277D01*
X103728254Y-72552805D01*
X103917977Y-72536207D01*
X104129330Y-72479575D01*
X104327639Y-72387102D01*
X104506877Y-72261598D01*
X104661598Y-72106877D01*
X104787102Y-71927639D01*
X104879575Y-71729330D01*
X104936207Y-71517977D01*
X104954811Y-71305323D01*
X104955277Y-71300002D01*
X104955277Y-71299997D01*
X104949351Y-71232260D01*
X104936207Y-71082023D01*
X104879575Y-70870670D01*
X104787102Y-70672362D01*
X104787100Y-70672359D01*
X104787099Y-70672357D01*
X104661599Y-70493124D01*
X104592421Y-70423946D01*
X104506877Y-70338402D01*
X104327639Y-70212898D01*
X104327640Y-70212898D01*
X104327638Y-70212897D01*
X104219798Y-70162611D01*
X104129330Y-70120425D01*
X104129326Y-70120424D01*
X104129322Y-70120422D01*
X103917977Y-70063793D01*
X103700002Y-70044723D01*
X103699998Y-70044723D01*
X103554682Y-70057436D01*
X103482023Y-70063793D01*
X103482020Y-70063793D01*
X103270677Y-70120422D01*
X103270668Y-70120426D01*
X103072361Y-70212898D01*
X103072357Y-70212900D01*
X102893121Y-70338402D01*
X102738404Y-70493119D01*
X102735952Y-70496622D01*
X102681375Y-70540248D01*
X102634376Y-70549500D01*
X98265624Y-70549500D01*
X98198585Y-70529815D01*
X98164048Y-70496622D01*
X98161598Y-70493123D01*
X98092421Y-70423946D01*
X98006877Y-70338402D01*
X97827639Y-70212898D01*
X97827640Y-70212898D01*
X97827638Y-70212897D01*
X97719798Y-70162611D01*
X97629330Y-70120425D01*
X97629326Y-70120424D01*
X97629322Y-70120422D01*
X97417977Y-70063793D01*
X97200002Y-70044723D01*
X97199998Y-70044723D01*
X97054682Y-70057436D01*
X96982023Y-70063793D01*
X96982020Y-70063793D01*
X96770677Y-70120422D01*
X96770668Y-70120426D01*
X96572361Y-70212898D01*
X96572357Y-70212900D01*
X96393121Y-70338402D01*
X96238402Y-70493121D01*
X96112900Y-70672357D01*
X96112898Y-70672361D01*
X96020426Y-70870668D01*
X96020422Y-70870677D01*
X95963793Y-71082020D01*
X95963793Y-71082024D01*
X95944723Y-71299997D01*
X95944723Y-71300002D01*
X79684517Y-71300002D01*
X79681187Y-71299500D01*
X79681182Y-71299500D01*
X79418818Y-71299500D01*
X79418812Y-71299500D01*
X79257247Y-71323853D01*
X79159385Y-71338604D01*
X79159382Y-71338605D01*
X79159376Y-71338606D01*
X78908673Y-71415938D01*
X78672303Y-71529767D01*
X78672302Y-71529768D01*
X78455520Y-71677567D01*
X78263198Y-71856014D01*
X78099614Y-72061143D01*
X77968432Y-72288356D01*
X77872582Y-72532578D01*
X77872576Y-72532597D01*
X77814197Y-72788374D01*
X77814196Y-72788379D01*
X77794592Y-73049995D01*
X77794592Y-73050004D01*
X75450500Y-73050004D01*
X75450500Y-69574678D01*
X77799500Y-69574678D01*
X77814032Y-69647735D01*
X77814033Y-69647739D01*
X77832405Y-69675235D01*
X77869399Y-69730601D01*
X77952260Y-69785966D01*
X77952264Y-69785967D01*
X78025321Y-69800499D01*
X78025324Y-69800500D01*
X78025326Y-69800500D01*
X81074676Y-69800500D01*
X81074677Y-69800499D01*
X81147740Y-69785966D01*
X81230601Y-69730601D01*
X81285966Y-69647740D01*
X81300500Y-69574674D01*
X81300500Y-68105303D01*
X96460381Y-68105303D01*
X96595381Y-68178363D01*
X96595399Y-68178370D01*
X96830506Y-68259083D01*
X97075707Y-68300000D01*
X97324293Y-68300000D01*
X97569493Y-68259083D01*
X97804606Y-68178368D01*
X97804608Y-68178367D01*
X97939617Y-68105304D01*
X97939617Y-68105303D01*
X102960381Y-68105303D01*
X103095381Y-68178363D01*
X103095399Y-68178370D01*
X103330506Y-68259083D01*
X103575707Y-68300000D01*
X103824293Y-68300000D01*
X104069493Y-68259083D01*
X104304606Y-68178368D01*
X104304608Y-68178367D01*
X104439617Y-68105304D01*
X104439617Y-68105302D01*
X104334315Y-68000000D01*
X106295210Y-68000000D01*
X106314347Y-68279794D01*
X106314348Y-68279796D01*
X106371403Y-68554364D01*
X106371408Y-68554381D01*
X106465317Y-68818618D01*
X106587833Y-69055059D01*
X107339730Y-68303161D01*
X107340350Y-68306274D01*
X107419502Y-68497362D01*
X107534411Y-68669336D01*
X107680664Y-68815589D01*
X107852638Y-68930498D01*
X108043726Y-69009650D01*
X108046837Y-69010268D01*
X107297720Y-69759385D01*
X107404664Y-69824419D01*
X107404668Y-69824421D01*
X107661888Y-69936146D01*
X107931935Y-70011810D01*
X107931941Y-70011811D01*
X108209775Y-70050000D01*
X108490225Y-70050000D01*
X108768058Y-70011811D01*
X108768064Y-70011810D01*
X109038111Y-69936146D01*
X109295329Y-69824422D01*
X109402278Y-69759385D01*
X108990758Y-69347865D01*
X112549500Y-69347865D01*
X112549501Y-69347884D01*
X112555908Y-69407481D01*
X112555910Y-69407488D01*
X112606202Y-69542328D01*
X112606203Y-69542330D01*
X112606204Y-69542331D01*
X112692453Y-69657547D01*
X112807669Y-69743796D01*
X112807671Y-69743797D01*
X112849465Y-69759385D01*
X112942516Y-69794091D01*
X113002126Y-69800500D01*
X113002135Y-69800500D01*
X115697865Y-69800500D01*
X115697874Y-69800500D01*
X115757484Y-69794091D01*
X115892331Y-69743796D01*
X116007547Y-69657547D01*
X116093796Y-69542331D01*
X116144091Y-69407484D01*
X116150500Y-69347874D01*
X116150500Y-68304678D01*
X135179500Y-68304678D01*
X135194032Y-68377735D01*
X135194033Y-68377739D01*
X135194034Y-68377740D01*
X135249399Y-68460601D01*
X135295373Y-68491319D01*
X135332260Y-68515966D01*
X135332264Y-68515967D01*
X135405321Y-68530499D01*
X135405324Y-68530500D01*
X135405326Y-68530500D01*
X137254676Y-68530500D01*
X137254677Y-68530499D01*
X137327740Y-68515966D01*
X137410601Y-68460601D01*
X137465966Y-68377740D01*
X137480500Y-68304674D01*
X137480500Y-67536053D01*
X137500185Y-67469014D01*
X137552989Y-67423259D01*
X137622147Y-67413315D01*
X137685703Y-67442340D01*
X137723477Y-67501118D01*
X137727971Y-67524612D01*
X137734244Y-67592310D01*
X137792596Y-67797392D01*
X137792596Y-67797394D01*
X137887632Y-67988253D01*
X137976025Y-68105303D01*
X138016128Y-68158407D01*
X138173698Y-68302052D01*
X138354981Y-68414298D01*
X138553802Y-68491321D01*
X138763390Y-68530500D01*
X138763392Y-68530500D01*
X138976608Y-68530500D01*
X138976610Y-68530500D01*
X139186198Y-68491321D01*
X139385019Y-68414298D01*
X139566302Y-68302052D01*
X139723872Y-68158407D01*
X139852366Y-67988255D01*
X139852367Y-67988253D01*
X139947403Y-67797394D01*
X139947403Y-67797393D01*
X139947405Y-67797389D01*
X140005756Y-67592310D01*
X140025429Y-67380000D01*
X140005756Y-67167690D01*
X139947405Y-66962611D01*
X139947403Y-66962606D01*
X139947403Y-66962605D01*
X139852367Y-66771746D01*
X139723872Y-66601593D01*
X139708641Y-66587708D01*
X139566302Y-66457948D01*
X139385019Y-66345702D01*
X139385017Y-66345701D01*
X139265496Y-66299399D01*
X139186198Y-66268679D01*
X138976610Y-66229500D01*
X138763390Y-66229500D01*
X138553802Y-66268679D01*
X138553799Y-66268679D01*
X138553799Y-66268680D01*
X138354982Y-66345701D01*
X138354980Y-66345702D01*
X138173699Y-66457947D01*
X138016127Y-66601593D01*
X137887632Y-66771746D01*
X137792596Y-66962605D01*
X137792596Y-66962607D01*
X137734244Y-67167689D01*
X137727971Y-67235387D01*
X137702185Y-67300324D01*
X137645384Y-67341012D01*
X137575604Y-67344532D01*
X137514997Y-67309767D01*
X137482807Y-67247754D01*
X137480500Y-67223946D01*
X137480500Y-66455323D01*
X137480499Y-66455321D01*
X137465967Y-66382264D01*
X137465966Y-66382260D01*
X137439368Y-66342453D01*
X137410601Y-66299399D01*
X137327740Y-66244034D01*
X137327739Y-66244033D01*
X137327735Y-66244032D01*
X137254677Y-66229500D01*
X137254674Y-66229500D01*
X135405326Y-66229500D01*
X135405323Y-66229500D01*
X135332264Y-66244032D01*
X135332260Y-66244033D01*
X135249399Y-66299399D01*
X135194033Y-66382260D01*
X135194032Y-66382264D01*
X135179500Y-66455321D01*
X135179500Y-68304678D01*
X116150500Y-68304678D01*
X116150500Y-66652126D01*
X116144091Y-66592516D01*
X116119031Y-66525326D01*
X116093797Y-66457671D01*
X116093796Y-66457669D01*
X116089747Y-66452260D01*
X116007547Y-66342453D01*
X115892331Y-66256204D01*
X115892330Y-66256203D01*
X115892328Y-66256202D01*
X115757488Y-66205910D01*
X115757481Y-66205908D01*
X115697884Y-66199501D01*
X115697882Y-66199500D01*
X115697874Y-66199500D01*
X113002126Y-66199500D01*
X113002118Y-66199500D01*
X113002115Y-66199501D01*
X112942518Y-66205908D01*
X112942511Y-66205910D01*
X112807671Y-66256202D01*
X112807669Y-66256203D01*
X112692453Y-66342453D01*
X112606203Y-66457669D01*
X112606202Y-66457671D01*
X112555910Y-66592511D01*
X112555908Y-66592518D01*
X112549501Y-66652115D01*
X112549500Y-66652134D01*
X112549500Y-69347865D01*
X108990758Y-69347865D01*
X108653162Y-69010269D01*
X108656274Y-69009650D01*
X108847362Y-68930498D01*
X109019336Y-68815589D01*
X109165589Y-68669336D01*
X109280498Y-68497362D01*
X109359650Y-68306274D01*
X109360269Y-68303162D01*
X110112166Y-69055059D01*
X110112167Y-69055059D01*
X110234677Y-68818630D01*
X110234680Y-68818623D01*
X110328591Y-68554381D01*
X110328596Y-68554364D01*
X110385651Y-68279796D01*
X110385652Y-68279794D01*
X110404789Y-68000000D01*
X110385652Y-67720205D01*
X110385651Y-67720203D01*
X110328596Y-67445635D01*
X110328591Y-67445618D01*
X110234680Y-67181376D01*
X110234677Y-67181369D01*
X110112166Y-66944939D01*
X109360268Y-67696836D01*
X109359650Y-67693726D01*
X109280498Y-67502638D01*
X109165589Y-67330664D01*
X109019336Y-67184411D01*
X108847362Y-67069502D01*
X108656274Y-66990350D01*
X108653162Y-66989731D01*
X109402278Y-66240613D01*
X109295335Y-66175580D01*
X109295331Y-66175578D01*
X109038111Y-66063853D01*
X108768064Y-65988189D01*
X108768058Y-65988188D01*
X108490225Y-65950000D01*
X108209775Y-65950000D01*
X107931941Y-65988188D01*
X107931935Y-65988189D01*
X107661888Y-66063853D01*
X107404668Y-66175578D01*
X107404664Y-66175580D01*
X107297720Y-66240613D01*
X108046837Y-66989730D01*
X108043726Y-66990350D01*
X107852638Y-67069502D01*
X107680664Y-67184411D01*
X107534411Y-67330664D01*
X107419502Y-67502638D01*
X107340350Y-67693726D01*
X107339731Y-67696837D01*
X106587832Y-66944938D01*
X106587832Y-66944939D01*
X106465320Y-67181375D01*
X106465319Y-67181377D01*
X106371408Y-67445618D01*
X106371403Y-67445635D01*
X106314348Y-67720203D01*
X106314347Y-67720205D01*
X106295210Y-68000000D01*
X104334315Y-68000000D01*
X103700000Y-67365685D01*
X102960381Y-68105302D01*
X102960381Y-68105303D01*
X97939617Y-68105303D01*
X97939617Y-68105302D01*
X97200000Y-67365685D01*
X96460381Y-68105302D01*
X96460381Y-68105303D01*
X81300500Y-68105303D01*
X81300500Y-66800005D01*
X95694859Y-66800005D01*
X95715385Y-67047729D01*
X95715387Y-67047738D01*
X95776411Y-67288717D01*
X95876267Y-67516365D01*
X95876272Y-67516375D01*
X95892737Y-67541577D01*
X96561906Y-66872409D01*
X96650000Y-66872409D01*
X96687482Y-67012292D01*
X96759890Y-67137708D01*
X96862292Y-67240110D01*
X96987708Y-67312518D01*
X97127591Y-67350000D01*
X97272409Y-67350000D01*
X97412292Y-67312518D01*
X97537708Y-67240110D01*
X97640110Y-67137708D01*
X97712518Y-67012292D01*
X97750000Y-66872409D01*
X97750000Y-66800000D01*
X97765685Y-66800000D01*
X98507261Y-67541577D01*
X98523733Y-67516366D01*
X98623587Y-67288717D01*
X98684612Y-67047738D01*
X98684614Y-67047729D01*
X98705141Y-66800005D01*
X102194859Y-66800005D01*
X102215385Y-67047729D01*
X102215387Y-67047738D01*
X102276411Y-67288717D01*
X102376267Y-67516365D01*
X102376272Y-67516375D01*
X102392737Y-67541577D01*
X103061906Y-66872409D01*
X103150000Y-66872409D01*
X103187482Y-67012292D01*
X103259890Y-67137708D01*
X103362292Y-67240110D01*
X103487708Y-67312518D01*
X103627591Y-67350000D01*
X103772409Y-67350000D01*
X103912292Y-67312518D01*
X104037708Y-67240110D01*
X104140110Y-67137708D01*
X104212518Y-67012292D01*
X104250000Y-66872409D01*
X104250000Y-66800001D01*
X104265685Y-66800001D01*
X105007261Y-67541577D01*
X105023733Y-67516366D01*
X105123587Y-67288717D01*
X105184612Y-67047738D01*
X105184614Y-67047729D01*
X105205141Y-66800005D01*
X105205141Y-66799994D01*
X105184614Y-66552270D01*
X105184612Y-66552261D01*
X105123588Y-66311282D01*
X105023732Y-66083634D01*
X105007261Y-66058422D01*
X104265685Y-66799999D01*
X104265685Y-66800001D01*
X104250000Y-66800001D01*
X104250000Y-66727591D01*
X104212518Y-66587708D01*
X104140110Y-66462292D01*
X104037708Y-66359890D01*
X103912292Y-66287482D01*
X103772409Y-66250000D01*
X103627591Y-66250000D01*
X103487708Y-66287482D01*
X103362292Y-66359890D01*
X103259890Y-66462292D01*
X103187482Y-66587708D01*
X103150000Y-66727591D01*
X103150000Y-66872409D01*
X103061906Y-66872409D01*
X103134315Y-66800000D01*
X103134315Y-66799999D01*
X102392736Y-66058421D01*
X102376270Y-66083627D01*
X102376268Y-66083630D01*
X102276411Y-66311282D01*
X102215387Y-66552261D01*
X102215385Y-66552270D01*
X102194859Y-66799994D01*
X102194859Y-66800005D01*
X98705141Y-66800005D01*
X98705141Y-66799994D01*
X98684614Y-66552270D01*
X98684612Y-66552261D01*
X98623588Y-66311282D01*
X98523732Y-66083634D01*
X98507261Y-66058422D01*
X97765685Y-66799999D01*
X97765685Y-66800000D01*
X97750000Y-66800000D01*
X97750000Y-66727591D01*
X97712518Y-66587708D01*
X97640110Y-66462292D01*
X97537708Y-66359890D01*
X97412292Y-66287482D01*
X97272409Y-66250000D01*
X97127591Y-66250000D01*
X96987708Y-66287482D01*
X96862292Y-66359890D01*
X96759890Y-66462292D01*
X96687482Y-66587708D01*
X96650000Y-66727591D01*
X96650000Y-66872409D01*
X96561906Y-66872409D01*
X96634315Y-66800000D01*
X95892736Y-66058421D01*
X95876270Y-66083627D01*
X95876268Y-66083630D01*
X95776411Y-66311282D01*
X95715387Y-66552261D01*
X95715385Y-66552270D01*
X95694859Y-66799994D01*
X95694859Y-66800005D01*
X81300500Y-66800005D01*
X81300500Y-66525326D01*
X81300500Y-66525323D01*
X81300499Y-66525321D01*
X81285967Y-66452264D01*
X81285966Y-66452260D01*
X81230601Y-66369399D01*
X81147740Y-66314034D01*
X81147739Y-66314033D01*
X81147735Y-66314032D01*
X81074677Y-66299500D01*
X81074674Y-66299500D01*
X78025326Y-66299500D01*
X78025323Y-66299500D01*
X77952264Y-66314032D01*
X77952260Y-66314033D01*
X77869399Y-66369399D01*
X77814033Y-66452260D01*
X77814032Y-66452264D01*
X77799500Y-66525321D01*
X77799500Y-69574678D01*
X75450500Y-69574678D01*
X75450500Y-67053246D01*
X75450670Y-67046756D01*
X75467961Y-66716821D01*
X75469318Y-66703913D01*
X75486961Y-66592518D01*
X75520493Y-66380804D01*
X75523186Y-66368129D01*
X75607863Y-66052113D01*
X75611871Y-66039781D01*
X75612501Y-66038141D01*
X75729109Y-65734365D01*
X75734375Y-65722536D01*
X75850465Y-65494696D01*
X96460381Y-65494696D01*
X97200000Y-66234315D01*
X97200001Y-66234315D01*
X97939617Y-65494696D01*
X102960381Y-65494696D01*
X103700000Y-66234315D01*
X103700001Y-66234315D01*
X104439617Y-65494696D01*
X104304608Y-65421632D01*
X104304600Y-65421629D01*
X104069493Y-65340916D01*
X103824293Y-65300000D01*
X103575707Y-65300000D01*
X103330506Y-65340916D01*
X103095396Y-65421630D01*
X103095390Y-65421632D01*
X102960381Y-65494696D01*
X97939617Y-65494696D01*
X97804608Y-65421632D01*
X97804600Y-65421629D01*
X97569493Y-65340916D01*
X97324293Y-65300000D01*
X97075707Y-65300000D01*
X96830506Y-65340916D01*
X96595396Y-65421630D01*
X96595390Y-65421632D01*
X96460381Y-65494696D01*
X75850465Y-65494696D01*
X75882912Y-65431014D01*
X75889373Y-65419824D01*
X76067570Y-65145425D01*
X76075179Y-65134953D01*
X76281072Y-64880696D01*
X76289739Y-64871071D01*
X76521071Y-64639739D01*
X76530696Y-64631072D01*
X76784953Y-64425179D01*
X76795425Y-64417570D01*
X77069824Y-64239373D01*
X77081014Y-64232912D01*
X77372536Y-64084375D01*
X77384365Y-64079109D01*
X77689785Y-63961869D01*
X77702113Y-63957863D01*
X78018129Y-63873186D01*
X78030804Y-63870493D01*
X78353915Y-63819317D01*
X78366819Y-63817961D01*
X78696752Y-63800669D01*
X78703242Y-63800500D01*
X78775871Y-63800500D01*
X78775892Y-63800497D01*
X137844607Y-63798849D01*
X137845082Y-63798849D01*
X137851565Y-63799018D01*
G37*
G04 #@! TD.AperFunction*
M02*
