M48
; DRILL file {KiCad 8.0.1} date 2024-05-04T01:11:37+0800
; FORMAT={-:-/ absolute / metric / decimal}
; #@! TF.CreationDate,2024-05-04T01:11:37+08:00
; #@! TF.GenerationSoftware,Kicad,Pcbnew,8.0.1
; #@! TF.FileFunction,Plated,1,2,PTH
FMAT,2
METRIC
; #@! TA.AperFunction,Plated,PTH,ComponentDrill
T1C0.800
; #@! TA.AperFunction,Plated,PTH,ComponentDrill
T2C0.900
; #@! TA.AperFunction,Plated,PTH,ComponentDrill
T3C1.100
; #@! TA.AperFunction,Plated,PTH,ComponentDrill
T4C1.200
; #@! TA.AperFunction,Plated,PTH,ComponentDrill
T5C1.500
; #@! TA.AperFunction,Plated,PTH,ComponentDrill
T6C2.100
%
G90
G05
T1
X87.6Y-93.24
X88.11Y-83.75
X91.4Y-80.7
X91.5Y-74.124
X91.5Y-76.124
X95.22Y-93.24
X95.73Y-83.75
X96.4Y-80.7
X99.02Y-92.54
X99.1Y-81.82
X99.1Y-84.36
X99.1Y-86.9
X99.1Y-89.44
X99.11Y-78.74
X104.02Y-92.54
X106.72Y-81.82
X106.72Y-84.36
X106.72Y-86.9
X106.72Y-89.44
X106.73Y-78.74
X108.89Y-77.5
X110.9Y-82.0
X110.9Y-84.54
X110.9Y-87.09
X110.9Y-89.63
X113.705Y-94.05
X113.93Y-82.01
X113.93Y-89.63
X116.245Y-94.05
X116.51Y-77.5
X116.93Y-82.01
X116.93Y-89.63
X119.53Y-72.13
X119.53Y-74.67
X119.53Y-77.21
X119.53Y-79.75
X119.53Y-82.29
X119.53Y-84.83
X119.53Y-87.37
X119.53Y-89.91
X119.53Y-92.45
X127.15Y-72.13
X127.15Y-74.67
X127.15Y-77.21
X127.15Y-79.75
X127.15Y-82.29
X127.15Y-84.83
X127.15Y-87.37
X127.15Y-89.91
X127.15Y-92.45
T2
X107.51Y-97.05
X110.05Y-97.05
X119.37Y-98.3
X121.37Y-98.3
X123.37Y-98.3
X129.985Y-89.23
X129.985Y-95.43
X130.0Y-83.03
X130.02Y-70.58
X130.02Y-76.83
X132.525Y-89.23
X132.525Y-95.43
X132.54Y-83.03
X132.56Y-70.58
X132.56Y-76.83
X136.33Y-67.38
X136.33Y-73.63
X136.335Y-92.23
X136.35Y-86.03
X136.355Y-79.83
X138.87Y-67.38
X138.87Y-73.63
X138.875Y-92.23
X138.89Y-86.03
X138.895Y-79.83
T3
X88.11Y-86.94
X88.11Y-90.14
X95.73Y-86.94
X95.73Y-90.14
X97.2Y-66.8
X97.2Y-71.3
X103.7Y-66.8
X103.7Y-71.3
T4
X79.55Y-68.05
X79.55Y-73.05
X79.55Y-78.05
X79.55Y-86.55
X79.55Y-91.55
X79.55Y-96.55
T5
X117.27Y-98.3
X125.47Y-98.3
T6
X108.35Y-68.0
X114.35Y-68.0
M30
