%TF.GenerationSoftware,KiCad,Pcbnew,8.0.1*%
%TF.CreationDate,2024-07-25T21:09:52+08:00*%
%TF.ProjectId,555Sandbox,35353553-616e-4646-926f-782e6b696361,1.0.0*%
%TF.SameCoordinates,Original*%
%TF.FileFunction,Drillmap*%
%TF.FilePolarity,Positive*%
%FSLAX45Y45*%
G04 Gerber Fmt 4.5, Leading zero omitted, Abs format (unit mm)*
G04 Created by KiCad (PCBNEW 8.0.1) date 2024-07-25 21:09:52*
%MOMM*%
%LPD*%
G01*
G04 APERTURE LIST*
%ADD10C,0.050000*%
%ADD11C,0.200000*%
G04 APERTURE END LIST*
D10*
X7690000Y-9405000D02*
G75*
G02*
X7495000Y-9210000I0J195000D01*
G01*
X9569185Y-9054895D02*
G75*
G02*
X9219185Y-9405005I-350005J-105D01*
G01*
X9569185Y-9054895D02*
X9568581Y-7040000D01*
X9218581Y-6690000D02*
G75*
G02*
X9568580Y-7040000I-1J-350000D01*
G01*
X7495000Y-9210000D02*
X7495000Y-6885000D01*
X9219185Y-9405000D02*
X7690000Y-9405000D01*
X7495000Y-6885000D02*
G75*
G02*
X7690000Y-6690000I195000J0D01*
G01*
X7690000Y-6690000D02*
X9218581Y-6690000D01*
D11*
X7753277Y-9718984D02*
X7753277Y-9518984D01*
X7753277Y-9518984D02*
X7800896Y-9518984D01*
X7800896Y-9518984D02*
X7829467Y-9528508D01*
X7829467Y-9528508D02*
X7848515Y-9547555D01*
X7848515Y-9547555D02*
X7858039Y-9566603D01*
X7858039Y-9566603D02*
X7867562Y-9604698D01*
X7867562Y-9604698D02*
X7867562Y-9633270D01*
X7867562Y-9633270D02*
X7858039Y-9671365D01*
X7858039Y-9671365D02*
X7848515Y-9690412D01*
X7848515Y-9690412D02*
X7829467Y-9709460D01*
X7829467Y-9709460D02*
X7800896Y-9718984D01*
X7800896Y-9718984D02*
X7753277Y-9718984D01*
X7953277Y-9718984D02*
X7953277Y-9585650D01*
X7953277Y-9623746D02*
X7962801Y-9604698D01*
X7962801Y-9604698D02*
X7972324Y-9595174D01*
X7972324Y-9595174D02*
X7991372Y-9585650D01*
X7991372Y-9585650D02*
X8010420Y-9585650D01*
X8077086Y-9718984D02*
X8077086Y-9585650D01*
X8077086Y-9518984D02*
X8067562Y-9528508D01*
X8067562Y-9528508D02*
X8077086Y-9538031D01*
X8077086Y-9538031D02*
X8086610Y-9528508D01*
X8086610Y-9528508D02*
X8077086Y-9518984D01*
X8077086Y-9518984D02*
X8077086Y-9538031D01*
X8200896Y-9718984D02*
X8181848Y-9709460D01*
X8181848Y-9709460D02*
X8172324Y-9690412D01*
X8172324Y-9690412D02*
X8172324Y-9518984D01*
X8305658Y-9718984D02*
X8286610Y-9709460D01*
X8286610Y-9709460D02*
X8277086Y-9690412D01*
X8277086Y-9690412D02*
X8277086Y-9518984D01*
X8534229Y-9718984D02*
X8534229Y-9518984D01*
X8534229Y-9518984D02*
X8600896Y-9661841D01*
X8600896Y-9661841D02*
X8667563Y-9518984D01*
X8667563Y-9518984D02*
X8667563Y-9718984D01*
X8848515Y-9718984D02*
X8848515Y-9614222D01*
X8848515Y-9614222D02*
X8838991Y-9595174D01*
X8838991Y-9595174D02*
X8819944Y-9585650D01*
X8819944Y-9585650D02*
X8781848Y-9585650D01*
X8781848Y-9585650D02*
X8762801Y-9595174D01*
X8848515Y-9709460D02*
X8829467Y-9718984D01*
X8829467Y-9718984D02*
X8781848Y-9718984D01*
X8781848Y-9718984D02*
X8762801Y-9709460D01*
X8762801Y-9709460D02*
X8753277Y-9690412D01*
X8753277Y-9690412D02*
X8753277Y-9671365D01*
X8753277Y-9671365D02*
X8762801Y-9652317D01*
X8762801Y-9652317D02*
X8781848Y-9642793D01*
X8781848Y-9642793D02*
X8829467Y-9642793D01*
X8829467Y-9642793D02*
X8848515Y-9633270D01*
X8943753Y-9585650D02*
X8943753Y-9785650D01*
X8943753Y-9595174D02*
X8962801Y-9585650D01*
X8962801Y-9585650D02*
X9000896Y-9585650D01*
X9000896Y-9585650D02*
X9019944Y-9595174D01*
X9019944Y-9595174D02*
X9029467Y-9604698D01*
X9029467Y-9604698D02*
X9038991Y-9623746D01*
X9038991Y-9623746D02*
X9038991Y-9680889D01*
X9038991Y-9680889D02*
X9029467Y-9699936D01*
X9029467Y-9699936D02*
X9019944Y-9709460D01*
X9019944Y-9709460D02*
X9000896Y-9718984D01*
X9000896Y-9718984D02*
X8962801Y-9718984D01*
X8962801Y-9718984D02*
X8943753Y-9709460D01*
X9124705Y-9699936D02*
X9134229Y-9709460D01*
X9134229Y-9709460D02*
X9124705Y-9718984D01*
X9124705Y-9718984D02*
X9115182Y-9709460D01*
X9115182Y-9709460D02*
X9124705Y-9699936D01*
X9124705Y-9699936D02*
X9124705Y-9718984D01*
X9124705Y-9595174D02*
X9134229Y-9604698D01*
X9134229Y-9604698D02*
X9124705Y-9614222D01*
X9124705Y-9614222D02*
X9115182Y-9604698D01*
X9115182Y-9604698D02*
X9124705Y-9595174D01*
X9124705Y-9595174D02*
X9124705Y-9614222D01*
M02*
