G04 #@! TF.GenerationSoftware,KiCad,Pcbnew,8.0.1*
G04 #@! TF.CreationDate,2024-07-10T15:35:48+08:00*
G04 #@! TF.ProjectId,555Sandbox,35353553-616e-4646-926f-782e6b696361,1.0.0*
G04 #@! TF.SameCoordinates,Original*
G04 #@! TF.FileFunction,Legend,Top*
G04 #@! TF.FilePolarity,Positive*
%FSLAX46Y46*%
G04 Gerber Fmt 4.6, Leading zero omitted, Abs format (unit mm)*
G04 Created by KiCad (PCBNEW 8.0.1) date 2024-07-10 15:35:48*
%MOMM*%
%LPD*%
G01*
G04 APERTURE LIST*
G04 Aperture macros list*
%AMRoundRect*
0 Rectangle with rounded corners*
0 $1 Rounding radius*
0 $2 $3 $4 $5 $6 $7 $8 $9 X,Y pos of 4 corners*
0 Add a 4 corners polygon primitive as box body*
4,1,4,$2,$3,$4,$5,$6,$7,$8,$9,$2,$3,0*
0 Add four circle primitives for the rounded corners*
1,1,$1+$1,$2,$3*
1,1,$1+$1,$4,$5*
1,1,$1+$1,$6,$7*
1,1,$1+$1,$8,$9*
0 Add four rect primitives between the rounded corners*
20,1,$1+$1,$2,$3,$4,$5,0*
20,1,$1+$1,$4,$5,$6,$7,0*
20,1,$1+$1,$6,$7,$8,$9,0*
20,1,$1+$1,$8,$9,$2,$3,0*%
G04 Aperture macros list end*
%ADD10C,0.200000*%
%ADD11C,0.260000*%
%ADD12C,0.003175*%
%ADD13C,0.100000*%
%ADD14C,0.006350*%
%ADD15C,0.150000*%
%ADD16C,0.120000*%
%ADD17RoundRect,0.150000X0.825000X0.150000X-0.825000X0.150000X-0.825000X-0.150000X0.825000X-0.150000X0*%
%ADD18R,2.200000X2.200000*%
%ADD19R,2.200000X1.250000*%
%ADD20RoundRect,0.250000X-1.250000X-0.550000X1.250000X-0.550000X1.250000X0.550000X-1.250000X0.550000X0*%
%ADD21RoundRect,0.200000X-0.275000X0.200000X-0.275000X-0.200000X0.275000X-0.200000X0.275000X0.200000X0*%
%ADD22RoundRect,0.225000X0.225000X0.250000X-0.225000X0.250000X-0.225000X-0.250000X0.225000X-0.250000X0*%
%ADD23RoundRect,0.200000X0.275000X-0.200000X0.275000X0.200000X-0.275000X0.200000X-0.275000X-0.200000X0*%
%ADD24RoundRect,0.225000X0.250000X-0.225000X0.250000X0.225000X-0.250000X0.225000X-0.250000X-0.225000X0*%
%ADD25RoundRect,0.225000X-0.250000X0.225000X-0.250000X-0.225000X0.250000X-0.225000X0.250000X0.225000X0*%
%ADD26RoundRect,0.112500X-0.112500X0.187500X-0.112500X-0.187500X0.112500X-0.187500X0.112500X0.187500X0*%
%ADD27R,1.560000X1.560000*%
%ADD28C,1.560000*%
%ADD29C,5.000000*%
%ADD30C,3.000000*%
G04 APERTURE END LIST*
D10*
X75650000Y-70650000D02*
X76450000Y-70650000D01*
X76450000Y-91400000D02*
X78650000Y-91400000D01*
X78650000Y-68750000D02*
X78650000Y-70650000D01*
X76450000Y-93300000D02*
X76450000Y-91400000D01*
X78650000Y-91400000D02*
X78650000Y-93300000D01*
X78650000Y-93300000D02*
X80050000Y-93300000D01*
X80050000Y-68750000D02*
X80750000Y-68750000D01*
X76450000Y-68750000D02*
X78650000Y-68750000D01*
X78650000Y-70650000D02*
X80050000Y-70650000D01*
X80050000Y-70650000D02*
X80050000Y-68750000D01*
X80050000Y-93300000D02*
X80050000Y-91400000D01*
X80050000Y-91400000D02*
X80750000Y-91400000D01*
X76450000Y-70650000D02*
X76450000Y-68750000D01*
X75650000Y-93300000D02*
X76450000Y-93300000D01*
D11*
X82063909Y-69706932D02*
X81630575Y-69706932D01*
X81630575Y-70387884D02*
X81630575Y-69087884D01*
X81630575Y-69087884D02*
X82249623Y-69087884D01*
X82744861Y-70387884D02*
X82744861Y-69521218D01*
X82744861Y-69768837D02*
X82806766Y-69645027D01*
X82806766Y-69645027D02*
X82868671Y-69583122D01*
X82868671Y-69583122D02*
X82992480Y-69521218D01*
X82992480Y-69521218D02*
X83116290Y-69521218D01*
X84044861Y-70325980D02*
X83921052Y-70387884D01*
X83921052Y-70387884D02*
X83673433Y-70387884D01*
X83673433Y-70387884D02*
X83549623Y-70325980D01*
X83549623Y-70325980D02*
X83487719Y-70202170D01*
X83487719Y-70202170D02*
X83487719Y-69706932D01*
X83487719Y-69706932D02*
X83549623Y-69583122D01*
X83549623Y-69583122D02*
X83673433Y-69521218D01*
X83673433Y-69521218D02*
X83921052Y-69521218D01*
X83921052Y-69521218D02*
X84044861Y-69583122D01*
X84044861Y-69583122D02*
X84106766Y-69706932D01*
X84106766Y-69706932D02*
X84106766Y-69830741D01*
X84106766Y-69830741D02*
X83487719Y-69954551D01*
X85221052Y-69521218D02*
X85221052Y-70821218D01*
X85221052Y-70325980D02*
X85097243Y-70387884D01*
X85097243Y-70387884D02*
X84849624Y-70387884D01*
X84849624Y-70387884D02*
X84725814Y-70325980D01*
X84725814Y-70325980D02*
X84663909Y-70264075D01*
X84663909Y-70264075D02*
X84602005Y-70140265D01*
X84602005Y-70140265D02*
X84602005Y-69768837D01*
X84602005Y-69768837D02*
X84663909Y-69645027D01*
X84663909Y-69645027D02*
X84725814Y-69583122D01*
X84725814Y-69583122D02*
X84849624Y-69521218D01*
X84849624Y-69521218D02*
X85097243Y-69521218D01*
X85097243Y-69521218D02*
X85221052Y-69583122D01*
X81630575Y-93127384D02*
X81630575Y-91827384D01*
X81630575Y-91827384D02*
X82125813Y-91827384D01*
X82125813Y-91827384D02*
X82249623Y-91889289D01*
X82249623Y-91889289D02*
X82311528Y-91951194D01*
X82311528Y-91951194D02*
X82373432Y-92075003D01*
X82373432Y-92075003D02*
X82373432Y-92260718D01*
X82373432Y-92260718D02*
X82311528Y-92384527D01*
X82311528Y-92384527D02*
X82249623Y-92446432D01*
X82249623Y-92446432D02*
X82125813Y-92508337D01*
X82125813Y-92508337D02*
X81630575Y-92508337D01*
X83425813Y-93065480D02*
X83302004Y-93127384D01*
X83302004Y-93127384D02*
X83054385Y-93127384D01*
X83054385Y-93127384D02*
X82930575Y-93065480D01*
X82930575Y-93065480D02*
X82868671Y-92941670D01*
X82868671Y-92941670D02*
X82868671Y-92446432D01*
X82868671Y-92446432D02*
X82930575Y-92322622D01*
X82930575Y-92322622D02*
X83054385Y-92260718D01*
X83054385Y-92260718D02*
X83302004Y-92260718D01*
X83302004Y-92260718D02*
X83425813Y-92322622D01*
X83425813Y-92322622D02*
X83487718Y-92446432D01*
X83487718Y-92446432D02*
X83487718Y-92570241D01*
X83487718Y-92570241D02*
X82868671Y-92694051D01*
X84044861Y-93127384D02*
X84044861Y-92260718D01*
X84044861Y-92508337D02*
X84106766Y-92384527D01*
X84106766Y-92384527D02*
X84168671Y-92322622D01*
X84168671Y-92322622D02*
X84292480Y-92260718D01*
X84292480Y-92260718D02*
X84416290Y-92260718D01*
X84849623Y-93127384D02*
X84849623Y-92260718D01*
X84849623Y-91827384D02*
X84787719Y-91889289D01*
X84787719Y-91889289D02*
X84849623Y-91951194D01*
X84849623Y-91951194D02*
X84911528Y-91889289D01*
X84911528Y-91889289D02*
X84849623Y-91827384D01*
X84849623Y-91827384D02*
X84849623Y-91951194D01*
X85654386Y-93127384D02*
X85530576Y-93065480D01*
X85530576Y-93065480D02*
X85468671Y-93003575D01*
X85468671Y-93003575D02*
X85406767Y-92879765D01*
X85406767Y-92879765D02*
X85406767Y-92508337D01*
X85406767Y-92508337D02*
X85468671Y-92384527D01*
X85468671Y-92384527D02*
X85530576Y-92322622D01*
X85530576Y-92322622D02*
X85654386Y-92260718D01*
X85654386Y-92260718D02*
X85840100Y-92260718D01*
X85840100Y-92260718D02*
X85963909Y-92322622D01*
X85963909Y-92322622D02*
X86025814Y-92384527D01*
X86025814Y-92384527D02*
X86087719Y-92508337D01*
X86087719Y-92508337D02*
X86087719Y-92879765D01*
X86087719Y-92879765D02*
X86025814Y-93003575D01*
X86025814Y-93003575D02*
X85963909Y-93065480D01*
X85963909Y-93065480D02*
X85840100Y-93127384D01*
X85840100Y-93127384D02*
X85654386Y-93127384D01*
X87202004Y-93127384D02*
X87202004Y-91827384D01*
X87202004Y-93065480D02*
X87078195Y-93127384D01*
X87078195Y-93127384D02*
X86830576Y-93127384D01*
X86830576Y-93127384D02*
X86706766Y-93065480D01*
X86706766Y-93065480D02*
X86644861Y-93003575D01*
X86644861Y-93003575D02*
X86582957Y-92879765D01*
X86582957Y-92879765D02*
X86582957Y-92508337D01*
X86582957Y-92508337D02*
X86644861Y-92384527D01*
X86644861Y-92384527D02*
X86706766Y-92322622D01*
X86706766Y-92322622D02*
X86830576Y-92260718D01*
X86830576Y-92260718D02*
X87078195Y-92260718D01*
X87078195Y-92260718D02*
X87202004Y-92322622D01*
D12*
X74731856Y-71961584D02*
X74731856Y-71944651D01*
X74731856Y-71947070D02*
X74733066Y-71945860D01*
X74733066Y-71945860D02*
X74735485Y-71944651D01*
X74735485Y-71944651D02*
X74739113Y-71944651D01*
X74739113Y-71944651D02*
X74741532Y-71945860D01*
X74741532Y-71945860D02*
X74742742Y-71948279D01*
X74742742Y-71948279D02*
X74742742Y-71961584D01*
X74742742Y-71948279D02*
X74743951Y-71945860D01*
X74743951Y-71945860D02*
X74746370Y-71944651D01*
X74746370Y-71944651D02*
X74749999Y-71944651D01*
X74749999Y-71944651D02*
X74752418Y-71945860D01*
X74752418Y-71945860D02*
X74753628Y-71948279D01*
X74753628Y-71948279D02*
X74753628Y-71961584D01*
X74765723Y-71961584D02*
X74765723Y-71944651D01*
X74765723Y-71947070D02*
X74766933Y-71945860D01*
X74766933Y-71945860D02*
X74769352Y-71944651D01*
X74769352Y-71944651D02*
X74772980Y-71944651D01*
X74772980Y-71944651D02*
X74775399Y-71945860D01*
X74775399Y-71945860D02*
X74776609Y-71948279D01*
X74776609Y-71948279D02*
X74776609Y-71961584D01*
X74776609Y-71948279D02*
X74777818Y-71945860D01*
X74777818Y-71945860D02*
X74780237Y-71944651D01*
X74780237Y-71944651D02*
X74783866Y-71944651D01*
X74783866Y-71944651D02*
X74786285Y-71945860D01*
X74786285Y-71945860D02*
X74787495Y-71948279D01*
X74787495Y-71948279D02*
X74787495Y-71961584D01*
D13*
X76450000Y-70900000D02*
X76450000Y-71800000D01*
X80050000Y-70900000D02*
X80050000Y-71800000D01*
X76450000Y-71450000D02*
X80050000Y-71450000D01*
X76450000Y-71450000D02*
X80050000Y-71450000D01*
X76450000Y-71450000D02*
X76982206Y-71172951D01*
X76450000Y-71450000D02*
X76982206Y-71727049D01*
X80050000Y-71450000D02*
X79517794Y-71727049D01*
X80050000Y-71450000D02*
X79517794Y-71172951D01*
D14*
X78548185Y-94961419D02*
X78548185Y-94944486D01*
X78548185Y-94936019D02*
X78546976Y-94937229D01*
X78546976Y-94937229D02*
X78548185Y-94938438D01*
X78548185Y-94938438D02*
X78549395Y-94937229D01*
X78549395Y-94937229D02*
X78548185Y-94936019D01*
X78548185Y-94936019D02*
X78548185Y-94938438D01*
X78560280Y-94944486D02*
X78560280Y-94961419D01*
X78560280Y-94946905D02*
X78561490Y-94945695D01*
X78561490Y-94945695D02*
X78563909Y-94944486D01*
X78563909Y-94944486D02*
X78567537Y-94944486D01*
X78567537Y-94944486D02*
X78569956Y-94945695D01*
X78569956Y-94945695D02*
X78571166Y-94948114D01*
X78571166Y-94948114D02*
X78571166Y-94961419D01*
D13*
X76450000Y-93550000D02*
X76450000Y-94450000D01*
X78650000Y-93550000D02*
X78650000Y-94450000D01*
X76450000Y-94100000D02*
X78650000Y-94100000D01*
X76450000Y-94100000D02*
X78650000Y-94100000D01*
X76450000Y-94100000D02*
X76982206Y-93822951D01*
X76450000Y-94100000D02*
X76982206Y-94377049D01*
X78650000Y-94100000D02*
X78117794Y-94377049D01*
X78650000Y-94100000D02*
X78117794Y-93822951D01*
D15*
X89913095Y-79654819D02*
X89913095Y-80464342D01*
X89913095Y-80464342D02*
X89960714Y-80559580D01*
X89960714Y-80559580D02*
X90008333Y-80607200D01*
X90008333Y-80607200D02*
X90103571Y-80654819D01*
X90103571Y-80654819D02*
X90294047Y-80654819D01*
X90294047Y-80654819D02*
X90389285Y-80607200D01*
X90389285Y-80607200D02*
X90436904Y-80559580D01*
X90436904Y-80559580D02*
X90484523Y-80464342D01*
X90484523Y-80464342D02*
X90484523Y-79654819D01*
X91484523Y-80654819D02*
X90913095Y-80654819D01*
X91198809Y-80654819D02*
X91198809Y-79654819D01*
X91198809Y-79654819D02*
X91103571Y-79797676D01*
X91103571Y-79797676D02*
X91008333Y-79892914D01*
X91008333Y-79892914D02*
X90913095Y-79940533D01*
X87883333Y-70409580D02*
X87835714Y-70457200D01*
X87835714Y-70457200D02*
X87692857Y-70504819D01*
X87692857Y-70504819D02*
X87597619Y-70504819D01*
X87597619Y-70504819D02*
X87454762Y-70457200D01*
X87454762Y-70457200D02*
X87359524Y-70361961D01*
X87359524Y-70361961D02*
X87311905Y-70266723D01*
X87311905Y-70266723D02*
X87264286Y-70076247D01*
X87264286Y-70076247D02*
X87264286Y-69933390D01*
X87264286Y-69933390D02*
X87311905Y-69742914D01*
X87311905Y-69742914D02*
X87359524Y-69647676D01*
X87359524Y-69647676D02*
X87454762Y-69552438D01*
X87454762Y-69552438D02*
X87597619Y-69504819D01*
X87597619Y-69504819D02*
X87692857Y-69504819D01*
X87692857Y-69504819D02*
X87835714Y-69552438D01*
X87835714Y-69552438D02*
X87883333Y-69600057D01*
X88216667Y-69504819D02*
X88835714Y-69504819D01*
X88835714Y-69504819D02*
X88502381Y-69885771D01*
X88502381Y-69885771D02*
X88645238Y-69885771D01*
X88645238Y-69885771D02*
X88740476Y-69933390D01*
X88740476Y-69933390D02*
X88788095Y-69981009D01*
X88788095Y-69981009D02*
X88835714Y-70076247D01*
X88835714Y-70076247D02*
X88835714Y-70314342D01*
X88835714Y-70314342D02*
X88788095Y-70409580D01*
X88788095Y-70409580D02*
X88740476Y-70457200D01*
X88740476Y-70457200D02*
X88645238Y-70504819D01*
X88645238Y-70504819D02*
X88359524Y-70504819D01*
X88359524Y-70504819D02*
X88264286Y-70457200D01*
X88264286Y-70457200D02*
X88216667Y-70409580D01*
X93208333Y-74604819D02*
X92875000Y-74128628D01*
X92636905Y-74604819D02*
X92636905Y-73604819D01*
X92636905Y-73604819D02*
X93017857Y-73604819D01*
X93017857Y-73604819D02*
X93113095Y-73652438D01*
X93113095Y-73652438D02*
X93160714Y-73700057D01*
X93160714Y-73700057D02*
X93208333Y-73795295D01*
X93208333Y-73795295D02*
X93208333Y-73938152D01*
X93208333Y-73938152D02*
X93160714Y-74033390D01*
X93160714Y-74033390D02*
X93113095Y-74081009D01*
X93113095Y-74081009D02*
X93017857Y-74128628D01*
X93017857Y-74128628D02*
X92636905Y-74128628D01*
X94113095Y-73604819D02*
X93636905Y-73604819D01*
X93636905Y-73604819D02*
X93589286Y-74081009D01*
X93589286Y-74081009D02*
X93636905Y-74033390D01*
X93636905Y-74033390D02*
X93732143Y-73985771D01*
X93732143Y-73985771D02*
X93970238Y-73985771D01*
X93970238Y-73985771D02*
X94065476Y-74033390D01*
X94065476Y-74033390D02*
X94113095Y-74081009D01*
X94113095Y-74081009D02*
X94160714Y-74176247D01*
X94160714Y-74176247D02*
X94160714Y-74414342D01*
X94160714Y-74414342D02*
X94113095Y-74509580D01*
X94113095Y-74509580D02*
X94065476Y-74557200D01*
X94065476Y-74557200D02*
X93970238Y-74604819D01*
X93970238Y-74604819D02*
X93732143Y-74604819D01*
X93732143Y-74604819D02*
X93636905Y-74557200D01*
X93636905Y-74557200D02*
X93589286Y-74509580D01*
X92109580Y-87916666D02*
X92157200Y-87964285D01*
X92157200Y-87964285D02*
X92204819Y-88107142D01*
X92204819Y-88107142D02*
X92204819Y-88202380D01*
X92204819Y-88202380D02*
X92157200Y-88345237D01*
X92157200Y-88345237D02*
X92061961Y-88440475D01*
X92061961Y-88440475D02*
X91966723Y-88488094D01*
X91966723Y-88488094D02*
X91776247Y-88535713D01*
X91776247Y-88535713D02*
X91633390Y-88535713D01*
X91633390Y-88535713D02*
X91442914Y-88488094D01*
X91442914Y-88488094D02*
X91347676Y-88440475D01*
X91347676Y-88440475D02*
X91252438Y-88345237D01*
X91252438Y-88345237D02*
X91204819Y-88202380D01*
X91204819Y-88202380D02*
X91204819Y-88107142D01*
X91204819Y-88107142D02*
X91252438Y-87964285D01*
X91252438Y-87964285D02*
X91300057Y-87916666D01*
X92204819Y-86964285D02*
X92204819Y-87535713D01*
X92204819Y-87249999D02*
X91204819Y-87249999D01*
X91204819Y-87249999D02*
X91347676Y-87345237D01*
X91347676Y-87345237D02*
X91442914Y-87440475D01*
X91442914Y-87440475D02*
X91490533Y-87535713D01*
X84304819Y-76595238D02*
X83828628Y-76928571D01*
X84304819Y-77166666D02*
X83304819Y-77166666D01*
X83304819Y-77166666D02*
X83304819Y-76785714D01*
X83304819Y-76785714D02*
X83352438Y-76690476D01*
X83352438Y-76690476D02*
X83400057Y-76642857D01*
X83400057Y-76642857D02*
X83495295Y-76595238D01*
X83495295Y-76595238D02*
X83638152Y-76595238D01*
X83638152Y-76595238D02*
X83733390Y-76642857D01*
X83733390Y-76642857D02*
X83781009Y-76690476D01*
X83781009Y-76690476D02*
X83828628Y-76785714D01*
X83828628Y-76785714D02*
X83828628Y-77166666D01*
X83304819Y-76309523D02*
X84304819Y-75976190D01*
X84304819Y-75976190D02*
X83304819Y-75642857D01*
X83400057Y-75357142D02*
X83352438Y-75309523D01*
X83352438Y-75309523D02*
X83304819Y-75214285D01*
X83304819Y-75214285D02*
X83304819Y-74976190D01*
X83304819Y-74976190D02*
X83352438Y-74880952D01*
X83352438Y-74880952D02*
X83400057Y-74833333D01*
X83400057Y-74833333D02*
X83495295Y-74785714D01*
X83495295Y-74785714D02*
X83590533Y-74785714D01*
X83590533Y-74785714D02*
X83733390Y-74833333D01*
X83733390Y-74833333D02*
X84304819Y-75404761D01*
X84304819Y-75404761D02*
X84304819Y-74785714D01*
X84304819Y-88295238D02*
X83828628Y-88628571D01*
X84304819Y-88866666D02*
X83304819Y-88866666D01*
X83304819Y-88866666D02*
X83304819Y-88485714D01*
X83304819Y-88485714D02*
X83352438Y-88390476D01*
X83352438Y-88390476D02*
X83400057Y-88342857D01*
X83400057Y-88342857D02*
X83495295Y-88295238D01*
X83495295Y-88295238D02*
X83638152Y-88295238D01*
X83638152Y-88295238D02*
X83733390Y-88342857D01*
X83733390Y-88342857D02*
X83781009Y-88390476D01*
X83781009Y-88390476D02*
X83828628Y-88485714D01*
X83828628Y-88485714D02*
X83828628Y-88866666D01*
X83304819Y-88009523D02*
X84304819Y-87676190D01*
X84304819Y-87676190D02*
X83304819Y-87342857D01*
X84304819Y-86485714D02*
X84304819Y-87057142D01*
X84304819Y-86771428D02*
X83304819Y-86771428D01*
X83304819Y-86771428D02*
X83447676Y-86866666D01*
X83447676Y-86866666D02*
X83542914Y-86961904D01*
X83542914Y-86961904D02*
X83590533Y-87057142D01*
D16*
X91825000Y-81005000D02*
X89875000Y-81005000D01*
X91825000Y-81005000D02*
X93775000Y-81005000D01*
X91825000Y-86125000D02*
X89875000Y-86125000D01*
X91825000Y-86125000D02*
X93775000Y-86125000D01*
X94765000Y-86360000D02*
X94285000Y-86360000D01*
X94525000Y-86030000D01*
X94765000Y-86360000D01*
G36*
X94765000Y-86360000D02*
G01*
X94285000Y-86360000D01*
X94525000Y-86030000D01*
X94765000Y-86360000D01*
G37*
X92900000Y-80000000D02*
X92900000Y-76400000D01*
X96100000Y-76400000D02*
X92900000Y-76400000D01*
X96100000Y-80000000D02*
X96100000Y-76400000D01*
X84425000Y-71965000D02*
X85050000Y-71965000D01*
X84737500Y-71652500D02*
X84737500Y-72277500D01*
X85290000Y-71954437D02*
X85290000Y-72590000D01*
X85290000Y-71954437D02*
X86354437Y-70890000D01*
X85290000Y-75345563D02*
X85290000Y-74710000D01*
X85290000Y-75345563D02*
X86354437Y-76410000D01*
X86354437Y-70890000D02*
X90810000Y-70890000D01*
X86354437Y-76410000D02*
X90810000Y-76410000D01*
X90810000Y-70890000D02*
X90810000Y-72590000D01*
X90810000Y-76410000D02*
X90810000Y-74710000D01*
X86602500Y-89662742D02*
X86602500Y-90137258D01*
X87647500Y-89662742D02*
X87647500Y-90137258D01*
X93515580Y-75090000D02*
X93234420Y-75090000D01*
X93515580Y-76110000D02*
X93234420Y-76110000D01*
X88302500Y-88012258D02*
X88302500Y-87537742D01*
X89347500Y-88012258D02*
X89347500Y-87537742D01*
X86590000Y-80540580D02*
X86590000Y-80259420D01*
X87610000Y-80540580D02*
X87610000Y-80259420D01*
X89790000Y-87609420D02*
X89790000Y-87890580D01*
X90810000Y-87609420D02*
X90810000Y-87890580D01*
X86275000Y-81890000D02*
X86275000Y-84550000D01*
X87975000Y-81890000D02*
X86275000Y-81890000D01*
X87975000Y-81890000D02*
X87975000Y-84550000D01*
X86275000Y-85190000D02*
X86275000Y-87850000D01*
X87975000Y-85190000D02*
X86275000Y-85190000D01*
X87975000Y-85190000D02*
X87975000Y-87850000D01*
X75540000Y-75390000D02*
X75540000Y-73900000D01*
X75540000Y-77900000D02*
X75540000Y-76410000D01*
X76850000Y-72590000D02*
X80390000Y-72590000D01*
X80830000Y-79210000D02*
X76850000Y-79210000D01*
X82560000Y-72590000D02*
X82310000Y-72590000D01*
X82560000Y-72690000D02*
X82560000Y-72590000D01*
X82560000Y-74110000D02*
X82560000Y-77690000D01*
X82560000Y-74110000D02*
X82760000Y-74110000D01*
X82560000Y-77690000D02*
X82760000Y-77690000D01*
X82560000Y-79110000D02*
X82560000Y-79210000D01*
X82560000Y-79210000D02*
X81870000Y-79210000D01*
X82760000Y-72690000D02*
X82560000Y-72690000D01*
X82760000Y-72690000D02*
X82760000Y-74110000D01*
X82760000Y-77690000D02*
X82760000Y-79110000D01*
X82760000Y-79110000D02*
X82560000Y-79110000D01*
X75540000Y-73900000D02*
G75*
G02*
X76850000Y-72590000I1310000J0D01*
G01*
X76850000Y-79210000D02*
G75*
G02*
X75540000Y-77900000I0J1310000D01*
G01*
X75540000Y-87090000D02*
X75540000Y-85600000D01*
X75540000Y-89600000D02*
X75540000Y-88110000D01*
X76850000Y-84290000D02*
X80390000Y-84290000D01*
X80830000Y-90910000D02*
X76850000Y-90910000D01*
X82560000Y-84290000D02*
X82310000Y-84290000D01*
X82560000Y-84390000D02*
X82560000Y-84290000D01*
X82560000Y-85810000D02*
X82560000Y-89390000D01*
X82560000Y-85810000D02*
X82760000Y-85810000D01*
X82560000Y-89390000D02*
X82760000Y-89390000D01*
X82560000Y-90810000D02*
X82560000Y-90910000D01*
X82560000Y-90910000D02*
X81870000Y-90910000D01*
X82760000Y-84390000D02*
X82560000Y-84390000D01*
X82760000Y-84390000D02*
X82760000Y-85810000D01*
X82760000Y-89390000D02*
X82760000Y-90810000D01*
X82760000Y-90810000D02*
X82560000Y-90810000D01*
X75540000Y-85600000D02*
G75*
G02*
X76850000Y-84290000I1310000J0D01*
G01*
X76850000Y-90910000D02*
G75*
G02*
X75540000Y-89600000I0J1310000D01*
G01*
%LPC*%
D17*
X94300000Y-85470000D03*
X94300000Y-84200000D03*
X94300000Y-82930000D03*
X94300000Y-81660000D03*
X89350000Y-81660000D03*
X89350000Y-82930000D03*
X89350000Y-84200000D03*
X89350000Y-85470000D03*
D18*
X94500000Y-77700000D03*
D19*
X94500000Y-79975000D03*
D20*
X85850000Y-73650000D03*
X90250000Y-73650000D03*
D21*
X87125000Y-89075000D03*
X87125000Y-90725000D03*
D22*
X94150000Y-75600000D03*
X92600000Y-75600000D03*
D23*
X88825000Y-88600000D03*
X88825000Y-86950000D03*
D24*
X87100000Y-81175000D03*
X87100000Y-79625000D03*
D25*
X90300000Y-86975000D03*
X90300000Y-88525000D03*
D26*
X87125000Y-82450000D03*
X87125000Y-84550000D03*
X87125000Y-85750000D03*
X87125000Y-87850000D03*
D27*
X81350000Y-73400000D03*
D28*
X76350000Y-75900000D03*
X81350000Y-78400000D03*
D29*
X93600000Y-69950000D03*
D27*
X81350000Y-85100000D03*
D28*
X76350000Y-87600000D03*
X81350000Y-90100000D03*
D30*
X90350000Y-78000000D03*
X90350000Y-91200000D03*
%LPD*%
M02*
