%TF.GenerationSoftware,KiCad,Pcbnew,8.0.1*%
%TF.CreationDate,2024-07-10T15:35:58+08:00*%
%TF.ProjectId,555Sandbox,35353553-616e-4646-926f-782e6b696361,1.0.0*%
%TF.SameCoordinates,Original*%
%TF.FileFunction,Drillmap*%
%TF.FilePolarity,Positive*%
%FSLAX45Y45*%
G04 Gerber Fmt 4.5, Leading zero omitted, Abs format (unit mm)*
G04 Created by KiCad (PCBNEW 8.0.1) date 2024-07-10 15:35:58*
%MOMM*%
%LPD*%
G01*
G04 APERTURE LIST*
%ADD10C,0.050000*%
%ADD11C,0.200000*%
%ADD12C,0.100000*%
%ADD13C,0.190000*%
%ADD14C,0.250000*%
G04 APERTURE END LIST*
D10*
X9370000Y-6690000D02*
G75*
G02*
X9670000Y-6990000I0J-300000D01*
G01*
X9670000Y-9390000D02*
X9670000Y-6990000D01*
X7595000Y-9490000D02*
G75*
G02*
X7494292Y-9390005I0J100710D01*
G01*
X7495000Y-9390000D02*
X7495000Y-6790000D01*
X9670000Y-9390000D02*
G75*
G02*
X9570000Y-9490000I-100000J0D01*
G01*
X9570000Y-9490000D02*
X7595000Y-9490000D01*
X7495000Y-6790000D02*
G75*
G02*
X7595000Y-6690000I100000J0D01*
G01*
X7595000Y-6690000D02*
X9370000Y-6690000D01*
D11*
D12*
X9390000Y-7355000D02*
X9420000Y-7385000D01*
X9420000Y-7355000D02*
X9390000Y-7385000D01*
X9410000Y-8810000D02*
X9440000Y-8840000D01*
X9440000Y-8810000D02*
X9410000Y-8840000D01*
X9535000Y-7350000D02*
X9565000Y-7380000D01*
X9565000Y-7350000D02*
X9535000Y-7380000D01*
X9535000Y-7500000D02*
X9565000Y-7530000D01*
X9565000Y-7500000D02*
X9535000Y-7530000D01*
X9560000Y-8660000D02*
X9590000Y-8690000D01*
X9590000Y-8660000D02*
X9560000Y-8690000D01*
X9560000Y-8810000D02*
X9590000Y-8840000D01*
X9590000Y-8810000D02*
X9560000Y-8840000D01*
X7685000Y-7590000D02*
G75*
G02*
X7585000Y-7590000I-50000J0D01*
G01*
X7585000Y-7590000D02*
G75*
G02*
X7685000Y-7590000I50000J0D01*
G01*
X7685000Y-8760000D02*
G75*
G02*
X7585000Y-8760000I-50000J0D01*
G01*
X7585000Y-8760000D02*
G75*
G02*
X7685000Y-8760000I50000J0D01*
G01*
X8185000Y-7340000D02*
G75*
G02*
X8085000Y-7340000I-50000J0D01*
G01*
X8085000Y-7340000D02*
G75*
G02*
X8185000Y-7340000I50000J0D01*
G01*
X8185000Y-7840000D02*
G75*
G02*
X8085000Y-7840000I-50000J0D01*
G01*
X8085000Y-7840000D02*
G75*
G02*
X8185000Y-7840000I50000J0D01*
G01*
X8185000Y-8510000D02*
G75*
G02*
X8085000Y-8510000I-50000J0D01*
G01*
X8085000Y-8510000D02*
G75*
G02*
X8185000Y-8510000I50000J0D01*
G01*
X8185000Y-9010000D02*
G75*
G02*
X8085000Y-9010000I-50000J0D01*
G01*
X8085000Y-9010000D02*
G75*
G02*
X8185000Y-9010000I50000J0D01*
G01*
D13*
X9035000Y-7705000D02*
X9035000Y-7895000D01*
X8940000Y-7800000D02*
X9130000Y-7800000D01*
X9035000Y-9025000D02*
X9035000Y-9215000D01*
X8940000Y-9120000D02*
X9130000Y-9120000D01*
D14*
X9448389Y-7083389D02*
X9448389Y-6906611D01*
X9271611Y-6906611D01*
X9271611Y-7083389D01*
X9448389Y-7083389D01*
D11*
X7752569Y-9803984D02*
X7752569Y-9603984D01*
X7752569Y-9603984D02*
X7800188Y-9603984D01*
X7800188Y-9603984D02*
X7828759Y-9613508D01*
X7828759Y-9613508D02*
X7847807Y-9632555D01*
X7847807Y-9632555D02*
X7857330Y-9651603D01*
X7857330Y-9651603D02*
X7866854Y-9689698D01*
X7866854Y-9689698D02*
X7866854Y-9718270D01*
X7866854Y-9718270D02*
X7857330Y-9756365D01*
X7857330Y-9756365D02*
X7847807Y-9775412D01*
X7847807Y-9775412D02*
X7828759Y-9794460D01*
X7828759Y-9794460D02*
X7800188Y-9803984D01*
X7800188Y-9803984D02*
X7752569Y-9803984D01*
X7952569Y-9803984D02*
X7952569Y-9670650D01*
X7952569Y-9708746D02*
X7962092Y-9689698D01*
X7962092Y-9689698D02*
X7971616Y-9680174D01*
X7971616Y-9680174D02*
X7990664Y-9670650D01*
X7990664Y-9670650D02*
X8009711Y-9670650D01*
X8076378Y-9803984D02*
X8076378Y-9670650D01*
X8076378Y-9603984D02*
X8066854Y-9613508D01*
X8066854Y-9613508D02*
X8076378Y-9623031D01*
X8076378Y-9623031D02*
X8085902Y-9613508D01*
X8085902Y-9613508D02*
X8076378Y-9603984D01*
X8076378Y-9603984D02*
X8076378Y-9623031D01*
X8200188Y-9803984D02*
X8181140Y-9794460D01*
X8181140Y-9794460D02*
X8171616Y-9775412D01*
X8171616Y-9775412D02*
X8171616Y-9603984D01*
X8304949Y-9803984D02*
X8285902Y-9794460D01*
X8285902Y-9794460D02*
X8276378Y-9775412D01*
X8276378Y-9775412D02*
X8276378Y-9603984D01*
X8533521Y-9803984D02*
X8533521Y-9603984D01*
X8533521Y-9603984D02*
X8600188Y-9746841D01*
X8600188Y-9746841D02*
X8666854Y-9603984D01*
X8666854Y-9603984D02*
X8666854Y-9803984D01*
X8847807Y-9803984D02*
X8847807Y-9699222D01*
X8847807Y-9699222D02*
X8838283Y-9680174D01*
X8838283Y-9680174D02*
X8819235Y-9670650D01*
X8819235Y-9670650D02*
X8781140Y-9670650D01*
X8781140Y-9670650D02*
X8762092Y-9680174D01*
X8847807Y-9794460D02*
X8828759Y-9803984D01*
X8828759Y-9803984D02*
X8781140Y-9803984D01*
X8781140Y-9803984D02*
X8762092Y-9794460D01*
X8762092Y-9794460D02*
X8752569Y-9775412D01*
X8752569Y-9775412D02*
X8752569Y-9756365D01*
X8752569Y-9756365D02*
X8762092Y-9737317D01*
X8762092Y-9737317D02*
X8781140Y-9727793D01*
X8781140Y-9727793D02*
X8828759Y-9727793D01*
X8828759Y-9727793D02*
X8847807Y-9718270D01*
X8943045Y-9670650D02*
X8943045Y-9870650D01*
X8943045Y-9680174D02*
X8962092Y-9670650D01*
X8962092Y-9670650D02*
X9000188Y-9670650D01*
X9000188Y-9670650D02*
X9019235Y-9680174D01*
X9019235Y-9680174D02*
X9028759Y-9689698D01*
X9028759Y-9689698D02*
X9038283Y-9708746D01*
X9038283Y-9708746D02*
X9038283Y-9765889D01*
X9038283Y-9765889D02*
X9028759Y-9784936D01*
X9028759Y-9784936D02*
X9019235Y-9794460D01*
X9019235Y-9794460D02*
X9000188Y-9803984D01*
X9000188Y-9803984D02*
X8962092Y-9803984D01*
X8962092Y-9803984D02*
X8943045Y-9794460D01*
X9123997Y-9784936D02*
X9133521Y-9794460D01*
X9133521Y-9794460D02*
X9123997Y-9803984D01*
X9123997Y-9803984D02*
X9114473Y-9794460D01*
X9114473Y-9794460D02*
X9123997Y-9784936D01*
X9123997Y-9784936D02*
X9123997Y-9803984D01*
X9123997Y-9680174D02*
X9133521Y-9689698D01*
X9133521Y-9689698D02*
X9123997Y-9699222D01*
X9123997Y-9699222D02*
X9114473Y-9689698D01*
X9114473Y-9689698D02*
X9123997Y-9680174D01*
X9123997Y-9680174D02*
X9123997Y-9699222D01*
D12*
X7461792Y-10117500D02*
X7491792Y-10147500D01*
X7491792Y-10117500D02*
X7461792Y-10147500D01*
D11*
X7790664Y-10023984D02*
X7809711Y-10023984D01*
X7809711Y-10023984D02*
X7828759Y-10033508D01*
X7828759Y-10033508D02*
X7838283Y-10043031D01*
X7838283Y-10043031D02*
X7847807Y-10062079D01*
X7847807Y-10062079D02*
X7857330Y-10100174D01*
X7857330Y-10100174D02*
X7857330Y-10147793D01*
X7857330Y-10147793D02*
X7847807Y-10185889D01*
X7847807Y-10185889D02*
X7838283Y-10204936D01*
X7838283Y-10204936D02*
X7828759Y-10214460D01*
X7828759Y-10214460D02*
X7809711Y-10223984D01*
X7809711Y-10223984D02*
X7790664Y-10223984D01*
X7790664Y-10223984D02*
X7771616Y-10214460D01*
X7771616Y-10214460D02*
X7762092Y-10204936D01*
X7762092Y-10204936D02*
X7752569Y-10185889D01*
X7752569Y-10185889D02*
X7743045Y-10147793D01*
X7743045Y-10147793D02*
X7743045Y-10100174D01*
X7743045Y-10100174D02*
X7752569Y-10062079D01*
X7752569Y-10062079D02*
X7762092Y-10043031D01*
X7762092Y-10043031D02*
X7771616Y-10033508D01*
X7771616Y-10033508D02*
X7790664Y-10023984D01*
X7943045Y-10204936D02*
X7952569Y-10214460D01*
X7952569Y-10214460D02*
X7943045Y-10223984D01*
X7943045Y-10223984D02*
X7933521Y-10214460D01*
X7933521Y-10214460D02*
X7943045Y-10204936D01*
X7943045Y-10204936D02*
X7943045Y-10223984D01*
X8019235Y-10023984D02*
X8143045Y-10023984D01*
X8143045Y-10023984D02*
X8076378Y-10100174D01*
X8076378Y-10100174D02*
X8104950Y-10100174D01*
X8104950Y-10100174D02*
X8123997Y-10109698D01*
X8123997Y-10109698D02*
X8133521Y-10119222D01*
X8133521Y-10119222D02*
X8143045Y-10138270D01*
X8143045Y-10138270D02*
X8143045Y-10185889D01*
X8143045Y-10185889D02*
X8133521Y-10204936D01*
X8133521Y-10204936D02*
X8123997Y-10214460D01*
X8123997Y-10214460D02*
X8104950Y-10223984D01*
X8104950Y-10223984D02*
X8047807Y-10223984D01*
X8047807Y-10223984D02*
X8028759Y-10214460D01*
X8028759Y-10214460D02*
X8019235Y-10204936D01*
X8266854Y-10023984D02*
X8285902Y-10023984D01*
X8285902Y-10023984D02*
X8304950Y-10033508D01*
X8304950Y-10033508D02*
X8314473Y-10043031D01*
X8314473Y-10043031D02*
X8323997Y-10062079D01*
X8323997Y-10062079D02*
X8333521Y-10100174D01*
X8333521Y-10100174D02*
X8333521Y-10147793D01*
X8333521Y-10147793D02*
X8323997Y-10185889D01*
X8323997Y-10185889D02*
X8314473Y-10204936D01*
X8314473Y-10204936D02*
X8304950Y-10214460D01*
X8304950Y-10214460D02*
X8285902Y-10223984D01*
X8285902Y-10223984D02*
X8266854Y-10223984D01*
X8266854Y-10223984D02*
X8247807Y-10214460D01*
X8247807Y-10214460D02*
X8238283Y-10204936D01*
X8238283Y-10204936D02*
X8228759Y-10185889D01*
X8228759Y-10185889D02*
X8219235Y-10147793D01*
X8219235Y-10147793D02*
X8219235Y-10100174D01*
X8219235Y-10100174D02*
X8228759Y-10062079D01*
X8228759Y-10062079D02*
X8238283Y-10043031D01*
X8238283Y-10043031D02*
X8247807Y-10033508D01*
X8247807Y-10033508D02*
X8266854Y-10023984D01*
X8457331Y-10023984D02*
X8476378Y-10023984D01*
X8476378Y-10023984D02*
X8495426Y-10033508D01*
X8495426Y-10033508D02*
X8504950Y-10043031D01*
X8504950Y-10043031D02*
X8514473Y-10062079D01*
X8514473Y-10062079D02*
X8523997Y-10100174D01*
X8523997Y-10100174D02*
X8523997Y-10147793D01*
X8523997Y-10147793D02*
X8514473Y-10185889D01*
X8514473Y-10185889D02*
X8504950Y-10204936D01*
X8504950Y-10204936D02*
X8495426Y-10214460D01*
X8495426Y-10214460D02*
X8476378Y-10223984D01*
X8476378Y-10223984D02*
X8457331Y-10223984D01*
X8457331Y-10223984D02*
X8438283Y-10214460D01*
X8438283Y-10214460D02*
X8428759Y-10204936D01*
X8428759Y-10204936D02*
X8419235Y-10185889D01*
X8419235Y-10185889D02*
X8409712Y-10147793D01*
X8409712Y-10147793D02*
X8409712Y-10100174D01*
X8409712Y-10100174D02*
X8419235Y-10062079D01*
X8419235Y-10062079D02*
X8428759Y-10043031D01*
X8428759Y-10043031D02*
X8438283Y-10033508D01*
X8438283Y-10033508D02*
X8457331Y-10023984D01*
X8609712Y-10223984D02*
X8609712Y-10090650D01*
X8609712Y-10109698D02*
X8619235Y-10100174D01*
X8619235Y-10100174D02*
X8638283Y-10090650D01*
X8638283Y-10090650D02*
X8666854Y-10090650D01*
X8666854Y-10090650D02*
X8685902Y-10100174D01*
X8685902Y-10100174D02*
X8695426Y-10119222D01*
X8695426Y-10119222D02*
X8695426Y-10223984D01*
X8695426Y-10119222D02*
X8704950Y-10100174D01*
X8704950Y-10100174D02*
X8723997Y-10090650D01*
X8723997Y-10090650D02*
X8752569Y-10090650D01*
X8752569Y-10090650D02*
X8771616Y-10100174D01*
X8771616Y-10100174D02*
X8781140Y-10119222D01*
X8781140Y-10119222D02*
X8781140Y-10223984D01*
X8876378Y-10223984D02*
X8876378Y-10090650D01*
X8876378Y-10109698D02*
X8885902Y-10100174D01*
X8885902Y-10100174D02*
X8904950Y-10090650D01*
X8904950Y-10090650D02*
X8933521Y-10090650D01*
X8933521Y-10090650D02*
X8952569Y-10100174D01*
X8952569Y-10100174D02*
X8962093Y-10119222D01*
X8962093Y-10119222D02*
X8962093Y-10223984D01*
X8962093Y-10119222D02*
X8971616Y-10100174D01*
X8971616Y-10100174D02*
X8990664Y-10090650D01*
X8990664Y-10090650D02*
X9019235Y-10090650D01*
X9019235Y-10090650D02*
X9038283Y-10100174D01*
X9038283Y-10100174D02*
X9047807Y-10119222D01*
X9047807Y-10119222D02*
X9047807Y-10223984D01*
X9438283Y-10014460D02*
X9266855Y-10271603D01*
X9695426Y-10023984D02*
X9714474Y-10023984D01*
X9714474Y-10023984D02*
X9733521Y-10033508D01*
X9733521Y-10033508D02*
X9743045Y-10043031D01*
X9743045Y-10043031D02*
X9752569Y-10062079D01*
X9752569Y-10062079D02*
X9762093Y-10100174D01*
X9762093Y-10100174D02*
X9762093Y-10147793D01*
X9762093Y-10147793D02*
X9752569Y-10185889D01*
X9752569Y-10185889D02*
X9743045Y-10204936D01*
X9743045Y-10204936D02*
X9733521Y-10214460D01*
X9733521Y-10214460D02*
X9714474Y-10223984D01*
X9714474Y-10223984D02*
X9695426Y-10223984D01*
X9695426Y-10223984D02*
X9676378Y-10214460D01*
X9676378Y-10214460D02*
X9666855Y-10204936D01*
X9666855Y-10204936D02*
X9657331Y-10185889D01*
X9657331Y-10185889D02*
X9647807Y-10147793D01*
X9647807Y-10147793D02*
X9647807Y-10100174D01*
X9647807Y-10100174D02*
X9657331Y-10062079D01*
X9657331Y-10062079D02*
X9666855Y-10043031D01*
X9666855Y-10043031D02*
X9676378Y-10033508D01*
X9676378Y-10033508D02*
X9695426Y-10023984D01*
X9847807Y-10204936D02*
X9857331Y-10214460D01*
X9857331Y-10214460D02*
X9847807Y-10223984D01*
X9847807Y-10223984D02*
X9838283Y-10214460D01*
X9838283Y-10214460D02*
X9847807Y-10204936D01*
X9847807Y-10204936D02*
X9847807Y-10223984D01*
X9981140Y-10023984D02*
X10000188Y-10023984D01*
X10000188Y-10023984D02*
X10019236Y-10033508D01*
X10019236Y-10033508D02*
X10028759Y-10043031D01*
X10028759Y-10043031D02*
X10038283Y-10062079D01*
X10038283Y-10062079D02*
X10047807Y-10100174D01*
X10047807Y-10100174D02*
X10047807Y-10147793D01*
X10047807Y-10147793D02*
X10038283Y-10185889D01*
X10038283Y-10185889D02*
X10028759Y-10204936D01*
X10028759Y-10204936D02*
X10019236Y-10214460D01*
X10019236Y-10214460D02*
X10000188Y-10223984D01*
X10000188Y-10223984D02*
X9981140Y-10223984D01*
X9981140Y-10223984D02*
X9962093Y-10214460D01*
X9962093Y-10214460D02*
X9952569Y-10204936D01*
X9952569Y-10204936D02*
X9943045Y-10185889D01*
X9943045Y-10185889D02*
X9933521Y-10147793D01*
X9933521Y-10147793D02*
X9933521Y-10100174D01*
X9933521Y-10100174D02*
X9943045Y-10062079D01*
X9943045Y-10062079D02*
X9952569Y-10043031D01*
X9952569Y-10043031D02*
X9962093Y-10033508D01*
X9962093Y-10033508D02*
X9981140Y-10023984D01*
X10238283Y-10223984D02*
X10123997Y-10223984D01*
X10181140Y-10223984D02*
X10181140Y-10023984D01*
X10181140Y-10023984D02*
X10162093Y-10052555D01*
X10162093Y-10052555D02*
X10143045Y-10071603D01*
X10143045Y-10071603D02*
X10123997Y-10081127D01*
X10428759Y-10223984D02*
X10314474Y-10223984D01*
X10371616Y-10223984D02*
X10371616Y-10023984D01*
X10371616Y-10023984D02*
X10352569Y-10052555D01*
X10352569Y-10052555D02*
X10333521Y-10071603D01*
X10333521Y-10071603D02*
X10314474Y-10081127D01*
X10543045Y-10109698D02*
X10523997Y-10100174D01*
X10523997Y-10100174D02*
X10514474Y-10090650D01*
X10514474Y-10090650D02*
X10504950Y-10071603D01*
X10504950Y-10071603D02*
X10504950Y-10062079D01*
X10504950Y-10062079D02*
X10514474Y-10043031D01*
X10514474Y-10043031D02*
X10523997Y-10033508D01*
X10523997Y-10033508D02*
X10543045Y-10023984D01*
X10543045Y-10023984D02*
X10581140Y-10023984D01*
X10581140Y-10023984D02*
X10600188Y-10033508D01*
X10600188Y-10033508D02*
X10609712Y-10043031D01*
X10609712Y-10043031D02*
X10619236Y-10062079D01*
X10619236Y-10062079D02*
X10619236Y-10071603D01*
X10619236Y-10071603D02*
X10609712Y-10090650D01*
X10609712Y-10090650D02*
X10600188Y-10100174D01*
X10600188Y-10100174D02*
X10581140Y-10109698D01*
X10581140Y-10109698D02*
X10543045Y-10109698D01*
X10543045Y-10109698D02*
X10523997Y-10119222D01*
X10523997Y-10119222D02*
X10514474Y-10128746D01*
X10514474Y-10128746D02*
X10504950Y-10147793D01*
X10504950Y-10147793D02*
X10504950Y-10185889D01*
X10504950Y-10185889D02*
X10514474Y-10204936D01*
X10514474Y-10204936D02*
X10523997Y-10214460D01*
X10523997Y-10214460D02*
X10543045Y-10223984D01*
X10543045Y-10223984D02*
X10581140Y-10223984D01*
X10581140Y-10223984D02*
X10600188Y-10214460D01*
X10600188Y-10214460D02*
X10609712Y-10204936D01*
X10609712Y-10204936D02*
X10619236Y-10185889D01*
X10619236Y-10185889D02*
X10619236Y-10147793D01*
X10619236Y-10147793D02*
X10609712Y-10128746D01*
X10609712Y-10128746D02*
X10600188Y-10119222D01*
X10600188Y-10119222D02*
X10581140Y-10109698D01*
X10695426Y-10023984D02*
X10695426Y-10062079D01*
X10771617Y-10023984D02*
X10771617Y-10062079D01*
X11066855Y-10300174D02*
X11057331Y-10290650D01*
X11057331Y-10290650D02*
X11038283Y-10262079D01*
X11038283Y-10262079D02*
X11028759Y-10243031D01*
X11028759Y-10243031D02*
X11019236Y-10214460D01*
X11019236Y-10214460D02*
X11009712Y-10166841D01*
X11009712Y-10166841D02*
X11009712Y-10128746D01*
X11009712Y-10128746D02*
X11019236Y-10081127D01*
X11019236Y-10081127D02*
X11028759Y-10052555D01*
X11028759Y-10052555D02*
X11038283Y-10033508D01*
X11038283Y-10033508D02*
X11057331Y-10004936D01*
X11057331Y-10004936D02*
X11066855Y-9995412D01*
X11228759Y-10023984D02*
X11190664Y-10023984D01*
X11190664Y-10023984D02*
X11171617Y-10033508D01*
X11171617Y-10033508D02*
X11162093Y-10043031D01*
X11162093Y-10043031D02*
X11143045Y-10071603D01*
X11143045Y-10071603D02*
X11133521Y-10109698D01*
X11133521Y-10109698D02*
X11133521Y-10185889D01*
X11133521Y-10185889D02*
X11143045Y-10204936D01*
X11143045Y-10204936D02*
X11152569Y-10214460D01*
X11152569Y-10214460D02*
X11171617Y-10223984D01*
X11171617Y-10223984D02*
X11209712Y-10223984D01*
X11209712Y-10223984D02*
X11228759Y-10214460D01*
X11228759Y-10214460D02*
X11238283Y-10204936D01*
X11238283Y-10204936D02*
X11247807Y-10185889D01*
X11247807Y-10185889D02*
X11247807Y-10138270D01*
X11247807Y-10138270D02*
X11238283Y-10119222D01*
X11238283Y-10119222D02*
X11228759Y-10109698D01*
X11228759Y-10109698D02*
X11209712Y-10100174D01*
X11209712Y-10100174D02*
X11171617Y-10100174D01*
X11171617Y-10100174D02*
X11152569Y-10109698D01*
X11152569Y-10109698D02*
X11143045Y-10119222D01*
X11143045Y-10119222D02*
X11133521Y-10138270D01*
X11485902Y-10223984D02*
X11485902Y-10023984D01*
X11571617Y-10223984D02*
X11571617Y-10119222D01*
X11571617Y-10119222D02*
X11562093Y-10100174D01*
X11562093Y-10100174D02*
X11543045Y-10090650D01*
X11543045Y-10090650D02*
X11514474Y-10090650D01*
X11514474Y-10090650D02*
X11495426Y-10100174D01*
X11495426Y-10100174D02*
X11485902Y-10109698D01*
X11695426Y-10223984D02*
X11676378Y-10214460D01*
X11676378Y-10214460D02*
X11666855Y-10204936D01*
X11666855Y-10204936D02*
X11657331Y-10185889D01*
X11657331Y-10185889D02*
X11657331Y-10128746D01*
X11657331Y-10128746D02*
X11666855Y-10109698D01*
X11666855Y-10109698D02*
X11676378Y-10100174D01*
X11676378Y-10100174D02*
X11695426Y-10090650D01*
X11695426Y-10090650D02*
X11723998Y-10090650D01*
X11723998Y-10090650D02*
X11743045Y-10100174D01*
X11743045Y-10100174D02*
X11752569Y-10109698D01*
X11752569Y-10109698D02*
X11762093Y-10128746D01*
X11762093Y-10128746D02*
X11762093Y-10185889D01*
X11762093Y-10185889D02*
X11752569Y-10204936D01*
X11752569Y-10204936D02*
X11743045Y-10214460D01*
X11743045Y-10214460D02*
X11723998Y-10223984D01*
X11723998Y-10223984D02*
X11695426Y-10223984D01*
X11876378Y-10223984D02*
X11857331Y-10214460D01*
X11857331Y-10214460D02*
X11847807Y-10195412D01*
X11847807Y-10195412D02*
X11847807Y-10023984D01*
X12028759Y-10214460D02*
X12009712Y-10223984D01*
X12009712Y-10223984D02*
X11971617Y-10223984D01*
X11971617Y-10223984D02*
X11952569Y-10214460D01*
X11952569Y-10214460D02*
X11943045Y-10195412D01*
X11943045Y-10195412D02*
X11943045Y-10119222D01*
X11943045Y-10119222D02*
X11952569Y-10100174D01*
X11952569Y-10100174D02*
X11971617Y-10090650D01*
X11971617Y-10090650D02*
X12009712Y-10090650D01*
X12009712Y-10090650D02*
X12028759Y-10100174D01*
X12028759Y-10100174D02*
X12038283Y-10119222D01*
X12038283Y-10119222D02*
X12038283Y-10138270D01*
X12038283Y-10138270D02*
X11943045Y-10157317D01*
X12114474Y-10214460D02*
X12133521Y-10223984D01*
X12133521Y-10223984D02*
X12171617Y-10223984D01*
X12171617Y-10223984D02*
X12190664Y-10214460D01*
X12190664Y-10214460D02*
X12200188Y-10195412D01*
X12200188Y-10195412D02*
X12200188Y-10185889D01*
X12200188Y-10185889D02*
X12190664Y-10166841D01*
X12190664Y-10166841D02*
X12171617Y-10157317D01*
X12171617Y-10157317D02*
X12143045Y-10157317D01*
X12143045Y-10157317D02*
X12123998Y-10147793D01*
X12123998Y-10147793D02*
X12114474Y-10128746D01*
X12114474Y-10128746D02*
X12114474Y-10119222D01*
X12114474Y-10119222D02*
X12123998Y-10100174D01*
X12123998Y-10100174D02*
X12143045Y-10090650D01*
X12143045Y-10090650D02*
X12171617Y-10090650D01*
X12171617Y-10090650D02*
X12190664Y-10100174D01*
X12266855Y-10300174D02*
X12276379Y-10290650D01*
X12276379Y-10290650D02*
X12295426Y-10262079D01*
X12295426Y-10262079D02*
X12304950Y-10243031D01*
X12304950Y-10243031D02*
X12314474Y-10214460D01*
X12314474Y-10214460D02*
X12323998Y-10166841D01*
X12323998Y-10166841D02*
X12323998Y-10128746D01*
X12323998Y-10128746D02*
X12314474Y-10081127D01*
X12314474Y-10081127D02*
X12304950Y-10052555D01*
X12304950Y-10052555D02*
X12295426Y-10033508D01*
X12295426Y-10033508D02*
X12276379Y-10004936D01*
X12276379Y-10004936D02*
X12266855Y-9995412D01*
D12*
X7491792Y-10396500D02*
G75*
G02*
X7391792Y-10396500I-50000J0D01*
G01*
X7391792Y-10396500D02*
G75*
G02*
X7491792Y-10396500I50000J0D01*
G01*
D11*
X7857330Y-10487984D02*
X7743045Y-10487984D01*
X7800188Y-10487984D02*
X7800188Y-10287984D01*
X7800188Y-10287984D02*
X7781140Y-10316555D01*
X7781140Y-10316555D02*
X7762092Y-10335603D01*
X7762092Y-10335603D02*
X7743045Y-10345127D01*
X7943045Y-10468936D02*
X7952569Y-10478460D01*
X7952569Y-10478460D02*
X7943045Y-10487984D01*
X7943045Y-10487984D02*
X7933521Y-10478460D01*
X7933521Y-10478460D02*
X7943045Y-10468936D01*
X7943045Y-10468936D02*
X7943045Y-10487984D01*
X8076378Y-10287984D02*
X8095426Y-10287984D01*
X8095426Y-10287984D02*
X8114473Y-10297508D01*
X8114473Y-10297508D02*
X8123997Y-10307031D01*
X8123997Y-10307031D02*
X8133521Y-10326079D01*
X8133521Y-10326079D02*
X8143045Y-10364174D01*
X8143045Y-10364174D02*
X8143045Y-10411793D01*
X8143045Y-10411793D02*
X8133521Y-10449889D01*
X8133521Y-10449889D02*
X8123997Y-10468936D01*
X8123997Y-10468936D02*
X8114473Y-10478460D01*
X8114473Y-10478460D02*
X8095426Y-10487984D01*
X8095426Y-10487984D02*
X8076378Y-10487984D01*
X8076378Y-10487984D02*
X8057330Y-10478460D01*
X8057330Y-10478460D02*
X8047807Y-10468936D01*
X8047807Y-10468936D02*
X8038283Y-10449889D01*
X8038283Y-10449889D02*
X8028759Y-10411793D01*
X8028759Y-10411793D02*
X8028759Y-10364174D01*
X8028759Y-10364174D02*
X8038283Y-10326079D01*
X8038283Y-10326079D02*
X8047807Y-10307031D01*
X8047807Y-10307031D02*
X8057330Y-10297508D01*
X8057330Y-10297508D02*
X8076378Y-10287984D01*
X8266854Y-10287984D02*
X8285902Y-10287984D01*
X8285902Y-10287984D02*
X8304950Y-10297508D01*
X8304950Y-10297508D02*
X8314473Y-10307031D01*
X8314473Y-10307031D02*
X8323997Y-10326079D01*
X8323997Y-10326079D02*
X8333521Y-10364174D01*
X8333521Y-10364174D02*
X8333521Y-10411793D01*
X8333521Y-10411793D02*
X8323997Y-10449889D01*
X8323997Y-10449889D02*
X8314473Y-10468936D01*
X8314473Y-10468936D02*
X8304950Y-10478460D01*
X8304950Y-10478460D02*
X8285902Y-10487984D01*
X8285902Y-10487984D02*
X8266854Y-10487984D01*
X8266854Y-10487984D02*
X8247807Y-10478460D01*
X8247807Y-10478460D02*
X8238283Y-10468936D01*
X8238283Y-10468936D02*
X8228759Y-10449889D01*
X8228759Y-10449889D02*
X8219235Y-10411793D01*
X8219235Y-10411793D02*
X8219235Y-10364174D01*
X8219235Y-10364174D02*
X8228759Y-10326079D01*
X8228759Y-10326079D02*
X8238283Y-10307031D01*
X8238283Y-10307031D02*
X8247807Y-10297508D01*
X8247807Y-10297508D02*
X8266854Y-10287984D01*
X8457331Y-10287984D02*
X8476378Y-10287984D01*
X8476378Y-10287984D02*
X8495426Y-10297508D01*
X8495426Y-10297508D02*
X8504950Y-10307031D01*
X8504950Y-10307031D02*
X8514473Y-10326079D01*
X8514473Y-10326079D02*
X8523997Y-10364174D01*
X8523997Y-10364174D02*
X8523997Y-10411793D01*
X8523997Y-10411793D02*
X8514473Y-10449889D01*
X8514473Y-10449889D02*
X8504950Y-10468936D01*
X8504950Y-10468936D02*
X8495426Y-10478460D01*
X8495426Y-10478460D02*
X8476378Y-10487984D01*
X8476378Y-10487984D02*
X8457331Y-10487984D01*
X8457331Y-10487984D02*
X8438283Y-10478460D01*
X8438283Y-10478460D02*
X8428759Y-10468936D01*
X8428759Y-10468936D02*
X8419235Y-10449889D01*
X8419235Y-10449889D02*
X8409712Y-10411793D01*
X8409712Y-10411793D02*
X8409712Y-10364174D01*
X8409712Y-10364174D02*
X8419235Y-10326079D01*
X8419235Y-10326079D02*
X8428759Y-10307031D01*
X8428759Y-10307031D02*
X8438283Y-10297508D01*
X8438283Y-10297508D02*
X8457331Y-10287984D01*
X8609712Y-10487984D02*
X8609712Y-10354650D01*
X8609712Y-10373698D02*
X8619235Y-10364174D01*
X8619235Y-10364174D02*
X8638283Y-10354650D01*
X8638283Y-10354650D02*
X8666854Y-10354650D01*
X8666854Y-10354650D02*
X8685902Y-10364174D01*
X8685902Y-10364174D02*
X8695426Y-10383222D01*
X8695426Y-10383222D02*
X8695426Y-10487984D01*
X8695426Y-10383222D02*
X8704950Y-10364174D01*
X8704950Y-10364174D02*
X8723997Y-10354650D01*
X8723997Y-10354650D02*
X8752569Y-10354650D01*
X8752569Y-10354650D02*
X8771616Y-10364174D01*
X8771616Y-10364174D02*
X8781140Y-10383222D01*
X8781140Y-10383222D02*
X8781140Y-10487984D01*
X8876378Y-10487984D02*
X8876378Y-10354650D01*
X8876378Y-10373698D02*
X8885902Y-10364174D01*
X8885902Y-10364174D02*
X8904950Y-10354650D01*
X8904950Y-10354650D02*
X8933521Y-10354650D01*
X8933521Y-10354650D02*
X8952569Y-10364174D01*
X8952569Y-10364174D02*
X8962093Y-10383222D01*
X8962093Y-10383222D02*
X8962093Y-10487984D01*
X8962093Y-10383222D02*
X8971616Y-10364174D01*
X8971616Y-10364174D02*
X8990664Y-10354650D01*
X8990664Y-10354650D02*
X9019235Y-10354650D01*
X9019235Y-10354650D02*
X9038283Y-10364174D01*
X9038283Y-10364174D02*
X9047807Y-10383222D01*
X9047807Y-10383222D02*
X9047807Y-10487984D01*
X9438283Y-10278460D02*
X9266855Y-10535603D01*
X9695426Y-10287984D02*
X9714474Y-10287984D01*
X9714474Y-10287984D02*
X9733521Y-10297508D01*
X9733521Y-10297508D02*
X9743045Y-10307031D01*
X9743045Y-10307031D02*
X9752569Y-10326079D01*
X9752569Y-10326079D02*
X9762093Y-10364174D01*
X9762093Y-10364174D02*
X9762093Y-10411793D01*
X9762093Y-10411793D02*
X9752569Y-10449889D01*
X9752569Y-10449889D02*
X9743045Y-10468936D01*
X9743045Y-10468936D02*
X9733521Y-10478460D01*
X9733521Y-10478460D02*
X9714474Y-10487984D01*
X9714474Y-10487984D02*
X9695426Y-10487984D01*
X9695426Y-10487984D02*
X9676378Y-10478460D01*
X9676378Y-10478460D02*
X9666855Y-10468936D01*
X9666855Y-10468936D02*
X9657331Y-10449889D01*
X9657331Y-10449889D02*
X9647807Y-10411793D01*
X9647807Y-10411793D02*
X9647807Y-10364174D01*
X9647807Y-10364174D02*
X9657331Y-10326079D01*
X9657331Y-10326079D02*
X9666855Y-10307031D01*
X9666855Y-10307031D02*
X9676378Y-10297508D01*
X9676378Y-10297508D02*
X9695426Y-10287984D01*
X9847807Y-10468936D02*
X9857331Y-10478460D01*
X9857331Y-10478460D02*
X9847807Y-10487984D01*
X9847807Y-10487984D02*
X9838283Y-10478460D01*
X9838283Y-10478460D02*
X9847807Y-10468936D01*
X9847807Y-10468936D02*
X9847807Y-10487984D01*
X9981140Y-10287984D02*
X10000188Y-10287984D01*
X10000188Y-10287984D02*
X10019236Y-10297508D01*
X10019236Y-10297508D02*
X10028759Y-10307031D01*
X10028759Y-10307031D02*
X10038283Y-10326079D01*
X10038283Y-10326079D02*
X10047807Y-10364174D01*
X10047807Y-10364174D02*
X10047807Y-10411793D01*
X10047807Y-10411793D02*
X10038283Y-10449889D01*
X10038283Y-10449889D02*
X10028759Y-10468936D01*
X10028759Y-10468936D02*
X10019236Y-10478460D01*
X10019236Y-10478460D02*
X10000188Y-10487984D01*
X10000188Y-10487984D02*
X9981140Y-10487984D01*
X9981140Y-10487984D02*
X9962093Y-10478460D01*
X9962093Y-10478460D02*
X9952569Y-10468936D01*
X9952569Y-10468936D02*
X9943045Y-10449889D01*
X9943045Y-10449889D02*
X9933521Y-10411793D01*
X9933521Y-10411793D02*
X9933521Y-10364174D01*
X9933521Y-10364174D02*
X9943045Y-10326079D01*
X9943045Y-10326079D02*
X9952569Y-10307031D01*
X9952569Y-10307031D02*
X9962093Y-10297508D01*
X9962093Y-10297508D02*
X9981140Y-10287984D01*
X10114474Y-10287984D02*
X10238283Y-10287984D01*
X10238283Y-10287984D02*
X10171616Y-10364174D01*
X10171616Y-10364174D02*
X10200188Y-10364174D01*
X10200188Y-10364174D02*
X10219236Y-10373698D01*
X10219236Y-10373698D02*
X10228759Y-10383222D01*
X10228759Y-10383222D02*
X10238283Y-10402270D01*
X10238283Y-10402270D02*
X10238283Y-10449889D01*
X10238283Y-10449889D02*
X10228759Y-10468936D01*
X10228759Y-10468936D02*
X10219236Y-10478460D01*
X10219236Y-10478460D02*
X10200188Y-10487984D01*
X10200188Y-10487984D02*
X10143045Y-10487984D01*
X10143045Y-10487984D02*
X10123997Y-10478460D01*
X10123997Y-10478460D02*
X10114474Y-10468936D01*
X10333521Y-10487984D02*
X10371616Y-10487984D01*
X10371616Y-10487984D02*
X10390664Y-10478460D01*
X10390664Y-10478460D02*
X10400188Y-10468936D01*
X10400188Y-10468936D02*
X10419236Y-10440365D01*
X10419236Y-10440365D02*
X10428759Y-10402270D01*
X10428759Y-10402270D02*
X10428759Y-10326079D01*
X10428759Y-10326079D02*
X10419236Y-10307031D01*
X10419236Y-10307031D02*
X10409712Y-10297508D01*
X10409712Y-10297508D02*
X10390664Y-10287984D01*
X10390664Y-10287984D02*
X10352569Y-10287984D01*
X10352569Y-10287984D02*
X10333521Y-10297508D01*
X10333521Y-10297508D02*
X10323997Y-10307031D01*
X10323997Y-10307031D02*
X10314474Y-10326079D01*
X10314474Y-10326079D02*
X10314474Y-10373698D01*
X10314474Y-10373698D02*
X10323997Y-10392746D01*
X10323997Y-10392746D02*
X10333521Y-10402270D01*
X10333521Y-10402270D02*
X10352569Y-10411793D01*
X10352569Y-10411793D02*
X10390664Y-10411793D01*
X10390664Y-10411793D02*
X10409712Y-10402270D01*
X10409712Y-10402270D02*
X10419236Y-10392746D01*
X10419236Y-10392746D02*
X10428759Y-10373698D01*
X10600188Y-10354650D02*
X10600188Y-10487984D01*
X10552569Y-10278460D02*
X10504950Y-10421317D01*
X10504950Y-10421317D02*
X10628759Y-10421317D01*
X10695426Y-10287984D02*
X10695426Y-10326079D01*
X10771617Y-10287984D02*
X10771617Y-10326079D01*
X11066855Y-10564174D02*
X11057331Y-10554650D01*
X11057331Y-10554650D02*
X11038283Y-10526079D01*
X11038283Y-10526079D02*
X11028759Y-10507031D01*
X11028759Y-10507031D02*
X11019236Y-10478460D01*
X11019236Y-10478460D02*
X11009712Y-10430841D01*
X11009712Y-10430841D02*
X11009712Y-10392746D01*
X11009712Y-10392746D02*
X11019236Y-10345127D01*
X11019236Y-10345127D02*
X11028759Y-10316555D01*
X11028759Y-10316555D02*
X11038283Y-10297508D01*
X11038283Y-10297508D02*
X11057331Y-10268936D01*
X11057331Y-10268936D02*
X11066855Y-10259412D01*
X11228759Y-10287984D02*
X11190664Y-10287984D01*
X11190664Y-10287984D02*
X11171617Y-10297508D01*
X11171617Y-10297508D02*
X11162093Y-10307031D01*
X11162093Y-10307031D02*
X11143045Y-10335603D01*
X11143045Y-10335603D02*
X11133521Y-10373698D01*
X11133521Y-10373698D02*
X11133521Y-10449889D01*
X11133521Y-10449889D02*
X11143045Y-10468936D01*
X11143045Y-10468936D02*
X11152569Y-10478460D01*
X11152569Y-10478460D02*
X11171617Y-10487984D01*
X11171617Y-10487984D02*
X11209712Y-10487984D01*
X11209712Y-10487984D02*
X11228759Y-10478460D01*
X11228759Y-10478460D02*
X11238283Y-10468936D01*
X11238283Y-10468936D02*
X11247807Y-10449889D01*
X11247807Y-10449889D02*
X11247807Y-10402270D01*
X11247807Y-10402270D02*
X11238283Y-10383222D01*
X11238283Y-10383222D02*
X11228759Y-10373698D01*
X11228759Y-10373698D02*
X11209712Y-10364174D01*
X11209712Y-10364174D02*
X11171617Y-10364174D01*
X11171617Y-10364174D02*
X11152569Y-10373698D01*
X11152569Y-10373698D02*
X11143045Y-10383222D01*
X11143045Y-10383222D02*
X11133521Y-10402270D01*
X11485902Y-10487984D02*
X11485902Y-10287984D01*
X11571617Y-10487984D02*
X11571617Y-10383222D01*
X11571617Y-10383222D02*
X11562093Y-10364174D01*
X11562093Y-10364174D02*
X11543045Y-10354650D01*
X11543045Y-10354650D02*
X11514474Y-10354650D01*
X11514474Y-10354650D02*
X11495426Y-10364174D01*
X11495426Y-10364174D02*
X11485902Y-10373698D01*
X11695426Y-10487984D02*
X11676378Y-10478460D01*
X11676378Y-10478460D02*
X11666855Y-10468936D01*
X11666855Y-10468936D02*
X11657331Y-10449889D01*
X11657331Y-10449889D02*
X11657331Y-10392746D01*
X11657331Y-10392746D02*
X11666855Y-10373698D01*
X11666855Y-10373698D02*
X11676378Y-10364174D01*
X11676378Y-10364174D02*
X11695426Y-10354650D01*
X11695426Y-10354650D02*
X11723998Y-10354650D01*
X11723998Y-10354650D02*
X11743045Y-10364174D01*
X11743045Y-10364174D02*
X11752569Y-10373698D01*
X11752569Y-10373698D02*
X11762093Y-10392746D01*
X11762093Y-10392746D02*
X11762093Y-10449889D01*
X11762093Y-10449889D02*
X11752569Y-10468936D01*
X11752569Y-10468936D02*
X11743045Y-10478460D01*
X11743045Y-10478460D02*
X11723998Y-10487984D01*
X11723998Y-10487984D02*
X11695426Y-10487984D01*
X11876378Y-10487984D02*
X11857331Y-10478460D01*
X11857331Y-10478460D02*
X11847807Y-10459412D01*
X11847807Y-10459412D02*
X11847807Y-10287984D01*
X12028759Y-10478460D02*
X12009712Y-10487984D01*
X12009712Y-10487984D02*
X11971617Y-10487984D01*
X11971617Y-10487984D02*
X11952569Y-10478460D01*
X11952569Y-10478460D02*
X11943045Y-10459412D01*
X11943045Y-10459412D02*
X11943045Y-10383222D01*
X11943045Y-10383222D02*
X11952569Y-10364174D01*
X11952569Y-10364174D02*
X11971617Y-10354650D01*
X11971617Y-10354650D02*
X12009712Y-10354650D01*
X12009712Y-10354650D02*
X12028759Y-10364174D01*
X12028759Y-10364174D02*
X12038283Y-10383222D01*
X12038283Y-10383222D02*
X12038283Y-10402270D01*
X12038283Y-10402270D02*
X11943045Y-10421317D01*
X12114474Y-10478460D02*
X12133521Y-10487984D01*
X12133521Y-10487984D02*
X12171617Y-10487984D01*
X12171617Y-10487984D02*
X12190664Y-10478460D01*
X12190664Y-10478460D02*
X12200188Y-10459412D01*
X12200188Y-10459412D02*
X12200188Y-10449889D01*
X12200188Y-10449889D02*
X12190664Y-10430841D01*
X12190664Y-10430841D02*
X12171617Y-10421317D01*
X12171617Y-10421317D02*
X12143045Y-10421317D01*
X12143045Y-10421317D02*
X12123998Y-10411793D01*
X12123998Y-10411793D02*
X12114474Y-10392746D01*
X12114474Y-10392746D02*
X12114474Y-10383222D01*
X12114474Y-10383222D02*
X12123998Y-10364174D01*
X12123998Y-10364174D02*
X12143045Y-10354650D01*
X12143045Y-10354650D02*
X12171617Y-10354650D01*
X12171617Y-10354650D02*
X12190664Y-10364174D01*
X12266855Y-10564174D02*
X12276379Y-10554650D01*
X12276379Y-10554650D02*
X12295426Y-10526079D01*
X12295426Y-10526079D02*
X12304950Y-10507031D01*
X12304950Y-10507031D02*
X12314474Y-10478460D01*
X12314474Y-10478460D02*
X12323998Y-10430841D01*
X12323998Y-10430841D02*
X12323998Y-10392746D01*
X12323998Y-10392746D02*
X12314474Y-10345127D01*
X12314474Y-10345127D02*
X12304950Y-10316555D01*
X12304950Y-10316555D02*
X12295426Y-10297508D01*
X12295426Y-10297508D02*
X12276379Y-10268936D01*
X12276379Y-10268936D02*
X12266855Y-10259412D01*
D13*
X7396792Y-10565500D02*
X7396792Y-10755500D01*
X7301792Y-10660500D02*
X7491792Y-10660500D01*
D11*
X7857330Y-10751984D02*
X7743045Y-10751984D01*
X7800188Y-10751984D02*
X7800188Y-10551984D01*
X7800188Y-10551984D02*
X7781140Y-10580555D01*
X7781140Y-10580555D02*
X7762092Y-10599603D01*
X7762092Y-10599603D02*
X7743045Y-10609127D01*
X7943045Y-10732936D02*
X7952569Y-10742460D01*
X7952569Y-10742460D02*
X7943045Y-10751984D01*
X7943045Y-10751984D02*
X7933521Y-10742460D01*
X7933521Y-10742460D02*
X7943045Y-10732936D01*
X7943045Y-10732936D02*
X7943045Y-10751984D01*
X8047807Y-10751984D02*
X8085902Y-10751984D01*
X8085902Y-10751984D02*
X8104950Y-10742460D01*
X8104950Y-10742460D02*
X8114473Y-10732936D01*
X8114473Y-10732936D02*
X8133521Y-10704365D01*
X8133521Y-10704365D02*
X8143045Y-10666270D01*
X8143045Y-10666270D02*
X8143045Y-10590079D01*
X8143045Y-10590079D02*
X8133521Y-10571031D01*
X8133521Y-10571031D02*
X8123997Y-10561508D01*
X8123997Y-10561508D02*
X8104950Y-10551984D01*
X8104950Y-10551984D02*
X8066854Y-10551984D01*
X8066854Y-10551984D02*
X8047807Y-10561508D01*
X8047807Y-10561508D02*
X8038283Y-10571031D01*
X8038283Y-10571031D02*
X8028759Y-10590079D01*
X8028759Y-10590079D02*
X8028759Y-10637698D01*
X8028759Y-10637698D02*
X8038283Y-10656746D01*
X8038283Y-10656746D02*
X8047807Y-10666270D01*
X8047807Y-10666270D02*
X8066854Y-10675793D01*
X8066854Y-10675793D02*
X8104950Y-10675793D01*
X8104950Y-10675793D02*
X8123997Y-10666270D01*
X8123997Y-10666270D02*
X8133521Y-10656746D01*
X8133521Y-10656746D02*
X8143045Y-10637698D01*
X8266854Y-10551984D02*
X8285902Y-10551984D01*
X8285902Y-10551984D02*
X8304950Y-10561508D01*
X8304950Y-10561508D02*
X8314473Y-10571031D01*
X8314473Y-10571031D02*
X8323997Y-10590079D01*
X8323997Y-10590079D02*
X8333521Y-10628174D01*
X8333521Y-10628174D02*
X8333521Y-10675793D01*
X8333521Y-10675793D02*
X8323997Y-10713889D01*
X8323997Y-10713889D02*
X8314473Y-10732936D01*
X8314473Y-10732936D02*
X8304950Y-10742460D01*
X8304950Y-10742460D02*
X8285902Y-10751984D01*
X8285902Y-10751984D02*
X8266854Y-10751984D01*
X8266854Y-10751984D02*
X8247807Y-10742460D01*
X8247807Y-10742460D02*
X8238283Y-10732936D01*
X8238283Y-10732936D02*
X8228759Y-10713889D01*
X8228759Y-10713889D02*
X8219235Y-10675793D01*
X8219235Y-10675793D02*
X8219235Y-10628174D01*
X8219235Y-10628174D02*
X8228759Y-10590079D01*
X8228759Y-10590079D02*
X8238283Y-10571031D01*
X8238283Y-10571031D02*
X8247807Y-10561508D01*
X8247807Y-10561508D02*
X8266854Y-10551984D01*
X8457331Y-10551984D02*
X8476378Y-10551984D01*
X8476378Y-10551984D02*
X8495426Y-10561508D01*
X8495426Y-10561508D02*
X8504950Y-10571031D01*
X8504950Y-10571031D02*
X8514473Y-10590079D01*
X8514473Y-10590079D02*
X8523997Y-10628174D01*
X8523997Y-10628174D02*
X8523997Y-10675793D01*
X8523997Y-10675793D02*
X8514473Y-10713889D01*
X8514473Y-10713889D02*
X8504950Y-10732936D01*
X8504950Y-10732936D02*
X8495426Y-10742460D01*
X8495426Y-10742460D02*
X8476378Y-10751984D01*
X8476378Y-10751984D02*
X8457331Y-10751984D01*
X8457331Y-10751984D02*
X8438283Y-10742460D01*
X8438283Y-10742460D02*
X8428759Y-10732936D01*
X8428759Y-10732936D02*
X8419235Y-10713889D01*
X8419235Y-10713889D02*
X8409712Y-10675793D01*
X8409712Y-10675793D02*
X8409712Y-10628174D01*
X8409712Y-10628174D02*
X8419235Y-10590079D01*
X8419235Y-10590079D02*
X8428759Y-10571031D01*
X8428759Y-10571031D02*
X8438283Y-10561508D01*
X8438283Y-10561508D02*
X8457331Y-10551984D01*
X8609712Y-10751984D02*
X8609712Y-10618650D01*
X8609712Y-10637698D02*
X8619235Y-10628174D01*
X8619235Y-10628174D02*
X8638283Y-10618650D01*
X8638283Y-10618650D02*
X8666854Y-10618650D01*
X8666854Y-10618650D02*
X8685902Y-10628174D01*
X8685902Y-10628174D02*
X8695426Y-10647222D01*
X8695426Y-10647222D02*
X8695426Y-10751984D01*
X8695426Y-10647222D02*
X8704950Y-10628174D01*
X8704950Y-10628174D02*
X8723997Y-10618650D01*
X8723997Y-10618650D02*
X8752569Y-10618650D01*
X8752569Y-10618650D02*
X8771616Y-10628174D01*
X8771616Y-10628174D02*
X8781140Y-10647222D01*
X8781140Y-10647222D02*
X8781140Y-10751984D01*
X8876378Y-10751984D02*
X8876378Y-10618650D01*
X8876378Y-10637698D02*
X8885902Y-10628174D01*
X8885902Y-10628174D02*
X8904950Y-10618650D01*
X8904950Y-10618650D02*
X8933521Y-10618650D01*
X8933521Y-10618650D02*
X8952569Y-10628174D01*
X8952569Y-10628174D02*
X8962093Y-10647222D01*
X8962093Y-10647222D02*
X8962093Y-10751984D01*
X8962093Y-10647222D02*
X8971616Y-10628174D01*
X8971616Y-10628174D02*
X8990664Y-10618650D01*
X8990664Y-10618650D02*
X9019235Y-10618650D01*
X9019235Y-10618650D02*
X9038283Y-10628174D01*
X9038283Y-10628174D02*
X9047807Y-10647222D01*
X9047807Y-10647222D02*
X9047807Y-10751984D01*
X9438283Y-10542460D02*
X9266855Y-10799603D01*
X9695426Y-10551984D02*
X9714474Y-10551984D01*
X9714474Y-10551984D02*
X9733521Y-10561508D01*
X9733521Y-10561508D02*
X9743045Y-10571031D01*
X9743045Y-10571031D02*
X9752569Y-10590079D01*
X9752569Y-10590079D02*
X9762093Y-10628174D01*
X9762093Y-10628174D02*
X9762093Y-10675793D01*
X9762093Y-10675793D02*
X9752569Y-10713889D01*
X9752569Y-10713889D02*
X9743045Y-10732936D01*
X9743045Y-10732936D02*
X9733521Y-10742460D01*
X9733521Y-10742460D02*
X9714474Y-10751984D01*
X9714474Y-10751984D02*
X9695426Y-10751984D01*
X9695426Y-10751984D02*
X9676378Y-10742460D01*
X9676378Y-10742460D02*
X9666855Y-10732936D01*
X9666855Y-10732936D02*
X9657331Y-10713889D01*
X9657331Y-10713889D02*
X9647807Y-10675793D01*
X9647807Y-10675793D02*
X9647807Y-10628174D01*
X9647807Y-10628174D02*
X9657331Y-10590079D01*
X9657331Y-10590079D02*
X9666855Y-10571031D01*
X9666855Y-10571031D02*
X9676378Y-10561508D01*
X9676378Y-10561508D02*
X9695426Y-10551984D01*
X9847807Y-10732936D02*
X9857331Y-10742460D01*
X9857331Y-10742460D02*
X9847807Y-10751984D01*
X9847807Y-10751984D02*
X9838283Y-10742460D01*
X9838283Y-10742460D02*
X9847807Y-10732936D01*
X9847807Y-10732936D02*
X9847807Y-10751984D01*
X9981140Y-10551984D02*
X10000188Y-10551984D01*
X10000188Y-10551984D02*
X10019236Y-10561508D01*
X10019236Y-10561508D02*
X10028759Y-10571031D01*
X10028759Y-10571031D02*
X10038283Y-10590079D01*
X10038283Y-10590079D02*
X10047807Y-10628174D01*
X10047807Y-10628174D02*
X10047807Y-10675793D01*
X10047807Y-10675793D02*
X10038283Y-10713889D01*
X10038283Y-10713889D02*
X10028759Y-10732936D01*
X10028759Y-10732936D02*
X10019236Y-10742460D01*
X10019236Y-10742460D02*
X10000188Y-10751984D01*
X10000188Y-10751984D02*
X9981140Y-10751984D01*
X9981140Y-10751984D02*
X9962093Y-10742460D01*
X9962093Y-10742460D02*
X9952569Y-10732936D01*
X9952569Y-10732936D02*
X9943045Y-10713889D01*
X9943045Y-10713889D02*
X9933521Y-10675793D01*
X9933521Y-10675793D02*
X9933521Y-10628174D01*
X9933521Y-10628174D02*
X9943045Y-10590079D01*
X9943045Y-10590079D02*
X9952569Y-10571031D01*
X9952569Y-10571031D02*
X9962093Y-10561508D01*
X9962093Y-10561508D02*
X9981140Y-10551984D01*
X10114474Y-10551984D02*
X10247807Y-10551984D01*
X10247807Y-10551984D02*
X10162093Y-10751984D01*
X10409712Y-10618650D02*
X10409712Y-10751984D01*
X10362093Y-10542460D02*
X10314474Y-10685317D01*
X10314474Y-10685317D02*
X10438283Y-10685317D01*
X10543045Y-10637698D02*
X10523997Y-10628174D01*
X10523997Y-10628174D02*
X10514474Y-10618650D01*
X10514474Y-10618650D02*
X10504950Y-10599603D01*
X10504950Y-10599603D02*
X10504950Y-10590079D01*
X10504950Y-10590079D02*
X10514474Y-10571031D01*
X10514474Y-10571031D02*
X10523997Y-10561508D01*
X10523997Y-10561508D02*
X10543045Y-10551984D01*
X10543045Y-10551984D02*
X10581140Y-10551984D01*
X10581140Y-10551984D02*
X10600188Y-10561508D01*
X10600188Y-10561508D02*
X10609712Y-10571031D01*
X10609712Y-10571031D02*
X10619236Y-10590079D01*
X10619236Y-10590079D02*
X10619236Y-10599603D01*
X10619236Y-10599603D02*
X10609712Y-10618650D01*
X10609712Y-10618650D02*
X10600188Y-10628174D01*
X10600188Y-10628174D02*
X10581140Y-10637698D01*
X10581140Y-10637698D02*
X10543045Y-10637698D01*
X10543045Y-10637698D02*
X10523997Y-10647222D01*
X10523997Y-10647222D02*
X10514474Y-10656746D01*
X10514474Y-10656746D02*
X10504950Y-10675793D01*
X10504950Y-10675793D02*
X10504950Y-10713889D01*
X10504950Y-10713889D02*
X10514474Y-10732936D01*
X10514474Y-10732936D02*
X10523997Y-10742460D01*
X10523997Y-10742460D02*
X10543045Y-10751984D01*
X10543045Y-10751984D02*
X10581140Y-10751984D01*
X10581140Y-10751984D02*
X10600188Y-10742460D01*
X10600188Y-10742460D02*
X10609712Y-10732936D01*
X10609712Y-10732936D02*
X10619236Y-10713889D01*
X10619236Y-10713889D02*
X10619236Y-10675793D01*
X10619236Y-10675793D02*
X10609712Y-10656746D01*
X10609712Y-10656746D02*
X10600188Y-10647222D01*
X10600188Y-10647222D02*
X10581140Y-10637698D01*
X10695426Y-10551984D02*
X10695426Y-10590079D01*
X10771617Y-10551984D02*
X10771617Y-10590079D01*
X11066855Y-10828174D02*
X11057331Y-10818650D01*
X11057331Y-10818650D02*
X11038283Y-10790079D01*
X11038283Y-10790079D02*
X11028759Y-10771031D01*
X11028759Y-10771031D02*
X11019236Y-10742460D01*
X11019236Y-10742460D02*
X11009712Y-10694841D01*
X11009712Y-10694841D02*
X11009712Y-10656746D01*
X11009712Y-10656746D02*
X11019236Y-10609127D01*
X11019236Y-10609127D02*
X11028759Y-10580555D01*
X11028759Y-10580555D02*
X11038283Y-10561508D01*
X11038283Y-10561508D02*
X11057331Y-10532936D01*
X11057331Y-10532936D02*
X11066855Y-10523412D01*
X11133521Y-10571031D02*
X11143045Y-10561508D01*
X11143045Y-10561508D02*
X11162093Y-10551984D01*
X11162093Y-10551984D02*
X11209712Y-10551984D01*
X11209712Y-10551984D02*
X11228759Y-10561508D01*
X11228759Y-10561508D02*
X11238283Y-10571031D01*
X11238283Y-10571031D02*
X11247807Y-10590079D01*
X11247807Y-10590079D02*
X11247807Y-10609127D01*
X11247807Y-10609127D02*
X11238283Y-10637698D01*
X11238283Y-10637698D02*
X11123998Y-10751984D01*
X11123998Y-10751984D02*
X11247807Y-10751984D01*
X11485902Y-10751984D02*
X11485902Y-10551984D01*
X11571617Y-10751984D02*
X11571617Y-10647222D01*
X11571617Y-10647222D02*
X11562093Y-10628174D01*
X11562093Y-10628174D02*
X11543045Y-10618650D01*
X11543045Y-10618650D02*
X11514474Y-10618650D01*
X11514474Y-10618650D02*
X11495426Y-10628174D01*
X11495426Y-10628174D02*
X11485902Y-10637698D01*
X11695426Y-10751984D02*
X11676378Y-10742460D01*
X11676378Y-10742460D02*
X11666855Y-10732936D01*
X11666855Y-10732936D02*
X11657331Y-10713889D01*
X11657331Y-10713889D02*
X11657331Y-10656746D01*
X11657331Y-10656746D02*
X11666855Y-10637698D01*
X11666855Y-10637698D02*
X11676378Y-10628174D01*
X11676378Y-10628174D02*
X11695426Y-10618650D01*
X11695426Y-10618650D02*
X11723998Y-10618650D01*
X11723998Y-10618650D02*
X11743045Y-10628174D01*
X11743045Y-10628174D02*
X11752569Y-10637698D01*
X11752569Y-10637698D02*
X11762093Y-10656746D01*
X11762093Y-10656746D02*
X11762093Y-10713889D01*
X11762093Y-10713889D02*
X11752569Y-10732936D01*
X11752569Y-10732936D02*
X11743045Y-10742460D01*
X11743045Y-10742460D02*
X11723998Y-10751984D01*
X11723998Y-10751984D02*
X11695426Y-10751984D01*
X11876378Y-10751984D02*
X11857331Y-10742460D01*
X11857331Y-10742460D02*
X11847807Y-10723412D01*
X11847807Y-10723412D02*
X11847807Y-10551984D01*
X12028759Y-10742460D02*
X12009712Y-10751984D01*
X12009712Y-10751984D02*
X11971617Y-10751984D01*
X11971617Y-10751984D02*
X11952569Y-10742460D01*
X11952569Y-10742460D02*
X11943045Y-10723412D01*
X11943045Y-10723412D02*
X11943045Y-10647222D01*
X11943045Y-10647222D02*
X11952569Y-10628174D01*
X11952569Y-10628174D02*
X11971617Y-10618650D01*
X11971617Y-10618650D02*
X12009712Y-10618650D01*
X12009712Y-10618650D02*
X12028759Y-10628174D01*
X12028759Y-10628174D02*
X12038283Y-10647222D01*
X12038283Y-10647222D02*
X12038283Y-10666270D01*
X12038283Y-10666270D02*
X11943045Y-10685317D01*
X12114474Y-10742460D02*
X12133521Y-10751984D01*
X12133521Y-10751984D02*
X12171617Y-10751984D01*
X12171617Y-10751984D02*
X12190664Y-10742460D01*
X12190664Y-10742460D02*
X12200188Y-10723412D01*
X12200188Y-10723412D02*
X12200188Y-10713889D01*
X12200188Y-10713889D02*
X12190664Y-10694841D01*
X12190664Y-10694841D02*
X12171617Y-10685317D01*
X12171617Y-10685317D02*
X12143045Y-10685317D01*
X12143045Y-10685317D02*
X12123998Y-10675793D01*
X12123998Y-10675793D02*
X12114474Y-10656746D01*
X12114474Y-10656746D02*
X12114474Y-10647222D01*
X12114474Y-10647222D02*
X12123998Y-10628174D01*
X12123998Y-10628174D02*
X12143045Y-10618650D01*
X12143045Y-10618650D02*
X12171617Y-10618650D01*
X12171617Y-10618650D02*
X12190664Y-10628174D01*
X12266855Y-10828174D02*
X12276379Y-10818650D01*
X12276379Y-10818650D02*
X12295426Y-10790079D01*
X12295426Y-10790079D02*
X12304950Y-10771031D01*
X12304950Y-10771031D02*
X12314474Y-10742460D01*
X12314474Y-10742460D02*
X12323998Y-10694841D01*
X12323998Y-10694841D02*
X12323998Y-10656746D01*
X12323998Y-10656746D02*
X12314474Y-10609127D01*
X12314474Y-10609127D02*
X12304950Y-10580555D01*
X12304950Y-10580555D02*
X12295426Y-10561508D01*
X12295426Y-10561508D02*
X12276379Y-10532936D01*
X12276379Y-10532936D02*
X12266855Y-10523412D01*
X7462503Y-11041211D02*
X7462503Y-10899789D01*
X7321080Y-10899789D01*
X7321080Y-11041211D01*
X7462503Y-11041211D01*
X7743045Y-10881031D02*
X7752569Y-10871508D01*
X7752569Y-10871508D02*
X7771616Y-10861984D01*
X7771616Y-10861984D02*
X7819235Y-10861984D01*
X7819235Y-10861984D02*
X7838283Y-10871508D01*
X7838283Y-10871508D02*
X7847807Y-10881031D01*
X7847807Y-10881031D02*
X7857330Y-10900079D01*
X7857330Y-10900079D02*
X7857330Y-10919127D01*
X7857330Y-10919127D02*
X7847807Y-10947698D01*
X7847807Y-10947698D02*
X7733521Y-11061984D01*
X7733521Y-11061984D02*
X7857330Y-11061984D01*
X7943045Y-11042936D02*
X7952569Y-11052460D01*
X7952569Y-11052460D02*
X7943045Y-11061984D01*
X7943045Y-11061984D02*
X7933521Y-11052460D01*
X7933521Y-11052460D02*
X7943045Y-11042936D01*
X7943045Y-11042936D02*
X7943045Y-11061984D01*
X8133521Y-10861984D02*
X8038283Y-10861984D01*
X8038283Y-10861984D02*
X8028759Y-10957222D01*
X8028759Y-10957222D02*
X8038283Y-10947698D01*
X8038283Y-10947698D02*
X8057330Y-10938174D01*
X8057330Y-10938174D02*
X8104950Y-10938174D01*
X8104950Y-10938174D02*
X8123997Y-10947698D01*
X8123997Y-10947698D02*
X8133521Y-10957222D01*
X8133521Y-10957222D02*
X8143045Y-10976270D01*
X8143045Y-10976270D02*
X8143045Y-11023889D01*
X8143045Y-11023889D02*
X8133521Y-11042936D01*
X8133521Y-11042936D02*
X8123997Y-11052460D01*
X8123997Y-11052460D02*
X8104950Y-11061984D01*
X8104950Y-11061984D02*
X8057330Y-11061984D01*
X8057330Y-11061984D02*
X8038283Y-11052460D01*
X8038283Y-11052460D02*
X8028759Y-11042936D01*
X8266854Y-10861984D02*
X8285902Y-10861984D01*
X8285902Y-10861984D02*
X8304950Y-10871508D01*
X8304950Y-10871508D02*
X8314473Y-10881031D01*
X8314473Y-10881031D02*
X8323997Y-10900079D01*
X8323997Y-10900079D02*
X8333521Y-10938174D01*
X8333521Y-10938174D02*
X8333521Y-10985793D01*
X8333521Y-10985793D02*
X8323997Y-11023889D01*
X8323997Y-11023889D02*
X8314473Y-11042936D01*
X8314473Y-11042936D02*
X8304950Y-11052460D01*
X8304950Y-11052460D02*
X8285902Y-11061984D01*
X8285902Y-11061984D02*
X8266854Y-11061984D01*
X8266854Y-11061984D02*
X8247807Y-11052460D01*
X8247807Y-11052460D02*
X8238283Y-11042936D01*
X8238283Y-11042936D02*
X8228759Y-11023889D01*
X8228759Y-11023889D02*
X8219235Y-10985793D01*
X8219235Y-10985793D02*
X8219235Y-10938174D01*
X8219235Y-10938174D02*
X8228759Y-10900079D01*
X8228759Y-10900079D02*
X8238283Y-10881031D01*
X8238283Y-10881031D02*
X8247807Y-10871508D01*
X8247807Y-10871508D02*
X8266854Y-10861984D01*
X8457331Y-10861984D02*
X8476378Y-10861984D01*
X8476378Y-10861984D02*
X8495426Y-10871508D01*
X8495426Y-10871508D02*
X8504950Y-10881031D01*
X8504950Y-10881031D02*
X8514473Y-10900079D01*
X8514473Y-10900079D02*
X8523997Y-10938174D01*
X8523997Y-10938174D02*
X8523997Y-10985793D01*
X8523997Y-10985793D02*
X8514473Y-11023889D01*
X8514473Y-11023889D02*
X8504950Y-11042936D01*
X8504950Y-11042936D02*
X8495426Y-11052460D01*
X8495426Y-11052460D02*
X8476378Y-11061984D01*
X8476378Y-11061984D02*
X8457331Y-11061984D01*
X8457331Y-11061984D02*
X8438283Y-11052460D01*
X8438283Y-11052460D02*
X8428759Y-11042936D01*
X8428759Y-11042936D02*
X8419235Y-11023889D01*
X8419235Y-11023889D02*
X8409712Y-10985793D01*
X8409712Y-10985793D02*
X8409712Y-10938174D01*
X8409712Y-10938174D02*
X8419235Y-10900079D01*
X8419235Y-10900079D02*
X8428759Y-10881031D01*
X8428759Y-10881031D02*
X8438283Y-10871508D01*
X8438283Y-10871508D02*
X8457331Y-10861984D01*
X8609712Y-11061984D02*
X8609712Y-10928650D01*
X8609712Y-10947698D02*
X8619235Y-10938174D01*
X8619235Y-10938174D02*
X8638283Y-10928650D01*
X8638283Y-10928650D02*
X8666854Y-10928650D01*
X8666854Y-10928650D02*
X8685902Y-10938174D01*
X8685902Y-10938174D02*
X8695426Y-10957222D01*
X8695426Y-10957222D02*
X8695426Y-11061984D01*
X8695426Y-10957222D02*
X8704950Y-10938174D01*
X8704950Y-10938174D02*
X8723997Y-10928650D01*
X8723997Y-10928650D02*
X8752569Y-10928650D01*
X8752569Y-10928650D02*
X8771616Y-10938174D01*
X8771616Y-10938174D02*
X8781140Y-10957222D01*
X8781140Y-10957222D02*
X8781140Y-11061984D01*
X8876378Y-11061984D02*
X8876378Y-10928650D01*
X8876378Y-10947698D02*
X8885902Y-10938174D01*
X8885902Y-10938174D02*
X8904950Y-10928650D01*
X8904950Y-10928650D02*
X8933521Y-10928650D01*
X8933521Y-10928650D02*
X8952569Y-10938174D01*
X8952569Y-10938174D02*
X8962093Y-10957222D01*
X8962093Y-10957222D02*
X8962093Y-11061984D01*
X8962093Y-10957222D02*
X8971616Y-10938174D01*
X8971616Y-10938174D02*
X8990664Y-10928650D01*
X8990664Y-10928650D02*
X9019235Y-10928650D01*
X9019235Y-10928650D02*
X9038283Y-10938174D01*
X9038283Y-10938174D02*
X9047807Y-10957222D01*
X9047807Y-10957222D02*
X9047807Y-11061984D01*
X9438283Y-10852460D02*
X9266855Y-11109603D01*
X9695426Y-10861984D02*
X9714474Y-10861984D01*
X9714474Y-10861984D02*
X9733521Y-10871508D01*
X9733521Y-10871508D02*
X9743045Y-10881031D01*
X9743045Y-10881031D02*
X9752569Y-10900079D01*
X9752569Y-10900079D02*
X9762093Y-10938174D01*
X9762093Y-10938174D02*
X9762093Y-10985793D01*
X9762093Y-10985793D02*
X9752569Y-11023889D01*
X9752569Y-11023889D02*
X9743045Y-11042936D01*
X9743045Y-11042936D02*
X9733521Y-11052460D01*
X9733521Y-11052460D02*
X9714474Y-11061984D01*
X9714474Y-11061984D02*
X9695426Y-11061984D01*
X9695426Y-11061984D02*
X9676378Y-11052460D01*
X9676378Y-11052460D02*
X9666855Y-11042936D01*
X9666855Y-11042936D02*
X9657331Y-11023889D01*
X9657331Y-11023889D02*
X9647807Y-10985793D01*
X9647807Y-10985793D02*
X9647807Y-10938174D01*
X9647807Y-10938174D02*
X9657331Y-10900079D01*
X9657331Y-10900079D02*
X9666855Y-10881031D01*
X9666855Y-10881031D02*
X9676378Y-10871508D01*
X9676378Y-10871508D02*
X9695426Y-10861984D01*
X9847807Y-11042936D02*
X9857331Y-11052460D01*
X9857331Y-11052460D02*
X9847807Y-11061984D01*
X9847807Y-11061984D02*
X9838283Y-11052460D01*
X9838283Y-11052460D02*
X9847807Y-11042936D01*
X9847807Y-11042936D02*
X9847807Y-11061984D01*
X9981140Y-10861984D02*
X10000188Y-10861984D01*
X10000188Y-10861984D02*
X10019236Y-10871508D01*
X10019236Y-10871508D02*
X10028759Y-10881031D01*
X10028759Y-10881031D02*
X10038283Y-10900079D01*
X10038283Y-10900079D02*
X10047807Y-10938174D01*
X10047807Y-10938174D02*
X10047807Y-10985793D01*
X10047807Y-10985793D02*
X10038283Y-11023889D01*
X10038283Y-11023889D02*
X10028759Y-11042936D01*
X10028759Y-11042936D02*
X10019236Y-11052460D01*
X10019236Y-11052460D02*
X10000188Y-11061984D01*
X10000188Y-11061984D02*
X9981140Y-11061984D01*
X9981140Y-11061984D02*
X9962093Y-11052460D01*
X9962093Y-11052460D02*
X9952569Y-11042936D01*
X9952569Y-11042936D02*
X9943045Y-11023889D01*
X9943045Y-11023889D02*
X9933521Y-10985793D01*
X9933521Y-10985793D02*
X9933521Y-10938174D01*
X9933521Y-10938174D02*
X9943045Y-10900079D01*
X9943045Y-10900079D02*
X9952569Y-10881031D01*
X9952569Y-10881031D02*
X9962093Y-10871508D01*
X9962093Y-10871508D02*
X9981140Y-10861984D01*
X10143045Y-11061984D02*
X10181140Y-11061984D01*
X10181140Y-11061984D02*
X10200188Y-11052460D01*
X10200188Y-11052460D02*
X10209712Y-11042936D01*
X10209712Y-11042936D02*
X10228759Y-11014365D01*
X10228759Y-11014365D02*
X10238283Y-10976270D01*
X10238283Y-10976270D02*
X10238283Y-10900079D01*
X10238283Y-10900079D02*
X10228759Y-10881031D01*
X10228759Y-10881031D02*
X10219236Y-10871508D01*
X10219236Y-10871508D02*
X10200188Y-10861984D01*
X10200188Y-10861984D02*
X10162093Y-10861984D01*
X10162093Y-10861984D02*
X10143045Y-10871508D01*
X10143045Y-10871508D02*
X10133521Y-10881031D01*
X10133521Y-10881031D02*
X10123997Y-10900079D01*
X10123997Y-10900079D02*
X10123997Y-10947698D01*
X10123997Y-10947698D02*
X10133521Y-10966746D01*
X10133521Y-10966746D02*
X10143045Y-10976270D01*
X10143045Y-10976270D02*
X10162093Y-10985793D01*
X10162093Y-10985793D02*
X10200188Y-10985793D01*
X10200188Y-10985793D02*
X10219236Y-10976270D01*
X10219236Y-10976270D02*
X10228759Y-10966746D01*
X10228759Y-10966746D02*
X10238283Y-10947698D01*
X10352569Y-10947698D02*
X10333521Y-10938174D01*
X10333521Y-10938174D02*
X10323997Y-10928650D01*
X10323997Y-10928650D02*
X10314474Y-10909603D01*
X10314474Y-10909603D02*
X10314474Y-10900079D01*
X10314474Y-10900079D02*
X10323997Y-10881031D01*
X10323997Y-10881031D02*
X10333521Y-10871508D01*
X10333521Y-10871508D02*
X10352569Y-10861984D01*
X10352569Y-10861984D02*
X10390664Y-10861984D01*
X10390664Y-10861984D02*
X10409712Y-10871508D01*
X10409712Y-10871508D02*
X10419236Y-10881031D01*
X10419236Y-10881031D02*
X10428759Y-10900079D01*
X10428759Y-10900079D02*
X10428759Y-10909603D01*
X10428759Y-10909603D02*
X10419236Y-10928650D01*
X10419236Y-10928650D02*
X10409712Y-10938174D01*
X10409712Y-10938174D02*
X10390664Y-10947698D01*
X10390664Y-10947698D02*
X10352569Y-10947698D01*
X10352569Y-10947698D02*
X10333521Y-10957222D01*
X10333521Y-10957222D02*
X10323997Y-10966746D01*
X10323997Y-10966746D02*
X10314474Y-10985793D01*
X10314474Y-10985793D02*
X10314474Y-11023889D01*
X10314474Y-11023889D02*
X10323997Y-11042936D01*
X10323997Y-11042936D02*
X10333521Y-11052460D01*
X10333521Y-11052460D02*
X10352569Y-11061984D01*
X10352569Y-11061984D02*
X10390664Y-11061984D01*
X10390664Y-11061984D02*
X10409712Y-11052460D01*
X10409712Y-11052460D02*
X10419236Y-11042936D01*
X10419236Y-11042936D02*
X10428759Y-11023889D01*
X10428759Y-11023889D02*
X10428759Y-10985793D01*
X10428759Y-10985793D02*
X10419236Y-10966746D01*
X10419236Y-10966746D02*
X10409712Y-10957222D01*
X10409712Y-10957222D02*
X10390664Y-10947698D01*
X10600188Y-10928650D02*
X10600188Y-11061984D01*
X10552569Y-10852460D02*
X10504950Y-10995317D01*
X10504950Y-10995317D02*
X10628759Y-10995317D01*
X10695426Y-10861984D02*
X10695426Y-10900079D01*
X10771617Y-10861984D02*
X10771617Y-10900079D01*
X11066855Y-11138174D02*
X11057331Y-11128650D01*
X11057331Y-11128650D02*
X11038283Y-11100079D01*
X11038283Y-11100079D02*
X11028759Y-11081031D01*
X11028759Y-11081031D02*
X11019236Y-11052460D01*
X11019236Y-11052460D02*
X11009712Y-11004841D01*
X11009712Y-11004841D02*
X11009712Y-10966746D01*
X11009712Y-10966746D02*
X11019236Y-10919127D01*
X11019236Y-10919127D02*
X11028759Y-10890555D01*
X11028759Y-10890555D02*
X11038283Y-10871508D01*
X11038283Y-10871508D02*
X11057331Y-10842936D01*
X11057331Y-10842936D02*
X11066855Y-10833412D01*
X11247807Y-11061984D02*
X11133521Y-11061984D01*
X11190664Y-11061984D02*
X11190664Y-10861984D01*
X11190664Y-10861984D02*
X11171617Y-10890555D01*
X11171617Y-10890555D02*
X11152569Y-10909603D01*
X11152569Y-10909603D02*
X11133521Y-10919127D01*
X11485902Y-11061984D02*
X11485902Y-10861984D01*
X11571617Y-11061984D02*
X11571617Y-10957222D01*
X11571617Y-10957222D02*
X11562093Y-10938174D01*
X11562093Y-10938174D02*
X11543045Y-10928650D01*
X11543045Y-10928650D02*
X11514474Y-10928650D01*
X11514474Y-10928650D02*
X11495426Y-10938174D01*
X11495426Y-10938174D02*
X11485902Y-10947698D01*
X11695426Y-11061984D02*
X11676378Y-11052460D01*
X11676378Y-11052460D02*
X11666855Y-11042936D01*
X11666855Y-11042936D02*
X11657331Y-11023889D01*
X11657331Y-11023889D02*
X11657331Y-10966746D01*
X11657331Y-10966746D02*
X11666855Y-10947698D01*
X11666855Y-10947698D02*
X11676378Y-10938174D01*
X11676378Y-10938174D02*
X11695426Y-10928650D01*
X11695426Y-10928650D02*
X11723998Y-10928650D01*
X11723998Y-10928650D02*
X11743045Y-10938174D01*
X11743045Y-10938174D02*
X11752569Y-10947698D01*
X11752569Y-10947698D02*
X11762093Y-10966746D01*
X11762093Y-10966746D02*
X11762093Y-11023889D01*
X11762093Y-11023889D02*
X11752569Y-11042936D01*
X11752569Y-11042936D02*
X11743045Y-11052460D01*
X11743045Y-11052460D02*
X11723998Y-11061984D01*
X11723998Y-11061984D02*
X11695426Y-11061984D01*
X11876378Y-11061984D02*
X11857331Y-11052460D01*
X11857331Y-11052460D02*
X11847807Y-11033412D01*
X11847807Y-11033412D02*
X11847807Y-10861984D01*
X12028759Y-11052460D02*
X12009712Y-11061984D01*
X12009712Y-11061984D02*
X11971617Y-11061984D01*
X11971617Y-11061984D02*
X11952569Y-11052460D01*
X11952569Y-11052460D02*
X11943045Y-11033412D01*
X11943045Y-11033412D02*
X11943045Y-10957222D01*
X11943045Y-10957222D02*
X11952569Y-10938174D01*
X11952569Y-10938174D02*
X11971617Y-10928650D01*
X11971617Y-10928650D02*
X12009712Y-10928650D01*
X12009712Y-10928650D02*
X12028759Y-10938174D01*
X12028759Y-10938174D02*
X12038283Y-10957222D01*
X12038283Y-10957222D02*
X12038283Y-10976270D01*
X12038283Y-10976270D02*
X11943045Y-10995317D01*
X12104950Y-11138174D02*
X12114474Y-11128650D01*
X12114474Y-11128650D02*
X12133521Y-11100079D01*
X12133521Y-11100079D02*
X12143045Y-11081031D01*
X12143045Y-11081031D02*
X12152569Y-11052460D01*
X12152569Y-11052460D02*
X12162093Y-11004841D01*
X12162093Y-11004841D02*
X12162093Y-10966746D01*
X12162093Y-10966746D02*
X12152569Y-10919127D01*
X12152569Y-10919127D02*
X12143045Y-10890555D01*
X12143045Y-10890555D02*
X12133521Y-10871508D01*
X12133521Y-10871508D02*
X12114474Y-10842936D01*
X12114474Y-10842936D02*
X12104950Y-10833412D01*
M02*
