G04 #@! TF.GenerationSoftware,KiCad,Pcbnew,8.0.1*
G04 #@! TF.CreationDate,2024-07-10T15:35:48+08:00*
G04 #@! TF.ProjectId,555Sandbox,35353553-616e-4646-926f-782e6b696361,1.0.0*
G04 #@! TF.SameCoordinates,Original*
G04 #@! TF.FileFunction,Copper,L2,Bot*
G04 #@! TF.FilePolarity,Positive*
%FSLAX46Y46*%
G04 Gerber Fmt 4.6, Leading zero omitted, Abs format (unit mm)*
G04 Created by KiCad (PCBNEW 8.0.1) date 2024-07-10 15:35:48*
%MOMM*%
%LPD*%
G01*
G04 APERTURE LIST*
G04 #@! TA.AperFunction,ComponentPad*
%ADD10R,1.560000X1.560000*%
G04 #@! TD*
G04 #@! TA.AperFunction,ComponentPad*
%ADD11C,1.560000*%
G04 #@! TD*
G04 #@! TA.AperFunction,ComponentPad*
%ADD12C,5.000000*%
G04 #@! TD*
G04 #@! TA.AperFunction,ComponentPad*
%ADD13C,3.000000*%
G04 #@! TD*
G04 #@! TA.AperFunction,SMDPad,CuDef*
%ADD14C,9.000000*%
G04 #@! TD*
G04 #@! TA.AperFunction,ViaPad*
%ADD15C,0.600000*%
G04 #@! TD*
G04 #@! TA.AperFunction,Conductor*
%ADD16C,1.000000*%
G04 #@! TD*
G04 APERTURE END LIST*
D10*
X81350000Y-73400000D03*
D11*
X76350000Y-75900000D03*
X81350000Y-78400000D03*
D12*
X93600000Y-69950000D03*
D10*
X81350000Y-85100000D03*
D11*
X76350000Y-87600000D03*
X81350000Y-90100000D03*
D13*
X90350000Y-78000000D03*
X90350000Y-91200000D03*
D14*
X90350000Y-84600000D03*
D15*
X95750000Y-86750000D03*
X94050000Y-73700000D03*
X95500000Y-75150000D03*
X94250000Y-88250000D03*
X95500000Y-73650000D03*
X95750000Y-88250000D03*
D16*
X89350000Y-91200000D02*
X85000000Y-86850000D01*
X90200000Y-91200000D02*
X89350000Y-91200000D01*
X85000000Y-86850000D02*
X85000000Y-82250000D01*
X89250000Y-78000000D02*
X90200000Y-78000000D01*
X85000000Y-82250000D02*
X89250000Y-78000000D01*
X81350000Y-73400000D02*
X78850000Y-73400000D01*
X78850000Y-73400000D02*
X76350000Y-75900000D01*
X81350000Y-78400000D02*
X76350000Y-83400000D01*
X76350000Y-83400000D02*
X76350000Y-87600000D01*
G04 #@! TA.AperFunction,Conductor*
G36*
X92122977Y-67420185D02*
G01*
X92168732Y-67472989D01*
X92178676Y-67542147D01*
X92149651Y-67605703D01*
X92120091Y-67630614D01*
X92067126Y-67662632D01*
X92034673Y-67682251D01*
X91772744Y-67887460D01*
X91537460Y-68122744D01*
X91332251Y-68384673D01*
X91160101Y-68669445D01*
X91160100Y-68669447D01*
X91023536Y-68972880D01*
X91023530Y-68972895D01*
X90924546Y-69290550D01*
X90864563Y-69617863D01*
X90844473Y-69950000D01*
X90864563Y-70282136D01*
X90864563Y-70282141D01*
X90864564Y-70282142D01*
X90924544Y-70609441D01*
X90924545Y-70609445D01*
X90924546Y-70609449D01*
X91023530Y-70927104D01*
X91023534Y-70927116D01*
X91023537Y-70927123D01*
X91160102Y-71230557D01*
X91230616Y-71347201D01*
X91332251Y-71515326D01*
X91537460Y-71777255D01*
X91772744Y-72012539D01*
X92034673Y-72217748D01*
X92034678Y-72217751D01*
X92034682Y-72217754D01*
X92319443Y-72389898D01*
X92622877Y-72526463D01*
X92622890Y-72526467D01*
X92622895Y-72526469D01*
X92834665Y-72592458D01*
X92940559Y-72625456D01*
X93267858Y-72685436D01*
X93600000Y-72705527D01*
X93932142Y-72685436D01*
X94259441Y-72625456D01*
X94577123Y-72526463D01*
X94880557Y-72389898D01*
X95165318Y-72217754D01*
X95427252Y-72012542D01*
X95662542Y-71777252D01*
X95867754Y-71515318D01*
X95969385Y-71347198D01*
X96020911Y-71300014D01*
X96089770Y-71288175D01*
X96154099Y-71315444D01*
X96193473Y-71373162D01*
X96199500Y-71411351D01*
X96199500Y-93893038D01*
X96198720Y-93906923D01*
X96188540Y-93997264D01*
X96182362Y-94024333D01*
X96154648Y-94103537D01*
X96142600Y-94128555D01*
X96097957Y-94199604D01*
X96080644Y-94221313D01*
X96021313Y-94280644D01*
X95999604Y-94297957D01*
X95928555Y-94342600D01*
X95903537Y-94354648D01*
X95824333Y-94382362D01*
X95797264Y-94388540D01*
X95717075Y-94397576D01*
X95706921Y-94398720D01*
X95693038Y-94399500D01*
X75956929Y-94399500D01*
X75943108Y-94398727D01*
X75851596Y-94388463D01*
X75824640Y-94382340D01*
X75744255Y-94354349D01*
X75719326Y-94342406D01*
X75647138Y-94297302D01*
X75625479Y-94280137D01*
X75565073Y-94220158D01*
X75547756Y-94198622D01*
X75502143Y-94126760D01*
X75490023Y-94101916D01*
X75461461Y-94021728D01*
X75455149Y-93994831D01*
X75451372Y-93963184D01*
X75450500Y-93948500D01*
X75450500Y-90100000D01*
X80314514Y-90100000D01*
X80334410Y-90302011D01*
X80393337Y-90496267D01*
X80489021Y-90675279D01*
X80489025Y-90675286D01*
X80617800Y-90832199D01*
X80774713Y-90960974D01*
X80774720Y-90960978D01*
X80953732Y-91056662D01*
X80953734Y-91056662D01*
X80953737Y-91056664D01*
X81147987Y-91115589D01*
X81147986Y-91115589D01*
X81166099Y-91117372D01*
X81350000Y-91135486D01*
X81552013Y-91115589D01*
X81746263Y-91056664D01*
X81925285Y-90960975D01*
X82082199Y-90832199D01*
X82210975Y-90675285D01*
X82306664Y-90496263D01*
X82365589Y-90302013D01*
X82385486Y-90100000D01*
X82365589Y-89897987D01*
X82306664Y-89703737D01*
X82306662Y-89703734D01*
X82306662Y-89703732D01*
X82210978Y-89524720D01*
X82210974Y-89524713D01*
X82082199Y-89367800D01*
X81925286Y-89239025D01*
X81925279Y-89239021D01*
X81746267Y-89143337D01*
X81649138Y-89113873D01*
X81552013Y-89084411D01*
X81552011Y-89084410D01*
X81552013Y-89084410D01*
X81350000Y-89064514D01*
X81147988Y-89084410D01*
X80953732Y-89143337D01*
X80774720Y-89239021D01*
X80774713Y-89239025D01*
X80617800Y-89367800D01*
X80489025Y-89524713D01*
X80489021Y-89524720D01*
X80393337Y-89703732D01*
X80334410Y-89897988D01*
X80314514Y-90100000D01*
X75450500Y-90100000D01*
X75450500Y-88457075D01*
X75470185Y-88390036D01*
X75522989Y-88344281D01*
X75592147Y-88334337D01*
X75653165Y-88361222D01*
X75774713Y-88460974D01*
X75774720Y-88460978D01*
X75953732Y-88556662D01*
X75953734Y-88556662D01*
X75953737Y-88556664D01*
X76147987Y-88615589D01*
X76147986Y-88615589D01*
X76166099Y-88617372D01*
X76350000Y-88635486D01*
X76552013Y-88615589D01*
X76746263Y-88556664D01*
X76925285Y-88460975D01*
X77082199Y-88332199D01*
X77210975Y-88175285D01*
X77306664Y-87996263D01*
X77365589Y-87802013D01*
X77385486Y-87600000D01*
X77365589Y-87397987D01*
X77306664Y-87203737D01*
X77306662Y-87203734D01*
X77306662Y-87203732D01*
X77210976Y-87024716D01*
X77210973Y-87024713D01*
X77128647Y-86924397D01*
X77128444Y-86923920D01*
X84249499Y-86923920D01*
X84278340Y-87068907D01*
X84278343Y-87068917D01*
X84334913Y-87205490D01*
X84334914Y-87205492D01*
X84360982Y-87244505D01*
X84360983Y-87244507D01*
X84417043Y-87328410D01*
X84417047Y-87328415D01*
X88607845Y-91519213D01*
X88641055Y-91579300D01*
X88672580Y-91717416D01*
X88768432Y-91961643D01*
X88899614Y-92188857D01*
X89031736Y-92354533D01*
X89063198Y-92393985D01*
X89244753Y-92562441D01*
X89255521Y-92572433D01*
X89472296Y-92720228D01*
X89472301Y-92720230D01*
X89472302Y-92720231D01*
X89472303Y-92720232D01*
X89597843Y-92780688D01*
X89708673Y-92834061D01*
X89708674Y-92834061D01*
X89708677Y-92834063D01*
X89959385Y-92911396D01*
X90218818Y-92950500D01*
X90481182Y-92950500D01*
X90740615Y-92911396D01*
X90991323Y-92834063D01*
X91227704Y-92720228D01*
X91444479Y-92572433D01*
X91636805Y-92393981D01*
X91800386Y-92188857D01*
X91931568Y-91961643D01*
X92027420Y-91717416D01*
X92085802Y-91461630D01*
X92105408Y-91200000D01*
X92100573Y-91135486D01*
X92085803Y-90938379D01*
X92085802Y-90938374D01*
X92085802Y-90938370D01*
X92027420Y-90682584D01*
X91931568Y-90438357D01*
X91800386Y-90211143D01*
X91636805Y-90006019D01*
X91636804Y-90006018D01*
X91636801Y-90006014D01*
X91444479Y-89827567D01*
X91227704Y-89679772D01*
X91227700Y-89679770D01*
X91227697Y-89679768D01*
X91227696Y-89679767D01*
X90991325Y-89565938D01*
X90991327Y-89565938D01*
X90740623Y-89488606D01*
X90740619Y-89488605D01*
X90740615Y-89488604D01*
X90615823Y-89469794D01*
X90481187Y-89449500D01*
X90481182Y-89449500D01*
X90218818Y-89449500D01*
X90218812Y-89449500D01*
X90057247Y-89473853D01*
X89959385Y-89488604D01*
X89959382Y-89488605D01*
X89959376Y-89488606D01*
X89708673Y-89565938D01*
X89472303Y-89679767D01*
X89472302Y-89679768D01*
X89255512Y-89827573D01*
X89230732Y-89850565D01*
X89168199Y-89881732D01*
X89098743Y-89874143D01*
X89058713Y-89847345D01*
X85786819Y-86575451D01*
X85753334Y-86514128D01*
X85750500Y-86487770D01*
X85750500Y-82612228D01*
X85770185Y-82545189D01*
X85786814Y-82524552D01*
X89006844Y-79304521D01*
X89068165Y-79271038D01*
X89137857Y-79276022D01*
X89178864Y-79301306D01*
X89255516Y-79372429D01*
X89255518Y-79372430D01*
X89255521Y-79372433D01*
X89472296Y-79520228D01*
X89472301Y-79520230D01*
X89472302Y-79520231D01*
X89472303Y-79520232D01*
X89597843Y-79580688D01*
X89708673Y-79634061D01*
X89708674Y-79634061D01*
X89708677Y-79634063D01*
X89959385Y-79711396D01*
X90218818Y-79750500D01*
X90481182Y-79750500D01*
X90740615Y-79711396D01*
X90991323Y-79634063D01*
X91227704Y-79520228D01*
X91444479Y-79372433D01*
X91636805Y-79193981D01*
X91800386Y-78988857D01*
X91931568Y-78761643D01*
X92027420Y-78517416D01*
X92085802Y-78261630D01*
X92090571Y-78197988D01*
X92105408Y-78000004D01*
X92105408Y-77999995D01*
X92085803Y-77738379D01*
X92085802Y-77738374D01*
X92085802Y-77738370D01*
X92027420Y-77482584D01*
X91931568Y-77238357D01*
X91800386Y-77011143D01*
X91636805Y-76806019D01*
X91636804Y-76806018D01*
X91636801Y-76806014D01*
X91444479Y-76627567D01*
X91227704Y-76479772D01*
X91227700Y-76479770D01*
X91227697Y-76479768D01*
X91227696Y-76479767D01*
X90991325Y-76365938D01*
X90991327Y-76365938D01*
X90740623Y-76288606D01*
X90740619Y-76288605D01*
X90740615Y-76288604D01*
X90615823Y-76269794D01*
X90481187Y-76249500D01*
X90481182Y-76249500D01*
X90218818Y-76249500D01*
X90218812Y-76249500D01*
X90057247Y-76273853D01*
X89959385Y-76288604D01*
X89959382Y-76288605D01*
X89959376Y-76288606D01*
X89708673Y-76365938D01*
X89472303Y-76479767D01*
X89472302Y-76479768D01*
X89255520Y-76627567D01*
X89063198Y-76806014D01*
X88899614Y-77011143D01*
X88768432Y-77238356D01*
X88672580Y-77482581D01*
X88670628Y-77491133D01*
X88637420Y-77551211D01*
X84417050Y-81771580D01*
X84417044Y-81771588D01*
X84367812Y-81845268D01*
X84367813Y-81845269D01*
X84334921Y-81894496D01*
X84334914Y-81894508D01*
X84278342Y-82031086D01*
X84278340Y-82031092D01*
X84249500Y-82176079D01*
X84249500Y-82176082D01*
X84249500Y-86923918D01*
X84249500Y-86923920D01*
X84249499Y-86923920D01*
X77128444Y-86923920D01*
X77101334Y-86860087D01*
X77100500Y-86845732D01*
X77100500Y-85904678D01*
X80319500Y-85904678D01*
X80334032Y-85977735D01*
X80334033Y-85977739D01*
X80334034Y-85977740D01*
X80389399Y-86060601D01*
X80472260Y-86115966D01*
X80472264Y-86115967D01*
X80545321Y-86130499D01*
X80545324Y-86130500D01*
X80545326Y-86130500D01*
X82154676Y-86130500D01*
X82154677Y-86130499D01*
X82227740Y-86115966D01*
X82310601Y-86060601D01*
X82365966Y-85977740D01*
X82380500Y-85904674D01*
X82380500Y-84295326D01*
X82380500Y-84295323D01*
X82380499Y-84295321D01*
X82365967Y-84222264D01*
X82365966Y-84222260D01*
X82310601Y-84139399D01*
X82227740Y-84084034D01*
X82227739Y-84084033D01*
X82227735Y-84084032D01*
X82154677Y-84069500D01*
X82154674Y-84069500D01*
X80545326Y-84069500D01*
X80545323Y-84069500D01*
X80472264Y-84084032D01*
X80472260Y-84084033D01*
X80389399Y-84139399D01*
X80334033Y-84222260D01*
X80334032Y-84222264D01*
X80319500Y-84295321D01*
X80319500Y-85904678D01*
X77100500Y-85904678D01*
X77100500Y-83762229D01*
X77120185Y-83695190D01*
X77136814Y-83674553D01*
X81347337Y-79464029D01*
X81408658Y-79430546D01*
X81422856Y-79428309D01*
X81552013Y-79415589D01*
X81746263Y-79356664D01*
X81925285Y-79260975D01*
X82082199Y-79132199D01*
X82210975Y-78975285D01*
X82306664Y-78796263D01*
X82365589Y-78602013D01*
X82385486Y-78400000D01*
X82365589Y-78197987D01*
X82306664Y-78003737D01*
X82306662Y-78003734D01*
X82306662Y-78003732D01*
X82210978Y-77824720D01*
X82210974Y-77824713D01*
X82082199Y-77667800D01*
X81925286Y-77539025D01*
X81925279Y-77539021D01*
X81746267Y-77443337D01*
X81649138Y-77413873D01*
X81552013Y-77384411D01*
X81552011Y-77384410D01*
X81552013Y-77384410D01*
X81350000Y-77364514D01*
X81147988Y-77384410D01*
X80953732Y-77443337D01*
X80774720Y-77539021D01*
X80774713Y-77539025D01*
X80617800Y-77667800D01*
X80489025Y-77824713D01*
X80489021Y-77824720D01*
X80393337Y-78003732D01*
X80334410Y-78197988D01*
X80321689Y-78327138D01*
X80295527Y-78391925D01*
X80285967Y-78402663D01*
X75767050Y-82921580D01*
X75767044Y-82921588D01*
X75717812Y-82995268D01*
X75717813Y-82995269D01*
X75684916Y-83044504D01*
X75683859Y-83046482D01*
X75683032Y-83047323D01*
X75681532Y-83049569D01*
X75681106Y-83049284D01*
X75634898Y-83096327D01*
X75566761Y-83111789D01*
X75501080Y-83087959D01*
X75458711Y-83032402D01*
X75450500Y-82988031D01*
X75450500Y-76757075D01*
X75470185Y-76690036D01*
X75522989Y-76644281D01*
X75592147Y-76634337D01*
X75653165Y-76661222D01*
X75774713Y-76760974D01*
X75774720Y-76760978D01*
X75953732Y-76856662D01*
X75953734Y-76856662D01*
X75953737Y-76856664D01*
X76147987Y-76915589D01*
X76147986Y-76915589D01*
X76166099Y-76917372D01*
X76350000Y-76935486D01*
X76552013Y-76915589D01*
X76746263Y-76856664D01*
X76925285Y-76760975D01*
X77082199Y-76632199D01*
X77210975Y-76475285D01*
X77306664Y-76296263D01*
X77365589Y-76102013D01*
X77378309Y-75972861D01*
X77404470Y-75908075D01*
X77414022Y-75897344D01*
X79124549Y-74186819D01*
X79185872Y-74153334D01*
X79212230Y-74150500D01*
X80206960Y-74150500D01*
X80273999Y-74170185D01*
X80319754Y-74222989D01*
X80328577Y-74250309D01*
X80334032Y-74277736D01*
X80334033Y-74277739D01*
X80334034Y-74277740D01*
X80389399Y-74360601D01*
X80472260Y-74415966D01*
X80472264Y-74415967D01*
X80545321Y-74430499D01*
X80545324Y-74430500D01*
X80545326Y-74430500D01*
X82154676Y-74430500D01*
X82154677Y-74430499D01*
X82227740Y-74415966D01*
X82310601Y-74360601D01*
X82365966Y-74277740D01*
X82380500Y-74204674D01*
X82380500Y-72595326D01*
X82380500Y-72595323D01*
X82380499Y-72595321D01*
X82365967Y-72522264D01*
X82365966Y-72522260D01*
X82310601Y-72439399D01*
X82236518Y-72389899D01*
X82227739Y-72384033D01*
X82227735Y-72384032D01*
X82154677Y-72369500D01*
X82154674Y-72369500D01*
X80545326Y-72369500D01*
X80545323Y-72369500D01*
X80472264Y-72384032D01*
X80472260Y-72384033D01*
X80389399Y-72439399D01*
X80334033Y-72522260D01*
X80334032Y-72522263D01*
X80328577Y-72549691D01*
X80296193Y-72611602D01*
X80235477Y-72646176D01*
X80206960Y-72649500D01*
X78776080Y-72649500D01*
X78631092Y-72678340D01*
X78631086Y-72678342D01*
X78494508Y-72734914D01*
X78494496Y-72734921D01*
X78445269Y-72767813D01*
X78371588Y-72817044D01*
X78371580Y-72817050D01*
X76352663Y-74835967D01*
X76291340Y-74869452D01*
X76277138Y-74871689D01*
X76147988Y-74884410D01*
X75953732Y-74943337D01*
X75774720Y-75039021D01*
X75774714Y-75039025D01*
X75653164Y-75138778D01*
X75588854Y-75166090D01*
X75519987Y-75154299D01*
X75468427Y-75107146D01*
X75450500Y-75042924D01*
X75450500Y-67906961D01*
X75451280Y-67893077D01*
X75451913Y-67887458D01*
X75461459Y-67802731D01*
X75467635Y-67775670D01*
X75495353Y-67696456D01*
X75507396Y-67671450D01*
X75552046Y-67600389D01*
X75569351Y-67578690D01*
X75628690Y-67519351D01*
X75650389Y-67502046D01*
X75721450Y-67457396D01*
X75746456Y-67445353D01*
X75825670Y-67417635D01*
X75852733Y-67411459D01*
X75915419Y-67404396D01*
X75943079Y-67401280D01*
X75956962Y-67400500D01*
X76015892Y-67400500D01*
X92055938Y-67400500D01*
X92122977Y-67420185D01*
G37*
G04 #@! TD.AperFunction*
M02*
