G04 #@! TF.GenerationSoftware,KiCad,Pcbnew,8.0.1*
G04 #@! TF.CreationDate,2024-07-14T02:03:22+08:00*
G04 #@! TF.ProjectId,555Sandbox,35353553-616e-4646-926f-782e6b696361,1.0.0*
G04 #@! TF.SameCoordinates,Original*
G04 #@! TF.FileFunction,Copper,L2,Bot*
G04 #@! TF.FilePolarity,Positive*
%FSLAX46Y46*%
G04 Gerber Fmt 4.6, Leading zero omitted, Abs format (unit mm)*
G04 Created by KiCad (PCBNEW 8.0.1) date 2024-07-14 02:03:22*
%MOMM*%
%LPD*%
G01*
G04 APERTURE LIST*
G04 #@! TA.AperFunction,ComponentPad*
%ADD10C,6.000000*%
G04 #@! TD*
G04 #@! TA.AperFunction,ComponentPad*
%ADD11O,3.500000X2.200000*%
G04 #@! TD*
G04 #@! TA.AperFunction,ComponentPad*
%ADD12R,2.500000X1.500000*%
G04 #@! TD*
G04 #@! TA.AperFunction,ComponentPad*
%ADD13O,2.500000X1.500000*%
G04 #@! TD*
G04 #@! TA.AperFunction,ComponentPad*
%ADD14C,1.560000*%
G04 #@! TD*
G04 #@! TA.AperFunction,ComponentPad*
%ADD15R,1.560000X1.560000*%
G04 #@! TD*
G04 #@! TA.AperFunction,SMDPad,CuDef*
%ADD16R,3.300000X3.500000*%
G04 #@! TD*
G04 #@! TA.AperFunction,SMDPad,CuDef*
%ADD17C,10.200000*%
G04 #@! TD*
G04 #@! TA.AperFunction,ViaPad*
%ADD18C,0.600000*%
G04 #@! TD*
G04 #@! TA.AperFunction,Conductor*
%ADD19C,0.500000*%
G04 #@! TD*
G04 #@! TA.AperFunction,Conductor*
%ADD20C,1.000000*%
G04 #@! TD*
G04 APERTURE END LIST*
D10*
X93175000Y-70425000D03*
D11*
X78650000Y-76350000D03*
X78650000Y-84550000D03*
D12*
X78650000Y-78450000D03*
D13*
X78650000Y-80450000D03*
X78650000Y-82450000D03*
D14*
X81350000Y-73300000D03*
X76350000Y-70800000D03*
D15*
X81350000Y-68300000D03*
D14*
X81390000Y-92600000D03*
X76390000Y-90100000D03*
D15*
X81390000Y-87600000D03*
D16*
X90400000Y-76000000D03*
X90400000Y-91800000D03*
D17*
X90400000Y-83900000D03*
D18*
X81450000Y-90850000D03*
X83400000Y-88950000D03*
X84900000Y-91500000D03*
X83400000Y-93050000D03*
X76450000Y-68400000D03*
X84700000Y-74550000D03*
X84700000Y-73550000D03*
X88350000Y-72300000D03*
X88350000Y-73350000D03*
X84950000Y-80600000D03*
X88050000Y-77500000D03*
X88825000Y-89550000D03*
X95750000Y-86750000D03*
X95500000Y-73350000D03*
X93300000Y-74300000D03*
X94250000Y-88150000D03*
X95500000Y-74300000D03*
X94250000Y-89400000D03*
X95750000Y-88150000D03*
D19*
X81350000Y-73300000D02*
X77550000Y-73300000D01*
X77550000Y-73300000D02*
X76350000Y-74500000D01*
X76350000Y-90060000D02*
X76390000Y-90100000D01*
X76350000Y-74500000D02*
X76350000Y-90060000D01*
D20*
X90400000Y-76000000D02*
X87400000Y-76000000D01*
X87400000Y-76000000D02*
X84850000Y-78550000D01*
X84850000Y-78550000D02*
X78800000Y-78550000D01*
D19*
X84950000Y-80600000D02*
X84750000Y-80800000D01*
X84750000Y-80800000D02*
X84750000Y-86400000D01*
X84750000Y-86400000D02*
X87900000Y-89550000D01*
X87900000Y-89550000D02*
X88825000Y-89550000D01*
D20*
X84950000Y-80600000D02*
X88050000Y-77500000D01*
X83700000Y-78700000D02*
X83700000Y-86850000D01*
X83700000Y-86850000D02*
X87400000Y-90550000D01*
X87400000Y-90550000D02*
X89150000Y-90550000D01*
X78850000Y-68300000D02*
X76350000Y-70800000D01*
X81350000Y-68300000D02*
X78850000Y-68300000D01*
X90400000Y-76000000D02*
X90050000Y-76000000D01*
G04 #@! TA.AperFunction,Conductor*
G36*
X82892539Y-79320185D02*
G01*
X82938294Y-79372989D01*
X82949500Y-79424500D01*
X82949500Y-86923918D01*
X82949500Y-86923920D01*
X82949499Y-86923920D01*
X82978340Y-87068907D01*
X82978343Y-87068917D01*
X83034913Y-87205490D01*
X83034914Y-87205492D01*
X83060982Y-87244505D01*
X83060983Y-87244507D01*
X83117043Y-87328410D01*
X83117047Y-87328415D01*
X83117048Y-87328416D01*
X86817049Y-91028416D01*
X86904222Y-91115589D01*
X86921585Y-91132952D01*
X87044498Y-91215080D01*
X87044511Y-91215087D01*
X87181082Y-91271656D01*
X87181087Y-91271658D01*
X87181091Y-91271658D01*
X87181092Y-91271659D01*
X87326079Y-91300500D01*
X87326082Y-91300500D01*
X88375500Y-91300500D01*
X88442539Y-91320185D01*
X88488294Y-91372989D01*
X88499500Y-91424500D01*
X88499500Y-93425500D01*
X88479815Y-93492539D01*
X88427011Y-93538294D01*
X88375500Y-93549500D01*
X82203974Y-93549500D01*
X82136935Y-93529815D01*
X82091180Y-93477011D01*
X82081236Y-93407853D01*
X82110261Y-93344297D01*
X82118075Y-93336690D01*
X82117892Y-93336507D01*
X82122197Y-93332201D01*
X82167701Y-93276755D01*
X82250975Y-93175285D01*
X82346664Y-92996263D01*
X82405589Y-92802013D01*
X82425486Y-92600000D01*
X82405589Y-92397987D01*
X82346664Y-92203737D01*
X82346662Y-92203734D01*
X82346662Y-92203732D01*
X82250978Y-92024720D01*
X82250974Y-92024713D01*
X82122199Y-91867800D01*
X81965286Y-91739025D01*
X81965279Y-91739021D01*
X81786267Y-91643337D01*
X81689138Y-91613873D01*
X81592013Y-91584411D01*
X81592011Y-91584410D01*
X81592013Y-91584410D01*
X81390000Y-91564514D01*
X81187988Y-91584410D01*
X80993732Y-91643337D01*
X80814720Y-91739021D01*
X80814713Y-91739025D01*
X80657800Y-91867800D01*
X80529025Y-92024713D01*
X80529021Y-92024720D01*
X80433337Y-92203732D01*
X80374410Y-92397988D01*
X80354514Y-92600000D01*
X80374410Y-92802011D01*
X80433337Y-92996267D01*
X80529021Y-93175279D01*
X80529025Y-93175286D01*
X80657802Y-93332201D01*
X80662108Y-93336507D01*
X80660473Y-93338141D01*
X80694021Y-93387381D01*
X80695899Y-93457225D01*
X80659718Y-93516997D01*
X80596965Y-93547719D01*
X80576026Y-93549500D01*
X75964023Y-93549500D01*
X75950200Y-93548727D01*
X75858684Y-93538461D01*
X75831729Y-93532337D01*
X75751350Y-93504347D01*
X75726421Y-93492404D01*
X75701785Y-93477011D01*
X75654237Y-93447301D01*
X75632574Y-93430132D01*
X75572174Y-93370157D01*
X75554853Y-93348617D01*
X75509241Y-93276755D01*
X75497123Y-93251917D01*
X75468558Y-93171723D01*
X75462248Y-93144824D01*
X75457035Y-93101145D01*
X75451374Y-93053706D01*
X75450500Y-93039013D01*
X75450500Y-90924247D01*
X75470185Y-90857208D01*
X75522989Y-90811453D01*
X75592147Y-90801509D01*
X75653165Y-90828394D01*
X75814713Y-90960974D01*
X75814720Y-90960978D01*
X75993732Y-91056662D01*
X75993734Y-91056662D01*
X75993737Y-91056664D01*
X76187987Y-91115589D01*
X76187986Y-91115589D01*
X76206099Y-91117372D01*
X76390000Y-91135486D01*
X76592013Y-91115589D01*
X76786263Y-91056664D01*
X76965285Y-90960975D01*
X77122199Y-90832199D01*
X77250975Y-90675285D01*
X77346664Y-90496263D01*
X77405589Y-90302013D01*
X77425486Y-90100000D01*
X77405589Y-89897987D01*
X77346664Y-89703737D01*
X77346662Y-89703734D01*
X77346662Y-89703732D01*
X77250978Y-89524720D01*
X77250974Y-89524713D01*
X77122199Y-89367800D01*
X76965286Y-89239025D01*
X76965279Y-89239021D01*
X76916047Y-89212706D01*
X76866203Y-89163744D01*
X76850500Y-89103348D01*
X76850500Y-88404678D01*
X80359500Y-88404678D01*
X80374032Y-88477735D01*
X80374033Y-88477739D01*
X80374034Y-88477740D01*
X80429399Y-88560601D01*
X80512260Y-88615966D01*
X80512264Y-88615967D01*
X80585321Y-88630499D01*
X80585324Y-88630500D01*
X80585326Y-88630500D01*
X82194676Y-88630500D01*
X82194677Y-88630499D01*
X82267740Y-88615966D01*
X82350601Y-88560601D01*
X82405966Y-88477740D01*
X82420500Y-88404674D01*
X82420500Y-86795326D01*
X82420500Y-86795323D01*
X82420499Y-86795321D01*
X82405967Y-86722264D01*
X82405966Y-86722260D01*
X82350601Y-86639399D01*
X82267740Y-86584034D01*
X82267739Y-86584033D01*
X82267735Y-86584032D01*
X82194677Y-86569500D01*
X82194674Y-86569500D01*
X80585326Y-86569500D01*
X80585323Y-86569500D01*
X80512264Y-86584032D01*
X80512260Y-86584033D01*
X80429399Y-86639399D01*
X80374033Y-86722260D01*
X80374032Y-86722264D01*
X80359500Y-86795321D01*
X80359500Y-88404678D01*
X76850500Y-88404678D01*
X76850500Y-85609758D01*
X76870185Y-85542719D01*
X76922989Y-85496964D01*
X76992147Y-85487020D01*
X77055703Y-85516045D01*
X77062181Y-85522077D01*
X77120213Y-85580109D01*
X77292179Y-85705048D01*
X77292181Y-85705049D01*
X77292184Y-85705051D01*
X77481588Y-85801557D01*
X77683757Y-85867246D01*
X77893713Y-85900500D01*
X77893714Y-85900500D01*
X79406286Y-85900500D01*
X79406287Y-85900500D01*
X79616243Y-85867246D01*
X79818412Y-85801557D01*
X80007816Y-85705051D01*
X80029789Y-85689086D01*
X80179786Y-85580109D01*
X80179788Y-85580106D01*
X80179792Y-85580104D01*
X80330104Y-85429792D01*
X80330106Y-85429788D01*
X80330109Y-85429786D01*
X80455048Y-85257820D01*
X80455047Y-85257820D01*
X80455051Y-85257816D01*
X80551557Y-85068412D01*
X80617246Y-84866243D01*
X80650500Y-84656287D01*
X80650500Y-84443713D01*
X80617246Y-84233757D01*
X80551557Y-84031588D01*
X80455051Y-83842184D01*
X80455049Y-83842181D01*
X80455048Y-83842179D01*
X80330109Y-83670213D01*
X80179786Y-83519890D01*
X80007819Y-83394951D01*
X80007818Y-83394950D01*
X80007816Y-83394949D01*
X79902954Y-83341519D01*
X79852158Y-83293544D01*
X79835363Y-83225723D01*
X79857901Y-83159588D01*
X79871562Y-83143358D01*
X79927139Y-83087782D01*
X80036632Y-82923914D01*
X80112051Y-82741835D01*
X80150500Y-82548541D01*
X80150500Y-82351459D01*
X80150500Y-82351456D01*
X80112052Y-82158170D01*
X80112051Y-82158169D01*
X80112051Y-82158165D01*
X80112049Y-82158160D01*
X80036635Y-81976092D01*
X80036628Y-81976079D01*
X79927139Y-81812218D01*
X79927136Y-81812214D01*
X79787785Y-81672863D01*
X79787781Y-81672860D01*
X79623920Y-81563371D01*
X79618544Y-81560498D01*
X79619510Y-81558689D01*
X79572397Y-81520728D01*
X79550326Y-81454436D01*
X79567600Y-81386735D01*
X79618734Y-81339121D01*
X79622331Y-81337477D01*
X79623907Y-81336634D01*
X79623914Y-81336632D01*
X79787782Y-81227139D01*
X79927139Y-81087782D01*
X80036632Y-80923914D01*
X80112051Y-80741835D01*
X80150500Y-80548541D01*
X80150500Y-80351459D01*
X80150500Y-80351456D01*
X80112052Y-80158170D01*
X80112051Y-80158169D01*
X80112051Y-80158165D01*
X80062332Y-80038132D01*
X80036635Y-79976092D01*
X80036628Y-79976079D01*
X79927139Y-79812218D01*
X79927136Y-79812214D01*
X79787787Y-79672865D01*
X79784725Y-79670352D01*
X79783552Y-79668630D01*
X79783475Y-79668553D01*
X79783489Y-79668538D01*
X79745392Y-79612605D01*
X79743523Y-79542761D01*
X79779711Y-79482993D01*
X79842468Y-79452278D01*
X79863392Y-79450500D01*
X79924676Y-79450500D01*
X79924677Y-79450499D01*
X79997740Y-79435966D01*
X80080601Y-79380601D01*
X80097300Y-79355609D01*
X80150912Y-79310804D01*
X80200402Y-79300500D01*
X82825500Y-79300500D01*
X82892539Y-79320185D01*
G37*
G04 #@! TD.AperFunction*
G04 #@! TA.AperFunction,Conductor*
G36*
X91517320Y-67420185D02*
G01*
X91563075Y-67472989D01*
X91573019Y-67542147D01*
X91543994Y-67605703D01*
X91514210Y-67630749D01*
X91348182Y-67730646D01*
X91288959Y-67775666D01*
X91067589Y-67943946D01*
X91067580Y-67943954D01*
X90811685Y-68186350D01*
X90583505Y-68454983D01*
X90583498Y-68454993D01*
X90385695Y-68746730D01*
X90220597Y-69058137D01*
X90220588Y-69058155D01*
X90090127Y-69385589D01*
X90090126Y-69385591D01*
X89995834Y-69725203D01*
X89995833Y-69725206D01*
X89938808Y-70073045D01*
X89919726Y-70424997D01*
X89919726Y-70425002D01*
X89938808Y-70776954D01*
X89995833Y-71124793D01*
X89995834Y-71124796D01*
X90090126Y-71464408D01*
X90090127Y-71464410D01*
X90220588Y-71791844D01*
X90220597Y-71791862D01*
X90361186Y-72057040D01*
X90385695Y-72103269D01*
X90508512Y-72284411D01*
X90583498Y-72395006D01*
X90583505Y-72395016D01*
X90620887Y-72439025D01*
X90811686Y-72663650D01*
X91067580Y-72906046D01*
X91348182Y-73119354D01*
X91650202Y-73301074D01*
X91650206Y-73301075D01*
X91650210Y-73301078D01*
X91970088Y-73449070D01*
X91970092Y-73449070D01*
X91970099Y-73449074D01*
X92304122Y-73561619D01*
X92648355Y-73637391D01*
X92998763Y-73675500D01*
X92998769Y-73675500D01*
X93351231Y-73675500D01*
X93351237Y-73675500D01*
X93701645Y-73637391D01*
X94045878Y-73561619D01*
X94379901Y-73449074D01*
X94379908Y-73449070D01*
X94379911Y-73449070D01*
X94699789Y-73301078D01*
X94699798Y-73301074D01*
X95001818Y-73119354D01*
X95282420Y-72906046D01*
X95538314Y-72663650D01*
X95766501Y-72395008D01*
X95964305Y-72103269D01*
X95966488Y-72099150D01*
X96015273Y-72049138D01*
X96083356Y-72033439D01*
X96149119Y-72057040D01*
X96191682Y-72112449D01*
X96200048Y-72157184D01*
X96206580Y-93043017D01*
X96205800Y-93056940D01*
X96195623Y-93147262D01*
X96189444Y-93174334D01*
X96161731Y-93253531D01*
X96149683Y-93278547D01*
X96105042Y-93349592D01*
X96087730Y-93371302D01*
X96028395Y-93430636D01*
X96006685Y-93447949D01*
X95935642Y-93492587D01*
X95910624Y-93504634D01*
X95831427Y-93532345D01*
X95804355Y-93538524D01*
X95713848Y-93548720D01*
X95699967Y-93549499D01*
X95633605Y-93549499D01*
X95633589Y-93549500D01*
X92424500Y-93549500D01*
X92357461Y-93529815D01*
X92311706Y-93477011D01*
X92300500Y-93425500D01*
X92300500Y-90025323D01*
X92300499Y-90025321D01*
X92285967Y-89952264D01*
X92285966Y-89952260D01*
X92249703Y-89897988D01*
X92230601Y-89869399D01*
X92147740Y-89814034D01*
X92147739Y-89814033D01*
X92147735Y-89814032D01*
X92074677Y-89799500D01*
X92074674Y-89799500D01*
X89488797Y-89799500D01*
X89421758Y-89779815D01*
X89376003Y-89727011D01*
X89365858Y-89659314D01*
X89380250Y-89550000D01*
X89380250Y-89549999D01*
X89376921Y-89524713D01*
X89361330Y-89406291D01*
X89305861Y-89272375D01*
X89217621Y-89157379D01*
X89102625Y-89069139D01*
X89102624Y-89069138D01*
X89102622Y-89069137D01*
X88968712Y-89013671D01*
X88968710Y-89013670D01*
X88968709Y-89013670D01*
X88896854Y-89004210D01*
X88825001Y-88994750D01*
X88824999Y-88994750D01*
X88681293Y-89013669D01*
X88664912Y-89020453D01*
X88617572Y-89040062D01*
X88570124Y-89049500D01*
X88158676Y-89049500D01*
X88091637Y-89029815D01*
X88070995Y-89013181D01*
X85286819Y-86229005D01*
X85253334Y-86167682D01*
X85250500Y-86141324D01*
X85250500Y-81368109D01*
X85270185Y-81301070D01*
X85305608Y-81265007D01*
X85428416Y-81182952D01*
X88582991Y-78028377D01*
X88644314Y-77994892D01*
X88694864Y-77994441D01*
X88725323Y-78000500D01*
X88725326Y-78000500D01*
X92074676Y-78000500D01*
X92074677Y-78000499D01*
X92147740Y-77985966D01*
X92230601Y-77930601D01*
X92285966Y-77847740D01*
X92300500Y-77774674D01*
X92300500Y-74225326D01*
X92300500Y-74225323D01*
X92300499Y-74225321D01*
X92285967Y-74152264D01*
X92285966Y-74152260D01*
X92262366Y-74116940D01*
X92230601Y-74069399D01*
X92147740Y-74014034D01*
X92147739Y-74014033D01*
X92147735Y-74014032D01*
X92074677Y-73999500D01*
X92074674Y-73999500D01*
X88725326Y-73999500D01*
X88725323Y-73999500D01*
X88652264Y-74014032D01*
X88652260Y-74014033D01*
X88569399Y-74069399D01*
X88514033Y-74152260D01*
X88514032Y-74152264D01*
X88499500Y-74225321D01*
X88499500Y-75125500D01*
X88479815Y-75192539D01*
X88427011Y-75238294D01*
X88375500Y-75249500D01*
X87326076Y-75249500D01*
X87297242Y-75255234D01*
X87297243Y-75255235D01*
X87181093Y-75278339D01*
X87181083Y-75278342D01*
X87101081Y-75311479D01*
X87101082Y-75311480D01*
X87044506Y-75334915D01*
X87044503Y-75334917D01*
X87028543Y-75345580D01*
X86965135Y-75387949D01*
X86965134Y-75387950D01*
X86921586Y-75417046D01*
X86921581Y-75417050D01*
X84575451Y-77763181D01*
X84514128Y-77796666D01*
X84487770Y-77799500D01*
X80274500Y-77799500D01*
X80207461Y-77779815D01*
X80161706Y-77727011D01*
X80151766Y-77681320D01*
X80151097Y-77681386D01*
X80150531Y-77675645D01*
X80150500Y-77675500D01*
X80150500Y-77675323D01*
X80150499Y-77675321D01*
X80135967Y-77602264D01*
X80135966Y-77602261D01*
X80135966Y-77602260D01*
X80135964Y-77602258D01*
X80135964Y-77602256D01*
X80116597Y-77573271D01*
X80095719Y-77506594D01*
X80114204Y-77439214D01*
X80146812Y-77404064D01*
X80179792Y-77380104D01*
X80330104Y-77229792D01*
X80330106Y-77229788D01*
X80330109Y-77229786D01*
X80455048Y-77057820D01*
X80455047Y-77057820D01*
X80455051Y-77057816D01*
X80551557Y-76868412D01*
X80617246Y-76666243D01*
X80650500Y-76456287D01*
X80650500Y-76243713D01*
X80617246Y-76033757D01*
X80551557Y-75831588D01*
X80455051Y-75642184D01*
X80455049Y-75642181D01*
X80455048Y-75642179D01*
X80330109Y-75470213D01*
X80179786Y-75319890D01*
X80007820Y-75194951D01*
X79818414Y-75098444D01*
X79818413Y-75098443D01*
X79818412Y-75098443D01*
X79616243Y-75032754D01*
X79616241Y-75032753D01*
X79616240Y-75032753D01*
X79454957Y-75007208D01*
X79406287Y-74999500D01*
X77893713Y-74999500D01*
X77845042Y-75007208D01*
X77683760Y-75032753D01*
X77481585Y-75098444D01*
X77292179Y-75194951D01*
X77120213Y-75319890D01*
X77120209Y-75319894D01*
X77062181Y-75377923D01*
X77000858Y-75411408D01*
X76931166Y-75406424D01*
X76875233Y-75364552D01*
X76850816Y-75299088D01*
X76850500Y-75290242D01*
X76850500Y-74758675D01*
X76870185Y-74691636D01*
X76886819Y-74670994D01*
X77720994Y-73836819D01*
X77782317Y-73803334D01*
X77808675Y-73800500D01*
X80374729Y-73800500D01*
X80441768Y-73820185D01*
X80484088Y-73866048D01*
X80489026Y-73875287D01*
X80617800Y-74032199D01*
X80774713Y-74160974D01*
X80774720Y-74160978D01*
X80953732Y-74256662D01*
X80953734Y-74256662D01*
X80953737Y-74256664D01*
X81147987Y-74315589D01*
X81147986Y-74315589D01*
X81166099Y-74317372D01*
X81350000Y-74335486D01*
X81552013Y-74315589D01*
X81746263Y-74256664D01*
X81925285Y-74160975D01*
X82082199Y-74032199D01*
X82210975Y-73875285D01*
X82306664Y-73696263D01*
X82365589Y-73502013D01*
X82385486Y-73300000D01*
X82365589Y-73097987D01*
X82306664Y-72903737D01*
X82306662Y-72903734D01*
X82306662Y-72903732D01*
X82210978Y-72724720D01*
X82210974Y-72724713D01*
X82082199Y-72567800D01*
X81925286Y-72439025D01*
X81925279Y-72439021D01*
X81746267Y-72343337D01*
X81649138Y-72313873D01*
X81552013Y-72284411D01*
X81552011Y-72284410D01*
X81552013Y-72284410D01*
X81350000Y-72264514D01*
X81147988Y-72284410D01*
X80953732Y-72343337D01*
X80774720Y-72439021D01*
X80774713Y-72439025D01*
X80617800Y-72567800D01*
X80489026Y-72724712D01*
X80484088Y-72733952D01*
X80435126Y-72783797D01*
X80374729Y-72799500D01*
X77484107Y-72799500D01*
X77356812Y-72833608D01*
X77242686Y-72899500D01*
X77242683Y-72899502D01*
X77149498Y-72992688D01*
X76025245Y-74116940D01*
X76025244Y-74116940D01*
X76025245Y-74116941D01*
X75949500Y-74192686D01*
X75883608Y-74306812D01*
X75849500Y-74434108D01*
X75849500Y-89151829D01*
X75829815Y-89218868D01*
X75804165Y-89247682D01*
X75653165Y-89371605D01*
X75588855Y-89398918D01*
X75519988Y-89387127D01*
X75468427Y-89339975D01*
X75450500Y-89275752D01*
X75450500Y-71657075D01*
X75470185Y-71590036D01*
X75522989Y-71544281D01*
X75592147Y-71534337D01*
X75653165Y-71561222D01*
X75774713Y-71660974D01*
X75774720Y-71660978D01*
X75953732Y-71756662D01*
X75953734Y-71756662D01*
X75953737Y-71756664D01*
X76147987Y-71815589D01*
X76147986Y-71815589D01*
X76166099Y-71817372D01*
X76350000Y-71835486D01*
X76552013Y-71815589D01*
X76746263Y-71756664D01*
X76925285Y-71660975D01*
X77082199Y-71532199D01*
X77210975Y-71375285D01*
X77306664Y-71196263D01*
X77365589Y-71002013D01*
X77378309Y-70872861D01*
X77404470Y-70808075D01*
X77414022Y-70797344D01*
X79124549Y-69086819D01*
X79185872Y-69053334D01*
X79212230Y-69050500D01*
X80206960Y-69050500D01*
X80273999Y-69070185D01*
X80319754Y-69122989D01*
X80328577Y-69150309D01*
X80334032Y-69177736D01*
X80334033Y-69177739D01*
X80334034Y-69177740D01*
X80389399Y-69260601D01*
X80472260Y-69315966D01*
X80472264Y-69315967D01*
X80545321Y-69330499D01*
X80545324Y-69330500D01*
X80545326Y-69330500D01*
X82154676Y-69330500D01*
X82154677Y-69330499D01*
X82227740Y-69315966D01*
X82310601Y-69260601D01*
X82365966Y-69177740D01*
X82380500Y-69104674D01*
X82380500Y-67524500D01*
X82400185Y-67457461D01*
X82452989Y-67411706D01*
X82504500Y-67400500D01*
X91450281Y-67400500D01*
X91517320Y-67420185D01*
G37*
G04 #@! TD.AperFunction*
G04 #@! TA.AperFunction,Conductor*
G36*
X78505070Y-67420185D02*
G01*
X78550825Y-67472989D01*
X78560769Y-67542147D01*
X78531744Y-67605703D01*
X78499508Y-67631442D01*
X78499569Y-67631532D01*
X78498510Y-67632239D01*
X78496482Y-67633859D01*
X78494504Y-67634916D01*
X78445269Y-67667813D01*
X78371588Y-67717044D01*
X78371580Y-67717050D01*
X76352663Y-69735967D01*
X76291340Y-69769452D01*
X76277138Y-69771689D01*
X76147988Y-69784410D01*
X75953732Y-69843337D01*
X75774720Y-69939021D01*
X75774714Y-69939025D01*
X75653164Y-70038778D01*
X75588854Y-70066090D01*
X75519987Y-70054299D01*
X75468427Y-70007146D01*
X75450500Y-69942924D01*
X75450500Y-67906961D01*
X75451280Y-67893077D01*
X75457084Y-67841564D01*
X75461459Y-67802731D01*
X75467635Y-67775670D01*
X75495353Y-67696456D01*
X75507396Y-67671450D01*
X75552046Y-67600389D01*
X75569351Y-67578690D01*
X75628690Y-67519351D01*
X75650389Y-67502046D01*
X75721450Y-67457396D01*
X75746456Y-67445353D01*
X75825670Y-67417635D01*
X75852733Y-67411459D01*
X75915419Y-67404396D01*
X75943079Y-67401280D01*
X75956962Y-67400500D01*
X76015892Y-67400500D01*
X78438031Y-67400500D01*
X78505070Y-67420185D01*
G37*
G04 #@! TD.AperFunction*
M02*
