G04 #@! TF.GenerationSoftware,KiCad,Pcbnew,8.0.1*
G04 #@! TF.CreationDate,2024-07-14T02:03:22+08:00*
G04 #@! TF.ProjectId,555Sandbox,35353553-616e-4646-926f-782e6b696361,1.0.0*
G04 #@! TF.SameCoordinates,Original*
G04 #@! TF.FileFunction,Legend,Bot*
G04 #@! TF.FilePolarity,Positive*
%FSLAX46Y46*%
G04 Gerber Fmt 4.6, Leading zero omitted, Abs format (unit mm)*
G04 Created by KiCad (PCBNEW 8.0.1) date 2024-07-14 02:03:22*
%MOMM*%
%LPD*%
G01*
G04 APERTURE LIST*
%ADD10C,0.112500*%
%ADD11C,0.100000*%
%ADD12C,0.500000*%
%ADD13C,0.240000*%
%ADD14C,0.300000*%
%ADD15C,0.200000*%
%ADD16C,0.125000*%
%ADD17C,0.150000*%
%ADD18C,0.000000*%
%ADD19C,0.120000*%
%ADD20C,6.000000*%
%ADD21O,3.500000X2.200000*%
%ADD22R,2.500000X1.500000*%
%ADD23O,2.500000X1.500000*%
%ADD24C,1.560000*%
%ADD25R,1.560000X1.560000*%
%ADD26R,3.300000X3.500000*%
%ADD27C,10.200000*%
G04 APERTURE END LIST*
D10*
G36*
X76385000Y-82364254D02*
G01*
X76385000Y-82252806D01*
X75540896Y-82252806D01*
X75540896Y-82358099D01*
X76190240Y-82774435D01*
X75540896Y-82774435D01*
X75540896Y-82885883D01*
X76385000Y-82885883D01*
X76385000Y-82781689D01*
X75734996Y-82364254D01*
X76385000Y-82364254D01*
G37*
G36*
X76304326Y-83447959D02*
G01*
X76300740Y-83494052D01*
X76288134Y-83539962D01*
X76266451Y-83579578D01*
X76246953Y-83602492D01*
X76211395Y-83630225D01*
X76169264Y-83648883D01*
X76120560Y-83658464D01*
X76090662Y-83659864D01*
X75533862Y-83659864D01*
X75533862Y-83771312D01*
X76089124Y-83771312D01*
X76134008Y-83768784D01*
X76181185Y-83759897D01*
X76224851Y-83744611D01*
X76252009Y-83730866D01*
X76288949Y-83705665D01*
X76320881Y-83675317D01*
X76347806Y-83639822D01*
X76360600Y-83617879D01*
X76379195Y-83575093D01*
X76391705Y-83528342D01*
X76397715Y-83483458D01*
X76399068Y-83447739D01*
X76396664Y-83400492D01*
X76389451Y-83356350D01*
X76375589Y-83310401D01*
X76360600Y-83277380D01*
X76336457Y-83239115D01*
X76307307Y-83205927D01*
X76273150Y-83177816D01*
X76252009Y-83164393D01*
X76210686Y-83144948D01*
X76165850Y-83131866D01*
X76117502Y-83125148D01*
X76089124Y-83124166D01*
X75533862Y-83124166D01*
X75533862Y-83235614D01*
X76090662Y-83235614D01*
X76137525Y-83239214D01*
X76184038Y-83251869D01*
X76223978Y-83273634D01*
X76246953Y-83293207D01*
X76274687Y-83328821D01*
X76293345Y-83370626D01*
X76302925Y-83418621D01*
X76304326Y-83447959D01*
G37*
G36*
X76170017Y-83926504D02*
G01*
X76170017Y-84037952D01*
X76212717Y-84053120D01*
X76225411Y-84060813D01*
X76258178Y-84091189D01*
X76267397Y-84103678D01*
X76287742Y-84143386D01*
X76294654Y-84163908D01*
X76302730Y-84207187D01*
X76304326Y-84239746D01*
X76301351Y-84285139D01*
X76290526Y-84330483D01*
X76286301Y-84341302D01*
X76262759Y-84380685D01*
X76235083Y-84406368D01*
X76194303Y-84424853D01*
X76157487Y-84429229D01*
X76113818Y-84421936D01*
X76076819Y-84398079D01*
X76074836Y-84396037D01*
X76048264Y-84357010D01*
X76031180Y-84314104D01*
X76025157Y-84293162D01*
X75986688Y-84147861D01*
X75972417Y-84103204D01*
X75952283Y-84060825D01*
X75939427Y-84040590D01*
X75909590Y-84005926D01*
X75872019Y-83977658D01*
X75863810Y-83973106D01*
X75822450Y-83957177D01*
X75776463Y-83950169D01*
X75762473Y-83949805D01*
X75715103Y-83954273D01*
X75671524Y-83967675D01*
X75635198Y-83987614D01*
X75599696Y-84017005D01*
X75569959Y-84052890D01*
X75547930Y-84091148D01*
X75531354Y-84134030D01*
X75520917Y-84180518D01*
X75516773Y-84225441D01*
X75516496Y-84241065D01*
X75518722Y-84285885D01*
X75526416Y-84332055D01*
X75539605Y-84374405D01*
X75544633Y-84386365D01*
X75566523Y-84426698D01*
X75596208Y-84463767D01*
X75622449Y-84486822D01*
X75661522Y-84510593D01*
X75704551Y-84525523D01*
X75735436Y-84530566D01*
X75735436Y-84419337D01*
X75693919Y-84404756D01*
X75669710Y-84387903D01*
X75641159Y-84354385D01*
X75626625Y-84325914D01*
X75614619Y-84282564D01*
X75611238Y-84238646D01*
X75615081Y-84191802D01*
X75628184Y-84147265D01*
X75650586Y-84110053D01*
X75683270Y-84080315D01*
X75726213Y-84063588D01*
X75752581Y-84061253D01*
X75796366Y-84069814D01*
X75828199Y-84091588D01*
X75854687Y-84128627D01*
X75871553Y-84172036D01*
X75873482Y-84179076D01*
X75911510Y-84321958D01*
X75925043Y-84365629D01*
X75942309Y-84407916D01*
X75962069Y-84444177D01*
X75989110Y-84479442D01*
X76023587Y-84508414D01*
X76037247Y-84516497D01*
X76079682Y-84533026D01*
X76124812Y-84540087D01*
X76143639Y-84540677D01*
X76190067Y-84536942D01*
X76232631Y-84525736D01*
X76274988Y-84504782D01*
X76278607Y-84502429D01*
X76315111Y-84472518D01*
X76345433Y-84435074D01*
X76367634Y-84394498D01*
X76382829Y-84353074D01*
X76393051Y-84307442D01*
X76397963Y-84263348D01*
X76399068Y-84228095D01*
X76396749Y-84180336D01*
X76389794Y-84135977D01*
X76382581Y-84108294D01*
X76366864Y-84067109D01*
X76344745Y-84028112D01*
X76335540Y-84015531D01*
X76304274Y-83982580D01*
X76268178Y-83956682D01*
X76263000Y-83953762D01*
X76221659Y-83936387D01*
X76176356Y-83927126D01*
X76170017Y-83926504D01*
G37*
G36*
X76385000Y-85369613D02*
G01*
X76385000Y-85258165D01*
X75987348Y-85258165D01*
X75987348Y-84835014D01*
X76385000Y-84835014D01*
X76385000Y-84723566D01*
X75540896Y-84723566D01*
X75540896Y-84835014D01*
X75892606Y-84835014D01*
X75892606Y-85258165D01*
X75540896Y-85258165D01*
X75540896Y-85369613D01*
X76385000Y-85369613D01*
G37*
G36*
X76385000Y-86158322D02*
G01*
X76384578Y-86181087D01*
X76380320Y-86231425D01*
X76371475Y-86277870D01*
X76358044Y-86320424D01*
X76337079Y-86364292D01*
X76310151Y-86403062D01*
X76277508Y-86436722D01*
X76239150Y-86465271D01*
X76195076Y-86488709D01*
X76151960Y-86504983D01*
X76104742Y-86517260D01*
X76061004Y-86524602D01*
X76014252Y-86529007D01*
X75964487Y-86530475D01*
X75914579Y-86529007D01*
X75867732Y-86524602D01*
X75823945Y-86517260D01*
X75776728Y-86504983D01*
X75733677Y-86488709D01*
X75689727Y-86465271D01*
X75651520Y-86436722D01*
X75619055Y-86403062D01*
X75592334Y-86364292D01*
X75581154Y-86342994D01*
X75563266Y-86296584D01*
X75552506Y-86251807D01*
X75546310Y-86203137D01*
X75544633Y-86158322D01*
X75544633Y-85994777D01*
X75639375Y-85994777D01*
X75639375Y-86151068D01*
X75639694Y-86167696D01*
X75644475Y-86214335D01*
X75656518Y-86260445D01*
X75675645Y-86300545D01*
X75677947Y-86304238D01*
X75707948Y-86340988D01*
X75742660Y-86368220D01*
X75784455Y-86389571D01*
X75828022Y-86403810D01*
X75871594Y-86412555D01*
X75919727Y-86417617D01*
X75965586Y-86419027D01*
X75970676Y-86419011D01*
X76019311Y-86417053D01*
X76063824Y-86411832D01*
X76108028Y-86402321D01*
X76126436Y-86396703D01*
X76169775Y-86378379D01*
X76209145Y-86352642D01*
X76218944Y-86344120D01*
X76248318Y-86309914D01*
X76270034Y-86268891D01*
X76279810Y-86239130D01*
X76287868Y-86195338D01*
X76290258Y-86151068D01*
X76290258Y-85994777D01*
X75639375Y-85994777D01*
X75544633Y-85994777D01*
X75544633Y-85883329D01*
X76385000Y-85883329D01*
X76385000Y-86158322D01*
G37*
G36*
X76170017Y-86661047D02*
G01*
X76170017Y-86772495D01*
X76212717Y-86787663D01*
X76225411Y-86795356D01*
X76258178Y-86825732D01*
X76267397Y-86838221D01*
X76287742Y-86877929D01*
X76294654Y-86898451D01*
X76302730Y-86941730D01*
X76304326Y-86974289D01*
X76301351Y-87019681D01*
X76290526Y-87065025D01*
X76286301Y-87075845D01*
X76262759Y-87115228D01*
X76235083Y-87140911D01*
X76194303Y-87159396D01*
X76157487Y-87163772D01*
X76113818Y-87156479D01*
X76076819Y-87132622D01*
X76074836Y-87130580D01*
X76048264Y-87091553D01*
X76031180Y-87048647D01*
X76025157Y-87027704D01*
X75986688Y-86882404D01*
X75972417Y-86837747D01*
X75952283Y-86795368D01*
X75939427Y-86775133D01*
X75909590Y-86740469D01*
X75872019Y-86712201D01*
X75863810Y-86707649D01*
X75822450Y-86691720D01*
X75776463Y-86684712D01*
X75762473Y-86684348D01*
X75715103Y-86688815D01*
X75671524Y-86702218D01*
X75635198Y-86722157D01*
X75599696Y-86751548D01*
X75569959Y-86787433D01*
X75547930Y-86825691D01*
X75531354Y-86868573D01*
X75520917Y-86915061D01*
X75516773Y-86959984D01*
X75516496Y-86975607D01*
X75518722Y-87020428D01*
X75526416Y-87066598D01*
X75539605Y-87108948D01*
X75544633Y-87120907D01*
X75566523Y-87161241D01*
X75596208Y-87198310D01*
X75622449Y-87221365D01*
X75661522Y-87245136D01*
X75704551Y-87260066D01*
X75735436Y-87265108D01*
X75735436Y-87153880D01*
X75693919Y-87139299D01*
X75669710Y-87122446D01*
X75641159Y-87088928D01*
X75626625Y-87060457D01*
X75614619Y-87017107D01*
X75611238Y-86973189D01*
X75615081Y-86926345D01*
X75628184Y-86881808D01*
X75650586Y-86844596D01*
X75683270Y-86814858D01*
X75726213Y-86798131D01*
X75752581Y-86795796D01*
X75796366Y-86804357D01*
X75828199Y-86826131D01*
X75854687Y-86863170D01*
X75871553Y-86906579D01*
X75873482Y-86913619D01*
X75911510Y-87056501D01*
X75925043Y-87100172D01*
X75942309Y-87142459D01*
X75962069Y-87178720D01*
X75989110Y-87213985D01*
X76023587Y-87242957D01*
X76037247Y-87251040D01*
X76079682Y-87267569D01*
X76124812Y-87274630D01*
X76143639Y-87275220D01*
X76190067Y-87271485D01*
X76232631Y-87260279D01*
X76274988Y-87239325D01*
X76278607Y-87236972D01*
X76315111Y-87207061D01*
X76345433Y-87169617D01*
X76367634Y-87129041D01*
X76382829Y-87087617D01*
X76393051Y-87041985D01*
X76397963Y-86997891D01*
X76399068Y-86962638D01*
X76396749Y-86914879D01*
X76389794Y-86870520D01*
X76382581Y-86842837D01*
X76366864Y-86801652D01*
X76344745Y-86762655D01*
X76335540Y-86750074D01*
X76304274Y-86717123D01*
X76268178Y-86691225D01*
X76263000Y-86688305D01*
X76221659Y-86670929D01*
X76176356Y-86661669D01*
X76170017Y-86661047D01*
G37*
G36*
X76385000Y-87482069D02*
G01*
X76142100Y-87564501D01*
X76142100Y-87874006D01*
X76385000Y-87956438D01*
X76385000Y-88075799D01*
X75540896Y-87779264D01*
X75540896Y-87721452D01*
X75674326Y-87721452D01*
X76047358Y-87845210D01*
X76047358Y-87594177D01*
X75674326Y-87717055D01*
X75674326Y-87721452D01*
X75540896Y-87721452D01*
X75540896Y-87661881D01*
X76385000Y-87364686D01*
X76385000Y-87482069D01*
G37*
G36*
X76385000Y-88331888D02*
G01*
X76071758Y-88331888D01*
X76071758Y-88526867D01*
X76071726Y-88531944D01*
X76067836Y-88580467D01*
X76057463Y-88624911D01*
X76038565Y-88669090D01*
X76015150Y-88704325D01*
X75983541Y-88736885D01*
X75945802Y-88762952D01*
X75942061Y-88764994D01*
X75898558Y-88783179D01*
X75855269Y-88792903D01*
X75808415Y-88796145D01*
X75803543Y-88796112D01*
X75756875Y-88792223D01*
X75713941Y-88781850D01*
X75671029Y-88762952D01*
X75636562Y-88739682D01*
X75604401Y-88707937D01*
X75578265Y-88669749D01*
X75574193Y-88662164D01*
X75556490Y-88617435D01*
X75547293Y-88572355D01*
X75544633Y-88528186D01*
X75544633Y-88331888D01*
X75639375Y-88331888D01*
X75639375Y-88519393D01*
X75642853Y-88560860D01*
X75656548Y-88603937D01*
X75683339Y-88641392D01*
X75717901Y-88666047D01*
X75761140Y-88680468D01*
X75807976Y-88684697D01*
X75811299Y-88684678D01*
X75857490Y-88679806D01*
X75899200Y-88665133D01*
X75928875Y-88644733D01*
X75957013Y-88608859D01*
X75972621Y-88565436D01*
X75977016Y-88519393D01*
X75977016Y-88331888D01*
X75639375Y-88331888D01*
X75544633Y-88331888D01*
X75544633Y-88220440D01*
X76385000Y-88220440D01*
X76385000Y-88331888D01*
G37*
G36*
X77288322Y-86136340D02*
G01*
X77288322Y-86024892D01*
X77284145Y-86024892D01*
X77240247Y-86028708D01*
X77195232Y-86041189D01*
X77192481Y-86042257D01*
X77153184Y-86062160D01*
X77118138Y-86089308D01*
X77113786Y-86093475D01*
X77084571Y-86128944D01*
X77062969Y-86168410D01*
X77059051Y-86177666D01*
X77045957Y-86221142D01*
X77039796Y-86265845D01*
X77038828Y-86293950D01*
X77041790Y-86342078D01*
X77050677Y-86386171D01*
X77067296Y-86430011D01*
X77069163Y-86433754D01*
X77092719Y-86471514D01*
X77124579Y-86505420D01*
X77152694Y-86525858D01*
X77194374Y-86545683D01*
X77239948Y-86556358D01*
X77272495Y-86558391D01*
X77317316Y-86554647D01*
X77361511Y-86542324D01*
X77369875Y-86538828D01*
X77410559Y-86517637D01*
X77447573Y-86492717D01*
X77455384Y-86486731D01*
X77492344Y-86457110D01*
X77528095Y-86427194D01*
X77542212Y-86415070D01*
X77802258Y-86190855D01*
X77802258Y-86573559D01*
X77897000Y-86573559D01*
X77897000Y-86024892D01*
X77830394Y-86024892D01*
X77466595Y-86348685D01*
X77432214Y-86377553D01*
X77410761Y-86394627D01*
X77373031Y-86419837D01*
X77348992Y-86431996D01*
X77305286Y-86444841D01*
X77276672Y-86446943D01*
X77231254Y-86440614D01*
X77200834Y-86426940D01*
X77167732Y-86397916D01*
X77151155Y-86371985D01*
X77136936Y-86330061D01*
X77133570Y-86293510D01*
X77138955Y-86247568D01*
X77155112Y-86208660D01*
X77183659Y-86174201D01*
X77211825Y-86154805D01*
X77253340Y-86139874D01*
X77288322Y-86136340D01*
G37*
G36*
X77530120Y-86732698D02*
G01*
X77574695Y-86736036D01*
X77623788Y-86743096D01*
X77669747Y-86753563D01*
X77712572Y-86767439D01*
X77751734Y-86784544D01*
X77791597Y-86807827D01*
X77826239Y-86835095D01*
X77858971Y-86870534D01*
X77876676Y-86896897D01*
X77896365Y-86940092D01*
X77907812Y-86987670D01*
X77911068Y-87033639D01*
X77908738Y-87072838D01*
X77899562Y-87117394D01*
X77881612Y-87161793D01*
X77862974Y-87192145D01*
X77831686Y-87228178D01*
X77796542Y-87256755D01*
X77793045Y-87259155D01*
X77751802Y-87283144D01*
X77709891Y-87301120D01*
X77663772Y-87315447D01*
X77629068Y-87323327D01*
X77581945Y-87330614D01*
X77537692Y-87334406D01*
X77491214Y-87335670D01*
X77460000Y-87335670D01*
X77420910Y-87334806D01*
X77376171Y-87331488D01*
X77326963Y-87324472D01*
X77280974Y-87314069D01*
X77238203Y-87300279D01*
X77198945Y-87283367D01*
X77158972Y-87260303D01*
X77124220Y-87233255D01*
X77091364Y-87198063D01*
X77073510Y-87171902D01*
X77053655Y-87128834D01*
X77042111Y-87081175D01*
X77038828Y-87034958D01*
X77038898Y-87033639D01*
X77133570Y-87033639D01*
X77134953Y-87055301D01*
X77147441Y-87098151D01*
X77172917Y-87135415D01*
X77203869Y-87162422D01*
X77242926Y-87184805D01*
X77285464Y-87201141D01*
X77318921Y-87210134D01*
X77365863Y-87218452D01*
X77411297Y-87222779D01*
X77460220Y-87224222D01*
X77490335Y-87224222D01*
X77527347Y-87223410D01*
X77573619Y-87219804D01*
X77621471Y-87212298D01*
X77664871Y-87201141D01*
X77703262Y-87186610D01*
X77742958Y-87164648D01*
X77777198Y-87135415D01*
X77790496Y-87118911D01*
X77809868Y-87079068D01*
X77816326Y-87033639D01*
X77814951Y-87012410D01*
X77802532Y-86970073D01*
X77777198Y-86932742D01*
X77746173Y-86905684D01*
X77707199Y-86883145D01*
X77664871Y-86866577D01*
X77631500Y-86857498D01*
X77584637Y-86849102D01*
X77539245Y-86844733D01*
X77490335Y-86843276D01*
X77460220Y-86843276D01*
X77423200Y-86844096D01*
X77376894Y-86847736D01*
X77328971Y-86855314D01*
X77285464Y-86866577D01*
X77246878Y-86881320D01*
X77207085Y-86903448D01*
X77172917Y-86932742D01*
X77159545Y-86949350D01*
X77140064Y-86988991D01*
X77133570Y-87033639D01*
X77038898Y-87033639D01*
X77040675Y-86999932D01*
X77048884Y-86956333D01*
X77065968Y-86911520D01*
X77091364Y-86871193D01*
X77120284Y-86839333D01*
X77154507Y-86811458D01*
X77194033Y-86787566D01*
X77238863Y-86767659D01*
X77275504Y-86755482D01*
X77321065Y-86744460D01*
X77369655Y-86736867D01*
X77413715Y-86733088D01*
X77460000Y-86731828D01*
X77491214Y-86731828D01*
X77530120Y-86732698D01*
G37*
G36*
X77288322Y-87610883D02*
G01*
X77288322Y-87499435D01*
X77284145Y-87499435D01*
X77240247Y-87503250D01*
X77195232Y-87515732D01*
X77192481Y-87516800D01*
X77153184Y-87536703D01*
X77118138Y-87563851D01*
X77113786Y-87568018D01*
X77084571Y-87603486D01*
X77062969Y-87642952D01*
X77059051Y-87652209D01*
X77045957Y-87695684D01*
X77039796Y-87740388D01*
X77038828Y-87768493D01*
X77041790Y-87816621D01*
X77050677Y-87860713D01*
X77067296Y-87904554D01*
X77069163Y-87908297D01*
X77092719Y-87946057D01*
X77124579Y-87979963D01*
X77152694Y-88000401D01*
X77194374Y-88020226D01*
X77239948Y-88030901D01*
X77272495Y-88032934D01*
X77317316Y-88029190D01*
X77361511Y-88016867D01*
X77369875Y-88013371D01*
X77410559Y-87992180D01*
X77447573Y-87967260D01*
X77455384Y-87961274D01*
X77492344Y-87931653D01*
X77528095Y-87901737D01*
X77542212Y-87889613D01*
X77802258Y-87665398D01*
X77802258Y-88048102D01*
X77897000Y-88048102D01*
X77897000Y-87499435D01*
X77830394Y-87499435D01*
X77466595Y-87823227D01*
X77432214Y-87852096D01*
X77410761Y-87869170D01*
X77373031Y-87894380D01*
X77348992Y-87906539D01*
X77305286Y-87919384D01*
X77276672Y-87921486D01*
X77231254Y-87915157D01*
X77200834Y-87901483D01*
X77167732Y-87872459D01*
X77151155Y-87846528D01*
X77136936Y-87804604D01*
X77133570Y-87768053D01*
X77138955Y-87722111D01*
X77155112Y-87683203D01*
X77183659Y-87648744D01*
X77211825Y-87629348D01*
X77253340Y-87614417D01*
X77288322Y-87610883D01*
G37*
G36*
X77724442Y-88574787D02*
G01*
X77897000Y-88574787D01*
X77897000Y-88686235D01*
X77724442Y-88686235D01*
X77724442Y-88785813D01*
X77629700Y-88785813D01*
X77629700Y-88686235D01*
X77052896Y-88686235D01*
X77052896Y-88574787D01*
X77151375Y-88574787D01*
X77629700Y-88574787D01*
X77629700Y-88278692D01*
X77592488Y-88299467D01*
X77547521Y-88325021D01*
X77502214Y-88351255D01*
X77464199Y-88373636D01*
X77425948Y-88396489D01*
X77387460Y-88419815D01*
X77356699Y-88438682D01*
X77318750Y-88462159D01*
X77281360Y-88485518D01*
X77237228Y-88513393D01*
X77193900Y-88541097D01*
X77151375Y-88568632D01*
X77151375Y-88574787D01*
X77052896Y-88574787D01*
X77052896Y-88515656D01*
X77070893Y-88504496D01*
X77115877Y-88476558D01*
X77160851Y-88448567D01*
X77205814Y-88420522D01*
X77250766Y-88392423D01*
X77295708Y-88364270D01*
X77340639Y-88336064D01*
X77358612Y-88324816D01*
X77403576Y-88297085D01*
X77448583Y-88269913D01*
X77493633Y-88243298D01*
X77538726Y-88217242D01*
X77583862Y-88191744D01*
X77629041Y-88166804D01*
X77724442Y-88166804D01*
X77724442Y-88574787D01*
G37*
D11*
X74450000Y-77600000D02*
X75250000Y-77600000D01*
X75250000Y-81050000D01*
X74450000Y-81050000D01*
X74450000Y-77600000D01*
G36*
X74450000Y-77600000D02*
G01*
X75250000Y-77600000D01*
X75250000Y-81050000D01*
X74450000Y-81050000D01*
X74450000Y-77600000D01*
G37*
D12*
X76850000Y-80450000D02*
G75*
G02*
X76450000Y-80850000I-400000J0D01*
G01*
X76450000Y-77800000D02*
G75*
G02*
X76850000Y-78200000I0J-400000D01*
G01*
X76450000Y-80850000D02*
X74875000Y-80850000D01*
X76850000Y-78200000D02*
X76850000Y-80450000D01*
X74875000Y-77800000D02*
X76450000Y-77800000D01*
D13*
G36*
X76050160Y-78433770D02*
G01*
X76113846Y-78441206D01*
X76172102Y-78454738D01*
X76240811Y-78481805D01*
X76298622Y-78518609D01*
X76344823Y-78564522D01*
X76378704Y-78618915D01*
X76399554Y-78681160D01*
X76406662Y-78750628D01*
X76404842Y-78786660D01*
X76390577Y-78853140D01*
X76362817Y-78911726D01*
X76322366Y-78961884D01*
X76270028Y-79003078D01*
X76206606Y-79034772D01*
X76132904Y-79056429D01*
X76071365Y-79065763D01*
X76004834Y-79068925D01*
X76003076Y-79068925D01*
X75957853Y-79067488D01*
X75894297Y-79060067D01*
X75836146Y-79046558D01*
X75767542Y-79019528D01*
X75709801Y-78982756D01*
X75663642Y-78936862D01*
X75629782Y-78882464D01*
X75608940Y-78820180D01*
X75601833Y-78750628D01*
X75603619Y-78715175D01*
X75617639Y-78649422D01*
X75645012Y-78591087D01*
X75685040Y-78540831D01*
X75737025Y-78499313D01*
X75800271Y-78467192D01*
X75874080Y-78445128D01*
X75935950Y-78435576D01*
X76003076Y-78432330D01*
X76004834Y-78432330D01*
X76050160Y-78433770D01*
G37*
G36*
X76749849Y-80617010D02*
G01*
X75258647Y-80617010D01*
X75258647Y-79480425D01*
X75412496Y-79480425D01*
X75412496Y-79697020D01*
X76181861Y-80231912D01*
X76181861Y-80236894D01*
X75412496Y-80236894D01*
X75412496Y-80483677D01*
X76596000Y-80483677D01*
X76596000Y-80268841D01*
X75821066Y-79732484D01*
X75821066Y-79727501D01*
X76596000Y-79727501D01*
X76596000Y-79480425D01*
X75412496Y-79480425D01*
X75258647Y-79480425D01*
X75258647Y-78750628D01*
X75391980Y-78750628D01*
X75394715Y-78814903D01*
X75402827Y-78875971D01*
X75416176Y-78933703D01*
X75445718Y-79013760D01*
X75486262Y-79085580D01*
X75537339Y-79148725D01*
X75598480Y-79202758D01*
X75669215Y-79247241D01*
X75749075Y-79281737D01*
X75807153Y-79298969D01*
X75868938Y-79311439D01*
X75934292Y-79319015D01*
X76003076Y-79321570D01*
X76004834Y-79321570D01*
X76073721Y-79319025D01*
X76139165Y-79311475D01*
X76201029Y-79299045D01*
X76259173Y-79281860D01*
X76339115Y-79247446D01*
X76409912Y-79203042D01*
X76471097Y-79149074D01*
X76522203Y-79085966D01*
X76562765Y-79014143D01*
X76592316Y-78934029D01*
X76605668Y-78876224D01*
X76613781Y-78815048D01*
X76616516Y-78750628D01*
X76613781Y-78686256D01*
X76605668Y-78625116D01*
X76592316Y-78567335D01*
X76562765Y-78487240D01*
X76522203Y-78415418D01*
X76471097Y-78352298D01*
X76409912Y-78298308D01*
X76339115Y-78253878D01*
X76259173Y-78219436D01*
X76201029Y-78202236D01*
X76139165Y-78189793D01*
X76073721Y-78182234D01*
X76004834Y-78179686D01*
X76003076Y-78179686D01*
X75934147Y-78182250D01*
X75868686Y-78189853D01*
X75806826Y-78202361D01*
X75748704Y-78219642D01*
X75668825Y-78254219D01*
X75598115Y-78298781D01*
X75537031Y-78352879D01*
X75486030Y-78416062D01*
X75445568Y-78487879D01*
X75416101Y-78567879D01*
X75402791Y-78625537D01*
X75394705Y-78686497D01*
X75391980Y-78750628D01*
X75258647Y-78750628D01*
X75258647Y-78046353D01*
X76749849Y-78046353D01*
X76749849Y-80617010D01*
G37*
D14*
G36*
X81853553Y-76962421D02*
G01*
X81617981Y-77011514D01*
X81617981Y-77365788D01*
X81611183Y-77443047D01*
X81588003Y-77518196D01*
X81548372Y-77583042D01*
X81493294Y-77635846D01*
X81424276Y-77674363D01*
X81349436Y-77696982D01*
X81347238Y-77697348D01*
X81272469Y-77705956D01*
X81198143Y-77694278D01*
X81149035Y-77666207D01*
X81104203Y-77606966D01*
X81083105Y-77531137D01*
X81079792Y-77477530D01*
X81079792Y-77123255D01*
X80844220Y-77172348D01*
X80844220Y-77596964D01*
X80849204Y-77678018D01*
X80864158Y-77750958D01*
X80892465Y-77822484D01*
X80907234Y-77848290D01*
X80956322Y-77909866D01*
X81017446Y-77957069D01*
X81083456Y-77987509D01*
X81157931Y-78005104D01*
X81231321Y-78009132D01*
X81310739Y-78001974D01*
X81347971Y-77995202D01*
X81349802Y-77994836D01*
X81423579Y-77975487D01*
X81492501Y-77949315D01*
X81564236Y-77911715D01*
X81615783Y-77876500D01*
X81675433Y-77824913D01*
X81727027Y-77767007D01*
X81770565Y-77702785D01*
X81791271Y-77664375D01*
X81821378Y-77591484D01*
X81841632Y-77514594D01*
X81852033Y-77433704D01*
X81853553Y-77387038D01*
X81853553Y-76962421D01*
G37*
G36*
X82322500Y-76715126D02*
G01*
X80844220Y-77022505D01*
X80844220Y-77320359D01*
X82322500Y-77012980D01*
X82322500Y-76715126D01*
G37*
G36*
X81911257Y-78103335D02*
G01*
X81989108Y-78120132D01*
X81999725Y-78123310D01*
X82069777Y-78150403D01*
X82140691Y-78191757D01*
X82201851Y-78244193D01*
X82253257Y-78307711D01*
X82279959Y-78352752D01*
X82309740Y-78422120D01*
X82330649Y-78498851D01*
X82342688Y-78582945D01*
X82345947Y-78660886D01*
X82345585Y-78687747D01*
X82340154Y-78766422D01*
X82328205Y-78842238D01*
X82309740Y-78915194D01*
X82284757Y-78985292D01*
X82253257Y-79052530D01*
X82241320Y-79074252D01*
X82201851Y-79136862D01*
X82156896Y-79195633D01*
X82106453Y-79250567D01*
X82050524Y-79301662D01*
X81989108Y-79348918D01*
X81956478Y-79370953D01*
X81887913Y-79411216D01*
X81814944Y-79446404D01*
X81737569Y-79476517D01*
X81655790Y-79501556D01*
X81584275Y-79518545D01*
X81582444Y-79518911D01*
X81496659Y-79533706D01*
X81415433Y-79541546D01*
X81338767Y-79542430D01*
X81255086Y-79534671D01*
X81177611Y-79517446D01*
X81167062Y-79514246D01*
X81097446Y-79487060D01*
X81026944Y-79445730D01*
X80966104Y-79393454D01*
X80914928Y-79330234D01*
X80888120Y-79285404D01*
X80858222Y-79216271D01*
X80837229Y-79139706D01*
X80825143Y-79055707D01*
X80821871Y-78977791D01*
X80822232Y-78951193D01*
X80824121Y-78923936D01*
X81079792Y-78923936D01*
X81083616Y-78982325D01*
X81103691Y-79059433D01*
X81140975Y-79123971D01*
X81179447Y-79163721D01*
X81243366Y-79203830D01*
X81314631Y-79227652D01*
X81350826Y-79234358D01*
X81429494Y-79239238D01*
X81507453Y-79233903D01*
X81582444Y-79221423D01*
X81584275Y-79221057D01*
X81640424Y-79207688D01*
X81710880Y-79185454D01*
X81784122Y-79154420D01*
X81850989Y-79117010D01*
X81864896Y-79107911D01*
X81928509Y-79058723D01*
X81982247Y-79003382D01*
X82026111Y-78941888D01*
X82033608Y-78928935D01*
X82063841Y-78861637D01*
X82081980Y-78790117D01*
X82088026Y-78714375D01*
X82084180Y-78655688D01*
X82063984Y-78578391D01*
X82026477Y-78513974D01*
X81987621Y-78474726D01*
X81923282Y-78434926D01*
X81851721Y-78411026D01*
X81815439Y-78404425D01*
X81736757Y-78399702D01*
X81658968Y-78405118D01*
X81584275Y-78417620D01*
X81582444Y-78417987D01*
X81525325Y-78431618D01*
X81453976Y-78454161D01*
X81380276Y-78485488D01*
X81313532Y-78523133D01*
X81299676Y-78532319D01*
X81236493Y-78581814D01*
X81183470Y-78637249D01*
X81140608Y-78698622D01*
X81136867Y-78705097D01*
X81105983Y-78771858D01*
X81085731Y-78849511D01*
X81079792Y-78923936D01*
X80824121Y-78923936D01*
X80827642Y-78873148D01*
X80839543Y-78797732D01*
X80857935Y-78724943D01*
X80882820Y-78654781D01*
X80914195Y-78587247D01*
X80926042Y-78565391D01*
X80965257Y-78502434D01*
X81009985Y-78443392D01*
X81060226Y-78388265D01*
X81115979Y-78337054D01*
X81177245Y-78289759D01*
X81209754Y-78267725D01*
X81278172Y-78227462D01*
X81351125Y-78192274D01*
X81428611Y-78162160D01*
X81510631Y-78137122D01*
X81582444Y-78120132D01*
X81584275Y-78119766D01*
X81669726Y-78104933D01*
X81750771Y-78096977D01*
X81827411Y-78095900D01*
X81911257Y-78103335D01*
G37*
G36*
X82322500Y-79852303D02*
G01*
X80833595Y-79778297D01*
X80833595Y-80092271D01*
X81900448Y-80099599D01*
X81900448Y-80105460D01*
X80833595Y-80594190D01*
X80833595Y-80859438D01*
X81900448Y-80904867D01*
X81900448Y-80911096D01*
X80833595Y-81362456D01*
X80833595Y-81676430D01*
X82322500Y-80982537D01*
X82322500Y-80686514D01*
X81324890Y-80627896D01*
X81324890Y-80622400D01*
X82322500Y-80147959D01*
X82322500Y-79852303D01*
G37*
G36*
X82322500Y-81567254D02*
G01*
X80845319Y-81874267D01*
X80845319Y-82837439D01*
X81103239Y-82783950D01*
X81103239Y-82118632D01*
X81453850Y-82045726D01*
X81453850Y-82665248D01*
X81689422Y-82616155D01*
X81689422Y-81996633D01*
X82064579Y-81918597D01*
X82064579Y-82583915D01*
X82322500Y-82530426D01*
X82322500Y-81567254D01*
G37*
G36*
X82322500Y-83068248D02*
G01*
X81783211Y-83180356D01*
X81783211Y-83409333D01*
X81783211Y-83417393D01*
X81783211Y-83424354D01*
X82322500Y-83582624D01*
X82322500Y-83914183D01*
X81737049Y-83740893D01*
X81720459Y-83779331D01*
X81682573Y-83844327D01*
X81634369Y-83903932D01*
X81575849Y-83958147D01*
X81539694Y-83985267D01*
X81470693Y-84026508D01*
X81396649Y-84058013D01*
X81317562Y-84079780D01*
X81315364Y-84080513D01*
X81297073Y-84084043D01*
X81218837Y-84093236D01*
X81139725Y-84090603D01*
X81062206Y-84072086D01*
X81000898Y-84041554D01*
X80944698Y-83993505D01*
X80900273Y-83930303D01*
X80884125Y-83896842D01*
X80860040Y-83821494D01*
X80847723Y-83744076D01*
X80844220Y-83667620D01*
X80844220Y-83585555D01*
X81079792Y-83585555D01*
X81080771Y-83612837D01*
X81097473Y-83688697D01*
X81142440Y-83751884D01*
X81167492Y-83769276D01*
X81238067Y-83789122D01*
X81312067Y-83783025D01*
X81314265Y-83782659D01*
X81359786Y-83770126D01*
X81427380Y-83736570D01*
X81485724Y-83683008D01*
X81515653Y-83637010D01*
X81540323Y-83566574D01*
X81547639Y-83492865D01*
X81547639Y-83229449D01*
X81079792Y-83326535D01*
X81079792Y-83585555D01*
X80844220Y-83585555D01*
X80844220Y-83077774D01*
X82322500Y-82770394D01*
X82322500Y-83068248D01*
G37*
D15*
X114350000Y-86050000D02*
G75*
G02*
X113350000Y-87050000I-1000000J0D01*
G01*
X113950000Y-82200000D02*
G75*
G02*
X114350000Y-82600000I0J-400000D01*
G01*
X100400000Y-82200000D02*
X113950000Y-82200000D01*
X100000000Y-86050000D02*
X100000000Y-82600000D01*
X100000000Y-82600000D02*
G75*
G02*
X100400000Y-82200000I400000J0D01*
G01*
X114350000Y-82600000D02*
X114350000Y-86050000D01*
X113350000Y-87050000D02*
X101007107Y-87050000D01*
X101000000Y-87050000D02*
G75*
G02*
X100000000Y-86050000I0J1000000D01*
G01*
D16*
G36*
X88349958Y-91860000D02*
G01*
X88105519Y-91860000D01*
X88085284Y-91859625D01*
X88040539Y-91855840D01*
X87999254Y-91847978D01*
X87961428Y-91836039D01*
X87922435Y-91817404D01*
X87887972Y-91793468D01*
X87858053Y-91764452D01*
X87832676Y-91730355D01*
X87811842Y-91691179D01*
X87797376Y-91652854D01*
X87786463Y-91610882D01*
X87779938Y-91572004D01*
X87776022Y-91530446D01*
X87774746Y-91487187D01*
X87873782Y-91487187D01*
X87873796Y-91491712D01*
X87875537Y-91534943D01*
X87880177Y-91574510D01*
X87888632Y-91613803D01*
X87893625Y-91630165D01*
X87909913Y-91668689D01*
X87932791Y-91703684D01*
X87940365Y-91712394D01*
X87970771Y-91738505D01*
X88007236Y-91757808D01*
X88033690Y-91766498D01*
X88072616Y-91773660D01*
X88111967Y-91775785D01*
X88250893Y-91775785D01*
X88250893Y-91197222D01*
X88111967Y-91197222D01*
X88097187Y-91197505D01*
X88055730Y-91201756D01*
X88014743Y-91212461D01*
X87979099Y-91229462D01*
X87975816Y-91231509D01*
X87943150Y-91258176D01*
X87918943Y-91289031D01*
X87899965Y-91326182D01*
X87887308Y-91364908D01*
X87879535Y-91403639D01*
X87875035Y-91446424D01*
X87873782Y-91487187D01*
X87774746Y-91487187D01*
X87774717Y-91486210D01*
X87776022Y-91441848D01*
X87779938Y-91400206D01*
X87786463Y-91361285D01*
X87797376Y-91319314D01*
X87811842Y-91281046D01*
X87832676Y-91241980D01*
X87858053Y-91208018D01*
X87887972Y-91179160D01*
X87922435Y-91155408D01*
X87941367Y-91145470D01*
X87982619Y-91129570D01*
X88022422Y-91120005D01*
X88065684Y-91114498D01*
X88105519Y-91113007D01*
X88349958Y-91113007D01*
X88349958Y-91860000D01*
G37*
G36*
X87389923Y-91272284D02*
G01*
X87430773Y-91275948D01*
X87468874Y-91285717D01*
X87507613Y-91303517D01*
X87541965Y-91328081D01*
X87570867Y-91358786D01*
X87592414Y-91392030D01*
X87599604Y-91406639D01*
X87613385Y-91446180D01*
X87620664Y-91485453D01*
X87623091Y-91528220D01*
X87623091Y-91616538D01*
X87622835Y-91631081D01*
X87618997Y-91672482D01*
X87609330Y-91714568D01*
X87593977Y-91752533D01*
X87573159Y-91785879D01*
X87544485Y-91816654D01*
X87509762Y-91841242D01*
X87499275Y-91846829D01*
X87461540Y-91861483D01*
X87419530Y-91870032D01*
X87378066Y-91872505D01*
X87361435Y-91872142D01*
X87321408Y-91867806D01*
X87283496Y-91857655D01*
X87248637Y-91841704D01*
X87216085Y-91819162D01*
X87197327Y-91801164D01*
X87173879Y-91769337D01*
X87167858Y-91757860D01*
X87155512Y-91719316D01*
X87257704Y-91719316D01*
X87278611Y-91753119D01*
X87284889Y-91758841D01*
X87320034Y-91778715D01*
X87338509Y-91784166D01*
X87378653Y-91788290D01*
X87419701Y-91783729D01*
X87457272Y-91768178D01*
X87486901Y-91741591D01*
X87508038Y-91706968D01*
X87520401Y-91667313D01*
X87524026Y-91626894D01*
X87524026Y-91597390D01*
X87147892Y-91597390D01*
X87147892Y-91527438D01*
X87147987Y-91522358D01*
X87246957Y-91522358D01*
X87524026Y-91522358D01*
X87523875Y-91513124D01*
X87519173Y-91472893D01*
X87506831Y-91435017D01*
X87487480Y-91403581D01*
X87458178Y-91376985D01*
X87424180Y-91361598D01*
X87385101Y-91356468D01*
X87350837Y-91360171D01*
X87312609Y-91375812D01*
X87286532Y-91397511D01*
X87264347Y-91430718D01*
X87262241Y-91435185D01*
X87250286Y-91474215D01*
X87246957Y-91513175D01*
X87246957Y-91518060D01*
X87246957Y-91522358D01*
X87147987Y-91522358D01*
X87148160Y-91513037D01*
X87152178Y-91471998D01*
X87162299Y-91430206D01*
X87178374Y-91392421D01*
X87199695Y-91359158D01*
X87228394Y-91328387D01*
X87262588Y-91303712D01*
X87265950Y-91301777D01*
X87304995Y-91284542D01*
X87343776Y-91275326D01*
X87385687Y-91272254D01*
X87389923Y-91272284D01*
G37*
G36*
X87010334Y-91446545D02*
G01*
X87006733Y-91407177D01*
X86993189Y-91367557D01*
X86979853Y-91346894D01*
X86952023Y-91319005D01*
X86918066Y-91297888D01*
X86900327Y-91290425D01*
X86862583Y-91279352D01*
X86822915Y-91273389D01*
X86795401Y-91272254D01*
X86754330Y-91274724D01*
X86713897Y-91283054D01*
X86686566Y-91293161D01*
X86652327Y-91312792D01*
X86623027Y-91339848D01*
X86614466Y-91350997D01*
X86596701Y-91385854D01*
X86588884Y-91425797D01*
X86588478Y-91438143D01*
X86681877Y-91438143D01*
X86695541Y-91400629D01*
X86696336Y-91399455D01*
X86725418Y-91373300D01*
X86734438Y-91368583D01*
X86772902Y-91357900D01*
X86797550Y-91356468D01*
X86837610Y-91360769D01*
X86875151Y-91376218D01*
X86879225Y-91378939D01*
X86905136Y-91410242D01*
X86911270Y-91443224D01*
X86900678Y-91481627D01*
X86898374Y-91484647D01*
X86866958Y-91508117D01*
X86864375Y-91509267D01*
X86825982Y-91521462D01*
X86818262Y-91523140D01*
X86779779Y-91530534D01*
X86769218Y-91532519D01*
X86730237Y-91540396D01*
X86690984Y-91551161D01*
X86671130Y-91557920D01*
X86635723Y-91575028D01*
X86605341Y-91599832D01*
X86600202Y-91605596D01*
X86581128Y-91640401D01*
X86574043Y-91679455D01*
X86573628Y-91693133D01*
X86577695Y-91733799D01*
X86591279Y-91772397D01*
X86602547Y-91790830D01*
X86629880Y-91820215D01*
X86664889Y-91843280D01*
X86683635Y-91851793D01*
X86721423Y-91863585D01*
X86763320Y-91870482D01*
X86804975Y-91872505D01*
X86847592Y-91870219D01*
X86886516Y-91863362D01*
X86918695Y-91853161D01*
X86954996Y-91834541D01*
X86986155Y-91807998D01*
X86995289Y-91796887D01*
X87014123Y-91761299D01*
X87022167Y-91722693D01*
X87022840Y-91706420D01*
X86920844Y-91706420D01*
X86907433Y-91744276D01*
X86903454Y-91750188D01*
X86871939Y-91775010D01*
X86864180Y-91778325D01*
X86824349Y-91787112D01*
X86798918Y-91788290D01*
X86758422Y-91785163D01*
X86726427Y-91775785D01*
X86694033Y-91753771D01*
X86685589Y-91742958D01*
X86673008Y-91705328D01*
X86672693Y-91697627D01*
X86682585Y-91659256D01*
X86691842Y-91648583D01*
X86726434Y-91628285D01*
X86743817Y-91622595D01*
X86782814Y-91612855D01*
X86816308Y-91605792D01*
X86855115Y-91597072D01*
X86894117Y-91586138D01*
X86913810Y-91579609D01*
X86951162Y-91561648D01*
X86982486Y-91535203D01*
X86984152Y-91533300D01*
X87002945Y-91498959D01*
X87009925Y-91460168D01*
X87010334Y-91446545D01*
G37*
G36*
X86403831Y-91860000D02*
G01*
X86403831Y-91284759D01*
X86304766Y-91284759D01*
X86304766Y-91860000D01*
X86403831Y-91860000D01*
G37*
G36*
X86428841Y-91103824D02*
G01*
X86418848Y-91065760D01*
X86409497Y-91053998D01*
X86373362Y-91035580D01*
X86361235Y-91034654D01*
X86322969Y-91044647D01*
X86311018Y-91053998D01*
X86292517Y-91089279D01*
X86291284Y-91103824D01*
X86302384Y-91142548D01*
X86311018Y-91152868D01*
X86346666Y-91171003D01*
X86361235Y-91172212D01*
X86399153Y-91161331D01*
X86409497Y-91152868D01*
X86427632Y-91118026D01*
X86428841Y-91103824D01*
G37*
G36*
X85947623Y-91275097D02*
G01*
X85986844Y-91284792D01*
X86023203Y-91301367D01*
X86052893Y-91321960D01*
X86080793Y-91350430D01*
X86103705Y-91384996D01*
X86109013Y-91395408D01*
X86122935Y-91432869D01*
X86131056Y-91474566D01*
X86133405Y-91515715D01*
X86133405Y-91605010D01*
X86133144Y-91619005D01*
X86129228Y-91658783D01*
X86119367Y-91699102D01*
X86103705Y-91735338D01*
X86083063Y-91766910D01*
X86055552Y-91795865D01*
X86023007Y-91818771D01*
X85989989Y-91833918D01*
X85951023Y-91844100D01*
X85909288Y-91847494D01*
X85892922Y-91846922D01*
X85854187Y-91840265D01*
X85844840Y-91837375D01*
X85808464Y-91820725D01*
X85803424Y-91817541D01*
X85773098Y-91792002D01*
X85771268Y-91789939D01*
X85750237Y-91756245D01*
X85744766Y-91756245D01*
X85744766Y-91840265D01*
X85747687Y-91876164D01*
X85759191Y-91913660D01*
X85781695Y-91946559D01*
X85814604Y-91970016D01*
X85854184Y-91982007D01*
X85893265Y-91985052D01*
X85917611Y-91983851D01*
X85957550Y-91974891D01*
X85967350Y-91970907D01*
X86000928Y-91947927D01*
X86002883Y-91945790D01*
X86020858Y-91910802D01*
X86120900Y-91910802D01*
X86120634Y-91913410D01*
X86110682Y-91953575D01*
X86091591Y-91988569D01*
X86083090Y-91999526D01*
X86053298Y-92026604D01*
X86017732Y-92046992D01*
X86011578Y-92049689D01*
X85974296Y-92061414D01*
X85935355Y-92067505D01*
X85896196Y-92069267D01*
X85875996Y-92068807D01*
X85834396Y-92064652D01*
X85795764Y-92056175D01*
X85787299Y-92053590D01*
X85750658Y-92038075D01*
X85716629Y-92015143D01*
X85710460Y-92009805D01*
X85683581Y-91979044D01*
X85664459Y-91944214D01*
X85657150Y-91924613D01*
X85648339Y-91883993D01*
X85645701Y-91841632D01*
X85645701Y-91604815D01*
X85744766Y-91604815D01*
X85748722Y-91644333D01*
X85760593Y-91681605D01*
X85778779Y-91712574D01*
X85807487Y-91740614D01*
X85844480Y-91758299D01*
X85884082Y-91763279D01*
X85925310Y-91757759D01*
X85961849Y-91741200D01*
X85963971Y-91739791D01*
X85993934Y-91712625D01*
X86015191Y-91679260D01*
X86020708Y-91666508D01*
X86031180Y-91627655D01*
X86034340Y-91587424D01*
X86034340Y-91532909D01*
X86033892Y-91516799D01*
X86028529Y-91477859D01*
X86015973Y-91440683D01*
X85993893Y-91405268D01*
X85964389Y-91378743D01*
X85962288Y-91377373D01*
X85925359Y-91361363D01*
X85885059Y-91356468D01*
X85846213Y-91361492D01*
X85809246Y-91379330D01*
X85783157Y-91403670D01*
X85761374Y-91438729D01*
X85748918Y-91476831D01*
X85744766Y-91517669D01*
X85744766Y-91604815D01*
X85645701Y-91604815D01*
X85645701Y-91284759D01*
X85744766Y-91284759D01*
X85744766Y-91367411D01*
X85751738Y-91352619D01*
X85776615Y-91321688D01*
X85796869Y-91305356D01*
X85833084Y-91286127D01*
X85869085Y-91275722D01*
X85909483Y-91272254D01*
X85947623Y-91275097D01*
G37*
G36*
X85443272Y-91860000D02*
G01*
X85443272Y-91284759D01*
X85344207Y-91284759D01*
X85344207Y-91384019D01*
X85338736Y-91384019D01*
X85321847Y-91348445D01*
X85313531Y-91335757D01*
X85285984Y-91307608D01*
X85259993Y-91291207D01*
X85221244Y-91277603D01*
X85182455Y-91272716D01*
X85164249Y-91272254D01*
X85122826Y-91275245D01*
X85081129Y-91285764D01*
X85044625Y-91303856D01*
X85023175Y-91320125D01*
X84997011Y-91350963D01*
X84979410Y-91389622D01*
X84970953Y-91430551D01*
X84969050Y-91465303D01*
X84969050Y-91860000D01*
X85068115Y-91860000D01*
X85068115Y-91494612D01*
X85071464Y-91455053D01*
X85083356Y-91418213D01*
X85107277Y-91385652D01*
X85126538Y-91371905D01*
X85163576Y-91359016D01*
X85193363Y-91356468D01*
X85234294Y-91361031D01*
X85271094Y-91376046D01*
X85277578Y-91380307D01*
X85306936Y-91408297D01*
X85326740Y-91442434D01*
X85327794Y-91444982D01*
X85339014Y-91482510D01*
X85343951Y-91523628D01*
X85344207Y-91536036D01*
X85344207Y-91860000D01*
X85443272Y-91860000D01*
G37*
G36*
X84570774Y-91272284D02*
G01*
X84611624Y-91275948D01*
X84649726Y-91285717D01*
X84688464Y-91303517D01*
X84722816Y-91328081D01*
X84751719Y-91358786D01*
X84773265Y-91392030D01*
X84780455Y-91406639D01*
X84794236Y-91446180D01*
X84801516Y-91485453D01*
X84803942Y-91528220D01*
X84803942Y-91616538D01*
X84803686Y-91631081D01*
X84799848Y-91672482D01*
X84790181Y-91714568D01*
X84774829Y-91752533D01*
X84754011Y-91785879D01*
X84725337Y-91816654D01*
X84690614Y-91841242D01*
X84680126Y-91846829D01*
X84642391Y-91861483D01*
X84600381Y-91870032D01*
X84558918Y-91872505D01*
X84542286Y-91872142D01*
X84502260Y-91867806D01*
X84464347Y-91857655D01*
X84429488Y-91841704D01*
X84396936Y-91819162D01*
X84378178Y-91801164D01*
X84354731Y-91769337D01*
X84348709Y-91757860D01*
X84336364Y-91719316D01*
X84438555Y-91719316D01*
X84459462Y-91753119D01*
X84465741Y-91758841D01*
X84500886Y-91778715D01*
X84519361Y-91784166D01*
X84559504Y-91788290D01*
X84600552Y-91783729D01*
X84638124Y-91768178D01*
X84667752Y-91741591D01*
X84688889Y-91706968D01*
X84701252Y-91667313D01*
X84704877Y-91626894D01*
X84704877Y-91597390D01*
X84328743Y-91597390D01*
X84328743Y-91527438D01*
X84328838Y-91522358D01*
X84427808Y-91522358D01*
X84704877Y-91522358D01*
X84704726Y-91513124D01*
X84700025Y-91472893D01*
X84687683Y-91435017D01*
X84668331Y-91403581D01*
X84639030Y-91376985D01*
X84605031Y-91361598D01*
X84565952Y-91356468D01*
X84531689Y-91360171D01*
X84493461Y-91375812D01*
X84467383Y-91397511D01*
X84445198Y-91430718D01*
X84443093Y-91435185D01*
X84431137Y-91474215D01*
X84427808Y-91513175D01*
X84427808Y-91518060D01*
X84427808Y-91522358D01*
X84328838Y-91522358D01*
X84329011Y-91513037D01*
X84333030Y-91471998D01*
X84343151Y-91430206D01*
X84359225Y-91392421D01*
X84380547Y-91359158D01*
X84409246Y-91328387D01*
X84443440Y-91303712D01*
X84446802Y-91301777D01*
X84485846Y-91284542D01*
X84524628Y-91275326D01*
X84566538Y-91272254D01*
X84570774Y-91272284D01*
G37*
G36*
X83803524Y-91366043D02*
G01*
X83812881Y-91347062D01*
X83838695Y-91315826D01*
X83859358Y-91300199D01*
X83895359Y-91283391D01*
X83928174Y-91275397D01*
X83969413Y-91272254D01*
X84009229Y-91275211D01*
X84049367Y-91285297D01*
X84085673Y-91302540D01*
X84114761Y-91323835D01*
X84141732Y-91352725D01*
X84163440Y-91387341D01*
X84168398Y-91397736D01*
X84181404Y-91434891D01*
X84188991Y-91475901D01*
X84191186Y-91516106D01*
X84191186Y-91629239D01*
X84191080Y-91638374D01*
X84188000Y-91677666D01*
X84179573Y-91717844D01*
X84164221Y-91757808D01*
X84147228Y-91786714D01*
X84121799Y-91816671D01*
X84088213Y-91842609D01*
X84052440Y-91859630D01*
X84012558Y-91869585D01*
X83972735Y-91872505D01*
X83953398Y-91871780D01*
X83913140Y-91865080D01*
X83899401Y-91861099D01*
X83862142Y-91844759D01*
X83853816Y-91839671D01*
X83823454Y-91813496D01*
X83819653Y-91808840D01*
X83801765Y-91772658D01*
X83796880Y-91772658D01*
X83796880Y-91860000D01*
X83704459Y-91860000D01*
X83704459Y-91617320D01*
X83803524Y-91617320D01*
X83803808Y-91630237D01*
X83808652Y-91669140D01*
X83821695Y-91708178D01*
X83841865Y-91740261D01*
X83872302Y-91767383D01*
X83909976Y-91783696D01*
X83948897Y-91788290D01*
X83987774Y-91783653D01*
X84025296Y-91767187D01*
X84053677Y-91741102D01*
X84074731Y-91705443D01*
X84081507Y-91686876D01*
X84089675Y-91648229D01*
X84092121Y-91607745D01*
X84092121Y-91536427D01*
X84091706Y-91519176D01*
X84086742Y-91478030D01*
X84075122Y-91439706D01*
X84055910Y-91406092D01*
X84026664Y-91377962D01*
X83992274Y-91361842D01*
X83951632Y-91356468D01*
X83913576Y-91360934D01*
X83875429Y-91376789D01*
X83845436Y-91401067D01*
X83822672Y-91433258D01*
X83821494Y-91435516D01*
X83807731Y-91474436D01*
X83803524Y-91515715D01*
X83803524Y-91617320D01*
X83704459Y-91617320D01*
X83704459Y-91072170D01*
X83803524Y-91072170D01*
X83803524Y-91366043D01*
G37*
G36*
X83250949Y-91860000D02*
G01*
X83151884Y-91860000D01*
X83151884Y-91778715D01*
X83140270Y-91799333D01*
X83113586Y-91828932D01*
X83091717Y-91844560D01*
X83054187Y-91861367D01*
X83017990Y-91869720D01*
X82978569Y-91872505D01*
X82936616Y-91869547D01*
X82894832Y-91859462D01*
X82857620Y-91842219D01*
X82828139Y-91820687D01*
X82800955Y-91791272D01*
X82779267Y-91755854D01*
X82772810Y-91741499D01*
X82760433Y-91702672D01*
X82753895Y-91664138D01*
X82751716Y-91622205D01*
X82751716Y-91605205D01*
X82850781Y-91605205D01*
X82851379Y-91626436D01*
X82856160Y-91665271D01*
X82867780Y-91704466D01*
X82887152Y-91738500D01*
X82917411Y-91766796D01*
X82919464Y-91768119D01*
X82955996Y-91783567D01*
X82996545Y-91788290D01*
X82999344Y-91788270D01*
X83039043Y-91783161D01*
X83076657Y-91767773D01*
X83108066Y-91743007D01*
X83131953Y-91710132D01*
X83135515Y-91703122D01*
X83148069Y-91665495D01*
X83151884Y-91626503D01*
X83151884Y-91529979D01*
X83151430Y-91513601D01*
X83146010Y-91474323D01*
X83133321Y-91437362D01*
X83110704Y-91402826D01*
X83080369Y-91377376D01*
X83078208Y-91376089D01*
X83040356Y-91361062D01*
X82999281Y-91356468D01*
X82996327Y-91356490D01*
X82955415Y-91361988D01*
X82918778Y-91378548D01*
X82916730Y-91379935D01*
X82888104Y-91407370D01*
X82868367Y-91442051D01*
X82861514Y-91461101D01*
X82853254Y-91500944D01*
X82850781Y-91542875D01*
X82850781Y-91605205D01*
X82751716Y-91605205D01*
X82751716Y-91521967D01*
X82751955Y-91507718D01*
X82755536Y-91467196D01*
X82764553Y-91426087D01*
X82778876Y-91389099D01*
X82798102Y-91356569D01*
X82824453Y-91326604D01*
X82856252Y-91302735D01*
X82892969Y-91285381D01*
X82934073Y-91275230D01*
X82975247Y-91272254D01*
X82996218Y-91273085D01*
X83034842Y-91279288D01*
X83048740Y-91283208D01*
X83086036Y-91299804D01*
X83094288Y-91304965D01*
X83124333Y-91331458D01*
X83128957Y-91337242D01*
X83146999Y-91372100D01*
X83151884Y-91372100D01*
X83151884Y-91072170D01*
X83250949Y-91072170D01*
X83250949Y-91860000D01*
G37*
G36*
X82144626Y-91284759D02*
G01*
X82157986Y-91323337D01*
X82171297Y-91361695D01*
X82184560Y-91399834D01*
X82197773Y-91437752D01*
X82210840Y-91475403D01*
X82223859Y-91512735D01*
X82236828Y-91549750D01*
X82249748Y-91586448D01*
X82264069Y-91627322D01*
X82278235Y-91667732D01*
X82292247Y-91707679D01*
X82299965Y-91729672D01*
X82313720Y-91768882D01*
X82327291Y-91807597D01*
X82340676Y-91845818D01*
X82348032Y-91866838D01*
X82360146Y-91898101D01*
X82375599Y-91936136D01*
X82394885Y-91973306D01*
X82418654Y-92007095D01*
X82441625Y-92029993D01*
X82477524Y-92052353D01*
X82515809Y-92064626D01*
X82554866Y-92069113D01*
X82564138Y-92069267D01*
X82593642Y-92067704D01*
X82620997Y-92064187D01*
X82620997Y-91982316D01*
X82601067Y-91983879D01*
X82578792Y-91985052D01*
X82537988Y-91980415D01*
X82503370Y-91963949D01*
X82477583Y-91931306D01*
X82463510Y-91893607D01*
X82457452Y-91872114D01*
X82668478Y-91284759D01*
X82558667Y-91284759D01*
X82406650Y-91766796D01*
X82402156Y-91766796D01*
X82249553Y-91284759D01*
X82144626Y-91284759D01*
G37*
G36*
X88159057Y-93204000D02*
G01*
X88426552Y-92453685D01*
X88311660Y-92453685D01*
X88108255Y-93085200D01*
X88102784Y-93085200D01*
X87899769Y-92453685D01*
X87786050Y-92453685D01*
X88053545Y-93204000D01*
X88159057Y-93204000D01*
G37*
G36*
X87644193Y-93204000D02*
G01*
X87644193Y-92628759D01*
X87545129Y-92628759D01*
X87545129Y-93204000D01*
X87644193Y-93204000D01*
G37*
G36*
X87669204Y-92447824D02*
G01*
X87659211Y-92409760D01*
X87649860Y-92397998D01*
X87613724Y-92379580D01*
X87601598Y-92378654D01*
X87563332Y-92388647D01*
X87551381Y-92397998D01*
X87532880Y-92433279D01*
X87531646Y-92447824D01*
X87542747Y-92486548D01*
X87551381Y-92496868D01*
X87587028Y-92515003D01*
X87601598Y-92516212D01*
X87639516Y-92505331D01*
X87649860Y-92496868D01*
X87667995Y-92462026D01*
X87669204Y-92447824D01*
G37*
G36*
X87336252Y-93204000D02*
G01*
X87336252Y-92628759D01*
X87237187Y-92628759D01*
X87237187Y-92728019D01*
X87231716Y-92728019D01*
X87214827Y-92692445D01*
X87206510Y-92679757D01*
X87178964Y-92651608D01*
X87152972Y-92635207D01*
X87114224Y-92621603D01*
X87075435Y-92616716D01*
X87057229Y-92616254D01*
X87015806Y-92619245D01*
X86974109Y-92629764D01*
X86937605Y-92647856D01*
X86916154Y-92664125D01*
X86889991Y-92694963D01*
X86872390Y-92733622D01*
X86863933Y-92774551D01*
X86862030Y-92809303D01*
X86862030Y-93204000D01*
X86961095Y-93204000D01*
X86961095Y-92838612D01*
X86964444Y-92799053D01*
X86976336Y-92762213D01*
X87000256Y-92729652D01*
X87019518Y-92715905D01*
X87056556Y-92703016D01*
X87086343Y-92700468D01*
X87127274Y-92705031D01*
X87164074Y-92720046D01*
X87170558Y-92724307D01*
X87199916Y-92752297D01*
X87219719Y-92786434D01*
X87220774Y-92788982D01*
X87231994Y-92826510D01*
X87236931Y-92867628D01*
X87237187Y-92880036D01*
X87237187Y-93204000D01*
X87336252Y-93204000D01*
G37*
G36*
X86696922Y-92962688D02*
G01*
X86696922Y-92867726D01*
X86694588Y-92826407D01*
X86686521Y-92784122D01*
X86672690Y-92745654D01*
X86667418Y-92734858D01*
X86644224Y-92698949D01*
X86615212Y-92669135D01*
X86583789Y-92647321D01*
X86547996Y-92630938D01*
X86508272Y-92620622D01*
X86469160Y-92616527D01*
X86455415Y-92616254D01*
X86416320Y-92618309D01*
X86377340Y-92625415D01*
X86339884Y-92639094D01*
X86333684Y-92642241D01*
X86300372Y-92663737D01*
X86271789Y-92691552D01*
X86259630Y-92708480D01*
X86242266Y-92744127D01*
X86234452Y-92783648D01*
X86234228Y-92791718D01*
X86330558Y-92791718D01*
X86345062Y-92754173D01*
X86345799Y-92752834D01*
X86372703Y-92722881D01*
X86383314Y-92715905D01*
X86420762Y-92703016D01*
X86454242Y-92700468D01*
X86495008Y-92704953D01*
X86532181Y-92720244D01*
X86561318Y-92746386D01*
X86582121Y-92781741D01*
X86593540Y-92820454D01*
X86597714Y-92860646D01*
X86597857Y-92870266D01*
X86597857Y-92964642D01*
X86594843Y-93005189D01*
X86584425Y-93044551D01*
X86564369Y-93080928D01*
X86559755Y-93086763D01*
X86530009Y-93112683D01*
X86493428Y-93127844D01*
X86454242Y-93132290D01*
X86413367Y-93128981D01*
X86385268Y-93120566D01*
X86351990Y-93097597D01*
X86345408Y-93089498D01*
X86328012Y-93053060D01*
X86326650Y-93047489D01*
X86234228Y-93047489D01*
X86239638Y-93086369D01*
X86255867Y-93123876D01*
X86258848Y-93128773D01*
X86285028Y-93160028D01*
X86317643Y-93184095D01*
X86332316Y-93192080D01*
X86369109Y-93205986D01*
X86408127Y-93213619D01*
X86447778Y-93216409D01*
X86457173Y-93216505D01*
X86497033Y-93214063D01*
X86537623Y-93205621D01*
X86574320Y-93191150D01*
X86584570Y-93185632D01*
X86618626Y-93161226D01*
X86646910Y-93130724D01*
X86667613Y-93097705D01*
X86683069Y-93060004D01*
X86692800Y-93018219D01*
X86696664Y-92977122D01*
X86696922Y-92962688D01*
G37*
G36*
X85870537Y-92616284D02*
G01*
X85911387Y-92619948D01*
X85949489Y-92629717D01*
X85988227Y-92647517D01*
X86022579Y-92672081D01*
X86051481Y-92702786D01*
X86073028Y-92736030D01*
X86080218Y-92750639D01*
X86093999Y-92790180D01*
X86101278Y-92829453D01*
X86103705Y-92872220D01*
X86103705Y-92960538D01*
X86103449Y-92975081D01*
X86099611Y-93016482D01*
X86089944Y-93058568D01*
X86074591Y-93096533D01*
X86053773Y-93129879D01*
X86025099Y-93160654D01*
X85990376Y-93185242D01*
X85979889Y-93190829D01*
X85942154Y-93205483D01*
X85900144Y-93214032D01*
X85858681Y-93216505D01*
X85842049Y-93216142D01*
X85802022Y-93211806D01*
X85764110Y-93201655D01*
X85729251Y-93185704D01*
X85696699Y-93163162D01*
X85677941Y-93145164D01*
X85654494Y-93113337D01*
X85648472Y-93101860D01*
X85636127Y-93063316D01*
X85738318Y-93063316D01*
X85759225Y-93097119D01*
X85765503Y-93102841D01*
X85800648Y-93122715D01*
X85819124Y-93128166D01*
X85859267Y-93132290D01*
X85900315Y-93127729D01*
X85937886Y-93112178D01*
X85967515Y-93085591D01*
X85988652Y-93050968D01*
X86001015Y-93011313D01*
X86004640Y-92970894D01*
X86004640Y-92941390D01*
X85628506Y-92941390D01*
X85628506Y-92871438D01*
X85628601Y-92866358D01*
X85727571Y-92866358D01*
X86004640Y-92866358D01*
X86004489Y-92857124D01*
X85999787Y-92816893D01*
X85987445Y-92779017D01*
X85968094Y-92747581D01*
X85938792Y-92720985D01*
X85904794Y-92705598D01*
X85865715Y-92700468D01*
X85831451Y-92704171D01*
X85793224Y-92719812D01*
X85767146Y-92741511D01*
X85744961Y-92774718D01*
X85742855Y-92779185D01*
X85730900Y-92818215D01*
X85727571Y-92857175D01*
X85727571Y-92862060D01*
X85727571Y-92866358D01*
X85628601Y-92866358D01*
X85628774Y-92857037D01*
X85632793Y-92815998D01*
X85642913Y-92774206D01*
X85658988Y-92736421D01*
X85680309Y-92703158D01*
X85709008Y-92672387D01*
X85743203Y-92647712D01*
X85746564Y-92645777D01*
X85785609Y-92628542D01*
X85824390Y-92619326D01*
X85866301Y-92616254D01*
X85870537Y-92616284D01*
G37*
G36*
X85465938Y-93204000D02*
G01*
X85465938Y-92628759D01*
X85366873Y-92628759D01*
X85366873Y-92728019D01*
X85361402Y-92728019D01*
X85344513Y-92692445D01*
X85336196Y-92679757D01*
X85308650Y-92651608D01*
X85282658Y-92635207D01*
X85243910Y-92621603D01*
X85205121Y-92616716D01*
X85186915Y-92616254D01*
X85145491Y-92619245D01*
X85103795Y-92629764D01*
X85067291Y-92647856D01*
X85045840Y-92664125D01*
X85019677Y-92694963D01*
X85002076Y-92733622D01*
X84993619Y-92774551D01*
X84991716Y-92809303D01*
X84991716Y-93204000D01*
X85090781Y-93204000D01*
X85090781Y-92838612D01*
X85094130Y-92799053D01*
X85106022Y-92762213D01*
X85129942Y-92729652D01*
X85149204Y-92715905D01*
X85186242Y-92703016D01*
X85216029Y-92700468D01*
X85256960Y-92705031D01*
X85293760Y-92720046D01*
X85300244Y-92724307D01*
X85329602Y-92752297D01*
X85349405Y-92786434D01*
X85350460Y-92788982D01*
X85361680Y-92826510D01*
X85366617Y-92867628D01*
X85366873Y-92880036D01*
X85366873Y-93204000D01*
X85465938Y-93204000D01*
G37*
G36*
X84777369Y-92628759D02*
G01*
X84777369Y-92491201D01*
X84678304Y-92491201D01*
X84678304Y-92628759D01*
X84552274Y-92628759D01*
X84552274Y-92712974D01*
X84678304Y-92712974D01*
X84678304Y-93046512D01*
X84674010Y-93087078D01*
X84658764Y-93115095D01*
X84621884Y-93129872D01*
X84588032Y-93132290D01*
X84564193Y-93132290D01*
X84544068Y-93131704D01*
X84544068Y-93211424D01*
X84573768Y-93214746D01*
X84613628Y-93216505D01*
X84656076Y-93214381D01*
X84696536Y-93206393D01*
X84716210Y-93198528D01*
X84747445Y-93174024D01*
X84764473Y-93143427D01*
X84773729Y-93103974D01*
X84777167Y-93062558D01*
X84777369Y-93048466D01*
X84777369Y-92712974D01*
X84864905Y-92712974D01*
X84864905Y-92628759D01*
X84777369Y-92628759D01*
G37*
D17*
X113463220Y-86469819D02*
X113463220Y-85469819D01*
X113463220Y-85469819D02*
X112891792Y-86469819D01*
X112891792Y-86469819D02*
X112891792Y-85469819D01*
X112415601Y-85469819D02*
X112415601Y-86279342D01*
X112415601Y-86279342D02*
X112367982Y-86374580D01*
X112367982Y-86374580D02*
X112320363Y-86422200D01*
X112320363Y-86422200D02*
X112225125Y-86469819D01*
X112225125Y-86469819D02*
X112034649Y-86469819D01*
X112034649Y-86469819D02*
X111939411Y-86422200D01*
X111939411Y-86422200D02*
X111891792Y-86374580D01*
X111891792Y-86374580D02*
X111844173Y-86279342D01*
X111844173Y-86279342D02*
X111844173Y-85469819D01*
X111415601Y-86422200D02*
X111272744Y-86469819D01*
X111272744Y-86469819D02*
X111034649Y-86469819D01*
X111034649Y-86469819D02*
X110939411Y-86422200D01*
X110939411Y-86422200D02*
X110891792Y-86374580D01*
X110891792Y-86374580D02*
X110844173Y-86279342D01*
X110844173Y-86279342D02*
X110844173Y-86184104D01*
X110844173Y-86184104D02*
X110891792Y-86088866D01*
X110891792Y-86088866D02*
X110939411Y-86041247D01*
X110939411Y-86041247D02*
X111034649Y-85993628D01*
X111034649Y-85993628D02*
X111225125Y-85946009D01*
X111225125Y-85946009D02*
X111320363Y-85898390D01*
X111320363Y-85898390D02*
X111367982Y-85850771D01*
X111367982Y-85850771D02*
X111415601Y-85755533D01*
X111415601Y-85755533D02*
X111415601Y-85660295D01*
X111415601Y-85660295D02*
X111367982Y-85565057D01*
X111367982Y-85565057D02*
X111320363Y-85517438D01*
X111320363Y-85517438D02*
X111225125Y-85469819D01*
X111225125Y-85469819D02*
X110987030Y-85469819D01*
X110987030Y-85469819D02*
X110844173Y-85517438D01*
X110415601Y-86469819D02*
X110415601Y-85469819D01*
X110415601Y-85946009D02*
X109844173Y-85946009D01*
X109844173Y-86469819D02*
X109844173Y-85469819D01*
X109082268Y-85993628D02*
X109082268Y-86184104D01*
X109034649Y-86184104D02*
X109034649Y-85993628D01*
X108987030Y-85946009D02*
X108987030Y-86231723D01*
X108939411Y-86184104D02*
X108939411Y-85993628D01*
X108891792Y-85993628D02*
X108891792Y-86184104D01*
X109082268Y-86136485D02*
X108987030Y-86231723D01*
X108987030Y-86231723D02*
X108891792Y-86136485D01*
X109082268Y-86041247D02*
X108987030Y-85946009D01*
X108987030Y-85946009D02*
X108891792Y-86041247D01*
X109082268Y-85993628D02*
X108987030Y-85946009D01*
X108987030Y-85946009D02*
X108891792Y-85993628D01*
X108891792Y-85993628D02*
X108844173Y-86088866D01*
X108844173Y-86088866D02*
X108891792Y-86184104D01*
X108891792Y-86184104D02*
X108987030Y-86231723D01*
X108987030Y-86231723D02*
X109082268Y-86184104D01*
X109082268Y-86184104D02*
X109129887Y-86088866D01*
X109129887Y-86088866D02*
X109082268Y-85993628D01*
X108129887Y-85946009D02*
X107796554Y-85946009D01*
X107653697Y-86469819D02*
X108129887Y-86469819D01*
X108129887Y-86469819D02*
X108129887Y-85469819D01*
X108129887Y-85469819D02*
X107653697Y-85469819D01*
X107225125Y-86469819D02*
X107225125Y-85469819D01*
X106225126Y-85517438D02*
X106320364Y-85469819D01*
X106320364Y-85469819D02*
X106463221Y-85469819D01*
X106463221Y-85469819D02*
X106606078Y-85517438D01*
X106606078Y-85517438D02*
X106701316Y-85612676D01*
X106701316Y-85612676D02*
X106748935Y-85707914D01*
X106748935Y-85707914D02*
X106796554Y-85898390D01*
X106796554Y-85898390D02*
X106796554Y-86041247D01*
X106796554Y-86041247D02*
X106748935Y-86231723D01*
X106748935Y-86231723D02*
X106701316Y-86326961D01*
X106701316Y-86326961D02*
X106606078Y-86422200D01*
X106606078Y-86422200D02*
X106463221Y-86469819D01*
X106463221Y-86469819D02*
X106367983Y-86469819D01*
X106367983Y-86469819D02*
X106225126Y-86422200D01*
X106225126Y-86422200D02*
X106177507Y-86374580D01*
X106177507Y-86374580D02*
X106177507Y-86041247D01*
X106177507Y-86041247D02*
X106367983Y-86041247D01*
X105463221Y-85993628D02*
X105463221Y-86184104D01*
X105415602Y-86184104D02*
X105415602Y-85993628D01*
X105367983Y-85946009D02*
X105367983Y-86231723D01*
X105320364Y-86184104D02*
X105320364Y-85993628D01*
X105272745Y-85993628D02*
X105272745Y-86184104D01*
X105463221Y-86136485D02*
X105367983Y-86231723D01*
X105367983Y-86231723D02*
X105272745Y-86136485D01*
X105463221Y-86041247D02*
X105367983Y-85946009D01*
X105367983Y-85946009D02*
X105272745Y-86041247D01*
X105463221Y-85993628D02*
X105367983Y-85946009D01*
X105367983Y-85946009D02*
X105272745Y-85993628D01*
X105272745Y-85993628D02*
X105225126Y-86088866D01*
X105225126Y-86088866D02*
X105272745Y-86184104D01*
X105272745Y-86184104D02*
X105367983Y-86231723D01*
X105367983Y-86231723D02*
X105463221Y-86184104D01*
X105463221Y-86184104D02*
X105510840Y-86088866D01*
X105510840Y-86088866D02*
X105463221Y-85993628D01*
X104558459Y-85565057D02*
X104510840Y-85517438D01*
X104510840Y-85517438D02*
X104415602Y-85469819D01*
X104415602Y-85469819D02*
X104177507Y-85469819D01*
X104177507Y-85469819D02*
X104082269Y-85517438D01*
X104082269Y-85517438D02*
X104034650Y-85565057D01*
X104034650Y-85565057D02*
X103987031Y-85660295D01*
X103987031Y-85660295D02*
X103987031Y-85755533D01*
X103987031Y-85755533D02*
X104034650Y-85898390D01*
X104034650Y-85898390D02*
X104606078Y-86469819D01*
X104606078Y-86469819D02*
X103987031Y-86469819D01*
X103367983Y-85469819D02*
X103272745Y-85469819D01*
X103272745Y-85469819D02*
X103177507Y-85517438D01*
X103177507Y-85517438D02*
X103129888Y-85565057D01*
X103129888Y-85565057D02*
X103082269Y-85660295D01*
X103082269Y-85660295D02*
X103034650Y-85850771D01*
X103034650Y-85850771D02*
X103034650Y-86088866D01*
X103034650Y-86088866D02*
X103082269Y-86279342D01*
X103082269Y-86279342D02*
X103129888Y-86374580D01*
X103129888Y-86374580D02*
X103177507Y-86422200D01*
X103177507Y-86422200D02*
X103272745Y-86469819D01*
X103272745Y-86469819D02*
X103367983Y-86469819D01*
X103367983Y-86469819D02*
X103463221Y-86422200D01*
X103463221Y-86422200D02*
X103510840Y-86374580D01*
X103510840Y-86374580D02*
X103558459Y-86279342D01*
X103558459Y-86279342D02*
X103606078Y-86088866D01*
X103606078Y-86088866D02*
X103606078Y-85850771D01*
X103606078Y-85850771D02*
X103558459Y-85660295D01*
X103558459Y-85660295D02*
X103510840Y-85565057D01*
X103510840Y-85565057D02*
X103463221Y-85517438D01*
X103463221Y-85517438D02*
X103367983Y-85469819D01*
X102653697Y-85565057D02*
X102606078Y-85517438D01*
X102606078Y-85517438D02*
X102510840Y-85469819D01*
X102510840Y-85469819D02*
X102272745Y-85469819D01*
X102272745Y-85469819D02*
X102177507Y-85517438D01*
X102177507Y-85517438D02*
X102129888Y-85565057D01*
X102129888Y-85565057D02*
X102082269Y-85660295D01*
X102082269Y-85660295D02*
X102082269Y-85755533D01*
X102082269Y-85755533D02*
X102129888Y-85898390D01*
X102129888Y-85898390D02*
X102701316Y-86469819D01*
X102701316Y-86469819D02*
X102082269Y-86469819D01*
X101225126Y-85803152D02*
X101225126Y-86469819D01*
X101463221Y-85422200D02*
X101701316Y-86136485D01*
X101701316Y-86136485D02*
X101082269Y-86136485D01*
D18*
G36*
X85724727Y-58820428D02*
G01*
X86002159Y-58879665D01*
X86209479Y-58965441D01*
X86331489Y-59074854D01*
X86404369Y-59186871D01*
X86499604Y-59321733D01*
X86514881Y-59342589D01*
X86595293Y-59458886D01*
X86705899Y-59624576D01*
X86827503Y-59811015D01*
X86834635Y-59822097D01*
X86959983Y-60027962D01*
X87041674Y-60199126D01*
X87097378Y-60380474D01*
X87144770Y-60616904D01*
X87220781Y-61048495D01*
X87344084Y-61007598D01*
X87420315Y-60995911D01*
X87566668Y-61049693D01*
X87714496Y-61204252D01*
X87864823Y-61460485D01*
X87920068Y-61580743D01*
X87973700Y-61729811D01*
X88017787Y-61904886D01*
X88058522Y-62131377D01*
X88102090Y-62434690D01*
X88106343Y-62466709D01*
X88138422Y-62736053D01*
X88161700Y-62981920D01*
X88174038Y-63178305D01*
X88173290Y-63299205D01*
X88168417Y-63361492D01*
X88161151Y-63536053D01*
X88156617Y-63761843D01*
X88155640Y-64005730D01*
X88155155Y-64136375D01*
X88149063Y-64381926D01*
X88137544Y-64595223D01*
X88122197Y-64741093D01*
X88102534Y-64882544D01*
X88075277Y-65114404D01*
X88042044Y-65421777D01*
X88004213Y-65791192D01*
X87963165Y-66209173D01*
X87920276Y-66662250D01*
X87876929Y-67136953D01*
X87819264Y-67780277D01*
X88023061Y-67918284D01*
X88079737Y-67958401D01*
X88274189Y-68112679D01*
X88492957Y-68304257D01*
X88709459Y-68508386D01*
X88897116Y-68700314D01*
X89029345Y-68855293D01*
X89079600Y-68924525D01*
X89287910Y-69276198D01*
X89422020Y-69646575D01*
X89495905Y-70072112D01*
X89499612Y-70109405D01*
X89519440Y-70427409D01*
X89522399Y-70758398D01*
X89509563Y-71073665D01*
X89482010Y-71344498D01*
X89440813Y-71542188D01*
X89430928Y-71574084D01*
X89412362Y-71671512D01*
X89447849Y-71731720D01*
X89556266Y-71796252D01*
X89576633Y-71807672D01*
X89728505Y-71916148D01*
X89866788Y-72046027D01*
X89902986Y-72091748D01*
X90002651Y-72303686D01*
X90044223Y-72552031D01*
X90024747Y-72798724D01*
X89941272Y-73005702D01*
X89764695Y-73225007D01*
X89542757Y-73390440D01*
X89255621Y-73505176D01*
X89091961Y-73547026D01*
X88899972Y-73562684D01*
X88727680Y-73519226D01*
X88533529Y-73411250D01*
X88377870Y-73310262D01*
X87962096Y-73568747D01*
X87880578Y-73618639D01*
X87667052Y-73743081D01*
X87471471Y-73849231D01*
X87327909Y-73918310D01*
X87292064Y-73932795D01*
X86925258Y-74040918D01*
X86509188Y-74104708D01*
X86072226Y-74124183D01*
X85642743Y-74099360D01*
X85249115Y-74030254D01*
X84919709Y-73916882D01*
X84861109Y-73899544D01*
X84792247Y-73928185D01*
X84705314Y-74030741D01*
X84695744Y-74043528D01*
X84519113Y-74222156D01*
X84304337Y-74363389D01*
X84092699Y-74439667D01*
X84017186Y-74440780D01*
X83852043Y-74408913D01*
X83670481Y-74344774D01*
X83535840Y-74276862D01*
X83310093Y-74097850D01*
X83157937Y-73859677D01*
X83068078Y-73547399D01*
X83046460Y-73408210D01*
X83043183Y-73265021D01*
X83078497Y-73138091D01*
X83160279Y-72978864D01*
X83306762Y-72718177D01*
X83135978Y-72336630D01*
X83079471Y-72201846D01*
X82986955Y-71948522D01*
X82899600Y-71674203D01*
X82823742Y-71402242D01*
X82765716Y-71156000D01*
X82731856Y-70958833D01*
X82728495Y-70834097D01*
X82736620Y-70728416D01*
X82725900Y-70572562D01*
X82725506Y-70464130D01*
X82761073Y-70263298D01*
X82828995Y-70013743D01*
X82920654Y-69739030D01*
X83027429Y-69462723D01*
X83140705Y-69208385D01*
X83251862Y-68999581D01*
X83352284Y-68859873D01*
X83375200Y-68829906D01*
X83388114Y-68776677D01*
X83371204Y-68698338D01*
X83318474Y-68579320D01*
X83223927Y-68404054D01*
X83081566Y-68156971D01*
X83044059Y-68091988D01*
X82929097Y-67884171D01*
X82831451Y-67695691D01*
X82769054Y-67560766D01*
X82760505Y-67539710D01*
X82718822Y-67442731D01*
X82661479Y-67317934D01*
X82583288Y-67154730D01*
X82479063Y-66942533D01*
X82343615Y-66670755D01*
X82171757Y-66328810D01*
X81958303Y-65906111D01*
X81947525Y-65884795D01*
X81734016Y-65458220D01*
X81563558Y-65106107D01*
X81430434Y-64813439D01*
X81328932Y-64565199D01*
X81253333Y-64346368D01*
X81197923Y-64141931D01*
X81183897Y-64071665D01*
X81156988Y-63936869D01*
X81124810Y-63716166D01*
X81103207Y-63529311D01*
X81083186Y-63305033D01*
X81081625Y-63274539D01*
X81244800Y-63274539D01*
X81286723Y-63561270D01*
X81314904Y-63712602D01*
X81330882Y-63848570D01*
X81326381Y-63915976D01*
X81319186Y-63929460D01*
X81316813Y-64048228D01*
X81371313Y-64248597D01*
X81481992Y-64527837D01*
X81486106Y-64537255D01*
X81572350Y-64728787D01*
X81682979Y-64966470D01*
X81809497Y-65232920D01*
X81943419Y-65510754D01*
X82076249Y-65782583D01*
X82199494Y-66031023D01*
X82304666Y-66238692D01*
X82383273Y-66388203D01*
X82426820Y-66462171D01*
X82455139Y-66508793D01*
X82522288Y-66639502D01*
X82610193Y-66823881D01*
X82707197Y-67037990D01*
X82738194Y-67107782D01*
X82975968Y-67617318D01*
X83200422Y-68048714D01*
X83421448Y-68421126D01*
X83501013Y-68547611D01*
X83568438Y-68658576D01*
X83595675Y-68708788D01*
X83590564Y-68723813D01*
X83547918Y-68810547D01*
X83471209Y-68955127D01*
X83371487Y-69136476D01*
X83156472Y-69565627D01*
X82980792Y-70053140D01*
X82892992Y-70520104D01*
X82889975Y-70978356D01*
X82908742Y-71101433D01*
X82961597Y-71320639D01*
X83038600Y-71580946D01*
X83131434Y-71858947D01*
X83231778Y-72131236D01*
X83331314Y-72374407D01*
X83421721Y-72565052D01*
X83494683Y-72679764D01*
X83491661Y-72727291D01*
X83445525Y-72839123D01*
X83364697Y-72985655D01*
X83297455Y-73111092D01*
X83227291Y-73288091D01*
X83199315Y-73427356D01*
X83202703Y-73497668D01*
X83265532Y-73721490D01*
X83393043Y-73926425D01*
X83566292Y-74096623D01*
X83766335Y-74216237D01*
X83974226Y-74269417D01*
X84171025Y-74240315D01*
X84350684Y-74133800D01*
X84522963Y-73976961D01*
X84641565Y-73810944D01*
X84706676Y-73731342D01*
X84826463Y-73691311D01*
X84947258Y-73737084D01*
X84972454Y-73755578D01*
X85131454Y-73823708D01*
X85363275Y-73878736D01*
X85644429Y-73918720D01*
X85951432Y-73941722D01*
X86260796Y-73945802D01*
X86549037Y-73929023D01*
X86792665Y-73889444D01*
X86912331Y-73858105D01*
X87212712Y-73760282D01*
X87493721Y-73644108D01*
X87728124Y-73521626D01*
X87888685Y-73404874D01*
X87910503Y-73387084D01*
X88006777Y-73320700D01*
X88139510Y-73237031D01*
X88241499Y-73177074D01*
X88336609Y-73141381D01*
X88428408Y-73154243D01*
X88565123Y-73212927D01*
X88634150Y-73246461D01*
X88744601Y-73309773D01*
X88791141Y-73351690D01*
X88809243Y-73376398D01*
X88905603Y-73396524D01*
X89064691Y-73382388D01*
X89264528Y-73334774D01*
X89291393Y-73326144D01*
X89524064Y-73202886D01*
X89712317Y-73018852D01*
X89836962Y-72798100D01*
X89878807Y-72564690D01*
X89877887Y-72541068D01*
X89824420Y-72304557D01*
X89686058Y-72110107D01*
X89454797Y-71946033D01*
X89409191Y-71919557D01*
X89272444Y-71797794D01*
X89233087Y-71656973D01*
X89286966Y-71485693D01*
X89300210Y-71454433D01*
X89335665Y-71295882D01*
X89359857Y-71065675D01*
X89371615Y-70787042D01*
X89369762Y-70483210D01*
X89353124Y-70177410D01*
X89336905Y-70045527D01*
X89240529Y-69665949D01*
X89079245Y-69282327D01*
X88868060Y-68933156D01*
X88822744Y-68874305D01*
X88674622Y-68707358D01*
X88491309Y-68524105D01*
X88293559Y-68343076D01*
X88102130Y-68182801D01*
X87937775Y-68061807D01*
X87821252Y-67998626D01*
X87726484Y-67944996D01*
X87664971Y-67848010D01*
X87663275Y-67826596D01*
X87666311Y-67707262D01*
X87679238Y-67515284D01*
X87700458Y-67272046D01*
X87728376Y-66998932D01*
X87729533Y-66988333D01*
X87764528Y-66655082D01*
X87799924Y-66296677D01*
X87831656Y-65955486D01*
X87855651Y-65673873D01*
X87871326Y-65489229D01*
X87897794Y-65217464D01*
X87925101Y-64974699D01*
X87949325Y-64797627D01*
X87959486Y-64722556D01*
X87978365Y-64504129D01*
X87991018Y-64243481D01*
X87995125Y-63981929D01*
X87995138Y-63850508D01*
X87997614Y-63606311D01*
X88002703Y-63395141D01*
X88009711Y-63251794D01*
X88010888Y-63150100D01*
X88000679Y-62954616D01*
X87979576Y-62712603D01*
X87949878Y-62454721D01*
X87923412Y-62261199D01*
X87884882Y-62033453D01*
X87840685Y-61855780D01*
X87782431Y-61696754D01*
X87701736Y-61524945D01*
X87644419Y-61416116D01*
X87531249Y-61243754D01*
X87434957Y-61167484D01*
X87350780Y-61184722D01*
X87273951Y-61292883D01*
X87270229Y-61300340D01*
X87207433Y-61392476D01*
X87154666Y-61419754D01*
X87130833Y-61374480D01*
X87093845Y-61246372D01*
X87050987Y-61056796D01*
X87007494Y-60826830D01*
X86982828Y-60686182D01*
X86940866Y-60471718D01*
X86897839Y-60312569D01*
X86842421Y-60178249D01*
X86763286Y-60038270D01*
X86649106Y-59862147D01*
X86479709Y-59616181D01*
X86264377Y-59345446D01*
X86059137Y-59153017D01*
X85846325Y-59029514D01*
X85608289Y-58965563D01*
X85327370Y-58951784D01*
X84985911Y-58978798D01*
X84958600Y-58982006D01*
X84747400Y-59008599D01*
X84611758Y-59033893D01*
X84527719Y-59066886D01*
X84471330Y-59116584D01*
X84418633Y-59191990D01*
X84369547Y-59281045D01*
X84345485Y-59380317D01*
X84350516Y-59513085D01*
X84382336Y-59712431D01*
X84405540Y-59826928D01*
X84482836Y-60078960D01*
X84592074Y-60277103D01*
X84669824Y-60398605D01*
X84719311Y-60534798D01*
X84726200Y-60696343D01*
X84723157Y-60740187D01*
X84696731Y-60894619D01*
X84655711Y-61000677D01*
X84565452Y-61069425D01*
X84403403Y-61114660D01*
X84213377Y-61120833D01*
X84032614Y-61083024D01*
X83935243Y-61037790D01*
X83865478Y-60959145D01*
X83829427Y-60819394D01*
X83819705Y-60749100D01*
X83822264Y-60670598D01*
X83857055Y-60680464D01*
X83860318Y-60683730D01*
X83892000Y-60702946D01*
X83868294Y-60639288D01*
X83843663Y-60527602D01*
X83851450Y-60381734D01*
X83862698Y-60295809D01*
X83865635Y-60142070D01*
X83855083Y-59981139D01*
X83834270Y-59840468D01*
X83806424Y-59747513D01*
X83774775Y-59729728D01*
X83745671Y-59732887D01*
X83744102Y-59651288D01*
X83745788Y-59637886D01*
X83742972Y-59567187D01*
X83702642Y-59582465D01*
X83665769Y-59603014D01*
X83661235Y-59550877D01*
X83630501Y-59469277D01*
X83508984Y-59384178D01*
X83482133Y-59370119D01*
X83387448Y-59305251D01*
X83384990Y-59301165D01*
X83377210Y-59288223D01*
X83458387Y-59288223D01*
X83479594Y-59333195D01*
X83492614Y-59346323D01*
X83545003Y-59373767D01*
X83551335Y-59369258D01*
X83530129Y-59324285D01*
X83517108Y-59311157D01*
X83464719Y-59283714D01*
X83458387Y-59288223D01*
X83377210Y-59288223D01*
X83358113Y-59256458D01*
X83359964Y-59239555D01*
X83312912Y-59213522D01*
X83256162Y-59214713D01*
X82953863Y-59239660D01*
X82706446Y-59305082D01*
X82475431Y-59425102D01*
X82222334Y-59613848D01*
X82038355Y-59789909D01*
X81872540Y-60022702D01*
X81756805Y-60295755D01*
X81689010Y-60619968D01*
X81667011Y-61006247D01*
X81688667Y-61465493D01*
X81751835Y-62008611D01*
X81759686Y-62064758D01*
X81800809Y-62388322D01*
X81824477Y-62635396D01*
X81830073Y-62797877D01*
X81816985Y-62867665D01*
X81746255Y-62883187D01*
X81632805Y-62855636D01*
X81626747Y-62853067D01*
X81501027Y-62825899D01*
X81387081Y-62874484D01*
X81334861Y-62919732D01*
X81260368Y-63063962D01*
X81244800Y-63274539D01*
X81081625Y-63274539D01*
X81074125Y-63128020D01*
X81077871Y-63025426D01*
X81081857Y-63007288D01*
X81170474Y-62839780D01*
X81325456Y-62714935D01*
X81514601Y-62659720D01*
X81685138Y-62649764D01*
X81572360Y-61980145D01*
X81514087Y-61575923D01*
X81481939Y-61129835D01*
X81497650Y-60742213D01*
X81562239Y-60394446D01*
X81676717Y-60067929D01*
X81712983Y-59984797D01*
X81766767Y-59871023D01*
X81823994Y-59776227D01*
X81897953Y-59687232D01*
X82001937Y-59590859D01*
X82149237Y-59473925D01*
X82353143Y-59323253D01*
X82626947Y-59125662D01*
X82672754Y-59100092D01*
X82838843Y-59053383D01*
X83047108Y-59032170D01*
X83256200Y-59039004D01*
X83424772Y-59076437D01*
X83642355Y-59206467D01*
X83833409Y-59428958D01*
X83967268Y-59725766D01*
X84040509Y-60089045D01*
X84049712Y-60510937D01*
X84046300Y-60592430D01*
X84053776Y-60793728D01*
X84095476Y-60912785D01*
X84179300Y-60963001D01*
X84313151Y-60957777D01*
X84426131Y-60919066D01*
X84506146Y-60821256D01*
X84538085Y-60647552D01*
X84538373Y-60620874D01*
X84514171Y-60497390D01*
X84461461Y-60384845D01*
X84397669Y-60312871D01*
X84340221Y-60311101D01*
X84310153Y-60303856D01*
X84305522Y-60207010D01*
X84301380Y-60114292D01*
X84274233Y-60099880D01*
X84247951Y-60077185D01*
X84217449Y-59969773D01*
X84188778Y-59793658D01*
X84169010Y-59646803D01*
X84153582Y-59562009D01*
X84144771Y-59568257D01*
X84140422Y-59659563D01*
X84135920Y-59868776D01*
X84095971Y-59684149D01*
X84091887Y-59663225D01*
X84084684Y-59520880D01*
X84111396Y-59420440D01*
X84136270Y-59369986D01*
X84137166Y-59286688D01*
X84129817Y-59259686D01*
X84161922Y-59183554D01*
X84190605Y-59164298D01*
X84190513Y-59199790D01*
X84182304Y-59227169D01*
X84194243Y-59259288D01*
X84220339Y-59222063D01*
X84248979Y-59121999D01*
X84287649Y-59036426D01*
X84420216Y-58926191D01*
X84628412Y-58845225D01*
X84896820Y-58801164D01*
X85020318Y-58793165D01*
X85392381Y-58790627D01*
X85724727Y-58820428D01*
G37*
G36*
X86370521Y-68250744D02*
G01*
X86635312Y-68331570D01*
X86859404Y-68460643D01*
X87023899Y-68632657D01*
X87109890Y-68842302D01*
X87113365Y-69038997D01*
X87027121Y-69270276D01*
X86841334Y-69483967D01*
X86557145Y-69678344D01*
X86492733Y-69713446D01*
X86299885Y-69805763D01*
X86132331Y-69853274D01*
X85948077Y-69864303D01*
X85705125Y-69847169D01*
X85401051Y-69783755D01*
X85154595Y-69662456D01*
X84981963Y-69491891D01*
X84941436Y-69393430D01*
X84899370Y-69291234D01*
X85521022Y-69291234D01*
X85580098Y-69474263D01*
X85721696Y-69629495D01*
X85769449Y-69662659D01*
X85873248Y-69711317D01*
X85993865Y-69720463D01*
X86172345Y-69696172D01*
X86179014Y-69694989D01*
X86365033Y-69651507D01*
X86488898Y-69590382D01*
X86589928Y-69492432D01*
X86604611Y-69474090D01*
X86688034Y-69334823D01*
X86727115Y-69207269D01*
X86723935Y-69142602D01*
X86658335Y-68979308D01*
X86533479Y-68842360D01*
X86378208Y-68768064D01*
X86310911Y-68756856D01*
X86023714Y-68756704D01*
X85787119Y-68844840D01*
X85598066Y-69022260D01*
X85549757Y-69106388D01*
X85521022Y-69291234D01*
X84899370Y-69291234D01*
X84894846Y-69280243D01*
X84893543Y-69031793D01*
X84986086Y-68798312D01*
X85176007Y-68582478D01*
X85465674Y-68380561D01*
X85520974Y-68350839D01*
X85794449Y-68255071D01*
X86083933Y-68223474D01*
X86370521Y-68250744D01*
G37*
G36*
X85018260Y-62325941D02*
G01*
X85303083Y-62455726D01*
X85570780Y-62678821D01*
X85735695Y-62871338D01*
X85873310Y-63095054D01*
X85970618Y-63353648D01*
X86043520Y-63680817D01*
X86074108Y-64007122D01*
X86039512Y-64392617D01*
X85930831Y-64745098D01*
X85753857Y-65047062D01*
X85514375Y-65281000D01*
X85317805Y-65392574D01*
X85038338Y-65462613D01*
X84756107Y-65443952D01*
X84482621Y-65343158D01*
X84229394Y-65166793D01*
X84007936Y-64921423D01*
X83829757Y-64613615D01*
X83706371Y-64249929D01*
X83655276Y-63957611D01*
X83648413Y-63547421D01*
X83720276Y-63174335D01*
X83866965Y-62849303D01*
X84084584Y-62583277D01*
X84369237Y-62387207D01*
X84438140Y-62356226D01*
X84726537Y-62291948D01*
X85018260Y-62325941D01*
G37*
G36*
X87358810Y-69898637D02*
G01*
X87464130Y-70010158D01*
X87506886Y-70081410D01*
X87543757Y-70272541D01*
X87479721Y-70481688D01*
X87441719Y-70548788D01*
X87398610Y-70568568D01*
X87326451Y-70511781D01*
X87308936Y-70493346D01*
X87241212Y-70368887D01*
X87196490Y-70206692D01*
X87183407Y-70049416D01*
X87210599Y-69939707D01*
X87271378Y-69884423D01*
X87358810Y-69898637D01*
G37*
G36*
X85125360Y-70243213D02*
G01*
X85138556Y-70255490D01*
X85219089Y-70379122D01*
X85261953Y-70532839D01*
X85265849Y-70685805D01*
X85229483Y-70807187D01*
X85151556Y-70866155D01*
X85055780Y-70841915D01*
X84974883Y-70743536D01*
X84923708Y-70598260D01*
X84911996Y-70434345D01*
X84949489Y-70280045D01*
X85012456Y-70145062D01*
X85125360Y-70243213D01*
G37*
G36*
X84498991Y-60534224D02*
G01*
X84478179Y-60563944D01*
X84448457Y-60543133D01*
X84469269Y-60513412D01*
X84498991Y-60534224D01*
G37*
G36*
X84430637Y-60442066D02*
G01*
X84409825Y-60471789D01*
X84380104Y-60450977D01*
X84400915Y-60421255D01*
X84430637Y-60442066D01*
G37*
G36*
X63460264Y-71770031D02*
G01*
X63587118Y-72022489D01*
X63637788Y-72359890D01*
X63603183Y-72714024D01*
X63474211Y-73016685D01*
X63449991Y-73048753D01*
X63240072Y-73307992D01*
X63049541Y-73035971D01*
X62907469Y-72711667D01*
X62869721Y-72347197D01*
X62925845Y-72008378D01*
X63065392Y-71761030D01*
X63266317Y-71670721D01*
X63460264Y-71770031D01*
G37*
G36*
X68418063Y-71480887D02*
G01*
X68527492Y-71613514D01*
X68749083Y-72047976D01*
X68742125Y-72481948D01*
X68675827Y-72654963D01*
X68487740Y-72940627D01*
X68301255Y-73005691D01*
X68146385Y-72907827D01*
X68044197Y-72677452D01*
X68012031Y-72327029D01*
X68047436Y-71953558D01*
X68147958Y-71654038D01*
X68179279Y-71606778D01*
X68315742Y-71454144D01*
X68418063Y-71480887D01*
G37*
G36*
X65750682Y-83625541D02*
G01*
X66225524Y-83794432D01*
X66841969Y-84215402D01*
X67347497Y-84809945D01*
X67722619Y-85541864D01*
X67947847Y-86374960D01*
X68007020Y-87103321D01*
X67973616Y-87849963D01*
X67860065Y-88455476D01*
X67644503Y-89000008D01*
X67356915Y-89486602D01*
X66855470Y-90080133D01*
X66280290Y-90475402D01*
X65652870Y-90663000D01*
X64994706Y-90633516D01*
X64831410Y-90592167D01*
X64130439Y-90271840D01*
X63549576Y-89771944D01*
X63101618Y-89115017D01*
X62799364Y-88323598D01*
X62655610Y-87420225D01*
X62654627Y-86758552D01*
X62784749Y-85912178D01*
X63056822Y-85167285D01*
X63448108Y-84542742D01*
X63935873Y-84057425D01*
X64497381Y-83730203D01*
X65109896Y-83579951D01*
X65750682Y-83625541D01*
G37*
G36*
X66198453Y-73554568D02*
G01*
X66657661Y-73682613D01*
X66812694Y-73734751D01*
X67511993Y-74051542D01*
X68002694Y-74448844D01*
X68281619Y-74923305D01*
X68350147Y-75356560D01*
X68242493Y-75850208D01*
X67947891Y-76291616D01*
X67505791Y-76661810D01*
X66955643Y-76941815D01*
X66336895Y-77112657D01*
X65688999Y-77155362D01*
X65051404Y-77050956D01*
X64918469Y-77007100D01*
X64204218Y-76675873D01*
X63703615Y-76275474D01*
X63410002Y-75798611D01*
X63316667Y-75252546D01*
X63375145Y-74985965D01*
X64687403Y-74985965D01*
X64822072Y-75380733D01*
X64960722Y-75546762D01*
X65444549Y-75863152D01*
X65998204Y-75965078D01*
X66628789Y-75853546D01*
X66772223Y-75802880D01*
X67084408Y-75579617D01*
X67305550Y-75230554D01*
X67386374Y-74846585D01*
X67368318Y-74703353D01*
X67233113Y-74438397D01*
X66996006Y-74164887D01*
X66956661Y-74130293D01*
X66696891Y-73954328D01*
X66401235Y-73868067D01*
X65975929Y-73844609D01*
X65960826Y-73844595D01*
X65559503Y-73860361D01*
X65298188Y-73927147D01*
X65089100Y-74074180D01*
X64997082Y-74165495D01*
X64746258Y-74561186D01*
X64687403Y-74985965D01*
X63375145Y-74985965D01*
X63426014Y-74754068D01*
X63739049Y-74312692D01*
X64233265Y-73950910D01*
X64876414Y-73693930D01*
X65403265Y-73562238D01*
X65812133Y-73515113D01*
X66198453Y-73554568D01*
G37*
G36*
X66779194Y-64108043D02*
G01*
X66863514Y-64125971D01*
X67205500Y-64222072D01*
X67676068Y-64379437D01*
X68193123Y-64570017D01*
X68391441Y-64648009D01*
X69404504Y-65054624D01*
X69707207Y-64772598D01*
X70091727Y-64460324D01*
X70453230Y-64298190D01*
X70880872Y-64258238D01*
X71256451Y-64286765D01*
X71931383Y-64427532D01*
X72482781Y-64704869D01*
X72955429Y-65118061D01*
X73218869Y-65540233D01*
X73357150Y-66074394D01*
X73362022Y-66635822D01*
X73225234Y-67139795D01*
X73163450Y-67254207D01*
X72910090Y-67592945D01*
X72618601Y-67889944D01*
X72578296Y-67922907D01*
X72365216Y-68106587D01*
X72310605Y-68252538D01*
X72389096Y-68459287D01*
X72423154Y-68525499D01*
X72590156Y-68943645D01*
X72755523Y-69527686D01*
X72905775Y-70214996D01*
X73027435Y-70942948D01*
X73107022Y-71648915D01*
X73113323Y-71732241D01*
X73115844Y-72695266D01*
X72964765Y-73560486D01*
X72643507Y-74413364D01*
X72559961Y-74584845D01*
X72329610Y-74976353D01*
X71991858Y-75470460D01*
X71595487Y-76002525D01*
X71189281Y-76507907D01*
X70822025Y-76921966D01*
X70713106Y-77032003D01*
X70319032Y-77413954D01*
X70694747Y-78804274D01*
X70973730Y-79829866D01*
X71243332Y-80808154D01*
X71495307Y-81710089D01*
X71721410Y-82506621D01*
X71913397Y-83168700D01*
X72063022Y-83667277D01*
X72160967Y-83970270D01*
X72251146Y-84284637D01*
X72359028Y-84748547D01*
X72467480Y-85285382D01*
X72519127Y-85572072D01*
X72615702Y-86107237D01*
X72713083Y-86601280D01*
X72796626Y-86981780D01*
X72831443Y-87116667D01*
X72879894Y-87381855D01*
X72928842Y-87817866D01*
X72972923Y-88366767D01*
X73006768Y-88970627D01*
X73009828Y-89042581D01*
X73031598Y-89725482D01*
X73029846Y-90238595D01*
X73000821Y-90640106D01*
X72940774Y-90988201D01*
X72866027Y-91273663D01*
X72635139Y-91894517D01*
X72370375Y-92291145D01*
X72069827Y-92465909D01*
X71897908Y-92469762D01*
X71611321Y-92427700D01*
X71611517Y-93404841D01*
X71598995Y-93942354D01*
X71546893Y-94362140D01*
X71433785Y-94769617D01*
X71238245Y-95270204D01*
X71226875Y-95297297D01*
X71032039Y-95753775D01*
X70853318Y-96160432D01*
X70721773Y-96446936D01*
X70696302Y-96498649D01*
X70539396Y-96831661D01*
X70422736Y-97105851D01*
X70197183Y-97393348D01*
X69775149Y-97661970D01*
X69188883Y-97899465D01*
X68470637Y-98093582D01*
X67652662Y-98232070D01*
X67378379Y-98262322D01*
X66771934Y-98269496D01*
X66283416Y-98172317D01*
X65949638Y-97981583D01*
X65831593Y-97808652D01*
X65729957Y-97600015D01*
X65600000Y-97330000D01*
X65510000Y-97020000D01*
X65452793Y-96687221D01*
X65439340Y-96357094D01*
X65460000Y-96030000D01*
X65490000Y-95870000D01*
X65520000Y-95700000D01*
X65550000Y-95580000D01*
X65690000Y-95270000D01*
X65809209Y-94953355D01*
X65881378Y-94685813D01*
X65886712Y-94405289D01*
X65875749Y-94346822D01*
X65738360Y-93977757D01*
X65524785Y-93793963D01*
X65261712Y-93752703D01*
X64965772Y-93793058D01*
X64801147Y-93935780D01*
X64755678Y-94213357D01*
X64817203Y-94658275D01*
X64856248Y-94835899D01*
X64999392Y-95765878D01*
X64979222Y-96591941D01*
X64800209Y-97295521D01*
X64466825Y-97858050D01*
X64039394Y-98227823D01*
X63683728Y-98375290D01*
X63227236Y-98471256D01*
X62761703Y-98505313D01*
X62378912Y-98467052D01*
X62268424Y-98428640D01*
X61590686Y-98100774D01*
X61084599Y-97848870D01*
X60715875Y-97649135D01*
X60450226Y-97477772D01*
X60253364Y-97310988D01*
X60090999Y-97124989D01*
X59928845Y-96895979D01*
X59817024Y-96727478D01*
X59439220Y-96054816D01*
X59162743Y-95316181D01*
X58978159Y-94471102D01*
X58876033Y-93479109D01*
X58847480Y-92568936D01*
X58835857Y-91054883D01*
X58457529Y-91099050D01*
X58020814Y-91051040D01*
X57632158Y-90836906D01*
X57372712Y-90503393D01*
X57356934Y-90465109D01*
X57308987Y-90241277D01*
X57260346Y-89849072D01*
X57217471Y-89348839D01*
X57192558Y-88930169D01*
X57177763Y-88433078D01*
X57184659Y-88126666D01*
X57485599Y-88126666D01*
X57536798Y-88386546D01*
X57557815Y-88413370D01*
X57593799Y-88559641D01*
X57611356Y-88864394D01*
X57608070Y-89207606D01*
X57627031Y-89853460D01*
X57742750Y-90309829D01*
X57962172Y-90597694D01*
X58094356Y-90676834D01*
X58363377Y-90739399D01*
X58628923Y-90631065D01*
X58641229Y-90623078D01*
X58879684Y-90518653D01*
X59041006Y-90525353D01*
X59096768Y-90673530D01*
X59147389Y-91032483D01*
X59191083Y-91584184D01*
X59226060Y-92310606D01*
X59230561Y-92436937D01*
X59302142Y-93654002D01*
X59432404Y-94670826D01*
X59630273Y-95510520D01*
X59904674Y-96196197D01*
X60264532Y-96750968D01*
X60718773Y-97197947D01*
X61190933Y-97513317D01*
X61819778Y-97829779D01*
X62373525Y-98003880D01*
X62942146Y-98051739D01*
X63510000Y-98010000D01*
X63740688Y-97970114D01*
X63910000Y-97880000D01*
X64046856Y-97757207D01*
X64140000Y-97680000D01*
X64174775Y-97642793D01*
X64220000Y-97580000D01*
X64260000Y-97520000D01*
X64310000Y-97450000D01*
X64440000Y-97240000D01*
X64550000Y-96900000D01*
X64617614Y-96606465D01*
X64642767Y-96391568D01*
X64634004Y-96074617D01*
X64594864Y-95717148D01*
X64528888Y-95380698D01*
X64470921Y-95196374D01*
X64397343Y-94879085D01*
X64294987Y-94573370D01*
X64258971Y-94401982D01*
X64253104Y-94243864D01*
X64278154Y-93923032D01*
X64400899Y-93723329D01*
X64597199Y-93586301D01*
X64979488Y-93433286D01*
X65399148Y-93373266D01*
X65772498Y-93409853D01*
X65997313Y-93525866D01*
X66128452Y-93742869D01*
X66246273Y-94071749D01*
X66269931Y-94166847D01*
X66317353Y-94524244D01*
X66261420Y-94842465D01*
X66137734Y-95139370D01*
X65974581Y-95616760D01*
X65902436Y-96200109D01*
X65895813Y-96460514D01*
X65903127Y-96910571D01*
X65943483Y-97204057D01*
X66034757Y-97412726D01*
X66177027Y-97589275D01*
X66321936Y-97734450D01*
X66465003Y-97821747D01*
X66662314Y-97861659D01*
X66969957Y-97864678D01*
X67444020Y-97841299D01*
X67505232Y-97837769D01*
X68265487Y-97764880D01*
X68877009Y-97625854D01*
X69374941Y-97393260D01*
X69794423Y-97039671D01*
X70170598Y-96537657D01*
X70538606Y-95859787D01*
X70815345Y-95254091D01*
X70997873Y-94823142D01*
X71117446Y-94485129D01*
X71187129Y-94168724D01*
X71219990Y-93802596D01*
X71229093Y-93315417D01*
X71228797Y-92997025D01*
X71235264Y-92475214D01*
X71255970Y-92042336D01*
X71287588Y-91746708D01*
X71322392Y-91638065D01*
X71448826Y-91677535D01*
X71622387Y-91855537D01*
X71633449Y-91870469D01*
X71844032Y-92078229D01*
X72035548Y-92083489D01*
X72217459Y-91878729D01*
X72399230Y-91456427D01*
X72482951Y-91195261D01*
X72593625Y-90786752D01*
X72659967Y-90414997D01*
X72688226Y-90007740D01*
X72684651Y-89492723D01*
X72667837Y-89057531D01*
X72633199Y-88479763D01*
X72585835Y-87940165D01*
X72532563Y-87506957D01*
X72490604Y-87284108D01*
X72419713Y-86972052D01*
X72326775Y-86510324D01*
X72226788Y-85975063D01*
X72175875Y-85686487D01*
X72065588Y-85113744D01*
X71936885Y-84546298D01*
X71810855Y-84073975D01*
X71759476Y-83913063D01*
X71637723Y-83533620D01*
X71483765Y-83011116D01*
X71320421Y-82424606D01*
X71214510Y-82025225D01*
X71052782Y-81416136D01*
X70851000Y-80679214D01*
X70634502Y-79905915D01*
X70428629Y-79187692D01*
X70421983Y-79164865D01*
X70254933Y-78575956D01*
X70114158Y-78050057D01*
X70011441Y-77633506D01*
X69958569Y-77372639D01*
X69954001Y-77324964D01*
X70051524Y-77088180D01*
X70238857Y-76933721D01*
X70470262Y-76749868D01*
X70784313Y-76420548D01*
X71142608Y-75994486D01*
X71506744Y-75520407D01*
X71838320Y-75047034D01*
X72098933Y-74623091D01*
X72175656Y-74476318D01*
X72504192Y-73627821D01*
X72709815Y-72722996D01*
X72774476Y-71852182D01*
X72759025Y-71556306D01*
X72677156Y-70878369D01*
X72563585Y-70210481D01*
X72429884Y-69603196D01*
X72287626Y-69107063D01*
X72148386Y-68772636D01*
X72107198Y-68709120D01*
X71922572Y-68353877D01*
X71954469Y-68029416D01*
X72207603Y-67709094D01*
X72297494Y-67633300D01*
X72741783Y-67183473D01*
X72970314Y-66702917D01*
X72996148Y-66162872D01*
X72989019Y-66110645D01*
X72806761Y-65614313D01*
X72447588Y-65177836D01*
X71962955Y-64846612D01*
X71404319Y-64666041D01*
X71341987Y-64657494D01*
X70884737Y-64630318D01*
X70529931Y-64660874D01*
X70326131Y-64742377D01*
X70295946Y-64803640D01*
X70209984Y-64913701D01*
X69991959Y-65095493D01*
X69853371Y-65195854D01*
X69575889Y-65377651D01*
X69379291Y-65441437D01*
X69156623Y-65399886D01*
X68909452Y-65307719D01*
X68585597Y-65175386D01*
X68348492Y-65066891D01*
X68293694Y-65036276D01*
X67895919Y-64842073D01*
X67333781Y-64663876D01*
X66671744Y-64517579D01*
X65974275Y-64419079D01*
X65699372Y-64396596D01*
X65149074Y-64404017D01*
X64509644Y-64478775D01*
X63831905Y-64607518D01*
X63166678Y-64776895D01*
X62564784Y-64973554D01*
X62077045Y-65184144D01*
X61754284Y-65395312D01*
X61706118Y-65445674D01*
X61458590Y-65592957D01*
X61180056Y-65551436D01*
X61006263Y-65401850D01*
X60681549Y-65083224D01*
X60242523Y-64805534D01*
X59806775Y-64641204D01*
X59363368Y-64653496D01*
X58927458Y-64850765D01*
X58534508Y-65190875D01*
X58219978Y-65631687D01*
X58019329Y-66131065D01*
X57968024Y-66646873D01*
X57987811Y-66802579D01*
X58103164Y-67097553D01*
X58325764Y-67459050D01*
X58521988Y-67708454D01*
X58756209Y-67998923D01*
X58900815Y-68226626D01*
X58925854Y-68329820D01*
X58810058Y-68609961D01*
X58685351Y-69063594D01*
X58560939Y-69636100D01*
X58446025Y-70272859D01*
X58349815Y-70919254D01*
X58281513Y-71520666D01*
X58250325Y-72022474D01*
X58256771Y-72300000D01*
X58440823Y-73305088D01*
X58814425Y-74296480D01*
X59388951Y-75298962D01*
X60027252Y-76158066D01*
X60316447Y-76517672D01*
X60540868Y-76805447D01*
X60668096Y-76979389D01*
X60685135Y-77010402D01*
X60644765Y-77131208D01*
X60539676Y-77400977D01*
X60413937Y-77709529D01*
X60072789Y-78612868D01*
X59746951Y-79647059D01*
X59422123Y-80857988D01*
X59381080Y-81023244D01*
X59250973Y-81530954D01*
X59129336Y-81969859D01*
X59032495Y-82282878D01*
X58988363Y-82396217D01*
X58921378Y-82575501D01*
X58806660Y-82934240D01*
X58656124Y-83430971D01*
X58481686Y-84024232D01*
X58295261Y-84672560D01*
X58108765Y-85334492D01*
X57934112Y-85968566D01*
X57783219Y-86533318D01*
X57667999Y-86987286D01*
X57662609Y-87009562D01*
X57527692Y-87665583D01*
X57485599Y-88126666D01*
X57184659Y-88126666D01*
X57188254Y-87966942D01*
X57230769Y-87496573D01*
X57312044Y-86986783D01*
X57438814Y-86402381D01*
X57617815Y-85708181D01*
X57855784Y-84868993D01*
X58159457Y-83849628D01*
X58174868Y-83798649D01*
X58479919Y-82787814D01*
X58724896Y-81970412D01*
X58917091Y-81321184D01*
X59063794Y-80814875D01*
X59172298Y-80426229D01*
X59249895Y-80129988D01*
X59303877Y-79900897D01*
X59314496Y-79851351D01*
X59399267Y-79530915D01*
X59540708Y-79079234D01*
X59712685Y-78578387D01*
X59769885Y-78421171D01*
X59986820Y-77823491D01*
X60126570Y-77402026D01*
X60196276Y-77120265D01*
X60203075Y-76941697D01*
X60154108Y-76829811D01*
X60092186Y-76772880D01*
X59817581Y-76504986D01*
X59492649Y-76089520D01*
X59145435Y-75574891D01*
X58803987Y-75009502D01*
X58496354Y-74441761D01*
X58250583Y-73920074D01*
X58094722Y-73492846D01*
X58053604Y-73254595D01*
X58016799Y-72908210D01*
X57958040Y-72679295D01*
X57917122Y-72404092D01*
X57915133Y-71958031D01*
X57947208Y-71394852D01*
X58008480Y-70768298D01*
X58094083Y-70132108D01*
X58199153Y-69540023D01*
X58271050Y-69222178D01*
X58498334Y-68318231D01*
X58075744Y-67802515D01*
X57834513Y-67484541D01*
X57707821Y-67219496D01*
X57659577Y-66903804D01*
X57653153Y-66589796D01*
X57729561Y-65869286D01*
X57971456Y-65287381D01*
X58397850Y-64806886D01*
X58667210Y-64605631D01*
X59041059Y-64394492D01*
X59391350Y-64260576D01*
X59557596Y-64233784D01*
X60051856Y-64319335D01*
X60578158Y-64546301D01*
X61035176Y-64870155D01*
X61061144Y-64894526D01*
X61291745Y-65086064D01*
X61454044Y-65122293D01*
X61576009Y-65061533D01*
X62255438Y-64685044D01*
X63093034Y-64380889D01*
X64026502Y-64160088D01*
X64993549Y-64033666D01*
X65931878Y-64012643D01*
X66779194Y-64108043D01*
G37*
D19*
X83550000Y-79750000D02*
X84350000Y-79750000D01*
X83550000Y-88050000D02*
X83550000Y-79750000D01*
X84350000Y-79750000D02*
X86950000Y-77150000D01*
X84350000Y-88050000D02*
X83550000Y-88050000D01*
X86950000Y-77150000D02*
X88400000Y-77150000D01*
X86950000Y-90650000D02*
X84350000Y-88050000D01*
X88400000Y-90650000D02*
X86950000Y-90650000D01*
X94500000Y-77150000D02*
X92400000Y-77150000D01*
X94500000Y-90650000D02*
X92400000Y-90650000D01*
X94450000Y-77150000D02*
G75*
G02*
X96000000Y-78600000I50001J-1499999D01*
G01*
X95600000Y-88400000D02*
G75*
G02*
X95984160Y-89314615I-600000J-790000D01*
G01*
X95984160Y-78485385D02*
G75*
G02*
X95600000Y-79400000I-984161J-124615D01*
G01*
X96000000Y-89200000D02*
G75*
G02*
X94450000Y-90650000I-1500000J50000D01*
G01*
%LPC*%
D20*
X93175000Y-70425000D03*
D21*
X78650000Y-76350000D03*
X78650000Y-84550000D03*
D22*
X78650000Y-78450000D03*
D23*
X78650000Y-80450000D03*
X78650000Y-82450000D03*
D24*
X81350000Y-73300000D03*
X76350000Y-70800000D03*
D25*
X81350000Y-68300000D03*
D24*
X81390000Y-92600000D03*
X76390000Y-90100000D03*
D25*
X81390000Y-87600000D03*
D26*
X90400000Y-76000000D03*
X90400000Y-91800000D03*
D27*
X90400000Y-83900000D03*
%LPD*%
M02*
