G04 #@! TF.GenerationSoftware,KiCad,Pcbnew,8.0.1*
G04 #@! TF.CreationDate,2024-04-15T15:14:11+08:00*
G04 #@! TF.ProjectId,555Sandbox,35353553-616e-4646-926f-782e6b696361,rev?*
G04 #@! TF.SameCoordinates,Original*
G04 #@! TF.FileFunction,Legend,Top*
G04 #@! TF.FilePolarity,Positive*
%FSLAX46Y46*%
G04 Gerber Fmt 4.6, Leading zero omitted, Abs format (unit mm)*
G04 Created by KiCad (PCBNEW 8.0.1) date 2024-04-15 15:14:11*
%MOMM*%
%LPD*%
G01*
G04 APERTURE LIST*
G04 Aperture macros list*
%AMRoundRect*
0 Rectangle with rounded corners*
0 $1 Rounding radius*
0 $2 $3 $4 $5 $6 $7 $8 $9 X,Y pos of 4 corners*
0 Add a 4 corners polygon primitive as box body*
4,1,4,$2,$3,$4,$5,$6,$7,$8,$9,$2,$3,0*
0 Add four circle primitives for the rounded corners*
1,1,$1+$1,$2,$3*
1,1,$1+$1,$4,$5*
1,1,$1+$1,$6,$7*
1,1,$1+$1,$8,$9*
0 Add four rect primitives between the rounded corners*
20,1,$1+$1,$2,$3,$4,$5,0*
20,1,$1+$1,$4,$5,$6,$7,0*
20,1,$1+$1,$6,$7,$8,$9,0*
20,1,$1+$1,$8,$9,$2,$3,0*%
G04 Aperture macros list end*
%ADD10C,0.200000*%
%ADD11C,0.250000*%
%ADD12C,0.100000*%
%ADD13C,0.150000*%
%ADD14C,0.000000*%
%ADD15C,0.475000*%
%ADD16C,0.300000*%
%ADD17C,0.360000*%
%ADD18C,0.400000*%
%ADD19C,0.006350*%
%ADD20C,0.240000*%
%ADD21C,0.120000*%
%ADD22R,1.600000X1.600000*%
%ADD23O,1.600000X1.600000*%
%ADD24R,1.800000X1.800000*%
%ADD25C,1.800000*%
%ADD26O,2.200000X3.500000*%
%ADD27R,1.500000X2.500000*%
%ADD28O,1.500000X2.500000*%
%ADD29R,1.700000X1.700000*%
%ADD30O,1.700000X1.700000*%
%ADD31C,1.600000*%
%ADD32R,2.200000X2.200000*%
%ADD33O,2.200000X2.200000*%
%ADD34C,2.000000*%
%ADD35RoundRect,0.249999X1.300001X1.300001X-1.300001X1.300001X-1.300001X-1.300001X1.300001X-1.300001X0*%
%ADD36C,3.100000*%
%ADD37C,4.700000*%
%ADD38R,3.000000X3.000000*%
%ADD39C,3.000000*%
G04 APERTURE END LIST*
D10*
X79200000Y-74100000D02*
X80000000Y-74100000D01*
D11*
X117725000Y-74550000D02*
X117000000Y-73850000D01*
D12*
X113750000Y-71650000D02*
X116750000Y-71650000D01*
X108250000Y-71650000D02*
X105500000Y-71650000D01*
D10*
X83000000Y-91200000D02*
X83000000Y-89000000D01*
D11*
X104850000Y-74550000D02*
X102875000Y-74550000D01*
D10*
X82200000Y-72200000D02*
X82200000Y-74100000D01*
X138400000Y-89900000D02*
X138400000Y-87100000D01*
X110350000Y-80100000D02*
X110350000Y-90000000D01*
D13*
X129300000Y-96400000D02*
G75*
G02*
X128500000Y-96400000I-400000J0D01*
G01*
X128500000Y-96400000D02*
G75*
G02*
X129300000Y-96400000I400000J0D01*
G01*
D10*
X84900000Y-91200000D02*
X83000000Y-91200000D01*
X83000000Y-89000000D02*
X84900000Y-89000000D01*
D12*
X116750000Y-71650000D02*
X116750000Y-70400000D01*
D10*
X135800000Y-65400000D02*
X132850000Y-65400000D01*
X138400000Y-89900000D02*
G75*
G02*
X134800000Y-93500000I-3600000J0D01*
G01*
X127100000Y-93500000D02*
X127900000Y-92800000D01*
D14*
G36*
X116584606Y-96100000D02*
G01*
X116584606Y-96100000D01*
G75*
G02*
X116984606Y-96500000I-6J-400000D01*
G01*
X116984606Y-97700000D01*
G75*
G02*
X116584606Y-98100000I-400006J0D01*
G01*
X116584606Y-98100000D01*
G75*
G02*
X116184606Y-97700000I-6J400000D01*
G01*
X116184606Y-96500000D01*
G75*
G02*
X116584606Y-96100000I399994J0D01*
G01*
X116584606Y-96100000D01*
G37*
D12*
X105500000Y-71650000D02*
X105500000Y-70400000D01*
D10*
X84900000Y-89000000D02*
X84900000Y-87600000D01*
D11*
X102875000Y-74550000D02*
X103600000Y-73850000D01*
X102875000Y-74550000D02*
X103600000Y-75250000D01*
D10*
X135800000Y-65400000D02*
G75*
G02*
X138400000Y-68000000I0J-2600000D01*
G01*
D11*
X116200000Y-74550000D02*
X117725000Y-74550000D01*
D10*
X83600000Y-72200000D02*
X84300000Y-72200000D01*
X127900000Y-94200000D02*
X127100000Y-93500000D01*
X80000000Y-72200000D02*
X82200000Y-72200000D01*
D15*
X129137500Y-97500000D02*
G75*
G02*
X128662500Y-97500000I-237500J0D01*
G01*
X128662500Y-97500000D02*
G75*
G02*
X129137500Y-97500000I237500J0D01*
G01*
D10*
X132850000Y-65400000D02*
X132150000Y-66200000D01*
X82200000Y-74100000D02*
X83600000Y-74100000D01*
X134800000Y-93500000D02*
X127100000Y-93500000D01*
X138400000Y-74300000D02*
X138399999Y-68000000D01*
X83600000Y-74100000D02*
X83600000Y-72200000D01*
X84900000Y-87600000D02*
X83000000Y-87600000D01*
X110350000Y-72800000D02*
X110350000Y-76300000D01*
X83000000Y-87600000D02*
X83000000Y-86900000D01*
X80000000Y-74100000D02*
X80000000Y-72200000D01*
X84900000Y-92000000D02*
X84900000Y-91200000D01*
X97750000Y-97750000D02*
X105000000Y-97750000D01*
X105000000Y-100500000D01*
X82500000Y-100500000D01*
X82500000Y-95250000D01*
X97750000Y-95250000D01*
X97750000Y-97750000D01*
D11*
X117725000Y-74550000D02*
X117000000Y-75250000D01*
D16*
X106425847Y-73805828D02*
X105711561Y-73805828D01*
X105711561Y-73805828D02*
X105640133Y-74520114D01*
X105640133Y-74520114D02*
X105711561Y-74448685D01*
X105711561Y-74448685D02*
X105854419Y-74377257D01*
X105854419Y-74377257D02*
X106211561Y-74377257D01*
X106211561Y-74377257D02*
X106354419Y-74448685D01*
X106354419Y-74448685D02*
X106425847Y-74520114D01*
X106425847Y-74520114D02*
X106497276Y-74662971D01*
X106497276Y-74662971D02*
X106497276Y-75020114D01*
X106497276Y-75020114D02*
X106425847Y-75162971D01*
X106425847Y-75162971D02*
X106354419Y-75234400D01*
X106354419Y-75234400D02*
X106211561Y-75305828D01*
X106211561Y-75305828D02*
X105854419Y-75305828D01*
X105854419Y-75305828D02*
X105711561Y-75234400D01*
X105711561Y-75234400D02*
X105640133Y-75162971D01*
X107854418Y-73805828D02*
X107140132Y-73805828D01*
X107140132Y-73805828D02*
X107068704Y-74520114D01*
X107068704Y-74520114D02*
X107140132Y-74448685D01*
X107140132Y-74448685D02*
X107282990Y-74377257D01*
X107282990Y-74377257D02*
X107640132Y-74377257D01*
X107640132Y-74377257D02*
X107782990Y-74448685D01*
X107782990Y-74448685D02*
X107854418Y-74520114D01*
X107854418Y-74520114D02*
X107925847Y-74662971D01*
X107925847Y-74662971D02*
X107925847Y-75020114D01*
X107925847Y-75020114D02*
X107854418Y-75162971D01*
X107854418Y-75162971D02*
X107782990Y-75234400D01*
X107782990Y-75234400D02*
X107640132Y-75305828D01*
X107640132Y-75305828D02*
X107282990Y-75305828D01*
X107282990Y-75305828D02*
X107140132Y-75234400D01*
X107140132Y-75234400D02*
X107068704Y-75162971D01*
X109282989Y-73805828D02*
X108568703Y-73805828D01*
X108568703Y-73805828D02*
X108497275Y-74520114D01*
X108497275Y-74520114D02*
X108568703Y-74448685D01*
X108568703Y-74448685D02*
X108711561Y-74377257D01*
X108711561Y-74377257D02*
X109068703Y-74377257D01*
X109068703Y-74377257D02*
X109211561Y-74448685D01*
X109211561Y-74448685D02*
X109282989Y-74520114D01*
X109282989Y-74520114D02*
X109354418Y-74662971D01*
X109354418Y-74662971D02*
X109354418Y-75020114D01*
X109354418Y-75020114D02*
X109282989Y-75162971D01*
X109282989Y-75162971D02*
X109211561Y-75234400D01*
X109211561Y-75234400D02*
X109068703Y-75305828D01*
X109068703Y-75305828D02*
X108711561Y-75305828D01*
X108711561Y-75305828D02*
X108568703Y-75234400D01*
X108568703Y-75234400D02*
X108497275Y-75162971D01*
X85754510Y-73115114D02*
X85254510Y-73115114D01*
X85254510Y-73900828D02*
X85254510Y-72400828D01*
X85254510Y-72400828D02*
X85968796Y-72400828D01*
X86540224Y-73900828D02*
X86540224Y-72900828D01*
X86540224Y-73186542D02*
X86611653Y-73043685D01*
X86611653Y-73043685D02*
X86683082Y-72972257D01*
X86683082Y-72972257D02*
X86825939Y-72900828D01*
X86825939Y-72900828D02*
X86968796Y-72900828D01*
X88040224Y-73829400D02*
X87897367Y-73900828D01*
X87897367Y-73900828D02*
X87611653Y-73900828D01*
X87611653Y-73900828D02*
X87468795Y-73829400D01*
X87468795Y-73829400D02*
X87397367Y-73686542D01*
X87397367Y-73686542D02*
X87397367Y-73115114D01*
X87397367Y-73115114D02*
X87468795Y-72972257D01*
X87468795Y-72972257D02*
X87611653Y-72900828D01*
X87611653Y-72900828D02*
X87897367Y-72900828D01*
X87897367Y-72900828D02*
X88040224Y-72972257D01*
X88040224Y-72972257D02*
X88111653Y-73115114D01*
X88111653Y-73115114D02*
X88111653Y-73257971D01*
X88111653Y-73257971D02*
X87397367Y-73400828D01*
X89397367Y-72900828D02*
X89397367Y-74400828D01*
X89397367Y-73829400D02*
X89254509Y-73900828D01*
X89254509Y-73900828D02*
X88968795Y-73900828D01*
X88968795Y-73900828D02*
X88825938Y-73829400D01*
X88825938Y-73829400D02*
X88754509Y-73757971D01*
X88754509Y-73757971D02*
X88683081Y-73615114D01*
X88683081Y-73615114D02*
X88683081Y-73186542D01*
X88683081Y-73186542D02*
X88754509Y-73043685D01*
X88754509Y-73043685D02*
X88825938Y-72972257D01*
X88825938Y-72972257D02*
X88968795Y-72900828D01*
X88968795Y-72900828D02*
X89254509Y-72900828D01*
X89254509Y-72900828D02*
X89397367Y-72972257D01*
D13*
X128430180Y-98463220D02*
X129430180Y-98463220D01*
X129430180Y-98463220D02*
X129430180Y-98701315D01*
X129430180Y-98701315D02*
X129382561Y-98844172D01*
X129382561Y-98844172D02*
X129287323Y-98939410D01*
X129287323Y-98939410D02*
X129192085Y-98987029D01*
X129192085Y-98987029D02*
X129001609Y-99034648D01*
X129001609Y-99034648D02*
X128858752Y-99034648D01*
X128858752Y-99034648D02*
X128668276Y-98987029D01*
X128668276Y-98987029D02*
X128573038Y-98939410D01*
X128573038Y-98939410D02*
X128477800Y-98844172D01*
X128477800Y-98844172D02*
X128430180Y-98701315D01*
X128430180Y-98701315D02*
X128430180Y-98463220D01*
X128430180Y-99606077D02*
X128477800Y-99510839D01*
X128477800Y-99510839D02*
X128525419Y-99463220D01*
X128525419Y-99463220D02*
X128620657Y-99415601D01*
X128620657Y-99415601D02*
X128906371Y-99415601D01*
X128906371Y-99415601D02*
X129001609Y-99463220D01*
X129001609Y-99463220D02*
X129049228Y-99510839D01*
X129049228Y-99510839D02*
X129096847Y-99606077D01*
X129096847Y-99606077D02*
X129096847Y-99748934D01*
X129096847Y-99748934D02*
X129049228Y-99844172D01*
X129049228Y-99844172D02*
X129001609Y-99891791D01*
X129001609Y-99891791D02*
X128906371Y-99939410D01*
X128906371Y-99939410D02*
X128620657Y-99939410D01*
X128620657Y-99939410D02*
X128525419Y-99891791D01*
X128525419Y-99891791D02*
X128477800Y-99844172D01*
X128477800Y-99844172D02*
X128430180Y-99748934D01*
X128430180Y-99748934D02*
X128430180Y-99606077D01*
X129096847Y-100225125D02*
X129096847Y-100606077D01*
X129430180Y-100367982D02*
X128573038Y-100367982D01*
X128573038Y-100367982D02*
X128477800Y-100415601D01*
X128477800Y-100415601D02*
X128430180Y-100510839D01*
X128430180Y-100510839D02*
X128430180Y-100606077D01*
D10*
X111226816Y-73257275D02*
X111560149Y-74257275D01*
X111560149Y-74257275D02*
X111893482Y-73257275D01*
X112417292Y-73257275D02*
X112607768Y-73257275D01*
X112607768Y-73257275D02*
X112703006Y-73304894D01*
X112703006Y-73304894D02*
X112798244Y-73400132D01*
X112798244Y-73400132D02*
X112845863Y-73590608D01*
X112845863Y-73590608D02*
X112845863Y-73923941D01*
X112845863Y-73923941D02*
X112798244Y-74114417D01*
X112798244Y-74114417D02*
X112703006Y-74209656D01*
X112703006Y-74209656D02*
X112607768Y-74257275D01*
X112607768Y-74257275D02*
X112417292Y-74257275D01*
X112417292Y-74257275D02*
X112322054Y-74209656D01*
X112322054Y-74209656D02*
X112226816Y-74114417D01*
X112226816Y-74114417D02*
X112179197Y-73923941D01*
X112179197Y-73923941D02*
X112179197Y-73590608D01*
X112179197Y-73590608D02*
X112226816Y-73400132D01*
X112226816Y-73400132D02*
X112322054Y-73304894D01*
X112322054Y-73304894D02*
X112417292Y-73257275D01*
X113750625Y-74257275D02*
X113274435Y-74257275D01*
X113274435Y-74257275D02*
X113274435Y-73257275D01*
X113941102Y-73257275D02*
X114512530Y-73257275D01*
X114226816Y-74257275D02*
X114226816Y-73257275D01*
X114845864Y-73876322D02*
X115607769Y-73876322D01*
X111369673Y-75867219D02*
X111369673Y-74867219D01*
X111369673Y-74867219D02*
X111703006Y-75581504D01*
X111703006Y-75581504D02*
X112036339Y-74867219D01*
X112036339Y-74867219D02*
X112036339Y-75867219D01*
X112512530Y-75343409D02*
X112845863Y-75343409D01*
X112988720Y-75867219D02*
X112512530Y-75867219D01*
X112512530Y-75867219D02*
X112512530Y-74867219D01*
X112512530Y-74867219D02*
X112988720Y-74867219D01*
X113274435Y-74867219D02*
X113845863Y-74867219D01*
X113560149Y-75867219D02*
X113560149Y-74867219D01*
X114179197Y-75343409D02*
X114512530Y-75343409D01*
X114655387Y-75867219D02*
X114179197Y-75867219D01*
X114179197Y-75867219D02*
X114179197Y-74867219D01*
X114179197Y-74867219D02*
X114655387Y-74867219D01*
X115655387Y-75867219D02*
X115322054Y-75391028D01*
X115083959Y-75867219D02*
X115083959Y-74867219D01*
X115083959Y-74867219D02*
X115464911Y-74867219D01*
X115464911Y-74867219D02*
X115560149Y-74914838D01*
X115560149Y-74914838D02*
X115607768Y-74962457D01*
X115607768Y-74962457D02*
X115655387Y-75057695D01*
X115655387Y-75057695D02*
X115655387Y-75200552D01*
X115655387Y-75200552D02*
X115607768Y-75295790D01*
X115607768Y-75295790D02*
X115560149Y-75343409D01*
X115560149Y-75343409D02*
X115464911Y-75391028D01*
X115464911Y-75391028D02*
X115083959Y-75391028D01*
D13*
X109238095Y-71169819D02*
X108761905Y-71169819D01*
X108761905Y-71169819D02*
X108714286Y-71646009D01*
X108714286Y-71646009D02*
X108761905Y-71598390D01*
X108761905Y-71598390D02*
X108857143Y-71550771D01*
X108857143Y-71550771D02*
X109095238Y-71550771D01*
X109095238Y-71550771D02*
X109190476Y-71598390D01*
X109190476Y-71598390D02*
X109238095Y-71646009D01*
X109238095Y-71646009D02*
X109285714Y-71741247D01*
X109285714Y-71741247D02*
X109285714Y-71979342D01*
X109285714Y-71979342D02*
X109238095Y-72074580D01*
X109238095Y-72074580D02*
X109190476Y-72122200D01*
X109190476Y-72122200D02*
X109095238Y-72169819D01*
X109095238Y-72169819D02*
X108857143Y-72169819D01*
X108857143Y-72169819D02*
X108761905Y-72122200D01*
X108761905Y-72122200D02*
X108714286Y-72074580D01*
X109714286Y-71788866D02*
X110476191Y-71788866D01*
X111476190Y-72169819D02*
X110904762Y-72169819D01*
X111190476Y-72169819D02*
X111190476Y-71169819D01*
X111190476Y-71169819D02*
X111095238Y-71312676D01*
X111095238Y-71312676D02*
X111000000Y-71407914D01*
X111000000Y-71407914D02*
X110904762Y-71455533D01*
X112333333Y-71169819D02*
X112142857Y-71169819D01*
X112142857Y-71169819D02*
X112047619Y-71217438D01*
X112047619Y-71217438D02*
X112000000Y-71265057D01*
X112000000Y-71265057D02*
X111904762Y-71407914D01*
X111904762Y-71407914D02*
X111857143Y-71598390D01*
X111857143Y-71598390D02*
X111857143Y-71979342D01*
X111857143Y-71979342D02*
X111904762Y-72074580D01*
X111904762Y-72074580D02*
X111952381Y-72122200D01*
X111952381Y-72122200D02*
X112047619Y-72169819D01*
X112047619Y-72169819D02*
X112238095Y-72169819D01*
X112238095Y-72169819D02*
X112333333Y-72122200D01*
X112333333Y-72122200D02*
X112380952Y-72074580D01*
X112380952Y-72074580D02*
X112428571Y-71979342D01*
X112428571Y-71979342D02*
X112428571Y-71741247D01*
X112428571Y-71741247D02*
X112380952Y-71646009D01*
X112380952Y-71646009D02*
X112333333Y-71598390D01*
X112333333Y-71598390D02*
X112238095Y-71550771D01*
X112238095Y-71550771D02*
X112047619Y-71550771D01*
X112047619Y-71550771D02*
X111952381Y-71598390D01*
X111952381Y-71598390D02*
X111904762Y-71646009D01*
X111904762Y-71646009D02*
X111857143Y-71741247D01*
X112714286Y-71169819D02*
X113047619Y-72169819D01*
X113047619Y-72169819D02*
X113380952Y-71169819D01*
X116393579Y-100229887D02*
X116441198Y-100087030D01*
X116441198Y-100087030D02*
X116488817Y-100039411D01*
X116488817Y-100039411D02*
X116584055Y-99991792D01*
X116584055Y-99991792D02*
X116726912Y-99991792D01*
X116726912Y-99991792D02*
X116822150Y-100039411D01*
X116822150Y-100039411D02*
X116869770Y-100087030D01*
X116869770Y-100087030D02*
X116917389Y-100182268D01*
X116917389Y-100182268D02*
X116917389Y-100563220D01*
X116917389Y-100563220D02*
X115917389Y-100563220D01*
X115917389Y-100563220D02*
X115917389Y-100229887D01*
X115917389Y-100229887D02*
X115965008Y-100134649D01*
X115965008Y-100134649D02*
X116012627Y-100087030D01*
X116012627Y-100087030D02*
X116107865Y-100039411D01*
X116107865Y-100039411D02*
X116203103Y-100039411D01*
X116203103Y-100039411D02*
X116298341Y-100087030D01*
X116298341Y-100087030D02*
X116345960Y-100134649D01*
X116345960Y-100134649D02*
X116393579Y-100229887D01*
X116393579Y-100229887D02*
X116393579Y-100563220D01*
X116917389Y-99134649D02*
X116393579Y-99134649D01*
X116393579Y-99134649D02*
X116298341Y-99182268D01*
X116298341Y-99182268D02*
X116250722Y-99277506D01*
X116250722Y-99277506D02*
X116250722Y-99467982D01*
X116250722Y-99467982D02*
X116298341Y-99563220D01*
X116869770Y-99134649D02*
X116917389Y-99229887D01*
X116917389Y-99229887D02*
X116917389Y-99467982D01*
X116917389Y-99467982D02*
X116869770Y-99563220D01*
X116869770Y-99563220D02*
X116774531Y-99610839D01*
X116774531Y-99610839D02*
X116679293Y-99610839D01*
X116679293Y-99610839D02*
X116584055Y-99563220D01*
X116584055Y-99563220D02*
X116536436Y-99467982D01*
X116536436Y-99467982D02*
X116536436Y-99229887D01*
X116536436Y-99229887D02*
X116488817Y-99134649D01*
X116917389Y-98658458D02*
X116250722Y-98658458D01*
X116441198Y-98658458D02*
X116345960Y-98610839D01*
X116345960Y-98610839D02*
X116298341Y-98563220D01*
X116298341Y-98563220D02*
X116250722Y-98467982D01*
X116250722Y-98467982D02*
X116250722Y-98372744D01*
D10*
X138756980Y-85795238D02*
X138804600Y-85842857D01*
X138804600Y-85842857D02*
X138852219Y-85985714D01*
X138852219Y-85985714D02*
X138852219Y-86080952D01*
X138852219Y-86080952D02*
X138804600Y-86223809D01*
X138804600Y-86223809D02*
X138709361Y-86319047D01*
X138709361Y-86319047D02*
X138614123Y-86366666D01*
X138614123Y-86366666D02*
X138423647Y-86414285D01*
X138423647Y-86414285D02*
X138280790Y-86414285D01*
X138280790Y-86414285D02*
X138090314Y-86366666D01*
X138090314Y-86366666D02*
X137995076Y-86319047D01*
X137995076Y-86319047D02*
X137899838Y-86223809D01*
X137899838Y-86223809D02*
X137852219Y-86080952D01*
X137852219Y-86080952D02*
X137852219Y-85985714D01*
X137852219Y-85985714D02*
X137899838Y-85842857D01*
X137899838Y-85842857D02*
X137947457Y-85795238D01*
X138566504Y-85414285D02*
X138566504Y-84938095D01*
X138852219Y-85509523D02*
X137852219Y-85176190D01*
X137852219Y-85176190D02*
X138852219Y-84842857D01*
X138852219Y-84509523D02*
X137852219Y-84509523D01*
X137852219Y-84509523D02*
X137852219Y-84128571D01*
X137852219Y-84128571D02*
X137899838Y-84033333D01*
X137899838Y-84033333D02*
X137947457Y-83985714D01*
X137947457Y-83985714D02*
X138042695Y-83938095D01*
X138042695Y-83938095D02*
X138185552Y-83938095D01*
X138185552Y-83938095D02*
X138280790Y-83985714D01*
X138280790Y-83985714D02*
X138328409Y-84033333D01*
X138328409Y-84033333D02*
X138376028Y-84128571D01*
X138376028Y-84128571D02*
X138376028Y-84509523D01*
X137852219Y-82890475D02*
X138852219Y-82557142D01*
X138852219Y-82557142D02*
X137852219Y-82223809D01*
X137852219Y-81699999D02*
X137852219Y-81509523D01*
X137852219Y-81509523D02*
X137899838Y-81414285D01*
X137899838Y-81414285D02*
X137995076Y-81319047D01*
X137995076Y-81319047D02*
X138185552Y-81271428D01*
X138185552Y-81271428D02*
X138518885Y-81271428D01*
X138518885Y-81271428D02*
X138709361Y-81319047D01*
X138709361Y-81319047D02*
X138804600Y-81414285D01*
X138804600Y-81414285D02*
X138852219Y-81509523D01*
X138852219Y-81509523D02*
X138852219Y-81699999D01*
X138852219Y-81699999D02*
X138804600Y-81795237D01*
X138804600Y-81795237D02*
X138709361Y-81890475D01*
X138709361Y-81890475D02*
X138518885Y-81938094D01*
X138518885Y-81938094D02*
X138185552Y-81938094D01*
X138185552Y-81938094D02*
X137995076Y-81890475D01*
X137995076Y-81890475D02*
X137899838Y-81795237D01*
X137899838Y-81795237D02*
X137852219Y-81699999D01*
X138852219Y-80366666D02*
X138852219Y-80842856D01*
X138852219Y-80842856D02*
X137852219Y-80842856D01*
X137852219Y-80176189D02*
X137852219Y-79604761D01*
X138852219Y-79890475D02*
X137852219Y-79890475D01*
X138852219Y-79271427D02*
X137852219Y-79271427D01*
X137852219Y-79271427D02*
X138566504Y-78938094D01*
X138566504Y-78938094D02*
X137852219Y-78604761D01*
X137852219Y-78604761D02*
X138852219Y-78604761D01*
X138328409Y-78128570D02*
X138328409Y-77795237D01*
X138852219Y-77652380D02*
X138852219Y-78128570D01*
X138852219Y-78128570D02*
X137852219Y-78128570D01*
X137852219Y-78128570D02*
X137852219Y-77652380D01*
X137852219Y-77366665D02*
X137852219Y-76795237D01*
X138852219Y-77080951D02*
X137852219Y-77080951D01*
X138328409Y-76461903D02*
X138328409Y-76128570D01*
X138852219Y-75985713D02*
X138852219Y-76461903D01*
X138852219Y-76461903D02*
X137852219Y-76461903D01*
X137852219Y-76461903D02*
X137852219Y-75985713D01*
X138852219Y-74985713D02*
X138376028Y-75319046D01*
X138852219Y-75557141D02*
X137852219Y-75557141D01*
X137852219Y-75557141D02*
X137852219Y-75176189D01*
X137852219Y-75176189D02*
X137899838Y-75080951D01*
X137899838Y-75080951D02*
X137947457Y-75033332D01*
X137947457Y-75033332D02*
X138042695Y-74985713D01*
X138042695Y-74985713D02*
X138185552Y-74985713D01*
X138185552Y-74985713D02*
X138280790Y-75033332D01*
X138280790Y-75033332D02*
X138328409Y-75080951D01*
X138328409Y-75080951D02*
X138376028Y-75176189D01*
X138376028Y-75176189D02*
X138376028Y-75557141D01*
D17*
X113414286Y-65728280D02*
X114785715Y-65728280D01*
X114100000Y-66413994D02*
X114100000Y-65042565D01*
D13*
X83336779Y-99619819D02*
X83336779Y-98619819D01*
X83336779Y-98619819D02*
X83574874Y-98619819D01*
X83574874Y-98619819D02*
X83717731Y-98667438D01*
X83717731Y-98667438D02*
X83812969Y-98762676D01*
X83812969Y-98762676D02*
X83860588Y-98857914D01*
X83860588Y-98857914D02*
X83908207Y-99048390D01*
X83908207Y-99048390D02*
X83908207Y-99191247D01*
X83908207Y-99191247D02*
X83860588Y-99381723D01*
X83860588Y-99381723D02*
X83812969Y-99476961D01*
X83812969Y-99476961D02*
X83717731Y-99572200D01*
X83717731Y-99572200D02*
X83574874Y-99619819D01*
X83574874Y-99619819D02*
X83336779Y-99619819D01*
X84717731Y-99572200D02*
X84622493Y-99619819D01*
X84622493Y-99619819D02*
X84432017Y-99619819D01*
X84432017Y-99619819D02*
X84336779Y-99572200D01*
X84336779Y-99572200D02*
X84289160Y-99476961D01*
X84289160Y-99476961D02*
X84289160Y-99096009D01*
X84289160Y-99096009D02*
X84336779Y-99000771D01*
X84336779Y-99000771D02*
X84432017Y-98953152D01*
X84432017Y-98953152D02*
X84622493Y-98953152D01*
X84622493Y-98953152D02*
X84717731Y-99000771D01*
X84717731Y-99000771D02*
X84765350Y-99096009D01*
X84765350Y-99096009D02*
X84765350Y-99191247D01*
X84765350Y-99191247D02*
X84289160Y-99286485D01*
X85146303Y-99572200D02*
X85241541Y-99619819D01*
X85241541Y-99619819D02*
X85432017Y-99619819D01*
X85432017Y-99619819D02*
X85527255Y-99572200D01*
X85527255Y-99572200D02*
X85574874Y-99476961D01*
X85574874Y-99476961D02*
X85574874Y-99429342D01*
X85574874Y-99429342D02*
X85527255Y-99334104D01*
X85527255Y-99334104D02*
X85432017Y-99286485D01*
X85432017Y-99286485D02*
X85289160Y-99286485D01*
X85289160Y-99286485D02*
X85193922Y-99238866D01*
X85193922Y-99238866D02*
X85146303Y-99143628D01*
X85146303Y-99143628D02*
X85146303Y-99096009D01*
X85146303Y-99096009D02*
X85193922Y-99000771D01*
X85193922Y-99000771D02*
X85289160Y-98953152D01*
X85289160Y-98953152D02*
X85432017Y-98953152D01*
X85432017Y-98953152D02*
X85527255Y-99000771D01*
X86003446Y-99619819D02*
X86003446Y-98953152D01*
X86003446Y-98619819D02*
X85955827Y-98667438D01*
X85955827Y-98667438D02*
X86003446Y-98715057D01*
X86003446Y-98715057D02*
X86051065Y-98667438D01*
X86051065Y-98667438D02*
X86003446Y-98619819D01*
X86003446Y-98619819D02*
X86003446Y-98715057D01*
X86908207Y-98953152D02*
X86908207Y-99762676D01*
X86908207Y-99762676D02*
X86860588Y-99857914D01*
X86860588Y-99857914D02*
X86812969Y-99905533D01*
X86812969Y-99905533D02*
X86717731Y-99953152D01*
X86717731Y-99953152D02*
X86574874Y-99953152D01*
X86574874Y-99953152D02*
X86479636Y-99905533D01*
X86908207Y-99572200D02*
X86812969Y-99619819D01*
X86812969Y-99619819D02*
X86622493Y-99619819D01*
X86622493Y-99619819D02*
X86527255Y-99572200D01*
X86527255Y-99572200D02*
X86479636Y-99524580D01*
X86479636Y-99524580D02*
X86432017Y-99429342D01*
X86432017Y-99429342D02*
X86432017Y-99143628D01*
X86432017Y-99143628D02*
X86479636Y-99048390D01*
X86479636Y-99048390D02*
X86527255Y-99000771D01*
X86527255Y-99000771D02*
X86622493Y-98953152D01*
X86622493Y-98953152D02*
X86812969Y-98953152D01*
X86812969Y-98953152D02*
X86908207Y-99000771D01*
X87384398Y-98953152D02*
X87384398Y-99619819D01*
X87384398Y-99048390D02*
X87432017Y-99000771D01*
X87432017Y-99000771D02*
X87527255Y-98953152D01*
X87527255Y-98953152D02*
X87670112Y-98953152D01*
X87670112Y-98953152D02*
X87765350Y-99000771D01*
X87765350Y-99000771D02*
X87812969Y-99096009D01*
X87812969Y-99096009D02*
X87812969Y-99619819D01*
X88670112Y-99572200D02*
X88574874Y-99619819D01*
X88574874Y-99619819D02*
X88384398Y-99619819D01*
X88384398Y-99619819D02*
X88289160Y-99572200D01*
X88289160Y-99572200D02*
X88241541Y-99476961D01*
X88241541Y-99476961D02*
X88241541Y-99096009D01*
X88241541Y-99096009D02*
X88289160Y-99000771D01*
X88289160Y-99000771D02*
X88384398Y-98953152D01*
X88384398Y-98953152D02*
X88574874Y-98953152D01*
X88574874Y-98953152D02*
X88670112Y-99000771D01*
X88670112Y-99000771D02*
X88717731Y-99096009D01*
X88717731Y-99096009D02*
X88717731Y-99191247D01*
X88717731Y-99191247D02*
X88241541Y-99286485D01*
X89574874Y-99619819D02*
X89574874Y-98619819D01*
X89574874Y-99572200D02*
X89479636Y-99619819D01*
X89479636Y-99619819D02*
X89289160Y-99619819D01*
X89289160Y-99619819D02*
X89193922Y-99572200D01*
X89193922Y-99572200D02*
X89146303Y-99524580D01*
X89146303Y-99524580D02*
X89098684Y-99429342D01*
X89098684Y-99429342D02*
X89098684Y-99143628D01*
X89098684Y-99143628D02*
X89146303Y-99048390D01*
X89146303Y-99048390D02*
X89193922Y-99000771D01*
X89193922Y-99000771D02*
X89289160Y-98953152D01*
X89289160Y-98953152D02*
X89479636Y-98953152D01*
X89479636Y-98953152D02*
X89574874Y-99000771D01*
X90812970Y-99619819D02*
X90812970Y-98619819D01*
X90812970Y-99000771D02*
X90908208Y-98953152D01*
X90908208Y-98953152D02*
X91098684Y-98953152D01*
X91098684Y-98953152D02*
X91193922Y-99000771D01*
X91193922Y-99000771D02*
X91241541Y-99048390D01*
X91241541Y-99048390D02*
X91289160Y-99143628D01*
X91289160Y-99143628D02*
X91289160Y-99429342D01*
X91289160Y-99429342D02*
X91241541Y-99524580D01*
X91241541Y-99524580D02*
X91193922Y-99572200D01*
X91193922Y-99572200D02*
X91098684Y-99619819D01*
X91098684Y-99619819D02*
X90908208Y-99619819D01*
X90908208Y-99619819D02*
X90812970Y-99572200D01*
X91622494Y-98953152D02*
X91860589Y-99619819D01*
X92098684Y-98953152D02*
X91860589Y-99619819D01*
X91860589Y-99619819D02*
X91765351Y-99857914D01*
X91765351Y-99857914D02*
X91717732Y-99905533D01*
X91717732Y-99905533D02*
X91622494Y-99953152D01*
X93098685Y-98619819D02*
X93432018Y-99619819D01*
X93432018Y-99619819D02*
X93765351Y-98619819D01*
X94098685Y-99619819D02*
X94098685Y-98953152D01*
X94098685Y-98619819D02*
X94051066Y-98667438D01*
X94051066Y-98667438D02*
X94098685Y-98715057D01*
X94098685Y-98715057D02*
X94146304Y-98667438D01*
X94146304Y-98667438D02*
X94098685Y-98619819D01*
X94098685Y-98619819D02*
X94098685Y-98715057D01*
X94574875Y-98953152D02*
X94574875Y-99619819D01*
X94574875Y-99048390D02*
X94622494Y-99000771D01*
X94622494Y-99000771D02*
X94717732Y-98953152D01*
X94717732Y-98953152D02*
X94860589Y-98953152D01*
X94860589Y-98953152D02*
X94955827Y-99000771D01*
X94955827Y-99000771D02*
X95003446Y-99096009D01*
X95003446Y-99096009D02*
X95003446Y-99619819D01*
X95908208Y-99572200D02*
X95812970Y-99619819D01*
X95812970Y-99619819D02*
X95622494Y-99619819D01*
X95622494Y-99619819D02*
X95527256Y-99572200D01*
X95527256Y-99572200D02*
X95479637Y-99524580D01*
X95479637Y-99524580D02*
X95432018Y-99429342D01*
X95432018Y-99429342D02*
X95432018Y-99143628D01*
X95432018Y-99143628D02*
X95479637Y-99048390D01*
X95479637Y-99048390D02*
X95527256Y-99000771D01*
X95527256Y-99000771D02*
X95622494Y-98953152D01*
X95622494Y-98953152D02*
X95812970Y-98953152D01*
X95812970Y-98953152D02*
X95908208Y-99000771D01*
X96717732Y-99572200D02*
X96622494Y-99619819D01*
X96622494Y-99619819D02*
X96432018Y-99619819D01*
X96432018Y-99619819D02*
X96336780Y-99572200D01*
X96336780Y-99572200D02*
X96289161Y-99476961D01*
X96289161Y-99476961D02*
X96289161Y-99096009D01*
X96289161Y-99096009D02*
X96336780Y-99000771D01*
X96336780Y-99000771D02*
X96432018Y-98953152D01*
X96432018Y-98953152D02*
X96622494Y-98953152D01*
X96622494Y-98953152D02*
X96717732Y-99000771D01*
X96717732Y-99000771D02*
X96765351Y-99096009D01*
X96765351Y-99096009D02*
X96765351Y-99191247D01*
X96765351Y-99191247D02*
X96289161Y-99286485D01*
X97193923Y-98953152D02*
X97193923Y-99619819D01*
X97193923Y-99048390D02*
X97241542Y-99000771D01*
X97241542Y-99000771D02*
X97336780Y-98953152D01*
X97336780Y-98953152D02*
X97479637Y-98953152D01*
X97479637Y-98953152D02*
X97574875Y-99000771D01*
X97574875Y-99000771D02*
X97622494Y-99096009D01*
X97622494Y-99096009D02*
X97622494Y-99619819D01*
X97955828Y-98953152D02*
X98336780Y-98953152D01*
X98098685Y-98619819D02*
X98098685Y-99476961D01*
X98098685Y-99476961D02*
X98146304Y-99572200D01*
X98146304Y-99572200D02*
X98241542Y-99619819D01*
X98241542Y-99619819D02*
X98336780Y-99619819D01*
X99289162Y-98953152D02*
X99670114Y-98953152D01*
X99432019Y-99619819D02*
X99432019Y-98762676D01*
X99432019Y-98762676D02*
X99479638Y-98667438D01*
X99479638Y-98667438D02*
X99574876Y-98619819D01*
X99574876Y-98619819D02*
X99670114Y-98619819D01*
X100146305Y-99619819D02*
X100051067Y-99572200D01*
X100051067Y-99572200D02*
X100003448Y-99524580D01*
X100003448Y-99524580D02*
X99955829Y-99429342D01*
X99955829Y-99429342D02*
X99955829Y-99143628D01*
X99955829Y-99143628D02*
X100003448Y-99048390D01*
X100003448Y-99048390D02*
X100051067Y-99000771D01*
X100051067Y-99000771D02*
X100146305Y-98953152D01*
X100146305Y-98953152D02*
X100289162Y-98953152D01*
X100289162Y-98953152D02*
X100384400Y-99000771D01*
X100384400Y-99000771D02*
X100432019Y-99048390D01*
X100432019Y-99048390D02*
X100479638Y-99143628D01*
X100479638Y-99143628D02*
X100479638Y-99429342D01*
X100479638Y-99429342D02*
X100432019Y-99524580D01*
X100432019Y-99524580D02*
X100384400Y-99572200D01*
X100384400Y-99572200D02*
X100289162Y-99619819D01*
X100289162Y-99619819D02*
X100146305Y-99619819D01*
X100908210Y-99619819D02*
X100908210Y-98953152D01*
X100908210Y-99143628D02*
X100955829Y-99048390D01*
X100955829Y-99048390D02*
X101003448Y-99000771D01*
X101003448Y-99000771D02*
X101098686Y-98953152D01*
X101098686Y-98953152D02*
X101193924Y-98953152D01*
X102289163Y-99096009D02*
X102622496Y-99096009D01*
X102765353Y-99619819D02*
X102289163Y-99619819D01*
X102289163Y-99619819D02*
X102289163Y-98619819D01*
X102289163Y-98619819D02*
X102765353Y-98619819D01*
X103193925Y-99619819D02*
X103193925Y-98619819D01*
X104193924Y-98667438D02*
X104098686Y-98619819D01*
X104098686Y-98619819D02*
X103955829Y-98619819D01*
X103955829Y-98619819D02*
X103812972Y-98667438D01*
X103812972Y-98667438D02*
X103717734Y-98762676D01*
X103717734Y-98762676D02*
X103670115Y-98857914D01*
X103670115Y-98857914D02*
X103622496Y-99048390D01*
X103622496Y-99048390D02*
X103622496Y-99191247D01*
X103622496Y-99191247D02*
X103670115Y-99381723D01*
X103670115Y-99381723D02*
X103717734Y-99476961D01*
X103717734Y-99476961D02*
X103812972Y-99572200D01*
X103812972Y-99572200D02*
X103955829Y-99619819D01*
X103955829Y-99619819D02*
X104051067Y-99619819D01*
X104051067Y-99619819D02*
X104193924Y-99572200D01*
X104193924Y-99572200D02*
X104241543Y-99524580D01*
X104241543Y-99524580D02*
X104241543Y-99191247D01*
X104241543Y-99191247D02*
X104051067Y-99191247D01*
X122134819Y-85469048D02*
X122849104Y-85469048D01*
X122849104Y-85469048D02*
X122991961Y-85516667D01*
X122991961Y-85516667D02*
X123087200Y-85611905D01*
X123087200Y-85611905D02*
X123134819Y-85754762D01*
X123134819Y-85754762D02*
X123134819Y-85850000D01*
X123134819Y-84516667D02*
X123134819Y-84992857D01*
X123134819Y-84992857D02*
X122134819Y-84992857D01*
X123039580Y-83611905D02*
X123087200Y-83659524D01*
X123087200Y-83659524D02*
X123134819Y-83802381D01*
X123134819Y-83802381D02*
X123134819Y-83897619D01*
X123134819Y-83897619D02*
X123087200Y-84040476D01*
X123087200Y-84040476D02*
X122991961Y-84135714D01*
X122991961Y-84135714D02*
X122896723Y-84183333D01*
X122896723Y-84183333D02*
X122706247Y-84230952D01*
X122706247Y-84230952D02*
X122563390Y-84230952D01*
X122563390Y-84230952D02*
X122372914Y-84183333D01*
X122372914Y-84183333D02*
X122277676Y-84135714D01*
X122277676Y-84135714D02*
X122182438Y-84040476D01*
X122182438Y-84040476D02*
X122134819Y-83897619D01*
X122134819Y-83897619D02*
X122134819Y-83802381D01*
X122134819Y-83802381D02*
X122182438Y-83659524D01*
X122182438Y-83659524D02*
X122230057Y-83611905D01*
X122134819Y-82897619D02*
X122849104Y-82897619D01*
X122849104Y-82897619D02*
X122991961Y-82945238D01*
X122991961Y-82945238D02*
X123087200Y-83040476D01*
X123087200Y-83040476D02*
X123134819Y-83183333D01*
X123134819Y-83183333D02*
X123134819Y-83278571D01*
X123134819Y-81945238D02*
X123134819Y-82421428D01*
X123134819Y-82421428D02*
X122134819Y-82421428D01*
X123039580Y-81040476D02*
X123087200Y-81088095D01*
X123087200Y-81088095D02*
X123134819Y-81230952D01*
X123134819Y-81230952D02*
X123134819Y-81326190D01*
X123134819Y-81326190D02*
X123087200Y-81469047D01*
X123087200Y-81469047D02*
X122991961Y-81564285D01*
X122991961Y-81564285D02*
X122896723Y-81611904D01*
X122896723Y-81611904D02*
X122706247Y-81659523D01*
X122706247Y-81659523D02*
X122563390Y-81659523D01*
X122563390Y-81659523D02*
X122372914Y-81611904D01*
X122372914Y-81611904D02*
X122277676Y-81564285D01*
X122277676Y-81564285D02*
X122182438Y-81469047D01*
X122182438Y-81469047D02*
X122134819Y-81326190D01*
X122134819Y-81326190D02*
X122134819Y-81230952D01*
X122134819Y-81230952D02*
X122182438Y-81088095D01*
X122182438Y-81088095D02*
X122230057Y-81040476D01*
X122134819Y-80326190D02*
X122849104Y-80326190D01*
X122849104Y-80326190D02*
X122991961Y-80373809D01*
X122991961Y-80373809D02*
X123087200Y-80469047D01*
X123087200Y-80469047D02*
X123134819Y-80611904D01*
X123134819Y-80611904D02*
X123134819Y-80707142D01*
X123134819Y-79373809D02*
X123134819Y-79849999D01*
X123134819Y-79849999D02*
X122134819Y-79849999D01*
X123039580Y-78469047D02*
X123087200Y-78516666D01*
X123087200Y-78516666D02*
X123134819Y-78659523D01*
X123134819Y-78659523D02*
X123134819Y-78754761D01*
X123134819Y-78754761D02*
X123087200Y-78897618D01*
X123087200Y-78897618D02*
X122991961Y-78992856D01*
X122991961Y-78992856D02*
X122896723Y-79040475D01*
X122896723Y-79040475D02*
X122706247Y-79088094D01*
X122706247Y-79088094D02*
X122563390Y-79088094D01*
X122563390Y-79088094D02*
X122372914Y-79040475D01*
X122372914Y-79040475D02*
X122277676Y-78992856D01*
X122277676Y-78992856D02*
X122182438Y-78897618D01*
X122182438Y-78897618D02*
X122134819Y-78754761D01*
X122134819Y-78754761D02*
X122134819Y-78659523D01*
X122134819Y-78659523D02*
X122182438Y-78516666D01*
X122182438Y-78516666D02*
X122230057Y-78469047D01*
X122134819Y-77754761D02*
X122849104Y-77754761D01*
X122849104Y-77754761D02*
X122991961Y-77802380D01*
X122991961Y-77802380D02*
X123087200Y-77897618D01*
X123087200Y-77897618D02*
X123134819Y-78040475D01*
X123134819Y-78040475D02*
X123134819Y-78135713D01*
X123134819Y-76802380D02*
X123134819Y-77278570D01*
X123134819Y-77278570D02*
X122134819Y-77278570D01*
X123039580Y-75897618D02*
X123087200Y-75945237D01*
X123087200Y-75945237D02*
X123134819Y-76088094D01*
X123134819Y-76088094D02*
X123134819Y-76183332D01*
X123134819Y-76183332D02*
X123087200Y-76326189D01*
X123087200Y-76326189D02*
X122991961Y-76421427D01*
X122991961Y-76421427D02*
X122896723Y-76469046D01*
X122896723Y-76469046D02*
X122706247Y-76516665D01*
X122706247Y-76516665D02*
X122563390Y-76516665D01*
X122563390Y-76516665D02*
X122372914Y-76469046D01*
X122372914Y-76469046D02*
X122277676Y-76421427D01*
X122277676Y-76421427D02*
X122182438Y-76326189D01*
X122182438Y-76326189D02*
X122134819Y-76183332D01*
X122134819Y-76183332D02*
X122134819Y-76088094D01*
X122134819Y-76088094D02*
X122182438Y-75945237D01*
X122182438Y-75945237D02*
X122230057Y-75897618D01*
D18*
X107338095Y-65742533D02*
X108861905Y-65742533D01*
D16*
X84700828Y-85945489D02*
X83200828Y-85945489D01*
X83200828Y-85945489D02*
X83200828Y-85374060D01*
X83200828Y-85374060D02*
X83272257Y-85231203D01*
X83272257Y-85231203D02*
X83343685Y-85159774D01*
X83343685Y-85159774D02*
X83486542Y-85088346D01*
X83486542Y-85088346D02*
X83700828Y-85088346D01*
X83700828Y-85088346D02*
X83843685Y-85159774D01*
X83843685Y-85159774D02*
X83915114Y-85231203D01*
X83915114Y-85231203D02*
X83986542Y-85374060D01*
X83986542Y-85374060D02*
X83986542Y-85945489D01*
X84629400Y-83874060D02*
X84700828Y-84016917D01*
X84700828Y-84016917D02*
X84700828Y-84302632D01*
X84700828Y-84302632D02*
X84629400Y-84445489D01*
X84629400Y-84445489D02*
X84486542Y-84516917D01*
X84486542Y-84516917D02*
X83915114Y-84516917D01*
X83915114Y-84516917D02*
X83772257Y-84445489D01*
X83772257Y-84445489D02*
X83700828Y-84302632D01*
X83700828Y-84302632D02*
X83700828Y-84016917D01*
X83700828Y-84016917D02*
X83772257Y-83874060D01*
X83772257Y-83874060D02*
X83915114Y-83802632D01*
X83915114Y-83802632D02*
X84057971Y-83802632D01*
X84057971Y-83802632D02*
X84200828Y-84516917D01*
X84700828Y-83159775D02*
X83700828Y-83159775D01*
X83986542Y-83159775D02*
X83843685Y-83088346D01*
X83843685Y-83088346D02*
X83772257Y-83016918D01*
X83772257Y-83016918D02*
X83700828Y-82874060D01*
X83700828Y-82874060D02*
X83700828Y-82731203D01*
X84700828Y-82231204D02*
X83700828Y-82231204D01*
X83200828Y-82231204D02*
X83272257Y-82302632D01*
X83272257Y-82302632D02*
X83343685Y-82231204D01*
X83343685Y-82231204D02*
X83272257Y-82159775D01*
X83272257Y-82159775D02*
X83200828Y-82231204D01*
X83200828Y-82231204D02*
X83343685Y-82231204D01*
X84700828Y-81302632D02*
X84629400Y-81445489D01*
X84629400Y-81445489D02*
X84557971Y-81516918D01*
X84557971Y-81516918D02*
X84415114Y-81588346D01*
X84415114Y-81588346D02*
X83986542Y-81588346D01*
X83986542Y-81588346D02*
X83843685Y-81516918D01*
X83843685Y-81516918D02*
X83772257Y-81445489D01*
X83772257Y-81445489D02*
X83700828Y-81302632D01*
X83700828Y-81302632D02*
X83700828Y-81088346D01*
X83700828Y-81088346D02*
X83772257Y-80945489D01*
X83772257Y-80945489D02*
X83843685Y-80874061D01*
X83843685Y-80874061D02*
X83986542Y-80802632D01*
X83986542Y-80802632D02*
X84415114Y-80802632D01*
X84415114Y-80802632D02*
X84557971Y-80874061D01*
X84557971Y-80874061D02*
X84629400Y-80945489D01*
X84629400Y-80945489D02*
X84700828Y-81088346D01*
X84700828Y-81088346D02*
X84700828Y-81302632D01*
X84700828Y-79516918D02*
X83200828Y-79516918D01*
X84629400Y-79516918D02*
X84700828Y-79659775D01*
X84700828Y-79659775D02*
X84700828Y-79945489D01*
X84700828Y-79945489D02*
X84629400Y-80088346D01*
X84629400Y-80088346D02*
X84557971Y-80159775D01*
X84557971Y-80159775D02*
X84415114Y-80231203D01*
X84415114Y-80231203D02*
X83986542Y-80231203D01*
X83986542Y-80231203D02*
X83843685Y-80159775D01*
X83843685Y-80159775D02*
X83772257Y-80088346D01*
X83772257Y-80088346D02*
X83700828Y-79945489D01*
X83700828Y-79945489D02*
X83700828Y-79659775D01*
X83700828Y-79659775D02*
X83772257Y-79516918D01*
D19*
X82098185Y-75111419D02*
X82098185Y-75094486D01*
X82098185Y-75086019D02*
X82096976Y-75087229D01*
X82096976Y-75087229D02*
X82098185Y-75088438D01*
X82098185Y-75088438D02*
X82099395Y-75087229D01*
X82099395Y-75087229D02*
X82098185Y-75086019D01*
X82098185Y-75086019D02*
X82098185Y-75088438D01*
X82110280Y-75094486D02*
X82110280Y-75111419D01*
X82110280Y-75096905D02*
X82111490Y-75095695D01*
X82111490Y-75095695D02*
X82113909Y-75094486D01*
X82113909Y-75094486D02*
X82117537Y-75094486D01*
X82117537Y-75094486D02*
X82119956Y-75095695D01*
X82119956Y-75095695D02*
X82121166Y-75098114D01*
X82121166Y-75098114D02*
X82121166Y-75111419D01*
D12*
X80000000Y-74350000D02*
X80000000Y-75250000D01*
X83600000Y-74350000D02*
X83600000Y-75250000D01*
X80000000Y-74900000D02*
X83600000Y-74900000D01*
X80000000Y-74900000D02*
X83600000Y-74900000D01*
X80000000Y-74900000D02*
X80532206Y-74622951D01*
X80000000Y-74900000D02*
X80532206Y-75177049D01*
X83600000Y-74900000D02*
X83067794Y-75177049D01*
X83600000Y-74900000D02*
X83067794Y-74622951D01*
D19*
X85911419Y-89101814D02*
X85894486Y-89101814D01*
X85886019Y-89101814D02*
X85887229Y-89103023D01*
X85887229Y-89103023D02*
X85888438Y-89101814D01*
X85888438Y-89101814D02*
X85887229Y-89100604D01*
X85887229Y-89100604D02*
X85886019Y-89101814D01*
X85886019Y-89101814D02*
X85888438Y-89101814D01*
X85894486Y-89089719D02*
X85911419Y-89089719D01*
X85896905Y-89089719D02*
X85895695Y-89088509D01*
X85895695Y-89088509D02*
X85894486Y-89086090D01*
X85894486Y-89086090D02*
X85894486Y-89082462D01*
X85894486Y-89082462D02*
X85895695Y-89080043D01*
X85895695Y-89080043D02*
X85898114Y-89078833D01*
X85898114Y-89078833D02*
X85911419Y-89078833D01*
D12*
X85150000Y-91200000D02*
X86050000Y-91200000D01*
X85150000Y-89000000D02*
X86050000Y-89000000D01*
X85700000Y-91200000D02*
X85700000Y-89000000D01*
X85700000Y-91200000D02*
X85700000Y-89000000D01*
X85700000Y-91200000D02*
X85422951Y-90667794D01*
X85700000Y-91200000D02*
X85977049Y-90667794D01*
X85700000Y-89000000D02*
X85977049Y-89532206D01*
X85700000Y-89000000D02*
X85422951Y-89532206D01*
X135661904Y-91357419D02*
X135471428Y-91357419D01*
X135471428Y-91357419D02*
X135376190Y-91405038D01*
X135376190Y-91405038D02*
X135328571Y-91452657D01*
X135328571Y-91452657D02*
X135233333Y-91595514D01*
X135233333Y-91595514D02*
X135185714Y-91785990D01*
X135185714Y-91785990D02*
X135185714Y-92166942D01*
X135185714Y-92166942D02*
X135233333Y-92262180D01*
X135233333Y-92262180D02*
X135280952Y-92309800D01*
X135280952Y-92309800D02*
X135376190Y-92357419D01*
X135376190Y-92357419D02*
X135566666Y-92357419D01*
X135566666Y-92357419D02*
X135661904Y-92309800D01*
X135661904Y-92309800D02*
X135709523Y-92262180D01*
X135709523Y-92262180D02*
X135757142Y-92166942D01*
X135757142Y-92166942D02*
X135757142Y-91928847D01*
X135757142Y-91928847D02*
X135709523Y-91833609D01*
X135709523Y-91833609D02*
X135661904Y-91785990D01*
X135661904Y-91785990D02*
X135566666Y-91738371D01*
X135566666Y-91738371D02*
X135376190Y-91738371D01*
X135376190Y-91738371D02*
X135280952Y-91785990D01*
X135280952Y-91785990D02*
X135233333Y-91833609D01*
X135233333Y-91833609D02*
X135185714Y-91928847D01*
X136042857Y-91357419D02*
X136376190Y-92357419D01*
X136376190Y-92357419D02*
X136709523Y-91357419D01*
X132760000Y-91300000D02*
X133664911Y-91900000D01*
X132760000Y-91300000D02*
X133754437Y-91405332D01*
X132760000Y-91300000D02*
X133244102Y-92175011D01*
X133664911Y-91900000D02*
X134445238Y-91900000D01*
X132760000Y-91300000D02*
X133664911Y-91900000D01*
X132760000Y-91300000D02*
X133754437Y-91405332D01*
X132760000Y-91300000D02*
X133244102Y-92175011D01*
X133664911Y-91900000D02*
X134445238Y-91900000D01*
X129023809Y-66657419D02*
X129119047Y-66657419D01*
X129119047Y-66657419D02*
X129214285Y-66705038D01*
X129214285Y-66705038D02*
X129261904Y-66752657D01*
X129261904Y-66752657D02*
X129309523Y-66847895D01*
X129309523Y-66847895D02*
X129357142Y-67038371D01*
X129357142Y-67038371D02*
X129357142Y-67276466D01*
X129357142Y-67276466D02*
X129309523Y-67466942D01*
X129309523Y-67466942D02*
X129261904Y-67562180D01*
X129261904Y-67562180D02*
X129214285Y-67609800D01*
X129214285Y-67609800D02*
X129119047Y-67657419D01*
X129119047Y-67657419D02*
X129023809Y-67657419D01*
X129023809Y-67657419D02*
X128928571Y-67609800D01*
X128928571Y-67609800D02*
X128880952Y-67562180D01*
X128880952Y-67562180D02*
X128833333Y-67466942D01*
X128833333Y-67466942D02*
X128785714Y-67276466D01*
X128785714Y-67276466D02*
X128785714Y-67038371D01*
X128785714Y-67038371D02*
X128833333Y-66847895D01*
X128833333Y-66847895D02*
X128880952Y-66752657D01*
X128880952Y-66752657D02*
X128928571Y-66705038D01*
X128928571Y-66705038D02*
X129023809Y-66657419D01*
X129642857Y-66657419D02*
X129976190Y-67657419D01*
X129976190Y-67657419D02*
X130309523Y-66657419D01*
X132700000Y-68000000D02*
X131700000Y-67200000D01*
X132700000Y-68000000D02*
X131718909Y-67806454D01*
X132700000Y-68000000D02*
X132295813Y-67085324D01*
X131700000Y-67200000D02*
X130954762Y-67200000D01*
X132700000Y-68000000D02*
X131700000Y-67200000D01*
X132700000Y-68000000D02*
X131718909Y-67806454D01*
X132700000Y-68000000D02*
X132295813Y-67085324D01*
X131700000Y-67200000D02*
X130954762Y-67200000D01*
X89260195Y-94968551D02*
X88926862Y-94492360D01*
X88688767Y-94968551D02*
X88688767Y-93968551D01*
X88688767Y-93968551D02*
X89069719Y-93968551D01*
X89069719Y-93968551D02*
X89164957Y-94016170D01*
X89164957Y-94016170D02*
X89212576Y-94063789D01*
X89212576Y-94063789D02*
X89260195Y-94159027D01*
X89260195Y-94159027D02*
X89260195Y-94301884D01*
X89260195Y-94301884D02*
X89212576Y-94397122D01*
X89212576Y-94397122D02*
X89164957Y-94444741D01*
X89164957Y-94444741D02*
X89069719Y-94492360D01*
X89069719Y-94492360D02*
X88688767Y-94492360D01*
X89688767Y-94444741D02*
X90022100Y-94444741D01*
X90164957Y-94968551D02*
X89688767Y-94968551D01*
X89688767Y-94968551D02*
X89688767Y-93968551D01*
X89688767Y-93968551D02*
X90164957Y-93968551D01*
X90926862Y-94444741D02*
X90593529Y-94444741D01*
X90593529Y-94968551D02*
X90593529Y-93968551D01*
X90593529Y-93968551D02*
X91069719Y-93968551D01*
X91593529Y-93968551D02*
X91593529Y-94206646D01*
X91355434Y-94111408D02*
X91593529Y-94206646D01*
X91593529Y-94206646D02*
X91831624Y-94111408D01*
X91450672Y-94397122D02*
X91593529Y-94206646D01*
X91593529Y-94206646D02*
X91736386Y-94397122D01*
X92355434Y-93968551D02*
X92355434Y-94206646D01*
X92117339Y-94111408D02*
X92355434Y-94206646D01*
X92355434Y-94206646D02*
X92593529Y-94111408D01*
X92212577Y-94397122D02*
X92355434Y-94206646D01*
X92355434Y-94206646D02*
X92498291Y-94397122D01*
D13*
X102128095Y-81254819D02*
X102128095Y-82064342D01*
X102128095Y-82064342D02*
X102175714Y-82159580D01*
X102175714Y-82159580D02*
X102223333Y-82207200D01*
X102223333Y-82207200D02*
X102318571Y-82254819D01*
X102318571Y-82254819D02*
X102509047Y-82254819D01*
X102509047Y-82254819D02*
X102604285Y-82207200D01*
X102604285Y-82207200D02*
X102651904Y-82159580D01*
X102651904Y-82159580D02*
X102699523Y-82064342D01*
X102699523Y-82064342D02*
X102699523Y-81254819D01*
X103699523Y-82254819D02*
X103128095Y-82254819D01*
X103413809Y-82254819D02*
X103413809Y-81254819D01*
X103413809Y-81254819D02*
X103318571Y-81397676D01*
X103318571Y-81397676D02*
X103223333Y-81492914D01*
X103223333Y-81492914D02*
X103128095Y-81540533D01*
X120890476Y-95554819D02*
X120890476Y-94554819D01*
X120890476Y-94554819D02*
X121223809Y-95269104D01*
X121223809Y-95269104D02*
X121557142Y-94554819D01*
X121557142Y-94554819D02*
X121557142Y-95554819D01*
X122223809Y-94554819D02*
X122414285Y-94554819D01*
X122414285Y-94554819D02*
X122509523Y-94602438D01*
X122509523Y-94602438D02*
X122604761Y-94697676D01*
X122604761Y-94697676D02*
X122652380Y-94888152D01*
X122652380Y-94888152D02*
X122652380Y-95221485D01*
X122652380Y-95221485D02*
X122604761Y-95411961D01*
X122604761Y-95411961D02*
X122509523Y-95507200D01*
X122509523Y-95507200D02*
X122414285Y-95554819D01*
X122414285Y-95554819D02*
X122223809Y-95554819D01*
X122223809Y-95554819D02*
X122128571Y-95507200D01*
X122128571Y-95507200D02*
X122033333Y-95411961D01*
X122033333Y-95411961D02*
X121985714Y-95221485D01*
X121985714Y-95221485D02*
X121985714Y-94888152D01*
X121985714Y-94888152D02*
X122033333Y-94697676D01*
X122033333Y-94697676D02*
X122128571Y-94602438D01*
X122128571Y-94602438D02*
X122223809Y-94554819D01*
X123080952Y-95554819D02*
X123080952Y-94554819D01*
X123080952Y-94554819D02*
X123319047Y-94554819D01*
X123319047Y-94554819D02*
X123461904Y-94602438D01*
X123461904Y-94602438D02*
X123557142Y-94697676D01*
X123557142Y-94697676D02*
X123604761Y-94792914D01*
X123604761Y-94792914D02*
X123652380Y-94983390D01*
X123652380Y-94983390D02*
X123652380Y-95126247D01*
X123652380Y-95126247D02*
X123604761Y-95316723D01*
X123604761Y-95316723D02*
X123557142Y-95411961D01*
X123557142Y-95411961D02*
X123461904Y-95507200D01*
X123461904Y-95507200D02*
X123319047Y-95554819D01*
X123319047Y-95554819D02*
X123080952Y-95554819D01*
X124080952Y-95031009D02*
X124414285Y-95031009D01*
X124557142Y-95554819D02*
X124080952Y-95554819D01*
X124080952Y-95554819D02*
X124080952Y-94554819D01*
X124080952Y-94554819D02*
X124557142Y-94554819D01*
X111440180Y-97114286D02*
X112440180Y-97114286D01*
X112440180Y-97114286D02*
X112440180Y-97495238D01*
X112440180Y-97495238D02*
X112392561Y-97590476D01*
X112392561Y-97590476D02*
X112344942Y-97638095D01*
X112344942Y-97638095D02*
X112249704Y-97685714D01*
X112249704Y-97685714D02*
X112106847Y-97685714D01*
X112106847Y-97685714D02*
X112011609Y-97638095D01*
X112011609Y-97638095D02*
X111963990Y-97590476D01*
X111963990Y-97590476D02*
X111916371Y-97495238D01*
X111916371Y-97495238D02*
X111916371Y-97114286D01*
X111440180Y-98114286D02*
X112106847Y-98114286D01*
X112440180Y-98114286D02*
X112392561Y-98066667D01*
X112392561Y-98066667D02*
X112344942Y-98114286D01*
X112344942Y-98114286D02*
X112392561Y-98161905D01*
X112392561Y-98161905D02*
X112440180Y-98114286D01*
X112440180Y-98114286D02*
X112344942Y-98114286D01*
X111487800Y-98971428D02*
X111440180Y-98876190D01*
X111440180Y-98876190D02*
X111440180Y-98685714D01*
X111440180Y-98685714D02*
X111487800Y-98590476D01*
X111487800Y-98590476D02*
X111583038Y-98542857D01*
X111583038Y-98542857D02*
X111963990Y-98542857D01*
X111963990Y-98542857D02*
X112059228Y-98590476D01*
X112059228Y-98590476D02*
X112106847Y-98685714D01*
X112106847Y-98685714D02*
X112106847Y-98876190D01*
X112106847Y-98876190D02*
X112059228Y-98971428D01*
X112059228Y-98971428D02*
X111963990Y-99019047D01*
X111963990Y-99019047D02*
X111868752Y-99019047D01*
X111868752Y-99019047D02*
X111773514Y-98542857D01*
X112106847Y-99352381D02*
X112106847Y-99876190D01*
X112106847Y-99876190D02*
X111440180Y-99352381D01*
X111440180Y-99352381D02*
X111440180Y-99876190D01*
X111440180Y-100400000D02*
X111487800Y-100304762D01*
X111487800Y-100304762D02*
X111535419Y-100257143D01*
X111535419Y-100257143D02*
X111630657Y-100209524D01*
X111630657Y-100209524D02*
X111916371Y-100209524D01*
X111916371Y-100209524D02*
X112011609Y-100257143D01*
X112011609Y-100257143D02*
X112059228Y-100304762D01*
X112059228Y-100304762D02*
X112106847Y-100400000D01*
X112106847Y-100400000D02*
X112106847Y-100542857D01*
X112106847Y-100542857D02*
X112059228Y-100638095D01*
X112059228Y-100638095D02*
X112011609Y-100685714D01*
X112011609Y-100685714D02*
X111916371Y-100733333D01*
X111916371Y-100733333D02*
X111630657Y-100733333D01*
X111630657Y-100733333D02*
X111535419Y-100685714D01*
X111535419Y-100685714D02*
X111487800Y-100638095D01*
X111487800Y-100638095D02*
X111440180Y-100542857D01*
X111440180Y-100542857D02*
X111440180Y-100400000D01*
X106579819Y-96538095D02*
X106579819Y-96347619D01*
X106579819Y-96347619D02*
X106627438Y-96252381D01*
X106627438Y-96252381D02*
X106722676Y-96157143D01*
X106722676Y-96157143D02*
X106913152Y-96109524D01*
X106913152Y-96109524D02*
X107246485Y-96109524D01*
X107246485Y-96109524D02*
X107436961Y-96157143D01*
X107436961Y-96157143D02*
X107532200Y-96252381D01*
X107532200Y-96252381D02*
X107579819Y-96347619D01*
X107579819Y-96347619D02*
X107579819Y-96538095D01*
X107579819Y-96538095D02*
X107532200Y-96633333D01*
X107532200Y-96633333D02*
X107436961Y-96728571D01*
X107436961Y-96728571D02*
X107246485Y-96776190D01*
X107246485Y-96776190D02*
X106913152Y-96776190D01*
X106913152Y-96776190D02*
X106722676Y-96728571D01*
X106722676Y-96728571D02*
X106627438Y-96633333D01*
X106627438Y-96633333D02*
X106579819Y-96538095D01*
X106579819Y-95680952D02*
X107389342Y-95680952D01*
X107389342Y-95680952D02*
X107484580Y-95633333D01*
X107484580Y-95633333D02*
X107532200Y-95585714D01*
X107532200Y-95585714D02*
X107579819Y-95490476D01*
X107579819Y-95490476D02*
X107579819Y-95300000D01*
X107579819Y-95300000D02*
X107532200Y-95204762D01*
X107532200Y-95204762D02*
X107484580Y-95157143D01*
X107484580Y-95157143D02*
X107389342Y-95109524D01*
X107389342Y-95109524D02*
X106579819Y-95109524D01*
X106579819Y-94776190D02*
X106579819Y-94204762D01*
X107579819Y-94490476D02*
X106579819Y-94490476D01*
X107579819Y-92633333D02*
X107579819Y-93109523D01*
X107579819Y-93109523D02*
X106579819Y-93109523D01*
X107056009Y-92299999D02*
X107056009Y-91966666D01*
X107579819Y-91823809D02*
X107579819Y-92299999D01*
X107579819Y-92299999D02*
X106579819Y-92299999D01*
X106579819Y-92299999D02*
X106579819Y-91823809D01*
X107579819Y-91395237D02*
X106579819Y-91395237D01*
X106579819Y-91395237D02*
X106579819Y-91157142D01*
X106579819Y-91157142D02*
X106627438Y-91014285D01*
X106627438Y-91014285D02*
X106722676Y-90919047D01*
X106722676Y-90919047D02*
X106817914Y-90871428D01*
X106817914Y-90871428D02*
X107008390Y-90823809D01*
X107008390Y-90823809D02*
X107151247Y-90823809D01*
X107151247Y-90823809D02*
X107341723Y-90871428D01*
X107341723Y-90871428D02*
X107436961Y-90919047D01*
X107436961Y-90919047D02*
X107532200Y-91014285D01*
X107532200Y-91014285D02*
X107579819Y-91157142D01*
X107579819Y-91157142D02*
X107579819Y-91395237D01*
X112654819Y-85999523D02*
X112654819Y-85380476D01*
X112654819Y-85380476D02*
X113035771Y-85713809D01*
X113035771Y-85713809D02*
X113035771Y-85570952D01*
X113035771Y-85570952D02*
X113083390Y-85475714D01*
X113083390Y-85475714D02*
X113131009Y-85428095D01*
X113131009Y-85428095D02*
X113226247Y-85380476D01*
X113226247Y-85380476D02*
X113464342Y-85380476D01*
X113464342Y-85380476D02*
X113559580Y-85428095D01*
X113559580Y-85428095D02*
X113607200Y-85475714D01*
X113607200Y-85475714D02*
X113654819Y-85570952D01*
X113654819Y-85570952D02*
X113654819Y-85856666D01*
X113654819Y-85856666D02*
X113607200Y-85951904D01*
X113607200Y-85951904D02*
X113559580Y-85999523D01*
X113654819Y-84951904D02*
X112654819Y-84951904D01*
X113654819Y-84380476D02*
X113083390Y-84809047D01*
X112654819Y-84380476D02*
X113226247Y-84951904D01*
X113083390Y-83809047D02*
X113035771Y-83904285D01*
X113035771Y-83904285D02*
X112988152Y-83951904D01*
X112988152Y-83951904D02*
X112892914Y-83999523D01*
X112892914Y-83999523D02*
X112845295Y-83999523D01*
X112845295Y-83999523D02*
X112750057Y-83951904D01*
X112750057Y-83951904D02*
X112702438Y-83904285D01*
X112702438Y-83904285D02*
X112654819Y-83809047D01*
X112654819Y-83809047D02*
X112654819Y-83618571D01*
X112654819Y-83618571D02*
X112702438Y-83523333D01*
X112702438Y-83523333D02*
X112750057Y-83475714D01*
X112750057Y-83475714D02*
X112845295Y-83428095D01*
X112845295Y-83428095D02*
X112892914Y-83428095D01*
X112892914Y-83428095D02*
X112988152Y-83475714D01*
X112988152Y-83475714D02*
X113035771Y-83523333D01*
X113035771Y-83523333D02*
X113083390Y-83618571D01*
X113083390Y-83618571D02*
X113083390Y-83809047D01*
X113083390Y-83809047D02*
X113131009Y-83904285D01*
X113131009Y-83904285D02*
X113178628Y-83951904D01*
X113178628Y-83951904D02*
X113273866Y-83999523D01*
X113273866Y-83999523D02*
X113464342Y-83999523D01*
X113464342Y-83999523D02*
X113559580Y-83951904D01*
X113559580Y-83951904D02*
X113607200Y-83904285D01*
X113607200Y-83904285D02*
X113654819Y-83809047D01*
X113654819Y-83809047D02*
X113654819Y-83618571D01*
X113654819Y-83618571D02*
X113607200Y-83523333D01*
X113607200Y-83523333D02*
X113559580Y-83475714D01*
X113559580Y-83475714D02*
X113464342Y-83428095D01*
X113464342Y-83428095D02*
X113273866Y-83428095D01*
X113273866Y-83428095D02*
X113178628Y-83475714D01*
X113178628Y-83475714D02*
X113131009Y-83523333D01*
X113131009Y-83523333D02*
X113083390Y-83618571D01*
X90685714Y-90754819D02*
X90685714Y-89754819D01*
X90685714Y-89754819D02*
X90923809Y-89754819D01*
X90923809Y-89754819D02*
X91066666Y-89802438D01*
X91066666Y-89802438D02*
X91161904Y-89897676D01*
X91161904Y-89897676D02*
X91209523Y-89992914D01*
X91209523Y-89992914D02*
X91257142Y-90183390D01*
X91257142Y-90183390D02*
X91257142Y-90326247D01*
X91257142Y-90326247D02*
X91209523Y-90516723D01*
X91209523Y-90516723D02*
X91161904Y-90611961D01*
X91161904Y-90611961D02*
X91066666Y-90707200D01*
X91066666Y-90707200D02*
X90923809Y-90754819D01*
X90923809Y-90754819D02*
X90685714Y-90754819D01*
X92209523Y-90754819D02*
X91638095Y-90754819D01*
X91923809Y-90754819D02*
X91923809Y-89754819D01*
X91923809Y-89754819D02*
X91828571Y-89897676D01*
X91828571Y-89897676D02*
X91733333Y-89992914D01*
X91733333Y-89992914D02*
X91638095Y-90040533D01*
X92590476Y-89850057D02*
X92638095Y-89802438D01*
X92638095Y-89802438D02*
X92733333Y-89754819D01*
X92733333Y-89754819D02*
X92971428Y-89754819D01*
X92971428Y-89754819D02*
X93066666Y-89802438D01*
X93066666Y-89802438D02*
X93114285Y-89850057D01*
X93114285Y-89850057D02*
X93161904Y-89945295D01*
X93161904Y-89945295D02*
X93161904Y-90040533D01*
X93161904Y-90040533D02*
X93114285Y-90183390D01*
X93114285Y-90183390D02*
X92542857Y-90754819D01*
X92542857Y-90754819D02*
X93161904Y-90754819D01*
X99066667Y-70407200D02*
X99209524Y-70454819D01*
X99209524Y-70454819D02*
X99447619Y-70454819D01*
X99447619Y-70454819D02*
X99542857Y-70407200D01*
X99542857Y-70407200D02*
X99590476Y-70359580D01*
X99590476Y-70359580D02*
X99638095Y-70264342D01*
X99638095Y-70264342D02*
X99638095Y-70169104D01*
X99638095Y-70169104D02*
X99590476Y-70073866D01*
X99590476Y-70073866D02*
X99542857Y-70026247D01*
X99542857Y-70026247D02*
X99447619Y-69978628D01*
X99447619Y-69978628D02*
X99257143Y-69931009D01*
X99257143Y-69931009D02*
X99161905Y-69883390D01*
X99161905Y-69883390D02*
X99114286Y-69835771D01*
X99114286Y-69835771D02*
X99066667Y-69740533D01*
X99066667Y-69740533D02*
X99066667Y-69645295D01*
X99066667Y-69645295D02*
X99114286Y-69550057D01*
X99114286Y-69550057D02*
X99161905Y-69502438D01*
X99161905Y-69502438D02*
X99257143Y-69454819D01*
X99257143Y-69454819D02*
X99495238Y-69454819D01*
X99495238Y-69454819D02*
X99638095Y-69502438D01*
X99971429Y-69454819D02*
X100209524Y-70454819D01*
X100209524Y-70454819D02*
X100400000Y-69740533D01*
X100400000Y-69740533D02*
X100590476Y-70454819D01*
X100590476Y-70454819D02*
X100828572Y-69454819D01*
X101733333Y-70454819D02*
X101161905Y-70454819D01*
X101447619Y-70454819D02*
X101447619Y-69454819D01*
X101447619Y-69454819D02*
X101352381Y-69597676D01*
X101352381Y-69597676D02*
X101257143Y-69692914D01*
X101257143Y-69692914D02*
X101161905Y-69740533D01*
D10*
X98947618Y-66152219D02*
X98614285Y-65676028D01*
X98376190Y-66152219D02*
X98376190Y-65152219D01*
X98376190Y-65152219D02*
X98757142Y-65152219D01*
X98757142Y-65152219D02*
X98852380Y-65199838D01*
X98852380Y-65199838D02*
X98899999Y-65247457D01*
X98899999Y-65247457D02*
X98947618Y-65342695D01*
X98947618Y-65342695D02*
X98947618Y-65485552D01*
X98947618Y-65485552D02*
X98899999Y-65580790D01*
X98899999Y-65580790D02*
X98852380Y-65628409D01*
X98852380Y-65628409D02*
X98757142Y-65676028D01*
X98757142Y-65676028D02*
X98376190Y-65676028D01*
X99376190Y-65628409D02*
X99709523Y-65628409D01*
X99852380Y-66152219D02*
X99376190Y-66152219D01*
X99376190Y-66152219D02*
X99376190Y-65152219D01*
X99376190Y-65152219D02*
X99852380Y-65152219D01*
X100233333Y-66104600D02*
X100376190Y-66152219D01*
X100376190Y-66152219D02*
X100614285Y-66152219D01*
X100614285Y-66152219D02*
X100709523Y-66104600D01*
X100709523Y-66104600D02*
X100757142Y-66056980D01*
X100757142Y-66056980D02*
X100804761Y-65961742D01*
X100804761Y-65961742D02*
X100804761Y-65866504D01*
X100804761Y-65866504D02*
X100757142Y-65771266D01*
X100757142Y-65771266D02*
X100709523Y-65723647D01*
X100709523Y-65723647D02*
X100614285Y-65676028D01*
X100614285Y-65676028D02*
X100423809Y-65628409D01*
X100423809Y-65628409D02*
X100328571Y-65580790D01*
X100328571Y-65580790D02*
X100280952Y-65533171D01*
X100280952Y-65533171D02*
X100233333Y-65437933D01*
X100233333Y-65437933D02*
X100233333Y-65342695D01*
X100233333Y-65342695D02*
X100280952Y-65247457D01*
X100280952Y-65247457D02*
X100328571Y-65199838D01*
X100328571Y-65199838D02*
X100423809Y-65152219D01*
X100423809Y-65152219D02*
X100661904Y-65152219D01*
X100661904Y-65152219D02*
X100804761Y-65199838D01*
X101233333Y-65628409D02*
X101566666Y-65628409D01*
X101709523Y-66152219D02*
X101233333Y-66152219D01*
X101233333Y-66152219D02*
X101233333Y-65152219D01*
X101233333Y-65152219D02*
X101709523Y-65152219D01*
X101995238Y-65152219D02*
X102566666Y-65152219D01*
X102280952Y-66152219D02*
X102280952Y-65152219D01*
D13*
X87759580Y-78666666D02*
X87807200Y-78714285D01*
X87807200Y-78714285D02*
X87854819Y-78857142D01*
X87854819Y-78857142D02*
X87854819Y-78952380D01*
X87854819Y-78952380D02*
X87807200Y-79095237D01*
X87807200Y-79095237D02*
X87711961Y-79190475D01*
X87711961Y-79190475D02*
X87616723Y-79238094D01*
X87616723Y-79238094D02*
X87426247Y-79285713D01*
X87426247Y-79285713D02*
X87283390Y-79285713D01*
X87283390Y-79285713D02*
X87092914Y-79238094D01*
X87092914Y-79238094D02*
X86997676Y-79190475D01*
X86997676Y-79190475D02*
X86902438Y-79095237D01*
X86902438Y-79095237D02*
X86854819Y-78952380D01*
X86854819Y-78952380D02*
X86854819Y-78857142D01*
X86854819Y-78857142D02*
X86902438Y-78714285D01*
X86902438Y-78714285D02*
X86950057Y-78666666D01*
X86854819Y-78333332D02*
X86854819Y-77714285D01*
X86854819Y-77714285D02*
X87235771Y-78047618D01*
X87235771Y-78047618D02*
X87235771Y-77904761D01*
X87235771Y-77904761D02*
X87283390Y-77809523D01*
X87283390Y-77809523D02*
X87331009Y-77761904D01*
X87331009Y-77761904D02*
X87426247Y-77714285D01*
X87426247Y-77714285D02*
X87664342Y-77714285D01*
X87664342Y-77714285D02*
X87759580Y-77761904D01*
X87759580Y-77761904D02*
X87807200Y-77809523D01*
X87807200Y-77809523D02*
X87854819Y-77904761D01*
X87854819Y-77904761D02*
X87854819Y-78190475D01*
X87854819Y-78190475D02*
X87807200Y-78285713D01*
X87807200Y-78285713D02*
X87759580Y-78333332D01*
X97454819Y-93566666D02*
X96978628Y-93899999D01*
X97454819Y-94138094D02*
X96454819Y-94138094D01*
X96454819Y-94138094D02*
X96454819Y-93757142D01*
X96454819Y-93757142D02*
X96502438Y-93661904D01*
X96502438Y-93661904D02*
X96550057Y-93614285D01*
X96550057Y-93614285D02*
X96645295Y-93566666D01*
X96645295Y-93566666D02*
X96788152Y-93566666D01*
X96788152Y-93566666D02*
X96883390Y-93614285D01*
X96883390Y-93614285D02*
X96931009Y-93661904D01*
X96931009Y-93661904D02*
X96978628Y-93757142D01*
X96978628Y-93757142D02*
X96978628Y-94138094D01*
X96454819Y-92709523D02*
X96454819Y-92899999D01*
X96454819Y-92899999D02*
X96502438Y-92995237D01*
X96502438Y-92995237D02*
X96550057Y-93042856D01*
X96550057Y-93042856D02*
X96692914Y-93138094D01*
X96692914Y-93138094D02*
X96883390Y-93185713D01*
X96883390Y-93185713D02*
X97264342Y-93185713D01*
X97264342Y-93185713D02*
X97359580Y-93138094D01*
X97359580Y-93138094D02*
X97407200Y-93090475D01*
X97407200Y-93090475D02*
X97454819Y-92995237D01*
X97454819Y-92995237D02*
X97454819Y-92804761D01*
X97454819Y-92804761D02*
X97407200Y-92709523D01*
X97407200Y-92709523D02*
X97359580Y-92661904D01*
X97359580Y-92661904D02*
X97264342Y-92614285D01*
X97264342Y-92614285D02*
X97026247Y-92614285D01*
X97026247Y-92614285D02*
X96931009Y-92661904D01*
X96931009Y-92661904D02*
X96883390Y-92709523D01*
X96883390Y-92709523D02*
X96835771Y-92804761D01*
X96835771Y-92804761D02*
X96835771Y-92995237D01*
X96835771Y-92995237D02*
X96883390Y-93090475D01*
X96883390Y-93090475D02*
X96931009Y-93138094D01*
X96931009Y-93138094D02*
X97026247Y-93185713D01*
X90604285Y-93188152D02*
X90604285Y-93854819D01*
X90366190Y-92807200D02*
X90128095Y-93521485D01*
X90128095Y-93521485D02*
X90747142Y-93521485D01*
X91128095Y-93854819D02*
X91128095Y-92854819D01*
X91699523Y-93854819D02*
X91270952Y-93283390D01*
X91699523Y-92854819D02*
X91128095Y-93426247D01*
X92032857Y-92854819D02*
X92699523Y-92854819D01*
X92699523Y-92854819D02*
X92270952Y-93854819D01*
X118454819Y-93966666D02*
X117978628Y-94299999D01*
X118454819Y-94538094D02*
X117454819Y-94538094D01*
X117454819Y-94538094D02*
X117454819Y-94157142D01*
X117454819Y-94157142D02*
X117502438Y-94061904D01*
X117502438Y-94061904D02*
X117550057Y-94014285D01*
X117550057Y-94014285D02*
X117645295Y-93966666D01*
X117645295Y-93966666D02*
X117788152Y-93966666D01*
X117788152Y-93966666D02*
X117883390Y-94014285D01*
X117883390Y-94014285D02*
X117931009Y-94061904D01*
X117931009Y-94061904D02*
X117978628Y-94157142D01*
X117978628Y-94157142D02*
X117978628Y-94538094D01*
X117454819Y-93061904D02*
X117454819Y-93538094D01*
X117454819Y-93538094D02*
X117931009Y-93585713D01*
X117931009Y-93585713D02*
X117883390Y-93538094D01*
X117883390Y-93538094D02*
X117835771Y-93442856D01*
X117835771Y-93442856D02*
X117835771Y-93204761D01*
X117835771Y-93204761D02*
X117883390Y-93109523D01*
X117883390Y-93109523D02*
X117931009Y-93061904D01*
X117931009Y-93061904D02*
X118026247Y-93014285D01*
X118026247Y-93014285D02*
X118264342Y-93014285D01*
X118264342Y-93014285D02*
X118359580Y-93061904D01*
X118359580Y-93061904D02*
X118407200Y-93109523D01*
X118407200Y-93109523D02*
X118454819Y-93204761D01*
X118454819Y-93204761D02*
X118454819Y-93442856D01*
X118454819Y-93442856D02*
X118407200Y-93538094D01*
X118407200Y-93538094D02*
X118359580Y-93585713D01*
X121928095Y-67824819D02*
X121928095Y-68634342D01*
X121928095Y-68634342D02*
X121975714Y-68729580D01*
X121975714Y-68729580D02*
X122023333Y-68777200D01*
X122023333Y-68777200D02*
X122118571Y-68824819D01*
X122118571Y-68824819D02*
X122309047Y-68824819D01*
X122309047Y-68824819D02*
X122404285Y-68777200D01*
X122404285Y-68777200D02*
X122451904Y-68729580D01*
X122451904Y-68729580D02*
X122499523Y-68634342D01*
X122499523Y-68634342D02*
X122499523Y-67824819D01*
X122928095Y-67920057D02*
X122975714Y-67872438D01*
X122975714Y-67872438D02*
X123070952Y-67824819D01*
X123070952Y-67824819D02*
X123309047Y-67824819D01*
X123309047Y-67824819D02*
X123404285Y-67872438D01*
X123404285Y-67872438D02*
X123451904Y-67920057D01*
X123451904Y-67920057D02*
X123499523Y-68015295D01*
X123499523Y-68015295D02*
X123499523Y-68110533D01*
X123499523Y-68110533D02*
X123451904Y-68253390D01*
X123451904Y-68253390D02*
X122880476Y-68824819D01*
X122880476Y-68824819D02*
X123499523Y-68824819D01*
X111999523Y-78654819D02*
X111428095Y-78654819D01*
X111713809Y-78654819D02*
X111713809Y-77654819D01*
X111713809Y-77654819D02*
X111618571Y-77797676D01*
X111618571Y-77797676D02*
X111523333Y-77892914D01*
X111523333Y-77892914D02*
X111428095Y-77940533D01*
X112618571Y-77654819D02*
X112713809Y-77654819D01*
X112713809Y-77654819D02*
X112809047Y-77702438D01*
X112809047Y-77702438D02*
X112856666Y-77750057D01*
X112856666Y-77750057D02*
X112904285Y-77845295D01*
X112904285Y-77845295D02*
X112951904Y-78035771D01*
X112951904Y-78035771D02*
X112951904Y-78273866D01*
X112951904Y-78273866D02*
X112904285Y-78464342D01*
X112904285Y-78464342D02*
X112856666Y-78559580D01*
X112856666Y-78559580D02*
X112809047Y-78607200D01*
X112809047Y-78607200D02*
X112713809Y-78654819D01*
X112713809Y-78654819D02*
X112618571Y-78654819D01*
X112618571Y-78654819D02*
X112523333Y-78607200D01*
X112523333Y-78607200D02*
X112475714Y-78559580D01*
X112475714Y-78559580D02*
X112428095Y-78464342D01*
X112428095Y-78464342D02*
X112380476Y-78273866D01*
X112380476Y-78273866D02*
X112380476Y-78035771D01*
X112380476Y-78035771D02*
X112428095Y-77845295D01*
X112428095Y-77845295D02*
X112475714Y-77750057D01*
X112475714Y-77750057D02*
X112523333Y-77702438D01*
X112523333Y-77702438D02*
X112618571Y-77654819D01*
X113380476Y-78654819D02*
X113380476Y-77654819D01*
X113951904Y-78654819D02*
X113523333Y-78083390D01*
X113951904Y-77654819D02*
X113380476Y-78226247D01*
X110766666Y-68204819D02*
X110766666Y-68919104D01*
X110766666Y-68919104D02*
X110719047Y-69061961D01*
X110719047Y-69061961D02*
X110623809Y-69157200D01*
X110623809Y-69157200D02*
X110480952Y-69204819D01*
X110480952Y-69204819D02*
X110385714Y-69204819D01*
X111766666Y-69204819D02*
X111195238Y-69204819D01*
X111480952Y-69204819D02*
X111480952Y-68204819D01*
X111480952Y-68204819D02*
X111385714Y-68347676D01*
X111385714Y-68347676D02*
X111290476Y-68442914D01*
X111290476Y-68442914D02*
X111195238Y-68490533D01*
D20*
X109785714Y-65142662D02*
X110185714Y-66342662D01*
X110185714Y-66342662D02*
X110585714Y-65142662D01*
X110985714Y-66342662D02*
X110985714Y-65142662D01*
X111557143Y-66342662D02*
X111557143Y-65142662D01*
X111557143Y-65142662D02*
X112242857Y-66342662D01*
X112242857Y-66342662D02*
X112242857Y-65142662D01*
D13*
X97954819Y-83566666D02*
X97478628Y-83899999D01*
X97954819Y-84138094D02*
X96954819Y-84138094D01*
X96954819Y-84138094D02*
X96954819Y-83757142D01*
X96954819Y-83757142D02*
X97002438Y-83661904D01*
X97002438Y-83661904D02*
X97050057Y-83614285D01*
X97050057Y-83614285D02*
X97145295Y-83566666D01*
X97145295Y-83566666D02*
X97288152Y-83566666D01*
X97288152Y-83566666D02*
X97383390Y-83614285D01*
X97383390Y-83614285D02*
X97431009Y-83661904D01*
X97431009Y-83661904D02*
X97478628Y-83757142D01*
X97478628Y-83757142D02*
X97478628Y-84138094D01*
X96954819Y-83233332D02*
X96954819Y-82566666D01*
X96954819Y-82566666D02*
X97954819Y-82995237D01*
X91114285Y-83188152D02*
X91114285Y-83854819D01*
X90876190Y-82807200D02*
X90638095Y-83521485D01*
X90638095Y-83521485D02*
X91257142Y-83521485D01*
X91638095Y-83854819D02*
X91638095Y-82854819D01*
X92209523Y-83854819D02*
X91780952Y-83283390D01*
X92209523Y-82854819D02*
X91638095Y-83426247D01*
X92542857Y-82854819D02*
X93209523Y-82854819D01*
X93209523Y-82854819D02*
X92780952Y-83854819D01*
X94759580Y-78366666D02*
X94807200Y-78414285D01*
X94807200Y-78414285D02*
X94854819Y-78557142D01*
X94854819Y-78557142D02*
X94854819Y-78652380D01*
X94854819Y-78652380D02*
X94807200Y-78795237D01*
X94807200Y-78795237D02*
X94711961Y-78890475D01*
X94711961Y-78890475D02*
X94616723Y-78938094D01*
X94616723Y-78938094D02*
X94426247Y-78985713D01*
X94426247Y-78985713D02*
X94283390Y-78985713D01*
X94283390Y-78985713D02*
X94092914Y-78938094D01*
X94092914Y-78938094D02*
X93997676Y-78890475D01*
X93997676Y-78890475D02*
X93902438Y-78795237D01*
X93902438Y-78795237D02*
X93854819Y-78652380D01*
X93854819Y-78652380D02*
X93854819Y-78557142D01*
X93854819Y-78557142D02*
X93902438Y-78414285D01*
X93902438Y-78414285D02*
X93950057Y-78366666D01*
X93950057Y-77985713D02*
X93902438Y-77938094D01*
X93902438Y-77938094D02*
X93854819Y-77842856D01*
X93854819Y-77842856D02*
X93854819Y-77604761D01*
X93854819Y-77604761D02*
X93902438Y-77509523D01*
X93902438Y-77509523D02*
X93950057Y-77461904D01*
X93950057Y-77461904D02*
X94045295Y-77414285D01*
X94045295Y-77414285D02*
X94140533Y-77414285D01*
X94140533Y-77414285D02*
X94283390Y-77461904D01*
X94283390Y-77461904D02*
X94854819Y-78033332D01*
X94854819Y-78033332D02*
X94854819Y-77414285D01*
X90685714Y-87554819D02*
X90685714Y-86554819D01*
X90685714Y-86554819D02*
X90923809Y-86554819D01*
X90923809Y-86554819D02*
X91066666Y-86602438D01*
X91066666Y-86602438D02*
X91161904Y-86697676D01*
X91161904Y-86697676D02*
X91209523Y-86792914D01*
X91209523Y-86792914D02*
X91257142Y-86983390D01*
X91257142Y-86983390D02*
X91257142Y-87126247D01*
X91257142Y-87126247D02*
X91209523Y-87316723D01*
X91209523Y-87316723D02*
X91161904Y-87411961D01*
X91161904Y-87411961D02*
X91066666Y-87507200D01*
X91066666Y-87507200D02*
X90923809Y-87554819D01*
X90923809Y-87554819D02*
X90685714Y-87554819D01*
X92209523Y-87554819D02*
X91638095Y-87554819D01*
X91923809Y-87554819D02*
X91923809Y-86554819D01*
X91923809Y-86554819D02*
X91828571Y-86697676D01*
X91828571Y-86697676D02*
X91733333Y-86792914D01*
X91733333Y-86792914D02*
X91638095Y-86840533D01*
X92542857Y-86554819D02*
X93161904Y-86554819D01*
X93161904Y-86554819D02*
X92828571Y-86935771D01*
X92828571Y-86935771D02*
X92971428Y-86935771D01*
X92971428Y-86935771D02*
X93066666Y-86983390D01*
X93066666Y-86983390D02*
X93114285Y-87031009D01*
X93114285Y-87031009D02*
X93161904Y-87126247D01*
X93161904Y-87126247D02*
X93161904Y-87364342D01*
X93161904Y-87364342D02*
X93114285Y-87459580D01*
X93114285Y-87459580D02*
X93066666Y-87507200D01*
X93066666Y-87507200D02*
X92971428Y-87554819D01*
X92971428Y-87554819D02*
X92685714Y-87554819D01*
X92685714Y-87554819D02*
X92590476Y-87507200D01*
X92590476Y-87507200D02*
X92542857Y-87459580D01*
X101333333Y-95259580D02*
X101285714Y-95307200D01*
X101285714Y-95307200D02*
X101142857Y-95354819D01*
X101142857Y-95354819D02*
X101047619Y-95354819D01*
X101047619Y-95354819D02*
X100904762Y-95307200D01*
X100904762Y-95307200D02*
X100809524Y-95211961D01*
X100809524Y-95211961D02*
X100761905Y-95116723D01*
X100761905Y-95116723D02*
X100714286Y-94926247D01*
X100714286Y-94926247D02*
X100714286Y-94783390D01*
X100714286Y-94783390D02*
X100761905Y-94592914D01*
X100761905Y-94592914D02*
X100809524Y-94497676D01*
X100809524Y-94497676D02*
X100904762Y-94402438D01*
X100904762Y-94402438D02*
X101047619Y-94354819D01*
X101047619Y-94354819D02*
X101142857Y-94354819D01*
X101142857Y-94354819D02*
X101285714Y-94402438D01*
X101285714Y-94402438D02*
X101333333Y-94450057D01*
X102285714Y-95354819D02*
X101714286Y-95354819D01*
X102000000Y-95354819D02*
X102000000Y-94354819D01*
X102000000Y-94354819D02*
X101904762Y-94497676D01*
X101904762Y-94497676D02*
X101809524Y-94592914D01*
X101809524Y-94592914D02*
X101714286Y-94640533D01*
X116654819Y-84904285D02*
X116654819Y-85475713D01*
X116654819Y-85189999D02*
X115654819Y-85189999D01*
X115654819Y-85189999D02*
X115797676Y-85285237D01*
X115797676Y-85285237D02*
X115892914Y-85380475D01*
X115892914Y-85380475D02*
X115940533Y-85475713D01*
X116654819Y-84475713D02*
X115654819Y-84475713D01*
X116654819Y-83904285D02*
X116083390Y-84332856D01*
X115654819Y-83904285D02*
X116226247Y-84475713D01*
X102733333Y-76984819D02*
X102400000Y-76508628D01*
X102161905Y-76984819D02*
X102161905Y-75984819D01*
X102161905Y-75984819D02*
X102542857Y-75984819D01*
X102542857Y-75984819D02*
X102638095Y-76032438D01*
X102638095Y-76032438D02*
X102685714Y-76080057D01*
X102685714Y-76080057D02*
X102733333Y-76175295D01*
X102733333Y-76175295D02*
X102733333Y-76318152D01*
X102733333Y-76318152D02*
X102685714Y-76413390D01*
X102685714Y-76413390D02*
X102638095Y-76461009D01*
X102638095Y-76461009D02*
X102542857Y-76508628D01*
X102542857Y-76508628D02*
X102161905Y-76508628D01*
X103685714Y-76984819D02*
X103114286Y-76984819D01*
X103400000Y-76984819D02*
X103400000Y-75984819D01*
X103400000Y-75984819D02*
X103304762Y-76127676D01*
X103304762Y-76127676D02*
X103209524Y-76222914D01*
X103209524Y-76222914D02*
X103114286Y-76270533D01*
X102209523Y-79354819D02*
X101638095Y-79354819D01*
X101923809Y-79354819D02*
X101923809Y-78354819D01*
X101923809Y-78354819D02*
X101828571Y-78497676D01*
X101828571Y-78497676D02*
X101733333Y-78592914D01*
X101733333Y-78592914D02*
X101638095Y-78640533D01*
X102828571Y-78354819D02*
X102923809Y-78354819D01*
X102923809Y-78354819D02*
X103019047Y-78402438D01*
X103019047Y-78402438D02*
X103066666Y-78450057D01*
X103066666Y-78450057D02*
X103114285Y-78545295D01*
X103114285Y-78545295D02*
X103161904Y-78735771D01*
X103161904Y-78735771D02*
X103161904Y-78973866D01*
X103161904Y-78973866D02*
X103114285Y-79164342D01*
X103114285Y-79164342D02*
X103066666Y-79259580D01*
X103066666Y-79259580D02*
X103019047Y-79307200D01*
X103019047Y-79307200D02*
X102923809Y-79354819D01*
X102923809Y-79354819D02*
X102828571Y-79354819D01*
X102828571Y-79354819D02*
X102733333Y-79307200D01*
X102733333Y-79307200D02*
X102685714Y-79259580D01*
X102685714Y-79259580D02*
X102638095Y-79164342D01*
X102638095Y-79164342D02*
X102590476Y-78973866D01*
X102590476Y-78973866D02*
X102590476Y-78735771D01*
X102590476Y-78735771D02*
X102638095Y-78545295D01*
X102638095Y-78545295D02*
X102685714Y-78450057D01*
X102685714Y-78450057D02*
X102733333Y-78402438D01*
X102733333Y-78402438D02*
X102828571Y-78354819D01*
X103590476Y-79354819D02*
X103590476Y-78354819D01*
X104161904Y-79354819D02*
X103733333Y-78783390D01*
X104161904Y-78354819D02*
X103590476Y-78926247D01*
X91154761Y-66454819D02*
X90821428Y-65978628D01*
X90583333Y-66454819D02*
X90583333Y-65454819D01*
X90583333Y-65454819D02*
X90964285Y-65454819D01*
X90964285Y-65454819D02*
X91059523Y-65502438D01*
X91059523Y-65502438D02*
X91107142Y-65550057D01*
X91107142Y-65550057D02*
X91154761Y-65645295D01*
X91154761Y-65645295D02*
X91154761Y-65788152D01*
X91154761Y-65788152D02*
X91107142Y-65883390D01*
X91107142Y-65883390D02*
X91059523Y-65931009D01*
X91059523Y-65931009D02*
X90964285Y-65978628D01*
X90964285Y-65978628D02*
X90583333Y-65978628D01*
X91440476Y-65454819D02*
X91773809Y-66454819D01*
X91773809Y-66454819D02*
X92107142Y-65454819D01*
X92392857Y-65550057D02*
X92440476Y-65502438D01*
X92440476Y-65502438D02*
X92535714Y-65454819D01*
X92535714Y-65454819D02*
X92773809Y-65454819D01*
X92773809Y-65454819D02*
X92869047Y-65502438D01*
X92869047Y-65502438D02*
X92916666Y-65550057D01*
X92916666Y-65550057D02*
X92964285Y-65645295D01*
X92964285Y-65645295D02*
X92964285Y-65740533D01*
X92964285Y-65740533D02*
X92916666Y-65883390D01*
X92916666Y-65883390D02*
X92345238Y-66454819D01*
X92345238Y-66454819D02*
X92964285Y-66454819D01*
X77154819Y-93095238D02*
X76678628Y-93428571D01*
X77154819Y-93666666D02*
X76154819Y-93666666D01*
X76154819Y-93666666D02*
X76154819Y-93285714D01*
X76154819Y-93285714D02*
X76202438Y-93190476D01*
X76202438Y-93190476D02*
X76250057Y-93142857D01*
X76250057Y-93142857D02*
X76345295Y-93095238D01*
X76345295Y-93095238D02*
X76488152Y-93095238D01*
X76488152Y-93095238D02*
X76583390Y-93142857D01*
X76583390Y-93142857D02*
X76631009Y-93190476D01*
X76631009Y-93190476D02*
X76678628Y-93285714D01*
X76678628Y-93285714D02*
X76678628Y-93666666D01*
X76154819Y-92809523D02*
X77154819Y-92476190D01*
X77154819Y-92476190D02*
X76154819Y-92142857D01*
X77154819Y-91285714D02*
X77154819Y-91857142D01*
X77154819Y-91571428D02*
X76154819Y-91571428D01*
X76154819Y-91571428D02*
X76297676Y-91666666D01*
X76297676Y-91666666D02*
X76392914Y-91761904D01*
X76392914Y-91761904D02*
X76440533Y-91857142D01*
D21*
X100240000Y-80650000D02*
X100240000Y-90930000D01*
X100240000Y-90930000D02*
X101890000Y-90930000D01*
X103890000Y-90930000D02*
X105540000Y-90930000D01*
X105540000Y-80650000D02*
X100240000Y-80650000D01*
X105540000Y-90930000D02*
X105540000Y-80650000D01*
X101890000Y-90930000D02*
G75*
G02*
X103890000Y-90930000I1000000J0D01*
G01*
X128700000Y-74564000D02*
X128700000Y-74720000D01*
X128700000Y-76880000D02*
X128700000Y-77036000D01*
X128700001Y-74564485D02*
G75*
G02*
X131932334Y-74721392I1559999J-1235515D01*
G01*
X129219040Y-74720001D02*
G75*
G02*
X131301129Y-74720164I1040960J-1079999D01*
G01*
X131301129Y-76879836D02*
G75*
G02*
X129219040Y-76879999I-1041129J1079836D01*
G01*
X131932334Y-76878608D02*
G75*
G02*
X128700001Y-77035515I-1672334J1078608D01*
G01*
X118400000Y-96100000D02*
X127000000Y-96100000D01*
X118400000Y-100700000D02*
X120600000Y-100700000D01*
X124700000Y-100700000D02*
X127000000Y-100700000D01*
X105890000Y-100230000D02*
X105890000Y-98900000D01*
X107220000Y-100230000D02*
X105890000Y-100230000D01*
X108490000Y-97570000D02*
X111090000Y-97570000D01*
X108490000Y-100230000D02*
X108490000Y-97570000D01*
X108490000Y-100230000D02*
X111090000Y-100230000D01*
X111090000Y-100230000D02*
X111090000Y-97570000D01*
X113590000Y-95345000D02*
X113590000Y-92255000D01*
X108040000Y-93800462D02*
G75*
G02*
X113590000Y-92255170I2990000J462D01*
G01*
X113589999Y-95344830D02*
G75*
G02*
X108040001Y-93799538I-2559999J1544830D01*
G01*
X113530000Y-93800000D02*
G75*
G02*
X108530000Y-93800000I-2500000J0D01*
G01*
X108530000Y-93800000D02*
G75*
G02*
X113530000Y-93800000I2500000J0D01*
G01*
X111830000Y-81420000D02*
X111830000Y-87960000D01*
X111830000Y-87960000D02*
X112160000Y-87960000D01*
X112160000Y-81420000D02*
X111830000Y-81420000D01*
X114240000Y-81420000D02*
X114570000Y-81420000D01*
X114570000Y-81420000D02*
X114570000Y-87960000D01*
X114570000Y-87960000D02*
X114240000Y-87960000D01*
X89180000Y-85630000D02*
X94620000Y-85630000D01*
X89180000Y-85760000D02*
X89180000Y-85630000D01*
X89180000Y-88440000D02*
X89180000Y-88570000D01*
X89180000Y-88570000D02*
X94620000Y-88570000D01*
X89960000Y-85630000D02*
X89960000Y-88570000D01*
X90080000Y-85630000D02*
X90080000Y-88570000D01*
X90200000Y-85630000D02*
X90200000Y-88570000D01*
X94620000Y-85630000D02*
X94620000Y-85760000D01*
X94620000Y-88570000D02*
X94620000Y-88440000D01*
X96900000Y-69250000D02*
X96900000Y-70750000D01*
X98150000Y-73250000D02*
X102650000Y-73250000D01*
X102650000Y-66750000D02*
X98150000Y-66750000D01*
X103900000Y-70750000D02*
X103900000Y-69250000D01*
X93520000Y-78500000D02*
G75*
G02*
X88280000Y-78500000I-2620000J0D01*
G01*
X88280000Y-78500000D02*
G75*
G02*
X93520000Y-78500000I2620000J0D01*
G01*
X133600000Y-71964000D02*
X133600000Y-72120000D01*
X133600000Y-74280000D02*
X133600000Y-74436000D01*
X133600001Y-71964485D02*
G75*
G02*
X136832334Y-72121392I1559999J-1235515D01*
G01*
X134119040Y-72120001D02*
G75*
G02*
X136201129Y-72120164I1040960J-1079999D01*
G01*
X136201129Y-74279836D02*
G75*
G02*
X134119040Y-74279999I-1041129J1079836D01*
G01*
X136832334Y-74278608D02*
G75*
G02*
X133600001Y-74435515I-1672334J1078608D01*
G01*
X88120000Y-92030000D02*
X88120000Y-92360000D01*
X88120000Y-94770000D02*
X88120000Y-94440000D01*
X94660000Y-92030000D02*
X88120000Y-92030000D01*
X94660000Y-92360000D02*
X94660000Y-92030000D01*
X94660000Y-94440000D02*
X94660000Y-94770000D01*
X94660000Y-94770000D02*
X88120000Y-94770000D01*
X115800000Y-92430000D02*
X115800000Y-92360000D01*
X117170000Y-93800000D02*
G75*
G02*
X114430000Y-93800000I-1370000J0D01*
G01*
X114430000Y-93800000D02*
G75*
G02*
X117170000Y-93800000I1370000J0D01*
G01*
X133600000Y-82164000D02*
X133600000Y-82320000D01*
X133600000Y-84480000D02*
X133600000Y-84636000D01*
X133600001Y-82164485D02*
G75*
G02*
X136832334Y-82321392I1559999J-1235515D01*
G01*
X134119040Y-82320001D02*
G75*
G02*
X136201129Y-82320164I1040960J-1079999D01*
G01*
X136201129Y-84479836D02*
G75*
G02*
X134119040Y-84479999I-1041129J1079836D01*
G01*
X136832334Y-84478608D02*
G75*
G02*
X133600001Y-84635515I-1672334J1078608D01*
G01*
X120040000Y-69370000D02*
X120040000Y-92350000D01*
X120040000Y-92350000D02*
X125340000Y-92350000D01*
X121690000Y-69370000D02*
X120040000Y-69370000D01*
X125340000Y-69370000D02*
X123690000Y-69370000D01*
X125340000Y-92350000D02*
X125340000Y-69370000D01*
X123690000Y-69370000D02*
G75*
G02*
X121690000Y-69370000I-1000000J0D01*
G01*
X133635000Y-87264000D02*
X133635000Y-87420000D01*
X133635000Y-89580000D02*
X133635000Y-89736000D01*
X133635001Y-87264485D02*
G75*
G02*
X136867334Y-87421392I1559999J-1235515D01*
G01*
X134154040Y-87420001D02*
G75*
G02*
X136236129Y-87420164I1040960J-1079999D01*
G01*
X136236129Y-89579836D02*
G75*
G02*
X134154040Y-89579999I-1041129J1079836D01*
G01*
X136867334Y-89578608D02*
G75*
G02*
X133635001Y-89735515I-1672334J1078608D01*
G01*
X109430000Y-76830000D02*
X115970000Y-76830000D01*
X109430000Y-77160000D02*
X109430000Y-76830000D01*
X109430000Y-79240000D02*
X109430000Y-79570000D01*
X109430000Y-79570000D02*
X115970000Y-79570000D01*
X115970000Y-76830000D02*
X115970000Y-77160000D01*
X115970000Y-79570000D02*
X115970000Y-79240000D01*
X88630000Y-82030000D02*
X95170000Y-82030000D01*
X88630000Y-82360000D02*
X88630000Y-82030000D01*
X88630000Y-84440000D02*
X88630000Y-84770000D01*
X88630000Y-84770000D02*
X95170000Y-84770000D01*
X95170000Y-82030000D02*
X95170000Y-82360000D01*
X95170000Y-84770000D02*
X95170000Y-84440000D01*
X128700000Y-79664000D02*
X128700000Y-79820000D01*
X128700000Y-81980000D02*
X128700000Y-82136000D01*
X128700001Y-79664485D02*
G75*
G02*
X131932334Y-79821392I1559999J-1235515D01*
G01*
X129219040Y-79820001D02*
G75*
G02*
X131301129Y-79820164I1040960J-1079999D01*
G01*
X131301129Y-81979836D02*
G75*
G02*
X129219040Y-81979999I-1041129J1079836D01*
G01*
X131932334Y-81978608D02*
G75*
G02*
X128700001Y-82135515I-1672334J1078608D01*
G01*
X95130000Y-75730000D02*
X95445000Y-75730000D01*
X95130000Y-80670000D02*
X95130000Y-75730000D01*
X95130000Y-80670000D02*
X95445000Y-80670000D01*
X97555000Y-75730000D02*
X97870000Y-75730000D01*
X97555000Y-80670000D02*
X97870000Y-80670000D01*
X97870000Y-80670000D02*
X97870000Y-75730000D01*
X89180000Y-88830000D02*
X89180000Y-88960000D01*
X89180000Y-91770000D02*
X89180000Y-91640000D01*
X93600000Y-91770000D02*
X93600000Y-88830000D01*
X93720000Y-91770000D02*
X93720000Y-88830000D01*
X93840000Y-91770000D02*
X93840000Y-88830000D01*
X94620000Y-88830000D02*
X89180000Y-88830000D01*
X94620000Y-88960000D02*
X94620000Y-88830000D01*
X94620000Y-91640000D02*
X94620000Y-91770000D01*
X94620000Y-91770000D02*
X89180000Y-91770000D01*
X99030000Y-91330000D02*
X99030000Y-91645000D01*
X99030000Y-91330000D02*
X103970000Y-91330000D01*
X99030000Y-93755000D02*
X99030000Y-94070000D01*
X99030000Y-94070000D02*
X103970000Y-94070000D01*
X103970000Y-91330000D02*
X103970000Y-91645000D01*
X103970000Y-93755000D02*
X103970000Y-94070000D01*
X128700000Y-69464000D02*
X128700000Y-69620000D01*
X128700000Y-71780000D02*
X128700000Y-71936000D01*
X128700001Y-69464485D02*
G75*
G02*
X131932334Y-69621392I1559999J-1235515D01*
G01*
X129219040Y-69620001D02*
G75*
G02*
X131301129Y-69620164I1040960J-1079999D01*
G01*
X131301129Y-71779836D02*
G75*
G02*
X129219040Y-71779999I-1041129J1079836D01*
G01*
X131932334Y-71778608D02*
G75*
G02*
X128700001Y-71935515I-1672334J1078608D01*
G01*
X114830000Y-81420000D02*
X115160000Y-81420000D01*
X114830000Y-87960000D02*
X114830000Y-81420000D01*
X115160000Y-87960000D02*
X114830000Y-87960000D01*
X117240000Y-87960000D02*
X117570000Y-87960000D01*
X117570000Y-81420000D02*
X117240000Y-81420000D01*
X117570000Y-87960000D02*
X117570000Y-81420000D01*
X133600000Y-77064000D02*
X133600000Y-77220000D01*
X133600000Y-79380000D02*
X133600000Y-79536000D01*
X133600001Y-77064485D02*
G75*
G02*
X136832334Y-77221392I1559999J-1235515D01*
G01*
X134119040Y-77220001D02*
G75*
G02*
X136201129Y-77220164I1040960J-1079999D01*
G01*
X136201129Y-79379836D02*
G75*
G02*
X134119040Y-79379999I-1041129J1079836D01*
G01*
X136832334Y-79378608D02*
G75*
G02*
X133600001Y-79535515I-1672334J1078608D01*
G01*
X133635000Y-67364000D02*
X133635000Y-67520000D01*
X133635000Y-69680000D02*
X133635000Y-69836000D01*
X133635001Y-67364485D02*
G75*
G02*
X136867334Y-67521392I1559999J-1235515D01*
G01*
X134154040Y-67520001D02*
G75*
G02*
X136236129Y-67520164I1040960J-1079999D01*
G01*
X136236129Y-69679836D02*
G75*
G02*
X134154040Y-69679999I-1041129J1079836D01*
G01*
X136867334Y-69678608D02*
G75*
G02*
X133635001Y-69835515I-1672334J1078608D01*
G01*
X128770000Y-89764000D02*
X128770000Y-89920000D01*
X128770000Y-92080000D02*
X128770000Y-92236000D01*
X128770001Y-89764485D02*
G75*
G02*
X132002334Y-89921392I1559999J-1235515D01*
G01*
X129289040Y-89920001D02*
G75*
G02*
X131371129Y-89920164I1040960J-1079999D01*
G01*
X131371129Y-92079836D02*
G75*
G02*
X129289040Y-92079999I-1041129J1079836D01*
G01*
X132002334Y-92078608D02*
G75*
G02*
X128770001Y-92235515I-1672334J1078608D01*
G01*
X99630000Y-77530000D02*
X106170000Y-77530000D01*
X99630000Y-77860000D02*
X99630000Y-77530000D01*
X99630000Y-79940000D02*
X99630000Y-80270000D01*
X99630000Y-80270000D02*
X106170000Y-80270000D01*
X106170000Y-77530000D02*
X106170000Y-77860000D01*
X106170000Y-80270000D02*
X106170000Y-79940000D01*
X128735000Y-84664000D02*
X128735000Y-84820000D01*
X128735000Y-86980000D02*
X128735000Y-87136000D01*
X128735001Y-84664485D02*
G75*
G02*
X131967334Y-84821392I1559999J-1235515D01*
G01*
X129254040Y-84820001D02*
G75*
G02*
X131336129Y-84820164I1040960J-1079999D01*
G01*
X131336129Y-86979836D02*
G75*
G02*
X129254040Y-86979999I-1041129J1079836D01*
G01*
X131967334Y-86978608D02*
G75*
G02*
X128735001Y-87135515I-1672334J1078608D01*
G01*
X75480000Y-75570000D02*
X75480000Y-68030000D01*
X75480000Y-75570000D02*
X93620000Y-75570000D01*
X78680000Y-64830000D02*
X93620000Y-64830000D01*
X93620000Y-75570000D02*
X93620000Y-64830000D01*
X75480000Y-68030000D02*
G75*
G02*
X78680000Y-64830000I3199999J1D01*
G01*
X75480000Y-94320000D02*
X75480000Y-76180000D01*
X86220000Y-76180000D02*
X75480000Y-76180000D01*
X86220000Y-94320000D02*
X75480000Y-94320000D01*
X86220000Y-94320000D02*
X86220000Y-76180000D01*
%LPC*%
D16*
X84268796Y-96300828D02*
X83554510Y-96300828D01*
X83554510Y-96300828D02*
X83483082Y-97015114D01*
X83483082Y-97015114D02*
X83554510Y-96943685D01*
X83554510Y-96943685D02*
X83697368Y-96872257D01*
X83697368Y-96872257D02*
X84054510Y-96872257D01*
X84054510Y-96872257D02*
X84197368Y-96943685D01*
X84197368Y-96943685D02*
X84268796Y-97015114D01*
X84268796Y-97015114D02*
X84340225Y-97157971D01*
X84340225Y-97157971D02*
X84340225Y-97515114D01*
X84340225Y-97515114D02*
X84268796Y-97657971D01*
X84268796Y-97657971D02*
X84197368Y-97729400D01*
X84197368Y-97729400D02*
X84054510Y-97800828D01*
X84054510Y-97800828D02*
X83697368Y-97800828D01*
X83697368Y-97800828D02*
X83554510Y-97729400D01*
X83554510Y-97729400D02*
X83483082Y-97657971D01*
X85697367Y-96300828D02*
X84983081Y-96300828D01*
X84983081Y-96300828D02*
X84911653Y-97015114D01*
X84911653Y-97015114D02*
X84983081Y-96943685D01*
X84983081Y-96943685D02*
X85125939Y-96872257D01*
X85125939Y-96872257D02*
X85483081Y-96872257D01*
X85483081Y-96872257D02*
X85625939Y-96943685D01*
X85625939Y-96943685D02*
X85697367Y-97015114D01*
X85697367Y-97015114D02*
X85768796Y-97157971D01*
X85768796Y-97157971D02*
X85768796Y-97515114D01*
X85768796Y-97515114D02*
X85697367Y-97657971D01*
X85697367Y-97657971D02*
X85625939Y-97729400D01*
X85625939Y-97729400D02*
X85483081Y-97800828D01*
X85483081Y-97800828D02*
X85125939Y-97800828D01*
X85125939Y-97800828D02*
X84983081Y-97729400D01*
X84983081Y-97729400D02*
X84911653Y-97657971D01*
X87125938Y-96300828D02*
X86411652Y-96300828D01*
X86411652Y-96300828D02*
X86340224Y-97015114D01*
X86340224Y-97015114D02*
X86411652Y-96943685D01*
X86411652Y-96943685D02*
X86554510Y-96872257D01*
X86554510Y-96872257D02*
X86911652Y-96872257D01*
X86911652Y-96872257D02*
X87054510Y-96943685D01*
X87054510Y-96943685D02*
X87125938Y-97015114D01*
X87125938Y-97015114D02*
X87197367Y-97157971D01*
X87197367Y-97157971D02*
X87197367Y-97515114D01*
X87197367Y-97515114D02*
X87125938Y-97657971D01*
X87125938Y-97657971D02*
X87054510Y-97729400D01*
X87054510Y-97729400D02*
X86911652Y-97800828D01*
X86911652Y-97800828D02*
X86554510Y-97800828D01*
X86554510Y-97800828D02*
X86411652Y-97729400D01*
X86411652Y-97729400D02*
X86340224Y-97657971D01*
X87768795Y-97729400D02*
X87983081Y-97800828D01*
X87983081Y-97800828D02*
X88340223Y-97800828D01*
X88340223Y-97800828D02*
X88483081Y-97729400D01*
X88483081Y-97729400D02*
X88554509Y-97657971D01*
X88554509Y-97657971D02*
X88625938Y-97515114D01*
X88625938Y-97515114D02*
X88625938Y-97372257D01*
X88625938Y-97372257D02*
X88554509Y-97229400D01*
X88554509Y-97229400D02*
X88483081Y-97157971D01*
X88483081Y-97157971D02*
X88340223Y-97086542D01*
X88340223Y-97086542D02*
X88054509Y-97015114D01*
X88054509Y-97015114D02*
X87911652Y-96943685D01*
X87911652Y-96943685D02*
X87840223Y-96872257D01*
X87840223Y-96872257D02*
X87768795Y-96729400D01*
X87768795Y-96729400D02*
X87768795Y-96586542D01*
X87768795Y-96586542D02*
X87840223Y-96443685D01*
X87840223Y-96443685D02*
X87911652Y-96372257D01*
X87911652Y-96372257D02*
X88054509Y-96300828D01*
X88054509Y-96300828D02*
X88411652Y-96300828D01*
X88411652Y-96300828D02*
X88625938Y-96372257D01*
X89911652Y-97800828D02*
X89911652Y-97015114D01*
X89911652Y-97015114D02*
X89840223Y-96872257D01*
X89840223Y-96872257D02*
X89697366Y-96800828D01*
X89697366Y-96800828D02*
X89411652Y-96800828D01*
X89411652Y-96800828D02*
X89268794Y-96872257D01*
X89911652Y-97729400D02*
X89768794Y-97800828D01*
X89768794Y-97800828D02*
X89411652Y-97800828D01*
X89411652Y-97800828D02*
X89268794Y-97729400D01*
X89268794Y-97729400D02*
X89197366Y-97586542D01*
X89197366Y-97586542D02*
X89197366Y-97443685D01*
X89197366Y-97443685D02*
X89268794Y-97300828D01*
X89268794Y-97300828D02*
X89411652Y-97229400D01*
X89411652Y-97229400D02*
X89768794Y-97229400D01*
X89768794Y-97229400D02*
X89911652Y-97157971D01*
X90625937Y-96800828D02*
X90625937Y-97800828D01*
X90625937Y-96943685D02*
X90697366Y-96872257D01*
X90697366Y-96872257D02*
X90840223Y-96800828D01*
X90840223Y-96800828D02*
X91054509Y-96800828D01*
X91054509Y-96800828D02*
X91197366Y-96872257D01*
X91197366Y-96872257D02*
X91268795Y-97015114D01*
X91268795Y-97015114D02*
X91268795Y-97800828D01*
X92625938Y-97800828D02*
X92625938Y-96300828D01*
X92625938Y-97729400D02*
X92483080Y-97800828D01*
X92483080Y-97800828D02*
X92197366Y-97800828D01*
X92197366Y-97800828D02*
X92054509Y-97729400D01*
X92054509Y-97729400D02*
X91983080Y-97657971D01*
X91983080Y-97657971D02*
X91911652Y-97515114D01*
X91911652Y-97515114D02*
X91911652Y-97086542D01*
X91911652Y-97086542D02*
X91983080Y-96943685D01*
X91983080Y-96943685D02*
X92054509Y-96872257D01*
X92054509Y-96872257D02*
X92197366Y-96800828D01*
X92197366Y-96800828D02*
X92483080Y-96800828D01*
X92483080Y-96800828D02*
X92625938Y-96872257D01*
X93340223Y-97800828D02*
X93340223Y-96300828D01*
X93340223Y-96872257D02*
X93483081Y-96800828D01*
X93483081Y-96800828D02*
X93768795Y-96800828D01*
X93768795Y-96800828D02*
X93911652Y-96872257D01*
X93911652Y-96872257D02*
X93983081Y-96943685D01*
X93983081Y-96943685D02*
X94054509Y-97086542D01*
X94054509Y-97086542D02*
X94054509Y-97515114D01*
X94054509Y-97515114D02*
X93983081Y-97657971D01*
X93983081Y-97657971D02*
X93911652Y-97729400D01*
X93911652Y-97729400D02*
X93768795Y-97800828D01*
X93768795Y-97800828D02*
X93483081Y-97800828D01*
X93483081Y-97800828D02*
X93340223Y-97729400D01*
X94911652Y-97800828D02*
X94768795Y-97729400D01*
X94768795Y-97729400D02*
X94697366Y-97657971D01*
X94697366Y-97657971D02*
X94625938Y-97515114D01*
X94625938Y-97515114D02*
X94625938Y-97086542D01*
X94625938Y-97086542D02*
X94697366Y-96943685D01*
X94697366Y-96943685D02*
X94768795Y-96872257D01*
X94768795Y-96872257D02*
X94911652Y-96800828D01*
X94911652Y-96800828D02*
X95125938Y-96800828D01*
X95125938Y-96800828D02*
X95268795Y-96872257D01*
X95268795Y-96872257D02*
X95340224Y-96943685D01*
X95340224Y-96943685D02*
X95411652Y-97086542D01*
X95411652Y-97086542D02*
X95411652Y-97515114D01*
X95411652Y-97515114D02*
X95340224Y-97657971D01*
X95340224Y-97657971D02*
X95268795Y-97729400D01*
X95268795Y-97729400D02*
X95125938Y-97800828D01*
X95125938Y-97800828D02*
X94911652Y-97800828D01*
X95911652Y-97800828D02*
X96697367Y-96800828D01*
X95911652Y-96800828D02*
X96697367Y-97800828D01*
D22*
X106700000Y-89600000D03*
D23*
X106700000Y-87060000D03*
X106700000Y-84520000D03*
X106700000Y-81980000D03*
X99080000Y-81980000D03*
X99080000Y-84520000D03*
X99080000Y-87060000D03*
X99080000Y-89600000D03*
D24*
X128990000Y-75800000D03*
D25*
X131530000Y-75800000D03*
D26*
X118600000Y-98400000D03*
X126800000Y-98400000D03*
D27*
X120700000Y-98400000D03*
D28*
X122700000Y-98400000D03*
X124700000Y-98400000D03*
D29*
X107220000Y-98900000D03*
D30*
X109760000Y-98900000D03*
D24*
X112300000Y-93800000D03*
D25*
X109760000Y-93800000D03*
D31*
X113200000Y-80880000D03*
D23*
X113200000Y-88500000D03*
D32*
X88090000Y-87100000D03*
D33*
X95710000Y-87100000D03*
D34*
X97150000Y-67750000D03*
X103650000Y-67750000D03*
X97150000Y-72250000D03*
X103650000Y-72250000D03*
D31*
X90900000Y-77500000D03*
X90900000Y-79500000D03*
D24*
X133890000Y-73200000D03*
D25*
X136430000Y-73200000D03*
D31*
X95200000Y-93400000D03*
D23*
X87580000Y-93400000D03*
D31*
X115800000Y-93800000D03*
D23*
X115800000Y-91260000D03*
D24*
X133890000Y-83400000D03*
D25*
X136430000Y-83400000D03*
D22*
X118880000Y-70700000D03*
D23*
X118880000Y-73240000D03*
X118880000Y-75780000D03*
X118880000Y-78320000D03*
X118880000Y-80860000D03*
X118880000Y-83400000D03*
X118880000Y-85940000D03*
X118880000Y-88480000D03*
X118880000Y-91020000D03*
X126500000Y-91020000D03*
X126500000Y-88480000D03*
X126500000Y-85940000D03*
X126500000Y-83400000D03*
X126500000Y-80860000D03*
X126500000Y-78320000D03*
X126500000Y-75780000D03*
X126500000Y-73240000D03*
X126500000Y-70700000D03*
D24*
X133925000Y-88500000D03*
D25*
X136465000Y-88500000D03*
D31*
X108890000Y-78200000D03*
D23*
X116510000Y-78200000D03*
D35*
X114100000Y-68750000D03*
D36*
X108100000Y-68750000D03*
D31*
X88090000Y-83400000D03*
D23*
X95710000Y-83400000D03*
D24*
X128990000Y-80900000D03*
D25*
X131530000Y-80900000D03*
D31*
X96500000Y-80700000D03*
X96500000Y-75700000D03*
D37*
X135750000Y-97500000D03*
D32*
X95710000Y-90300000D03*
D33*
X88090000Y-90300000D03*
D31*
X99000000Y-92700000D03*
X104000000Y-92700000D03*
D24*
X128990000Y-70700000D03*
D25*
X131530000Y-70700000D03*
D31*
X116200000Y-88500000D03*
D23*
X116200000Y-80880000D03*
D24*
X133890000Y-78300000D03*
D25*
X136430000Y-78300000D03*
D37*
X78750000Y-97500000D03*
D24*
X133925000Y-68600000D03*
D25*
X136465000Y-68600000D03*
D24*
X129060000Y-91000000D03*
D25*
X131600000Y-91000000D03*
D31*
X99090000Y-78900000D03*
D23*
X106710000Y-78900000D03*
D24*
X129025000Y-85900000D03*
D25*
X131565000Y-85900000D03*
D38*
X89550000Y-68750000D03*
D39*
X84550000Y-68750000D03*
X79550000Y-68750000D03*
D38*
X79400000Y-80250000D03*
D39*
X79400000Y-85250000D03*
X79400000Y-90250000D03*
%LPD*%
M02*
