%TF.GenerationSoftware,KiCad,Pcbnew,8.0.1*%
%TF.CreationDate,2024-04-15T15:14:33+08:00*%
%TF.ProjectId,555Sandbox,35353553-616e-4646-926f-782e6b696361,rev?*%
%TF.SameCoordinates,Original*%
%TF.FileFunction,Drillmap*%
%TF.FilePolarity,Positive*%
%FSLAX45Y45*%
G04 Gerber Fmt 4.5, Leading zero omitted, Abs format (unit mm)*
G04 Created by KiCad (PCBNEW 8.0.1) date 2024-04-15 15:14:33*
%MOMM*%
%LPD*%
G01*
G04 APERTURE LIST*
%ADD10C,0.050000*%
%ADD11C,0.200000*%
G04 APERTURE END LIST*
D10*
X13955000Y-9750000D02*
G75*
G02*
X13580000Y-10125000I-375000J0D01*
G01*
X13955000Y-6805000D02*
X13955000Y-9750000D01*
X7870000Y-10125000D02*
G75*
G02*
X7495000Y-9750000I0J375000D01*
G01*
X13580000Y-6430000D02*
G75*
G02*
X13955000Y-6805000I0J-375000D01*
G01*
X7495000Y-9750000D02*
X7495000Y-6805000D01*
X7495000Y-6805000D02*
G75*
G02*
X7870000Y-6430000I375000J0D01*
G01*
X13580000Y-10125000D02*
X7870000Y-10125000D01*
X7870000Y-6430000D02*
X13580000Y-6430000D01*
D11*
X7753277Y-10438984D02*
X7753277Y-10238984D01*
X7753277Y-10238984D02*
X7800896Y-10238984D01*
X7800896Y-10238984D02*
X7829467Y-10248508D01*
X7829467Y-10248508D02*
X7848515Y-10267555D01*
X7848515Y-10267555D02*
X7858039Y-10286603D01*
X7858039Y-10286603D02*
X7867562Y-10324698D01*
X7867562Y-10324698D02*
X7867562Y-10353270D01*
X7867562Y-10353270D02*
X7858039Y-10391365D01*
X7858039Y-10391365D02*
X7848515Y-10410412D01*
X7848515Y-10410412D02*
X7829467Y-10429460D01*
X7829467Y-10429460D02*
X7800896Y-10438984D01*
X7800896Y-10438984D02*
X7753277Y-10438984D01*
X7953277Y-10438984D02*
X7953277Y-10305650D01*
X7953277Y-10343746D02*
X7962801Y-10324698D01*
X7962801Y-10324698D02*
X7972324Y-10315174D01*
X7972324Y-10315174D02*
X7991372Y-10305650D01*
X7991372Y-10305650D02*
X8010420Y-10305650D01*
X8077086Y-10438984D02*
X8077086Y-10305650D01*
X8077086Y-10238984D02*
X8067562Y-10248508D01*
X8067562Y-10248508D02*
X8077086Y-10258031D01*
X8077086Y-10258031D02*
X8086610Y-10248508D01*
X8086610Y-10248508D02*
X8077086Y-10238984D01*
X8077086Y-10238984D02*
X8077086Y-10258031D01*
X8200896Y-10438984D02*
X8181848Y-10429460D01*
X8181848Y-10429460D02*
X8172324Y-10410412D01*
X8172324Y-10410412D02*
X8172324Y-10238984D01*
X8305658Y-10438984D02*
X8286610Y-10429460D01*
X8286610Y-10429460D02*
X8277086Y-10410412D01*
X8277086Y-10410412D02*
X8277086Y-10238984D01*
X8534229Y-10438984D02*
X8534229Y-10238984D01*
X8534229Y-10238984D02*
X8600896Y-10381841D01*
X8600896Y-10381841D02*
X8667563Y-10238984D01*
X8667563Y-10238984D02*
X8667563Y-10438984D01*
X8848515Y-10438984D02*
X8848515Y-10334222D01*
X8848515Y-10334222D02*
X8838991Y-10315174D01*
X8838991Y-10315174D02*
X8819944Y-10305650D01*
X8819944Y-10305650D02*
X8781848Y-10305650D01*
X8781848Y-10305650D02*
X8762801Y-10315174D01*
X8848515Y-10429460D02*
X8829467Y-10438984D01*
X8829467Y-10438984D02*
X8781848Y-10438984D01*
X8781848Y-10438984D02*
X8762801Y-10429460D01*
X8762801Y-10429460D02*
X8753277Y-10410412D01*
X8753277Y-10410412D02*
X8753277Y-10391365D01*
X8753277Y-10391365D02*
X8762801Y-10372317D01*
X8762801Y-10372317D02*
X8781848Y-10362793D01*
X8781848Y-10362793D02*
X8829467Y-10362793D01*
X8829467Y-10362793D02*
X8848515Y-10353270D01*
X8943753Y-10305650D02*
X8943753Y-10505650D01*
X8943753Y-10315174D02*
X8962801Y-10305650D01*
X8962801Y-10305650D02*
X9000896Y-10305650D01*
X9000896Y-10305650D02*
X9019944Y-10315174D01*
X9019944Y-10315174D02*
X9029467Y-10324698D01*
X9029467Y-10324698D02*
X9038991Y-10343746D01*
X9038991Y-10343746D02*
X9038991Y-10400889D01*
X9038991Y-10400889D02*
X9029467Y-10419936D01*
X9029467Y-10419936D02*
X9019944Y-10429460D01*
X9019944Y-10429460D02*
X9000896Y-10438984D01*
X9000896Y-10438984D02*
X8962801Y-10438984D01*
X8962801Y-10438984D02*
X8943753Y-10429460D01*
X9124705Y-10419936D02*
X9134229Y-10429460D01*
X9134229Y-10429460D02*
X9124705Y-10438984D01*
X9124705Y-10438984D02*
X9115182Y-10429460D01*
X9115182Y-10429460D02*
X9124705Y-10419936D01*
X9124705Y-10419936D02*
X9124705Y-10438984D01*
X9124705Y-10315174D02*
X9134229Y-10324698D01*
X9134229Y-10324698D02*
X9124705Y-10334222D01*
X9124705Y-10334222D02*
X9115182Y-10324698D01*
X9115182Y-10324698D02*
X9124705Y-10315174D01*
X9124705Y-10315174D02*
X9124705Y-10334222D01*
M02*
