M48
; DRILL file {KiCad 8.0.1} date 2024-04-15T15:14:32+0800
; FORMAT={-:-/ absolute / metric / decimal}
; #@! TF.CreationDate,2024-04-15T15:14:32+08:00
; #@! TF.GenerationSoftware,Kicad,Pcbnew,8.0.1
; #@! TF.FileFunction,Plated,1,2,PTH
FMAT,2
METRIC
; #@! TA.AperFunction,Plated,PTH,ComponentDrill
T1C0.800
; #@! TA.AperFunction,Plated,PTH,ComponentDrill
T2C0.900
; #@! TA.AperFunction,Plated,PTH,ComponentDrill
T3C1.000
; #@! TA.AperFunction,Plated,PTH,ComponentDrill
T4C1.100
; #@! TA.AperFunction,Plated,PTH,ComponentDrill
T5C1.200
; #@! TA.AperFunction,Plated,PTH,ComponentDrill
T6C1.500
; #@! TA.AperFunction,Plated,PTH,ComponentDrill
T7C2.100
; #@! TA.AperFunction,Plated,PTH,ComponentDrill
T8C2.700
%
G90
G05
T1
X87.58Y-93.4
X88.09Y-83.4
X90.9Y-77.5
X90.9Y-79.5
X95.2Y-93.4
X95.71Y-83.4
X96.5Y-75.7
X96.5Y-80.7
X99.0Y-92.7
X99.08Y-81.98
X99.08Y-84.52
X99.08Y-87.06
X99.08Y-89.6
X99.09Y-78.9
X104.0Y-92.7
X106.7Y-81.98
X106.7Y-84.52
X106.7Y-87.06
X106.7Y-89.6
X106.71Y-78.9
X108.89Y-78.2
X113.2Y-80.88
X113.2Y-88.5
X115.8Y-91.26
X115.8Y-93.8
X116.2Y-80.88
X116.2Y-88.5
X116.51Y-78.2
X118.88Y-70.7
X118.88Y-73.24
X118.88Y-75.78
X118.88Y-78.32
X118.88Y-80.86
X118.88Y-83.4
X118.88Y-85.94
X118.88Y-88.48
X118.88Y-91.02
X126.5Y-70.7
X126.5Y-73.24
X126.5Y-75.78
X126.5Y-78.32
X126.5Y-80.86
X126.5Y-83.4
X126.5Y-85.94
X126.5Y-88.48
X126.5Y-91.02
T2
X109.76Y-93.8
X112.3Y-93.8
X120.7Y-98.4
X122.7Y-98.4
X124.7Y-98.4
X128.99Y-70.7
X128.99Y-75.8
X128.99Y-80.9
X129.025Y-85.9
X129.06Y-91.0
X131.53Y-70.7
X131.53Y-75.8
X131.53Y-80.9
X131.565Y-85.9
X131.6Y-91.0
X133.89Y-73.2
X133.89Y-78.3
X133.89Y-83.4
X133.925Y-68.6
X133.925Y-88.5
X136.43Y-73.2
X136.43Y-78.3
X136.43Y-83.4
X136.465Y-68.6
X136.465Y-88.5
T3
X107.22Y-98.9
X109.76Y-98.9
T4
X88.09Y-87.1
X88.09Y-90.3
X95.71Y-87.1
X95.71Y-90.3
X97.15Y-67.75
X97.15Y-72.25
X103.65Y-67.75
X103.65Y-72.25
T5
X79.4Y-80.25
X79.4Y-85.25
X79.4Y-90.25
X79.55Y-68.75
X84.55Y-68.75
X89.55Y-68.75
T6
X118.6Y-98.4
X126.8Y-98.4
T7
X108.1Y-68.75
X114.1Y-68.75
T8
X78.75Y-97.5
X135.75Y-97.5
M30
