G04 #@! TF.GenerationSoftware,KiCad,Pcbnew,8.0.1*
G04 #@! TF.CreationDate,2024-04-15T15:14:11+08:00*
G04 #@! TF.ProjectId,555Sandbox,35353553-616e-4646-926f-782e6b696361,rev?*
G04 #@! TF.SameCoordinates,Original*
G04 #@! TF.FileFunction,Soldermask,Top*
G04 #@! TF.FilePolarity,Negative*
%FSLAX46Y46*%
G04 Gerber Fmt 4.6, Leading zero omitted, Abs format (unit mm)*
G04 Created by KiCad (PCBNEW 8.0.1) date 2024-04-15 15:14:11*
%MOMM*%
%LPD*%
G01*
G04 APERTURE LIST*
G04 Aperture macros list*
%AMRoundRect*
0 Rectangle with rounded corners*
0 $1 Rounding radius*
0 $2 $3 $4 $5 $6 $7 $8 $9 X,Y pos of 4 corners*
0 Add a 4 corners polygon primitive as box body*
4,1,4,$2,$3,$4,$5,$6,$7,$8,$9,$2,$3,0*
0 Add four circle primitives for the rounded corners*
1,1,$1+$1,$2,$3*
1,1,$1+$1,$4,$5*
1,1,$1+$1,$6,$7*
1,1,$1+$1,$8,$9*
0 Add four rect primitives between the rounded corners*
20,1,$1+$1,$2,$3,$4,$5,0*
20,1,$1+$1,$4,$5,$6,$7,0*
20,1,$1+$1,$6,$7,$8,$9,0*
20,1,$1+$1,$8,$9,$2,$3,0*%
G04 Aperture macros list end*
%ADD10C,0.300000*%
%ADD11R,1.600000X1.600000*%
%ADD12O,1.600000X1.600000*%
%ADD13R,1.800000X1.800000*%
%ADD14C,1.800000*%
%ADD15O,2.200000X3.500000*%
%ADD16R,1.500000X2.500000*%
%ADD17O,1.500000X2.500000*%
%ADD18R,1.700000X1.700000*%
%ADD19O,1.700000X1.700000*%
%ADD20C,1.600000*%
%ADD21R,2.200000X2.200000*%
%ADD22O,2.200000X2.200000*%
%ADD23C,2.000000*%
%ADD24RoundRect,0.249999X1.300001X1.300001X-1.300001X1.300001X-1.300001X-1.300001X1.300001X-1.300001X0*%
%ADD25C,3.100000*%
%ADD26C,4.700000*%
%ADD27R,3.000000X3.000000*%
%ADD28C,3.000000*%
G04 APERTURE END LIST*
D10*
X84268796Y-96300828D02*
X83554510Y-96300828D01*
X83554510Y-96300828D02*
X83483082Y-97015114D01*
X83483082Y-97015114D02*
X83554510Y-96943685D01*
X83554510Y-96943685D02*
X83697368Y-96872257D01*
X83697368Y-96872257D02*
X84054510Y-96872257D01*
X84054510Y-96872257D02*
X84197368Y-96943685D01*
X84197368Y-96943685D02*
X84268796Y-97015114D01*
X84268796Y-97015114D02*
X84340225Y-97157971D01*
X84340225Y-97157971D02*
X84340225Y-97515114D01*
X84340225Y-97515114D02*
X84268796Y-97657971D01*
X84268796Y-97657971D02*
X84197368Y-97729400D01*
X84197368Y-97729400D02*
X84054510Y-97800828D01*
X84054510Y-97800828D02*
X83697368Y-97800828D01*
X83697368Y-97800828D02*
X83554510Y-97729400D01*
X83554510Y-97729400D02*
X83483082Y-97657971D01*
X85697367Y-96300828D02*
X84983081Y-96300828D01*
X84983081Y-96300828D02*
X84911653Y-97015114D01*
X84911653Y-97015114D02*
X84983081Y-96943685D01*
X84983081Y-96943685D02*
X85125939Y-96872257D01*
X85125939Y-96872257D02*
X85483081Y-96872257D01*
X85483081Y-96872257D02*
X85625939Y-96943685D01*
X85625939Y-96943685D02*
X85697367Y-97015114D01*
X85697367Y-97015114D02*
X85768796Y-97157971D01*
X85768796Y-97157971D02*
X85768796Y-97515114D01*
X85768796Y-97515114D02*
X85697367Y-97657971D01*
X85697367Y-97657971D02*
X85625939Y-97729400D01*
X85625939Y-97729400D02*
X85483081Y-97800828D01*
X85483081Y-97800828D02*
X85125939Y-97800828D01*
X85125939Y-97800828D02*
X84983081Y-97729400D01*
X84983081Y-97729400D02*
X84911653Y-97657971D01*
X87125938Y-96300828D02*
X86411652Y-96300828D01*
X86411652Y-96300828D02*
X86340224Y-97015114D01*
X86340224Y-97015114D02*
X86411652Y-96943685D01*
X86411652Y-96943685D02*
X86554510Y-96872257D01*
X86554510Y-96872257D02*
X86911652Y-96872257D01*
X86911652Y-96872257D02*
X87054510Y-96943685D01*
X87054510Y-96943685D02*
X87125938Y-97015114D01*
X87125938Y-97015114D02*
X87197367Y-97157971D01*
X87197367Y-97157971D02*
X87197367Y-97515114D01*
X87197367Y-97515114D02*
X87125938Y-97657971D01*
X87125938Y-97657971D02*
X87054510Y-97729400D01*
X87054510Y-97729400D02*
X86911652Y-97800828D01*
X86911652Y-97800828D02*
X86554510Y-97800828D01*
X86554510Y-97800828D02*
X86411652Y-97729400D01*
X86411652Y-97729400D02*
X86340224Y-97657971D01*
X87768795Y-97729400D02*
X87983081Y-97800828D01*
X87983081Y-97800828D02*
X88340223Y-97800828D01*
X88340223Y-97800828D02*
X88483081Y-97729400D01*
X88483081Y-97729400D02*
X88554509Y-97657971D01*
X88554509Y-97657971D02*
X88625938Y-97515114D01*
X88625938Y-97515114D02*
X88625938Y-97372257D01*
X88625938Y-97372257D02*
X88554509Y-97229400D01*
X88554509Y-97229400D02*
X88483081Y-97157971D01*
X88483081Y-97157971D02*
X88340223Y-97086542D01*
X88340223Y-97086542D02*
X88054509Y-97015114D01*
X88054509Y-97015114D02*
X87911652Y-96943685D01*
X87911652Y-96943685D02*
X87840223Y-96872257D01*
X87840223Y-96872257D02*
X87768795Y-96729400D01*
X87768795Y-96729400D02*
X87768795Y-96586542D01*
X87768795Y-96586542D02*
X87840223Y-96443685D01*
X87840223Y-96443685D02*
X87911652Y-96372257D01*
X87911652Y-96372257D02*
X88054509Y-96300828D01*
X88054509Y-96300828D02*
X88411652Y-96300828D01*
X88411652Y-96300828D02*
X88625938Y-96372257D01*
X89911652Y-97800828D02*
X89911652Y-97015114D01*
X89911652Y-97015114D02*
X89840223Y-96872257D01*
X89840223Y-96872257D02*
X89697366Y-96800828D01*
X89697366Y-96800828D02*
X89411652Y-96800828D01*
X89411652Y-96800828D02*
X89268794Y-96872257D01*
X89911652Y-97729400D02*
X89768794Y-97800828D01*
X89768794Y-97800828D02*
X89411652Y-97800828D01*
X89411652Y-97800828D02*
X89268794Y-97729400D01*
X89268794Y-97729400D02*
X89197366Y-97586542D01*
X89197366Y-97586542D02*
X89197366Y-97443685D01*
X89197366Y-97443685D02*
X89268794Y-97300828D01*
X89268794Y-97300828D02*
X89411652Y-97229400D01*
X89411652Y-97229400D02*
X89768794Y-97229400D01*
X89768794Y-97229400D02*
X89911652Y-97157971D01*
X90625937Y-96800828D02*
X90625937Y-97800828D01*
X90625937Y-96943685D02*
X90697366Y-96872257D01*
X90697366Y-96872257D02*
X90840223Y-96800828D01*
X90840223Y-96800828D02*
X91054509Y-96800828D01*
X91054509Y-96800828D02*
X91197366Y-96872257D01*
X91197366Y-96872257D02*
X91268795Y-97015114D01*
X91268795Y-97015114D02*
X91268795Y-97800828D01*
X92625938Y-97800828D02*
X92625938Y-96300828D01*
X92625938Y-97729400D02*
X92483080Y-97800828D01*
X92483080Y-97800828D02*
X92197366Y-97800828D01*
X92197366Y-97800828D02*
X92054509Y-97729400D01*
X92054509Y-97729400D02*
X91983080Y-97657971D01*
X91983080Y-97657971D02*
X91911652Y-97515114D01*
X91911652Y-97515114D02*
X91911652Y-97086542D01*
X91911652Y-97086542D02*
X91983080Y-96943685D01*
X91983080Y-96943685D02*
X92054509Y-96872257D01*
X92054509Y-96872257D02*
X92197366Y-96800828D01*
X92197366Y-96800828D02*
X92483080Y-96800828D01*
X92483080Y-96800828D02*
X92625938Y-96872257D01*
X93340223Y-97800828D02*
X93340223Y-96300828D01*
X93340223Y-96872257D02*
X93483081Y-96800828D01*
X93483081Y-96800828D02*
X93768795Y-96800828D01*
X93768795Y-96800828D02*
X93911652Y-96872257D01*
X93911652Y-96872257D02*
X93983081Y-96943685D01*
X93983081Y-96943685D02*
X94054509Y-97086542D01*
X94054509Y-97086542D02*
X94054509Y-97515114D01*
X94054509Y-97515114D02*
X93983081Y-97657971D01*
X93983081Y-97657971D02*
X93911652Y-97729400D01*
X93911652Y-97729400D02*
X93768795Y-97800828D01*
X93768795Y-97800828D02*
X93483081Y-97800828D01*
X93483081Y-97800828D02*
X93340223Y-97729400D01*
X94911652Y-97800828D02*
X94768795Y-97729400D01*
X94768795Y-97729400D02*
X94697366Y-97657971D01*
X94697366Y-97657971D02*
X94625938Y-97515114D01*
X94625938Y-97515114D02*
X94625938Y-97086542D01*
X94625938Y-97086542D02*
X94697366Y-96943685D01*
X94697366Y-96943685D02*
X94768795Y-96872257D01*
X94768795Y-96872257D02*
X94911652Y-96800828D01*
X94911652Y-96800828D02*
X95125938Y-96800828D01*
X95125938Y-96800828D02*
X95268795Y-96872257D01*
X95268795Y-96872257D02*
X95340224Y-96943685D01*
X95340224Y-96943685D02*
X95411652Y-97086542D01*
X95411652Y-97086542D02*
X95411652Y-97515114D01*
X95411652Y-97515114D02*
X95340224Y-97657971D01*
X95340224Y-97657971D02*
X95268795Y-97729400D01*
X95268795Y-97729400D02*
X95125938Y-97800828D01*
X95125938Y-97800828D02*
X94911652Y-97800828D01*
X95911652Y-97800828D02*
X96697367Y-96800828D01*
X95911652Y-96800828D02*
X96697367Y-97800828D01*
D11*
X106700000Y-89600000D03*
D12*
X106700000Y-87060000D03*
X106700000Y-84520000D03*
X106700000Y-81980000D03*
X99080000Y-81980000D03*
X99080000Y-84520000D03*
X99080000Y-87060000D03*
X99080000Y-89600000D03*
D13*
X128990000Y-75800000D03*
D14*
X131530000Y-75800000D03*
D15*
X118600000Y-98400000D03*
X126800000Y-98400000D03*
D16*
X120700000Y-98400000D03*
D17*
X122700000Y-98400000D03*
X124700000Y-98400000D03*
D18*
X107220000Y-98900000D03*
D19*
X109760000Y-98900000D03*
D13*
X112300000Y-93800000D03*
D14*
X109760000Y-93800000D03*
D20*
X113200000Y-80880000D03*
D12*
X113200000Y-88500000D03*
D21*
X88090000Y-87100000D03*
D22*
X95710000Y-87100000D03*
D23*
X97150000Y-67750000D03*
X103650000Y-67750000D03*
X97150000Y-72250000D03*
X103650000Y-72250000D03*
D20*
X90900000Y-77500000D03*
X90900000Y-79500000D03*
D13*
X133890000Y-73200000D03*
D14*
X136430000Y-73200000D03*
D20*
X95200000Y-93400000D03*
D12*
X87580000Y-93400000D03*
D20*
X115800000Y-93800000D03*
D12*
X115800000Y-91260000D03*
D13*
X133890000Y-83400000D03*
D14*
X136430000Y-83400000D03*
D11*
X118880000Y-70700000D03*
D12*
X118880000Y-73240000D03*
X118880000Y-75780000D03*
X118880000Y-78320000D03*
X118880000Y-80860000D03*
X118880000Y-83400000D03*
X118880000Y-85940000D03*
X118880000Y-88480000D03*
X118880000Y-91020000D03*
X126500000Y-91020000D03*
X126500000Y-88480000D03*
X126500000Y-85940000D03*
X126500000Y-83400000D03*
X126500000Y-80860000D03*
X126500000Y-78320000D03*
X126500000Y-75780000D03*
X126500000Y-73240000D03*
X126500000Y-70700000D03*
D13*
X133925000Y-88500000D03*
D14*
X136465000Y-88500000D03*
D20*
X108890000Y-78200000D03*
D12*
X116510000Y-78200000D03*
D24*
X114100000Y-68750000D03*
D25*
X108100000Y-68750000D03*
D20*
X88090000Y-83400000D03*
D12*
X95710000Y-83400000D03*
D13*
X128990000Y-80900000D03*
D14*
X131530000Y-80900000D03*
D20*
X96500000Y-80700000D03*
X96500000Y-75700000D03*
D26*
X135750000Y-97500000D03*
D21*
X95710000Y-90300000D03*
D22*
X88090000Y-90300000D03*
D20*
X99000000Y-92700000D03*
X104000000Y-92700000D03*
D13*
X128990000Y-70700000D03*
D14*
X131530000Y-70700000D03*
D20*
X116200000Y-88500000D03*
D12*
X116200000Y-80880000D03*
D13*
X133890000Y-78300000D03*
D14*
X136430000Y-78300000D03*
D26*
X78750000Y-97500000D03*
D13*
X133925000Y-68600000D03*
D14*
X136465000Y-68600000D03*
D13*
X129060000Y-91000000D03*
D14*
X131600000Y-91000000D03*
D20*
X99090000Y-78900000D03*
D12*
X106710000Y-78900000D03*
D13*
X129025000Y-85900000D03*
D14*
X131565000Y-85900000D03*
D27*
X89550000Y-68750000D03*
D28*
X84550000Y-68750000D03*
X79550000Y-68750000D03*
D27*
X79400000Y-80250000D03*
D28*
X79400000Y-85250000D03*
X79400000Y-90250000D03*
M02*
