G04 #@! TF.GenerationSoftware,KiCad,Pcbnew,8.0.1*
G04 #@! TF.CreationDate,2024-04-15T15:14:11+08:00*
G04 #@! TF.ProjectId,555Sandbox,35353553-616e-4646-926f-782e6b696361,rev?*
G04 #@! TF.SameCoordinates,Original*
G04 #@! TF.FileFunction,Soldermask,Bot*
G04 #@! TF.FilePolarity,Negative*
%FSLAX46Y46*%
G04 Gerber Fmt 4.6, Leading zero omitted, Abs format (unit mm)*
G04 Created by KiCad (PCBNEW 8.0.1) date 2024-04-15 15:14:11*
%MOMM*%
%LPD*%
G01*
G04 APERTURE LIST*
G04 Aperture macros list*
%AMRoundRect*
0 Rectangle with rounded corners*
0 $1 Rounding radius*
0 $2 $3 $4 $5 $6 $7 $8 $9 X,Y pos of 4 corners*
0 Add a 4 corners polygon primitive as box body*
4,1,4,$2,$3,$4,$5,$6,$7,$8,$9,$2,$3,0*
0 Add four circle primitives for the rounded corners*
1,1,$1+$1,$2,$3*
1,1,$1+$1,$4,$5*
1,1,$1+$1,$6,$7*
1,1,$1+$1,$8,$9*
0 Add four rect primitives between the rounded corners*
20,1,$1+$1,$2,$3,$4,$5,0*
20,1,$1+$1,$4,$5,$6,$7,0*
20,1,$1+$1,$6,$7,$8,$9,0*
20,1,$1+$1,$8,$9,$2,$3,0*%
G04 Aperture macros list end*
%ADD10R,1.600000X1.600000*%
%ADD11O,1.600000X1.600000*%
%ADD12R,1.800000X1.800000*%
%ADD13C,1.800000*%
%ADD14O,2.200000X3.500000*%
%ADD15R,1.500000X2.500000*%
%ADD16O,1.500000X2.500000*%
%ADD17R,1.700000X1.700000*%
%ADD18O,1.700000X1.700000*%
%ADD19C,1.600000*%
%ADD20R,2.200000X2.200000*%
%ADD21O,2.200000X2.200000*%
%ADD22C,2.000000*%
%ADD23RoundRect,0.249999X1.300001X1.300001X-1.300001X1.300001X-1.300001X-1.300001X1.300001X-1.300001X0*%
%ADD24C,3.100000*%
%ADD25C,4.700000*%
%ADD26R,3.000000X3.000000*%
%ADD27C,3.000000*%
G04 APERTURE END LIST*
D10*
X106700000Y-89600000D03*
D11*
X106700000Y-87060000D03*
X106700000Y-84520000D03*
X106700000Y-81980000D03*
X99080000Y-81980000D03*
X99080000Y-84520000D03*
X99080000Y-87060000D03*
X99080000Y-89600000D03*
D12*
X128990000Y-75800000D03*
D13*
X131530000Y-75800000D03*
D14*
X118600000Y-98400000D03*
X126800000Y-98400000D03*
D15*
X120700000Y-98400000D03*
D16*
X122700000Y-98400000D03*
X124700000Y-98400000D03*
D17*
X107220000Y-98900000D03*
D18*
X109760000Y-98900000D03*
D12*
X112300000Y-93800000D03*
D13*
X109760000Y-93800000D03*
D19*
X113200000Y-80880000D03*
D11*
X113200000Y-88500000D03*
D20*
X88090000Y-87100000D03*
D21*
X95710000Y-87100000D03*
D22*
X97150000Y-67750000D03*
X103650000Y-67750000D03*
X97150000Y-72250000D03*
X103650000Y-72250000D03*
D19*
X90900000Y-77500000D03*
X90900000Y-79500000D03*
D12*
X133890000Y-73200000D03*
D13*
X136430000Y-73200000D03*
D19*
X95200000Y-93400000D03*
D11*
X87580000Y-93400000D03*
D19*
X115800000Y-93800000D03*
D11*
X115800000Y-91260000D03*
D12*
X133890000Y-83400000D03*
D13*
X136430000Y-83400000D03*
D10*
X118880000Y-70700000D03*
D11*
X118880000Y-73240000D03*
X118880000Y-75780000D03*
X118880000Y-78320000D03*
X118880000Y-80860000D03*
X118880000Y-83400000D03*
X118880000Y-85940000D03*
X118880000Y-88480000D03*
X118880000Y-91020000D03*
X126500000Y-91020000D03*
X126500000Y-88480000D03*
X126500000Y-85940000D03*
X126500000Y-83400000D03*
X126500000Y-80860000D03*
X126500000Y-78320000D03*
X126500000Y-75780000D03*
X126500000Y-73240000D03*
X126500000Y-70700000D03*
D12*
X133925000Y-88500000D03*
D13*
X136465000Y-88500000D03*
D19*
X108890000Y-78200000D03*
D11*
X116510000Y-78200000D03*
D23*
X114100000Y-68750000D03*
D24*
X108100000Y-68750000D03*
D19*
X88090000Y-83400000D03*
D11*
X95710000Y-83400000D03*
D12*
X128990000Y-80900000D03*
D13*
X131530000Y-80900000D03*
D19*
X96500000Y-80700000D03*
X96500000Y-75700000D03*
D25*
X135750000Y-97500000D03*
D20*
X95710000Y-90300000D03*
D21*
X88090000Y-90300000D03*
D19*
X99000000Y-92700000D03*
X104000000Y-92700000D03*
D12*
X128990000Y-70700000D03*
D13*
X131530000Y-70700000D03*
D19*
X116200000Y-88500000D03*
D11*
X116200000Y-80880000D03*
D12*
X133890000Y-78300000D03*
D13*
X136430000Y-78300000D03*
D25*
X78750000Y-97500000D03*
D12*
X133925000Y-68600000D03*
D13*
X136465000Y-68600000D03*
D12*
X129060000Y-91000000D03*
D13*
X131600000Y-91000000D03*
D19*
X99090000Y-78900000D03*
D11*
X106710000Y-78900000D03*
D12*
X129025000Y-85900000D03*
D13*
X131565000Y-85900000D03*
D26*
X89550000Y-68750000D03*
D27*
X84550000Y-68750000D03*
X79550000Y-68750000D03*
D26*
X79400000Y-80250000D03*
D27*
X79400000Y-85250000D03*
X79400000Y-90250000D03*
M02*
