%TF.GenerationSoftware,KiCad,Pcbnew,8.0.1*%
%TF.CreationDate,2024-04-15T15:14:33+08:00*%
%TF.ProjectId,555Sandbox,35353553-616e-4646-926f-782e6b696361,rev?*%
%TF.SameCoordinates,Original*%
%TF.FileFunction,Drillmap*%
%TF.FilePolarity,Positive*%
%FSLAX45Y45*%
G04 Gerber Fmt 4.5, Leading zero omitted, Abs format (unit mm)*
G04 Created by KiCad (PCBNEW 8.0.1) date 2024-04-15 15:14:33*
%MOMM*%
%LPD*%
G01*
G04 APERTURE LIST*
%ADD10C,0.050000*%
%ADD11C,0.200000*%
%ADD12C,0.100000*%
%ADD13C,0.110000*%
%ADD14C,0.120000*%
%ADD15C,0.150000*%
%ADD16C,0.210000*%
%ADD17C,0.270000*%
G04 APERTURE END LIST*
D10*
X13955000Y-9750000D02*
G75*
G02*
X13580000Y-10125000I-375000J0D01*
G01*
X13955000Y-6805000D02*
X13955000Y-9750000D01*
X7870000Y-10125000D02*
G75*
G02*
X7495000Y-9750000I0J375000D01*
G01*
X13580000Y-6430000D02*
G75*
G02*
X13955000Y-6805000I0J-375000D01*
G01*
X7495000Y-9750000D02*
X7495000Y-6805000D01*
X7495000Y-6805000D02*
G75*
G02*
X7870000Y-6430000I375000J0D01*
G01*
X13580000Y-10125000D02*
X7870000Y-10125000D01*
X7870000Y-6430000D02*
X13580000Y-6430000D01*
D11*
D12*
X8718000Y-9300000D02*
X8798000Y-9380000D01*
X8798000Y-9300000D02*
X8718000Y-9380000D01*
X8769000Y-8300000D02*
X8849000Y-8380000D01*
X8849000Y-8300000D02*
X8769000Y-8380000D01*
X9050000Y-7710000D02*
X9130000Y-7790000D01*
X9130000Y-7710000D02*
X9050000Y-7790000D01*
X9050000Y-7910000D02*
X9130000Y-7990000D01*
X9130000Y-7910000D02*
X9050000Y-7990000D01*
X9480000Y-9300000D02*
X9560000Y-9380000D01*
X9560000Y-9300000D02*
X9480000Y-9380000D01*
X9531000Y-8300000D02*
X9611000Y-8380000D01*
X9611000Y-8300000D02*
X9531000Y-8380000D01*
X9610000Y-7530000D02*
X9690000Y-7610000D01*
X9690000Y-7530000D02*
X9610000Y-7610000D01*
X9610000Y-8030000D02*
X9690000Y-8110000D01*
X9690000Y-8030000D02*
X9610000Y-8110000D01*
X9860000Y-9230000D02*
X9940000Y-9310000D01*
X9940000Y-9230000D02*
X9860000Y-9310000D01*
X9868000Y-8158000D02*
X9948000Y-8238000D01*
X9948000Y-8158000D02*
X9868000Y-8238000D01*
X9868000Y-8412000D02*
X9948000Y-8492000D01*
X9948000Y-8412000D02*
X9868000Y-8492000D01*
X9868000Y-8666000D02*
X9948000Y-8746000D01*
X9948000Y-8666000D02*
X9868000Y-8746000D01*
X9868000Y-8920000D02*
X9948000Y-9000000D01*
X9948000Y-8920000D02*
X9868000Y-9000000D01*
X9869000Y-7850000D02*
X9949000Y-7930000D01*
X9949000Y-7850000D02*
X9869000Y-7930000D01*
X10360000Y-9230000D02*
X10440000Y-9310000D01*
X10440000Y-9230000D02*
X10360000Y-9310000D01*
X10630000Y-8158000D02*
X10710000Y-8238000D01*
X10710000Y-8158000D02*
X10630000Y-8238000D01*
X10630000Y-8412000D02*
X10710000Y-8492000D01*
X10710000Y-8412000D02*
X10630000Y-8492000D01*
X10630000Y-8666000D02*
X10710000Y-8746000D01*
X10710000Y-8666000D02*
X10630000Y-8746000D01*
X10630000Y-8920000D02*
X10710000Y-9000000D01*
X10710000Y-8920000D02*
X10630000Y-9000000D01*
X10631000Y-7850000D02*
X10711000Y-7930000D01*
X10711000Y-7850000D02*
X10631000Y-7930000D01*
X10849000Y-7780000D02*
X10929000Y-7860000D01*
X10929000Y-7780000D02*
X10849000Y-7860000D01*
X11280000Y-8048000D02*
X11360000Y-8128000D01*
X11360000Y-8048000D02*
X11280000Y-8128000D01*
X11280000Y-8810000D02*
X11360000Y-8890000D01*
X11360000Y-8810000D02*
X11280000Y-8890000D01*
X11540000Y-9086000D02*
X11620000Y-9166000D01*
X11620000Y-9086000D02*
X11540000Y-9166000D01*
X11540000Y-9340000D02*
X11620000Y-9420000D01*
X11620000Y-9340000D02*
X11540000Y-9420000D01*
X11580000Y-8048000D02*
X11660000Y-8128000D01*
X11660000Y-8048000D02*
X11580000Y-8128000D01*
X11580000Y-8810000D02*
X11660000Y-8890000D01*
X11660000Y-8810000D02*
X11580000Y-8890000D01*
X11611000Y-7780000D02*
X11691000Y-7860000D01*
X11691000Y-7780000D02*
X11611000Y-7860000D01*
X11848000Y-7030000D02*
X11928000Y-7110000D01*
X11928000Y-7030000D02*
X11848000Y-7110000D01*
X11848000Y-7284000D02*
X11928000Y-7364000D01*
X11928000Y-7284000D02*
X11848000Y-7364000D01*
X11848000Y-7538000D02*
X11928000Y-7618000D01*
X11928000Y-7538000D02*
X11848000Y-7618000D01*
X11848000Y-7792000D02*
X11928000Y-7872000D01*
X11928000Y-7792000D02*
X11848000Y-7872000D01*
X11848000Y-8046000D02*
X11928000Y-8126000D01*
X11928000Y-8046000D02*
X11848000Y-8126000D01*
X11848000Y-8300000D02*
X11928000Y-8380000D01*
X11928000Y-8300000D02*
X11848000Y-8380000D01*
X11848000Y-8554000D02*
X11928000Y-8634000D01*
X11928000Y-8554000D02*
X11848000Y-8634000D01*
X11848000Y-8808000D02*
X11928000Y-8888000D01*
X11928000Y-8808000D02*
X11848000Y-8888000D01*
X11848000Y-9062000D02*
X11928000Y-9142000D01*
X11928000Y-9062000D02*
X11848000Y-9142000D01*
X12610000Y-7030000D02*
X12690000Y-7110000D01*
X12690000Y-7030000D02*
X12610000Y-7110000D01*
X12610000Y-7284000D02*
X12690000Y-7364000D01*
X12690000Y-7284000D02*
X12610000Y-7364000D01*
X12610000Y-7538000D02*
X12690000Y-7618000D01*
X12690000Y-7538000D02*
X12610000Y-7618000D01*
X12610000Y-7792000D02*
X12690000Y-7872000D01*
X12690000Y-7792000D02*
X12610000Y-7872000D01*
X12610000Y-8046000D02*
X12690000Y-8126000D01*
X12690000Y-8046000D02*
X12610000Y-8126000D01*
X12610000Y-8300000D02*
X12690000Y-8380000D01*
X12690000Y-8300000D02*
X12610000Y-8380000D01*
X12610000Y-8554000D02*
X12690000Y-8634000D01*
X12690000Y-8554000D02*
X12610000Y-8634000D01*
X12610000Y-8808000D02*
X12690000Y-8888000D01*
X12690000Y-8808000D02*
X12610000Y-8888000D01*
X12610000Y-9062000D02*
X12690000Y-9142000D01*
X12690000Y-9062000D02*
X12610000Y-9142000D01*
X11021000Y-9380000D02*
G75*
G02*
X10931000Y-9380000I-45000J0D01*
G01*
X10931000Y-9380000D02*
G75*
G02*
X11021000Y-9380000I45000J0D01*
G01*
X11275000Y-9380000D02*
G75*
G02*
X11185000Y-9380000I-45000J0D01*
G01*
X11185000Y-9380000D02*
G75*
G02*
X11275000Y-9380000I45000J0D01*
G01*
X12115000Y-9840000D02*
G75*
G02*
X12025000Y-9840000I-45000J0D01*
G01*
X12025000Y-9840000D02*
G75*
G02*
X12115000Y-9840000I45000J0D01*
G01*
X12315000Y-9840000D02*
G75*
G02*
X12225000Y-9840000I-45000J0D01*
G01*
X12225000Y-9840000D02*
G75*
G02*
X12315000Y-9840000I45000J0D01*
G01*
X12515000Y-9840000D02*
G75*
G02*
X12425000Y-9840000I-45000J0D01*
G01*
X12425000Y-9840000D02*
G75*
G02*
X12515000Y-9840000I45000J0D01*
G01*
X12944000Y-7070000D02*
G75*
G02*
X12854000Y-7070000I-45000J0D01*
G01*
X12854000Y-7070000D02*
G75*
G02*
X12944000Y-7070000I45000J0D01*
G01*
X12944000Y-7580000D02*
G75*
G02*
X12854000Y-7580000I-45000J0D01*
G01*
X12854000Y-7580000D02*
G75*
G02*
X12944000Y-7580000I45000J0D01*
G01*
X12944000Y-8090000D02*
G75*
G02*
X12854000Y-8090000I-45000J0D01*
G01*
X12854000Y-8090000D02*
G75*
G02*
X12944000Y-8090000I45000J0D01*
G01*
X12947500Y-8590000D02*
G75*
G02*
X12857500Y-8590000I-45000J0D01*
G01*
X12857500Y-8590000D02*
G75*
G02*
X12947500Y-8590000I45000J0D01*
G01*
X12951000Y-9100000D02*
G75*
G02*
X12861000Y-9100000I-45000J0D01*
G01*
X12861000Y-9100000D02*
G75*
G02*
X12951000Y-9100000I45000J0D01*
G01*
X13198000Y-7070000D02*
G75*
G02*
X13108000Y-7070000I-45000J0D01*
G01*
X13108000Y-7070000D02*
G75*
G02*
X13198000Y-7070000I45000J0D01*
G01*
X13198000Y-7580000D02*
G75*
G02*
X13108000Y-7580000I-45000J0D01*
G01*
X13108000Y-7580000D02*
G75*
G02*
X13198000Y-7580000I45000J0D01*
G01*
X13198000Y-8090000D02*
G75*
G02*
X13108000Y-8090000I-45000J0D01*
G01*
X13108000Y-8090000D02*
G75*
G02*
X13198000Y-8090000I45000J0D01*
G01*
X13201500Y-8590000D02*
G75*
G02*
X13111500Y-8590000I-45000J0D01*
G01*
X13111500Y-8590000D02*
G75*
G02*
X13201500Y-8590000I45000J0D01*
G01*
X13205000Y-9100000D02*
G75*
G02*
X13115000Y-9100000I-45000J0D01*
G01*
X13115000Y-9100000D02*
G75*
G02*
X13205000Y-9100000I45000J0D01*
G01*
X13434000Y-7320000D02*
G75*
G02*
X13344000Y-7320000I-45000J0D01*
G01*
X13344000Y-7320000D02*
G75*
G02*
X13434000Y-7320000I45000J0D01*
G01*
X13434000Y-7830000D02*
G75*
G02*
X13344000Y-7830000I-45000J0D01*
G01*
X13344000Y-7830000D02*
G75*
G02*
X13434000Y-7830000I45000J0D01*
G01*
X13434000Y-8340000D02*
G75*
G02*
X13344000Y-8340000I-45000J0D01*
G01*
X13344000Y-8340000D02*
G75*
G02*
X13434000Y-8340000I45000J0D01*
G01*
X13437500Y-6860000D02*
G75*
G02*
X13347500Y-6860000I-45000J0D01*
G01*
X13347500Y-6860000D02*
G75*
G02*
X13437500Y-6860000I45000J0D01*
G01*
X13437500Y-8850000D02*
G75*
G02*
X13347500Y-8850000I-45000J0D01*
G01*
X13347500Y-8850000D02*
G75*
G02*
X13437500Y-8850000I45000J0D01*
G01*
X13688000Y-7320000D02*
G75*
G02*
X13598000Y-7320000I-45000J0D01*
G01*
X13598000Y-7320000D02*
G75*
G02*
X13688000Y-7320000I45000J0D01*
G01*
X13688000Y-7830000D02*
G75*
G02*
X13598000Y-7830000I-45000J0D01*
G01*
X13598000Y-7830000D02*
G75*
G02*
X13688000Y-7830000I45000J0D01*
G01*
X13688000Y-8340000D02*
G75*
G02*
X13598000Y-8340000I-45000J0D01*
G01*
X13598000Y-8340000D02*
G75*
G02*
X13688000Y-8340000I45000J0D01*
G01*
X13691500Y-6860000D02*
G75*
G02*
X13601500Y-6860000I-45000J0D01*
G01*
X13601500Y-6860000D02*
G75*
G02*
X13691500Y-6860000I45000J0D01*
G01*
X13691500Y-8850000D02*
G75*
G02*
X13601500Y-8850000I-45000J0D01*
G01*
X13601500Y-8850000D02*
G75*
G02*
X13691500Y-8850000I45000J0D01*
G01*
X10722000Y-9840000D02*
X10722000Y-9940000D01*
X10672000Y-9890000D02*
X10772000Y-9890000D01*
X10976000Y-9840000D02*
X10976000Y-9940000D01*
X10926000Y-9890000D02*
X11026000Y-9890000D01*
D13*
X8847891Y-8748891D02*
X8847891Y-8671109D01*
X8770109Y-8671109D01*
X8770109Y-8748891D01*
X8847891Y-8748891D01*
X8847891Y-9068891D02*
X8847891Y-8991109D01*
X8770109Y-8991109D01*
X8770109Y-9068891D01*
X8847891Y-9068891D01*
X9609891Y-8748891D02*
X9609891Y-8671109D01*
X9532109Y-8671109D01*
X9532109Y-8748891D01*
X9609891Y-8748891D01*
X9609891Y-9068891D02*
X9609891Y-8991109D01*
X9532109Y-8991109D01*
X9532109Y-9068891D01*
X9609891Y-9068891D01*
X9753891Y-6813891D02*
X9753891Y-6736109D01*
X9676109Y-6736109D01*
X9676109Y-6813891D01*
X9753891Y-6813891D01*
X9753891Y-7263891D02*
X9753891Y-7186109D01*
X9676109Y-7186109D01*
X9676109Y-7263891D01*
X9753891Y-7263891D01*
X10403891Y-6813891D02*
X10403891Y-6736109D01*
X10326109Y-6736109D01*
X10326109Y-6813891D01*
X10403891Y-6813891D01*
X10403891Y-7263891D02*
X10403891Y-7186109D01*
X10326109Y-7186109D01*
X10326109Y-7263891D01*
X10403891Y-7263891D01*
D14*
X7940000Y-8085000D02*
X8000000Y-8025000D01*
X7940000Y-7965000D01*
X7880000Y-8025000D01*
X7940000Y-8085000D01*
X7940000Y-8585000D02*
X8000000Y-8525000D01*
X7940000Y-8465000D01*
X7880000Y-8525000D01*
X7940000Y-8585000D01*
X7940000Y-9085000D02*
X8000000Y-9025000D01*
X7940000Y-8965000D01*
X7880000Y-9025000D01*
X7940000Y-9085000D01*
X7955000Y-6935000D02*
X8015000Y-6875000D01*
X7955000Y-6815000D01*
X7895000Y-6875000D01*
X7955000Y-6935000D01*
X8455000Y-6935000D02*
X8515000Y-6875000D01*
X8455000Y-6815000D01*
X8395000Y-6875000D01*
X8455000Y-6935000D01*
X8955000Y-6935000D02*
X9015000Y-6875000D01*
X8955000Y-6815000D01*
X8895000Y-6875000D01*
X8955000Y-6935000D01*
D15*
X11785000Y-9765000D02*
X11935000Y-9915000D01*
X11935000Y-9765000D02*
X11785000Y-9915000D01*
X11935000Y-9840000D02*
G75*
G02*
X11785000Y-9840000I-75000J0D01*
G01*
X11785000Y-9840000D02*
G75*
G02*
X11935000Y-9840000I75000J0D01*
G01*
X12605000Y-9765000D02*
X12755000Y-9915000D01*
X12755000Y-9765000D02*
X12605000Y-9915000D01*
X12755000Y-9840000D02*
G75*
G02*
X12605000Y-9840000I-75000J0D01*
G01*
X12605000Y-9840000D02*
G75*
G02*
X12755000Y-9840000I75000J0D01*
G01*
D16*
X10705000Y-6770000D02*
X10915000Y-6980000D01*
X10915000Y-6770000D02*
X10705000Y-6980000D01*
X10810000Y-6770000D02*
X10810000Y-6980000D01*
X10705000Y-6875000D02*
X10915000Y-6875000D01*
X11305000Y-6770000D02*
X11515000Y-6980000D01*
X11515000Y-6770000D02*
X11305000Y-6980000D01*
X11410000Y-6770000D02*
X11410000Y-6980000D01*
X11305000Y-6875000D02*
X11515000Y-6875000D01*
D17*
X7740000Y-9615000D02*
X8010000Y-9885000D01*
X8010000Y-9615000D02*
X7740000Y-9885000D01*
X7970460Y-9845460D02*
X7970460Y-9654540D01*
X7779540Y-9654540D01*
X7779540Y-9845460D01*
X7970460Y-9845460D01*
X13440000Y-9615000D02*
X13710000Y-9885000D01*
X13710000Y-9615000D02*
X13440000Y-9885000D01*
X13670460Y-9845460D02*
X13670460Y-9654540D01*
X13479540Y-9654540D01*
X13479540Y-9845460D01*
X13670460Y-9845460D01*
D11*
X7753277Y-10438984D02*
X7753277Y-10238984D01*
X7753277Y-10238984D02*
X7800896Y-10238984D01*
X7800896Y-10238984D02*
X7829467Y-10248508D01*
X7829467Y-10248508D02*
X7848515Y-10267555D01*
X7848515Y-10267555D02*
X7858039Y-10286603D01*
X7858039Y-10286603D02*
X7867562Y-10324698D01*
X7867562Y-10324698D02*
X7867562Y-10353270D01*
X7867562Y-10353270D02*
X7858039Y-10391365D01*
X7858039Y-10391365D02*
X7848515Y-10410412D01*
X7848515Y-10410412D02*
X7829467Y-10429460D01*
X7829467Y-10429460D02*
X7800896Y-10438984D01*
X7800896Y-10438984D02*
X7753277Y-10438984D01*
X7953277Y-10438984D02*
X7953277Y-10305650D01*
X7953277Y-10343746D02*
X7962801Y-10324698D01*
X7962801Y-10324698D02*
X7972324Y-10315174D01*
X7972324Y-10315174D02*
X7991372Y-10305650D01*
X7991372Y-10305650D02*
X8010420Y-10305650D01*
X8077086Y-10438984D02*
X8077086Y-10305650D01*
X8077086Y-10238984D02*
X8067562Y-10248508D01*
X8067562Y-10248508D02*
X8077086Y-10258031D01*
X8077086Y-10258031D02*
X8086610Y-10248508D01*
X8086610Y-10248508D02*
X8077086Y-10238984D01*
X8077086Y-10238984D02*
X8077086Y-10258031D01*
X8200896Y-10438984D02*
X8181848Y-10429460D01*
X8181848Y-10429460D02*
X8172324Y-10410412D01*
X8172324Y-10410412D02*
X8172324Y-10238984D01*
X8305658Y-10438984D02*
X8286610Y-10429460D01*
X8286610Y-10429460D02*
X8277086Y-10410412D01*
X8277086Y-10410412D02*
X8277086Y-10238984D01*
X8534229Y-10438984D02*
X8534229Y-10238984D01*
X8534229Y-10238984D02*
X8600896Y-10381841D01*
X8600896Y-10381841D02*
X8667563Y-10238984D01*
X8667563Y-10238984D02*
X8667563Y-10438984D01*
X8848515Y-10438984D02*
X8848515Y-10334222D01*
X8848515Y-10334222D02*
X8838991Y-10315174D01*
X8838991Y-10315174D02*
X8819944Y-10305650D01*
X8819944Y-10305650D02*
X8781848Y-10305650D01*
X8781848Y-10305650D02*
X8762801Y-10315174D01*
X8848515Y-10429460D02*
X8829467Y-10438984D01*
X8829467Y-10438984D02*
X8781848Y-10438984D01*
X8781848Y-10438984D02*
X8762801Y-10429460D01*
X8762801Y-10429460D02*
X8753277Y-10410412D01*
X8753277Y-10410412D02*
X8753277Y-10391365D01*
X8753277Y-10391365D02*
X8762801Y-10372317D01*
X8762801Y-10372317D02*
X8781848Y-10362793D01*
X8781848Y-10362793D02*
X8829467Y-10362793D01*
X8829467Y-10362793D02*
X8848515Y-10353270D01*
X8943753Y-10305650D02*
X8943753Y-10505650D01*
X8943753Y-10315174D02*
X8962801Y-10305650D01*
X8962801Y-10305650D02*
X9000896Y-10305650D01*
X9000896Y-10305650D02*
X9019944Y-10315174D01*
X9019944Y-10315174D02*
X9029467Y-10324698D01*
X9029467Y-10324698D02*
X9038991Y-10343746D01*
X9038991Y-10343746D02*
X9038991Y-10400889D01*
X9038991Y-10400889D02*
X9029467Y-10419936D01*
X9029467Y-10419936D02*
X9019944Y-10429460D01*
X9019944Y-10429460D02*
X9000896Y-10438984D01*
X9000896Y-10438984D02*
X8962801Y-10438984D01*
X8962801Y-10438984D02*
X8943753Y-10429460D01*
X9124705Y-10419936D02*
X9134229Y-10429460D01*
X9134229Y-10429460D02*
X9124705Y-10438984D01*
X9124705Y-10438984D02*
X9115182Y-10429460D01*
X9115182Y-10429460D02*
X9124705Y-10419936D01*
X9124705Y-10419936D02*
X9124705Y-10438984D01*
X9124705Y-10315174D02*
X9134229Y-10324698D01*
X9134229Y-10324698D02*
X9124705Y-10334222D01*
X9124705Y-10334222D02*
X9115182Y-10324698D01*
X9115182Y-10324698D02*
X9124705Y-10315174D01*
X9124705Y-10315174D02*
X9124705Y-10334222D01*
D12*
X7412500Y-10727500D02*
X7492500Y-10807500D01*
X7492500Y-10727500D02*
X7412500Y-10807500D01*
D11*
X7791372Y-10658984D02*
X7810420Y-10658984D01*
X7810420Y-10658984D02*
X7829467Y-10668508D01*
X7829467Y-10668508D02*
X7838991Y-10678031D01*
X7838991Y-10678031D02*
X7848515Y-10697079D01*
X7848515Y-10697079D02*
X7858039Y-10735174D01*
X7858039Y-10735174D02*
X7858039Y-10782793D01*
X7858039Y-10782793D02*
X7848515Y-10820889D01*
X7848515Y-10820889D02*
X7838991Y-10839936D01*
X7838991Y-10839936D02*
X7829467Y-10849460D01*
X7829467Y-10849460D02*
X7810420Y-10858984D01*
X7810420Y-10858984D02*
X7791372Y-10858984D01*
X7791372Y-10858984D02*
X7772324Y-10849460D01*
X7772324Y-10849460D02*
X7762801Y-10839936D01*
X7762801Y-10839936D02*
X7753277Y-10820889D01*
X7753277Y-10820889D02*
X7743753Y-10782793D01*
X7743753Y-10782793D02*
X7743753Y-10735174D01*
X7743753Y-10735174D02*
X7753277Y-10697079D01*
X7753277Y-10697079D02*
X7762801Y-10678031D01*
X7762801Y-10678031D02*
X7772324Y-10668508D01*
X7772324Y-10668508D02*
X7791372Y-10658984D01*
X7943753Y-10839936D02*
X7953277Y-10849460D01*
X7953277Y-10849460D02*
X7943753Y-10858984D01*
X7943753Y-10858984D02*
X7934229Y-10849460D01*
X7934229Y-10849460D02*
X7943753Y-10839936D01*
X7943753Y-10839936D02*
X7943753Y-10858984D01*
X8067562Y-10744698D02*
X8048515Y-10735174D01*
X8048515Y-10735174D02*
X8038991Y-10725650D01*
X8038991Y-10725650D02*
X8029467Y-10706603D01*
X8029467Y-10706603D02*
X8029467Y-10697079D01*
X8029467Y-10697079D02*
X8038991Y-10678031D01*
X8038991Y-10678031D02*
X8048515Y-10668508D01*
X8048515Y-10668508D02*
X8067562Y-10658984D01*
X8067562Y-10658984D02*
X8105658Y-10658984D01*
X8105658Y-10658984D02*
X8124705Y-10668508D01*
X8124705Y-10668508D02*
X8134229Y-10678031D01*
X8134229Y-10678031D02*
X8143753Y-10697079D01*
X8143753Y-10697079D02*
X8143753Y-10706603D01*
X8143753Y-10706603D02*
X8134229Y-10725650D01*
X8134229Y-10725650D02*
X8124705Y-10735174D01*
X8124705Y-10735174D02*
X8105658Y-10744698D01*
X8105658Y-10744698D02*
X8067562Y-10744698D01*
X8067562Y-10744698D02*
X8048515Y-10754222D01*
X8048515Y-10754222D02*
X8038991Y-10763746D01*
X8038991Y-10763746D02*
X8029467Y-10782793D01*
X8029467Y-10782793D02*
X8029467Y-10820889D01*
X8029467Y-10820889D02*
X8038991Y-10839936D01*
X8038991Y-10839936D02*
X8048515Y-10849460D01*
X8048515Y-10849460D02*
X8067562Y-10858984D01*
X8067562Y-10858984D02*
X8105658Y-10858984D01*
X8105658Y-10858984D02*
X8124705Y-10849460D01*
X8124705Y-10849460D02*
X8134229Y-10839936D01*
X8134229Y-10839936D02*
X8143753Y-10820889D01*
X8143753Y-10820889D02*
X8143753Y-10782793D01*
X8143753Y-10782793D02*
X8134229Y-10763746D01*
X8134229Y-10763746D02*
X8124705Y-10754222D01*
X8124705Y-10754222D02*
X8105658Y-10744698D01*
X8267562Y-10658984D02*
X8286610Y-10658984D01*
X8286610Y-10658984D02*
X8305658Y-10668508D01*
X8305658Y-10668508D02*
X8315182Y-10678031D01*
X8315182Y-10678031D02*
X8324705Y-10697079D01*
X8324705Y-10697079D02*
X8334229Y-10735174D01*
X8334229Y-10735174D02*
X8334229Y-10782793D01*
X8334229Y-10782793D02*
X8324705Y-10820889D01*
X8324705Y-10820889D02*
X8315182Y-10839936D01*
X8315182Y-10839936D02*
X8305658Y-10849460D01*
X8305658Y-10849460D02*
X8286610Y-10858984D01*
X8286610Y-10858984D02*
X8267562Y-10858984D01*
X8267562Y-10858984D02*
X8248515Y-10849460D01*
X8248515Y-10849460D02*
X8238991Y-10839936D01*
X8238991Y-10839936D02*
X8229467Y-10820889D01*
X8229467Y-10820889D02*
X8219943Y-10782793D01*
X8219943Y-10782793D02*
X8219943Y-10735174D01*
X8219943Y-10735174D02*
X8229467Y-10697079D01*
X8229467Y-10697079D02*
X8238991Y-10678031D01*
X8238991Y-10678031D02*
X8248515Y-10668508D01*
X8248515Y-10668508D02*
X8267562Y-10658984D01*
X8458039Y-10658984D02*
X8477086Y-10658984D01*
X8477086Y-10658984D02*
X8496134Y-10668508D01*
X8496134Y-10668508D02*
X8505658Y-10678031D01*
X8505658Y-10678031D02*
X8515182Y-10697079D01*
X8515182Y-10697079D02*
X8524705Y-10735174D01*
X8524705Y-10735174D02*
X8524705Y-10782793D01*
X8524705Y-10782793D02*
X8515182Y-10820889D01*
X8515182Y-10820889D02*
X8505658Y-10839936D01*
X8505658Y-10839936D02*
X8496134Y-10849460D01*
X8496134Y-10849460D02*
X8477086Y-10858984D01*
X8477086Y-10858984D02*
X8458039Y-10858984D01*
X8458039Y-10858984D02*
X8438991Y-10849460D01*
X8438991Y-10849460D02*
X8429467Y-10839936D01*
X8429467Y-10839936D02*
X8419944Y-10820889D01*
X8419944Y-10820889D02*
X8410420Y-10782793D01*
X8410420Y-10782793D02*
X8410420Y-10735174D01*
X8410420Y-10735174D02*
X8419944Y-10697079D01*
X8419944Y-10697079D02*
X8429467Y-10678031D01*
X8429467Y-10678031D02*
X8438991Y-10668508D01*
X8438991Y-10668508D02*
X8458039Y-10658984D01*
X8610420Y-10858984D02*
X8610420Y-10725650D01*
X8610420Y-10744698D02*
X8619944Y-10735174D01*
X8619944Y-10735174D02*
X8638991Y-10725650D01*
X8638991Y-10725650D02*
X8667563Y-10725650D01*
X8667563Y-10725650D02*
X8686610Y-10735174D01*
X8686610Y-10735174D02*
X8696134Y-10754222D01*
X8696134Y-10754222D02*
X8696134Y-10858984D01*
X8696134Y-10754222D02*
X8705658Y-10735174D01*
X8705658Y-10735174D02*
X8724705Y-10725650D01*
X8724705Y-10725650D02*
X8753277Y-10725650D01*
X8753277Y-10725650D02*
X8772325Y-10735174D01*
X8772325Y-10735174D02*
X8781848Y-10754222D01*
X8781848Y-10754222D02*
X8781848Y-10858984D01*
X8877086Y-10858984D02*
X8877086Y-10725650D01*
X8877086Y-10744698D02*
X8886610Y-10735174D01*
X8886610Y-10735174D02*
X8905658Y-10725650D01*
X8905658Y-10725650D02*
X8934229Y-10725650D01*
X8934229Y-10725650D02*
X8953277Y-10735174D01*
X8953277Y-10735174D02*
X8962801Y-10754222D01*
X8962801Y-10754222D02*
X8962801Y-10858984D01*
X8962801Y-10754222D02*
X8972325Y-10735174D01*
X8972325Y-10735174D02*
X8991372Y-10725650D01*
X8991372Y-10725650D02*
X9019944Y-10725650D01*
X9019944Y-10725650D02*
X9038991Y-10735174D01*
X9038991Y-10735174D02*
X9048515Y-10754222D01*
X9048515Y-10754222D02*
X9048515Y-10858984D01*
X9438991Y-10649460D02*
X9267563Y-10906603D01*
X9696134Y-10658984D02*
X9715182Y-10658984D01*
X9715182Y-10658984D02*
X9734229Y-10668508D01*
X9734229Y-10668508D02*
X9743753Y-10678031D01*
X9743753Y-10678031D02*
X9753277Y-10697079D01*
X9753277Y-10697079D02*
X9762801Y-10735174D01*
X9762801Y-10735174D02*
X9762801Y-10782793D01*
X9762801Y-10782793D02*
X9753277Y-10820889D01*
X9753277Y-10820889D02*
X9743753Y-10839936D01*
X9743753Y-10839936D02*
X9734229Y-10849460D01*
X9734229Y-10849460D02*
X9715182Y-10858984D01*
X9715182Y-10858984D02*
X9696134Y-10858984D01*
X9696134Y-10858984D02*
X9677087Y-10849460D01*
X9677087Y-10849460D02*
X9667563Y-10839936D01*
X9667563Y-10839936D02*
X9658039Y-10820889D01*
X9658039Y-10820889D02*
X9648515Y-10782793D01*
X9648515Y-10782793D02*
X9648515Y-10735174D01*
X9648515Y-10735174D02*
X9658039Y-10697079D01*
X9658039Y-10697079D02*
X9667563Y-10678031D01*
X9667563Y-10678031D02*
X9677087Y-10668508D01*
X9677087Y-10668508D02*
X9696134Y-10658984D01*
X9848515Y-10839936D02*
X9858039Y-10849460D01*
X9858039Y-10849460D02*
X9848515Y-10858984D01*
X9848515Y-10858984D02*
X9838991Y-10849460D01*
X9838991Y-10849460D02*
X9848515Y-10839936D01*
X9848515Y-10839936D02*
X9848515Y-10858984D01*
X9981848Y-10658984D02*
X10000896Y-10658984D01*
X10000896Y-10658984D02*
X10019944Y-10668508D01*
X10019944Y-10668508D02*
X10029468Y-10678031D01*
X10029468Y-10678031D02*
X10038991Y-10697079D01*
X10038991Y-10697079D02*
X10048515Y-10735174D01*
X10048515Y-10735174D02*
X10048515Y-10782793D01*
X10048515Y-10782793D02*
X10038991Y-10820889D01*
X10038991Y-10820889D02*
X10029468Y-10839936D01*
X10029468Y-10839936D02*
X10019944Y-10849460D01*
X10019944Y-10849460D02*
X10000896Y-10858984D01*
X10000896Y-10858984D02*
X9981848Y-10858984D01*
X9981848Y-10858984D02*
X9962801Y-10849460D01*
X9962801Y-10849460D02*
X9953277Y-10839936D01*
X9953277Y-10839936D02*
X9943753Y-10820889D01*
X9943753Y-10820889D02*
X9934229Y-10782793D01*
X9934229Y-10782793D02*
X9934229Y-10735174D01*
X9934229Y-10735174D02*
X9943753Y-10697079D01*
X9943753Y-10697079D02*
X9953277Y-10678031D01*
X9953277Y-10678031D02*
X9962801Y-10668508D01*
X9962801Y-10668508D02*
X9981848Y-10658984D01*
X10115182Y-10658984D02*
X10238991Y-10658984D01*
X10238991Y-10658984D02*
X10172325Y-10735174D01*
X10172325Y-10735174D02*
X10200896Y-10735174D01*
X10200896Y-10735174D02*
X10219944Y-10744698D01*
X10219944Y-10744698D02*
X10229468Y-10754222D01*
X10229468Y-10754222D02*
X10238991Y-10773270D01*
X10238991Y-10773270D02*
X10238991Y-10820889D01*
X10238991Y-10820889D02*
X10229468Y-10839936D01*
X10229468Y-10839936D02*
X10219944Y-10849460D01*
X10219944Y-10849460D02*
X10200896Y-10858984D01*
X10200896Y-10858984D02*
X10143753Y-10858984D01*
X10143753Y-10858984D02*
X10124706Y-10849460D01*
X10124706Y-10849460D02*
X10115182Y-10839936D01*
X10429468Y-10858984D02*
X10315182Y-10858984D01*
X10372325Y-10858984D02*
X10372325Y-10658984D01*
X10372325Y-10658984D02*
X10353277Y-10687555D01*
X10353277Y-10687555D02*
X10334229Y-10706603D01*
X10334229Y-10706603D02*
X10315182Y-10716127D01*
X10610420Y-10658984D02*
X10515182Y-10658984D01*
X10515182Y-10658984D02*
X10505658Y-10754222D01*
X10505658Y-10754222D02*
X10515182Y-10744698D01*
X10515182Y-10744698D02*
X10534229Y-10735174D01*
X10534229Y-10735174D02*
X10581849Y-10735174D01*
X10581849Y-10735174D02*
X10600896Y-10744698D01*
X10600896Y-10744698D02*
X10610420Y-10754222D01*
X10610420Y-10754222D02*
X10619944Y-10773270D01*
X10619944Y-10773270D02*
X10619944Y-10820889D01*
X10619944Y-10820889D02*
X10610420Y-10839936D01*
X10610420Y-10839936D02*
X10600896Y-10849460D01*
X10600896Y-10849460D02*
X10581849Y-10858984D01*
X10581849Y-10858984D02*
X10534229Y-10858984D01*
X10534229Y-10858984D02*
X10515182Y-10849460D01*
X10515182Y-10849460D02*
X10505658Y-10839936D01*
X10696134Y-10658984D02*
X10696134Y-10697079D01*
X10772325Y-10658984D02*
X10772325Y-10697079D01*
X11067563Y-10935174D02*
X11058039Y-10925650D01*
X11058039Y-10925650D02*
X11038991Y-10897079D01*
X11038991Y-10897079D02*
X11029468Y-10878031D01*
X11029468Y-10878031D02*
X11019944Y-10849460D01*
X11019944Y-10849460D02*
X11010420Y-10801841D01*
X11010420Y-10801841D02*
X11010420Y-10763746D01*
X11010420Y-10763746D02*
X11019944Y-10716127D01*
X11019944Y-10716127D02*
X11029468Y-10687555D01*
X11029468Y-10687555D02*
X11038991Y-10668508D01*
X11038991Y-10668508D02*
X11058039Y-10639936D01*
X11058039Y-10639936D02*
X11067563Y-10630412D01*
X11229468Y-10725650D02*
X11229468Y-10858984D01*
X11181849Y-10649460D02*
X11134230Y-10792317D01*
X11134230Y-10792317D02*
X11258039Y-10792317D01*
X11419944Y-10658984D02*
X11381848Y-10658984D01*
X11381848Y-10658984D02*
X11362801Y-10668508D01*
X11362801Y-10668508D02*
X11353277Y-10678031D01*
X11353277Y-10678031D02*
X11334229Y-10706603D01*
X11334229Y-10706603D02*
X11324706Y-10744698D01*
X11324706Y-10744698D02*
X11324706Y-10820889D01*
X11324706Y-10820889D02*
X11334229Y-10839936D01*
X11334229Y-10839936D02*
X11343753Y-10849460D01*
X11343753Y-10849460D02*
X11362801Y-10858984D01*
X11362801Y-10858984D02*
X11400896Y-10858984D01*
X11400896Y-10858984D02*
X11419944Y-10849460D01*
X11419944Y-10849460D02*
X11429468Y-10839936D01*
X11429468Y-10839936D02*
X11438991Y-10820889D01*
X11438991Y-10820889D02*
X11438991Y-10773270D01*
X11438991Y-10773270D02*
X11429468Y-10754222D01*
X11429468Y-10754222D02*
X11419944Y-10744698D01*
X11419944Y-10744698D02*
X11400896Y-10735174D01*
X11400896Y-10735174D02*
X11362801Y-10735174D01*
X11362801Y-10735174D02*
X11343753Y-10744698D01*
X11343753Y-10744698D02*
X11334229Y-10754222D01*
X11334229Y-10754222D02*
X11324706Y-10773270D01*
X11677087Y-10858984D02*
X11677087Y-10658984D01*
X11762801Y-10858984D02*
X11762801Y-10754222D01*
X11762801Y-10754222D02*
X11753277Y-10735174D01*
X11753277Y-10735174D02*
X11734230Y-10725650D01*
X11734230Y-10725650D02*
X11705658Y-10725650D01*
X11705658Y-10725650D02*
X11686610Y-10735174D01*
X11686610Y-10735174D02*
X11677087Y-10744698D01*
X11886610Y-10858984D02*
X11867563Y-10849460D01*
X11867563Y-10849460D02*
X11858039Y-10839936D01*
X11858039Y-10839936D02*
X11848515Y-10820889D01*
X11848515Y-10820889D02*
X11848515Y-10763746D01*
X11848515Y-10763746D02*
X11858039Y-10744698D01*
X11858039Y-10744698D02*
X11867563Y-10735174D01*
X11867563Y-10735174D02*
X11886610Y-10725650D01*
X11886610Y-10725650D02*
X11915182Y-10725650D01*
X11915182Y-10725650D02*
X11934230Y-10735174D01*
X11934230Y-10735174D02*
X11943753Y-10744698D01*
X11943753Y-10744698D02*
X11953277Y-10763746D01*
X11953277Y-10763746D02*
X11953277Y-10820889D01*
X11953277Y-10820889D02*
X11943753Y-10839936D01*
X11943753Y-10839936D02*
X11934230Y-10849460D01*
X11934230Y-10849460D02*
X11915182Y-10858984D01*
X11915182Y-10858984D02*
X11886610Y-10858984D01*
X12067563Y-10858984D02*
X12048515Y-10849460D01*
X12048515Y-10849460D02*
X12038991Y-10830412D01*
X12038991Y-10830412D02*
X12038991Y-10658984D01*
X12219944Y-10849460D02*
X12200896Y-10858984D01*
X12200896Y-10858984D02*
X12162801Y-10858984D01*
X12162801Y-10858984D02*
X12143753Y-10849460D01*
X12143753Y-10849460D02*
X12134230Y-10830412D01*
X12134230Y-10830412D02*
X12134230Y-10754222D01*
X12134230Y-10754222D02*
X12143753Y-10735174D01*
X12143753Y-10735174D02*
X12162801Y-10725650D01*
X12162801Y-10725650D02*
X12200896Y-10725650D01*
X12200896Y-10725650D02*
X12219944Y-10735174D01*
X12219944Y-10735174D02*
X12229468Y-10754222D01*
X12229468Y-10754222D02*
X12229468Y-10773270D01*
X12229468Y-10773270D02*
X12134230Y-10792317D01*
X12305658Y-10849460D02*
X12324706Y-10858984D01*
X12324706Y-10858984D02*
X12362801Y-10858984D01*
X12362801Y-10858984D02*
X12381849Y-10849460D01*
X12381849Y-10849460D02*
X12391372Y-10830412D01*
X12391372Y-10830412D02*
X12391372Y-10820889D01*
X12391372Y-10820889D02*
X12381849Y-10801841D01*
X12381849Y-10801841D02*
X12362801Y-10792317D01*
X12362801Y-10792317D02*
X12334230Y-10792317D01*
X12334230Y-10792317D02*
X12315182Y-10782793D01*
X12315182Y-10782793D02*
X12305658Y-10763746D01*
X12305658Y-10763746D02*
X12305658Y-10754222D01*
X12305658Y-10754222D02*
X12315182Y-10735174D01*
X12315182Y-10735174D02*
X12334230Y-10725650D01*
X12334230Y-10725650D02*
X12362801Y-10725650D01*
X12362801Y-10725650D02*
X12381849Y-10735174D01*
X12458039Y-10935174D02*
X12467563Y-10925650D01*
X12467563Y-10925650D02*
X12486611Y-10897079D01*
X12486611Y-10897079D02*
X12496134Y-10878031D01*
X12496134Y-10878031D02*
X12505658Y-10849460D01*
X12505658Y-10849460D02*
X12515182Y-10801841D01*
X12515182Y-10801841D02*
X12515182Y-10763746D01*
X12515182Y-10763746D02*
X12505658Y-10716127D01*
X12505658Y-10716127D02*
X12496134Y-10687555D01*
X12496134Y-10687555D02*
X12486611Y-10668508D01*
X12486611Y-10668508D02*
X12467563Y-10639936D01*
X12467563Y-10639936D02*
X12458039Y-10630412D01*
D12*
X7492500Y-11031500D02*
G75*
G02*
X7402500Y-11031500I-45000J0D01*
G01*
X7402500Y-11031500D02*
G75*
G02*
X7492500Y-11031500I45000J0D01*
G01*
D11*
X7791372Y-10922984D02*
X7810420Y-10922984D01*
X7810420Y-10922984D02*
X7829467Y-10932508D01*
X7829467Y-10932508D02*
X7838991Y-10942031D01*
X7838991Y-10942031D02*
X7848515Y-10961079D01*
X7848515Y-10961079D02*
X7858039Y-10999174D01*
X7858039Y-10999174D02*
X7858039Y-11046793D01*
X7858039Y-11046793D02*
X7848515Y-11084889D01*
X7848515Y-11084889D02*
X7838991Y-11103936D01*
X7838991Y-11103936D02*
X7829467Y-11113460D01*
X7829467Y-11113460D02*
X7810420Y-11122984D01*
X7810420Y-11122984D02*
X7791372Y-11122984D01*
X7791372Y-11122984D02*
X7772324Y-11113460D01*
X7772324Y-11113460D02*
X7762801Y-11103936D01*
X7762801Y-11103936D02*
X7753277Y-11084889D01*
X7753277Y-11084889D02*
X7743753Y-11046793D01*
X7743753Y-11046793D02*
X7743753Y-10999174D01*
X7743753Y-10999174D02*
X7753277Y-10961079D01*
X7753277Y-10961079D02*
X7762801Y-10942031D01*
X7762801Y-10942031D02*
X7772324Y-10932508D01*
X7772324Y-10932508D02*
X7791372Y-10922984D01*
X7943753Y-11103936D02*
X7953277Y-11113460D01*
X7953277Y-11113460D02*
X7943753Y-11122984D01*
X7943753Y-11122984D02*
X7934229Y-11113460D01*
X7934229Y-11113460D02*
X7943753Y-11103936D01*
X7943753Y-11103936D02*
X7943753Y-11122984D01*
X8048515Y-11122984D02*
X8086610Y-11122984D01*
X8086610Y-11122984D02*
X8105658Y-11113460D01*
X8105658Y-11113460D02*
X8115182Y-11103936D01*
X8115182Y-11103936D02*
X8134229Y-11075365D01*
X8134229Y-11075365D02*
X8143753Y-11037270D01*
X8143753Y-11037270D02*
X8143753Y-10961079D01*
X8143753Y-10961079D02*
X8134229Y-10942031D01*
X8134229Y-10942031D02*
X8124705Y-10932508D01*
X8124705Y-10932508D02*
X8105658Y-10922984D01*
X8105658Y-10922984D02*
X8067562Y-10922984D01*
X8067562Y-10922984D02*
X8048515Y-10932508D01*
X8048515Y-10932508D02*
X8038991Y-10942031D01*
X8038991Y-10942031D02*
X8029467Y-10961079D01*
X8029467Y-10961079D02*
X8029467Y-11008698D01*
X8029467Y-11008698D02*
X8038991Y-11027746D01*
X8038991Y-11027746D02*
X8048515Y-11037270D01*
X8048515Y-11037270D02*
X8067562Y-11046793D01*
X8067562Y-11046793D02*
X8105658Y-11046793D01*
X8105658Y-11046793D02*
X8124705Y-11037270D01*
X8124705Y-11037270D02*
X8134229Y-11027746D01*
X8134229Y-11027746D02*
X8143753Y-11008698D01*
X8267562Y-10922984D02*
X8286610Y-10922984D01*
X8286610Y-10922984D02*
X8305658Y-10932508D01*
X8305658Y-10932508D02*
X8315182Y-10942031D01*
X8315182Y-10942031D02*
X8324705Y-10961079D01*
X8324705Y-10961079D02*
X8334229Y-10999174D01*
X8334229Y-10999174D02*
X8334229Y-11046793D01*
X8334229Y-11046793D02*
X8324705Y-11084889D01*
X8324705Y-11084889D02*
X8315182Y-11103936D01*
X8315182Y-11103936D02*
X8305658Y-11113460D01*
X8305658Y-11113460D02*
X8286610Y-11122984D01*
X8286610Y-11122984D02*
X8267562Y-11122984D01*
X8267562Y-11122984D02*
X8248515Y-11113460D01*
X8248515Y-11113460D02*
X8238991Y-11103936D01*
X8238991Y-11103936D02*
X8229467Y-11084889D01*
X8229467Y-11084889D02*
X8219943Y-11046793D01*
X8219943Y-11046793D02*
X8219943Y-10999174D01*
X8219943Y-10999174D02*
X8229467Y-10961079D01*
X8229467Y-10961079D02*
X8238991Y-10942031D01*
X8238991Y-10942031D02*
X8248515Y-10932508D01*
X8248515Y-10932508D02*
X8267562Y-10922984D01*
X8458039Y-10922984D02*
X8477086Y-10922984D01*
X8477086Y-10922984D02*
X8496134Y-10932508D01*
X8496134Y-10932508D02*
X8505658Y-10942031D01*
X8505658Y-10942031D02*
X8515182Y-10961079D01*
X8515182Y-10961079D02*
X8524705Y-10999174D01*
X8524705Y-10999174D02*
X8524705Y-11046793D01*
X8524705Y-11046793D02*
X8515182Y-11084889D01*
X8515182Y-11084889D02*
X8505658Y-11103936D01*
X8505658Y-11103936D02*
X8496134Y-11113460D01*
X8496134Y-11113460D02*
X8477086Y-11122984D01*
X8477086Y-11122984D02*
X8458039Y-11122984D01*
X8458039Y-11122984D02*
X8438991Y-11113460D01*
X8438991Y-11113460D02*
X8429467Y-11103936D01*
X8429467Y-11103936D02*
X8419944Y-11084889D01*
X8419944Y-11084889D02*
X8410420Y-11046793D01*
X8410420Y-11046793D02*
X8410420Y-10999174D01*
X8410420Y-10999174D02*
X8419944Y-10961079D01*
X8419944Y-10961079D02*
X8429467Y-10942031D01*
X8429467Y-10942031D02*
X8438991Y-10932508D01*
X8438991Y-10932508D02*
X8458039Y-10922984D01*
X8610420Y-11122984D02*
X8610420Y-10989650D01*
X8610420Y-11008698D02*
X8619944Y-10999174D01*
X8619944Y-10999174D02*
X8638991Y-10989650D01*
X8638991Y-10989650D02*
X8667563Y-10989650D01*
X8667563Y-10989650D02*
X8686610Y-10999174D01*
X8686610Y-10999174D02*
X8696134Y-11018222D01*
X8696134Y-11018222D02*
X8696134Y-11122984D01*
X8696134Y-11018222D02*
X8705658Y-10999174D01*
X8705658Y-10999174D02*
X8724705Y-10989650D01*
X8724705Y-10989650D02*
X8753277Y-10989650D01*
X8753277Y-10989650D02*
X8772325Y-10999174D01*
X8772325Y-10999174D02*
X8781848Y-11018222D01*
X8781848Y-11018222D02*
X8781848Y-11122984D01*
X8877086Y-11122984D02*
X8877086Y-10989650D01*
X8877086Y-11008698D02*
X8886610Y-10999174D01*
X8886610Y-10999174D02*
X8905658Y-10989650D01*
X8905658Y-10989650D02*
X8934229Y-10989650D01*
X8934229Y-10989650D02*
X8953277Y-10999174D01*
X8953277Y-10999174D02*
X8962801Y-11018222D01*
X8962801Y-11018222D02*
X8962801Y-11122984D01*
X8962801Y-11018222D02*
X8972325Y-10999174D01*
X8972325Y-10999174D02*
X8991372Y-10989650D01*
X8991372Y-10989650D02*
X9019944Y-10989650D01*
X9019944Y-10989650D02*
X9038991Y-10999174D01*
X9038991Y-10999174D02*
X9048515Y-11018222D01*
X9048515Y-11018222D02*
X9048515Y-11122984D01*
X9438991Y-10913460D02*
X9267563Y-11170603D01*
X9696134Y-10922984D02*
X9715182Y-10922984D01*
X9715182Y-10922984D02*
X9734229Y-10932508D01*
X9734229Y-10932508D02*
X9743753Y-10942031D01*
X9743753Y-10942031D02*
X9753277Y-10961079D01*
X9753277Y-10961079D02*
X9762801Y-10999174D01*
X9762801Y-10999174D02*
X9762801Y-11046793D01*
X9762801Y-11046793D02*
X9753277Y-11084889D01*
X9753277Y-11084889D02*
X9743753Y-11103936D01*
X9743753Y-11103936D02*
X9734229Y-11113460D01*
X9734229Y-11113460D02*
X9715182Y-11122984D01*
X9715182Y-11122984D02*
X9696134Y-11122984D01*
X9696134Y-11122984D02*
X9677087Y-11113460D01*
X9677087Y-11113460D02*
X9667563Y-11103936D01*
X9667563Y-11103936D02*
X9658039Y-11084889D01*
X9658039Y-11084889D02*
X9648515Y-11046793D01*
X9648515Y-11046793D02*
X9648515Y-10999174D01*
X9648515Y-10999174D02*
X9658039Y-10961079D01*
X9658039Y-10961079D02*
X9667563Y-10942031D01*
X9667563Y-10942031D02*
X9677087Y-10932508D01*
X9677087Y-10932508D02*
X9696134Y-10922984D01*
X9848515Y-11103936D02*
X9858039Y-11113460D01*
X9858039Y-11113460D02*
X9848515Y-11122984D01*
X9848515Y-11122984D02*
X9838991Y-11113460D01*
X9838991Y-11113460D02*
X9848515Y-11103936D01*
X9848515Y-11103936D02*
X9848515Y-11122984D01*
X9981848Y-10922984D02*
X10000896Y-10922984D01*
X10000896Y-10922984D02*
X10019944Y-10932508D01*
X10019944Y-10932508D02*
X10029468Y-10942031D01*
X10029468Y-10942031D02*
X10038991Y-10961079D01*
X10038991Y-10961079D02*
X10048515Y-10999174D01*
X10048515Y-10999174D02*
X10048515Y-11046793D01*
X10048515Y-11046793D02*
X10038991Y-11084889D01*
X10038991Y-11084889D02*
X10029468Y-11103936D01*
X10029468Y-11103936D02*
X10019944Y-11113460D01*
X10019944Y-11113460D02*
X10000896Y-11122984D01*
X10000896Y-11122984D02*
X9981848Y-11122984D01*
X9981848Y-11122984D02*
X9962801Y-11113460D01*
X9962801Y-11113460D02*
X9953277Y-11103936D01*
X9953277Y-11103936D02*
X9943753Y-11084889D01*
X9943753Y-11084889D02*
X9934229Y-11046793D01*
X9934229Y-11046793D02*
X9934229Y-10999174D01*
X9934229Y-10999174D02*
X9943753Y-10961079D01*
X9943753Y-10961079D02*
X9953277Y-10942031D01*
X9953277Y-10942031D02*
X9962801Y-10932508D01*
X9962801Y-10932508D02*
X9981848Y-10922984D01*
X10115182Y-10922984D02*
X10238991Y-10922984D01*
X10238991Y-10922984D02*
X10172325Y-10999174D01*
X10172325Y-10999174D02*
X10200896Y-10999174D01*
X10200896Y-10999174D02*
X10219944Y-11008698D01*
X10219944Y-11008698D02*
X10229468Y-11018222D01*
X10229468Y-11018222D02*
X10238991Y-11037270D01*
X10238991Y-11037270D02*
X10238991Y-11084889D01*
X10238991Y-11084889D02*
X10229468Y-11103936D01*
X10229468Y-11103936D02*
X10219944Y-11113460D01*
X10219944Y-11113460D02*
X10200896Y-11122984D01*
X10200896Y-11122984D02*
X10143753Y-11122984D01*
X10143753Y-11122984D02*
X10124706Y-11113460D01*
X10124706Y-11113460D02*
X10115182Y-11103936D01*
X10419944Y-10922984D02*
X10324706Y-10922984D01*
X10324706Y-10922984D02*
X10315182Y-11018222D01*
X10315182Y-11018222D02*
X10324706Y-11008698D01*
X10324706Y-11008698D02*
X10343753Y-10999174D01*
X10343753Y-10999174D02*
X10391372Y-10999174D01*
X10391372Y-10999174D02*
X10410420Y-11008698D01*
X10410420Y-11008698D02*
X10419944Y-11018222D01*
X10419944Y-11018222D02*
X10429468Y-11037270D01*
X10429468Y-11037270D02*
X10429468Y-11084889D01*
X10429468Y-11084889D02*
X10419944Y-11103936D01*
X10419944Y-11103936D02*
X10410420Y-11113460D01*
X10410420Y-11113460D02*
X10391372Y-11122984D01*
X10391372Y-11122984D02*
X10343753Y-11122984D01*
X10343753Y-11122984D02*
X10324706Y-11113460D01*
X10324706Y-11113460D02*
X10315182Y-11103936D01*
X10600896Y-10989650D02*
X10600896Y-11122984D01*
X10553277Y-10913460D02*
X10505658Y-11056317D01*
X10505658Y-11056317D02*
X10629468Y-11056317D01*
X10696134Y-10922984D02*
X10696134Y-10961079D01*
X10772325Y-10922984D02*
X10772325Y-10961079D01*
X11067563Y-11199174D02*
X11058039Y-11189650D01*
X11058039Y-11189650D02*
X11038991Y-11161079D01*
X11038991Y-11161079D02*
X11029468Y-11142031D01*
X11029468Y-11142031D02*
X11019944Y-11113460D01*
X11019944Y-11113460D02*
X11010420Y-11065841D01*
X11010420Y-11065841D02*
X11010420Y-11027746D01*
X11010420Y-11027746D02*
X11019944Y-10980127D01*
X11019944Y-10980127D02*
X11029468Y-10951555D01*
X11029468Y-10951555D02*
X11038991Y-10932508D01*
X11038991Y-10932508D02*
X11058039Y-10903936D01*
X11058039Y-10903936D02*
X11067563Y-10894412D01*
X11134230Y-10942031D02*
X11143753Y-10932508D01*
X11143753Y-10932508D02*
X11162801Y-10922984D01*
X11162801Y-10922984D02*
X11210420Y-10922984D01*
X11210420Y-10922984D02*
X11229468Y-10932508D01*
X11229468Y-10932508D02*
X11238991Y-10942031D01*
X11238991Y-10942031D02*
X11248515Y-10961079D01*
X11248515Y-10961079D02*
X11248515Y-10980127D01*
X11248515Y-10980127D02*
X11238991Y-11008698D01*
X11238991Y-11008698D02*
X11124706Y-11122984D01*
X11124706Y-11122984D02*
X11248515Y-11122984D01*
X11429468Y-10922984D02*
X11334229Y-10922984D01*
X11334229Y-10922984D02*
X11324706Y-11018222D01*
X11324706Y-11018222D02*
X11334229Y-11008698D01*
X11334229Y-11008698D02*
X11353277Y-10999174D01*
X11353277Y-10999174D02*
X11400896Y-10999174D01*
X11400896Y-10999174D02*
X11419944Y-11008698D01*
X11419944Y-11008698D02*
X11429468Y-11018222D01*
X11429468Y-11018222D02*
X11438991Y-11037270D01*
X11438991Y-11037270D02*
X11438991Y-11084889D01*
X11438991Y-11084889D02*
X11429468Y-11103936D01*
X11429468Y-11103936D02*
X11419944Y-11113460D01*
X11419944Y-11113460D02*
X11400896Y-11122984D01*
X11400896Y-11122984D02*
X11353277Y-11122984D01*
X11353277Y-11122984D02*
X11334229Y-11113460D01*
X11334229Y-11113460D02*
X11324706Y-11103936D01*
X11677087Y-11122984D02*
X11677087Y-10922984D01*
X11762801Y-11122984D02*
X11762801Y-11018222D01*
X11762801Y-11018222D02*
X11753277Y-10999174D01*
X11753277Y-10999174D02*
X11734230Y-10989650D01*
X11734230Y-10989650D02*
X11705658Y-10989650D01*
X11705658Y-10989650D02*
X11686610Y-10999174D01*
X11686610Y-10999174D02*
X11677087Y-11008698D01*
X11886610Y-11122984D02*
X11867563Y-11113460D01*
X11867563Y-11113460D02*
X11858039Y-11103936D01*
X11858039Y-11103936D02*
X11848515Y-11084889D01*
X11848515Y-11084889D02*
X11848515Y-11027746D01*
X11848515Y-11027746D02*
X11858039Y-11008698D01*
X11858039Y-11008698D02*
X11867563Y-10999174D01*
X11867563Y-10999174D02*
X11886610Y-10989650D01*
X11886610Y-10989650D02*
X11915182Y-10989650D01*
X11915182Y-10989650D02*
X11934230Y-10999174D01*
X11934230Y-10999174D02*
X11943753Y-11008698D01*
X11943753Y-11008698D02*
X11953277Y-11027746D01*
X11953277Y-11027746D02*
X11953277Y-11084889D01*
X11953277Y-11084889D02*
X11943753Y-11103936D01*
X11943753Y-11103936D02*
X11934230Y-11113460D01*
X11934230Y-11113460D02*
X11915182Y-11122984D01*
X11915182Y-11122984D02*
X11886610Y-11122984D01*
X12067563Y-11122984D02*
X12048515Y-11113460D01*
X12048515Y-11113460D02*
X12038991Y-11094412D01*
X12038991Y-11094412D02*
X12038991Y-10922984D01*
X12219944Y-11113460D02*
X12200896Y-11122984D01*
X12200896Y-11122984D02*
X12162801Y-11122984D01*
X12162801Y-11122984D02*
X12143753Y-11113460D01*
X12143753Y-11113460D02*
X12134230Y-11094412D01*
X12134230Y-11094412D02*
X12134230Y-11018222D01*
X12134230Y-11018222D02*
X12143753Y-10999174D01*
X12143753Y-10999174D02*
X12162801Y-10989650D01*
X12162801Y-10989650D02*
X12200896Y-10989650D01*
X12200896Y-10989650D02*
X12219944Y-10999174D01*
X12219944Y-10999174D02*
X12229468Y-11018222D01*
X12229468Y-11018222D02*
X12229468Y-11037270D01*
X12229468Y-11037270D02*
X12134230Y-11056317D01*
X12305658Y-11113460D02*
X12324706Y-11122984D01*
X12324706Y-11122984D02*
X12362801Y-11122984D01*
X12362801Y-11122984D02*
X12381849Y-11113460D01*
X12381849Y-11113460D02*
X12391372Y-11094412D01*
X12391372Y-11094412D02*
X12391372Y-11084889D01*
X12391372Y-11084889D02*
X12381849Y-11065841D01*
X12381849Y-11065841D02*
X12362801Y-11056317D01*
X12362801Y-11056317D02*
X12334230Y-11056317D01*
X12334230Y-11056317D02*
X12315182Y-11046793D01*
X12315182Y-11046793D02*
X12305658Y-11027746D01*
X12305658Y-11027746D02*
X12305658Y-11018222D01*
X12305658Y-11018222D02*
X12315182Y-10999174D01*
X12315182Y-10999174D02*
X12334230Y-10989650D01*
X12334230Y-10989650D02*
X12362801Y-10989650D01*
X12362801Y-10989650D02*
X12381849Y-10999174D01*
X12458039Y-11199174D02*
X12467563Y-11189650D01*
X12467563Y-11189650D02*
X12486611Y-11161079D01*
X12486611Y-11161079D02*
X12496134Y-11142031D01*
X12496134Y-11142031D02*
X12505658Y-11113460D01*
X12505658Y-11113460D02*
X12515182Y-11065841D01*
X12515182Y-11065841D02*
X12515182Y-11027746D01*
X12515182Y-11027746D02*
X12505658Y-10980127D01*
X12505658Y-10980127D02*
X12496134Y-10951555D01*
X12496134Y-10951555D02*
X12486611Y-10932508D01*
X12486611Y-10932508D02*
X12467563Y-10903936D01*
X12467563Y-10903936D02*
X12458039Y-10894412D01*
D12*
X7442500Y-11245500D02*
X7442500Y-11345500D01*
X7392500Y-11295500D02*
X7492500Y-11295500D01*
D11*
X7858039Y-11386984D02*
X7743753Y-11386984D01*
X7800896Y-11386984D02*
X7800896Y-11186984D01*
X7800896Y-11186984D02*
X7781848Y-11215555D01*
X7781848Y-11215555D02*
X7762801Y-11234603D01*
X7762801Y-11234603D02*
X7743753Y-11244127D01*
X7943753Y-11367936D02*
X7953277Y-11377460D01*
X7953277Y-11377460D02*
X7943753Y-11386984D01*
X7943753Y-11386984D02*
X7934229Y-11377460D01*
X7934229Y-11377460D02*
X7943753Y-11367936D01*
X7943753Y-11367936D02*
X7943753Y-11386984D01*
X8077086Y-11186984D02*
X8096134Y-11186984D01*
X8096134Y-11186984D02*
X8115182Y-11196508D01*
X8115182Y-11196508D02*
X8124705Y-11206031D01*
X8124705Y-11206031D02*
X8134229Y-11225079D01*
X8134229Y-11225079D02*
X8143753Y-11263174D01*
X8143753Y-11263174D02*
X8143753Y-11310793D01*
X8143753Y-11310793D02*
X8134229Y-11348888D01*
X8134229Y-11348888D02*
X8124705Y-11367936D01*
X8124705Y-11367936D02*
X8115182Y-11377460D01*
X8115182Y-11377460D02*
X8096134Y-11386984D01*
X8096134Y-11386984D02*
X8077086Y-11386984D01*
X8077086Y-11386984D02*
X8058039Y-11377460D01*
X8058039Y-11377460D02*
X8048515Y-11367936D01*
X8048515Y-11367936D02*
X8038991Y-11348888D01*
X8038991Y-11348888D02*
X8029467Y-11310793D01*
X8029467Y-11310793D02*
X8029467Y-11263174D01*
X8029467Y-11263174D02*
X8038991Y-11225079D01*
X8038991Y-11225079D02*
X8048515Y-11206031D01*
X8048515Y-11206031D02*
X8058039Y-11196508D01*
X8058039Y-11196508D02*
X8077086Y-11186984D01*
X8267562Y-11186984D02*
X8286610Y-11186984D01*
X8286610Y-11186984D02*
X8305658Y-11196508D01*
X8305658Y-11196508D02*
X8315182Y-11206031D01*
X8315182Y-11206031D02*
X8324705Y-11225079D01*
X8324705Y-11225079D02*
X8334229Y-11263174D01*
X8334229Y-11263174D02*
X8334229Y-11310793D01*
X8334229Y-11310793D02*
X8324705Y-11348888D01*
X8324705Y-11348888D02*
X8315182Y-11367936D01*
X8315182Y-11367936D02*
X8305658Y-11377460D01*
X8305658Y-11377460D02*
X8286610Y-11386984D01*
X8286610Y-11386984D02*
X8267562Y-11386984D01*
X8267562Y-11386984D02*
X8248515Y-11377460D01*
X8248515Y-11377460D02*
X8238991Y-11367936D01*
X8238991Y-11367936D02*
X8229467Y-11348888D01*
X8229467Y-11348888D02*
X8219943Y-11310793D01*
X8219943Y-11310793D02*
X8219943Y-11263174D01*
X8219943Y-11263174D02*
X8229467Y-11225079D01*
X8229467Y-11225079D02*
X8238991Y-11206031D01*
X8238991Y-11206031D02*
X8248515Y-11196508D01*
X8248515Y-11196508D02*
X8267562Y-11186984D01*
X8458039Y-11186984D02*
X8477086Y-11186984D01*
X8477086Y-11186984D02*
X8496134Y-11196508D01*
X8496134Y-11196508D02*
X8505658Y-11206031D01*
X8505658Y-11206031D02*
X8515182Y-11225079D01*
X8515182Y-11225079D02*
X8524705Y-11263174D01*
X8524705Y-11263174D02*
X8524705Y-11310793D01*
X8524705Y-11310793D02*
X8515182Y-11348888D01*
X8515182Y-11348888D02*
X8505658Y-11367936D01*
X8505658Y-11367936D02*
X8496134Y-11377460D01*
X8496134Y-11377460D02*
X8477086Y-11386984D01*
X8477086Y-11386984D02*
X8458039Y-11386984D01*
X8458039Y-11386984D02*
X8438991Y-11377460D01*
X8438991Y-11377460D02*
X8429467Y-11367936D01*
X8429467Y-11367936D02*
X8419944Y-11348888D01*
X8419944Y-11348888D02*
X8410420Y-11310793D01*
X8410420Y-11310793D02*
X8410420Y-11263174D01*
X8410420Y-11263174D02*
X8419944Y-11225079D01*
X8419944Y-11225079D02*
X8429467Y-11206031D01*
X8429467Y-11206031D02*
X8438991Y-11196508D01*
X8438991Y-11196508D02*
X8458039Y-11186984D01*
X8610420Y-11386984D02*
X8610420Y-11253650D01*
X8610420Y-11272698D02*
X8619944Y-11263174D01*
X8619944Y-11263174D02*
X8638991Y-11253650D01*
X8638991Y-11253650D02*
X8667563Y-11253650D01*
X8667563Y-11253650D02*
X8686610Y-11263174D01*
X8686610Y-11263174D02*
X8696134Y-11282222D01*
X8696134Y-11282222D02*
X8696134Y-11386984D01*
X8696134Y-11282222D02*
X8705658Y-11263174D01*
X8705658Y-11263174D02*
X8724705Y-11253650D01*
X8724705Y-11253650D02*
X8753277Y-11253650D01*
X8753277Y-11253650D02*
X8772325Y-11263174D01*
X8772325Y-11263174D02*
X8781848Y-11282222D01*
X8781848Y-11282222D02*
X8781848Y-11386984D01*
X8877086Y-11386984D02*
X8877086Y-11253650D01*
X8877086Y-11272698D02*
X8886610Y-11263174D01*
X8886610Y-11263174D02*
X8905658Y-11253650D01*
X8905658Y-11253650D02*
X8934229Y-11253650D01*
X8934229Y-11253650D02*
X8953277Y-11263174D01*
X8953277Y-11263174D02*
X8962801Y-11282222D01*
X8962801Y-11282222D02*
X8962801Y-11386984D01*
X8962801Y-11282222D02*
X8972325Y-11263174D01*
X8972325Y-11263174D02*
X8991372Y-11253650D01*
X8991372Y-11253650D02*
X9019944Y-11253650D01*
X9019944Y-11253650D02*
X9038991Y-11263174D01*
X9038991Y-11263174D02*
X9048515Y-11282222D01*
X9048515Y-11282222D02*
X9048515Y-11386984D01*
X9438991Y-11177460D02*
X9267563Y-11434603D01*
X9696134Y-11186984D02*
X9715182Y-11186984D01*
X9715182Y-11186984D02*
X9734229Y-11196508D01*
X9734229Y-11196508D02*
X9743753Y-11206031D01*
X9743753Y-11206031D02*
X9753277Y-11225079D01*
X9753277Y-11225079D02*
X9762801Y-11263174D01*
X9762801Y-11263174D02*
X9762801Y-11310793D01*
X9762801Y-11310793D02*
X9753277Y-11348888D01*
X9753277Y-11348888D02*
X9743753Y-11367936D01*
X9743753Y-11367936D02*
X9734229Y-11377460D01*
X9734229Y-11377460D02*
X9715182Y-11386984D01*
X9715182Y-11386984D02*
X9696134Y-11386984D01*
X9696134Y-11386984D02*
X9677087Y-11377460D01*
X9677087Y-11377460D02*
X9667563Y-11367936D01*
X9667563Y-11367936D02*
X9658039Y-11348888D01*
X9658039Y-11348888D02*
X9648515Y-11310793D01*
X9648515Y-11310793D02*
X9648515Y-11263174D01*
X9648515Y-11263174D02*
X9658039Y-11225079D01*
X9658039Y-11225079D02*
X9667563Y-11206031D01*
X9667563Y-11206031D02*
X9677087Y-11196508D01*
X9677087Y-11196508D02*
X9696134Y-11186984D01*
X9848515Y-11367936D02*
X9858039Y-11377460D01*
X9858039Y-11377460D02*
X9848515Y-11386984D01*
X9848515Y-11386984D02*
X9838991Y-11377460D01*
X9838991Y-11377460D02*
X9848515Y-11367936D01*
X9848515Y-11367936D02*
X9848515Y-11386984D01*
X9981848Y-11186984D02*
X10000896Y-11186984D01*
X10000896Y-11186984D02*
X10019944Y-11196508D01*
X10019944Y-11196508D02*
X10029468Y-11206031D01*
X10029468Y-11206031D02*
X10038991Y-11225079D01*
X10038991Y-11225079D02*
X10048515Y-11263174D01*
X10048515Y-11263174D02*
X10048515Y-11310793D01*
X10048515Y-11310793D02*
X10038991Y-11348888D01*
X10038991Y-11348888D02*
X10029468Y-11367936D01*
X10029468Y-11367936D02*
X10019944Y-11377460D01*
X10019944Y-11377460D02*
X10000896Y-11386984D01*
X10000896Y-11386984D02*
X9981848Y-11386984D01*
X9981848Y-11386984D02*
X9962801Y-11377460D01*
X9962801Y-11377460D02*
X9953277Y-11367936D01*
X9953277Y-11367936D02*
X9943753Y-11348888D01*
X9943753Y-11348888D02*
X9934229Y-11310793D01*
X9934229Y-11310793D02*
X9934229Y-11263174D01*
X9934229Y-11263174D02*
X9943753Y-11225079D01*
X9943753Y-11225079D02*
X9953277Y-11206031D01*
X9953277Y-11206031D02*
X9962801Y-11196508D01*
X9962801Y-11196508D02*
X9981848Y-11186984D01*
X10115182Y-11186984D02*
X10238991Y-11186984D01*
X10238991Y-11186984D02*
X10172325Y-11263174D01*
X10172325Y-11263174D02*
X10200896Y-11263174D01*
X10200896Y-11263174D02*
X10219944Y-11272698D01*
X10219944Y-11272698D02*
X10229468Y-11282222D01*
X10229468Y-11282222D02*
X10238991Y-11301269D01*
X10238991Y-11301269D02*
X10238991Y-11348888D01*
X10238991Y-11348888D02*
X10229468Y-11367936D01*
X10229468Y-11367936D02*
X10219944Y-11377460D01*
X10219944Y-11377460D02*
X10200896Y-11386984D01*
X10200896Y-11386984D02*
X10143753Y-11386984D01*
X10143753Y-11386984D02*
X10124706Y-11377460D01*
X10124706Y-11377460D02*
X10115182Y-11367936D01*
X10334229Y-11386984D02*
X10372325Y-11386984D01*
X10372325Y-11386984D02*
X10391372Y-11377460D01*
X10391372Y-11377460D02*
X10400896Y-11367936D01*
X10400896Y-11367936D02*
X10419944Y-11339365D01*
X10419944Y-11339365D02*
X10429468Y-11301269D01*
X10429468Y-11301269D02*
X10429468Y-11225079D01*
X10429468Y-11225079D02*
X10419944Y-11206031D01*
X10419944Y-11206031D02*
X10410420Y-11196508D01*
X10410420Y-11196508D02*
X10391372Y-11186984D01*
X10391372Y-11186984D02*
X10353277Y-11186984D01*
X10353277Y-11186984D02*
X10334229Y-11196508D01*
X10334229Y-11196508D02*
X10324706Y-11206031D01*
X10324706Y-11206031D02*
X10315182Y-11225079D01*
X10315182Y-11225079D02*
X10315182Y-11272698D01*
X10315182Y-11272698D02*
X10324706Y-11291746D01*
X10324706Y-11291746D02*
X10334229Y-11301269D01*
X10334229Y-11301269D02*
X10353277Y-11310793D01*
X10353277Y-11310793D02*
X10391372Y-11310793D01*
X10391372Y-11310793D02*
X10410420Y-11301269D01*
X10410420Y-11301269D02*
X10419944Y-11291746D01*
X10419944Y-11291746D02*
X10429468Y-11272698D01*
X10600896Y-11253650D02*
X10600896Y-11386984D01*
X10553277Y-11177460D02*
X10505658Y-11320317D01*
X10505658Y-11320317D02*
X10629468Y-11320317D01*
X10696134Y-11186984D02*
X10696134Y-11225079D01*
X10772325Y-11186984D02*
X10772325Y-11225079D01*
X11067563Y-11463174D02*
X11058039Y-11453650D01*
X11058039Y-11453650D02*
X11038991Y-11425079D01*
X11038991Y-11425079D02*
X11029468Y-11406031D01*
X11029468Y-11406031D02*
X11019944Y-11377460D01*
X11019944Y-11377460D02*
X11010420Y-11329841D01*
X11010420Y-11329841D02*
X11010420Y-11291746D01*
X11010420Y-11291746D02*
X11019944Y-11244127D01*
X11019944Y-11244127D02*
X11029468Y-11215555D01*
X11029468Y-11215555D02*
X11038991Y-11196508D01*
X11038991Y-11196508D02*
X11058039Y-11167936D01*
X11058039Y-11167936D02*
X11067563Y-11158412D01*
X11134230Y-11206031D02*
X11143753Y-11196508D01*
X11143753Y-11196508D02*
X11162801Y-11186984D01*
X11162801Y-11186984D02*
X11210420Y-11186984D01*
X11210420Y-11186984D02*
X11229468Y-11196508D01*
X11229468Y-11196508D02*
X11238991Y-11206031D01*
X11238991Y-11206031D02*
X11248515Y-11225079D01*
X11248515Y-11225079D02*
X11248515Y-11244127D01*
X11248515Y-11244127D02*
X11238991Y-11272698D01*
X11238991Y-11272698D02*
X11124706Y-11386984D01*
X11124706Y-11386984D02*
X11248515Y-11386984D01*
X11486610Y-11386984D02*
X11486610Y-11186984D01*
X11572325Y-11386984D02*
X11572325Y-11282222D01*
X11572325Y-11282222D02*
X11562801Y-11263174D01*
X11562801Y-11263174D02*
X11543753Y-11253650D01*
X11543753Y-11253650D02*
X11515182Y-11253650D01*
X11515182Y-11253650D02*
X11496134Y-11263174D01*
X11496134Y-11263174D02*
X11486610Y-11272698D01*
X11696134Y-11386984D02*
X11677087Y-11377460D01*
X11677087Y-11377460D02*
X11667563Y-11367936D01*
X11667563Y-11367936D02*
X11658039Y-11348888D01*
X11658039Y-11348888D02*
X11658039Y-11291746D01*
X11658039Y-11291746D02*
X11667563Y-11272698D01*
X11667563Y-11272698D02*
X11677087Y-11263174D01*
X11677087Y-11263174D02*
X11696134Y-11253650D01*
X11696134Y-11253650D02*
X11724706Y-11253650D01*
X11724706Y-11253650D02*
X11743753Y-11263174D01*
X11743753Y-11263174D02*
X11753277Y-11272698D01*
X11753277Y-11272698D02*
X11762801Y-11291746D01*
X11762801Y-11291746D02*
X11762801Y-11348888D01*
X11762801Y-11348888D02*
X11753277Y-11367936D01*
X11753277Y-11367936D02*
X11743753Y-11377460D01*
X11743753Y-11377460D02*
X11724706Y-11386984D01*
X11724706Y-11386984D02*
X11696134Y-11386984D01*
X11877087Y-11386984D02*
X11858039Y-11377460D01*
X11858039Y-11377460D02*
X11848515Y-11358412D01*
X11848515Y-11358412D02*
X11848515Y-11186984D01*
X12029468Y-11377460D02*
X12010420Y-11386984D01*
X12010420Y-11386984D02*
X11972325Y-11386984D01*
X11972325Y-11386984D02*
X11953277Y-11377460D01*
X11953277Y-11377460D02*
X11943753Y-11358412D01*
X11943753Y-11358412D02*
X11943753Y-11282222D01*
X11943753Y-11282222D02*
X11953277Y-11263174D01*
X11953277Y-11263174D02*
X11972325Y-11253650D01*
X11972325Y-11253650D02*
X12010420Y-11253650D01*
X12010420Y-11253650D02*
X12029468Y-11263174D01*
X12029468Y-11263174D02*
X12038991Y-11282222D01*
X12038991Y-11282222D02*
X12038991Y-11301269D01*
X12038991Y-11301269D02*
X11943753Y-11320317D01*
X12115182Y-11377460D02*
X12134230Y-11386984D01*
X12134230Y-11386984D02*
X12172325Y-11386984D01*
X12172325Y-11386984D02*
X12191372Y-11377460D01*
X12191372Y-11377460D02*
X12200896Y-11358412D01*
X12200896Y-11358412D02*
X12200896Y-11348888D01*
X12200896Y-11348888D02*
X12191372Y-11329841D01*
X12191372Y-11329841D02*
X12172325Y-11320317D01*
X12172325Y-11320317D02*
X12143753Y-11320317D01*
X12143753Y-11320317D02*
X12124706Y-11310793D01*
X12124706Y-11310793D02*
X12115182Y-11291746D01*
X12115182Y-11291746D02*
X12115182Y-11282222D01*
X12115182Y-11282222D02*
X12124706Y-11263174D01*
X12124706Y-11263174D02*
X12143753Y-11253650D01*
X12143753Y-11253650D02*
X12172325Y-11253650D01*
X12172325Y-11253650D02*
X12191372Y-11263174D01*
X12267563Y-11463174D02*
X12277087Y-11453650D01*
X12277087Y-11453650D02*
X12296134Y-11425079D01*
X12296134Y-11425079D02*
X12305658Y-11406031D01*
X12305658Y-11406031D02*
X12315182Y-11377460D01*
X12315182Y-11377460D02*
X12324706Y-11329841D01*
X12324706Y-11329841D02*
X12324706Y-11291746D01*
X12324706Y-11291746D02*
X12315182Y-11244127D01*
X12315182Y-11244127D02*
X12305658Y-11215555D01*
X12305658Y-11215555D02*
X12296134Y-11196508D01*
X12296134Y-11196508D02*
X12277087Y-11167936D01*
X12277087Y-11167936D02*
X12267563Y-11158412D01*
D13*
X7476391Y-11598391D02*
X7476391Y-11520609D01*
X7398609Y-11520609D01*
X7398609Y-11598391D01*
X7476391Y-11598391D01*
D11*
X7858039Y-11650984D02*
X7743753Y-11650984D01*
X7800896Y-11650984D02*
X7800896Y-11450984D01*
X7800896Y-11450984D02*
X7781848Y-11479555D01*
X7781848Y-11479555D02*
X7762801Y-11498603D01*
X7762801Y-11498603D02*
X7743753Y-11508127D01*
X7943753Y-11631936D02*
X7953277Y-11641460D01*
X7953277Y-11641460D02*
X7943753Y-11650984D01*
X7943753Y-11650984D02*
X7934229Y-11641460D01*
X7934229Y-11641460D02*
X7943753Y-11631936D01*
X7943753Y-11631936D02*
X7943753Y-11650984D01*
X8143753Y-11650984D02*
X8029467Y-11650984D01*
X8086610Y-11650984D02*
X8086610Y-11450984D01*
X8086610Y-11450984D02*
X8067562Y-11479555D01*
X8067562Y-11479555D02*
X8048515Y-11498603D01*
X8048515Y-11498603D02*
X8029467Y-11508127D01*
X8267562Y-11450984D02*
X8286610Y-11450984D01*
X8286610Y-11450984D02*
X8305658Y-11460508D01*
X8305658Y-11460508D02*
X8315182Y-11470031D01*
X8315182Y-11470031D02*
X8324705Y-11489079D01*
X8324705Y-11489079D02*
X8334229Y-11527174D01*
X8334229Y-11527174D02*
X8334229Y-11574793D01*
X8334229Y-11574793D02*
X8324705Y-11612888D01*
X8324705Y-11612888D02*
X8315182Y-11631936D01*
X8315182Y-11631936D02*
X8305658Y-11641460D01*
X8305658Y-11641460D02*
X8286610Y-11650984D01*
X8286610Y-11650984D02*
X8267562Y-11650984D01*
X8267562Y-11650984D02*
X8248515Y-11641460D01*
X8248515Y-11641460D02*
X8238991Y-11631936D01*
X8238991Y-11631936D02*
X8229467Y-11612888D01*
X8229467Y-11612888D02*
X8219943Y-11574793D01*
X8219943Y-11574793D02*
X8219943Y-11527174D01*
X8219943Y-11527174D02*
X8229467Y-11489079D01*
X8229467Y-11489079D02*
X8238991Y-11470031D01*
X8238991Y-11470031D02*
X8248515Y-11460508D01*
X8248515Y-11460508D02*
X8267562Y-11450984D01*
X8458039Y-11450984D02*
X8477086Y-11450984D01*
X8477086Y-11450984D02*
X8496134Y-11460508D01*
X8496134Y-11460508D02*
X8505658Y-11470031D01*
X8505658Y-11470031D02*
X8515182Y-11489079D01*
X8515182Y-11489079D02*
X8524705Y-11527174D01*
X8524705Y-11527174D02*
X8524705Y-11574793D01*
X8524705Y-11574793D02*
X8515182Y-11612888D01*
X8515182Y-11612888D02*
X8505658Y-11631936D01*
X8505658Y-11631936D02*
X8496134Y-11641460D01*
X8496134Y-11641460D02*
X8477086Y-11650984D01*
X8477086Y-11650984D02*
X8458039Y-11650984D01*
X8458039Y-11650984D02*
X8438991Y-11641460D01*
X8438991Y-11641460D02*
X8429467Y-11631936D01*
X8429467Y-11631936D02*
X8419944Y-11612888D01*
X8419944Y-11612888D02*
X8410420Y-11574793D01*
X8410420Y-11574793D02*
X8410420Y-11527174D01*
X8410420Y-11527174D02*
X8419944Y-11489079D01*
X8419944Y-11489079D02*
X8429467Y-11470031D01*
X8429467Y-11470031D02*
X8438991Y-11460508D01*
X8438991Y-11460508D02*
X8458039Y-11450984D01*
X8610420Y-11650984D02*
X8610420Y-11517650D01*
X8610420Y-11536698D02*
X8619944Y-11527174D01*
X8619944Y-11527174D02*
X8638991Y-11517650D01*
X8638991Y-11517650D02*
X8667563Y-11517650D01*
X8667563Y-11517650D02*
X8686610Y-11527174D01*
X8686610Y-11527174D02*
X8696134Y-11546222D01*
X8696134Y-11546222D02*
X8696134Y-11650984D01*
X8696134Y-11546222D02*
X8705658Y-11527174D01*
X8705658Y-11527174D02*
X8724705Y-11517650D01*
X8724705Y-11517650D02*
X8753277Y-11517650D01*
X8753277Y-11517650D02*
X8772325Y-11527174D01*
X8772325Y-11527174D02*
X8781848Y-11546222D01*
X8781848Y-11546222D02*
X8781848Y-11650984D01*
X8877086Y-11650984D02*
X8877086Y-11517650D01*
X8877086Y-11536698D02*
X8886610Y-11527174D01*
X8886610Y-11527174D02*
X8905658Y-11517650D01*
X8905658Y-11517650D02*
X8934229Y-11517650D01*
X8934229Y-11517650D02*
X8953277Y-11527174D01*
X8953277Y-11527174D02*
X8962801Y-11546222D01*
X8962801Y-11546222D02*
X8962801Y-11650984D01*
X8962801Y-11546222D02*
X8972325Y-11527174D01*
X8972325Y-11527174D02*
X8991372Y-11517650D01*
X8991372Y-11517650D02*
X9019944Y-11517650D01*
X9019944Y-11517650D02*
X9038991Y-11527174D01*
X9038991Y-11527174D02*
X9048515Y-11546222D01*
X9048515Y-11546222D02*
X9048515Y-11650984D01*
X9438991Y-11441460D02*
X9267563Y-11698603D01*
X9696134Y-11450984D02*
X9715182Y-11450984D01*
X9715182Y-11450984D02*
X9734229Y-11460508D01*
X9734229Y-11460508D02*
X9743753Y-11470031D01*
X9743753Y-11470031D02*
X9753277Y-11489079D01*
X9753277Y-11489079D02*
X9762801Y-11527174D01*
X9762801Y-11527174D02*
X9762801Y-11574793D01*
X9762801Y-11574793D02*
X9753277Y-11612888D01*
X9753277Y-11612888D02*
X9743753Y-11631936D01*
X9743753Y-11631936D02*
X9734229Y-11641460D01*
X9734229Y-11641460D02*
X9715182Y-11650984D01*
X9715182Y-11650984D02*
X9696134Y-11650984D01*
X9696134Y-11650984D02*
X9677087Y-11641460D01*
X9677087Y-11641460D02*
X9667563Y-11631936D01*
X9667563Y-11631936D02*
X9658039Y-11612888D01*
X9658039Y-11612888D02*
X9648515Y-11574793D01*
X9648515Y-11574793D02*
X9648515Y-11527174D01*
X9648515Y-11527174D02*
X9658039Y-11489079D01*
X9658039Y-11489079D02*
X9667563Y-11470031D01*
X9667563Y-11470031D02*
X9677087Y-11460508D01*
X9677087Y-11460508D02*
X9696134Y-11450984D01*
X9848515Y-11631936D02*
X9858039Y-11641460D01*
X9858039Y-11641460D02*
X9848515Y-11650984D01*
X9848515Y-11650984D02*
X9838991Y-11641460D01*
X9838991Y-11641460D02*
X9848515Y-11631936D01*
X9848515Y-11631936D02*
X9848515Y-11650984D01*
X9981848Y-11450984D02*
X10000896Y-11450984D01*
X10000896Y-11450984D02*
X10019944Y-11460508D01*
X10019944Y-11460508D02*
X10029468Y-11470031D01*
X10029468Y-11470031D02*
X10038991Y-11489079D01*
X10038991Y-11489079D02*
X10048515Y-11527174D01*
X10048515Y-11527174D02*
X10048515Y-11574793D01*
X10048515Y-11574793D02*
X10038991Y-11612888D01*
X10038991Y-11612888D02*
X10029468Y-11631936D01*
X10029468Y-11631936D02*
X10019944Y-11641460D01*
X10019944Y-11641460D02*
X10000896Y-11650984D01*
X10000896Y-11650984D02*
X9981848Y-11650984D01*
X9981848Y-11650984D02*
X9962801Y-11641460D01*
X9962801Y-11641460D02*
X9953277Y-11631936D01*
X9953277Y-11631936D02*
X9943753Y-11612888D01*
X9943753Y-11612888D02*
X9934229Y-11574793D01*
X9934229Y-11574793D02*
X9934229Y-11527174D01*
X9934229Y-11527174D02*
X9943753Y-11489079D01*
X9943753Y-11489079D02*
X9953277Y-11470031D01*
X9953277Y-11470031D02*
X9962801Y-11460508D01*
X9962801Y-11460508D02*
X9981848Y-11450984D01*
X10219944Y-11517650D02*
X10219944Y-11650984D01*
X10172325Y-11441460D02*
X10124706Y-11584317D01*
X10124706Y-11584317D02*
X10248515Y-11584317D01*
X10305658Y-11450984D02*
X10429468Y-11450984D01*
X10429468Y-11450984D02*
X10362801Y-11527174D01*
X10362801Y-11527174D02*
X10391372Y-11527174D01*
X10391372Y-11527174D02*
X10410420Y-11536698D01*
X10410420Y-11536698D02*
X10419944Y-11546222D01*
X10419944Y-11546222D02*
X10429468Y-11565269D01*
X10429468Y-11565269D02*
X10429468Y-11612888D01*
X10429468Y-11612888D02*
X10419944Y-11631936D01*
X10419944Y-11631936D02*
X10410420Y-11641460D01*
X10410420Y-11641460D02*
X10391372Y-11650984D01*
X10391372Y-11650984D02*
X10334229Y-11650984D01*
X10334229Y-11650984D02*
X10315182Y-11641460D01*
X10315182Y-11641460D02*
X10305658Y-11631936D01*
X10496134Y-11450984D02*
X10619944Y-11450984D01*
X10619944Y-11450984D02*
X10553277Y-11527174D01*
X10553277Y-11527174D02*
X10581849Y-11527174D01*
X10581849Y-11527174D02*
X10600896Y-11536698D01*
X10600896Y-11536698D02*
X10610420Y-11546222D01*
X10610420Y-11546222D02*
X10619944Y-11565269D01*
X10619944Y-11565269D02*
X10619944Y-11612888D01*
X10619944Y-11612888D02*
X10610420Y-11631936D01*
X10610420Y-11631936D02*
X10600896Y-11641460D01*
X10600896Y-11641460D02*
X10581849Y-11650984D01*
X10581849Y-11650984D02*
X10524706Y-11650984D01*
X10524706Y-11650984D02*
X10505658Y-11641460D01*
X10505658Y-11641460D02*
X10496134Y-11631936D01*
X10696134Y-11450984D02*
X10696134Y-11489079D01*
X10772325Y-11450984D02*
X10772325Y-11489079D01*
X11067563Y-11727174D02*
X11058039Y-11717650D01*
X11058039Y-11717650D02*
X11038991Y-11689079D01*
X11038991Y-11689079D02*
X11029468Y-11670031D01*
X11029468Y-11670031D02*
X11019944Y-11641460D01*
X11019944Y-11641460D02*
X11010420Y-11593841D01*
X11010420Y-11593841D02*
X11010420Y-11555746D01*
X11010420Y-11555746D02*
X11019944Y-11508127D01*
X11019944Y-11508127D02*
X11029468Y-11479555D01*
X11029468Y-11479555D02*
X11038991Y-11460508D01*
X11038991Y-11460508D02*
X11058039Y-11431936D01*
X11058039Y-11431936D02*
X11067563Y-11422412D01*
X11172325Y-11536698D02*
X11153277Y-11527174D01*
X11153277Y-11527174D02*
X11143753Y-11517650D01*
X11143753Y-11517650D02*
X11134230Y-11498603D01*
X11134230Y-11498603D02*
X11134230Y-11489079D01*
X11134230Y-11489079D02*
X11143753Y-11470031D01*
X11143753Y-11470031D02*
X11153277Y-11460508D01*
X11153277Y-11460508D02*
X11172325Y-11450984D01*
X11172325Y-11450984D02*
X11210420Y-11450984D01*
X11210420Y-11450984D02*
X11229468Y-11460508D01*
X11229468Y-11460508D02*
X11238991Y-11470031D01*
X11238991Y-11470031D02*
X11248515Y-11489079D01*
X11248515Y-11489079D02*
X11248515Y-11498603D01*
X11248515Y-11498603D02*
X11238991Y-11517650D01*
X11238991Y-11517650D02*
X11229468Y-11527174D01*
X11229468Y-11527174D02*
X11210420Y-11536698D01*
X11210420Y-11536698D02*
X11172325Y-11536698D01*
X11172325Y-11536698D02*
X11153277Y-11546222D01*
X11153277Y-11546222D02*
X11143753Y-11555746D01*
X11143753Y-11555746D02*
X11134230Y-11574793D01*
X11134230Y-11574793D02*
X11134230Y-11612888D01*
X11134230Y-11612888D02*
X11143753Y-11631936D01*
X11143753Y-11631936D02*
X11153277Y-11641460D01*
X11153277Y-11641460D02*
X11172325Y-11650984D01*
X11172325Y-11650984D02*
X11210420Y-11650984D01*
X11210420Y-11650984D02*
X11229468Y-11641460D01*
X11229468Y-11641460D02*
X11238991Y-11631936D01*
X11238991Y-11631936D02*
X11248515Y-11612888D01*
X11248515Y-11612888D02*
X11248515Y-11574793D01*
X11248515Y-11574793D02*
X11238991Y-11555746D01*
X11238991Y-11555746D02*
X11229468Y-11546222D01*
X11229468Y-11546222D02*
X11210420Y-11536698D01*
X11486610Y-11650984D02*
X11486610Y-11450984D01*
X11572325Y-11650984D02*
X11572325Y-11546222D01*
X11572325Y-11546222D02*
X11562801Y-11527174D01*
X11562801Y-11527174D02*
X11543753Y-11517650D01*
X11543753Y-11517650D02*
X11515182Y-11517650D01*
X11515182Y-11517650D02*
X11496134Y-11527174D01*
X11496134Y-11527174D02*
X11486610Y-11536698D01*
X11696134Y-11650984D02*
X11677087Y-11641460D01*
X11677087Y-11641460D02*
X11667563Y-11631936D01*
X11667563Y-11631936D02*
X11658039Y-11612888D01*
X11658039Y-11612888D02*
X11658039Y-11555746D01*
X11658039Y-11555746D02*
X11667563Y-11536698D01*
X11667563Y-11536698D02*
X11677087Y-11527174D01*
X11677087Y-11527174D02*
X11696134Y-11517650D01*
X11696134Y-11517650D02*
X11724706Y-11517650D01*
X11724706Y-11517650D02*
X11743753Y-11527174D01*
X11743753Y-11527174D02*
X11753277Y-11536698D01*
X11753277Y-11536698D02*
X11762801Y-11555746D01*
X11762801Y-11555746D02*
X11762801Y-11612888D01*
X11762801Y-11612888D02*
X11753277Y-11631936D01*
X11753277Y-11631936D02*
X11743753Y-11641460D01*
X11743753Y-11641460D02*
X11724706Y-11650984D01*
X11724706Y-11650984D02*
X11696134Y-11650984D01*
X11877087Y-11650984D02*
X11858039Y-11641460D01*
X11858039Y-11641460D02*
X11848515Y-11622412D01*
X11848515Y-11622412D02*
X11848515Y-11450984D01*
X12029468Y-11641460D02*
X12010420Y-11650984D01*
X12010420Y-11650984D02*
X11972325Y-11650984D01*
X11972325Y-11650984D02*
X11953277Y-11641460D01*
X11953277Y-11641460D02*
X11943753Y-11622412D01*
X11943753Y-11622412D02*
X11943753Y-11546222D01*
X11943753Y-11546222D02*
X11953277Y-11527174D01*
X11953277Y-11527174D02*
X11972325Y-11517650D01*
X11972325Y-11517650D02*
X12010420Y-11517650D01*
X12010420Y-11517650D02*
X12029468Y-11527174D01*
X12029468Y-11527174D02*
X12038991Y-11546222D01*
X12038991Y-11546222D02*
X12038991Y-11565269D01*
X12038991Y-11565269D02*
X11943753Y-11584317D01*
X12115182Y-11641460D02*
X12134230Y-11650984D01*
X12134230Y-11650984D02*
X12172325Y-11650984D01*
X12172325Y-11650984D02*
X12191372Y-11641460D01*
X12191372Y-11641460D02*
X12200896Y-11622412D01*
X12200896Y-11622412D02*
X12200896Y-11612888D01*
X12200896Y-11612888D02*
X12191372Y-11593841D01*
X12191372Y-11593841D02*
X12172325Y-11584317D01*
X12172325Y-11584317D02*
X12143753Y-11584317D01*
X12143753Y-11584317D02*
X12124706Y-11574793D01*
X12124706Y-11574793D02*
X12115182Y-11555746D01*
X12115182Y-11555746D02*
X12115182Y-11546222D01*
X12115182Y-11546222D02*
X12124706Y-11527174D01*
X12124706Y-11527174D02*
X12143753Y-11517650D01*
X12143753Y-11517650D02*
X12172325Y-11517650D01*
X12172325Y-11517650D02*
X12191372Y-11527174D01*
X12267563Y-11727174D02*
X12277087Y-11717650D01*
X12277087Y-11717650D02*
X12296134Y-11689079D01*
X12296134Y-11689079D02*
X12305658Y-11670031D01*
X12305658Y-11670031D02*
X12315182Y-11641460D01*
X12315182Y-11641460D02*
X12324706Y-11593841D01*
X12324706Y-11593841D02*
X12324706Y-11555746D01*
X12324706Y-11555746D02*
X12315182Y-11508127D01*
X12315182Y-11508127D02*
X12305658Y-11479555D01*
X12305658Y-11479555D02*
X12296134Y-11460508D01*
X12296134Y-11460508D02*
X12277087Y-11431936D01*
X12277087Y-11431936D02*
X12267563Y-11422412D01*
D14*
X7432500Y-11883500D02*
X7492500Y-11823500D01*
X7432500Y-11763500D01*
X7372500Y-11823500D01*
X7432500Y-11883500D01*
D11*
X7858039Y-11914984D02*
X7743753Y-11914984D01*
X7800896Y-11914984D02*
X7800896Y-11714984D01*
X7800896Y-11714984D02*
X7781848Y-11743555D01*
X7781848Y-11743555D02*
X7762801Y-11762603D01*
X7762801Y-11762603D02*
X7743753Y-11772127D01*
X7943753Y-11895936D02*
X7953277Y-11905460D01*
X7953277Y-11905460D02*
X7943753Y-11914984D01*
X7943753Y-11914984D02*
X7934229Y-11905460D01*
X7934229Y-11905460D02*
X7943753Y-11895936D01*
X7943753Y-11895936D02*
X7943753Y-11914984D01*
X8029467Y-11734031D02*
X8038991Y-11724508D01*
X8038991Y-11724508D02*
X8058039Y-11714984D01*
X8058039Y-11714984D02*
X8105658Y-11714984D01*
X8105658Y-11714984D02*
X8124705Y-11724508D01*
X8124705Y-11724508D02*
X8134229Y-11734031D01*
X8134229Y-11734031D02*
X8143753Y-11753079D01*
X8143753Y-11753079D02*
X8143753Y-11772127D01*
X8143753Y-11772127D02*
X8134229Y-11800698D01*
X8134229Y-11800698D02*
X8019943Y-11914984D01*
X8019943Y-11914984D02*
X8143753Y-11914984D01*
X8267562Y-11714984D02*
X8286610Y-11714984D01*
X8286610Y-11714984D02*
X8305658Y-11724508D01*
X8305658Y-11724508D02*
X8315182Y-11734031D01*
X8315182Y-11734031D02*
X8324705Y-11753079D01*
X8324705Y-11753079D02*
X8334229Y-11791174D01*
X8334229Y-11791174D02*
X8334229Y-11838793D01*
X8334229Y-11838793D02*
X8324705Y-11876888D01*
X8324705Y-11876888D02*
X8315182Y-11895936D01*
X8315182Y-11895936D02*
X8305658Y-11905460D01*
X8305658Y-11905460D02*
X8286610Y-11914984D01*
X8286610Y-11914984D02*
X8267562Y-11914984D01*
X8267562Y-11914984D02*
X8248515Y-11905460D01*
X8248515Y-11905460D02*
X8238991Y-11895936D01*
X8238991Y-11895936D02*
X8229467Y-11876888D01*
X8229467Y-11876888D02*
X8219943Y-11838793D01*
X8219943Y-11838793D02*
X8219943Y-11791174D01*
X8219943Y-11791174D02*
X8229467Y-11753079D01*
X8229467Y-11753079D02*
X8238991Y-11734031D01*
X8238991Y-11734031D02*
X8248515Y-11724508D01*
X8248515Y-11724508D02*
X8267562Y-11714984D01*
X8458039Y-11714984D02*
X8477086Y-11714984D01*
X8477086Y-11714984D02*
X8496134Y-11724508D01*
X8496134Y-11724508D02*
X8505658Y-11734031D01*
X8505658Y-11734031D02*
X8515182Y-11753079D01*
X8515182Y-11753079D02*
X8524705Y-11791174D01*
X8524705Y-11791174D02*
X8524705Y-11838793D01*
X8524705Y-11838793D02*
X8515182Y-11876888D01*
X8515182Y-11876888D02*
X8505658Y-11895936D01*
X8505658Y-11895936D02*
X8496134Y-11905460D01*
X8496134Y-11905460D02*
X8477086Y-11914984D01*
X8477086Y-11914984D02*
X8458039Y-11914984D01*
X8458039Y-11914984D02*
X8438991Y-11905460D01*
X8438991Y-11905460D02*
X8429467Y-11895936D01*
X8429467Y-11895936D02*
X8419944Y-11876888D01*
X8419944Y-11876888D02*
X8410420Y-11838793D01*
X8410420Y-11838793D02*
X8410420Y-11791174D01*
X8410420Y-11791174D02*
X8419944Y-11753079D01*
X8419944Y-11753079D02*
X8429467Y-11734031D01*
X8429467Y-11734031D02*
X8438991Y-11724508D01*
X8438991Y-11724508D02*
X8458039Y-11714984D01*
X8610420Y-11914984D02*
X8610420Y-11781650D01*
X8610420Y-11800698D02*
X8619944Y-11791174D01*
X8619944Y-11791174D02*
X8638991Y-11781650D01*
X8638991Y-11781650D02*
X8667563Y-11781650D01*
X8667563Y-11781650D02*
X8686610Y-11791174D01*
X8686610Y-11791174D02*
X8696134Y-11810222D01*
X8696134Y-11810222D02*
X8696134Y-11914984D01*
X8696134Y-11810222D02*
X8705658Y-11791174D01*
X8705658Y-11791174D02*
X8724705Y-11781650D01*
X8724705Y-11781650D02*
X8753277Y-11781650D01*
X8753277Y-11781650D02*
X8772325Y-11791174D01*
X8772325Y-11791174D02*
X8781848Y-11810222D01*
X8781848Y-11810222D02*
X8781848Y-11914984D01*
X8877086Y-11914984D02*
X8877086Y-11781650D01*
X8877086Y-11800698D02*
X8886610Y-11791174D01*
X8886610Y-11791174D02*
X8905658Y-11781650D01*
X8905658Y-11781650D02*
X8934229Y-11781650D01*
X8934229Y-11781650D02*
X8953277Y-11791174D01*
X8953277Y-11791174D02*
X8962801Y-11810222D01*
X8962801Y-11810222D02*
X8962801Y-11914984D01*
X8962801Y-11810222D02*
X8972325Y-11791174D01*
X8972325Y-11791174D02*
X8991372Y-11781650D01*
X8991372Y-11781650D02*
X9019944Y-11781650D01*
X9019944Y-11781650D02*
X9038991Y-11791174D01*
X9038991Y-11791174D02*
X9048515Y-11810222D01*
X9048515Y-11810222D02*
X9048515Y-11914984D01*
X9438991Y-11705460D02*
X9267563Y-11962603D01*
X9696134Y-11714984D02*
X9715182Y-11714984D01*
X9715182Y-11714984D02*
X9734229Y-11724508D01*
X9734229Y-11724508D02*
X9743753Y-11734031D01*
X9743753Y-11734031D02*
X9753277Y-11753079D01*
X9753277Y-11753079D02*
X9762801Y-11791174D01*
X9762801Y-11791174D02*
X9762801Y-11838793D01*
X9762801Y-11838793D02*
X9753277Y-11876888D01*
X9753277Y-11876888D02*
X9743753Y-11895936D01*
X9743753Y-11895936D02*
X9734229Y-11905460D01*
X9734229Y-11905460D02*
X9715182Y-11914984D01*
X9715182Y-11914984D02*
X9696134Y-11914984D01*
X9696134Y-11914984D02*
X9677087Y-11905460D01*
X9677087Y-11905460D02*
X9667563Y-11895936D01*
X9667563Y-11895936D02*
X9658039Y-11876888D01*
X9658039Y-11876888D02*
X9648515Y-11838793D01*
X9648515Y-11838793D02*
X9648515Y-11791174D01*
X9648515Y-11791174D02*
X9658039Y-11753079D01*
X9658039Y-11753079D02*
X9667563Y-11734031D01*
X9667563Y-11734031D02*
X9677087Y-11724508D01*
X9677087Y-11724508D02*
X9696134Y-11714984D01*
X9848515Y-11895936D02*
X9858039Y-11905460D01*
X9858039Y-11905460D02*
X9848515Y-11914984D01*
X9848515Y-11914984D02*
X9838991Y-11905460D01*
X9838991Y-11905460D02*
X9848515Y-11895936D01*
X9848515Y-11895936D02*
X9848515Y-11914984D01*
X9981848Y-11714984D02*
X10000896Y-11714984D01*
X10000896Y-11714984D02*
X10019944Y-11724508D01*
X10019944Y-11724508D02*
X10029468Y-11734031D01*
X10029468Y-11734031D02*
X10038991Y-11753079D01*
X10038991Y-11753079D02*
X10048515Y-11791174D01*
X10048515Y-11791174D02*
X10048515Y-11838793D01*
X10048515Y-11838793D02*
X10038991Y-11876888D01*
X10038991Y-11876888D02*
X10029468Y-11895936D01*
X10029468Y-11895936D02*
X10019944Y-11905460D01*
X10019944Y-11905460D02*
X10000896Y-11914984D01*
X10000896Y-11914984D02*
X9981848Y-11914984D01*
X9981848Y-11914984D02*
X9962801Y-11905460D01*
X9962801Y-11905460D02*
X9953277Y-11895936D01*
X9953277Y-11895936D02*
X9943753Y-11876888D01*
X9943753Y-11876888D02*
X9934229Y-11838793D01*
X9934229Y-11838793D02*
X9934229Y-11791174D01*
X9934229Y-11791174D02*
X9943753Y-11753079D01*
X9943753Y-11753079D02*
X9953277Y-11734031D01*
X9953277Y-11734031D02*
X9962801Y-11724508D01*
X9962801Y-11724508D02*
X9981848Y-11714984D01*
X10219944Y-11781650D02*
X10219944Y-11914984D01*
X10172325Y-11705460D02*
X10124706Y-11848317D01*
X10124706Y-11848317D02*
X10248515Y-11848317D01*
X10305658Y-11714984D02*
X10438991Y-11714984D01*
X10438991Y-11714984D02*
X10353277Y-11914984D01*
X10505658Y-11734031D02*
X10515182Y-11724508D01*
X10515182Y-11724508D02*
X10534229Y-11714984D01*
X10534229Y-11714984D02*
X10581849Y-11714984D01*
X10581849Y-11714984D02*
X10600896Y-11724508D01*
X10600896Y-11724508D02*
X10610420Y-11734031D01*
X10610420Y-11734031D02*
X10619944Y-11753079D01*
X10619944Y-11753079D02*
X10619944Y-11772127D01*
X10619944Y-11772127D02*
X10610420Y-11800698D01*
X10610420Y-11800698D02*
X10496134Y-11914984D01*
X10496134Y-11914984D02*
X10619944Y-11914984D01*
X10696134Y-11714984D02*
X10696134Y-11753079D01*
X10772325Y-11714984D02*
X10772325Y-11753079D01*
X11067563Y-11991174D02*
X11058039Y-11981650D01*
X11058039Y-11981650D02*
X11038991Y-11953079D01*
X11038991Y-11953079D02*
X11029468Y-11934031D01*
X11029468Y-11934031D02*
X11019944Y-11905460D01*
X11019944Y-11905460D02*
X11010420Y-11857841D01*
X11010420Y-11857841D02*
X11010420Y-11819746D01*
X11010420Y-11819746D02*
X11019944Y-11772127D01*
X11019944Y-11772127D02*
X11029468Y-11743555D01*
X11029468Y-11743555D02*
X11038991Y-11724508D01*
X11038991Y-11724508D02*
X11058039Y-11695936D01*
X11058039Y-11695936D02*
X11067563Y-11686412D01*
X11229468Y-11714984D02*
X11191372Y-11714984D01*
X11191372Y-11714984D02*
X11172325Y-11724508D01*
X11172325Y-11724508D02*
X11162801Y-11734031D01*
X11162801Y-11734031D02*
X11143753Y-11762603D01*
X11143753Y-11762603D02*
X11134230Y-11800698D01*
X11134230Y-11800698D02*
X11134230Y-11876888D01*
X11134230Y-11876888D02*
X11143753Y-11895936D01*
X11143753Y-11895936D02*
X11153277Y-11905460D01*
X11153277Y-11905460D02*
X11172325Y-11914984D01*
X11172325Y-11914984D02*
X11210420Y-11914984D01*
X11210420Y-11914984D02*
X11229468Y-11905460D01*
X11229468Y-11905460D02*
X11238991Y-11895936D01*
X11238991Y-11895936D02*
X11248515Y-11876888D01*
X11248515Y-11876888D02*
X11248515Y-11829269D01*
X11248515Y-11829269D02*
X11238991Y-11810222D01*
X11238991Y-11810222D02*
X11229468Y-11800698D01*
X11229468Y-11800698D02*
X11210420Y-11791174D01*
X11210420Y-11791174D02*
X11172325Y-11791174D01*
X11172325Y-11791174D02*
X11153277Y-11800698D01*
X11153277Y-11800698D02*
X11143753Y-11810222D01*
X11143753Y-11810222D02*
X11134230Y-11829269D01*
X11486610Y-11914984D02*
X11486610Y-11714984D01*
X11572325Y-11914984D02*
X11572325Y-11810222D01*
X11572325Y-11810222D02*
X11562801Y-11791174D01*
X11562801Y-11791174D02*
X11543753Y-11781650D01*
X11543753Y-11781650D02*
X11515182Y-11781650D01*
X11515182Y-11781650D02*
X11496134Y-11791174D01*
X11496134Y-11791174D02*
X11486610Y-11800698D01*
X11696134Y-11914984D02*
X11677087Y-11905460D01*
X11677087Y-11905460D02*
X11667563Y-11895936D01*
X11667563Y-11895936D02*
X11658039Y-11876888D01*
X11658039Y-11876888D02*
X11658039Y-11819746D01*
X11658039Y-11819746D02*
X11667563Y-11800698D01*
X11667563Y-11800698D02*
X11677087Y-11791174D01*
X11677087Y-11791174D02*
X11696134Y-11781650D01*
X11696134Y-11781650D02*
X11724706Y-11781650D01*
X11724706Y-11781650D02*
X11743753Y-11791174D01*
X11743753Y-11791174D02*
X11753277Y-11800698D01*
X11753277Y-11800698D02*
X11762801Y-11819746D01*
X11762801Y-11819746D02*
X11762801Y-11876888D01*
X11762801Y-11876888D02*
X11753277Y-11895936D01*
X11753277Y-11895936D02*
X11743753Y-11905460D01*
X11743753Y-11905460D02*
X11724706Y-11914984D01*
X11724706Y-11914984D02*
X11696134Y-11914984D01*
X11877087Y-11914984D02*
X11858039Y-11905460D01*
X11858039Y-11905460D02*
X11848515Y-11886412D01*
X11848515Y-11886412D02*
X11848515Y-11714984D01*
X12029468Y-11905460D02*
X12010420Y-11914984D01*
X12010420Y-11914984D02*
X11972325Y-11914984D01*
X11972325Y-11914984D02*
X11953277Y-11905460D01*
X11953277Y-11905460D02*
X11943753Y-11886412D01*
X11943753Y-11886412D02*
X11943753Y-11810222D01*
X11943753Y-11810222D02*
X11953277Y-11791174D01*
X11953277Y-11791174D02*
X11972325Y-11781650D01*
X11972325Y-11781650D02*
X12010420Y-11781650D01*
X12010420Y-11781650D02*
X12029468Y-11791174D01*
X12029468Y-11791174D02*
X12038991Y-11810222D01*
X12038991Y-11810222D02*
X12038991Y-11829269D01*
X12038991Y-11829269D02*
X11943753Y-11848317D01*
X12115182Y-11905460D02*
X12134230Y-11914984D01*
X12134230Y-11914984D02*
X12172325Y-11914984D01*
X12172325Y-11914984D02*
X12191372Y-11905460D01*
X12191372Y-11905460D02*
X12200896Y-11886412D01*
X12200896Y-11886412D02*
X12200896Y-11876888D01*
X12200896Y-11876888D02*
X12191372Y-11857841D01*
X12191372Y-11857841D02*
X12172325Y-11848317D01*
X12172325Y-11848317D02*
X12143753Y-11848317D01*
X12143753Y-11848317D02*
X12124706Y-11838793D01*
X12124706Y-11838793D02*
X12115182Y-11819746D01*
X12115182Y-11819746D02*
X12115182Y-11810222D01*
X12115182Y-11810222D02*
X12124706Y-11791174D01*
X12124706Y-11791174D02*
X12143753Y-11781650D01*
X12143753Y-11781650D02*
X12172325Y-11781650D01*
X12172325Y-11781650D02*
X12191372Y-11791174D01*
X12267563Y-11991174D02*
X12277087Y-11981650D01*
X12277087Y-11981650D02*
X12296134Y-11953079D01*
X12296134Y-11953079D02*
X12305658Y-11934031D01*
X12305658Y-11934031D02*
X12315182Y-11905460D01*
X12315182Y-11905460D02*
X12324706Y-11857841D01*
X12324706Y-11857841D02*
X12324706Y-11819746D01*
X12324706Y-11819746D02*
X12315182Y-11772127D01*
X12315182Y-11772127D02*
X12305658Y-11743555D01*
X12305658Y-11743555D02*
X12296134Y-11724508D01*
X12296134Y-11724508D02*
X12277087Y-11695936D01*
X12277087Y-11695936D02*
X12267563Y-11686412D01*
D15*
X7342500Y-12012500D02*
X7492500Y-12162500D01*
X7492500Y-12012500D02*
X7342500Y-12162500D01*
X7492500Y-12087500D02*
G75*
G02*
X7342500Y-12087500I-75000J0D01*
G01*
X7342500Y-12087500D02*
G75*
G02*
X7492500Y-12087500I75000J0D01*
G01*
D11*
X7858039Y-12178984D02*
X7743753Y-12178984D01*
X7800896Y-12178984D02*
X7800896Y-11978984D01*
X7800896Y-11978984D02*
X7781848Y-12007555D01*
X7781848Y-12007555D02*
X7762801Y-12026603D01*
X7762801Y-12026603D02*
X7743753Y-12036127D01*
X7943753Y-12159936D02*
X7953277Y-12169460D01*
X7953277Y-12169460D02*
X7943753Y-12178984D01*
X7943753Y-12178984D02*
X7934229Y-12169460D01*
X7934229Y-12169460D02*
X7943753Y-12159936D01*
X7943753Y-12159936D02*
X7943753Y-12178984D01*
X8134229Y-11978984D02*
X8038991Y-11978984D01*
X8038991Y-11978984D02*
X8029467Y-12074222D01*
X8029467Y-12074222D02*
X8038991Y-12064698D01*
X8038991Y-12064698D02*
X8058039Y-12055174D01*
X8058039Y-12055174D02*
X8105658Y-12055174D01*
X8105658Y-12055174D02*
X8124705Y-12064698D01*
X8124705Y-12064698D02*
X8134229Y-12074222D01*
X8134229Y-12074222D02*
X8143753Y-12093269D01*
X8143753Y-12093269D02*
X8143753Y-12140888D01*
X8143753Y-12140888D02*
X8134229Y-12159936D01*
X8134229Y-12159936D02*
X8124705Y-12169460D01*
X8124705Y-12169460D02*
X8105658Y-12178984D01*
X8105658Y-12178984D02*
X8058039Y-12178984D01*
X8058039Y-12178984D02*
X8038991Y-12169460D01*
X8038991Y-12169460D02*
X8029467Y-12159936D01*
X8267562Y-11978984D02*
X8286610Y-11978984D01*
X8286610Y-11978984D02*
X8305658Y-11988508D01*
X8305658Y-11988508D02*
X8315182Y-11998031D01*
X8315182Y-11998031D02*
X8324705Y-12017079D01*
X8324705Y-12017079D02*
X8334229Y-12055174D01*
X8334229Y-12055174D02*
X8334229Y-12102793D01*
X8334229Y-12102793D02*
X8324705Y-12140888D01*
X8324705Y-12140888D02*
X8315182Y-12159936D01*
X8315182Y-12159936D02*
X8305658Y-12169460D01*
X8305658Y-12169460D02*
X8286610Y-12178984D01*
X8286610Y-12178984D02*
X8267562Y-12178984D01*
X8267562Y-12178984D02*
X8248515Y-12169460D01*
X8248515Y-12169460D02*
X8238991Y-12159936D01*
X8238991Y-12159936D02*
X8229467Y-12140888D01*
X8229467Y-12140888D02*
X8219943Y-12102793D01*
X8219943Y-12102793D02*
X8219943Y-12055174D01*
X8219943Y-12055174D02*
X8229467Y-12017079D01*
X8229467Y-12017079D02*
X8238991Y-11998031D01*
X8238991Y-11998031D02*
X8248515Y-11988508D01*
X8248515Y-11988508D02*
X8267562Y-11978984D01*
X8458039Y-11978984D02*
X8477086Y-11978984D01*
X8477086Y-11978984D02*
X8496134Y-11988508D01*
X8496134Y-11988508D02*
X8505658Y-11998031D01*
X8505658Y-11998031D02*
X8515182Y-12017079D01*
X8515182Y-12017079D02*
X8524705Y-12055174D01*
X8524705Y-12055174D02*
X8524705Y-12102793D01*
X8524705Y-12102793D02*
X8515182Y-12140888D01*
X8515182Y-12140888D02*
X8505658Y-12159936D01*
X8505658Y-12159936D02*
X8496134Y-12169460D01*
X8496134Y-12169460D02*
X8477086Y-12178984D01*
X8477086Y-12178984D02*
X8458039Y-12178984D01*
X8458039Y-12178984D02*
X8438991Y-12169460D01*
X8438991Y-12169460D02*
X8429467Y-12159936D01*
X8429467Y-12159936D02*
X8419944Y-12140888D01*
X8419944Y-12140888D02*
X8410420Y-12102793D01*
X8410420Y-12102793D02*
X8410420Y-12055174D01*
X8410420Y-12055174D02*
X8419944Y-12017079D01*
X8419944Y-12017079D02*
X8429467Y-11998031D01*
X8429467Y-11998031D02*
X8438991Y-11988508D01*
X8438991Y-11988508D02*
X8458039Y-11978984D01*
X8610420Y-12178984D02*
X8610420Y-12045650D01*
X8610420Y-12064698D02*
X8619944Y-12055174D01*
X8619944Y-12055174D02*
X8638991Y-12045650D01*
X8638991Y-12045650D02*
X8667563Y-12045650D01*
X8667563Y-12045650D02*
X8686610Y-12055174D01*
X8686610Y-12055174D02*
X8696134Y-12074222D01*
X8696134Y-12074222D02*
X8696134Y-12178984D01*
X8696134Y-12074222D02*
X8705658Y-12055174D01*
X8705658Y-12055174D02*
X8724705Y-12045650D01*
X8724705Y-12045650D02*
X8753277Y-12045650D01*
X8753277Y-12045650D02*
X8772325Y-12055174D01*
X8772325Y-12055174D02*
X8781848Y-12074222D01*
X8781848Y-12074222D02*
X8781848Y-12178984D01*
X8877086Y-12178984D02*
X8877086Y-12045650D01*
X8877086Y-12064698D02*
X8886610Y-12055174D01*
X8886610Y-12055174D02*
X8905658Y-12045650D01*
X8905658Y-12045650D02*
X8934229Y-12045650D01*
X8934229Y-12045650D02*
X8953277Y-12055174D01*
X8953277Y-12055174D02*
X8962801Y-12074222D01*
X8962801Y-12074222D02*
X8962801Y-12178984D01*
X8962801Y-12074222D02*
X8972325Y-12055174D01*
X8972325Y-12055174D02*
X8991372Y-12045650D01*
X8991372Y-12045650D02*
X9019944Y-12045650D01*
X9019944Y-12045650D02*
X9038991Y-12055174D01*
X9038991Y-12055174D02*
X9048515Y-12074222D01*
X9048515Y-12074222D02*
X9048515Y-12178984D01*
X9438991Y-11969460D02*
X9267563Y-12226603D01*
X9696134Y-11978984D02*
X9715182Y-11978984D01*
X9715182Y-11978984D02*
X9734229Y-11988508D01*
X9734229Y-11988508D02*
X9743753Y-11998031D01*
X9743753Y-11998031D02*
X9753277Y-12017079D01*
X9753277Y-12017079D02*
X9762801Y-12055174D01*
X9762801Y-12055174D02*
X9762801Y-12102793D01*
X9762801Y-12102793D02*
X9753277Y-12140888D01*
X9753277Y-12140888D02*
X9743753Y-12159936D01*
X9743753Y-12159936D02*
X9734229Y-12169460D01*
X9734229Y-12169460D02*
X9715182Y-12178984D01*
X9715182Y-12178984D02*
X9696134Y-12178984D01*
X9696134Y-12178984D02*
X9677087Y-12169460D01*
X9677087Y-12169460D02*
X9667563Y-12159936D01*
X9667563Y-12159936D02*
X9658039Y-12140888D01*
X9658039Y-12140888D02*
X9648515Y-12102793D01*
X9648515Y-12102793D02*
X9648515Y-12055174D01*
X9648515Y-12055174D02*
X9658039Y-12017079D01*
X9658039Y-12017079D02*
X9667563Y-11998031D01*
X9667563Y-11998031D02*
X9677087Y-11988508D01*
X9677087Y-11988508D02*
X9696134Y-11978984D01*
X9848515Y-12159936D02*
X9858039Y-12169460D01*
X9858039Y-12169460D02*
X9848515Y-12178984D01*
X9848515Y-12178984D02*
X9838991Y-12169460D01*
X9838991Y-12169460D02*
X9848515Y-12159936D01*
X9848515Y-12159936D02*
X9848515Y-12178984D01*
X9981848Y-11978984D02*
X10000896Y-11978984D01*
X10000896Y-11978984D02*
X10019944Y-11988508D01*
X10019944Y-11988508D02*
X10029468Y-11998031D01*
X10029468Y-11998031D02*
X10038991Y-12017079D01*
X10038991Y-12017079D02*
X10048515Y-12055174D01*
X10048515Y-12055174D02*
X10048515Y-12102793D01*
X10048515Y-12102793D02*
X10038991Y-12140888D01*
X10038991Y-12140888D02*
X10029468Y-12159936D01*
X10029468Y-12159936D02*
X10019944Y-12169460D01*
X10019944Y-12169460D02*
X10000896Y-12178984D01*
X10000896Y-12178984D02*
X9981848Y-12178984D01*
X9981848Y-12178984D02*
X9962801Y-12169460D01*
X9962801Y-12169460D02*
X9953277Y-12159936D01*
X9953277Y-12159936D02*
X9943753Y-12140888D01*
X9943753Y-12140888D02*
X9934229Y-12102793D01*
X9934229Y-12102793D02*
X9934229Y-12055174D01*
X9934229Y-12055174D02*
X9943753Y-12017079D01*
X9943753Y-12017079D02*
X9953277Y-11998031D01*
X9953277Y-11998031D02*
X9962801Y-11988508D01*
X9962801Y-11988508D02*
X9981848Y-11978984D01*
X10229468Y-11978984D02*
X10134229Y-11978984D01*
X10134229Y-11978984D02*
X10124706Y-12074222D01*
X10124706Y-12074222D02*
X10134229Y-12064698D01*
X10134229Y-12064698D02*
X10153277Y-12055174D01*
X10153277Y-12055174D02*
X10200896Y-12055174D01*
X10200896Y-12055174D02*
X10219944Y-12064698D01*
X10219944Y-12064698D02*
X10229468Y-12074222D01*
X10229468Y-12074222D02*
X10238991Y-12093269D01*
X10238991Y-12093269D02*
X10238991Y-12140888D01*
X10238991Y-12140888D02*
X10229468Y-12159936D01*
X10229468Y-12159936D02*
X10219944Y-12169460D01*
X10219944Y-12169460D02*
X10200896Y-12178984D01*
X10200896Y-12178984D02*
X10153277Y-12178984D01*
X10153277Y-12178984D02*
X10134229Y-12169460D01*
X10134229Y-12169460D02*
X10124706Y-12159936D01*
X10334229Y-12178984D02*
X10372325Y-12178984D01*
X10372325Y-12178984D02*
X10391372Y-12169460D01*
X10391372Y-12169460D02*
X10400896Y-12159936D01*
X10400896Y-12159936D02*
X10419944Y-12131365D01*
X10419944Y-12131365D02*
X10429468Y-12093269D01*
X10429468Y-12093269D02*
X10429468Y-12017079D01*
X10429468Y-12017079D02*
X10419944Y-11998031D01*
X10419944Y-11998031D02*
X10410420Y-11988508D01*
X10410420Y-11988508D02*
X10391372Y-11978984D01*
X10391372Y-11978984D02*
X10353277Y-11978984D01*
X10353277Y-11978984D02*
X10334229Y-11988508D01*
X10334229Y-11988508D02*
X10324706Y-11998031D01*
X10324706Y-11998031D02*
X10315182Y-12017079D01*
X10315182Y-12017079D02*
X10315182Y-12064698D01*
X10315182Y-12064698D02*
X10324706Y-12083746D01*
X10324706Y-12083746D02*
X10334229Y-12093269D01*
X10334229Y-12093269D02*
X10353277Y-12102793D01*
X10353277Y-12102793D02*
X10391372Y-12102793D01*
X10391372Y-12102793D02*
X10410420Y-12093269D01*
X10410420Y-12093269D02*
X10419944Y-12083746D01*
X10419944Y-12083746D02*
X10429468Y-12064698D01*
X10619944Y-12178984D02*
X10505658Y-12178984D01*
X10562801Y-12178984D02*
X10562801Y-11978984D01*
X10562801Y-11978984D02*
X10543753Y-12007555D01*
X10543753Y-12007555D02*
X10524706Y-12026603D01*
X10524706Y-12026603D02*
X10505658Y-12036127D01*
X10696134Y-11978984D02*
X10696134Y-12017079D01*
X10772325Y-11978984D02*
X10772325Y-12017079D01*
X11067563Y-12255174D02*
X11058039Y-12245650D01*
X11058039Y-12245650D02*
X11038991Y-12217079D01*
X11038991Y-12217079D02*
X11029468Y-12198031D01*
X11029468Y-12198031D02*
X11019944Y-12169460D01*
X11019944Y-12169460D02*
X11010420Y-12121841D01*
X11010420Y-12121841D02*
X11010420Y-12083746D01*
X11010420Y-12083746D02*
X11019944Y-12036127D01*
X11019944Y-12036127D02*
X11029468Y-12007555D01*
X11029468Y-12007555D02*
X11038991Y-11988508D01*
X11038991Y-11988508D02*
X11058039Y-11959936D01*
X11058039Y-11959936D02*
X11067563Y-11950412D01*
X11134230Y-11998031D02*
X11143753Y-11988508D01*
X11143753Y-11988508D02*
X11162801Y-11978984D01*
X11162801Y-11978984D02*
X11210420Y-11978984D01*
X11210420Y-11978984D02*
X11229468Y-11988508D01*
X11229468Y-11988508D02*
X11238991Y-11998031D01*
X11238991Y-11998031D02*
X11248515Y-12017079D01*
X11248515Y-12017079D02*
X11248515Y-12036127D01*
X11248515Y-12036127D02*
X11238991Y-12064698D01*
X11238991Y-12064698D02*
X11124706Y-12178984D01*
X11124706Y-12178984D02*
X11248515Y-12178984D01*
X11486610Y-12178984D02*
X11486610Y-11978984D01*
X11572325Y-12178984D02*
X11572325Y-12074222D01*
X11572325Y-12074222D02*
X11562801Y-12055174D01*
X11562801Y-12055174D02*
X11543753Y-12045650D01*
X11543753Y-12045650D02*
X11515182Y-12045650D01*
X11515182Y-12045650D02*
X11496134Y-12055174D01*
X11496134Y-12055174D02*
X11486610Y-12064698D01*
X11696134Y-12178984D02*
X11677087Y-12169460D01*
X11677087Y-12169460D02*
X11667563Y-12159936D01*
X11667563Y-12159936D02*
X11658039Y-12140888D01*
X11658039Y-12140888D02*
X11658039Y-12083746D01*
X11658039Y-12083746D02*
X11667563Y-12064698D01*
X11667563Y-12064698D02*
X11677087Y-12055174D01*
X11677087Y-12055174D02*
X11696134Y-12045650D01*
X11696134Y-12045650D02*
X11724706Y-12045650D01*
X11724706Y-12045650D02*
X11743753Y-12055174D01*
X11743753Y-12055174D02*
X11753277Y-12064698D01*
X11753277Y-12064698D02*
X11762801Y-12083746D01*
X11762801Y-12083746D02*
X11762801Y-12140888D01*
X11762801Y-12140888D02*
X11753277Y-12159936D01*
X11753277Y-12159936D02*
X11743753Y-12169460D01*
X11743753Y-12169460D02*
X11724706Y-12178984D01*
X11724706Y-12178984D02*
X11696134Y-12178984D01*
X11877087Y-12178984D02*
X11858039Y-12169460D01*
X11858039Y-12169460D02*
X11848515Y-12150412D01*
X11848515Y-12150412D02*
X11848515Y-11978984D01*
X12029468Y-12169460D02*
X12010420Y-12178984D01*
X12010420Y-12178984D02*
X11972325Y-12178984D01*
X11972325Y-12178984D02*
X11953277Y-12169460D01*
X11953277Y-12169460D02*
X11943753Y-12150412D01*
X11943753Y-12150412D02*
X11943753Y-12074222D01*
X11943753Y-12074222D02*
X11953277Y-12055174D01*
X11953277Y-12055174D02*
X11972325Y-12045650D01*
X11972325Y-12045650D02*
X12010420Y-12045650D01*
X12010420Y-12045650D02*
X12029468Y-12055174D01*
X12029468Y-12055174D02*
X12038991Y-12074222D01*
X12038991Y-12074222D02*
X12038991Y-12093269D01*
X12038991Y-12093269D02*
X11943753Y-12112317D01*
X12115182Y-12169460D02*
X12134230Y-12178984D01*
X12134230Y-12178984D02*
X12172325Y-12178984D01*
X12172325Y-12178984D02*
X12191372Y-12169460D01*
X12191372Y-12169460D02*
X12200896Y-12150412D01*
X12200896Y-12150412D02*
X12200896Y-12140888D01*
X12200896Y-12140888D02*
X12191372Y-12121841D01*
X12191372Y-12121841D02*
X12172325Y-12112317D01*
X12172325Y-12112317D02*
X12143753Y-12112317D01*
X12143753Y-12112317D02*
X12124706Y-12102793D01*
X12124706Y-12102793D02*
X12115182Y-12083746D01*
X12115182Y-12083746D02*
X12115182Y-12074222D01*
X12115182Y-12074222D02*
X12124706Y-12055174D01*
X12124706Y-12055174D02*
X12143753Y-12045650D01*
X12143753Y-12045650D02*
X12172325Y-12045650D01*
X12172325Y-12045650D02*
X12191372Y-12055174D01*
X12267563Y-12255174D02*
X12277087Y-12245650D01*
X12277087Y-12245650D02*
X12296134Y-12217079D01*
X12296134Y-12217079D02*
X12305658Y-12198031D01*
X12305658Y-12198031D02*
X12315182Y-12169460D01*
X12315182Y-12169460D02*
X12324706Y-12121841D01*
X12324706Y-12121841D02*
X12324706Y-12083746D01*
X12324706Y-12083746D02*
X12315182Y-12036127D01*
X12315182Y-12036127D02*
X12305658Y-12007555D01*
X12305658Y-12007555D02*
X12296134Y-11988508D01*
X12296134Y-11988508D02*
X12277087Y-11959936D01*
X12277087Y-11959936D02*
X12267563Y-11950412D01*
X7292500Y-12257500D02*
X7492500Y-12457500D01*
X7492500Y-12257500D02*
X7292500Y-12457500D01*
X7392500Y-12257500D02*
X7392500Y-12457500D01*
X7292500Y-12357500D02*
X7492500Y-12357500D01*
X7743753Y-12268031D02*
X7753277Y-12258508D01*
X7753277Y-12258508D02*
X7772324Y-12248984D01*
X7772324Y-12248984D02*
X7819943Y-12248984D01*
X7819943Y-12248984D02*
X7838991Y-12258508D01*
X7838991Y-12258508D02*
X7848515Y-12268031D01*
X7848515Y-12268031D02*
X7858039Y-12287079D01*
X7858039Y-12287079D02*
X7858039Y-12306127D01*
X7858039Y-12306127D02*
X7848515Y-12334698D01*
X7848515Y-12334698D02*
X7734229Y-12448984D01*
X7734229Y-12448984D02*
X7858039Y-12448984D01*
X7943753Y-12429936D02*
X7953277Y-12439460D01*
X7953277Y-12439460D02*
X7943753Y-12448984D01*
X7943753Y-12448984D02*
X7934229Y-12439460D01*
X7934229Y-12439460D02*
X7943753Y-12429936D01*
X7943753Y-12429936D02*
X7943753Y-12448984D01*
X8143753Y-12448984D02*
X8029467Y-12448984D01*
X8086610Y-12448984D02*
X8086610Y-12248984D01*
X8086610Y-12248984D02*
X8067562Y-12277555D01*
X8067562Y-12277555D02*
X8048515Y-12296603D01*
X8048515Y-12296603D02*
X8029467Y-12306127D01*
X8267562Y-12248984D02*
X8286610Y-12248984D01*
X8286610Y-12248984D02*
X8305658Y-12258508D01*
X8305658Y-12258508D02*
X8315182Y-12268031D01*
X8315182Y-12268031D02*
X8324705Y-12287079D01*
X8324705Y-12287079D02*
X8334229Y-12325174D01*
X8334229Y-12325174D02*
X8334229Y-12372793D01*
X8334229Y-12372793D02*
X8324705Y-12410888D01*
X8324705Y-12410888D02*
X8315182Y-12429936D01*
X8315182Y-12429936D02*
X8305658Y-12439460D01*
X8305658Y-12439460D02*
X8286610Y-12448984D01*
X8286610Y-12448984D02*
X8267562Y-12448984D01*
X8267562Y-12448984D02*
X8248515Y-12439460D01*
X8248515Y-12439460D02*
X8238991Y-12429936D01*
X8238991Y-12429936D02*
X8229467Y-12410888D01*
X8229467Y-12410888D02*
X8219943Y-12372793D01*
X8219943Y-12372793D02*
X8219943Y-12325174D01*
X8219943Y-12325174D02*
X8229467Y-12287079D01*
X8229467Y-12287079D02*
X8238991Y-12268031D01*
X8238991Y-12268031D02*
X8248515Y-12258508D01*
X8248515Y-12258508D02*
X8267562Y-12248984D01*
X8458039Y-12248984D02*
X8477086Y-12248984D01*
X8477086Y-12248984D02*
X8496134Y-12258508D01*
X8496134Y-12258508D02*
X8505658Y-12268031D01*
X8505658Y-12268031D02*
X8515182Y-12287079D01*
X8515182Y-12287079D02*
X8524705Y-12325174D01*
X8524705Y-12325174D02*
X8524705Y-12372793D01*
X8524705Y-12372793D02*
X8515182Y-12410888D01*
X8515182Y-12410888D02*
X8505658Y-12429936D01*
X8505658Y-12429936D02*
X8496134Y-12439460D01*
X8496134Y-12439460D02*
X8477086Y-12448984D01*
X8477086Y-12448984D02*
X8458039Y-12448984D01*
X8458039Y-12448984D02*
X8438991Y-12439460D01*
X8438991Y-12439460D02*
X8429467Y-12429936D01*
X8429467Y-12429936D02*
X8419944Y-12410888D01*
X8419944Y-12410888D02*
X8410420Y-12372793D01*
X8410420Y-12372793D02*
X8410420Y-12325174D01*
X8410420Y-12325174D02*
X8419944Y-12287079D01*
X8419944Y-12287079D02*
X8429467Y-12268031D01*
X8429467Y-12268031D02*
X8438991Y-12258508D01*
X8438991Y-12258508D02*
X8458039Y-12248984D01*
X8610420Y-12448984D02*
X8610420Y-12315650D01*
X8610420Y-12334698D02*
X8619944Y-12325174D01*
X8619944Y-12325174D02*
X8638991Y-12315650D01*
X8638991Y-12315650D02*
X8667563Y-12315650D01*
X8667563Y-12315650D02*
X8686610Y-12325174D01*
X8686610Y-12325174D02*
X8696134Y-12344222D01*
X8696134Y-12344222D02*
X8696134Y-12448984D01*
X8696134Y-12344222D02*
X8705658Y-12325174D01*
X8705658Y-12325174D02*
X8724705Y-12315650D01*
X8724705Y-12315650D02*
X8753277Y-12315650D01*
X8753277Y-12315650D02*
X8772325Y-12325174D01*
X8772325Y-12325174D02*
X8781848Y-12344222D01*
X8781848Y-12344222D02*
X8781848Y-12448984D01*
X8877086Y-12448984D02*
X8877086Y-12315650D01*
X8877086Y-12334698D02*
X8886610Y-12325174D01*
X8886610Y-12325174D02*
X8905658Y-12315650D01*
X8905658Y-12315650D02*
X8934229Y-12315650D01*
X8934229Y-12315650D02*
X8953277Y-12325174D01*
X8953277Y-12325174D02*
X8962801Y-12344222D01*
X8962801Y-12344222D02*
X8962801Y-12448984D01*
X8962801Y-12344222D02*
X8972325Y-12325174D01*
X8972325Y-12325174D02*
X8991372Y-12315650D01*
X8991372Y-12315650D02*
X9019944Y-12315650D01*
X9019944Y-12315650D02*
X9038991Y-12325174D01*
X9038991Y-12325174D02*
X9048515Y-12344222D01*
X9048515Y-12344222D02*
X9048515Y-12448984D01*
X9438991Y-12239460D02*
X9267563Y-12496603D01*
X9696134Y-12248984D02*
X9715182Y-12248984D01*
X9715182Y-12248984D02*
X9734229Y-12258508D01*
X9734229Y-12258508D02*
X9743753Y-12268031D01*
X9743753Y-12268031D02*
X9753277Y-12287079D01*
X9753277Y-12287079D02*
X9762801Y-12325174D01*
X9762801Y-12325174D02*
X9762801Y-12372793D01*
X9762801Y-12372793D02*
X9753277Y-12410888D01*
X9753277Y-12410888D02*
X9743753Y-12429936D01*
X9743753Y-12429936D02*
X9734229Y-12439460D01*
X9734229Y-12439460D02*
X9715182Y-12448984D01*
X9715182Y-12448984D02*
X9696134Y-12448984D01*
X9696134Y-12448984D02*
X9677087Y-12439460D01*
X9677087Y-12439460D02*
X9667563Y-12429936D01*
X9667563Y-12429936D02*
X9658039Y-12410888D01*
X9658039Y-12410888D02*
X9648515Y-12372793D01*
X9648515Y-12372793D02*
X9648515Y-12325174D01*
X9648515Y-12325174D02*
X9658039Y-12287079D01*
X9658039Y-12287079D02*
X9667563Y-12268031D01*
X9667563Y-12268031D02*
X9677087Y-12258508D01*
X9677087Y-12258508D02*
X9696134Y-12248984D01*
X9848515Y-12429936D02*
X9858039Y-12439460D01*
X9858039Y-12439460D02*
X9848515Y-12448984D01*
X9848515Y-12448984D02*
X9838991Y-12439460D01*
X9838991Y-12439460D02*
X9848515Y-12429936D01*
X9848515Y-12429936D02*
X9848515Y-12448984D01*
X9981848Y-12248984D02*
X10000896Y-12248984D01*
X10000896Y-12248984D02*
X10019944Y-12258508D01*
X10019944Y-12258508D02*
X10029468Y-12268031D01*
X10029468Y-12268031D02*
X10038991Y-12287079D01*
X10038991Y-12287079D02*
X10048515Y-12325174D01*
X10048515Y-12325174D02*
X10048515Y-12372793D01*
X10048515Y-12372793D02*
X10038991Y-12410888D01*
X10038991Y-12410888D02*
X10029468Y-12429936D01*
X10029468Y-12429936D02*
X10019944Y-12439460D01*
X10019944Y-12439460D02*
X10000896Y-12448984D01*
X10000896Y-12448984D02*
X9981848Y-12448984D01*
X9981848Y-12448984D02*
X9962801Y-12439460D01*
X9962801Y-12439460D02*
X9953277Y-12429936D01*
X9953277Y-12429936D02*
X9943753Y-12410888D01*
X9943753Y-12410888D02*
X9934229Y-12372793D01*
X9934229Y-12372793D02*
X9934229Y-12325174D01*
X9934229Y-12325174D02*
X9943753Y-12287079D01*
X9943753Y-12287079D02*
X9953277Y-12268031D01*
X9953277Y-12268031D02*
X9962801Y-12258508D01*
X9962801Y-12258508D02*
X9981848Y-12248984D01*
X10162801Y-12334698D02*
X10143753Y-12325174D01*
X10143753Y-12325174D02*
X10134229Y-12315650D01*
X10134229Y-12315650D02*
X10124706Y-12296603D01*
X10124706Y-12296603D02*
X10124706Y-12287079D01*
X10124706Y-12287079D02*
X10134229Y-12268031D01*
X10134229Y-12268031D02*
X10143753Y-12258508D01*
X10143753Y-12258508D02*
X10162801Y-12248984D01*
X10162801Y-12248984D02*
X10200896Y-12248984D01*
X10200896Y-12248984D02*
X10219944Y-12258508D01*
X10219944Y-12258508D02*
X10229468Y-12268031D01*
X10229468Y-12268031D02*
X10238991Y-12287079D01*
X10238991Y-12287079D02*
X10238991Y-12296603D01*
X10238991Y-12296603D02*
X10229468Y-12315650D01*
X10229468Y-12315650D02*
X10219944Y-12325174D01*
X10219944Y-12325174D02*
X10200896Y-12334698D01*
X10200896Y-12334698D02*
X10162801Y-12334698D01*
X10162801Y-12334698D02*
X10143753Y-12344222D01*
X10143753Y-12344222D02*
X10134229Y-12353746D01*
X10134229Y-12353746D02*
X10124706Y-12372793D01*
X10124706Y-12372793D02*
X10124706Y-12410888D01*
X10124706Y-12410888D02*
X10134229Y-12429936D01*
X10134229Y-12429936D02*
X10143753Y-12439460D01*
X10143753Y-12439460D02*
X10162801Y-12448984D01*
X10162801Y-12448984D02*
X10200896Y-12448984D01*
X10200896Y-12448984D02*
X10219944Y-12439460D01*
X10219944Y-12439460D02*
X10229468Y-12429936D01*
X10229468Y-12429936D02*
X10238991Y-12410888D01*
X10238991Y-12410888D02*
X10238991Y-12372793D01*
X10238991Y-12372793D02*
X10229468Y-12353746D01*
X10229468Y-12353746D02*
X10219944Y-12344222D01*
X10219944Y-12344222D02*
X10200896Y-12334698D01*
X10315182Y-12268031D02*
X10324706Y-12258508D01*
X10324706Y-12258508D02*
X10343753Y-12248984D01*
X10343753Y-12248984D02*
X10391372Y-12248984D01*
X10391372Y-12248984D02*
X10410420Y-12258508D01*
X10410420Y-12258508D02*
X10419944Y-12268031D01*
X10419944Y-12268031D02*
X10429468Y-12287079D01*
X10429468Y-12287079D02*
X10429468Y-12306127D01*
X10429468Y-12306127D02*
X10419944Y-12334698D01*
X10419944Y-12334698D02*
X10305658Y-12448984D01*
X10305658Y-12448984D02*
X10429468Y-12448984D01*
X10496134Y-12248984D02*
X10629468Y-12248984D01*
X10629468Y-12248984D02*
X10543753Y-12448984D01*
X10696134Y-12248984D02*
X10696134Y-12287079D01*
X10772325Y-12248984D02*
X10772325Y-12287079D01*
X11067563Y-12525174D02*
X11058039Y-12515650D01*
X11058039Y-12515650D02*
X11038991Y-12487079D01*
X11038991Y-12487079D02*
X11029468Y-12468031D01*
X11029468Y-12468031D02*
X11019944Y-12439460D01*
X11019944Y-12439460D02*
X11010420Y-12391841D01*
X11010420Y-12391841D02*
X11010420Y-12353746D01*
X11010420Y-12353746D02*
X11019944Y-12306127D01*
X11019944Y-12306127D02*
X11029468Y-12277555D01*
X11029468Y-12277555D02*
X11038991Y-12258508D01*
X11038991Y-12258508D02*
X11058039Y-12229936D01*
X11058039Y-12229936D02*
X11067563Y-12220412D01*
X11134230Y-12268031D02*
X11143753Y-12258508D01*
X11143753Y-12258508D02*
X11162801Y-12248984D01*
X11162801Y-12248984D02*
X11210420Y-12248984D01*
X11210420Y-12248984D02*
X11229468Y-12258508D01*
X11229468Y-12258508D02*
X11238991Y-12268031D01*
X11238991Y-12268031D02*
X11248515Y-12287079D01*
X11248515Y-12287079D02*
X11248515Y-12306127D01*
X11248515Y-12306127D02*
X11238991Y-12334698D01*
X11238991Y-12334698D02*
X11124706Y-12448984D01*
X11124706Y-12448984D02*
X11248515Y-12448984D01*
X11486610Y-12448984D02*
X11486610Y-12248984D01*
X11572325Y-12448984D02*
X11572325Y-12344222D01*
X11572325Y-12344222D02*
X11562801Y-12325174D01*
X11562801Y-12325174D02*
X11543753Y-12315650D01*
X11543753Y-12315650D02*
X11515182Y-12315650D01*
X11515182Y-12315650D02*
X11496134Y-12325174D01*
X11496134Y-12325174D02*
X11486610Y-12334698D01*
X11696134Y-12448984D02*
X11677087Y-12439460D01*
X11677087Y-12439460D02*
X11667563Y-12429936D01*
X11667563Y-12429936D02*
X11658039Y-12410888D01*
X11658039Y-12410888D02*
X11658039Y-12353746D01*
X11658039Y-12353746D02*
X11667563Y-12334698D01*
X11667563Y-12334698D02*
X11677087Y-12325174D01*
X11677087Y-12325174D02*
X11696134Y-12315650D01*
X11696134Y-12315650D02*
X11724706Y-12315650D01*
X11724706Y-12315650D02*
X11743753Y-12325174D01*
X11743753Y-12325174D02*
X11753277Y-12334698D01*
X11753277Y-12334698D02*
X11762801Y-12353746D01*
X11762801Y-12353746D02*
X11762801Y-12410888D01*
X11762801Y-12410888D02*
X11753277Y-12429936D01*
X11753277Y-12429936D02*
X11743753Y-12439460D01*
X11743753Y-12439460D02*
X11724706Y-12448984D01*
X11724706Y-12448984D02*
X11696134Y-12448984D01*
X11877087Y-12448984D02*
X11858039Y-12439460D01*
X11858039Y-12439460D02*
X11848515Y-12420412D01*
X11848515Y-12420412D02*
X11848515Y-12248984D01*
X12029468Y-12439460D02*
X12010420Y-12448984D01*
X12010420Y-12448984D02*
X11972325Y-12448984D01*
X11972325Y-12448984D02*
X11953277Y-12439460D01*
X11953277Y-12439460D02*
X11943753Y-12420412D01*
X11943753Y-12420412D02*
X11943753Y-12344222D01*
X11943753Y-12344222D02*
X11953277Y-12325174D01*
X11953277Y-12325174D02*
X11972325Y-12315650D01*
X11972325Y-12315650D02*
X12010420Y-12315650D01*
X12010420Y-12315650D02*
X12029468Y-12325174D01*
X12029468Y-12325174D02*
X12038991Y-12344222D01*
X12038991Y-12344222D02*
X12038991Y-12363269D01*
X12038991Y-12363269D02*
X11943753Y-12382317D01*
X12115182Y-12439460D02*
X12134230Y-12448984D01*
X12134230Y-12448984D02*
X12172325Y-12448984D01*
X12172325Y-12448984D02*
X12191372Y-12439460D01*
X12191372Y-12439460D02*
X12200896Y-12420412D01*
X12200896Y-12420412D02*
X12200896Y-12410888D01*
X12200896Y-12410888D02*
X12191372Y-12391841D01*
X12191372Y-12391841D02*
X12172325Y-12382317D01*
X12172325Y-12382317D02*
X12143753Y-12382317D01*
X12143753Y-12382317D02*
X12124706Y-12372793D01*
X12124706Y-12372793D02*
X12115182Y-12353746D01*
X12115182Y-12353746D02*
X12115182Y-12344222D01*
X12115182Y-12344222D02*
X12124706Y-12325174D01*
X12124706Y-12325174D02*
X12143753Y-12315650D01*
X12143753Y-12315650D02*
X12172325Y-12315650D01*
X12172325Y-12315650D02*
X12191372Y-12325174D01*
X12267563Y-12525174D02*
X12277087Y-12515650D01*
X12277087Y-12515650D02*
X12296134Y-12487079D01*
X12296134Y-12487079D02*
X12305658Y-12468031D01*
X12305658Y-12468031D02*
X12315182Y-12439460D01*
X12315182Y-12439460D02*
X12324706Y-12391841D01*
X12324706Y-12391841D02*
X12324706Y-12353746D01*
X12324706Y-12353746D02*
X12315182Y-12306127D01*
X12315182Y-12306127D02*
X12305658Y-12277555D01*
X12305658Y-12277555D02*
X12296134Y-12258508D01*
X12296134Y-12258508D02*
X12277087Y-12229936D01*
X12277087Y-12229936D02*
X12267563Y-12220412D01*
X7292500Y-12577500D02*
X7492500Y-12777500D01*
X7492500Y-12577500D02*
X7292500Y-12777500D01*
X7463211Y-12748211D02*
X7463211Y-12606789D01*
X7321789Y-12606789D01*
X7321789Y-12748211D01*
X7463211Y-12748211D01*
X7743753Y-12588031D02*
X7753277Y-12578508D01*
X7753277Y-12578508D02*
X7772324Y-12568984D01*
X7772324Y-12568984D02*
X7819943Y-12568984D01*
X7819943Y-12568984D02*
X7838991Y-12578508D01*
X7838991Y-12578508D02*
X7848515Y-12588031D01*
X7848515Y-12588031D02*
X7858039Y-12607079D01*
X7858039Y-12607079D02*
X7858039Y-12626127D01*
X7858039Y-12626127D02*
X7848515Y-12654698D01*
X7848515Y-12654698D02*
X7734229Y-12768984D01*
X7734229Y-12768984D02*
X7858039Y-12768984D01*
X7943753Y-12749936D02*
X7953277Y-12759460D01*
X7953277Y-12759460D02*
X7943753Y-12768984D01*
X7943753Y-12768984D02*
X7934229Y-12759460D01*
X7934229Y-12759460D02*
X7943753Y-12749936D01*
X7943753Y-12749936D02*
X7943753Y-12768984D01*
X8019943Y-12568984D02*
X8153277Y-12568984D01*
X8153277Y-12568984D02*
X8067562Y-12768984D01*
X8267562Y-12568984D02*
X8286610Y-12568984D01*
X8286610Y-12568984D02*
X8305658Y-12578508D01*
X8305658Y-12578508D02*
X8315182Y-12588031D01*
X8315182Y-12588031D02*
X8324705Y-12607079D01*
X8324705Y-12607079D02*
X8334229Y-12645174D01*
X8334229Y-12645174D02*
X8334229Y-12692793D01*
X8334229Y-12692793D02*
X8324705Y-12730888D01*
X8324705Y-12730888D02*
X8315182Y-12749936D01*
X8315182Y-12749936D02*
X8305658Y-12759460D01*
X8305658Y-12759460D02*
X8286610Y-12768984D01*
X8286610Y-12768984D02*
X8267562Y-12768984D01*
X8267562Y-12768984D02*
X8248515Y-12759460D01*
X8248515Y-12759460D02*
X8238991Y-12749936D01*
X8238991Y-12749936D02*
X8229467Y-12730888D01*
X8229467Y-12730888D02*
X8219943Y-12692793D01*
X8219943Y-12692793D02*
X8219943Y-12645174D01*
X8219943Y-12645174D02*
X8229467Y-12607079D01*
X8229467Y-12607079D02*
X8238991Y-12588031D01*
X8238991Y-12588031D02*
X8248515Y-12578508D01*
X8248515Y-12578508D02*
X8267562Y-12568984D01*
X8458039Y-12568984D02*
X8477086Y-12568984D01*
X8477086Y-12568984D02*
X8496134Y-12578508D01*
X8496134Y-12578508D02*
X8505658Y-12588031D01*
X8505658Y-12588031D02*
X8515182Y-12607079D01*
X8515182Y-12607079D02*
X8524705Y-12645174D01*
X8524705Y-12645174D02*
X8524705Y-12692793D01*
X8524705Y-12692793D02*
X8515182Y-12730888D01*
X8515182Y-12730888D02*
X8505658Y-12749936D01*
X8505658Y-12749936D02*
X8496134Y-12759460D01*
X8496134Y-12759460D02*
X8477086Y-12768984D01*
X8477086Y-12768984D02*
X8458039Y-12768984D01*
X8458039Y-12768984D02*
X8438991Y-12759460D01*
X8438991Y-12759460D02*
X8429467Y-12749936D01*
X8429467Y-12749936D02*
X8419944Y-12730888D01*
X8419944Y-12730888D02*
X8410420Y-12692793D01*
X8410420Y-12692793D02*
X8410420Y-12645174D01*
X8410420Y-12645174D02*
X8419944Y-12607079D01*
X8419944Y-12607079D02*
X8429467Y-12588031D01*
X8429467Y-12588031D02*
X8438991Y-12578508D01*
X8438991Y-12578508D02*
X8458039Y-12568984D01*
X8610420Y-12768984D02*
X8610420Y-12635650D01*
X8610420Y-12654698D02*
X8619944Y-12645174D01*
X8619944Y-12645174D02*
X8638991Y-12635650D01*
X8638991Y-12635650D02*
X8667563Y-12635650D01*
X8667563Y-12635650D02*
X8686610Y-12645174D01*
X8686610Y-12645174D02*
X8696134Y-12664222D01*
X8696134Y-12664222D02*
X8696134Y-12768984D01*
X8696134Y-12664222D02*
X8705658Y-12645174D01*
X8705658Y-12645174D02*
X8724705Y-12635650D01*
X8724705Y-12635650D02*
X8753277Y-12635650D01*
X8753277Y-12635650D02*
X8772325Y-12645174D01*
X8772325Y-12645174D02*
X8781848Y-12664222D01*
X8781848Y-12664222D02*
X8781848Y-12768984D01*
X8877086Y-12768984D02*
X8877086Y-12635650D01*
X8877086Y-12654698D02*
X8886610Y-12645174D01*
X8886610Y-12645174D02*
X8905658Y-12635650D01*
X8905658Y-12635650D02*
X8934229Y-12635650D01*
X8934229Y-12635650D02*
X8953277Y-12645174D01*
X8953277Y-12645174D02*
X8962801Y-12664222D01*
X8962801Y-12664222D02*
X8962801Y-12768984D01*
X8962801Y-12664222D02*
X8972325Y-12645174D01*
X8972325Y-12645174D02*
X8991372Y-12635650D01*
X8991372Y-12635650D02*
X9019944Y-12635650D01*
X9019944Y-12635650D02*
X9038991Y-12645174D01*
X9038991Y-12645174D02*
X9048515Y-12664222D01*
X9048515Y-12664222D02*
X9048515Y-12768984D01*
X9438991Y-12559460D02*
X9267563Y-12816603D01*
X9696134Y-12568984D02*
X9715182Y-12568984D01*
X9715182Y-12568984D02*
X9734229Y-12578508D01*
X9734229Y-12578508D02*
X9743753Y-12588031D01*
X9743753Y-12588031D02*
X9753277Y-12607079D01*
X9753277Y-12607079D02*
X9762801Y-12645174D01*
X9762801Y-12645174D02*
X9762801Y-12692793D01*
X9762801Y-12692793D02*
X9753277Y-12730888D01*
X9753277Y-12730888D02*
X9743753Y-12749936D01*
X9743753Y-12749936D02*
X9734229Y-12759460D01*
X9734229Y-12759460D02*
X9715182Y-12768984D01*
X9715182Y-12768984D02*
X9696134Y-12768984D01*
X9696134Y-12768984D02*
X9677087Y-12759460D01*
X9677087Y-12759460D02*
X9667563Y-12749936D01*
X9667563Y-12749936D02*
X9658039Y-12730888D01*
X9658039Y-12730888D02*
X9648515Y-12692793D01*
X9648515Y-12692793D02*
X9648515Y-12645174D01*
X9648515Y-12645174D02*
X9658039Y-12607079D01*
X9658039Y-12607079D02*
X9667563Y-12588031D01*
X9667563Y-12588031D02*
X9677087Y-12578508D01*
X9677087Y-12578508D02*
X9696134Y-12568984D01*
X9848515Y-12749936D02*
X9858039Y-12759460D01*
X9858039Y-12759460D02*
X9848515Y-12768984D01*
X9848515Y-12768984D02*
X9838991Y-12759460D01*
X9838991Y-12759460D02*
X9848515Y-12749936D01*
X9848515Y-12749936D02*
X9848515Y-12768984D01*
X10048515Y-12768984D02*
X9934229Y-12768984D01*
X9991372Y-12768984D02*
X9991372Y-12568984D01*
X9991372Y-12568984D02*
X9972325Y-12597555D01*
X9972325Y-12597555D02*
X9953277Y-12616603D01*
X9953277Y-12616603D02*
X9934229Y-12626127D01*
X10172325Y-12568984D02*
X10191372Y-12568984D01*
X10191372Y-12568984D02*
X10210420Y-12578508D01*
X10210420Y-12578508D02*
X10219944Y-12588031D01*
X10219944Y-12588031D02*
X10229468Y-12607079D01*
X10229468Y-12607079D02*
X10238991Y-12645174D01*
X10238991Y-12645174D02*
X10238991Y-12692793D01*
X10238991Y-12692793D02*
X10229468Y-12730888D01*
X10229468Y-12730888D02*
X10219944Y-12749936D01*
X10219944Y-12749936D02*
X10210420Y-12759460D01*
X10210420Y-12759460D02*
X10191372Y-12768984D01*
X10191372Y-12768984D02*
X10172325Y-12768984D01*
X10172325Y-12768984D02*
X10153277Y-12759460D01*
X10153277Y-12759460D02*
X10143753Y-12749936D01*
X10143753Y-12749936D02*
X10134229Y-12730888D01*
X10134229Y-12730888D02*
X10124706Y-12692793D01*
X10124706Y-12692793D02*
X10124706Y-12645174D01*
X10124706Y-12645174D02*
X10134229Y-12607079D01*
X10134229Y-12607079D02*
X10143753Y-12588031D01*
X10143753Y-12588031D02*
X10153277Y-12578508D01*
X10153277Y-12578508D02*
X10172325Y-12568984D01*
X10410420Y-12568984D02*
X10372325Y-12568984D01*
X10372325Y-12568984D02*
X10353277Y-12578508D01*
X10353277Y-12578508D02*
X10343753Y-12588031D01*
X10343753Y-12588031D02*
X10324706Y-12616603D01*
X10324706Y-12616603D02*
X10315182Y-12654698D01*
X10315182Y-12654698D02*
X10315182Y-12730888D01*
X10315182Y-12730888D02*
X10324706Y-12749936D01*
X10324706Y-12749936D02*
X10334229Y-12759460D01*
X10334229Y-12759460D02*
X10353277Y-12768984D01*
X10353277Y-12768984D02*
X10391372Y-12768984D01*
X10391372Y-12768984D02*
X10410420Y-12759460D01*
X10410420Y-12759460D02*
X10419944Y-12749936D01*
X10419944Y-12749936D02*
X10429468Y-12730888D01*
X10429468Y-12730888D02*
X10429468Y-12683269D01*
X10429468Y-12683269D02*
X10419944Y-12664222D01*
X10419944Y-12664222D02*
X10410420Y-12654698D01*
X10410420Y-12654698D02*
X10391372Y-12645174D01*
X10391372Y-12645174D02*
X10353277Y-12645174D01*
X10353277Y-12645174D02*
X10334229Y-12654698D01*
X10334229Y-12654698D02*
X10324706Y-12664222D01*
X10324706Y-12664222D02*
X10315182Y-12683269D01*
X10496134Y-12568984D02*
X10619944Y-12568984D01*
X10619944Y-12568984D02*
X10553277Y-12645174D01*
X10553277Y-12645174D02*
X10581849Y-12645174D01*
X10581849Y-12645174D02*
X10600896Y-12654698D01*
X10600896Y-12654698D02*
X10610420Y-12664222D01*
X10610420Y-12664222D02*
X10619944Y-12683269D01*
X10619944Y-12683269D02*
X10619944Y-12730888D01*
X10619944Y-12730888D02*
X10610420Y-12749936D01*
X10610420Y-12749936D02*
X10600896Y-12759460D01*
X10600896Y-12759460D02*
X10581849Y-12768984D01*
X10581849Y-12768984D02*
X10524706Y-12768984D01*
X10524706Y-12768984D02*
X10505658Y-12759460D01*
X10505658Y-12759460D02*
X10496134Y-12749936D01*
X10696134Y-12568984D02*
X10696134Y-12607079D01*
X10772325Y-12568984D02*
X10772325Y-12607079D01*
X11067563Y-12845174D02*
X11058039Y-12835650D01*
X11058039Y-12835650D02*
X11038991Y-12807079D01*
X11038991Y-12807079D02*
X11029468Y-12788031D01*
X11029468Y-12788031D02*
X11019944Y-12759460D01*
X11019944Y-12759460D02*
X11010420Y-12711841D01*
X11010420Y-12711841D02*
X11010420Y-12673746D01*
X11010420Y-12673746D02*
X11019944Y-12626127D01*
X11019944Y-12626127D02*
X11029468Y-12597555D01*
X11029468Y-12597555D02*
X11038991Y-12578508D01*
X11038991Y-12578508D02*
X11058039Y-12549936D01*
X11058039Y-12549936D02*
X11067563Y-12540412D01*
X11134230Y-12588031D02*
X11143753Y-12578508D01*
X11143753Y-12578508D02*
X11162801Y-12568984D01*
X11162801Y-12568984D02*
X11210420Y-12568984D01*
X11210420Y-12568984D02*
X11229468Y-12578508D01*
X11229468Y-12578508D02*
X11238991Y-12588031D01*
X11238991Y-12588031D02*
X11248515Y-12607079D01*
X11248515Y-12607079D02*
X11248515Y-12626127D01*
X11248515Y-12626127D02*
X11238991Y-12654698D01*
X11238991Y-12654698D02*
X11124706Y-12768984D01*
X11124706Y-12768984D02*
X11248515Y-12768984D01*
X11486610Y-12768984D02*
X11486610Y-12568984D01*
X11572325Y-12768984D02*
X11572325Y-12664222D01*
X11572325Y-12664222D02*
X11562801Y-12645174D01*
X11562801Y-12645174D02*
X11543753Y-12635650D01*
X11543753Y-12635650D02*
X11515182Y-12635650D01*
X11515182Y-12635650D02*
X11496134Y-12645174D01*
X11496134Y-12645174D02*
X11486610Y-12654698D01*
X11696134Y-12768984D02*
X11677087Y-12759460D01*
X11677087Y-12759460D02*
X11667563Y-12749936D01*
X11667563Y-12749936D02*
X11658039Y-12730888D01*
X11658039Y-12730888D02*
X11658039Y-12673746D01*
X11658039Y-12673746D02*
X11667563Y-12654698D01*
X11667563Y-12654698D02*
X11677087Y-12645174D01*
X11677087Y-12645174D02*
X11696134Y-12635650D01*
X11696134Y-12635650D02*
X11724706Y-12635650D01*
X11724706Y-12635650D02*
X11743753Y-12645174D01*
X11743753Y-12645174D02*
X11753277Y-12654698D01*
X11753277Y-12654698D02*
X11762801Y-12673746D01*
X11762801Y-12673746D02*
X11762801Y-12730888D01*
X11762801Y-12730888D02*
X11753277Y-12749936D01*
X11753277Y-12749936D02*
X11743753Y-12759460D01*
X11743753Y-12759460D02*
X11724706Y-12768984D01*
X11724706Y-12768984D02*
X11696134Y-12768984D01*
X11877087Y-12768984D02*
X11858039Y-12759460D01*
X11858039Y-12759460D02*
X11848515Y-12740412D01*
X11848515Y-12740412D02*
X11848515Y-12568984D01*
X12029468Y-12759460D02*
X12010420Y-12768984D01*
X12010420Y-12768984D02*
X11972325Y-12768984D01*
X11972325Y-12768984D02*
X11953277Y-12759460D01*
X11953277Y-12759460D02*
X11943753Y-12740412D01*
X11943753Y-12740412D02*
X11943753Y-12664222D01*
X11943753Y-12664222D02*
X11953277Y-12645174D01*
X11953277Y-12645174D02*
X11972325Y-12635650D01*
X11972325Y-12635650D02*
X12010420Y-12635650D01*
X12010420Y-12635650D02*
X12029468Y-12645174D01*
X12029468Y-12645174D02*
X12038991Y-12664222D01*
X12038991Y-12664222D02*
X12038991Y-12683269D01*
X12038991Y-12683269D02*
X11943753Y-12702317D01*
X12115182Y-12759460D02*
X12134230Y-12768984D01*
X12134230Y-12768984D02*
X12172325Y-12768984D01*
X12172325Y-12768984D02*
X12191372Y-12759460D01*
X12191372Y-12759460D02*
X12200896Y-12740412D01*
X12200896Y-12740412D02*
X12200896Y-12730888D01*
X12200896Y-12730888D02*
X12191372Y-12711841D01*
X12191372Y-12711841D02*
X12172325Y-12702317D01*
X12172325Y-12702317D02*
X12143753Y-12702317D01*
X12143753Y-12702317D02*
X12124706Y-12692793D01*
X12124706Y-12692793D02*
X12115182Y-12673746D01*
X12115182Y-12673746D02*
X12115182Y-12664222D01*
X12115182Y-12664222D02*
X12124706Y-12645174D01*
X12124706Y-12645174D02*
X12143753Y-12635650D01*
X12143753Y-12635650D02*
X12172325Y-12635650D01*
X12172325Y-12635650D02*
X12191372Y-12645174D01*
X12267563Y-12845174D02*
X12277087Y-12835650D01*
X12277087Y-12835650D02*
X12296134Y-12807079D01*
X12296134Y-12807079D02*
X12305658Y-12788031D01*
X12305658Y-12788031D02*
X12315182Y-12759460D01*
X12315182Y-12759460D02*
X12324706Y-12711841D01*
X12324706Y-12711841D02*
X12324706Y-12673746D01*
X12324706Y-12673746D02*
X12315182Y-12626127D01*
X12315182Y-12626127D02*
X12305658Y-12597555D01*
X12305658Y-12597555D02*
X12296134Y-12578508D01*
X12296134Y-12578508D02*
X12277087Y-12549936D01*
X12277087Y-12549936D02*
X12267563Y-12540412D01*
M02*
